<?xml version="1.0" encoding="utf-8" ?>
<svg baseProfile="full" height="300mm" version="1.1" viewBox="0,0,200,300" width="200mm" xmlns="http://www.w3.org/2000/svg" xmlns:ev="http://www.w3.org/2001/xml-events" xmlns:xlink="http://www.w3.org/1999/xlink"><defs /><rect fill="#222222" height="300" width="200" x="0" y="0" /><text fill="#FFFFFF" style="font-size:12px; font-family:-apple-system, BlinkMacSystemFont, 'Segoe UI', Roboto, 'Helvetica Neue', Arial, sans-serif; font-weight:bold;" x="10" y="20">Over 3km Runs</text><text fill="#FFFFFF" style="font-size:4px; font-family:-apple-system, BlinkMacSystemFont, 'Segoe UI', Roboto, 'Helvetica Neue', Arial, sans-serif;" x="10" y="280">Runner</text><text fill="#FFFFFF" style="font-size:9px; font-family:-apple-system, BlinkMacSystemFont, 'Segoe UI', Roboto, 'Helvetica Neue', Arial, sans-serif;" x="10" y="290">Hannah YAN</text><text fill="#FFFFFF" style="font-size:4px; font-family:-apple-system, BlinkMacSystemFont, 'Segoe UI', Roboto, 'Helvetica Neue', Arial, sans-serif;" x="65" y="280">SPECIAL TRACKS</text><rect fill="yellow" height="2.6" width="2.6" x="65" y="283" /><text fill="#FFFFFF" style="font-size:3px; font-family:-apple-system, BlinkMacSystemFont, 'Segoe UI', Roboto, 'Helvetica Neue', Arial, sans-serif;" x="70" y="285.5">Over 20.0 km</text><rect fill="red" height="2.6" width="2.6" x="65" y="287" /><text fill="#FFFFFF" style="font-size:3px; font-family:-apple-system, BlinkMacSystemFont, 'Segoe UI', Roboto, 'Helvetica Neue', Arial, sans-serif;" x="70" y="289.5">Over 40.0 km</text><text fill="#FFFFFF" style="font-size:4px; font-family:-apple-system, BlinkMacSystemFont, 'Segoe UI', Roboto, 'Helvetica Neue', Arial, sans-serif;" x="120" y="280">STATISTICS</text><text fill="#FFFFFF" style="font-size:3px; font-family:-apple-system, BlinkMacSystemFont, 'Segoe UI', Roboto, 'Helvetica Neue', Arial, sans-serif;" x="120" y="285">Number: 306</text><text fill="#FFFFFF" style="font-size:3px; font-family:-apple-system, BlinkMacSystemFont, 'Segoe UI', Roboto, 'Helvetica Neue', Arial, sans-serif;" x="120" y="290">Weekly: 2.8</text><text fill="#FFFFFF" style="font-size:3px; font-family:-apple-system, BlinkMacSystemFont, 'Segoe UI', Roboto, 'Helvetica Neue', Arial, sans-serif;" x="141" y="285">Total: 2674.1 km</text><text fill="#FFFFFF" style="font-size:3px; font-family:-apple-system, BlinkMacSystemFont, 'Segoe UI', Roboto, 'Helvetica Neue', Arial, sans-serif;" x="141" y="290">Avg: 8.7 km</text><text fill="#FFFFFF" style="font-size:3px; font-family:-apple-system, BlinkMacSystemFont, 'Segoe UI', Roboto, 'Helvetica Neue', Arial, sans-serif;" x="167" y="285">Min: 3.0 km</text><text fill="#FFFFFF" style="font-size:3px; font-family:-apple-system, BlinkMacSystemFont, 'Segoe UI', Roboto, 'Helvetica Neue', Arial, sans-serif;" x="167" y="290">Max: 42.8 km</text><polyline fill="none" opacity="1" points="11.526462395500857,33.53670097908616 10.781536012713332,35.133638533981866 10.571428571420256,36.373202781578584 13.169120572973043,36.99856300501415 14.2960604854743,33.96106436425907 14.286510147212539,32.676801520945446 14.095503382384777,32.576293334932416 11.555113410227932,32.75497448837996 11.411858336592559,33.815887608681805 10.743334659724496,35.22297698442708 10.609629924350884,36.39553713906935 16.85555113409646,37.88076130760601 17.247115002013743,38.1264354721352 17.94428969360888,38.182270429802884 20.150417827244382,39.00862435105955 20.85714285710128,38.96395673687948 20.475129327503964,36.39553713906935 20.245921209687367,35.92651463990478 17.132510943047237,37.132568285262096 16.874651810561772,37.065565666387556 17.09430959011661,35.35698451833741 17.0274572224007,32.598628495623416 16.903302825288847,32.419947077512916 11.564663748489693,32.743806925158424 11.526462395500857,33.469696078114794 10.857938718632795,34.966128735664824 10.571428571420256,36.35086841938755 13.083167528791819,37.0208972301989 13.264623955416027,36.88689180822985 14.17190608830424,34.44126297982439 14.305610823677853,32.66563394945115 13.656187823275104,32.576293334932416 11.574214086751454,32.72147179514286 11.507361719035544,33.61487330978707 10.81973736564396,35.1224712223775 10.58097890962381,36.35086841938755 13.216872264165431,36.9762287751073 14.276959808950778,34.10624092024227 14.305610823677853,32.72147179514286 14.17190608830424,32.56512575276429 11.574214086751454,32.73263936075091 11.48826104257023,33.67071065342316 10.89614007162163,34.82095336211205 10.59052924788557,36.261530923322425 10.915240748086944,36.47370735301956 16.588141663349234,37.858427264363854 16.826900119369384,37.46758074182435 17.09430959011661,35.28998077264259 16.998806207731832,32.56512575276429" stroke="#4dd2ff" stroke-dasharray="none" stroke-linecap="round" stroke-linejoin="round" stroke-width="0.5"><title>2026-07-09 10.0km</title><desc>1783598044000</desc></polyline><polyline fill="none" opacity="1" points="28.89621570543386,31.09222836547997 27.114965107059106,30.63652856979752 25.333714508917183,31.547927823849022 24.832737778313458,32.980123922694474 25.834691239520907,39.034370587032754 27.671605919022113,40.72694501694059 30.677466303575784,39.1645687854616 29.786841004388407,32.65462510212092 27.448949594283476,30.571428571478464 25.667698995908722,31.157328308850992 24.88840185920708,32.65462510212092 25.779027158394456,39.034370587032754 27.83859816286713,40.79204394062981 30.677466303575784,38.96927147731185 29.786841004388407,32.78482465108391 27.61594183789566,30.571428571478464 24.777073696954176,32.32912610931089 25.667698995908722,39.099469689594116 28.116918568732217,40.85714285715949 29.56418467964977,40.4014502959908 30.733130384935066,38.578676675329916 29.89816916687414,32.65462510212092 28.951879786560312,31.22242824517889 27.170629188185558,30.63652856979752 24.721409615594894,32.78482465108391 26.057347564492375,39.22966787428595 28.172582649625838,40.6618460866157 30.677466303575784,38.578676675329916 29.731176923494786,32.2640262900386 27.114965107059106,30.76672854583012 24.94406594056636,32.39422592159826 25.89035532088019,39.22966787428595 28.005590406246483,40.79204394062981 29.61984876077622,40.4014502959908 30.733130384935066,38.64377582632005 29.61984876077622,32.65462510212092 28.784887542948127,31.22242824517889 27.059301025932655,30.70162856130628 24.777073696954176,32.78482465108391 25.834691239520907,39.1645687854616 28.673559380462393,40.72694501694059 30.399145897710696,39.620262262935285 30.788794466061518,38.05788322020089 29.341528354911134,31.87342722999165 26.502660213969648,30.831828523485456 24.777073696954176,32.84992441511713 25.834691239520907,38.96927147731185 27.059301025932655,40.59674714936409 28.395238974597305,40.6618460866157 30.120825491612777,39.94575739733409 30.733130384935066,38.31828000303358 29.731176923494786,32.2640262900386 26.89230878232047,30.70162856130628 24.777073696954176,32.52442552574212 25.89035532088019,39.42496509948978 28.172582649625838,40.72694501694059 30.733130384935066,38.8390732377884 29.675512842135504,32.39422592159826 26.89230878232047,30.76672854583012 24.94406594056636,32.84992441511713 25.723363077035174,39.1645687854616 28.005590406246483,40.6618460866157 29.89816916687414,39.880658384179696 30.788794466061518,38.38337918149773 29.397192436270416,31.808327362465207 26.94797286344692,30.63652856979752 25.500706752529368,31.287528174521867 24.777073696954176,32.91502417245647 26.057347564492375,39.42496509948978" stroke="#4dd2ff" stroke-dasharray="none" stroke-linecap="round" stroke-linejoin="round" stroke-width="0.5"><title>2026-07-08 4.7km</title><desc>1783508969000</desc></polyline><polyline fill="none" opacity="1" points="44.938775510236155,36.725461551279295 44.77189813979203,32.503481542735244 44.33194870868465,32.09546943905298 36.17012822831748,32.55670043959981 36.07910420803819,33.92264634600724 35.01715730538126,36.26424201585178 34.65306122449692,38.32198091794271 38.76431280479301,39.333101989512215 40.55445186927682,34.57900600586436" stroke="#4dd2ff" stroke-dasharray="none" stroke-linecap="round" stroke-linejoin="round" stroke-width="0.5"><title>2026-07-03 5.0km</title><desc>1783051432000</desc></polyline><polyline fill="none" opacity="1" points="60.31544303779083,40.63281441968866 60.52381147131382,40.443294494565635 60.60649735762854,40.24217023402525 60.59657505126961,39.66199789753591 60.23606458690483,38.98511853247692 60.23275715147611,38.90776009259571 60.3055207314319,38.84974115523801 60.41797353682341,38.86908081125148 60.70241298576002,39.08181635208166 61.602035428921226,40.04491267282356 61.78725181426853,40.133872096910636 61.9559310223558,40.12226870604718 62.084921005007345,40.27311249999184 62.3561307121272,40.00236678476722 62.52480992022902,39.72388338549354 62.53473222658795,39.57690518048912 62.81586424006673,39.178513915860094 63.20283418803592,38.73757094852408 63.440969540635706,38.61379652781761 63.388050573383225,38.54030526718634 63.63610823235649,38.02199428545646 63.956929471270996,36.97761400942909 63.94369972945424,36.08793319526376 63.89078076221631,35.93707212675508 63.95362203579862,35.75526437048029 64.47288940189173,35.54637774658113 65.13106905698078,35.04349764316066 65.3063631359837,35.03189263598688 65.34605236143398,34.89263226254843 65.5213464404078,34.67600395997579 65.45189029589528,34.15763816517938 65.13106905698078,33.345259065768914 64.95246754253458,32.706948529386864 65.2137549433246,32.58702227501635 65.83555280843575,32.463227018852194 66.19937070822925,32.45548980142121 66.44412093173014,32.36264306434168 66.57972578529734,32.037677626271034 66.53342168894596,31.708840609433537 66.56318860802276,31.341313381733926 66.48050272170804,30.954438620879955 66.5433439953049,30.780343641708896 66.65579680069641,30.77260606782147 66.8641652342194,30.861588068579294 67.45288874481048,31.31036355163087 67.64802743653127,31.3838693552716 67.79686203190067,31.298757358588773 67.94569662728463,31.016338857956725 68.05484199720377,31.03181390084137 68.15406506079307,30.973782456232584 67.74725050012057,30.900275827389123 67.68771666195244,31.11692651949852 67.57195642111765,31.15948275446135 66.95346599144978,30.695230238790828 66.6491819297953,30.571428571423894 66.5135770762281,30.583034995554044 66.34820530359866,30.68362385029468 66.30190120726184,30.82676905061453 66.39120196447766,31.886799833107943 66.39120196447766,32.057020888023544 66.3217458199797,32.165342964541196 64.96900471979461,32.45935841033861 64.76725115718727,32.6334453879208 64.75732885082834,32.8926400175078 65.29313339416694,34.33945387086351 65.3063631359837,34.648925331854116 64.4497373537015,35.32975331978014 63.74525360229018,35.6585577486112 63.78163539226807,36.757129913399694 63.51373312060605,37.84406494022187 63.20283418803592,38.517097469968576 62.68687425740063,39.04700516649609 62.40574224392185,39.48407653598406 62.243677906735684,39.59237659831706 62.00884998959373,39.886332292921 61.7773295079096,39.94048176828801 61.34405546358903,39.52662302730823 60.67264606668323,38.74917477897179 60.39812892410555,38.65634403221338 60.02108128249529,38.64087221816226 59.67049312450399,38.40105826285799 59.60103698000603,38.505493565848155 59.61095928636496,38.559645086948876 59.9549325734406,38.776250369028276 60.14345639424573,39.19011760632202 60.14676382970356,39.32936160454847 60.338595085951965,39.65813005105156 60.44443302045693,40.17255003986065 60.269138941454,40.474236590271175 59.70687491449644,40.74884654196285 59.89209129984374,40.8571428571413" stroke="#4dd2ff" stroke-dasharray="none" stroke-linecap="round" stroke-linejoin="round" stroke-width="0.5"><title>2026-06-28 15.3km</title><desc>1782609425000</desc></polyline><polyline fill="none" opacity="1" points="85.88438763078011,30.571428571427532 85.89429119184206,30.764288216068962 86.13527784436883,31.0651472307909 86.11547072224494,31.146147311868845 85.97021849332668,31.204004402796272 86.15838615351822,31.22329007942608 86.25412057712674,31.44314607421984 86.35975856179721,31.49714559005588 86.24421701607935,31.663000747324986 86.01643511162547,31.82114101073239 86.42578230221989,32.33412789011345 86.3828668709466,32.480694248377404 86.97377934769611,33.132521727249696 87.35341585511924,33.22123107781226 87.41613840851642,33.390935322866426 87.3138016108569,33.45264576223781 87.3138016108569,33.514356097472046 87.56469182446017,33.795908180884 87.78917254188855,33.68020210753821 87.81888322507439,33.74191205887473 87.71654642741487,33.826763071949244 87.71654642741487,33.91932758901385 87.86179865634767,34.062030760545895 88.03015919441532,34.073601263575256 88.11929124398739,34.13916737823456 88.10608649589994,34.40914425916344 88.33056721332832,34.69068945535764 88.45931350713363,34.74854093961767 88.74981796498469,34.702259759527806 88.74651677797374,34.86810038384283 88.82904645349481,34.96451900584725 88.8818654458446,35.19206594617208 89.3473328157852,35.75899877678603 89.6213313385233,35.620158895933855 89.76328238043061,35.720432196078036 89.81940255979134,35.91712133265537 89.6180301514978,36.02125044744025 89.40015180810587,36.271930434086244 89.72366813618282,36.86198577661344 90.01747378104483,38.234888175116794 90.02737734210677,39.07942894697044 89.91513698339986,39.85839447885519 90.00426903295738,39.98950585881903 89.95145004062215,40.17460347789165 89.82600493382779,40.328850778627384 89.73027051020472,40.68361710308818 89.75007763234316,40.83786225842414 89.82930612083874,40.8571428571413 89.87882392616302,40.80315715515826 89.81940255979134,40.328850778627384 89.9448476665857,40.18231585836838 89.99436547189543,39.98950585881903 89.91183579637436,39.82754467412087 90.03397971614322,38.86733149931388 90.00096784594643,38.20789339973635 89.70386101404438,36.83498998828509 89.38364587300748,36.26421722932719 89.6180301514978,36.00196730038806 89.8094989987294,35.90169477193194 89.75007763234316,35.70886221393812 89.61142777746136,35.620158895933855 89.3275256936613,35.75899877678603 88.8818654458446,35.19977937697331 88.81254051839642,34.952948784619366 88.73661321691179,34.87581388295803 88.73661321691179,34.702259759527806 88.46261469415913,34.75239770198459 88.33056721332832,34.702259759527806 88.10278530887445,34.405287460605905 88.13579717910034,34.212447014360805 88.0928817478125,34.108312750675395 87.87500340443512,34.06974442963838 87.70664286636747,33.91547073881884 87.71324524040392,33.81904935162311 87.83538916017278,33.74191205887473 87.81558203806344,33.67634523212109 87.6109084427444,33.795908180884 87.54818588934722,33.78048072557067 87.300596862784,33.47193025317756 87.40953603447997,33.37936460390483 87.33690992002084,33.217374154002755 86.9869840957981,33.14794945584799 86.3795656839211,32.47298024416523 86.40927636710694,32.322556836821605 86.01973629865097,31.82499808178909 86.35975856179721,31.504859800093982 86.25742176415224,31.435431851168687 86.16498852755467,31.231004347235285 85.97351968035218,31.19243299192385 86.10886834820849,31.146147311868845 86.12537428330688,31.076718681935745" stroke="#4dd2ff" stroke-dasharray="none" stroke-linecap="round" stroke-linejoin="round" stroke-width="0.5"><title>2026-06-21 12.1km</title><desc>1782018676000</desc></polyline><polyline fill="none" opacity="1" points="101.63851617992623,34.653868761299236 101.48697711125715,34.92520965587755 101.41594317284762,35.42358722665449 100.91397000788129,35.82782332677016 100.42620363060269,36.4978516315241 100.1657458563277,36.65289828186724 99.6258879242232,36.520001181106636 99.21862667717505,36.62521141370598 98.78768745064735,36.51446379459958 98.650355169666,36.58644977366566 98.52722967637237,36.79686976032099 98.36148382001556,36.83563124455395 98.07734806626104,36.6750477658461 97.39068666138337,36.68612250434671 96.78926598263206,37.145722085300804 96.325177584833,37.07927420262058 96.08366219414165,36.957452865332016 94.9234411996731,36.9906768945184 94.85714285713038,36.752570886037574 95.62904498816351,36.83563124455395 96.02683504339075,36.741496161612304 96.50986582474434,36.91869147129182 96.79400157849886,36.819019183385535 96.81767955797841,36.8910047436766 97.12075769531657,36.55876287034698 97.38121546959155,36.459089897176455 98.09629044987378,36.48123946316991 98.40410418307874,36.65289828186724 98.79715864243917,36.32619230442651 99.20441988948733,36.40371594120006 99.66850828725728,36.31511748979756 100.1610102604609,36.442477716536814 100.58721389106358,35.966259629814886 100.82399368585902,35.42358722665449 101.28808208362898,35.08579850236856 101.4017363851599,34.7646203167169 101.59116022099624,34.58188012462415 101.91318074188894,34.60956807351977 102.96921862664749,34.282849343268026 103.56116811363609,34.39360168368876 104.92975532752462,35.04703572246217 105.14285714284051,34.997197820404836" stroke="#4dd2ff" stroke-dasharray="none" stroke-linecap="round" stroke-linejoin="round" stroke-width="0.5"><title>2026-06-18 10.3km</title><desc>1781755773000</desc></polyline><polyline fill="none" opacity="1" points="117.18367346940795,36.111484922697855 116.66325069408049,36.02757032941736 115.79424285228015,36.228965151694865 115.13144026105874,36.08910770955481 114.66993327165255,36.24574802232382 112.34766937803943,35.35624926328819 111.38537820856436,35.19401218668281 107.58531001899973,35.182823406248644 106.89795918366872,35.42897608306885 107.54603282839525,35.182823406248644" stroke="#4dd2ff" stroke-dasharray="none" stroke-linecap="round" stroke-linejoin="round" stroke-width="0.5"><title>2026-06-15 11.4km</title><desc>1781479179000</desc></polyline><polyline fill="none" opacity="1" points="134.95005306019448,30.75337728219165 135.40656120580388,30.571428571427532 136.6308330508764,30.898936043071444 136.25732638628688,31.784414526904584 135.56218898267252,32.18469707832264 134.7840500980965,32.03913994845789 133.90215936221648,32.25747557402792 133.424900846323,31.990620864169614 132.6882627022569,32.08765901226434 132.35625677811913,31.796544321696274 132.47038381453604,31.408390252086974 133.43527603149414,31.238572433743684 134.18228936073137,30.69272774401179 134.90855231962632,30.75337728219165 135.34431009500986,30.571428571427532 136.5789571252535,30.862546370168275 137.36747119494248,30.668467919742397 137.58535008266335,31.080884234521363 136.27807675657095,33.688776608978515 135.7281919447123,36.017635052630794 137.33634563960368,36.74539362408541 139.88864118105266,37.37611398631998 139.59813599748304,39.765542379529506 137.48159823135938,39.2803832790305 137.10809156676987,39.80192922937567 137.36747119494248,40.23857052784297 137.12884193699574,40.46901943235571 136.84871193853905,40.43263279398525 136.76571045751916,40.11728144495282 136.1224489795859,40.177926002434106 134.97080343042035,39.886831834184704 134.54542084014975,40.857142857144936 132.63638677663403,40.52966380400903 133.64277973404387,36.43003214310738 134.40016824833583,34.99876529895846" stroke="#4dd2ff" stroke-dasharray="none" stroke-linecap="round" stroke-linejoin="round" stroke-width="0.5"><title>2026-06-11 10.1km</title><desc>1781164397000</desc></polyline><polyline fill="none" opacity="1" points="168.16595059077372,33.57994339973811 168.72234156820923,33.905284334890894 169.06068743286596,33.89209488706183 169.36143931257538,33.53597821307994 169.440386680988,33.021582072378806 169.6058002148202,32.79295952085158 169.80504833512532,32.7358036863734 171.06820622985833,32.6698545488689 171.34264232008718,32.832528898656165 171.56444683136942,33.46123728899329 171.98549946294224,33.60632248938782 172.56444683136942,33.50959907875222 172.97798066594987,33.29416885479077 173.44038668100256,33.5623573306475 173.63211600430077,33.5535642933246 173.97798066593532,33.42606504289142 174.28625134265167,33.07873751365696 174.45542427497276,33.166668808251416 174.4704618689575,33.404082373956044 174.70354457573558,33.601925975613995 175.1809881847439,32.973219714480365 175.47422126746096,32.898477777896915 176.50429645543045,33.043564943716774 176.91783028999635,33.61071900271054 176.87647690654558,33.720631684354885 176.92534908700327,33.953645607725775 177.1283566057973,34.410876677906344 177.33136412459135,34.498805152954446 177.3877551020414,34.81534612232281 176.92158968851436,35.04395754479992 176.55692803437705,35.32092739066866 174.95918367347622,37.308021986482345 174.74113856068288,37.505846999538335 174.21482277121686,36.60024033829177 174.10204081633128,36.538693538259395 173.92910848549218,36.55627834758707 173.72610096669814,36.45516559240423 173.6960257787432,36.37603369932913 174.3839957035525,35.99356075828837 174.4215896884998,35.60229169278318 174.49301825993462,35.47919504505626 174.7937701396586,35.69901023157581 174.98925886143115,35.734180553499755 175.53061224491103,35.254982356738765 175.65843179378135,34.92965199079845 175.69978517723212,34.62630111124963 176.29752953813295,34.14709013616812 176.39151450053032,33.92287025879705 176.38775510202686,33.41727197671207 176.32384532761353,33.31175503740087 176.1734693877661,33.25020336570742 175.99677765842353,33.27658266473372 175.61331901181256,33.6810631524495 175.47422126746096,33.676666646584636 175.30128893662186,33.46563381765736 175.34264232007263,33.698649171292345 175.5230934479041,33.89649137013839 176.0381310418743,33.82614758514683 175.6396348012786,34.13390076511496 175.3351235230948,34.19545112753258 175.3351235230948,34.30096582238184 175.04564983888122,34.84612081015439 174.9027926960116,34.86810271608556 174.7073039742245,34.758193070159905 174.4704618689575,34.71862552645325 173.77497314715583,34.93404836407353 173.18098818475846,34.8900846103752 172.8990332975227,35.338512715377874 172.10955961332365,35.78693598056634 172.04189044037776,36.024334573456144 171.76745435016346,36.24854311016679 171.67346938775154,36.51231631034534 171.21482277121686,37.202514927776065 170.99677765843808,37.40034044310596 170.6433941997966,37.56299627240878 170.47046186897205,37.55860017728628 170.29001074115513,37.39154821797638 170.07948442535417,37.3563792988607 169.9704618689575,37.3563792988607 169.7599355531711,37.505846999538335 169.5418904403923,37.56299627240878 169.26745435016346,37.4311132164039 169.000537056927,37.10140374513139 168.99301825994917,36.88599214427086 168.7298603652016,36.74531457767807 168.59828141782782,36.23095817061767 168.3351235230948,35.98037197339363 168.34264232008718,36.42878831146663 168.25617615469673,36.92555762406846 167.9892588614457,37.057442284622084 167.94790547798038,36.978311538525304 167.84640171859064,37.10140374513139 167.78249194416276,37.08821531185822 167.57572502686526,37.23768397710228 167.5569280343916,37.176138121234544 167.3839957035525,37.2684568708537 167.31256713213224,37.2069110605662 167.24113856068288,37.28604137134971 167.32760472610244,37.42232099778266 167.65091299678897,37.49265869463852 167.78625134263712,37.725651465043484 167.51181525242282,38.30592966776021 167.10204081633128,38.26636550223702 167.2599355531711,38.53012589416903 167.47798066594987,38.65321350416707 167.98549946294224,38.75871687969993" stroke="#ff8800" stroke-dasharray="none" stroke-linecap="round" stroke-linejoin="round" stroke-width="0.5"><title>2026-06-06 21.6km</title><desc>1780740439000</desc></polyline><polyline fill="none" opacity="1" points="32.89795918390155,51.59013655188028 28.76918654795736,42.01790173136396 30.07300948537886,44.9827654613764 22.612244897987694,52.26781255437527" stroke="#4dd2ff" stroke-dasharray="none" stroke-linecap="round" stroke-linejoin="round" stroke-width="0.5"><title>2026-06-01 10.0km</title><desc>1780286606000</desc></polyline><polyline fill="none" opacity="1" points="49.45696397786378,52.22136802814566 49.53949937841389,52.285714285713766 49.732081979716895,52.01224212676607 49.80086148015107,51.73340624908451 50.245635583181866,51.08457067160634 50.73167738641496,50.56978612098828 51.05264838857693,50.40355249276399 50.979283588094404,50.29094230571718 51.33235169047839,49.54556380461872 51.77712579345098,48.103037574685004 51.703760992968455,47.10557906272879 51.754199293325655,46.88570653409988 51.68083449284313,46.63365636389426 51.73585809319047,46.44059581091642 52.533700298547046,46.10810091166786 53.40490730444435,45.45383038288128 53.661684106162284,45.41629001423644 53.684610606287606,45.21249895617075 53.94597270805389,44.90681083179879 53.91846090788022,44.44559367916008 53.235251203295775,42.61677269863867 53.157301102764904,42.18235097119032 53.33154250390362,42.08581230353229 53.909290307812626,42.0 53.91387560786097,42.18235097119032 53.50578390510054,42.300342426256975 53.49661330503295,42.45051297148893 53.80841370712733,42.61677269863867 53.99641100841109,42.61677269863867 54.21650540988776,42.52559807713624 53.9368021080154,42.19307747847779 53.950558008102234,42.0" stroke="#4dd2ff" stroke-dasharray="none" stroke-linecap="round" stroke-linejoin="round" stroke-width="0.5"><title>2026-05-23 13.0km</title><desc>1779516917000</desc></polyline><polyline fill="none" opacity="1" points="68.88175270106876,46.89959119753621 69.02040816331282,47.72529820982891 67.30612244899385,48.74268047192891 62.062424970034044,49.68633273495652 61.29351740702987,49.52414295746712 60.78931572637521,49.31771933102573 60.37334933981765,48.786914314638125 59.86914765910478,45.88219546485925 59.503601440635975,45.321887393292855 58.73469387757359,44.59938155076816" stroke="#4dd2ff" stroke-dasharray="none" stroke-linecap="round" stroke-linejoin="round" stroke-width="0.5"><title>2026-05-17 11.1km</title><desc>1779003218000</desc></polyline><polyline fill="none" opacity="1" points="92.31366044376045,52.28571428573923 89.55438803462312,43.00840827048523 85.58793394640088,42.0 83.60470690298826,45.83194575004745" stroke="#4dd2ff" stroke-dasharray="none" stroke-linecap="round" stroke-linejoin="round" stroke-width="0.5"><title>2026-05-12 8.1km</title><desc>1778560494000</desc></polyline><polyline fill="none" opacity="1" points="117.18367346940795,50.75347037163738 115.51130183122586,51.31232522186474 114.16585998696974,50.679936671309406 113.32338705653092,49.82694290316431 111.47497629857389,47.20910173744778 110.5444838081603,46.2825506273075 106.93568185216282,43.64993517284165 107.25003742327681,43.252832421378116 108.645776158839,42.97338906383084 110.59478069952456,45.25304214487551 113.42398083925946,47.28263727511512 113.42398083925946,47.54736488836352 112.22942966915434,48.23859572225774 110.5444838081603,46.2825506273075 107.639838331379,44.238233458498144 106.94825607497478,43.664642660325626 106.94825607497478,43.44403018419689 108.65835038170917,43.002804180578096 110.68280025938293,45.37070064333966 113.22279327374417,47.03261628821201 113.44912928494159,47.562071963227936 112.4809141260339,48.20918171429366 112.14141010929598,48.15035367963719 110.53190958529012,46.311965043249074 106.93568185216282,43.64993517284165 107.08657252625562,43.34107757538732 108.70864727301523,43.03221929114079 110.64507759088883,45.326578718057135 110.1924055685522,45.95899164077127 107.81587745121215,44.38530764053576 106.89795918366872,43.64993517284165 106.94825607497478,43.41461516088748 108.67092460452113,43.017511736630695 110.40616735693766,45.01772484889079 113.34853550221305,47.194394625214045" stroke="#4dd2ff" stroke-dasharray="none" stroke-linecap="round" stroke-linejoin="round" stroke-width="0.5"><title>2026-05-10 15.1km</title><desc>1778395698000</desc></polyline><polyline fill="none" opacity="1" points="119.0970172684174,46.43716297658102 125.54536891682073,46.71481386088999 126.00031397177372,47.77913898140832 129.2244897959754,47.848551309114555 125.84207221365068,47.75600153388223 125.4860282575246,46.76108897390077 118.93877551017795,46.460300563747296" stroke="#4dd2ff" stroke-dasharray="none" stroke-linecap="round" stroke-linejoin="round" stroke-width="0.5"><title>2026-05-09 10.3km</title><desc>1778316787000</desc></polyline><polyline fill="none" opacity="1" points="172.9891042340314,52.28571428571013 173.37449676916003,51.12045048555592 172.67015868768794,49.054026628582506 172.4309495279449,47.0652604423376 171.81963723083027,46.490377702604746 171.54055987775791,45.340605476652854 171.5006916844868,43.77130724526069 171.128588547057,43.009958501686924 171.11529914924176,41.99999999998545" stroke="#4dd2ff" stroke-dasharray="none" stroke-linecap="round" stroke-linejoin="round" stroke-width="0.5"><title>2026-05-02 12.6km</title><desc>1777678663000</desc></polyline><polyline fill="none" opacity="1" points="179.14285714286962,45.624881954056036 180.4254733218404,47.17547962988465 180.5617900172074,47.733396373383584 180.80344234080985,47.84932655496959 182.31531841651304,47.255182300054 182.43304647161858,47.110268285257916 184.5211703958921,47.03056544644642 184.50258175560157,47.247936606603616 185.30189328742563,47.3203935066922 185.89053356283694,47.69716815137508 186.90051635113196,47.805852759869595 188.77177280554315,48.523166850318376 189.42857142857974,48.660832331668644" stroke="#4dd2ff" stroke-dasharray="none" stroke-linecap="round" stroke-linejoin="round" stroke-width="0.5"><title>2026-04-26 11.2km</title><desc>1777162036000</desc></polyline><polyline fill="none" opacity="1" points="94.85714285714494,59.769117543160974 95.25827085768105,59.716983387826986 95.42169337644009,59.583751205955195 96.12242932801018,59.2825282280628 96.1645230070717,59.297010177928314 96.23385377260274,59.43314013176132 96.32794552581618,59.41865825399873 96.50127243963652,59.479482089096564 97.28371965058614,59.42155463016206 97.39019189764804,59.447622001867785 97.94483802185277,59.43314013176132 98.08349955292942,59.50844577254793 98.26177866428043,59.52003123733812 98.3162528371904,59.511342139208864 98.345966022418,59.430243756823984 98.49453194854141,59.42734738157742 99.19774399889866,59.47079297808523 99.25221817180864,59.59533663883485 99.90838434554462,59.62430019958447 100.66607056881185,59.606922066823245 101.29499965607829,59.52003123733812 102.2136322993174,59.29411378856457 102.78065891738515,59.05660881710537 102.82275259646121,59.02764465507971 102.82522869521927,58.952337690216154 103.0257926954946,58.88861625025493 103.36997042437724,58.70614039619977 103.38730311574182,58.58448915030203 103.46653827634873,58.512077437455446 104.20193961069162,57.970431743327936 104.59068711740838,57.58519057552621 104.89277116720041,57.36794692190233 104.9621019327169,57.42877531892009 105.14285714285506,57.454844590500215 104.95714973518625,57.593880285769046 104.97200632780732,57.67498411481756 103.70919595568557,58.564213890036626 103.60272370863822,58.564213890036626 103.5829149184865,58.49759507187446 103.47891877018264,58.514973909654145 103.38235091821116,58.59317854295659 103.3724465231353,58.70614039619977 103.03322099179786,58.891512682568646 102.93665313981182,58.793033811904024 102.461242176214,59.131915494814166 102.13439713871048,59.210118363691436 101.86450237291865,59.31728489485067 101.80755210123607,59.386798095896665 101.47080266868579,59.482378458820676 100.71806864294922,59.604025710284986 99.86629066646856,59.630092908053484 99.24974207303603,59.59244028107787 99.20764839397452,59.56347668659146 99.19279180135345,59.465000235861226 98.37815530640364,59.41286550073528 98.28901575073542,59.511342139208864 98.07607125661161,59.50554940558686 97.97207510832231,59.43314013176132 97.41742898410303,59.459207492429414 97.26886305796506,59.42155463016206 96.46165485934762,59.48817119735031 96.2437581676786,59.56347668659146 95.7807276979147,59.5518912402149 95.52073732718418,59.61850748988945 95.255794758923,59.77491022095455 95.14189421555784,59.73436145064443 94.90171263497905,59.743050477920406" stroke="#4dd2ff" stroke-dasharray="none" stroke-linecap="round" stroke-linejoin="round" stroke-width="0.5"><title>2026-04-12 19.4km</title><desc>1775975191000</desc></polyline><polyline fill="none" opacity="1" points="122.1496443519136,58.23835492947546 122.2742887585191,59.904053418300464 121.65106672584079,61.71548452602292 122.43454585259315,63.46443667562562 122.86189810349606,63.71428571428987 124.7849832327338,63.277049688549596 126.13826536072884,63.42279513839458 126.95735717506614,62.15272402022674 126.36974782997277,60.67443420240306 126.56561761163175,59.258596926621976 126.2272970797494,57.44714320945786 125.30136720265727,56.17703353482648 125.06988473341335,54.17815580914612 124.51788807602134,53.42857142856519 123.60976454266347,53.49103690267657 121.11687641218305,54.657055446645245 121.61545403825585,56.59346383936645 122.3989331650082,57.80110674051684 122.13183800817933,58.23835492947546 122.2742887585191,59.904053418300464 121.70448575716,61.75712642450526 122.7016410093056,63.65182348433882 124.6603388262447,63.21458731990424 126.17387804831378,63.277049688549596 127.04638889397029,62.00697763009521 126.42316686140839,60.73689737706445 126.45877954887692,58.57149575486255 126.15607170457952,57.21810764435213 125.30136720265727,56.19785507097549 124.99865935824346,54.0740470380988" stroke="#4dd2ff" stroke-dasharray="none" stroke-linecap="round" stroke-linejoin="round" stroke-width="0.5"><title>2026-04-09 10.0km</title><desc>1775707979000</desc></polyline><polyline fill="none" opacity="1" points="159.79104813103913,55.642974028793105 159.639995879028,55.77830844801065 159.7957685139263,55.68628107900804 159.98930421183468,55.76206833521064 160.48022403087816,55.691694457887934 160.55575015686918,55.53470625470436 160.37165522473515,55.37771760542455 160.3338921617251,55.112459908505116 160.51798709385912,55.39395783121654 160.73512470614514,55.4859856871517 160.99946614718647,55.44267847992887 160.94282155268593,55.68628107900804 161.42902098884224,55.32899689943952 161.4809452004847,55.62132049095089 161.74528664149693,56.027322913236276 162.05683191129356,56.27092293452006 162.1937230147014,56.287162897744565 162.57607402760186,56.09769636302735 164.15268190801726,55.99484282925914 164.22820803403738,56.17889638605266 164.36981952027418,56.146416391165985 164.78049283043947,56.82849227398037 165.08731771737803,56.88262491988644 165.04955465436797,57.58093129739427 165.16284384336905,58.0139850824562 165.34693877550308,58.198031913358136 165.30917571252212,58.40373058714977 164.9976304427255,58.56071063885247 164.97874891123502,58.88008247084872 164.82769665922388,58.75558180671942 164.68608517292887,58.885495536847884 164.42646411480382,59.356430248197285 164.34621760592563,59.69203644389927 164.26597109704744,59.62708056509655 164.2895730114251,58.93421310688791 164.21404688540497,58.701450995700725 164.36037875452894,58.38207813124609 164.29429339431226,58.07894285747898 164.18572458814015,57.9760930117518 163.7986531923525,57.959853544922225 163.94498506150558,57.884069303305296 163.7514493635972,57.79745861417905 163.5767951972084,57.8353508073742 163.5956767286989,58.143900556129665 162.92538236037944,58.39831747397693 162.84513585150125,58.56071063885247 162.25980837494717,58.63108086208376 162.14179880305892,58.7664079625647 161.7028031956288,58.89090860229771 161.68392166413832,58.67438557029163 162.06155229418073,58.16555310539843 162.20316378044663,57.66212914062271 162.03795037977397,57.2453122794941 161.93410195651813,57.16411382374281 161.9860261681606,57.08832849070677 161.7169643442612,57.093741732220224 161.58479362374055,57.0071298042385 161.62727706960868,56.91510448198824 161.90577965928242,56.82849227398037 161.91994080791483,56.55782824883863 161.7500070243841,56.76353302887583 161.42902098884224,56.61196115993516 161.74528664149693,56.63361430953228 161.7358458757808,56.26009628971224 161.86329621338518,56.17348305489213 161.7028031956288,56.17889638605266 161.5942343895149,56.39542919729138 161.2638075882278,56.319642809892684 161.1505183991976,56.60113458195701 161.02778844442219,57.31568417797098 160.2678068014793,57.965266701052315 159.94682076596655,58.98293063398887 159.6541570276604,59.253582780198485 159.48422324412968,60.23333246477341 159.36621367227053,60.23333246477341 158.96498112782137,60.50939139390175 158.62039317790186,60.57434623564768 158.56374858340132,61.04526655505106 158.44573901151307,61.30508294461106 157.77072426033556,61.25636746461896 157.61023124257918,61.32132142840783 157.52998473367188,61.16976206081017 157.3364490357926,61.142697844290524 157.29868597275345,61.37003685115633 156.9446572571178,61.45122912697843 156.86913113112678,61.640677306702855 156.32628710044082,62.030397234353586 155.83536728136824,61.77599703745727 155.41997358831577,61.04526655505106 155.31140478217276,61.029027990156465 155.06122448979295,60.69884280224869" stroke="#4dd2ff" stroke-dasharray="none" stroke-linecap="round" stroke-linejoin="round" stroke-width="0.5"><title>2026-03-22 12.8km</title><desc>1774137608000</desc></polyline><polyline fill="none" opacity="1" points="133.46787241841957,70.25074076187047 133.42845411217422,70.38042177283387 133.69699132346432,70.3083768430497 134.48535744837136,70.24497714704194 135.18503238420817,70.2622679878732 135.27618721740146,70.32566764359217 135.4264695099555,70.34584023034768 135.51023341073596,70.33143124134222 135.5668972259591,70.23921353098012 136.40453623364738,70.30261324043204 136.42424538677733,70.40923969133655 136.50308199926803,70.43229400416385 137.5550580471754,70.44382115324515 138.41733349626884,70.36889459688791 139.28453623365203,70.15564096099297 139.96696566051105,69.90780355438801 140.01377489918377,69.84152107464797 139.9645020163589,69.68878257176038 140.12217524135485,69.62538143193888 140.21579371868575,69.70895563072918 140.55824025419133,69.52451567770368 140.55331296591612,69.43805901929227 140.61736771356664,69.36889349474768 141.26530612244096,68.89625770409293 140.65185873152222,69.33719257057237 140.56563118660415,69.423649549517 140.55577661005373,69.53027944516361 140.34390321397223,69.64555453791036 140.1960845655558,69.71471935910631 140.11724795307964,69.61673581051036 139.96696566051105,69.6916644382436 139.93247464255546,69.78676586089387 139.52350971526175,69.9971405542019 139.2746816571016,70.04901351625267 139.0578809727449,70.13835005239707 139.0159990223765,70.19886818441773 138.54051570329466,70.32854944262544 137.7669314432278,70.43229400416385 137.16826591714926,70.43517579189029 136.46120004887052,70.40635790085798 136.39714530123456,70.27955881772323 135.69993400953535,70.23633172249902 135.54965171696676,70.23633172249902 135.50037883415644,70.32278584427513 135.28357814981428,70.32854944262544 135.18995967248338,70.2536225688309 134.25131125503685,70.2536225688309 133.7240914090071,70.31125864391106 133.46787241841957,70.37753997931759 132.98746181106253,70.37753997931759 132.65486985212192,70.4784025711997 132.4750238298875,70.59655541761094 132.36415984356427,70.55332882600123 132.07591347915877,70.58791010478308 131.74332152021816,70.78098810355368 131.59796651593933,70.81845084013185 131.44029329095792,70.74352531540171 131.39102040816215,70.89625789744605 130.97959183673083,71.10374229590707" stroke="#ff9000" stroke-dasharray="none" stroke-linecap="round" stroke-linejoin="round" stroke-width="0.5"><title>2026-02-18 20.3km</title><desc>1771394553000</desc></polyline><polyline fill="none" opacity="1" points="10.571428571434808,83.29347062391025 11.279674179430003,83.30219124329778 11.379077071760548,83.38067669304655 11.582853001076728,83.38358355725723 11.66734545957297,83.29056375017171 12.497359610671992,83.33125995456066 12.53463569530868,83.45044134885939 12.61664308149193,83.47078934006277 13.911365754334838,83.47660304905548 14.564939771516947,83.40102473598017 15.46702101957635,83.18300920522051 16.078348807510338,82.95917812517473 16.15041590448527,82.88069147000897 16.103199530596612,82.72953135353782 16.257274013740243,82.66267180568138 16.351706761473906,82.75569374096995 16.674766161610023,82.58418430251913 16.699616884696297,82.46790610743665 16.756773547793273,82.40395289013031 16.9779449832713,82.35162741966269 17.571877265057992,81.97371828165524 17.81789942360774,81.7527843749267 17.981914195988793,81.7527843749267 18.295033306872938,81.54638398650422 18.44910779001657,81.3225395568752 18.421771994631854,81.24695531109501 18.56093604391208,81.26149075915055 18.844234287098516,80.9882230474359 18.926241673296317,81.05217956432716 18.9983087702567,81.00275863255229 19.045525144116255,80.96205897484106 19.048010216414696,80.89519512038714 19.341248748838552,80.66553107498294 19.433196424259222,80.65390246459356 20.683187795541016,79.55206927237668 20.750284747875412,79.59277102173291 20.857142857144936,79.45903647569139 20.804956338673946,79.38053980808763 20.698098229404422,79.52008928410214 20.611120698595187,79.51427473677359 20.32036723846977,79.79046437393481 20.233389707660535,79.74976291787789 20.32036723846977,79.78755712907878 20.409829841577448,79.72650491587228 20.447105926214135,79.77883539264985 20.0147033444955,80.1829396018511 19.54253960584174,80.56668772954981 19.05298036104068,80.89228799258672 19.045525144116255,80.96496609525639 18.93866703483218,81.05799378575466 18.83926414248708,81.00275863255229 18.670279225494596,81.18299924820349 18.295033306872938,81.45626502014056 18.304973596110358,81.54347692769443 17.012735995594994,82.43883648168412 16.91581817554834,82.4213946914515 16.900907741699484,82.36034833833219 16.297035170689924,82.47372002888369 15.310461464134278,82.85162228150693 15.1389914748288,82.74115908436579 15.042073654796695,82.3806971377926 13.620612294209423,82.52895222128245 13.004314361664001,82.65685792425575" stroke="#ff7e00" stroke-dasharray="none" stroke-linecap="round" stroke-linejoin="round" stroke-width="0.5"><title>2026-02-08 23.1km</title><desc>1770528486000</desc></polyline><polyline fill="none" opacity="1" points="15.696116258262919,99.76350266410373 15.590924670774257,99.75567492949904 15.481907934652554,99.69417109875121 15.393929516030767,99.67627900806747 15.297344512975542,99.41460372117581 15.534503728398704,99.27593555834665 15.846253342220734,99.14285714285779 15.930406612209481,99.35421619647968 15.986827554588672,99.65055907464102 16.354998110786255,100.42995709729621 16.398987320102606,100.6658897883517 16.456364549638238,100.8034215820071 16.534780096673785,101.10084194500087 16.599807623479137,101.45080331300869 16.83027282878902,102.00535096559724 16.8398357003789,102.0623693377238 16.82166624436286,102.0925554102887 16.772895599257026,102.11156141177798 16.63040881256893,102.25131037392111 16.50226633326747,102.28373186925637 16.50800405622431,102.33515886492023 16.534780096673785,102.35975429619612 16.76620158914011,102.370934018777 16.88860634548837,102.3318049380432 16.971803328317037,102.27590600017083 17.143935016934847,102.10485341515232 17.248170317256154,101.95615839754555 17.317022992701823,101.78733670806287 17.342842745998496,101.67553278136347 17.312241556908702,101.88684120874495 17.276858932029427,102.01541305360297 17.093251797505218,102.28261388831379 17.186967939083843,102.44136599933245 17.222350563966756,102.46037137405438 17.26538348611939,102.44919174599909 17.479591809726116,102.13951135192474 17.66415523140313,101.92149985993365 17.83437434570078,101.61404011785635 17.84106835581406,101.57602629247776 17.823855186950823,101.53577621078784 17.63642290379721,101.39489971841522 17.621122309246857,101.35688510528234 17.83533063286086,101.20817957043255 17.921396477166127,101.10084194500087 17.944347368982562,101.1075505785102 18.054320392260706,101.25290325945389 17.932871923072526,101.49776210407799 17.820030038314144,101.68224105029822 17.806642018091225,101.74708743061638 17.763609095934953,101.81752356562356 17.727270183899236,101.84323822817896 17.687106123219564,101.94945030235431 17.485329532679316,102.25354634230553 17.40404512416717,102.36087226898508 17.32562957713526,102.41229888959151 17.283552942139067,102.48273059471285 17.12672184807161,102.60346956956892 16.95937159525056,102.68172557643993 16.8369668389023,102.702966392696 16.792021342433145,102.51179751090694 16.608414207912574,102.55316183086234 16.555818414166424,102.4178887245871 15.978220970155235,102.46484322196739 15.69037853530972,102.5419823008815 15.575624076234817,102.60570546351391 15.416880407847202,102.6638385401966 15.534503728398704,102.97685730791909 15.530678579765663,103.00145124721712 15.435049863863242,102.99809753158661 15.06974816913862,102.93214090816491 14.928217669614241,102.96344240783947 14.913873362234881,102.98356475157652 14.894747619051486,103.23732657946857 14.845976973945653,103.33905318023335 14.517014191267663,103.60733842499121 14.238734628008388,103.74259632316625 14.237778340851946,103.7627171850736 14.321931610837055,103.87897030473414 14.325756759470096,103.92927173947737 14.246384925278107,104.0891169337574 14.085728682573972,104.53734127892858 14.066602939390577,104.70835454201733 14.120155020296806,105.06825578122061 14.242559776641428,105.47732121244371 14.224390320621751,105.60920232598073 14.174663388355839,105.76790453870672 14.167013091082481,105.89978203234568 14.200483141648874,106.01154133420823 14.374527404579567,106.33228397925359 14.385046563329524,106.4093948737127 14.374527404579567,106.53008905940806 14.332450769587012,106.62284384129725 14.191876557219075,106.79494092291588 13.834225159767811,107.32797712368483 13.540645001965459,107.6598540363093 13.459360593453312,107.82746468645291 13.374251036311762,108.21966324380719 13.374251036311762,108.30681650684619 13.422065394253877,108.57832784546008 13.560727032301656,109.1146260928117 13.600891092981328,109.21182724427035 13.72903357227915,109.42857142857156 13.581765349797934,109.1973029909459 13.52821326889898,109.03976942586905 13.430671978683677,108.65989162093956" stroke="red" stroke-dasharray="none" stroke-linecap="round" stroke-linejoin="round" stroke-width="0.5"><title>2025-11-30 42.8km</title><desc>1764458479000</desc></polyline><polyline fill="none" opacity="1" points="51.07195894536562,99.14285714284051 48.84136301302351,101.3043602941325 49.8610640107654,107.78882994159358 52.60151044209488,109.42857142857974 54.83210637466982,107.34162705519702 53.74867406464182,100.5590151293436 50.944496320793405,99.14285714284051 48.84136301302351,101.52796368970303 49.92479532305151,108.01243127818452 52.792704379186034,109.42857142857974 54.83210637466982,107.04349164006999 53.68494275212288,100.40994600171689 50.81703369598836,99.21739184466423 48.84136301302351,101.45342923240969 49.98852663533762,108.0869650413515 52.66524175461382,109.42857142857974 54.83210637466982,107.04349164006999 53.74867406464182,100.5590151293436 51.008227633079514,99.14285714284051 48.84136301302351,101.52796368970303 49.8610640107654,107.86336372827645 52.66524175461382,109.42857142857974 54.83210637466982,107.04349164006999 53.74867406464182,100.5590151293436 50.944496320793405,99.14285714284051 48.84136301302351,101.37889476737473 49.8610640107654,107.86336372827645 52.792704379186034,109.42857142857974 54.83210637466982,107.11802550579887 53.74867406464182,100.48448056937195 50.880765008507296,99.14285714284051" stroke="#4dd2ff" stroke-dasharray="none" stroke-linecap="round" stroke-linejoin="round" stroke-width="0.5"><title>2025-11-26 8.7km</title><desc>1764155703000</desc></polyline><polyline fill="none" opacity="1" points="112.69340749736148,105.19619288532613 112.43017744526878,105.22551703150839 112.40824160759075,105.24151198755862 112.43566140468465,105.3268180291243 112.38740256179881,105.37080369968317 111.84339378746517,105.42145364906537 111.07563946885057,105.38813134005159 111.05370363117254,105.36813790644737 111.04383250421961,105.26150565009539 110.89795918368327,105.25750692047859 110.50311410553695,105.17886494421509 110.01613850915601,104.92427437166043 109.8680716048475,104.80964005350052 109.64213247680163,104.56703792651115 109.32954678992974,104.11247785317119 109.16612479925243,103.9178511110049 108.25469074386638,103.31128688854824 107.97171843786782,103.19130320956447 107.92016921932372,103.2033016360665 107.4968075522047,103.1486420320889 107.04054212856863,103.15664101540733 106.897959183676,103.17663844837716 106.98021857496497,103.35128115882253 107.01092874770256,103.37527765153209 107.33009518587642,103.23929683743245 107.33228876964131,103.17663844837716 107.34764385601738,103.16197366773486 107.49242038466764,103.1513083605023 108.03862274276617,103.21530004954457 108.28320733284636,103.32728461402166 108.53108229857025,103.4859274718483 108.75702142661612,103.66189839888648 109.05973598653509,103.83120111671815 109.16722159113851,103.92051725390684 109.3065141603729,104.07648549468013 109.68600415215042,104.64035231730304 109.9053625289016,104.8549607399309 110.1806572917194,105.04024043785375 110.5250499432077,105.18819537742093 110.88260409731447,105.25350818941934 111.03725175291038,105.26283855964357 111.05151004740765,105.2801663691771 111.04931646363548,105.37346949227594 111.06576834189036,105.38946423433754 111.86203924949223,105.42278653933863 112.3994672725239,105.36547211256766 112.43785498844954,105.32415222528834 112.41482235889998,105.24151198755862 112.45759724236268,105.22551703150839 112.62650319245586,105.19885872001487 112.9511535900383,105.19352705000347 113.54232441537897,105.08955897098986 114.08962356536358,104.93493796875373 114.32762740413455,104.83763226410974 114.69724626895913,104.72166407311306 115.36080535862129,104.54304402030994 115.47267813076178,104.48039301976405 116.09455912884732,104.39508044820923 116.64624544636172,104.25511308461682 116.94457283873635,104.15380226843263 117.1836734693934,104.04582524502894" stroke="red" stroke-dasharray="none" stroke-linecap="round" stroke-linejoin="round" stroke-width="0.5"><title>2025-11-16 42.7km</title><desc>1763252375000</desc></polyline><polyline fill="none" opacity="1" points="141.2653061224555,105.04215398953966 138.1628566319996,106.16355317239504 135.40154785319464,106.94626427807088 134.28157646034379,106.81832170514826 132.3699011519202,106.03560919225129 131.11476079793647,105.68188052067126 130.97959183674539,105.52383097141137 131.43015504072537,104.37984281571698 132.03519705752842,103.4315229026106 132.83977420753217,102.52082283564232 133.8953794283443,101.62516429336392" stroke="#ff5200" stroke-dasharray="none" stroke-linecap="round" stroke-linejoin="round" stroke-width="0.5"><title>2025-11-09 30.0km</title><desc>1762665792000</desc></polyline><polyline fill="none" opacity="1" points="50.82598991840496,110.87401190303171 50.91369011583447,111.09197213053085 50.85449248255463,111.20736204527384 50.86764751217561,111.50224488589447 50.92903765037772,111.69968617292034 50.90930510596081,111.86122784726831 51.021122857695445,112.09712803988077 50.953155204682844,112.57661374357303 50.97946526391024,112.7458417263806 51.04085540212691,112.83301931685128 51.003582818215364,113.14070242314301 51.192138242695364,113.97655513811696 51.13294060943008,114.30217093813371 51.189945737758535,114.57650526349789 51.40481122149504,115.0226123952034 51.360961122773006,115.11747319780807 51.41796625110146,115.29950234675198 51.76876704086317,116.12502583471178 51.75780451619357,116.227573373013 51.86304475311772,116.5223951289554 51.92662739625666,117.01461128701885 51.98363252459967,117.11459147284768 52.209460532991216,117.27866062782414 52.23138558235951,117.42991089636234 52.17876546389016,117.61961328895813 52.402400967359426,117.75548030645405 52.39582345256349,117.82725880074213 52.29277572056162,117.91441811524419 52.30154574030894,118.08360883122805 52.36732088838471,118.30406768950888 52.37828341306886,118.48094602172023 52.42651852166455,118.57835672610781 52.481331145056174,119.05515084370745 52.58876388691715,119.1551226147676 52.61507394614455,119.4319653680468 52.68961911396764,119.73700140832807 52.744431737373816,119.81646394846575 52.674271579424385,120.01640080080688 52.73785422256333,120.1496911198592 52.72031418308325,120.29836022678137 52.81020688544959,120.47266077763015 52.85186447923479,120.85714285714312 52.81020688544959,120.47009754330793 52.75758676699479,120.40857983838214 52.72031418308325,120.2727276871683 52.73785422256333,120.126621693993 52.67865658928349,120.00614766899525 52.74004672751471,119.8113373408396 52.623843965891865,119.46016213777875 52.58876388691715,119.16537610644264 52.481331145056174,119.05515084370745 52.42651852166455,118.59373732787208 52.3059307501826,118.11949761919277 52.286198205751134,117.92723563506661 52.39801595748577,117.77342494994627 52.1743804540165,117.62474036004096 52.22700057248585,117.43760156276767 52.213845542864874,117.28891491313152 52.02309761343349,117.15304528067827 51.9332049110526,117.03768367419616 51.85646723830723,116.5223951289554 51.753419506319915,116.21988232268995 51.75999702111585,116.12758952845434 51.42235126097512,115.34308658799455 51.36315362769528,115.1149093972108 51.33465106354561,115.13541979437105 51.314918519128696,115.07132474561513 51.290800964823575,115.09952658795555 51.33245855860878,115.04568667865715 51.32588104379829,114.8610917958813 51.17679070815211,114.54317509064094 51.119785579823656,114.23807368556118 51.18556072788488,114.01245000780364 50.99262029353122,113.04583388199171 51.043047907049186,112.8381474006328 50.950962699746015,112.65609976148517 51.023315362632275,112.1176409915588 50.90711260102398,111.8714844251408 50.924652640518616,111.69712201067887 50.86764751217561,111.53045088255749 50.84572246282187,111.20992625936015 50.902727591150324,111.07915099496495 50.830374928264064,110.93811805586665 50.82160490851675,110.82272685860698 50.90930510596081,110.57142857142753" stroke="#ff8100" stroke-dasharray="none" stroke-linecap="round" stroke-linejoin="round" stroke-width="0.5"><title>2025-10-27 22.6km</title><desc>1761522564000</desc></polyline><polyline fill="none" opacity="1" points="90.06586836068891,112.09256505756639 87.40153184439987,110.57142857142026 85.23288584314287,112.8169145786087 86.0383829290513,119.4084600431379 88.70271944534034,120.85714285715949 90.68548150383867,118.97385460173246 89.94194573187269,112.09256505756639 87.1536865872331,110.57142857142026 85.35680847149342,112.8169145786087 85.8524989860598,119.26359159324784 88.6407581306994,120.85714285715949 90.68548150383867,118.82898606004892 90.0039070462808,112.16500004404224 87.21564790140837,110.57142857142026 85.29484715731815,112.8893494886579 85.79053767211735,119.19115735689411" stroke="#4dd2ff" stroke-dasharray="none" stroke-linecap="round" stroke-linejoin="round" stroke-width="0.5"><title>2025-10-23 8.3km</title><desc>1761191597000</desc></polyline><polyline fill="none" opacity="1" points="123.4357421049499,110.77829446119358 123.53232386916352,110.88642852164048 123.60073595214635,111.16381469507178 124.1480326159508,111.84551914651092 124.54240815312369,111.69507492231423 124.6752080788865,111.79850538097526 124.74362016185478,112.00536557863234 124.46192334961961,112.19812080830161 124.23254165961407,112.47079751517595 124.55850511380413,113.07726214435752 124.96495337149827,114.77908008775194 124.99714729290281,115.7004792824846 124.94483217062952,116.33040451272609 124.58265055486117,117.84876981239358 124.60679599590367,118.06970410946087 124.47802031030005,118.40345384511602 124.22449317926657,118.42225657284143 123.90657820543856,119.11795192758655 124.07157205263502,119.27307171005305 123.91865092595981,119.56450741864683 123.16611801322142,120.8571428571413 124.06352357225842,119.28247289165665 123.88645700456982,119.11325131969352 124.20839621857158,118.43635861343137 124.25266286049737,118.39405247828836 124.40558398715802,118.44105929263606 124.4900930308213,118.3705490525499 124.8321534457209,116.92271415205323 124.95690489116532,116.07655511688063 124.95288065097702,114.77437902265592 124.54643239326833,113.11017084182822 124.20839621857158,112.45669358847954 124.48204455048835,112.15580875606975 124.72349896098603,112.00066422115196 124.65911111817695,111.78910262191494 124.51423847187834,111.69037353212116 124.1399841356033,111.83611639737865 123.60073595214635,111.17321758597973 123.52025114864227,110.88642852164048 123.41562090408115,110.77359297435032 123.4276936246024,110.57142857142753" stroke="#4dd2ff" stroke-dasharray="none" stroke-linecap="round" stroke-linejoin="round" stroke-width="0.5"><title>2025-10-19 14.0km</title><desc>1760852519000</desc></polyline><polyline fill="none" opacity="1" points="75.55115627069608,122.5954548836562 76.09294310449332,123.28467223514235 76.47420050606888,123.11588529991059 76.6106505234784,123.21903294756339 76.68690200378478,123.43001602717777 76.42604167640093,123.60349025396863 76.17320782061142,123.89417527928526 76.50229315673641,124.48022802173728 76.91966968054476,126.308662949672 76.95177556700946,127.06345647693524 76.80328584216477,128.31516658124747 76.44209461963328,129.79185793862052 76.34577696028282,129.86686317577187 76.21334017868503,129.80592143021568 76.16116811320535,129.8574875280392 75.85214895612444,130.52784136130504 76.01267838838976,130.70597564645868 75.11371356781456,132.28571428571377 75.80399012647104,131.1138067191241 75.9564930870838,130.74347751034657 76.17722105642315,130.56065562531148 76.04077103902819,130.701287911259 75.86820189935679,130.60284535777828 75.84813572034182,130.52784136130504 76.18926076384378,129.80592143021568 76.34979019609455,129.85279970344345 76.44209461963328,129.78717010710534 76.7751931915409,128.39017430798776 76.93572262377711,127.13377820305686 76.90762997312413,126.27115734721883 76.49426668511296,124.51773513432272 76.16919458481425,123.88948682621776 76.41801520479203,123.62224418389815 76.69492847542278,123.43939302971921 76.61466375929012,123.23309851734302 76.46617403447453,123.11588529991059 76.09294310449332,123.2752951999937 75.55516950650781,122.60952065066886 75.48293126198405,122.35164754876314 75.36253418779233,122.19692296988433 75.37457389522751,122.00468865227595 75.02943561589927,122.06564108685052 74.88495912688086,122.0" stroke="#4dd2ff" stroke-dasharray="none" stroke-linecap="round" stroke-linejoin="round" stroke-width="0.5"><title>2025-10-07 14.0km</title><desc>1759810688000</desc></polyline><polyline fill="none" opacity="1" points="117.18367346934974,125.08360505325254 112.36514065088704,128.55182020028587 106.89795918390155,129.20210923242848" stroke="#4dd2ff" stroke-dasharray="none" stroke-linecap="round" stroke-linejoin="round" stroke-width="0.5"><title>2025-10-01 13.5km</title><desc>1759289819000</desc></polyline><polyline fill="none" opacity="1" points="88.94526150464662,155.14285714285506 88.81429804264917,153.7739020091176 88.6062972501677,153.58476832063752 88.48303752127686,153.12544190075278 88.56007485184819,152.67511947745515 88.35207405933761,152.1977751102022 88.56007485184819,151.53128982179624 88.13636953374953,150.28837089717126 88.03622100400389,149.21656393132434 87.64333061818616,148.7932414991883 87.4738484909758,147.2350365530947 87.02703197373194,145.4786442076147 86.97310584230581,144.85714285713766" stroke="#4dd2ff" stroke-dasharray="none" stroke-linecap="round" stroke-linejoin="round" stroke-width="0.5"><title>2025-07-20 13.2km</title><desc>1752965179000</desc></polyline><polyline fill="none" opacity="1" points="183.22697492249426,144.85714285714494 183.37282167150988,145.01491255615474 183.4538476431917,145.37462591501753 184.21009004549705,146.3022977594992 184.64222856110428,146.07511414723922 184.9015116704686,146.2391912870262 184.98253764215042,146.54210174814216 184.6638354868628,146.71248820895198 184.29111601717887,147.12267584770234 184.7394597271341,147.98721597392796 185.2472224829835,150.04439264423127 185.3444536489842,151.42632132996368 185.14999131695367,153.08585563845554 184.771870115801,154.34151833253418 184.79347704155953,154.67593662009676 184.56120258942246,155.1428571428587 184.83128916166606,154.59390966582578 184.77727184724063,154.36675751371877 185.13378612260567,153.03537618563496 185.3444536489842,151.3947708025189" stroke="#4dd2ff" stroke-dasharray="none" stroke-linecap="round" stroke-linejoin="round" stroke-width="0.5"><title>2025-06-29 12.0km</title><desc>1751152499000</desc></polyline><polyline fill="none" opacity="1" points="56.97959183673083,157.42441780633453 56.61589475063374,158.14837219438778 56.4866470258421,158.26434400477956 56.318324407489854,158.72822719997203 55.97867340974335,159.38889815036964 55.69613187179493,159.79653963298188 55.521797731358674,160.24634512292687 55.05891053088999,161.05106007320137 54.72226529418549,161.46922303333122 54.70423072791891,161.83115815589917 54.60804637458932,161.89440854957502 54.44573527832108,161.8733250983969 54.367585491228965,161.91549198739813 54.05799210391706,162.2879638510567 53.71533534512855,162.86774665696794 53.01198726129951,163.39481316236197 52.867710731283296,163.60915115167518 52.56713462708285,163.51076667238522 52.02008611743804,163.79186441236016 51.78563675616169,163.8691658742755 51.72852729634906,163.80943294221652 51.59326804945886,163.85511107638376 51.51211250133929,163.8937617562915 51.49407793508726,163.98160404354348 51.004138885240536,164.2029655782826 50.81778170063626,164.1959382506102 50.387957871629624,164.33999817086078 50.1715430766053,164.3505391161343 49.7657653359347,164.48054383308045 49.597442717597005,164.63865699308735 49.245768675682484,164.67379314878053 48.92415224418801,164.92325878667543 48.71074321019114,164.979476136843 48.57548396331549,164.9373131331231 48.497334176208824,165.067315556229 48.37409797348664,165.00407119765805 48.241844487638446,165.06380198391344 48.07953339138476,165.01109835454918 47.9743317549146,165.09542412143855 47.86011283530388,165.06028841121952 47.72485358842823,165.17272255324497 47.646703801336116,165.08488341227712 47.42427748422779,165.10596482726396 46.693877551020705,165.4327250508104" stroke="#4dd2ff" stroke-dasharray="none" stroke-linecap="round" stroke-linejoin="round" stroke-width="0.5"><title>2025-06-22 15.1km</title><desc>1750548259000</desc></polyline><polyline fill="none" opacity="1" points="150.12725771864643,178.0 149.07567123003537,173.61603828138323 148.24058784201043,172.02620840672898 148.90040681522805,171.2794624966482 149.56022578850389,170.90608771132975 149.38496137369657,170.303867744522 149.0035035298206,170.05093441184727 148.12718145595863,170.4845340678512 148.0240847414243,170.40022315250826 146.66320810915204,168.68990257978294 146.45701467996696,167.9792688969319 146.19927289360203,167.7142857142826" stroke="#4dd2ff" stroke-dasharray="none" stroke-linecap="round" stroke-linejoin="round" stroke-width="0.5"><title>2025-05-11 9.2km</title><desc>1746938990000</desc></polyline><polyline fill="none" opacity="1" points="38.36852111289045,179.14285714285506 39.41596370242769,181.09925487775035 39.26192802749574,181.3993129014707 38.41986633784836,181.72337467742182 38.25556161790155,181.99942657262727 40.350446797092445,186.05611188901094 41.336275116715115,189.42857142857247" stroke="#ff8800" stroke-dasharray="none" stroke-linecap="round" stroke-linejoin="round" stroke-width="0.5"><title>2025-04-20 21.5km</title><desc>1745103989000</desc></polyline><polyline fill="none" opacity="1" points="74.98518338950817,179.1428571428587 75.16538442956517,179.53927478960395 75.0452504028799,179.79518821848978 75.08815541239164,180.40234984623748 75.19541793622193,180.72349004231728 75.15251292671019,181.05466359112324 75.37132847534667,181.53636644152357 75.2469039476855,182.50979268009905 75.30268046009587,182.78074281969384 75.41423348488752,182.93628757061015 75.34129496867536,183.5283564708916 75.70598754972161,185.20417243395786 75.58156302207499,185.77614396660647 75.69740654781344,186.3180053707838 76.0406466241111,187.01539195495207 75.97628910982166,187.37160704464623 76.057808627942,187.37662413947692 76.09642313652148,187.64754647228256 76.8515513043676,189.42857142857247 76.25946217274759,188.11413130652 76.09642313652148,187.53717089389102 76.0406466241111,187.5773074975623 75.99774161458481,187.3816412337801 75.93767460124218,187.36157285339505 76.02777512125613,187.3816412337801 76.18223315558862,187.17092281613805 75.90764109454176,187.27126503654654 75.7917975688033,187.2311281738548 75.99774161458481,187.03044335091545 75.6759540430503,186.32803978284574 75.58156302207499,185.80123027941954 75.69740654781344,185.17908580530639 75.29838995913451,183.38786621441977 75.39278098010982,182.98646318786996 75.2683564524632,182.75063732508715 75.22116094196099,182.4495813276808 75.36274747345306,181.5263310153896 75.1353509228793,181.04964582732646 75.18683693432831,180.72850784061302 75.06241240666714,180.42743900239293" stroke="#4dd2ff" stroke-dasharray="none" stroke-linecap="round" stroke-linejoin="round" stroke-width="0.5"><title>2025-04-13 17.0km</title><desc>1744513358000</desc></polyline><polyline fill="none" opacity="1" points="84.96257976221386,179.35958087535982 86.31818629347254,179.1428571428405 86.28964720858494,179.8597114321019 86.63211622700328,180.2431437876221 86.88896799087524,181.22672688278544 88.80108667712193,183.62731078277284 89.05793844087748,183.71066373573558 90.0710759536596,183.0938508433319 90.65612719353521,183.44393413157377 90.88443987257779,184.32747422222747 89.91411098692333,184.91094138704648 89.10074706817977,185.87782509195677 90.29938863270218,188.07829700454022 90.61331856623292,189.4285714285652 90.47062314191135,188.39502907729184 89.10074706817977,185.87782509195677 90.1281541234348,184.69422526285052 90.95578758470947,184.31080370018026 90.67039673600812,183.49394596660568 90.1852322932682,183.12719214223034 88.9295125589706,183.6939931486413 86.91750707570463,181.2600685754005" stroke="#4dd2ff" stroke-dasharray="none" stroke-linecap="round" stroke-linejoin="round" stroke-width="0.5"><title>2025-04-12 10.0km</title><desc>1744429372000</desc></polyline><polyline fill="none" opacity="1" points="162.4644229634432,205.73852676367096 162.70146250375547,206.7868833294051 161.56705898942892,207.45941087242682 160.55117524520028,208.66599836364912 161.5839903851156,210.386855623874 162.29510900599416,212.28571428571013 162.17658923595445,211.51430527183402 160.6189008281217,208.58687811017444 161.73637294676155,207.36050991434604 162.76918808673508,206.8264438398619 162.3966973805218,205.79786785773467 161.73637294676155,205.34291899019445 160.1786845390452,205.97589102736674 157.9268089060206,203.10771939970437 157.63897517853184,202.0" stroke="#4dd2ff" stroke-dasharray="none" stroke-linecap="round" stroke-linejoin="round" stroke-width="0.5"><title>2025-02-01 10.0km</title><desc>1738384413000</desc></polyline><polyline fill="none" opacity="1" points="170.76776639508898,204.18695447443315 169.6971848027606,204.19487955518707 169.155118173745,203.96505187280127 168.17262240860146,204.38508124143118 167.10204081633128,204.51980714347155 167.21722997498,205.05870832671644 167.52214245378855,205.51835627017135 168.24038073726115,205.3915571194011 169.77849479709403,204.80510825318197 169.1212390094006,204.8288832965918 168.78244736630586,205.1934330163349 168.33524239735561,205.36778225473245 168.5114140517835,205.84327811364346 170.39509558762074,205.53420614891365 171.50633217714494,205.20135799053241 171.32338468983653,204.32960579953942 170.9574897152488,204.32960579953942 170.56449140919722,204.60698259791388 169.95466645155102,204.78925822005112 171.167540533992,204.29790552857594 171.4182463499019,204.59905756080843 171.61474550294224,205.16173311117745 172.61079293378862,204.7496331225775 173.30192788579734,204.7575581437559 173.60006453175447,204.57528244440618 175.09752359439153,204.19487955518707 175.27369524884853,204.05222797333408 175.1178510930331,203.60842131340178 175.17883358878316,203.47369377096766 176.49334516417002,203.38651699665206 176.83213680729386,203.5212446959922 177.3132209405594,203.4974692372707 177.3877551020414,203.74314861331368 177.1709284504468,204.6703828646714 177.24546261195792,205.7085545936061 176.14777768813656,206.12857417925989 176.2358635153796,206.69916304855724 176.0867951923865,206.82595998445322 175.71412438494735,207.02407976683753 175.23981608453323,207.00823020354437 174.31830281519797,207.26182281358342 174.06082116640755,206.81011037921417 172.63112043237197,207.24597330065444 172.30588045495097,207.14295138460147 171.72993466159096,207.36484456605103 171.7434863272938,207.49164037446462 171.64862466722843,207.3965435382779 171.492780511413,207.77693015814293 171.26240219408646,207.89580058045976 171.22174719686154,207.7848548588372 171.2420746955031,207.89580058045976 170.9507138823683,207.79277955867292 170.64580140353064,207.49164037446462 169.7717189642426,207.6263606855573 169.59554730981472,207.76900545659737 170.6322497378278,208.56939607516688 171.26240219408646,208.45052672237216 171.59441800432978,208.93392758016853 172.0348471403995,209.13996634134674 172.36008711784962,209.06864529586164 172.59724126802757,208.84675716436323 172.90892957971664,208.93392758016853 172.97668790834723,208.71996365109953 173.51197870454052,208.5931699230714 173.6068403646059,208.98147503692599 174.38606114382856,208.75958664705104 174.67064612408285,209.94826677484525 174.73162861983292,210.89127291800105 174.0066145035089,210.76448286720552 173.105428732757,210.89919728905807 172.94280874406104,210.62184380337567" stroke="#4dd2ff" stroke-dasharray="none" stroke-linecap="round" stroke-linejoin="round" stroke-width="0.5"><title>2025-01-25 14.8km</title><desc>1737764447000</desc></polyline><polyline fill="none" opacity="1" points="189.42857142887078,210.3917691426177 187.79047619062476,209.05660813333816 184.32380952406675,210.43627443670994 179.14285714295693,203.8494398490002" stroke="#4dd2ff" stroke-dasharray="none" stroke-linecap="round" stroke-linejoin="round" stroke-width="0.5"><title>2024-12-28 10.1km</title><desc>1735359007000</desc></polyline><polyline fill="none" opacity="1" points="141.26530612244096,217.6030787324271 140.418540297469,217.98897119898538 139.145278450349,218.17463490023874 138.31719128329132,218.618767532731 137.85956416462432,218.76802393372054 137.40193704600097,218.81534899884718 136.72016603249358,218.69521601411907 136.5894154271664,218.72433920044205 136.3434797647642,218.95732380369373 136.29055690071255,219.1065787361622 136.3341404358216,219.24491199794284 136.28433068140293,219.3286397546508 136.3030093393172,219.4487705280044 136.1971636111848,219.5397784104316 135.82359045310295,219.51429622761134 135.61812521617685,219.45241084791633 135.54652369421092,219.3832447036184 135.24143894843291,219.39052535693554 135.13559322031506,219.47425275934438 134.88031822897028,219.49245434160548 134.69041854026727,219.49245434160548 134.62193012796342,219.43420924447855 133.9401591144706,219.4633318053675 133.57592528534587,219.40872698347812 133.22414389482583,219.47425275934438 133.02490487718023,219.40872698347812 132.85057073674398,219.48153339339478 132.3369076444069,219.3759640487624 131.46212383256352,219.08473659136507 131.39674852989265,219.0155697080263 131.1383604288858,218.98644676819094 130.97959183673083,219.07017515379994" stroke="#4dd2ff" stroke-dasharray="none" stroke-linecap="round" stroke-linejoin="round" stroke-width="0.5"><title>2024-10-28 17.0km</title><desc>1730088256000</desc></polyline><polyline fill="none" opacity="1" points="153.30612244896474,216.91251232166542 152.97899269798654,217.4789827366476 151.29301628906978,218.26614824809076 150.38711851713015,218.45006413935334 149.16667290768237,218.51627374110103 148.61935967046884,218.67076256670407 147.00258378582657,219.5461927615761 146.109267927357,219.833096057715 145.08384197714622,219.9213737568498 144.01437932971749,219.73746175721317 143.5488485302485,219.7595312228441 143.02040816325461,220.23034482119692" stroke="#4dd2ff" stroke-dasharray="none" stroke-linecap="round" stroke-linejoin="round" stroke-width="0.5"><title>2024-10-25 14.0km</title><desc>1729815581000</desc></polyline><polyline fill="none" opacity="1" points="32.89795918366872,231.877069170936 32.14990723563824,230.52849991168478 24.077179962885566,228.2322752426262 22.612244897987694,228.1229308290931" stroke="#4dd2ff" stroke-dasharray="none" stroke-linecap="round" stroke-linejoin="round" stroke-width="0.5"><title>2024-10-13 12.0km</title><desc>1728776779000</desc></polyline><polyline fill="none" opacity="1" points="119.05148570562596,238.96866905282513 118.93877551020705,239.13281226655454 119.08057220769115,239.10755950684688 119.05148570562596,239.2885372773453 119.10965870974178,239.28432850098397 119.05875733114954,239.3558776409336 119.16783171381394,239.31378992654936 119.18964659035555,239.51581056499344 119.27327028373838,239.47793177046333 119.37870885364828,239.5200193178025 119.53868461489037,239.71783021660667 119.81864219707495,239.79358733154731 120.27311879151966,239.60840302782526 120.28766204255226,239.79358733154731 120.36037829767156,239.75991751981928 120.42582292726729,239.8314658369709 120.31674854460289,239.99560562627084 120.40400805074023,240.0124404396338 120.34947085940803,240.24812710701372 120.49853918240115,240.53852490380814 120.77849676457117,240.7026618869968 122.0801177310932,239.89459660226566 122.12374748416187,239.97456209995653 121.81833921268117,240.3870132642187 121.66927088971715,240.49643839292548 121.63291276214295,240.6858273545986 121.56383231977816,240.7489568157689 121.5783755707962,241.19086034600332 121.89832709330949,242.07886173530642 121.76743783410348,242.2640349782523 121.89832709330949,242.10411268087773 122.03285216527001,242.1840739068466 122.16737723723054,241.99469180537926 122.18919211374305,242.36503821591396 122.4946003852383,242.44499893750253 122.93453372867953,242.92476002107287 123.17086155778088,243.00892805850526 123.41809682517487,243.3792653886776 123.55625770987535,243.4339740313917 123.74168416042812,243.6191412083317 124.06163568292686,243.5602244692127 124.15616681457323,243.6023078628532 124.4724825243029,243.88847380431616 124.79970567231067,243.64018288053558 125.09057069275877,243.71172448598736 125.25781807952444,243.522349378316 125.89772112452192,243.56864115135977 126.02861038371339,243.50972434031792 126.4285497868259,243.59809952541036 126.78485943688429,243.48868260175368 126.89756963231775,243.61072453644738 126.966650074668,243.85059901396016 127.344774601268,243.48868260175368 127.45021317116334,243.54339109975263 127.6138247451745,243.28247299741633 127.77016469367663,243.1898887590578 127.74471400438051,242.88688434835785 128.17373990954366,242.86584229298023 128.47187655550078,242.9289684270043 128.56640768714715,242.44499893750253 128.46824074276083,242.36503821591396 128.52641374684754,242.31453662791318 128.515506308584,242.200907829465 128.6718462570716,242.22195022310189 128.76637738871796,242.07886173530642 128.9954335923103,241.98206630110872 129.0136126560974,241.86422807549025 128.90090246066393,241.7505980400092 128.87181595862785,241.4770429705095 129.22448979593173,241.15719167176576 129.1954032938811,241.1024800176674" stroke="#4dd2ff" stroke-dasharray="none" stroke-linecap="round" stroke-linejoin="round" stroke-width="0.5"><title>2024-05-25 14.8km</title><desc>1716598951000</desc></polyline><polyline fill="none" opacity="1" points="23.58873676066287,251.6009029696579 22.677344355732203,255.1031695624115 25.541720485780388,256.62588884914294 32.11676569352858,253.88499181211228 32.76776026841253,250.61112888524076 29.903384138597175,249.08839686511783 23.458537845639512,251.67703938105842 22.677344355732203,255.02703351335367 25.606819943292066,256.62588884914294 31.921467320993543,254.03726414375706 32.83285972615704,250.76340190978954 29.903384138597175,249.08839686511783 23.52363730315119,251.6009029696579 22.677344355732203,255.02703351335367 25.541720485780388,256.62588884914294 31.921467320993543,254.03726414375706 32.83285972615704,250.76340190978954 29.838284680852666,249.08839686511783 23.52363730315119,251.6009029696579 22.677344355732203,255.02703351335367 25.541720485780388,256.62588884914294 31.921467320993543,254.11340029764688 32.89795918366872,250.9918113864842 29.903384138597175,249.08839686511783 23.52363730315119,251.67703938105842 22.612244897987694,254.95089745649602 25.606819943292066,256.62588884914294 31.921467320993543,254.11340029764688 32.89795918366872,250.9918113864842 29.968483595876023,249.08839686511783 23.52363730315119,251.6009029696579 22.612244897987694,254.87476139125647 25.541720485780388,256.62588884914294 31.921467320993543,254.11340029764688 32.83285972615704,250.76340190978954 29.903384138597175,249.08839686511783 23.58873676066287,251.6009029696579 22.677344355732203,255.02703351335367 25.47662102803588,256.62588884914294 31.921467320993543,254.03726414375706 32.76776026841253,250.68726540153148 29.903384138597175,249.08839686511783 23.52363730315119,251.67703938105842 22.677344355732203,255.02703351335367 25.541720485780388,256.62588884914294" stroke="#4dd2ff" stroke-dasharray="none" stroke-linecap="round" stroke-linejoin="round" stroke-width="0.5"><title>2024-05-07 10.0km</title><desc>1715083186000</desc></polyline><polyline fill="none" opacity="1" points="53.38780938356649,250.06056476422236 54.05127485783305,250.54238649754552 54.30231584806461,251.58982101781294 53.17263139190618,252.23922764777672 52.06087843514979,253.53803454095032 53.62091887451243,256.38700057442475 53.943685862002894,258.0 53.80023386760149,256.6593260713562 52.06087843514979,253.5170861100487 53.154699892620556,252.26017621342908 54.35611034592148,251.58982101781294 53.997480359859765,250.458591497445 53.33401488570962,250.06056476422236 52.00708393729292,250.8356687197229 51.66638545051683,250.7099763918377 49.31735904188827,247.71428571427532" stroke="#4dd2ff" stroke-dasharray="none" stroke-linecap="round" stroke-linejoin="round" stroke-width="0.5"><title>2024-04-27 10.0km</title><desc>1714177464000</desc></polyline><polyline fill="none" opacity="1" points="61.95898036728613,248.78892957264907 64.48203218530398,247.71428571428987 65.40189482702408,248.45118478735094 65.79612167365849,249.98638520133682 64.2717778669903,250.78468621865613 62.48461616272107,252.78042918920983 64.66600471362472,256.8025773168483 64.79741366254166,258.0 62.48461616272107,252.7497255548078 64.06152354890946,250.9075015654962" stroke="#4dd2ff" stroke-dasharray="none" stroke-linecap="round" stroke-linejoin="round" stroke-width="0.5"><title>2024-04-20 9.0km</title><desc>1713573009000</desc></polyline><polyline fill="none" opacity="1" points="73.9494716937188,256.4175925348536 76.34906327072531,258.0 78.37948691355996,256.12988169147866 77.9487909891177,249.22478496207623 75.54919941187836,247.71428571426077 73.5187757697422,249.65635556011694 73.9494716937188,256.34566483524395 76.34906327072531,258.0 78.37948691355996,256.12988169147866 77.88726300001144,249.15285650250735 75.61072740121745,247.71428571426077 73.45724778040312,249.65635556011694 73.88794370484538,256.34566483524395 76.28753528185189,258.0 78.37948691355996,256.12988169147866 77.88726300001144,249.22478496207623 75.48767142253928,247.71428571426077 73.45724778040312,249.65635556011694 73.9494716937188,256.48952022677986 76.59517522761598,257.9280724677956 78.37948691355996,256.0579539615428 77.88726300001144,249.15285650250735 75.61072740121745,247.71428571426077 73.45724778040312,249.58442714618286 73.9494716937188,256.4175925348536 76.2260072925128,258.0 78.37948691355996,256.12988169147866 77.88726300001144,249.22478496207623 75.61072740121745,247.71428571426077 73.45724778040312,249.65635556011694 73.9494716937188,256.48952022677986 76.2260072925128,258.0 78.37948691355996,256.2018094137311 77.88726300001144,249.22478496207623 75.54919941187836,247.71428571426077 73.45724778040312,249.65635556011694 73.9494716937188,256.4175925348536 76.34906327072531,258.0 78.37948691355996,256.12988169147866 77.88726300001144,249.15285650250735 75.61072740121745,247.71428571426077 73.45724778040312,249.65635556011694 73.9494716937188,256.5614479109645 76.59517522761598,257.9280724677956 78.37948691355996,256.0579539615428 77.88726300001144,249.15285650250735 75.54919941187836,247.71428571426077 73.45724778040312,249.58442714618286 73.9494716937188,256.4175925348536 76.28753528185189,258.0 78.37948691355996,256.2018094137311" stroke="#4dd2ff" stroke-dasharray="none" stroke-linecap="round" stroke-linejoin="round" stroke-width="0.5"><title>2024-04-18 10.1km</title><desc>1713436846000</desc></polyline><polyline fill="none" opacity="1" points="85.99049898853991,248.83231504939613 88.39666915894486,247.71428571428987 89.54506855842192,248.51287851741654 89.873182672658,250.1420013095194 88.25995494483504,251.03641794159194 86.45532731688581,253.08078890127945 88.72478327318095,257.9680573283986 89.13492591585964,258.0 86.45532731688581,253.04884571107686 88.34198347339407,250.9725311268703 89.92786835844163,250.11005780959385" stroke="#4dd2ff" stroke-dasharray="none" stroke-linecap="round" stroke-linejoin="round" stroke-width="0.5"><title>2024-04-14 10.0km</title><desc>1713054435000</desc></polyline><polyline fill="none" opacity="1" points="94.85714285713038,254.28930207035592 94.90260457774275,253.9370843434299 95.0674033149262,253.83075407541764 96.11870560378884,254.0234775536337 96.93701657454949,253.66461267123304 97.21546961323475,253.358911339099 97.30639305445948,253.5117621911886 98.30655090764049,253.82410842769605 99.26124704023823,253.58486464109592 99.95453827938763,253.66461267123304 101.19905288078007,253.35226564144614 101.58547750589787,253.4718880917244 102.14238358323928,253.47853377672072 102.64246250982978,253.15289438462787 102.93796369375195,253.2127058281185 103.41531176003627,253.0930828841374 103.56306235198281,252.82060754999839 104.93827940014307,251.97659108519292 105.11444356743596,251.67752741117874 105.07466456192196,251.56454743033464 104.96101026042015,251.55125565451453 105.14285714284051,251.42498364392668" stroke="#4dd2ff" stroke-dasharray="none" stroke-linecap="round" stroke-linejoin="round" stroke-width="0.5"><title>2024-04-07 10.0km</title><desc>1712456610000</desc></polyline><polyline fill="none" opacity="1" points="146.29313543601893,256.4894379800535 152.57142857136205,253.5211200651829 153.30612244899385,251.72450079012197 152.57142857136205,249.92787714098813 149.89981447113678,249.06862080626888 143.62152133579366,251.88072872685734 143.2207792205736,255.3177349662874 146.4935064932797,256.41132450365694 152.70500927628018,253.36489247571444 153.23933209618554,251.1777027513599 151.90352504630573,249.38107777084224 149.4990723556839,249.22484930505743 143.15398886846378,252.58375403261743 143.42115027830005,255.63018928508973 146.29313543601893,256.4894379800535 152.50463821878657,253.67734762147302 153.30612244899385,251.72450079012197 152.6382189237047,249.92787714098813 149.83302411879413,249.1467350598541 143.554730983451,252.03695663047256 143.28756957314909,255.39584855840076 146.5602968458552,256.41132450365694 152.50463821878657,253.67734762147302 152.8385899811983,250.16221960418625 150.16697588097304,249.06862080626888 143.42115027830005,252.27129842381692 143.15398886846378,255.3177349662874 146.22634508367628,256.5675514480099 152.6382189237047,253.5211200651829 152.6382189237047,250.0059913037694 149.89981447113678,249.1467350598541 143.3543599259574,252.27129842381692 143.2207792205736,255.3177349662874 146.22634508367628,256.5675514480099 152.4378478662111,253.75546138733625 152.8385899811983,250.24033374199644 150.16697588097304,249.06862080626888 143.62152133579366,252.03695663047256 143.15398886846378,255.3177349662874 146.22634508367628,256.5675514480099 152.50463821878657,253.67734762147302 152.90538033354096,250.31844787171576 150.10018552839756,249.06862080626888 143.62152133579366,252.03695663047256 143.15398886846378,255.16150775697315 145.8923933210317,256.5675514480099 152.50463821878657,253.67734762147302 152.70500927628018,250.084105458227 149.89981447113678,249.1467350598541 143.554730983451,252.11507056985283 143.2207792205736,255.39584855840076 146.29313543601893,256.4894379800535 152.3710575136356,253.75546138733625 152.90538033354096,250.39656199293677 150.300556586124,249.06862080626888 143.62152133579366,252.03695663047256 143.2207792205736,255.3177349662874 145.95918367337435,256.5675514480099 152.50463821878657,253.67734762147302 152.90538033354096,250.31844787171576 150.03339517628774,249.06862080626888 143.3543599259574,252.27129842381692 143.28756957314909,255.47396214213222 146.15955473086797,256.5675514480099 152.57142857136205,253.5992338474025 152.77179962862283,250.084105458227 150.03339517628774,249.06862080626888 143.554730983451,252.03695663047256 143.02040816331282,255.005280514888 145.8923933210317,256.6456649079919 152.30426716129296,253.8335751448176 152.97217068611644,250.39656199293677" stroke="#4dd2ff" stroke-dasharray="none" stroke-linecap="round" stroke-linejoin="round" stroke-width="0.5"><title>2024-03-26 10.6km</title><desc>1711453549000</desc></polyline><polyline fill="none" opacity="1" points="46.69387755100615,267.47014325604323 47.98427689660457,266.9942247751642 48.160970582888694,267.0631079501509 48.241285894881,267.013011103576 48.20380541594932,267.06937005298096 48.20915977007826,266.9879626643742 48.128844458115054,267.0944184577311 48.06459220853867,266.97543844080064 47.71120483591221,265.9860163996891 47.75403966894373,265.8732963829898 48.562547142704716,265.44746327036046 48.77672130794963,265.45372554421556 49.263967533916,265.2032340725855 49.45672428261605,265.0091024524954 49.40318074129755,264.802445511672 49.73515069743735,264.67719852952723 49.9279074461374,264.48932755902206 51.19688937519095,264.23256960108847 52.29453197206021,263.79419978005535 52.53547790797893,263.76914997788845 52.78177819796838,263.581276123361 53.509970359824365,263.3057267239892 53.83123160767718,263.2932017208077 54.8967480797437,262.9487630935146 56.97959183671628,262.7233112695794 56.9688831284293,261.10128531538066" stroke="#4dd2ff" stroke-dasharray="none" stroke-linecap="round" stroke-linejoin="round" stroke-width="0.5"><title>2024-01-30 11.7km</title><desc>1706613736000</desc></polyline><polyline fill="none" opacity="1" points="61.16586218996963,259.1428571428587 61.24352392255969,259.20348673661647 61.58005809724273,259.193381809695 61.882075946283294,259.4308470240394 61.96405221959867,259.6784158773553 62.14526292904338,259.81483081666374 62.13231930694019,259.91587866731425 62.14094838833262,259.8097784184938 62.27469915006077,259.7845164195496 62.48179710369732,259.9765072745395 63.159179993730504,259.9360882116416 63.49139962767367,260.1533402703644 63.68555395922158,260.1583926319945 63.8710792093334,260.0219786791822 63.99620088968368,260.0522929247745 64.03934629668947,259.7946212207389 64.05228991879267,260.0320834298618 64.4017677155789,259.8299880079612 64.92382714034466,259.70367793270634 64.9540289252327,259.62789172635166 65.06620698346524,259.6127344705819 65.16544141958002,259.81988321429526 64.966972547365,260.50700428746495 64.81164908212668,260.6535214661417 64.59160750638694,260.68383530877327 64.41471133766754,260.9010839482253 64.31979144223442,260.9111885119455 64.33704960504838,261.1183315943272 64.27664603522862,261.2092721744848 64.09543532578391,261.42146618461265 63.93148277918226,261.4871450909304 64.00914451177232,261.64376365497446 63.3058743775473,261.9620514041562 63.13760729022033,262.20960706832193 62.71909684225102,262.2954934259651 62.714782301540254,262.5329431362261 62.4904261851043,262.78049582604945 62.080544818527414,262.6895582531324 61.398847387798014,262.74513123503493 61.144289486444904,262.8663811517981 61.269411166766076,263.0684636588485 61.17017673065129,263.46252207569705 60.87678796300315,263.6646020474909 60.87678796300315,264.06875941301405 61.22626575976028,263.896992952672 61.43336371341138,263.9929801688013 61.70086523685313,264.3415636915597 61.91227773120045,264.37692709448675 62.1064320627338,264.3062002623119 62.205666498848586,264.6396258351997 62.59828970262606,264.8669601117763 62.589660621233634,265.0538785911449 62.72772592364345,265.08418962663563 62.70183867945161,265.31152177654803 62.913251173798926,265.5641117788182 62.99522744709975,265.54895641653275 63.05131647619419,265.6297849594848 63.055631016904954,265.9783564762547 62.83990398187598,266.47342467116323 62.80107311558095,266.83714495675304 62.952082040093956,266.84219660778035 63.27998713335546,267.13519144908787 63.40942335437285,267.56962875127283 63.39216519157344,267.96870137845326 63.65535217431898,268.55467536654396 63.59063406380301,268.9032254330341 63.879708290754934,269.42857142857247 64.22055700611963,269.13559072409043 64.34136414573004,267.6150928905845 64.74261643092905,267.3473589997593 65.13955417537363,266.9280745932265 65.07483606488677,266.77652510245025 64.95834346594347,266.7967317291441 65.06620698346524,266.77147344444165 65.03169065786642,266.438062828267 65.3078212627297,266.26630493135235 65.01443249508156,265.99856344229556 64.75124551232147,265.5540082044863 65.01443249508156,264.82149334346104 64.99285979155684,264.5891069593745 65.15249779749138,264.4931209473725 65.19995774519339,264.54869182006223 65.14818325679516,264.5436399252212 65.16544141958002,264.412290471093 65.47177380933135,263.8919409885675 65.58395186756388,263.8111094896849 65.79967890262196,263.82121343455583 65.98520415276289,263.67975801074135 66.43391638562025,262.9926828194257 66.81359596727998,262.6895582531324 66.8783140778105,262.54809946041496 66.84379775221169,262.2803370211914" stroke="#4dd2ff" stroke-dasharray="none" stroke-linecap="round" stroke-linejoin="round" stroke-width="0.5"><title>2024-01-27 16.6km</title><desc>1706316843000</desc></polyline><polyline fill="none" opacity="1" points="73.40450791013427,261.2419954848592 73.88333827932365,267.74928205128526 76.51690530823544,269.2186604892486 78.55193437612616,267.18951797886984 78.13295780331828,260.68222591100493 75.73880595876835,259.1428571428987 73.34465411421843,261.3819378041662 74.00304587138817,267.81925252708606 76.2176363277249,269.28863080986775 78.55193437612616,267.3994295615703 78.13295780331828,260.7521971335518 75.91836734721437,259.1428571428987 73.40450791013427,261.3119666482671 73.88333827932365,267.53937057958683 76.57675910438411,269.28863080986775 78.55193437612616,267.18951797886984 78.01325021125376,260.47231219889363 75.61909836647101,259.1428571428987 73.40450791013427,261.1720243137679 73.94319207500666,268.0291639099014 76.33734391978942,269.28863080986775 78.55193437612616,267.32945904135704 78.13295780331828,260.7521971335518 75.55924457032233,259.1428571428987 73.46436170628294,261.03208195004845 73.88333827932365,267.81925252708606 76.51690530823544,269.28863080986775 78.55193437612616,267.18951797886984 78.01325021125376,260.68222591100493 75.8585135510657,259.1428571428987 73.46436170628294,260.96211075707106 73.82348448294215,267.53937057958683 76.1577825313434,269.2186604892486 78.55193437612616,267.1195474367123 78.01325021125376,260.61225468094926 75.73880595876835,259.21282852825243 73.40450791013427,261.2419954848592 73.76363068679348,267.60934107756475 76.1577825313434,269.3586011228617 78.49208058021031,267.3994295615703 77.89354261895642,260.61225468094926 75.55924457032233,259.28279990603914 73.40450791013427,261.3819378041662 73.88333827932365,267.81925252708606 76.27749012410641,269.2186604892486 78.49208058021031,267.3994295615703 78.01325021125376,260.7521971335518 75.20012179366313,259.28279990603914 73.28480031783693,261.3819378041662 73.76363068679348,267.74928205128526 76.45705151208676,269.42857142857974 78.55193437612616,267.3994295615703 78.13295780331828,261.10205313557526" stroke="#4dd2ff" stroke-dasharray="none" stroke-linecap="round" stroke-linejoin="round" stroke-width="0.5"><title>2024-01-25 10.3km</title><desc>1706155972000</desc></polyline></svg>