<?xml version="1.0" encoding="utf-8" ?>
<svg baseProfile="full" height="300mm" version="1.1" viewBox="0,0,200,300" width="200mm" xmlns="http://www.w3.org/2000/svg" xmlns:ev="http://www.w3.org/2001/xml-events" xmlns:xlink="http://www.w3.org/1999/xlink"><defs /><rect fill="#222222" height="300" width="200" x="0" y="0" /><text fill="#FFFFFF" style="font-size:12px; font-family:-apple-system, BlinkMacSystemFont, 'Segoe UI', Roboto, 'Helvetica Neue', Arial, sans-serif; font-weight:bold;" x="10" y="20">Over 3km Runs</text><text fill="#FFFFFF" style="font-size:4px; font-family:-apple-system, BlinkMacSystemFont, 'Segoe UI', Roboto, 'Helvetica Neue', Arial, sans-serif;" x="10" y="280">Runner</text><text fill="#FFFFFF" style="font-size:9px; font-family:-apple-system, BlinkMacSystemFont, 'Segoe UI', Roboto, 'Helvetica Neue', Arial, sans-serif;" x="10" y="290">Hannah YAN</text><text fill="#FFFFFF" style="font-size:4px; font-family:-apple-system, BlinkMacSystemFont, 'Segoe UI', Roboto, 'Helvetica Neue', Arial, sans-serif;" x="65" y="280">SPECIAL TRACKS</text><rect fill="yellow" height="2.6" width="2.6" x="65" y="283" /><text fill="#FFFFFF" style="font-size:3px; font-family:-apple-system, BlinkMacSystemFont, 'Segoe UI', Roboto, 'Helvetica Neue', Arial, sans-serif;" x="70" y="285.5">Over 20.0 km</text><rect fill="red" height="2.6" width="2.6" x="65" y="287" /><text fill="#FFFFFF" style="font-size:3px; font-family:-apple-system, BlinkMacSystemFont, 'Segoe UI', Roboto, 'Helvetica Neue', Arial, sans-serif;" x="70" y="289.5">Over 40.0 km</text><text fill="#FFFFFF" style="font-size:4px; font-family:-apple-system, BlinkMacSystemFont, 'Segoe UI', Roboto, 'Helvetica Neue', Arial, sans-serif;" x="120" y="280">STATISTICS</text><text fill="#FFFFFF" style="font-size:3px; font-family:-apple-system, BlinkMacSystemFont, 'Segoe UI', Roboto, 'Helvetica Neue', Arial, sans-serif;" x="120" y="285">Number: 307</text><text fill="#FFFFFF" style="font-size:3px; font-family:-apple-system, BlinkMacSystemFont, 'Segoe UI', Roboto, 'Helvetica Neue', Arial, sans-serif;" x="120" y="290">Weekly: 2.7</text><text fill="#FFFFFF" style="font-size:3px; font-family:-apple-system, BlinkMacSystemFont, 'Segoe UI', Roboto, 'Helvetica Neue', Arial, sans-serif;" x="141" y="285">Total: 2678.6 km</text><text fill="#FFFFFF" style="font-size:3px; font-family:-apple-system, BlinkMacSystemFont, 'Segoe UI', Roboto, 'Helvetica Neue', Arial, sans-serif;" x="141" y="290">Avg: 8.7 km</text><text fill="#FFFFFF" style="font-size:3px; font-family:-apple-system, BlinkMacSystemFont, 'Segoe UI', Roboto, 'Helvetica Neue', Arial, sans-serif;" x="167" y="285">Min: 3.0 km</text><text fill="#FFFFFF" style="font-size:3px; font-family:-apple-system, BlinkMacSystemFont, 'Segoe UI', Roboto, 'Helvetica Neue', Arial, sans-serif;" x="167" y="290">Max: 42.8 km</text><polyline fill="none" opacity="1" points="16.46837033936754,33.78327617357718 16.3024717218359,31.684652136158547 12.200251361588016,31.878643701478723 11.898617511498742,33.73037000982731 10.782572266529314,36.199306428577984 10.616673648939468,37.64538078127953 14.643485546752345,38.59766679843597 16.347716799355112,34.365242866711924 16.347716799355112,31.719923346623546 12.335986594087444,31.790465745230904 12.094679514004383,32.054999474130454 11.974025974108372,33.589286824455485 10.918307498970535,35.79369795539242 10.601591956394259,37.66301575691614 20.17846669460414,39.955546712109935 20.857142857159488,36.199306428577984 20.766652702121064,31.772830148416688 20.449937159602996,31.47302471646981 12.170087976555806,31.931550452893134 12.049434436601587,33.20130744899507 11.023879346554168,35.44099413311051 10.571428571420256,37.574840859888354" stroke="#4dd2ff" stroke-dasharray="none" stroke-linecap="round" stroke-linejoin="round" stroke-width="0.5"><title>2026-07-14 4.4km</title><desc>1784026688000</desc></polyline><polyline fill="none" opacity="1" points="22.612244897987694,36.373202781578584 25.20993689954048,36.99856300501415 26.336876812041737,33.96106436425907 26.327326473779976,32.676801520945446 26.136319708952215,32.576293334932416 23.59592973679537,32.75497448837996 23.452674663159996,33.815887608681805 22.784150986291934,35.22297698442708 22.65044625091832,36.39553713906935 28.896367460663896,37.88076130760601 29.28793132858118,38.1264354721352 29.985106020176318,38.182270429802884 32.19123415381182,39.00862435105955 32.89795918366872,38.96395673687948 32.5159456540714,36.39553713906935 32.286737536254805,35.92651463990478 29.173327269614674,37.132568285262096 28.91546813712921,37.065565666387556 29.135125916684046,35.35698451833741 29.068273548968136,32.598628495623416 28.944119151856285,32.419947077512916 23.60548007505713,32.743806925158424 23.567278722068295,33.469696078114794 22.898755045200232,34.966128735664824 22.612244897987694,36.35086841938755 25.123983855359256,37.0208972301989 25.305440281983465,36.88689180822985 26.212722414871678,34.44126297982439 26.34642715024529,32.66563394945115 25.69700414984254,32.576293334932416 23.61503041331889,32.72147179514286 23.54817804560298,33.61487330978707 22.860553692211397,35.1224712223775 22.621795236191247,36.35086841938755 25.25768859073287,36.9762287751073 26.317776135518216,34.10624092024227 26.34642715024529,32.72147179514286 26.212722414871678,32.56512575276429 23.61503041331889,32.73263936075091 23.529077369137667,33.67071065342316 22.936956398189068,34.82095336211205 22.631345574453007,36.261530923322425 22.95605707465438,36.47370735301956 28.62895798991667,37.858427264363854 28.86771644593682,37.46758074182435" stroke="#4dd2ff" stroke-dasharray="none" stroke-linecap="round" stroke-linejoin="round" stroke-width="0.5"><title>2026-07-09 10.0km</title><desc>1783598044000</desc></polyline><polyline fill="none" opacity="1" points="37.37453083531,31.547927823849022 36.87355410470627,32.980123922694474 37.87550756591372,39.034370587032754 39.71242224541493,40.72694501694059 42.7182826299686,39.1645687854616 41.82765733078122,32.65462510212092 39.48976592067629,30.571428571478464 37.70851532230154,31.157328308850992 36.92921818559989,32.65462510212092 37.81984348478727,39.034370587032754 39.87941448925994,40.79204394062981 42.7182826299686,38.96927147731185 41.82765733078122,32.78482465108391 39.656758164288476,30.571428571478464 36.81789002334699,32.32912610931089 37.70851532230154,39.099469689594116 40.15773489512503,40.85714285715949 41.605001006042585,40.4014502959908 42.77394671132788,38.578676675329916 41.938985493266955,32.65462510212092 40.992696112953126,31.22242824517889 39.21144551457837,30.63652856979752 36.76222594198771,32.78482465108391 38.09816389088519,39.22966787428595 40.21339897601865,40.6618460866157 42.7182826299686,38.578676675329916 41.7719932498876,32.2640262900386 39.15578143345192,30.76672854583012 36.984882266959175,32.39422592159826 37.931171647273004,39.22966787428595 40.0464067326393,40.79204394062981 41.660665087169036,40.4014502959908 42.77394671132788,38.64377582632005 41.660665087169036,32.65462510212092 40.82570386934094,31.22242824517889 39.10011735232547,30.70162856130628 36.81789002334699,32.78482465108391 37.87550756591372,39.1645687854616 40.71437570685521,40.72694501694059 42.43996222410351,39.620262262935285 42.82961079245433,38.05788322020089 41.38234468130395,31.87342722999165 38.54347654036246,30.831828523485456 36.81789002334699,32.84992441511713 37.87550756591372,38.96927147731185 39.10011735232547,40.59674714936409 40.43605530099012,40.6618460866157 42.16164181800559,39.94575739733409 42.77394671132788,38.31828000303358 41.7719932498876,32.2640262900386 38.933125108713284,30.70162856130628 36.81789002334699,32.52442552574212 37.931171647273004,39.42496509948978 40.21339897601865,40.72694501694059 42.77394671132788,38.8390732377884 41.71632916852832,32.39422592159826 38.933125108713284,30.76672854583012 36.984882266959175,32.84992441511713 37.76417940342799,39.1645687854616 40.0464067326393,40.6618460866157 41.938985493266955,39.880658384179696 42.82961079245433,38.38337918149773 41.43800876266323,31.808327362465207 38.988789189839736,30.63652856979752 37.54152307892218,31.287528174521867" stroke="#4dd2ff" stroke-dasharray="none" stroke-linecap="round" stroke-linejoin="round" stroke-width="0.5"><title>2026-07-08 4.7km</title><desc>1783508969000</desc></polyline><polyline fill="none" opacity="1" points="56.979591836745385,32.40584152723022 48.30605847353581,32.895989831886254 48.209327618184034,34.34757498007093 47.08080097241327,36.835979155875975 46.69387755100615,39.02272990134952" stroke="#4dd2ff" stroke-dasharray="none" stroke-linecap="round" stroke-linejoin="round" stroke-width="0.5"><title>2026-07-03 5.0km</title><desc>1783051432000</desc></polyline><polyline fill="none" opacity="1" points="72.52083370553737,40.61610332258351 72.51052773898118,40.01349779107841 72.13607762075844,39.31044591512182 72.1326422985876,39.230096300274454 72.20821938666631,39.16983397753938 72.32502034096979,39.189921429075184 72.62045804891386,39.41088269452666 73.55486568337074,40.41121851502612 73.74724372575292,40.50361768276343 73.92244515720813,40.49156563016004 74.05642272243858,40.64824201562078 74.33811914164107,40.36702752922429 74.51332057311083,40.07777617013562 74.52362653966702,39.92511484215356 74.8156289254257,39.51131920822081 75.21756162111706,39.053326548997575 75.46490481846558,38.92476621289461 75.40993966349924,38.84843330732474 75.66758882741851,38.31008108853348 76.00081507940195,37.225318352106115 75.98707379066036,36.30123675397772 75.93210863569402,36.14454242600914 75.99737975721655,35.95570481223331 76.53672534032376,35.738741287597804 77.22035445523215,35.21641660414389 77.40242653105815,35.204362872736965 77.44365039729746,35.05971779734318 77.62572247312346,34.83471325092978 77.55358070721559,34.29630409964739 77.22035445523215,33.45251319788076 77.03484705722076,32.7895214696473 77.30623750988161,32.66495809474509 77.95207808075065,32.53637611755403 78.32996352112968,32.52833972951703 78.58417736286356,32.43190294026135 78.7250255724648,32.09437224772046 78.67693106186925,31.752820276265993 78.70784896153782,31.371082081488566 78.62196590688836,30.96924825345559 78.68723702842544,30.788421642362664 78.80403798272891,30.7803848840922 79.02046328040888,30.872807501458738 79.63195062942395,31.338935531843163 79.83463463836233,31.415283542744874 79.98922413670516,31.326880568711204 80.14381363506254,31.033541951928783 80.25717926716607,31.049615359526797 80.36023893272795,30.989340045929566 79.93769430392422,30.91299117791641 79.87585850458709,31.138018979589106 79.75562222809822,31.182220712373237 79.11321697941457,30.70001720772052 78.79716733834357,30.571428571427532 78.65631912874233,30.58348377458242 78.48455301947251,30.687962041574792 78.43645850887697,30.83664215625322 78.52921220788267,31.937660548413987 78.52921220788267,32.11446344441356 78.45707044198934,32.22697394929128 77.05202366813319,32.53235792374471 76.84246901483857,32.713176223853225 76.83216304828238,32.98239298532644 77.38868524231657,34.485149970205384 77.40242653105815,34.80658758883874 76.51267808501143,35.51374076682623 75.78095445953659,35.85525889020937 75.81874300357595,36.99630892245841 75.54048190655885,38.12527185012004 75.21756162111706,38.824328147362394 74.6816513601807,39.37472548455116 74.38964897442202,39.8286968450484 74.2213181873376,39.94118448453082 73.97741031217447,40.24650639742322 73.73693775919673,40.3027496398754 73.28691055289528,39.87288845744479 72.5895401492453,39.06537905818186 72.30440840784286,38.96895887753635 71.91278167870769,38.95288882361638 71.54863752705569,38.70380211797965 71.47649576116237,38.81227556165686 71.48680172773311,38.868520928943326 71.84407523501432,39.09350156473738 72.03988859956735,39.523371572006 72.0433239217673,39.6679996390194 72.24257260852028,40.00948038876595 72.35250291845296,40.54379116381824 72.17043084262696,40.8571428571413" stroke="#4dd2ff" stroke-dasharray="none" stroke-linecap="round" stroke-linejoin="round" stroke-width="0.5"><title>2026-06-28 15.3km</title><desc>1782609425000</desc></polyline><polyline fill="none" opacity="1" points="98.03905242205656,30.571428571427532 98.01824661222054,30.656512728211965 97.86567067336,30.717287010531436 98.06332586689678,30.73754508326965 98.16388728113088,30.96848635742208 98.27485160031938,31.025208563256456 98.15348437622015,31.19942624324176 97.91421756299678,31.365540039507323 98.34420429980673,31.90439204424547 98.2991250451305,32.058348371690954 98.91983170551248,32.74304140741879 99.31860972756112,32.83622353996543 99.38449479207338,33.01448438120133 99.27699810785998,33.07930630024566 99.27699810785998,33.14412810990689 99.54053836590901,33.43987622878194 99.77633754415729,33.31833618148812 99.80754625893314,33.38315758789395 99.70004957471974,33.472286843119946 99.70004957471974,33.569518522119324 99.85262551359483,33.71941687849903 100.02947489728103,33.73157077366341 100.1231010415795,33.80044277360503 100.10923050169367,34.08403206091316 100.34502967992739,34.379772945307195 100.48026744391245,34.44054133827012 100.78541932166263,34.39192663158974 100.78195168668753,34.56612904586291 100.86864256103581,34.66740915623086 100.92412472065189,34.90642915829085 101.4130612519948,35.501947103497514 101.70087495485495,35.356106827377516 101.84998325875495,35.46143597121409 101.90893305331701,35.66804229939953 101.69740731987986,35.77742167050383 101.46854341156723,36.04074110182046 101.8083716390538,36.660547410727304 102.11699115177908,38.10267242303598 102.12739405668981,38.98979547878116 102.00949446758023,39.80803694917631 102.10312061186414,39.94575904846715 102.04763845229172,40.140189407447906 101.91586832325265,40.30221395537956 101.815306909004,40.67486782399283 101.83611271885457,40.83689011835304 101.91933595822775,40.8571428571413 101.97135048285418,40.80043516166188 101.90893305331701,40.30221395537956 102.04070318232698,40.14829065106096 102.09271770693886,39.94575904846715 102.00602683259058,39.77563167762855 102.13432932664,38.76700394265936 102.0996529769036,38.074316553880635 101.78756582921778,36.632190477550466 101.4512052367063,36.03263899236117 101.69740731987986,35.75716625489076 101.89853014839173,35.65183792165044 101.83611271885457,35.449282623201725 101.69047204994422,35.356106827377516 101.39225544214423,35.501947103497514 100.92412472065189,34.9145315051901 100.85130438617489,34.65525555707791 100.77154878176225,34.57423146451765 100.77154878176225,34.39192663158974 100.4837350789021,34.4445925610562 100.34502967992739,34.39192663158974 100.10576286670403,34.07998080011021 100.14043921645498,33.87741721568091 100.09535996177874,33.76803243606264 99.86649605349521,33.72751947570214 99.68964666980901,33.56546720708138 99.6965819397592,33.46418419210022 99.82488443379407,33.38315758789395 99.80407862395805,33.31428483995478 99.5890852555458,33.43987622878194 99.52320019103354,33.423670911342924 99.26312756797415,33.09956312751092 99.37755952212319,33.00233025921625 99.3012715527002,32.83217214759861 98.93370224542741,32.759247011923435 98.2956574101554,32.05024542246974 98.3268661249167,31.892237571071746 97.91768519798643,31.36959158654281 98.27485160031938,31.033311728682747 98.16735491612053,30.960383178327902 98.07026113683241,30.74564830937743 97.8691383083351,30.705132161750953" stroke="#4dd2ff" stroke-dasharray="none" stroke-linecap="round" stroke-linejoin="round" stroke-width="0.5"><title>2026-06-21 12.1km</title><desc>1782018676000</desc></polyline><polyline fill="none" opacity="1" points="114.64861983968876,35.37076171258013 114.0554284825921,35.84845529769882 113.47902556016925,36.64024065021658 113.1712375918869,36.8234622631353 112.53327707579592,36.66641519955738 112.05200861627236,36.790744157777226 111.54275943239918,36.659871563271736 111.3804712309211,36.744938781190285 111.23497146411682,36.99359613212073 111.03910639337846,37.0394013245932 110.70333770068828,36.8496367349544 109.8918966933852,36.86272396673667 109.1811862938921,37.40584164347092 108.63276409584796,37.32731890071591 108.34736070706276,37.183360280156194 106.97630521198153,37.22262175533979 106.89795918366872,36.94124729918258 107.81013079881086,37.0394013245932 108.28020696851308,36.928160084029514 108.85101374608348,37.137555194269225 109.18678243874456,37.019770531958784 109.21476316312328,37.104837255003076 109.57291643533972,36.712220634286496 109.88070440362208,36.5944351621838 110.72572228021454,36.6206097309223 111.08947169728344,36.8234622631353 111.55395172216231,36.43738751721685 112.03522018165677,36.528998691901506 112.5836423796718,36.42430019546737 113.16564144700533,36.57480422837034 113.66929448599694,36.01204814330049 113.94910172990058,35.37076171258013 114.49752392794471,34.97159027125963 114.63183140504407,34.59204782336019 114.85567720016115,34.37610021877845 115.23621505184565,34.40881960125989 116.48415535961976,34.02272978509427 117.18367346940795,34.15360795886954" stroke="#4dd2ff" stroke-dasharray="none" stroke-linecap="round" stroke-linejoin="round" stroke-width="0.5"><title>2026-06-18 10.3km</title><desc>1781755773000</desc></polyline><polyline fill="none" opacity="1" points="129.22448979591718,36.359174124198034 128.3940044917399,36.18393408755219 127.815740650316,36.38020290049462 124.90596621425357,35.26566946737876 123.70022458746098,35.062387962898356 118.93877551020705,35.04836852808512" stroke="#4dd2ff" stroke-dasharray="none" stroke-linecap="round" stroke-linejoin="round" stroke-width="0.5"><title>2026-06-15 11.4km</title><desc>1781479179000</desc></polyline><polyline fill="none" opacity="1" points="148.67164937744383,30.898936043071444 148.29814271285431,31.784414526904584 147.60300530923996,32.18469707832264 146.82486642466392,32.03913994845789 145.94297568878392,32.25747557402792 145.46571717289044,31.990620864169614 144.72907902882434,32.08765901226434 144.39707310468657,31.796544321696274 144.51120014110347,31.408390252086974 145.47609235806158,31.238572433743684 146.2231056872988,30.69272774401179 146.94936864619376,30.75337728219165 147.3851264215773,30.571428571427532 148.61977345182095,30.862546370168275 149.40828752150992,30.668467919742397 149.6261664092308,31.080884234521363 148.3188930831384,33.688776608978515 147.76900827127974,36.017635052630794 149.37716196617112,36.74539362408541 151.9294575076201,37.37611398631998 151.63895232405048,39.765542379529506 149.52241455792682,39.2803832790305 149.1489078933373,39.80192922937567 149.40828752150992,40.23857052784297 149.16965826356318,40.46901943235571 148.8895282651065,40.43263279398525 148.8065267840866,40.11728144495282 148.16326530615333,40.177926002434106 147.01161975698778,39.886831834184704 146.58623716671718,40.857142857144936 144.67720310320146,40.52966380400903" stroke="#4dd2ff" stroke-dasharray="none" stroke-linecap="round" stroke-linejoin="round" stroke-width="0.5"><title>2026-06-11 10.1km</title><desc>1781164397000</desc></polyline><polyline fill="none" opacity="1" points="181.10150375938974,34.0063903798291 181.40225563909917,33.65027370584721 181.4812030075118,33.135877565146075 181.64661654134397,32.90725501361885 181.8458646616491,32.85009917914067 183.10902255638211,32.78415004163617 183.38345864661096,32.946824391423434 183.6052631578932,33.57553278176056 184.02631578946603,33.72061798215509 184.6052631578932,33.623894571519486 185.01879699247365,33.40846434755804 185.48120300752635,33.67665282341477 185.67293233082455,33.66785978609187 186.0187969924591,33.54036053565869 186.32706766917545,33.19303300642423 186.49624060149654,33.280964301018685 186.51127819548128,33.51837786672331 186.74436090225936,33.71622146838126 187.2218045112677,33.087515207247634 187.51503759398474,33.012773270664184 188.54511278195423,33.15786043648404 188.95864661652013,33.72501449547781 188.91729323306936,33.834927177122154 188.96616541352705,34.067941100493044 189.1691729323211,34.52517217067361 189.37218045111513,34.613100645721715 189.4285714285652,34.92964161509008 188.96240601503814,35.15825303756719 188.59774436090083,35.43522288343593 187.0,37.422317479249614 186.78195488720667,37.620142492305604 186.25563909774064,36.71453583105904 186.14285714285506,36.652989031026664 185.96992481201596,36.670573840354336 185.76691729322192,36.5694610851715 185.736842105267,36.4903291920964 186.42481203007628,36.10785625105564 186.4624060150236,35.71658718555045 186.5338345864584,35.59349053782353 186.83458646618237,35.81330572434308 187.03007518795494,35.848476046267024 187.5714285714348,35.369277849506034 187.69924812030513,35.04394748356572 187.7406015037559,34.7405966040169 188.33834586465673,34.261385628935386 188.4323308270541,34.03716575156432 188.42857142855064,33.53156746947934 188.3646616541373,33.42605053016814 188.21428571428987,33.36449885847469 188.0375939849473,33.39087815750099 187.65413533833635,33.795358645216766 187.51503759398474,33.790962139351905 187.34210526314564,33.57992931042463 187.3834586465964,33.812944664059614 187.56390977442788,34.01078686290566 188.07894736839808,33.9404430779141 187.68045112780237,34.24819625788223 187.3759398496186,34.30974662029985 187.3759398496186,34.41526131514911 187.086466165405,34.96041630292166 186.94360902253538,34.98239820885283 186.74812030074827,34.872488562927174 186.51127819548128,34.83292101922052 185.81578947367962,35.0483438568408 185.22180451128224,35.004380103142466 184.93984962404647,35.45280820814514 184.15037593984744,35.90123147333361 184.08270676690154,36.13863006622341 183.80827067668724,36.36283860293406 183.71428571427532,36.62661180311261 183.25563909774064,37.316810420543334 183.03759398496186,37.51463593587323 182.68421052632038,37.67729176517605 182.51127819549583,37.67289567005355 182.3308270676789,37.50584371074365 182.12030075187795,37.47067479162797 182.01127819548128,37.47067479162797 181.80075187969487,37.620142492305604 181.5827067669161,37.67729176517605 181.30827067668724,37.54540870917117 181.04135338345077,37.21569923789866 181.03383458647295,37.00028763703813 180.77067669172538,36.85961007044534 180.6390977443516,36.34525366338494 180.3759398496186,36.0946674661609 180.38345864661096,36.5430838042339 180.2969924812205,37.03985311683573 180.0300751879695,37.17173777738935 179.98872180450417,37.09260703129257 179.88721804511442,37.21569923789866 179.82330827068654,37.20251080462549 179.61654135338904,37.35197946986955 179.59774436091539,37.29043361400181 179.42481203007628,37.382752363620966 179.35338345865603,37.32120655333347 179.28195488720667,37.40033686411698 179.36842105262622,37.53661649054993 179.69172932331276,37.60695418740579 179.8270676691609,37.83994695781075 179.5526315789466,38.42022516052748 179.14285714285506,38.38066099500429 179.30075187969487,38.6444213869363" stroke="#ff8800" stroke-dasharray="none" stroke-linecap="round" stroke-linejoin="round" stroke-width="0.5"><title>2026-06-06 21.6km</title><desc>1780740439000</desc></polyline><polyline fill="none" opacity="1" points="61.57409603227279,52.285714285713766 61.644754160690354,51.999262346766045 62.10167672482203,51.33270461835491 62.60099416601588,50.80385935679078 62.930732098873705,50.63308526014225 62.85536342850537,50.51739926344453 63.21807515466935,49.751661659425736 63.67499771877192,48.26973458825523 63.599629048403585,47.24503171592005 63.651445009279996,47.01915363785156 63.576076338940766,46.76021902524735 63.63260284170974,46.56188525917969 64.45223713194719,46.22030866806017 65.34724009261117,45.548167539283895 65.61103043888579,45.5096018013428 65.63458314834861,45.30024443955699 65.9030840365449,44.986206817608036 65.87482078518951,44.512392082044244 65.17295004238258,42.6336190912225 65.09287083009258,42.187331665139936 65.27187142221374,42.088156161746156 65.86539970137528,42.0 65.87011024329695,42.187331665139936 65.45087201433489,42.30854591261959 65.44145093054976,42.462818182790215 65.76176777959336,42.6336190912225 65.95489999745041,42.6336190912225 66.18100600855541,42.539954146344826" stroke="#4dd2ff" stroke-dasharray="none" stroke-linecap="round" stroke-linejoin="round" stroke-width="0.5"><title>2026-05-23 13.0km</title><desc>1779516917000</desc></polyline><polyline fill="none" opacity="1" points="81.06122448982205,48.46839571840246 73.80892424762715,49.773514780492405 72.74548599100672,49.54919807128317 72.04814942926168,49.263703699805774 71.47284676576965,48.52957337204134 70.77551020402461,44.512199505232275" stroke="#4dd2ff" stroke-dasharray="none" stroke-linecap="round" stroke-linejoin="round" stroke-width="0.5"><title>2026-05-17 11.1km</title><desc>1779003218000</desc></polyline><polyline fill="none" opacity="1" points="128.93176496442175,52.28571428571013 127.80733982654056,51.14724727901921 125.34031750896247,47.65328764269361 124.09841511782724,46.41664570190187 119.28184773592511,42.90296723420033 119.70140935457312,42.37296526033606 121.56426294130506,42.0 124.16554497682955,45.042589426084305 127.94159954448696,47.75143347514677 127.94159954448696,48.104758041750756 126.34726539370604,49.027324568945915 124.09841511782724,46.41664570190187 120.22166576166637,43.68815255831578 119.29863020061748,42.922596907796105 119.29863020061748,42.628151585071464 121.58104540599743,42.03925953642465 124.28302222996717,45.19962494447827 127.67308010853594,47.41773743281374 127.97516447398812,48.1243871646293 126.68291468860116,48.988066512392834 126.22978814051021,48.909550374242826 124.08163265301846,46.45590430300217 119.28184773592511,42.90296723420033 119.48323731281562,42.490743607719196 121.64817526499974,42.07851906459837 124.23267483577365,45.14073664060561 123.62850610492751,45.98480054119136 120.45662026805803,43.88444836965937 119.23150034173159,42.90296723420033 119.29863020061748,42.588892173356726 121.597827870748,42.05888930153742" stroke="#4dd2ff" stroke-dasharray="none" stroke-linecap="round" stroke-linejoin="round" stroke-width="0.5"><title>2026-05-10 15.1km</title><desc>1778395698000</desc></polyline><polyline fill="none" opacity="1" points="131.46079484419897,47.072497675952036 141.2653061223682,47.28357609937666 130.97959183668718,47.00213818636257" stroke="#4dd2ff" stroke-dasharray="none" stroke-linecap="round" stroke-linejoin="round" stroke-width="0.5"><title>2026-05-09 10.3km</title><desc>1778316787000</desc></polyline><polyline fill="none" opacity="1" points="185.42421915312298,52.28571428571013 184.9584671619814,48.41348877293058 183.76821207324974,47.29416382312775 183.2248347501736,45.055500787711935 183.1472094183555,42.0" stroke="#4dd2ff" stroke-dasharray="none" stroke-linecap="round" stroke-linejoin="round" stroke-width="0.5"><title>2026-05-02 12.6km</title><desc>1777678663000</desc></polyline><polyline fill="none" opacity="1" points="10.571428571420256,59.047604151724954 10.963552576489747,59.23572155292641 13.416841223253869,58.27161650585913 13.607875994988717,58.036467664649535 16.99622957687825,57.90713558993593 16.96606619184604,58.25985907562426 18.263091746950522,58.37743332210084 19.218265605333727,58.9888173985164 20.857142857159488,59.16517756479152" stroke="#4dd2ff" stroke-dasharray="none" stroke-linecap="round" stroke-linejoin="round" stroke-width="0.5"><title>2026-04-26 11.2km</title><desc>1777162036000</desc></polyline><polyline fill="none" opacity="1" points="107.07054692650854,59.62456862247382 107.79953694474534,59.311200165133414 107.84332786456798,59.32626603534118 107.91545408546517,59.467884825280635 108.01333967095707,59.45281903008072 108.19365522316366,59.51609531633039 109.007651144595,59.45583218975662 109.1184164123988,59.48295061251338 109.69542617947445,59.467884825280635 109.83967862126883,59.546226831746026 110.02514604639146,59.558279428978494 110.081816648526,59.54923998153572 110.11272788603674,59.464871666879844 110.26728407364863,59.46185850815891 110.99885002836527,59.50705585549076 111.05552063048526,59.63662118650791 111.73814379244868,59.66675257427414 112.52638034928532,59.64867374545247 113.18066821017419,59.558279428978494 114.13634063692007,59.323252861933724 114.72623008630762,59.07617155678963 114.77002100614482,59.04603954350205 114.77259694259556,58.96769615957055 114.9812477958767,58.9014054354011 115.3393029638537,58.71157205254531 115.35733451906708,58.58501576016897 115.43976448579633,58.509684366439615 116.204817614489,57.946199214073204 116.60923963875393,57.545424906271364 116.92350388689374,57.319421866663106 116.99563010777638,57.38270289877255 117.1836734693934,57.40982329800681 116.99047823486035,57.55446499050595 117.00593385362299,57.63883897143933 115.69220625890011,58.5639229900371 115.58144099112542,58.5639229900371 115.56083349944674,58.49461806375439 115.45264416809368,58.51269762602351 115.35218264615105,58.594055514011416 115.34187890031899,58.71157205254531 114.98897560525802,58.90441865349203 114.88851408331539,58.80196905951743 114.39393428295443,59.15451464199032 114.05391067019082,59.23587069440873 113.77313359602704,59.34735824022391 113.71388705744175,59.41967425253097 113.36355969886063,59.51910846930696 112.58047501494002,59.645660606192905 111.69435287262604,59.672778847998416 111.05294469401997,59.63360804598051 111.00915377419733,59.603476623116876 110.99369815543469,59.50102954664908 110.14621506002732,59.446792709755755 110.05348134745145,59.54923998153572 109.83195081187296,59.543213681645284 109.723761480549,59.467884825280635 109.14675171344425,59.49500323655411 108.99219552583236,59.45583218975662 108.15244023982086,59.525134774305116 107.92575783131178,59.603476623116876 107.44405771323363,59.59142404504382 107.17358438491647,59.66072629927476 106.89795918366872,59.823435276195596" stroke="#4dd2ff" stroke-dasharray="none" stroke-linecap="round" stroke-linejoin="round" stroke-width="0.5"><title>2026-04-12 19.4km</title><desc>1775975191000</desc></polyline><polyline fill="none" opacity="1" points="133.69188305235002,61.71548452602292 134.47536217910238,63.46443667562562 134.9027144300053,63.71428571428987 136.82579955924302,63.277049688549596 138.17908168723807,63.42279513839458 138.99817350157537,62.15272402022674 138.410564156482,60.67443420240306 138.60643393814098,59.258596926621976 138.26811340625864,57.44714320945786 137.3421835291665,56.17703353482648 137.11070105992258,54.17815580914612 136.55870440253057,53.42857142856519 135.6505808691727,53.49103690267657 133.15769273869228,54.657055446645245 133.65627036476508,56.59346383936645 134.43974949151743,57.80110674051684 134.17265433468856,58.23835492947546 134.31510508502834,59.904053418300464 133.74530208366923,61.75712642450526 134.74245733581483,63.65182348433882 136.70115515275393,63.21458731990424 138.214694374823,63.277049688549596 139.08720522047952,62.00697763009521 138.46398318791762,60.73689737706445 138.49959587538615,58.57149575486255 138.19688803108875,57.21810764435213" stroke="#4dd2ff" stroke-dasharray="none" stroke-linecap="round" stroke-linejoin="round" stroke-width="0.5"><title>2026-04-09 10.0km</title><desc>1775707979000</desc></polyline><polyline fill="none" opacity="1" points="171.6359719351458,55.58201516868576 171.83650179047254,55.66054128911128 172.34516288686427,55.58762418084734 172.42341844012844,55.424962604654866 172.23267052898882,55.26230056623899 172.19354275235673,54.98745676139515 172.38429066349636,55.27912769510658 172.60927537921816,55.37448133185535 172.88316981573007,55.32960905199798 172.82447815078194,55.58201516868576 173.32824827506556,55.211819150004885 173.3820489679929,55.514706979724 173.6559434044757,55.93538186234946 173.9787475618068,56.18778530808413 174.12058575215633,56.20461216489275 174.5167544906726,56.008298527638544 176.15033916564425,55.9017279855143 176.22859471893753,56.092433026053186 176.37532388133695,56.0587792415281 176.8008384523564,56.76550456185578 177.1187516376085,56.82159349929134 177.07962386097643,57.545135865715565 177.1970071909309,57.993839716236835 177.3877551020414,58.18453778781986 177.34862732540932,58.397670174977975 177.0258231680782,58.56032330510425 177.00625927976216,58.89123686759558 176.84974817320472,58.7622368927332 176.70301901074708,58.8968455555696 176.4340155463433,59.384799305466004 176.350869020971,59.73253392288461 176.26772249559872,59.665230613369204 176.29217735599377,58.94732372252838 176.2139218027005,58.70614985649445 176.36554193717893,58.37523522422998 176.29706832807278,58.06114499050091 176.18457597019733,57.954578269702324 175.78351625957293,57.93775192722751 175.93513639410958,57.85922893033057 175.73460653878283,57.769488230562274 175.55364057180122,57.80874980401495 175.57320446011727,58.128450185631664 174.87868642466492,58.392061438120436 174.79553989929263,58.56032330510425 174.18905936129158,58.633236627225415 174.0667850592581,58.773454293394025 173.6119246557646,58.90245424297973 173.59236076744855,58.67810631775501 173.98363853391493,58.15088523311351 174.13036769631435,57.629268105560186 173.95918367349077,57.197387962718494 173.85158228772343,57.11325508821392 173.90538298059255,57.03473096045127 173.62659757200163,57.04033983028421 173.48965035376023,56.95059784689147 173.53366910247132,56.85524683539188 173.82223645522026,56.76550456185578 173.8369093714864,56.48505905030834 173.6608343765547,56.69819776438453 173.32824827506556,56.54114826252044 173.6559434044757,56.56358393202754 173.64616146034678,56.1765674007911 173.77821770650917,56.08682406333173 173.6119246557646,56.092433026053186 173.49943229791825,56.31679108391836 173.15706425227108,56.238265863688866 173.03968092231662,56.52993042446906 172.91251564820413,57.27030302062485 172.12506914322148,57.94336070859208 171.79248304176144,58.99780184500196 171.48924277274637,59.27823504832486 171.31316777781467,60.293391759063525 171.1908934758103,60.293391759063525 170.77516084894887,60.57942714022283 170.41811988706468,60.64672937519936 170.35942822208744,61.13466821304246 170.23715392005397,61.40387406793889 169.53774491255172,61.35339806655975 169.37145186180715,61.420699391852395 169.28830533640576,61.263662843117345 169.0877754811081,61.23562055695584 169.04864770444692,61.471175333921565 168.6818247984047,61.555301805161434 168.60356924511143,61.751596424091986 168.04110745585058,62.15540038146355 167.53244635942974,61.89180645420129 167.10204081633128,61.13466821304246" stroke="#4dd2ff" stroke-dasharray="none" stroke-linecap="round" stroke-linejoin="round" stroke-width="0.5"><title>2026-03-22 12.8km</title><desc>1774137608000</desc></polyline><polyline fill="none" opacity="1" points="145.3829242830543,70.47217132238438 146.20825742534362,70.40579877202435 146.9407405891252,70.42390039200109 147.03616973369208,70.49027290018239 147.19349886395503,70.51139139308725 147.28119051031535,70.49630675690423 147.34051132992317,70.39976489613218 148.2174277935992,70.46613746056573 148.2380611221597,70.57776369740714 148.32059443637263,70.60189904245635 149.42189834812598,70.61396670730392 150.32460647249536,70.53552679436689 151.2324729289976,70.31227355217561 151.94690193029237,70.05281488302535 151.99590608561994,69.98342437326573 151.94432276420412,69.82352385933518 152.10938939267362,69.75714979746044 152.20739770332875,69.84464284659407 152.5659017870057,69.65155438022703 152.56074345487286,69.56104371100082 152.62780177268723,69.48863496853119 153.3061224489793,68.99383696803307 152.66391009766085,69.45544756671734 152.57363928521227,69.54595857150525 152.563322620932,69.65758841461502 152.34151433894294,69.77826883392663 152.1867643747537,69.85067684006935 152.10423106054077,69.7480987770341 151.94690193029237,69.82654085847389 151.91079360531876,69.92610165074257 151.48265203775372,70.14634095479596 151.2221562647319,70.20064627489592 150.99518965059542,70.29417186125647 150.95134382741526,70.35752772915657 150.4535647759767,70.49328982870975 149.6437066301005,70.60189904245635 149.0169692751806,70.60491595914573 148.27674861319247,70.57474677783648 148.2096902953781,70.4420020004818 147.47978629768477,70.39674795771498 147.32245716742182,70.39674795771498 147.2708738460351,70.48725597136036 147.04390723189863,70.49328982870975 146.94589892125805,70.41484958345063 145.96323664872034,70.41484958345063 145.41129510982137,70.47518825282168 145.14306183857843,70.5445775645876 144.64012445500703,70.5445775645876 144.29193703559577,70.65016967118572 144.10365791252116,70.77386278396625 143.98759543937922,70.72860926842623 143.68583300923638,70.76481208661062 143.33764558982512,70.96694364249561 143.18547479172412,71.00616303196693 143.02040816326917,70.9277241990294" stroke="#ff9000" stroke-dasharray="none" stroke-linecap="round" stroke-linejoin="round" stroke-width="0.5"><title>2026-02-18 20.3km</title><desc>1771394553000</desc></polyline><polyline fill="none" opacity="1" points="22.61224489795859,83.54702021977937 22.833385058271233,83.55017478479385 22.925077319858246,83.44922853898242 23.825818948447704,83.49339256361964 23.866271416802192,83.62272968763682 23.955266847158782,83.6448115795065 25.360315914527746,83.65112068845156 26.069582526237355,83.56910216778851 27.048532260305365,83.33250901576503 27.711952741243294,83.08960475768617 27.790160846721847,83.00443006819296 27.73892105347477,82.84038923912158 27.906124589324463,82.76783243037062 28.008604175804066,82.8687809857347 28.35919223484234,82.68265682062156 28.386160547073814,82.55647028432031 28.44818766521348,82.48706746145035 28.68820564408088,82.43028321334714 29.332748306449503,82.02017153998167 29.59973459756293,81.78041133024271 29.777725458305213,81.78041133024271 30.117526192436344,81.55642307442577 30.284729728286038,81.313504329215 30.25506458482414,81.23147937030444 30.406087133320398,81.24725341841804 30.71352589278831,80.95069991585115 30.802521323159453,81.02010631947451 30.880729428652558,80.96647411270533 30.931969221885083,80.92230634047883 30.934666053086403,80.84974485815474 31.252892137446906,80.60051059388388 31.35267489271064,80.58789108198107 32.709180998033844,79.39216806609511 32.7819954410661,79.43633810820029 32.89795918366872,79.29120772380884 32.8413257279899,79.20602216869338 32.72536198538728,79.35746298705271 32.630972892569844,79.35115296833465 32.31544363943976,79.65087738055445 32.22105454662233,79.60670765674331 32.31544363943976,79.64772240245838 32.41252956347307,79.58146778513765 32.45298203182756,79.63825746615112 31.9837333989708,80.07679635495151 31.471335466543678,80.4932445721879 30.94005971554725,80.84659000708962 30.931969221885083,80.92546118352948 30.816005479282467,81.02641598451919 30.708132230342017,80.96647411270533 30.52474770716799,81.16207345936891 30.117526192436344,81.45862485686484 30.128313517328934,81.55326829823025 28.725961281219497,82.52492356670518 28.62078486349492,82.50599552009407 28.604603876156034,82.43974726221131 27.949273888894822,82.5627796238241 26.8786318932398,82.97288382508668 26.69255053883535,82.85300779651516 26.587374121125322,82.46183003121223" stroke="#ff7e00" stroke-dasharray="none" stroke-linecap="round" stroke-linejoin="round" stroke-width="0.5"><title>2026-02-08 23.1km</title><desc>1770528486000</desc></polyline><polyline fill="none" opacity="1" points="27.522724261179974,99.69417109875121 27.434745842558186,99.67627900806747 27.33816083950296,99.41460372117581 27.575320054926124,99.27593555834665 27.887069668748154,99.14285714285779 27.9712229387369,99.35421619647968 28.02764388111609,99.65055907464102 28.395814437313675,100.42995709729621 28.439803646630025,100.6658897883517 28.497180876165658,100.8034215820071 28.575596423201205,101.10084194500087 28.640623950006557,101.45080331300869 28.87108915531644,102.00535096559724 28.88065202690632,102.0623693377238 28.86248257089028,102.0925554102887 28.813711925784446,102.11156141177798 28.67122513909635,102.25131037392111 28.54308265979489,102.28373186925637 28.548820382751728,102.33515886492023 28.575596423201205,102.35975429619612 28.80701791566753,102.370934018777 28.92942267201579,102.3318049380432 29.012619654844457,102.27590600017083 29.184751343462267,102.10485341515232 29.288986643783574,101.95615839754555 29.357839319229242,101.78733670806287 29.383659072525916,101.67553278136347 29.353057883436122,101.88684120874495 29.317675258556847,102.01541305360297 29.134068124032638,102.28261388831379 29.227784265611263,102.44136599933245 29.263166890494176,102.46037137405438 29.30619981264681,102.44919174599909 29.520408136253536,102.13951135192474 29.70497155793055,101.92149985993365 29.8751906722282,101.61404011785635 29.88188468234148,101.57602629247776 29.864671513478243,101.53577621078784 29.67723923032463,101.39489971841522 29.661938635774277,101.35688510528234 29.87614695938828,101.20817957043255 29.962212803693546,101.10084194500087 29.985163695509982,101.1075505785102 30.095136718788126,101.25290325945389 29.973688249599945,101.49776210407799 29.860846364841564,101.68224105029822 29.847458344618644,101.74708743061638 29.804425422462373,101.81752356562356 29.768086510426656,101.84323822817896 29.727922449746984,101.94945030235431 29.526145859206736,102.25354634230553 29.44486145069459,102.36087226898508 29.36644590366268,102.41229888959151 29.324369268666487,102.48273059471285 29.16753817459903,102.60346956956892 29.00018792177798,102.68172557643993 28.87778316542972,102.702966392696 28.832837668960565,102.51179751090694 28.649230534439994,102.55316183086234 28.596634740693844,102.4178887245871 28.019037296682654,102.46484322196739 27.73119486183714,102.5419823008815 27.616440402762237,102.60570546351391 27.457696734374622,102.6638385401966 27.575320054926124,102.97685730791909 27.571494906293083,103.00145124721712 27.47586619039066,102.99809753158661 27.11056449566604,102.93214090816491 26.96903399614166,102.96344240783947 26.9546896887623,102.98356475157652 26.935563945578906,103.23732657946857 26.886793300473073,103.33905318023335 26.557830517795082,103.60733842499121 26.279550954535807,103.74259632316625 26.278594667379366,103.7627171850736 26.362747937364475,103.87897030473414 26.366573085997516,103.92927173947737 26.287201251805527,104.0891169337574 26.12654500910139,104.53734127892858 26.107419265917997,104.70835454201733 26.160971346824226,105.06825578122061 26.283376103168848,105.47732121244371 26.26520664714917,105.60920232598073 26.21547971488326,105.76790453870672 26.2078294176099,105.89978203234568 26.241299468176294,106.01154133420823 26.415343731106987,106.33228397925359 26.425862889856944,106.4093948737127 26.415343731106987,106.53008905940806 26.373267096114432,106.62284384129725 26.232692883746495,106.79494092291588 25.87504148629523,107.32797712368483 25.58146132849288,107.6598540363093 25.50017691998073,107.82746468645291 25.41506736283918,108.21966324380719 25.41506736283918,108.30681650684619 25.462881720781297,108.57832784546008 25.601543358829076,109.1146260928117 25.641707419508748,109.21182724427035 25.76984989880657,109.42857142857156 25.622581676325353,109.1973029909459" stroke="red" stroke-dasharray="none" stroke-linecap="round" stroke-linejoin="round" stroke-width="0.5"><title>2025-11-30 42.8km</title><desc>1764458479000</desc></polyline><polyline fill="none" opacity="1" points="61.90188033715822,107.78882994159358 64.64232676848769,109.42857142857974 66.87292270106263,107.34162705519702 65.78949039103463,100.5590151293436 62.98531264718622,99.14285714284051 60.882179339416325,101.52796368970303 61.96561164944433,108.01243127818452 64.83352070557885,109.42857142857974 66.87292270106263,107.04349164006999 65.7257590785157,100.40994600171689 62.85785002238117,99.21739184466423 60.882179339416325,101.45342923240969 62.029342961730435,108.0869650413515 64.70605808100663,109.42857142857974 66.87292270106263,107.04349164006999 65.78949039103463,100.5590151293436 63.04904395947233,99.14285714284051 60.882179339416325,101.52796368970303 61.90188033715822,107.86336372827645 64.70605808100663,109.42857142857974 66.87292270106263,107.04349164006999 65.78949039103463,100.5590151293436 62.98531264718622,99.14285714284051 60.882179339416325,101.37889476737473 61.90188033715822,107.86336372827645 64.83352070557885,109.42857142857974 66.87292270106263,107.11802550579887" stroke="#4dd2ff" stroke-dasharray="none" stroke-linecap="round" stroke-linejoin="round" stroke-width="0.5"><title>2025-11-26 8.7km</title><desc>1764155703000</desc></polyline><polyline fill="none" opacity="1" points="124.75284263120557,105.29420560523431 124.78177409578348,105.38421461263806 124.73085471813101,105.43062523578101 124.15685446096904,105.48406754285952 123.34677345286764,105.44890815785402 123.32362828120677,105.42781247599669 123.31321295395901,105.31530152864434 123.15929756242258,105.31108234701333 122.74268447253417,105.22810479824966 122.2288616616861,104.95947851681194 122.07263175297703,104.83852434987966 121.83423648487951,104.58254744316127 121.50441778872482,104.10292723976636 121.33198625985824,103.8975706254505 120.37030437738576,103.25756620621087 120.07173166297434,103.13096776544717 120.0173405095702,103.14362767135844 119.57063869653211,103.08595465537019 119.08921912600636,103.09439462674345 118.93877551020705,103.11549452845247 119.02556990394078,103.29976538112442 119.05797314426309,103.3250848127891 119.39473539191385,103.18160730664204 119.39704990907921,103.11549452845247 119.41325152924401,103.10002127092866 119.5660096622014,103.08876797983703 120.14232443652872,103.15628756352726 120.40039310054271,103.27444589449806 120.6619335403011,103.44183481446817 120.90032880839863,103.62750710899581 121.21973217731284,103.80614357252216 121.33314351843728,103.90038375417771 121.48011535848491,104.06495060408542 121.88052682820853,104.65990369393148 122.1119785448027,104.88634358900435 122.402450449139,105.0818378517315 122.76582964419504,105.23794962302509 123.14309594225779,105.3068631638589 123.30626940245565,105.31670792217938 123.3213137640414,105.33499102274345 123.31899924687605,105.43343799488775 123.3363581256126,105.45031453528554 124.17652785687824,105.48547391605734 124.74358456254413,105.42499971553389 124.78408861294884,105.38140184166969 124.75978618270892,105.29420560523431 124.80491926744435,105.27732883905082 124.98313708922797,105.2492008411673 125.32568562979577,105.24357523345316 125.94944800603116,105.1338753409027 126.52692003895208,104.97073000348519 126.77804515146272,104.86805978542088 127.16804129393131,104.74569820855686 127.86818273665267,104.55723074060188 127.98622311211511,104.49112575825166 128.6423887286801,104.4011098608571 129.22448979592446,104.25342602470027" stroke="red" stroke-dasharray="none" stroke-linecap="round" stroke-linejoin="round" stroke-width="0.5"><title>2025-11-16 42.7km</title><desc>1763252375000</desc></polyline><polyline fill="none" opacity="1" points="153.30612244899385,108.3734557107382 150.70100704027573,108.07585420923715 146.2543445324991,106.25522161011759 143.334818643576,105.43242915422888 143.02040816325461,105.06479716046306 144.06844309769804,102.40381743296166 145.47580429544905,100.19797286069661" stroke="#ff5200" stroke-dasharray="none" stroke-linecap="round" stroke-linejoin="round" stroke-width="0.5"><title>2025-11-09 30.0km</title><desc>1762665792000</desc></polyline><polyline fill="none" opacity="1" points="62.85444986812945,110.85062605340681 62.868091216820176,111.1564102113407 62.93175084407267,111.36115056709605 62.91128882103658,111.52866416252073 63.027240284965956,111.7732851842211 62.9567599833681,112.27049665924824 62.98404268074955,112.44598071288965 63.047702308002044,112.53638111067812 63.009051820030436,112.85543873834285 63.20457781801815,113.72219150722958 63.14319174889533,114.05984476982303 63.20230425990303,114.34432076882331 63.42511295528675,114.80691972279965 63.37964179296978,114.90528736801207 63.43875430399203,115.09404582514253 63.802523602571455,115.95008751305068 63.79115581199585,116.05642605951107 63.900286601579865,116.36214687456959 63.96621978694748,116.87255942722368 64.02533229796973,116.97623571055556 64.25950878392905,117.14637022327042 64.28224436509481,117.30321195711076 64.22767897028825,117.49992732466308 64.45958189814701,117.6408171148214 64.45276122380164,117.71524913801841 64.34590399233275,117.80563058420557 64.35499822480779,117.98107599333343 64.42320496829052,118.20968484082186 64.43457275888068,118.39310206427945 64.48459103742789,118.49411387680993 64.54142999033502,118.9885342623802 64.65283433803415,119.09220181986348 64.6801170354156,119.37927897909685 64.75741801137337,119.69559168322121 64.8142569642805,119.77799181837872 64.74150310455298,119.9853199962563 64.80743628992059,120.12353783180879 64.78924782499962,120.27770298287578 64.88246370774868,120.45844712877624 64.92566131196509,120.85714285714312 64.88246370774868,120.45578913603822 64.82789831297123,120.39199722614285 64.78924782499962,120.25112285184878 64.80743628992059,120.09961556848793 64.74605022078322,119.97468782359283 64.80970984805026,119.77267568878415 64.68921126787609,119.40851813546942 64.65283433803415,119.10283436569443 64.54142999033502,118.9885342623802 64.48459103742789,118.51006307327225 64.35954534103803,118.0182915287769 64.33908331798739,117.8189219459473 64.45503478191677,117.65942514127528 64.22313185407256,117.5052439348492 64.27769724885002,117.31118693437747 64.26405590015929,117.15700359207403 64.0662563440419,117.01611109028818 63.97304046129284,116.89648476133152 63.89346592721995,116.36214687456959 63.78660869576561,116.04845068413306 63.79342937011097,115.95274598219294 63.44330142022227,115.13924130168925 63.3819153510849,114.90262878806607 63.352359095573775,114.92389741974148 63.331897072537686,114.85743288599588 63.3068879332568,114.88667730250381 63.350085537458654,114.83084702328779 63.34326486311329,114.63942798150856 63.188662911212305,114.30975843613851 63.129550400190055,113.99337795078827 63.19775714367279,113.75941334922754 62.99768402945483,112.75706306850407 63.049975866117165,112.54169877099775 62.95448642525298,112.35292114011463 63.02951384308108,111.79455646485076 62.90901526292146,111.53929990864162 62.927203727842425,111.35849161213446 62.868091216820176,111.18565893575033 62.845355635668966,110.85328506212863 62.904468146691215,110.7176752585292 62.82944072884857,110.57142857142935" stroke="#ff8100" stroke-dasharray="none" stroke-linecap="round" stroke-linejoin="round" stroke-width="0.5"><title>2025-10-27 22.6km</title><desc>1761522564000</desc></polyline><polyline fill="none" opacity="1" points="97.27370216953568,112.8169145786087 98.07919925544411,119.4084600431379 100.74353577173315,120.85714285715949 102.72629783023149,118.97385460173246 101.98276205826551,112.09256505756639 99.19450291362591,110.57142857142026 97.39762479788624,112.8169145786087 97.89331531245261,119.26359159324784 100.68157445709221,120.85714285715949 102.72629783023149,118.82898606004892 102.04472337267362,112.16500004404224 99.25646422780119,110.57142857142026" stroke="#4dd2ff" stroke-dasharray="none" stroke-linecap="round" stroke-linejoin="round" stroke-width="0.5"><title>2025-10-23 8.3km</title><desc>1761191597000</desc></polyline><polyline fill="none" opacity="1" points="135.62635954206053,110.85757807192203 136.19094668436446,111.5608192820182 136.59778153692605,111.40562214629244 136.73477694645408,111.51232023334887 136.8053503392439,111.72571566507031 136.514754015996,111.9245605173819 136.27812558133155,112.2058517674268 136.61438704110333,112.83147613998881 137.03367602180515,114.58705879365516 137.0668870301597,115.53756730700479 137.01291914157628,116.18739346004077 136.6392952973838,117.75372773943309 136.66420355366427,117.98164190676835 136.53135952017328,118.32593563622504 136.2698228292429,118.34533238942458 135.94186412157433,119.06300651065976 136.11207053950056,119.22302691730147 135.95431824971456,119.52366981312662 135.17801092902664,120.8571428571413 136.10376778738282,119.23272510588504 135.92110724136,119.05815739873287 136.25321732505108,118.35987994895186 136.29888246157498,118.31623725656755 136.45663475133188,118.36472913443868 136.54381364831352,118.29199129847984 136.89668061226257,116.79841565101015 137.0253732697165,115.92552432314551 137.02122189366492,114.58220921008251 136.60193291294854,112.8654245060061 136.25321732505108,112.19130226220295 136.53551089622488,111.8809117209712 136.784593459015,111.72086577988011 136.7181714422477,111.50262041747555 136.56872190459399,111.40077222735636 136.18264393229038,111.5511194763858 135.62635954206053,110.8672780238121 135.54333202113048,110.5714285714239" stroke="#4dd2ff" stroke-dasharray="none" stroke-linecap="round" stroke-linejoin="round" stroke-width="0.5"><title>2025-10-19 14.0km</title><desc>1760852519000</desc></polyline><polyline fill="none" opacity="1" points="88.40084093771293,123.1117034078452 88.53735318301187,123.2148980958882 88.61363943773904,123.42597739414123 88.35266014523222,123.59953073369252 88.09971098481037,123.89034832564721 88.42894639998849,124.47666833691255 88.84651326798485,126.30593712091286 88.87863379631017,127.06107487107147 88.73007635286194,128.31335581662643 88.36872040940216,129.79072061772968 88.2723588244844,129.8657600609513 88.13986164520611,129.80479052296505 88.08766578670475,129.8563801374621 87.77850570171722,130.52703968497735 87.93910834327107,130.7052552081077 87.03973355064227,132.28571428571377 87.73032490928017,131.11327227175934 87.88289741871995,130.74277417468693 88.10372605086013,130.55986891389693 87.96721380554663,130.7005653350716 87.79456596588716,130.60207788695334 87.77449063569657,130.52703968497735 88.11577124896576,129.80479052296505 88.27637389051961,129.8516901749863 88.36872040940216,129.78603064833442 88.70197089061548,128.3883977505684 88.86257353215478,127.13142866735143 88.83446806986467,126.26841441406577 88.42091626790352,124.51419255458313 88.09569591877516,123.88565773441587 88.34463001317636,123.61829321633559 88.62166956983856,123.435358673054 88.54136824906163,123.22897008025757 88.39281080564251,123.1117034078452 88.01940966403345,123.27118600666654 87.48139081489353,122.60510783147038 87.40911962618702,122.34711712677381 87.28866764501436,122.19232198589452 87.30071284314909,122.0" stroke="#4dd2ff" stroke-dasharray="none" stroke-linecap="round" stroke-linejoin="round" stroke-width="0.5"><title>2025-10-07 14.0km</title><desc>1759810688000</desc></polyline><polyline fill="none" opacity="1" points="100.91720759292366,155.14285714285506 100.71754335495643,154.3988099150738 100.84233350364957,153.66934795476845 100.5054001021781,152.8961140675383 100.84233350364957,151.8164972422819 100.15598768583732,149.80313519692572 99.99376049247803,148.06695158733055 99.35733073414303,147.38122599337657 99.08279240707634,144.85714285713038" stroke="#4dd2ff" stroke-dasharray="none" stroke-linecap="round" stroke-linejoin="round" stroke-width="0.5"><title>2025-07-20 13.2km</title><desc>1752965179000</desc></polyline><polyline fill="none" opacity="1" points="14.718904219480464,156.28571428571377 15.515209415316349,157.26253059162264 15.970240955823101,157.02331167146986 16.243259880080586,157.1960809826487 16.328578293934697,157.5150384668159 15.99299253281788,157.69445134240596 15.60052782917046,158.1263691335953 16.072623052430572,159.03670924732432 16.60728511249181,161.20286717013005 16.70966720909928,162.65800508539178 16.504903015884338,164.4054550941364 16.106750417966396,165.72763793453487 16.129501994961174,166.0797724077638 15.88492254196899,166.57142857142753 16.16931725476752,165.99339998314827 16.112438312207814,165.75421418979022" stroke="#4dd2ff" stroke-dasharray="none" stroke-linecap="round" stroke-linejoin="round" stroke-width="0.5"><title>2025-06-29 12.0km</title><desc>1751152499000</desc></polyline><polyline fill="none" opacity="1" points="69.02040816325461,157.40945014451063 68.8245564121462,157.94920134952554 68.4293555572367,158.71792491030646 68.10060440358939,159.19223608116954 67.89775794709567,159.7156071748759 67.35916563155479,160.65193310477844 66.96746212933795,161.13848653883542 66.9464780131384,161.55961608301368 66.8345627268136,161.6332110667463 66.64570568110503,161.60867942107143 66.55477451093611,161.65774269688336 66.19454718302586,162.09113226418413 65.79584897542372,162.76573843957885 64.9774684440199,163.37900657336286 64.80959551449632,163.6283995007434 64.45986024466401,163.51392425826634 63.82334205356892,163.8409954810486 63.55054854310583,163.93093958260215 63.48409884181456,163.86143734067446 63.32671797039802,163.9145861251418 63.23228944756556,163.95955811651947 63.21130533136602,164.0617669934254 62.6412368415331,164.31933216577454 62.42440097425424,164.31115551997573 61.92427953839069,164.47877641324158 61.672470144112594,164.49104132814318 61.200327529833885,164.6423082922338 61.004475778740016,164.82628082999145 60.59528551304538,164.86716349737617 60.221068774320884,165.1574291936995 59.972756732735434,165.2228408809715 59.8153758613189,165.17378212587937 59.724444691149984,165.3250464209741 59.58105323051859,165.2514584593846 59.427169711794704,165.32095820456016 59.23831266610068,165.25963490646973 59.11590532165428,165.35775213676243 58.983005919115385,165.31686998770965 58.82562504769885,165.4476927126343 58.73469387754449,165.34548749659007" stroke="#4dd2ff" stroke-dasharray="none" stroke-linecap="round" stroke-linejoin="round" stroke-width="0.5"><title>2025-06-22 15.1km</title><desc>1750548259000</desc></polyline><polyline fill="none" opacity="1" points="160.60138609306887,178.0 162.63558493182063,175.6978084523871 164.66978377080522,174.54670703588636 164.1294497041963,172.6900839212467 162.95342850056477,171.91029929474462 160.251758167753,173.24707188314642 159.93391459912527,172.98714427719824 155.7383794944035,167.71428571428987" stroke="#4dd2ff" stroke-dasharray="none" stroke-linecap="round" stroke-linejoin="round" stroke-width="0.5"><title>2025-05-11 9.2km</title><desc>1746938990000</desc></polyline><polyline fill="none" opacity="1" points="56.97959183668718,181.21893974835984 48.37317784270272,184.53106027073227 46.693877551238984,187.3524888230022" stroke="#ff8800" stroke-dasharray="none" stroke-linecap="round" stroke-linejoin="round" stroke-width="0.5"><title>2025-04-20 21.5km</title><desc>1745103989000</desc></polyline><polyline fill="none" opacity="1" points="86.9948757776001,179.1428571428587 87.04068612892297,179.79113313189737 87.15521200728836,180.13401955409063 87.10940165596548,180.4876187442933 87.34303444781108,181.00194042981093 87.21018442889908,182.04128288612628 87.26973788568284,182.33058059812902 87.38884479916305,182.49665816731795 87.31096720189089,183.12881941460728 87.70035518833902,184.91811439184312 87.56750516942702,185.5288173646295 87.69119311805116,186.10737128117762 88.05767592883785,186.85198187073183 87.98896040185355,187.23231830674194 88.07600006938446,187.23767513754865 88.11722938562161,187.5269431598099 88.92349156932323,189.42857142857247 88.29130872071255,188.02512310244856 88.11722938562161,187.40909342428859 88.05767592883785,187.45194790529422 88.01186557751498,187.2430319677951 87.9477310856164,187.22160464342596 88.04393282343517,187.2430319677951 88.20885008829646,187.01804460963467 87.9156638396671,187.12518157152954 87.79197589101386,187.0823268139684 88.01186557751498,186.8680524821757 87.66828794238972,186.11808518025646 87.56750516942702,185.55560241411877 87.69119311805116,184.89132900512413 87.26515685053892,182.97881576516738 87.36593962347251,182.55023146051826 87.23308960458962,182.29843648954193 87.18269821809372,181.97699428115448 87.33387237755232,180.99122544798956 87.09107751538977,180.48226119922037" stroke="#4dd2ff" stroke-dasharray="none" stroke-linecap="round" stroke-linejoin="round" stroke-width="0.5"><title>2025-04-13 17.0km</title><desc>1744513358000</desc></polyline><polyline fill="none" opacity="1" points="97.49214709259104,179.14285714285506 97.86027228995226,179.55501445921254 98.13636618806049,180.6122830049717 100.19173187366687,183.19270743624656 100.46782577171689,183.282304803055 101.55686281400267,182.61928317023558 102.18574335961603,182.99559306298033 102.43116015795385,183.94532384970807 101.38813876517816,184.57250164879952 100.51384142128518,185.61181976401713 101.8022796123405,187.9771407526132 102.13972770993132,189.4285714285652 101.98634221107932,188.31760091261822 100.51384142128518,185.61181976401713 101.61821701360168,184.3395501649793 102.50785290740896,183.92740445003437 102.20108190953033,183.04935155107523 101.67957121320069,182.65512224349368" stroke="#4dd2ff" stroke-dasharray="none" stroke-linecap="round" stroke-linejoin="round" stroke-width="0.5"><title>2025-04-12 10.0km</title><desc>1744429372000</desc></polyline><polyline fill="none" opacity="1" points="172.3828587088501,205.1355714610545 170.87783234764356,206.92312440872774 172.4079424815718,209.47256528257276 173.46146093436982,212.28571428571013 173.28587452566717,211.1428759365226 170.97816743841395,206.8059081741958 172.63369643571787,204.98905021793325 174.16380656976253,204.19783417051076 173.6119635705836,202.67400432634167 172.63369643571787,202.0 170.32598934858106,202.93774470486096" stroke="#4dd2ff" stroke-dasharray="none" stroke-linecap="round" stroke-linejoin="round" stroke-width="0.5"><title>2025-02-01 10.0km</title><desc>1738384413000</desc></polyline><polyline fill="none" opacity="1" points="181.19593450028333,203.9690140583334 180.2134387351398,204.38904342696333 179.14285714286962,204.5237693290037 179.25804630151833,205.0626705122486 179.56295878032688,205.5223184557035 180.28119706379948,205.39551930493326 181.81931112363236,204.80907043871412 181.16205533593893,204.83284548212396 180.8232636928442,205.19739520186704 180.37605872389395,205.3717444402646 180.55223037832184,205.8472402991756 182.43591191415908,205.5381683344458 183.54714850368327,205.20532017606456 183.36420101637486,204.33356798507157 182.99830604178715,204.33356798507157 182.60530773573555,204.61094478344603 181.99548277808935,204.79322040558327 183.20835686053033,204.30186771410808 183.45906267644023,204.60301974634058 183.65556182948058,205.1656952967096 184.65160926032695,204.75359530810965 185.34274421233567,204.76152032928803 185.6408808582928,204.57924462993833 187.13833992092987,204.19884174071922 187.31451157538686,204.05619015886623 187.15866741957143,203.61238349893392 187.2196499153215,203.4776559564998 188.53416149070836,203.3904791821842 188.8729531338322,203.52520688152435 189.35403726709774,203.50143142280285 189.42857142857974,203.74711079884582 189.21174477698514,204.67434505020356 189.28627893849625,205.71251677913824 188.1885940146749,206.13253636479203 188.27667984191794,206.70312523408938 188.12761151892482,206.82992216998537 187.7549407114857,207.02804195236968 187.28063241107157,207.01219238907652 186.3591191417363,207.26578499911557 186.10163749294588,206.8140725647463 184.6719367589103,207.2499354861866 184.3466967814893,207.14691357013362 183.7707509881293,207.36880675158318 183.78430265383213,207.49560255999677 183.68944099376677,207.40050572381006 183.53359683795134,207.78089234367508 183.3032185206248,207.8997627659919 183.26256352339988,207.78881704436935 183.28289102204144,207.8997627659919 182.99153020890662,207.79674174420506 182.68661773006897,207.49560255999677 181.81253529078094,207.63032287108945 181.63636363635305,207.77296764212952 182.67306606436614,208.57335826069902 183.3032185206248,208.4544889079043 183.63523433086812,208.93788976570067 184.07566346693784,209.14392852687888 184.40090344438795,209.0726074813938 184.6380575945659,208.85071934989537 184.94974590625498,208.93788976570067 185.01750423488556,208.72392583663168 185.55279503107886,208.59713210860355 185.64765669114422,208.98543722245813 186.4268774703669,208.76354883258318 186.71146245062118,209.9522289603774 186.77244494637125,210.8952351035332 186.04743083004723,210.76844505273766" stroke="#4dd2ff" stroke-dasharray="none" stroke-linecap="round" stroke-linejoin="round" stroke-width="0.5"><title>2025-01-25 14.8km</title><desc>1737764447000</desc></polyline><polyline fill="none" opacity="1" points="153.3061224489793,217.66535501625185 152.20688580776914,218.25491476625393 151.5994129270839,218.45304379351728 150.99194004641322,218.51586501295606 150.0869294282602,218.35639559489937 149.9133657480561,218.3950548988796 149.58690073055914,218.70432815285312 149.51664876478026,218.90245523074555 149.5745033248386,219.08608443802586 149.50838382761867,219.197228073288 149.53317863908887,219.35669455587413 149.39267470748746,219.4775021266032 148.89677847837447,219.44367603900173 148.62403555236233,219.3615268648282 148.52898877511325,219.269712907113 148.12400685464672,219.27937754293453 147.9835029230744,219.39052070787875 147.64464049984235,219.41468222969343 147.3925599166978,219.41468222969343 147.30164560803678,219.3373653149065 146.39663498988375,219.37602378865995 145.9131361664913,219.30353912352803 145.4461672174075,219.39052070787875 145.18168922854238,219.30353912352803 144.95027098827995,219.40018531812893 144.26841367325687,219.2600482692469 143.10719000337122,218.87346107791382 143.02040816326917,218.78164613915942" stroke="#4dd2ff" stroke-dasharray="none" stroke-linecap="round" stroke-linejoin="round" stroke-width="0.5"><title>2024-10-28 17.0km</title><desc>1730088256000</desc></polyline><polyline fill="none" opacity="1" points="165.34693877556128,217.40189801532688 164.066780731373,217.6617964442048 162.34212336625205,217.75535971028876 161.56869454786647,217.97367365139507 159.28396803844953,219.21077682220493 158.02158996707294,219.61621060715697 156.57252218091162,219.74095912754274 155.06122448982205,219.48106619805912" stroke="#4dd2ff" stroke-dasharray="none" stroke-linecap="round" stroke-linejoin="round" stroke-width="0.5"><title>2024-10-25 14.0km</title><desc>1729815581000</desc></polyline><polyline fill="none" opacity="1" points="131.00962311931653,238.96046804398793 130.97959183673083,239.14732428951174 131.03965440191678,239.1429788047244 130.98709965737362,239.21685198607884 131.09971696707362,239.17339718899893 131.12224042901653,239.3819798116856 131.20858036645222,239.34287064755335 131.31744376581628,239.38632527216032 131.48261582004488,239.59056141548717 131.77166691493767,239.6687792542325 132.24090570533008,239.47757983991687 132.25592134664475,239.6687792542325 132.33099955310172,239.63401578803678 132.3985699389159,239.70788811987222 132.2859526292159,239.87735945707027 132.37604647698754,239.8947410946639 132.31973782213754,240.13808327788138 132.47364814540197,240.43791370384133 132.7626992402802,240.60738214378216 134.10659913599375,239.77306948301703 134.15164605987957,239.85563240015836 133.83631759272248,240.28148070077805 133.68240726948716,240.39446014935675 133.64486816622957,240.59000079628095 133.573543870094,240.65518081294067 133.58855951137957,241.11143814397656 133.91890361983678,242.02828337402752 133.78376284819387,242.21947136829476 133.91890361983678,242.05435451454468 134.05779830180109,242.1369130212115 134.1966929837654,241.9413794573229 134.2192164456792,242.32375536805557 134.53454491285083,242.40631335395665 134.98876806197222,242.90165791798063 135.23277223296463,242.98855988071227 135.48803813496488,243.37092641613708 135.63068672723603,243.42741209140877 135.82213615372893,243.61859382263356 136.1524802621716,243.55776336461713 136.25008193058602,243.60121370060733 136.57667212869273,243.896674813157 136.91452405779273,243.64031896521192 137.2148368836497,243.71418436733802 137.3875167585211,243.51865802441898 138.04820497542096,243.56645343534183 138.18334574704932,243.50562290306698 138.59627588259173,243.5968686689921 138.96415909429197,243.48389769197456 139.0805303142988,243.60990376250265 139.15185461044894,243.85756978326026 139.542261284063,243.48389769197456 139.65112468342704,243.54038321782718 139.8200506479916,243.27099003844341 139.98146879188425,243.17539850183312 139.95519141961995,242.86255197706487 140.3981528377626,242.8408264388636 140.70597348426236,242.90600302030725 140.80357515267679,242.40631335395665 140.70221957397007,242.32375536805557 140.7622821391269,242.27161340000384 140.75102040814818,242.1542937391241 140.9124385520554,242.17601962657136 141.01004022045527,242.02828337402752 141.24653657081944,241.92834385455717 141.26530612244096,241.80667803694087 141.14893490240502,241.6893570988468 141.11890361983387,241.40691648146822" stroke="#4dd2ff" stroke-dasharray="none" stroke-linecap="round" stroke-linejoin="round" stroke-width="0.5"><title>2024-05-25 14.8km</title><desc>1716598951000</desc></polyline><polyline fill="none" opacity="1" points="37.5825368121732,256.62588884914294 44.15758201992139,253.88499181211228 44.808576594805345,250.61112888524076 41.94420046498999,249.08839686511783 35.49935417203233,251.67703938105842 34.71816068212502,255.02703351335367 37.64763626968488,256.62588884914294 43.96228364738636,254.03726414375706 44.873676052549854,250.76340190978954 41.94420046498999,249.08839686511783 35.564453629544005,251.6009029696579 34.71816068212502,255.02703351335367 37.5825368121732,256.62588884914294 43.96228364738636,254.03726414375706 44.873676052549854,250.76340190978954 41.87910100724548,249.08839686511783 35.564453629544005,251.6009029696579 34.71816068212502,255.02703351335367 37.5825368121732,256.62588884914294 43.96228364738636,254.11340029764688 44.93877551006153,250.9918113864842 41.94420046498999,249.08839686511783 35.564453629544005,251.67703938105842 34.65306122438051,254.95089745649602 37.64763626968488,256.62588884914294 43.96228364738636,254.11340029764688 44.93877551006153,250.9918113864842 42.00929992226884,249.08839686511783 35.564453629544005,251.6009029696579 34.65306122438051,254.87476139125647 37.5825368121732,256.62588884914294 43.96228364738636,254.11340029764688 44.873676052549854,250.76340190978954 41.94420046498999,249.08839686511783 35.62955308705568,251.6009029696579 34.71816068212502,255.02703351335367 37.517437354428694,256.62588884914294 43.96228364738636,254.03726414375706 44.808576594805345,250.68726540153148 41.94420046498999,249.08839686511783 35.564453629544005,251.67703938105842" stroke="#4dd2ff" stroke-dasharray="none" stroke-linecap="round" stroke-linejoin="round" stroke-width="0.5"><title>2024-05-07 10.0km</title><desc>1715083186000</desc></polyline><polyline fill="none" opacity="1" points="65.32946693967097,249.69547107911785 63.865935693029314,250.53679175907746 62.425635101040825,252.2194248707092 64.44670206075534,255.91032350013847 64.86485384555999,258.0 64.67900860786904,256.26312721613795 62.425635101040825,252.19228571426356 63.84270503825974,250.56393109008786 65.39915890386328,249.69547107911785 64.93454580963589,248.22993816743838 64.07501158548985,247.71428571428987 62.355943136964925,248.7184500649455" stroke="#4dd2ff" stroke-dasharray="none" stroke-linecap="round" stroke-linejoin="round" stroke-width="0.5"><title>2024-04-27 10.0km</title><desc>1714177464000</desc></polyline><polyline fill="none" opacity="1" points="77.27724745648447,247.71428571426077 77.70189749076962,249.3679602778575 76.0599173582159,250.22786760618328 74.13483720296063,252.37762561548152 76.48456739250105,256.7101700761996 76.62611740408465,258.0" stroke="#4dd2ff" stroke-dasharray="none" stroke-linecap="round" stroke-linejoin="round" stroke-width="0.5"><title>2024-04-20 9.0km</title><desc>1713573009000</desc></polyline><polyline fill="none" opacity="1" points="90.4203032401856,256.12988169147866 89.98960731574334,249.22478496207623 87.59001573850401,247.71428571426077 85.55959209636785,249.65635556011694 85.99028802034445,256.34566483524395 88.38987959735096,258.0 90.4203032401856,256.12988169147866 89.92807932663709,249.15285650250735 87.65154372784309,247.71428571426077 85.49806410702877,249.65635556011694 85.92876003147103,256.34566483524395 88.32835160847753,258.0 90.4203032401856,256.12988169147866 89.92807932663709,249.22478496207623 87.52848774916492,247.71428571426077 85.49806410702877,249.65635556011694 85.99028802034445,256.48952022677986 88.63599155424163,257.9280724677956 90.4203032401856,256.0579539615428 89.92807932663709,249.15285650250735 87.65154372784309,247.71428571426077 85.49806410702877,249.58442714618286 85.99028802034445,256.4175925348536 88.26682361913845,258.0 90.4203032401856,256.12988169147866 89.92807932663709,249.22478496207623 87.65154372784309,247.71428571426077 85.49806410702877,249.65635556011694 85.99028802034445,256.48952022677986 88.26682361913845,258.0 90.4203032401856,256.2018094137311 89.92807932663709,249.22478496207623 87.59001573850401,247.71428571426077 85.49806410702877,249.65635556011694 85.99028802034445,256.4175925348536 88.38987959735096,258.0 90.4203032401856,256.12988169147866 89.92807932663709,249.15285650250735 87.65154372784309,247.71428571426077 85.49806410702877,249.65635556011694 85.99028802034445,256.5614479109645 88.63599155424163,257.9280724677956 90.4203032401856,256.0579539615428 89.92807932663709,249.15285650250735 87.59001573850401,247.71428571426077 85.49806410702877,249.58442714618286 85.99028802034445,256.4175925348536" stroke="#4dd2ff" stroke-dasharray="none" stroke-linecap="round" stroke-linejoin="round" stroke-width="0.5"><title>2024-04-18 10.1km</title><desc>1713436846000</desc></polyline><polyline fill="none" opacity="1" points="101.497045634198,247.71428571428987 101.85277925035916,249.48054238199256 100.10375563800335,250.45024788717274 98.14722074952442,252.66670686515863 100.60771159408614,257.96536850571283 101.0523786143167,258.0 98.14722074952442,252.63207480861456" stroke="#4dd2ff" stroke-dasharray="none" stroke-linecap="round" stroke-linejoin="round" stroke-width="0.5"><title>2024-04-14 10.0km</title><desc>1713054435000</desc></polyline><polyline fill="none" opacity="1" points="106.89795918366872,253.91851291710918 107.97423584817443,254.1158146680027 108.81198633296299,253.74842471486045 109.09705420630053,253.43546124700515 109.19013759348309,253.59194317137735 110.21405485269497,253.91170939766744 111.19143041834468,253.66678221794427 111.90119124573539,253.74842471486045 113.17527010804042,253.42865767644253 113.57087450363906,253.55112183651363 114.14101025025593,253.55792539411777 114.65296887987643,253.2245502246078 114.9554898882925,253.2857825281826 115.4441776710737,253.1633178626871 115.59543817528174,252.8843696982076 117.00332440671627,252.02030306850793 117.18367346937885,251.71413494069566 117.14294948751922,251.59847104627988" stroke="#4dd2ff" stroke-dasharray="none" stroke-linecap="round" stroke-linejoin="round" stroke-width="0.5"><title>2024-04-07 10.0km</title><desc>1712456610000</desc></polyline><polyline fill="none" opacity="1" points="165.34693877538666,251.72450079012197 164.61224489775486,249.92787714098813 161.9406307975296,249.06862080626888 155.66233766218647,251.88072872685734 155.26159554696642,255.3177349662874 158.53432281967252,256.41132450365694 164.745825602673,253.36489247571444 165.28014842257835,251.1777027513599 163.94434137269855,249.38107777084224 161.5398886820767,249.22484930505743 155.1948051948566,252.58375403261743 155.46196660469286,255.63018928508973 158.33395176241174,256.4894379800535 164.54545454517938,253.67734762147302 165.34693877538666,251.72450079012197 164.6790352500975,249.92787714098813 161.87384044518694,249.1467350598541 155.59554730984382,252.03695663047256 155.3283858995419,255.39584855840076 158.601113172248,256.41132450365694 164.54545454517938,253.67734762147302 164.87940630759113,250.16221960418625 162.20779220736586,249.06862080626888 155.46196660469286,252.27129842381692 155.1948051948566,255.3177349662874 158.2671614100691,256.5675514480099 164.6790352500975,253.5211200651829 164.6790352500975,250.0059913037694 161.9406307975296,249.1467350598541 155.3951762523502,252.27129842381692 155.26159554696642,255.3177349662874 158.2671614100691,256.5675514480099 164.4786641926039,253.75546138733625 164.87940630759113,250.24033374199644 162.20779220736586,249.06862080626888 155.66233766218647,252.03695663047256 155.1948051948566,255.3177349662874 158.2671614100691,256.5675514480099 164.54545454517938,253.67734762147302 164.94619665993378,250.31844787171576 162.14100185479037,249.06862080626888 155.66233766218647,252.03695663047256 155.1948051948566,255.16150775697315 157.93320964742452,256.5675514480099 164.54545454517938,253.67734762147302 164.745825602673,250.084105458227 161.9406307975296,249.1467350598541 155.59554730984382,252.11507056985283 155.26159554696642,255.39584855840076 158.33395176241174,256.4894379800535 164.41187384002842,253.75546138733625 164.94619665993378,250.39656199293677 162.34137291251682,249.06862080626888 155.66233766218647,252.03695663047256 155.26159554696642,255.3177349662874 157.99999999976717,256.5675514480099 164.54545454517938,253.67734762147302 164.94619665993378,250.31844787171576 162.07421150268055,249.06862080626888 155.3951762523502,252.27129842381692 155.3283858995419,255.47396214213222 158.20037105726078,256.5675514480099 164.61224489775486,253.5992338474025 164.81261595501564,250.084105458227 162.07421150268055,249.06862080626888 155.59554730984382,252.03695663047256 155.06122448970564,255.005280514888 157.93320964742452,256.6456649079919" stroke="#4dd2ff" stroke-dasharray="none" stroke-linecap="round" stroke-linejoin="round" stroke-width="0.5"><title>2024-03-26 10.6km</title><desc>1711453549000</desc></polyline><polyline fill="none" opacity="1" points="59.3785090786987,267.20803506983066 59.49347607893287,267.1363241590516 59.43982481214334,267.21699892939796 59.44748927882756,267.10046868087375 59.33252227862249,267.2528543582521 59.24054867841187,267.08254093610594 58.73469387754449,265.6662371052662 58.79600961098913,265.5048845329293 59.95334407975315,264.89532759600115 60.25992274697637,264.9042917003753 60.95738921497832,264.54572678457043 61.23331001546467,264.267837930478 61.156665348651586,263.9720197610877 61.63186228289851,263.792735519135 61.90778308338486,263.52380844436266 63.72426168675884,263.1562733942992 65.29547735635424,262.5287708412361 65.64037835699855,262.4929134120539 65.99294382426888,262.2239822089614 67.03531129291514,261.8295482326648 67.49517929376452,261.8116193719252 69.02040816325461,261.3185742131827" stroke="#4dd2ff" stroke-dasharray="none" stroke-linecap="round" stroke-linejoin="round" stroke-width="0.5"><title>2024-01-30 11.7km</title><desc>1706613736000</desc></polyline><polyline fill="none" opacity="1" points="73.6420519437379,259.14285714285506 73.94556066414225,259.3814945729864 74.02794160255871,259.6302855173708 74.2100468348217,259.76737385107845 74.19703931822733,259.86892051114773 74.20571099594235,259.7622965124101 74.34012200072175,259.73690981093387 74.54824226614437,259.92984840351346 75.22896896768361,259.88922981723226 75.5628285601415,260.1075543121551 75.75794130899885,260.11263161410534 75.94438238011207,259.9755442717651 76.07012170716189,260.00600815963844 76.11348009579524,259.7470644931418 76.12648761238961,259.98569890321596 76.47769056032121,259.7826058638566 77.0023270627571,259.655672275534 77.03267793478153,259.57951196054637 77.14540974523698,259.5642798829758 77.24513403909805,259.77245118920837 77.04568545139045,260.4629641451429 76.88959525231621,260.6102045865955 76.66846747028467,260.6406680695218 76.49069807690103,260.85898912829725 76.39530962190474,260.86914357186834 76.4126529773639,261.0773091888186 76.3519512332714,261.1686986851855 76.16984600100841,261.38194016312264 76.00508412421914,261.447943284722 76.08312922374171,261.6053349756985 75.37638748904283,261.9251939104761 75.20728977335966,262.17397160060864 74.78671340363508,262.26028192495505 74.78237756477029,262.49890377446354 74.5569139438885,262.74767847557086 74.1450092518644,262.65629200129115 73.45994671147491,262.71213931190505 73.20413221852505,262.8339877629296 73.32987154557486,263.0370678236868 73.23014725171379,263.433071458061 72.93531020900991,263.6361489710471 72.93531020900991,264.0423014062253 73.28651315694151,263.86968704335595 73.49463342237868,263.96614808774393 73.76345543189382,264.31645234720054 73.97591153621033,264.3519903169108 74.17102428505314,264.2809143510349 74.27074857889966,264.61598583538944 74.6653099154646,264.8444423177134 74.65663823774958,265.0322834955623 74.79538508136466,265.06274415749067 74.76937004819047,265.2911985026476 74.98182615249243,265.5450353822307 75.06420709089434,265.5298052074904 75.12057299609296,265.61103274991183 75.1249088349723,265.96132494410995 74.90811689180555,266.4588369780213 74.86909434205154,266.82435272094517 75.02084870226099,266.8294293087856 75.35037245586864,267.12387048057644 75.48044762175414,267.5604523253387 75.46310426629498,267.96149492203403 75.72759043695987,268.55036149361695 75.66255285401712,268.9006321316483 75.9530540578562,269.42857142857247 76.29558532804367,269.13414446339084 76.41698881621414,267.60614089239243 76.82022183050867,267.3370853684428 77.2191190059093,266.91573121960755 77.15408142298111,266.7634336247065 77.03701377366087,266.78373999875475 77.14540974523698,266.7583570298557 77.1107230343332,266.4233005760434 77.38821672160702,266.2506948188675 77.09337967890315,265.9816316591787 76.82889350823825,265.5348819329338 77.09337967890315,264.7987511086794 77.07170048456464,264.56521757978044 77.23212652251823,264.4687577454606 77.27982075001637,264.52460293645345 77.22779068366799,264.51952610359876 77.24513403909805,264.38752826016935 77.55297859838174,263.8646101408922 77.66571040883719,263.7833796279483 77.88250235201849,263.7935334496142 78.06894342313171,263.65137974971367 78.51987066489528,262.9609129021228 78.90142448486586,262.65629200129115" stroke="#4dd2ff" stroke-dasharray="none" stroke-linecap="round" stroke-linejoin="round" stroke-width="0.5"><title>2024-01-27 16.6km</title><desc>1706316843000</desc></polyline><polyline fill="none" opacity="1" points="88.55772163486108,269.2186604892486 90.5927507027518,267.18951797886984 90.17377412994392,260.68222591100493 87.779622285394,259.1428571428987 85.38547044084407,261.3819378041662 86.04386219801381,267.81925252708606 88.25845265435055,269.28863080986775 90.5927507027518,267.3994295615703 90.17377412994392,260.7521971335518 87.95918367384002,259.1428571428987 85.44532423675992,261.3119666482671 85.9241546059493,267.53937057958683 88.61757543100975,269.28863080986775 90.5927507027518,267.18951797886984 90.05406653787941,260.47231219889363 87.65991469309665,259.1428571428987 85.44532423675992,261.1720243137679 85.98400840163231,268.0291639099014 88.37816024641506,269.28863080986775 90.5927507027518,267.32945904135704 90.17377412994392,260.7521971335518 87.60006089694798,259.1428571428987 85.50517803290859,261.03208195004845 85.9241546059493,267.81925252708606 88.55772163486108,269.28863080986775 90.5927507027518,267.18951797886984 90.05406653787941,260.68222591100493 87.89932987769134,259.1428571428987 85.50517803290859,260.96211075707106 85.8643008095678,267.53937057958683 88.19859885796905,269.2186604892486 90.5927507027518,267.1195474367123 90.05406653787941,260.61225468094926 87.779622285394,259.21282852825243 85.44532423675992,261.2419954848592 85.80444701341912,267.60934107756475 88.19859885796905,269.3586011228617 90.53289690683596,267.3994295615703 89.93435894558206,260.61225468094926 87.60006089694798,259.28279990603914 85.44532423675992,261.3819378041662 85.9241546059493,267.81925252708606 88.31830645073205,269.2186604892486 90.53289690683596,267.3994295615703 90.05406653787941,260.7521971335518 87.24093812028877,259.28279990603914 85.32561664446257,261.3819378041662 85.80444701341912,267.74928205128526 88.49786783871241,269.42857142857974" stroke="#4dd2ff" stroke-dasharray="none" stroke-linecap="round" stroke-linejoin="round" stroke-width="0.5"><title>2024-01-25 10.3km</title><desc>1706155972000</desc></polyline></svg>