<?xml version="1.0" encoding="utf-8" ?>
<svg baseProfile="full" height="300mm" version="1.1" viewBox="0,0,200,300" width="200mm" xmlns="http://www.w3.org/2000/svg" xmlns:ev="http://www.w3.org/2001/xml-events" xmlns:xlink="http://www.w3.org/1999/xlink"><defs /><rect fill="#222222" height="300" width="200" x="0" y="0" /><text fill="#FFFFFF" style="font-size:12px; font-family:-apple-system, BlinkMacSystemFont, 'Segoe UI', Roboto, 'Helvetica Neue', Arial, sans-serif; font-weight:bold;" x="10" y="20">Over 3km Runs</text><text fill="#FFFFFF" style="font-size:4px; font-family:-apple-system, BlinkMacSystemFont, 'Segoe UI', Roboto, 'Helvetica Neue', Arial, sans-serif;" x="10" y="280">Runner</text><text fill="#FFFFFF" style="font-size:9px; font-family:-apple-system, BlinkMacSystemFont, 'Segoe UI', Roboto, 'Helvetica Neue', Arial, sans-serif;" x="10" y="290">Hannah YAN</text><text fill="#FFFFFF" style="font-size:4px; font-family:-apple-system, BlinkMacSystemFont, 'Segoe UI', Roboto, 'Helvetica Neue', Arial, sans-serif;" x="65" y="280">SPECIAL TRACKS</text><rect fill="yellow" height="2.6" width="2.6" x="65" y="283" /><text fill="#FFFFFF" style="font-size:3px; font-family:-apple-system, BlinkMacSystemFont, 'Segoe UI', Roboto, 'Helvetica Neue', Arial, sans-serif;" x="70" y="285.5">Over 20.0 km</text><rect fill="red" height="2.6" width="2.6" x="65" y="287" /><text fill="#FFFFFF" style="font-size:3px; font-family:-apple-system, BlinkMacSystemFont, 'Segoe UI', Roboto, 'Helvetica Neue', Arial, sans-serif;" x="70" y="289.5">Over 40.0 km</text><text fill="#FFFFFF" style="font-size:4px; font-family:-apple-system, BlinkMacSystemFont, 'Segoe UI', Roboto, 'Helvetica Neue', Arial, sans-serif;" x="120" y="280">STATISTICS</text><text fill="#FFFFFF" style="font-size:3px; font-family:-apple-system, BlinkMacSystemFont, 'Segoe UI', Roboto, 'Helvetica Neue', Arial, sans-serif;" x="120" y="285">Number: 162</text><text fill="#FFFFFF" style="font-size:3px; font-family:-apple-system, BlinkMacSystemFont, 'Segoe UI', Roboto, 'Helvetica Neue', Arial, sans-serif;" x="120" y="290">Weekly: 2.0</text><text fill="#FFFFFF" style="font-size:3px; font-family:-apple-system, BlinkMacSystemFont, 'Segoe UI', Roboto, 'Helvetica Neue', Arial, sans-serif;" x="141" y="285">Total: 1683.5 km</text><text fill="#FFFFFF" style="font-size:3px; font-family:-apple-system, BlinkMacSystemFont, 'Segoe UI', Roboto, 'Helvetica Neue', Arial, sans-serif;" x="141" y="290">Avg: 10.4 km</text><text fill="#FFFFFF" style="font-size:3px; font-family:-apple-system, BlinkMacSystemFont, 'Segoe UI', Roboto, 'Helvetica Neue', Arial, sans-serif;" x="167" y="285">Min: 4.0 km</text><text fill="#FFFFFF" style="font-size:3px; font-family:-apple-system, BlinkMacSystemFont, 'Segoe UI', Roboto, 'Helvetica Neue', Arial, sans-serif;" x="167" y="290">Max: 42.7 km</text><polyline fill="none" opacity="1" points="16.236354220600333,43.06629992912349 15.408596582041355,43.06629992912349 10.986431900557363,41.645020804484375 10.837286380119622,41.4793486372364 10.837286380119622,41.23519957343524 11.545727602293482,39.73541089047649 12.216882444306975,38.7587896382247 12.992439150693826,37.9042365515852 14.215432418423006,36.857832952038734 15.08047643705504,36.36078658903716 15.952977731707506,35.94221890607878 20.70326255823602,34.320249058866466 23.61160020713578,32.92498064263782 23.88751941997907,33.108110968860274 25.155256343830843,39.72669110906281 25.199999999982538,40.15395931407693 24.96882444329094,40.42427070836129 23.14179181770305,40.799217304032936 16.982081822876353,42.891911171143875 15.61740031070076,43.075019357354904 14.722527187957894,42.909350063571765 10.896944588283077,41.57526414305903 10.799999999988358,41.39215262603102 10.926773692364804,40.97361048845778 11.694873122731224,39.48253685481177 12.977524598623859,37.92167649905605 14.12594510614872,36.95375383499777 14.916416364576435,36.46542817767477 16.415328845148906,35.78525547700701 20.636147074052133,34.34641011610802 23.537027446902357,32.95986264093517 23.80548938375432,32.9773036345141 25.199999999982538,39.94468536790373 25.14779906781041,40.302194704556314 24.946452615200542,40.44171012269362 23.067219057498733,40.81665663907188" stroke="#4dd2ff" stroke-dasharray="none" stroke-linecap="round" stroke-linejoin="round" stroke-width="0.5"><title>2026-09-23 10.0km</title><desc>1790136397000</desc></polyline><polyline fill="none" opacity="1" points="35.235242290771566,32.21423707799113 29.652863436029293,32.4367719663278 29.335682819364592,32.68403270485578 29.060792951495387,35.230803090773406 27.64405286347028,38.04952631276683 27.199999999953434,40.54678778910602 33.09955947136041,41.98084667722287 35.38325991190504,35.62641541795165 35.38325991190504,32.31314149891841 29.420264317188412,32.60985451078159 29.166519823716953,34.810464259411674 27.55947136564646,38.445133869565325 27.326872246689163,40.6951391165494 33.09955947136041,41.95612159851589 35.34096916299313,35.70059265480086 35.531277533154935,33.96978432900505 35.214096916257404,32.263689293700736 29.31453744485043,32.68403270485578 29.229955947143026,34.761012582472176 27.897797356825322,37.40666260498983 27.242290748865344,40.596238242054824 40.62731277535204,43.93411963185645 41.55770925118122,38.519310211981065 41.38854625553358,32.065880368129 29.420264317188412,32.56040236829722 29.166519823716953,34.761012582472176 27.87665198231116,37.40666260498983 27.263436123379506,40.47261209010321 27.68634361238219,40.84349034976913 40.62731277535204,43.93411963185645 41.59999999997672,38.59348653073539 41.346255506621674,32.090606492958614 29.377973568276502,32.60985451078159 29.293392070452683,34.46430230127589 27.770925110089593,37.777545729099074 27.305726872175,40.670413901811116 33.0572687224485,42.00557175326685 35.29867841396481,35.94784994085785 35.29867841396481,32.263689293700736 29.46255506610032,32.5851284408709 29.166519823716953,34.711560895098955 27.601762114441954,38.19787922507385 27.305726872175,40.645688684497145 32.951541850110516,42.030296826778795 35.214096916257404,36.145655581436586 35.4466960352147,33.895606542995665" stroke="#4dd2ff" stroke-dasharray="none" stroke-linecap="round" stroke-linejoin="round" stroke-width="0.5"><title>2026-09-22 10.0km</title><desc>1790076378000</desc></polyline><polyline fill="none" opacity="1" points="48.11197388218716,31.019293840188766 47.26805870560929,35.222398877464 45.048874352592975,40.010221452539554 44.86133764672559,43.22643142731977 53.17546494130511,45.20000000001164 56.42610117665026,36.574691365880426 56.894942941493355,33.97974705972592 56.58238176489249,30.800000000017462 48.29951058793813,30.94619590896764 47.73690047033597,31.311685410531936 47.36182705860119,35.0031077049498 45.23641105846036,39.46200085684541 44.79882541135885,43.22643142731977 52.956672117696144,45.16345253624604 56.488613412017,36.428497838409385 56.894942941493355,33.97974705972592 56.64489400037564,30.87309796223417 48.236998352687806,30.98274487646995 47.73690047033597,31.421332185680512 47.36182705860119,34.966559162712656 45.08013047021814,39.90057740290649 44.673800940741785,43.11678839835804 52.98792823543772,45.090357597277034 56.64489400037564,35.95336844731355 56.92619905923493,33.321870758605655 56.45735729439184,30.836548983003013 48.205742235062644,31.019293840188766 47.73690047033597,31.494430016406113 47.330570940859616,35.039656243432546 45.1113865878433,39.79093331861077" stroke="#4dd2ff" stroke-dasharray="none" stroke-linecap="round" stroke-linejoin="round" stroke-width="0.5"><title>2026-09-21 5.5km</title><desc>1789986268000</desc></polyline><polyline fill="none" opacity="1" points="63.06661812888342,35.8225645204966 62.95391336004832,35.66622712825665 62.92246086640807,35.56506718941455 62.95653440116439,35.50069249887747 62.75471423371346,35.12057236125838 62.67870404077985,34.79869253668039 62.60269384784624,34.79869253668039 62.51619949036103,34.93357594630834 62.141390607939684,35.13283437906102 62.065380415006075,35.105244831698656 61.98674918092729,34.9948863793561 61.76396068438771,35.05313117049991 61.67484528577188,34.725119502963935 61.49923552967084,34.507464850352335 61.65649799782841,34.384841790335486 61.4520567892323,34.13652850326798 61.84521295959712,34.565710621938706 62.24885329451354,34.743512778921286 62.448052420819295,34.685267364979154 62.63676738260256,34.565710621938706 63.13476519839605,33.955656990703574 63.68518383691844,33.685880431856276 64.42693847834016,33.842228516534306 64.68117946853454,33.9617882469247 65.1005460502347,34.27448059231574 65.46224972698838,34.37564503989415 65.71124863487785,34.30207093125682 66.64958136148925,33.72573394538267 67.08205314890074,33.66442082492904 67.50404077176063,33.67974911721285 67.58529304697004,33.737996553893026 67.67178740445524,33.89740999190508 67.86836548963038,34.02003511621115 68.02824899891857,34.09360994150666 68.21434291955666,34.1028067815314 68.3375318529288,34.062953787024526 68.60225700763112,33.836097235000125 68.92726610848331,33.49580907419477 69.1290862759488,33.21069969804557 69.49865307607979,32.91945603855129 69.92850382236065,32.77843174010377 70.24040771751606,32.77536598685401 70.61521659992286,32.93171898856235 70.92187841281702,33.00223085032303 70.81441572625772,33.43142978304968 70.9192573716864,34.035363220233194 70.86159446669626,34.78643037737493 70.90615216600418,34.89985515281114 70.93236257736862,35.28304367581404 71.06341463416175,35.66316168075173 71.36483436476556,36.245590879676456 71.57189661449229,36.54293179633896 72.43946123044589,37.49317611436527 73.33323625774938,38.36369515926708 73.46166727339732,38.54147400068723 73.54554058973736,38.5108225541444 73.63203494722256,38.57825569371562 74.26370586095436,39.234188043132235 74.40000000000873,39.49778284101194 74.30040043685585,39.55601857751935 74.21914816164644,39.531498281683525 73.87841281398141,39.76137524042133 73.4485620677151,39.975925422852015 73.28343647616566,40.00964030705836 72.96891153986508,39.948340488408576 72.45780851838936,39.73072508464065 71.90738987986697,39.64183944952674 70.82752093192539,39.74298515084956 70.76723698581918,39.67861974540938 70.8013105205755,39.74298515084956 70.74626865673054,39.78896035288744 70.66501638150658,39.70007489644195 70.63880597015668,39.764440254217334 70.30069166363683,39.92382052463654 69.50913724063139,40.533748461204596 69.02162358937494,40.61650151356844 68.93775027303491,40.58891718904306 68.75165635239682,40.75442274224952 68.05183836912329,40.96896557074251 66.2800145613437,41.70759373047804 65.90782672005298,41.72598257306527 65.70862759374722,41.630973427392746 65.63785948307486,41.67694563355872 64.24346559884725,41.91599992981355 63.758572988721426,42.05697974410759 63.38638514744525,42.25618918184955 61.4572988715081,42.838485839885834 60.338114306519856,43.224634013147806 60.29355660721194,43.2031814718448 60.20444120861066,42.657668656565875 60.0,42.145857970150246" stroke="#4dd2ff" stroke-dasharray="none" stroke-linecap="round" stroke-linejoin="round" stroke-width="0.5"><title>2026-09-20 15.1km</title><desc>1789857876000</desc></polyline><polyline fill="none" opacity="1" points="80.92145545798121,39.64017759389026 81.25570890840027,39.51869525280199 81.36411543289432,39.143682683199586 81.40476787954685,38.552107833103946 81.56286072774674,38.37780319216836 82.38946047678473,38.488724397717306 82.4797992472013,38.43062284458938 83.39222082812921,38.361957285538665 84.42208281054627,37.986936027460615 85.29385194482165,37.522117037475255 86.33274780429201,37.40591161377961 87.2993726474524,37.162935762917186 88.32471769137192,36.66113406706063 88.63186951068928,36.32835752925166 88.6905897114193,35.97973211037606 88.67703889586846,35.36699062559637 88.17114178169868,34.38975803944777 88.27503136763698,34.24713330540544 88.7176913425501,34.47427620806411 90.06373902133782,35.8688053301521 90.37992471770849,36.011425430871896 90.52446675032843,35.97444988833013 90.70966122963,36.185738333981135 90.80000000001746,36.101223063047655 90.72321204518084,36.196302732801996 90.51994981180178,35.97973211037606 90.26700125471689,35.96916766573486 90.05922208281117,35.85824086204957 88.70414052699925,34.45842906233884 88.26599749061279,34.25769811448117 88.17565872022533,34.4056052069609 88.6905897114193,35.36170833872529 88.71317440402345,36.143480716389604 88.50991217064438,36.50266932570594 88.27503136763698,36.68754480836287 87.37616060225992,37.15765366607593 86.52697616061778,37.37950125249699 85.30288582184585,37.516834978618135 84.44918444164796,37.986936027460615 83.74905897115241,38.29329163204966 83.28381430366426,38.409494990322855 82.0190715182107,38.4834424411456 81.57189460480004,38.39364909376309 81.41380175660015,38.54154393278441 81.36411543289432,39.254602187284036 81.26474278548267,39.523977099870535 80.85821831869544,39.67186859077992 79.85545796738006,39.43946747982409 76.91041405271972,39.523977099870535 76.83814303640975,40.14194934929765 76.49937264746404,40.89723837894417 76.39999999999418,41.44653231582561 77.55633626098279,41.75286669459456 77.68281053955434,41.65779760574151 78.1119196988875,40.49582744993677 78.15257214556914,39.703559567551565 77.98544542034506,39.650741261753865 76.85621079048724,39.74581417196896 76.78845671267482,40.30040254026244 76.4767879548599,40.93949197323309" stroke="#4dd2ff" stroke-dasharray="none" stroke-linecap="round" stroke-linejoin="round" stroke-width="0.5"><title>2026-09-19 10.0km</title><desc>1789799519000</desc></polyline><polyline fill="none" opacity="1" points="96.33653145554126,45.19999999999709 96.41325330987456,45.005627013670164 96.2086616983288,44.557071928240475 96.2086616983288,43.712285454741505 96.31095750411623,43.622573023763834 95.79947847520816,41.08814979777526 95.83144591448945,41.18534174487286 95.97210264744353,41.17038914634759 96.24702262549545,40.93114713936666 96.72653421506402,40.72928606597998 99.43097958038561,39.772307205043035 100.23655905082705,39.22652439530066 100.04475441502291,39.40596030471352 100.45393763811444,39.22652439530066 101.55361755026388,38.47886986823141 102.57018212019466,37.96298363223468 103.2542853213381,37.469523708248744 103.51002483579214,36.49007031739893 103.69543598376913,35.06946493632131 103.5164183236484,34.37410557431576 103.44608995717135,33.52919735474279 102.6405104866717,31.203778309027257 101.93722682193038,31.39071192976553 100.57541390752885,32.09357791728689 100.08950883004582,32.07862339462008 99.87852373064379,32.46743995518045 99.41819260461489,32.85625437583076 97.35309602547204,32.87868591172446 97.42981787977624,32.75905097127543 97.3275220740179,33.7086477332341 97.42342439194908,33.768464424763806 97.4362113676616,33.551628676978 97.37227648904081,31.95898709931498 98.09474061738001,31.854305174725596 98.5870391826902,31.921600715482782 98.63818708556937,32.14591872170422 98.75966335492558,32.205736736403196 98.97704194221296,31.906646156407078 99.3542577259941,32.02628254035517 99.60360375259188,31.809441445264383 99.21360099309823,32.258077457714535 99.3542577259941,32.34032708429004 99.6611451433564,31.869259744860756 99.92967163355206,31.69728199698875 101.04853200924117,31.54773578894674 101.96280077338452,31.024321567703737 102.67887141383835,30.799999999995634 102.96657836760278,30.94954779095133 103.77215783810243,33.62639969967131 104.02789735255647,34.815248328806774 103.9000275953149,35.121803536079824 103.98953642538982,35.36854212705657 103.75937086236081,36.77418796614802 103.81051876523998,36.953630103045725 104.20052152479184,37.207839016933576 104.16855408548145,37.491953779550386 102.83870861036121,38.0452266178836 102.43591887512594,38.48634645267157 101.52804359880975,38.95736967683479 100.83754690981004,39.45081921087694 100.44754415028729,39.54801340987615 99.3542577259941,40.28070383852173 96.37489238270791,41.38720151557936 95.90177428096649,41.39467779231927 95.83783940237481,41.49186931784061 96.31095750411623,43.577716765568766 96.20226821047254,43.712285454741505 96.20226821047254,44.572023810273095 96.41964679773082,45.013102907651046" stroke="#4dd2ff" stroke-dasharray="none" stroke-linecap="round" stroke-linejoin="round" stroke-width="0.5"><title>2026-09-18 11.0km</title><desc>1789703714000</desc></polyline><polyline fill="none" opacity="1" points="158.39999999999418,40.00297289426089 158.82172886158514,39.63302758136342 159.33868682096363,39.45799842197812 159.82843646670517,39.50573372812869 160.58006613131147,39.97114978472746 161.23306565894745,39.93932664825843 161.70581010862952,39.597226228732325 162.46084081246227,38.82152187755128 162.7601322626142,38.63853287533129 163.52876712327998,38.45156493071772 164.0525271610677,38.690247248927335 164.2157770429767,38.865279985166126 164.37222484647646,38.89710403141726 164.5388757675828,38.34415739278484 164.99461502124905,38.33620126664755 166.13396315538557,37.57638345608939 166.30401511571836,37.560470876909676 166.4230514879455,37.71561823635784 166.50807746809733,37.711640106947016 168.06235238543013,36.94783145307156 168.33443552194512,36.75289863189755 168.74596126591496,36.6096820370185 169.1778932451416,36.31529065491122 169.83429381197493,36.16809409860798 170.29683514406497,36.20389871945736 170.66754841756483,36.09250645364955 171.5416154935956,36.02089696547773 171.81369863012515,36.048745115986094 172.04837033535296,35.997027105742745 172.6435521964886,36.024875273949874 172.79999999998836,36.13626774033037" stroke="#4dd2ff" stroke-dasharray="none" stroke-linecap="round" stroke-linejoin="round" stroke-width="0.5"><title>2026-09-06 10.1km</title><desc>1788673930000</desc></polyline><polyline fill="none" opacity="1" points="183.2589344898006,30.800000000017462 183.78768697555643,31.035588819970144 188.37020851881243,40.66511108301347 186.48180678393692,42.04914346031728 183.86322304501664,43.227037932228995 183.5862574572675,42.96201211086009 179.10445067333058,45.20000000001164 175.6801488607889,39.95836848998442 180.2626704040449,37.278619847027585 181.67267703264952,37.072484266827814 184.64376242866274,41.10682429198641 185.24805098376237,42.54974922022666 179.73391791817266,45.11165871407138 178.9281998446677,45.14110581250861 175.73050624039024,39.811130223679356 179.88499005697668,37.30806777466205 181.11874585715123,36.807452582230326 181.64749834279064,37.01358835879364 184.54304766957648,40.93013909252477 185.22287229413632,42.46140709283645 179.7087392284302,45.11165871407138 178.6008768773172,44.934976058139 175.65497017104644,39.87002553953789 181.043209787691,36.807452582230326 181.6978557225084,37.072484266827814 183.98911649396177,40.193949553678976 185.19769360427745,42.63809131967719 179.3058801916195,45.20000000001164 178.6008768773172,44.846634688117774 175.62979148130398,40.017263774585444" stroke="#4dd2ff" stroke-dasharray="none" stroke-linecap="round" stroke-linejoin="round" stroke-width="0.5"><title>2026-09-05 10.4km</title><desc>1788599092000</desc></polyline><polyline fill="none" opacity="1" points="88.70625350438058,55.43457829457475 86.9137580479728,56.620775959221646 86.37129231763538,56.51043221820146 82.52686127275229,52.42768094863277 76.44181090733036,47.93106328489375 77.03144757065456,47.40691261709435 79.64943435578607,46.80000000001746 83.91840379824862,51.65526134928223 88.77700990391895,54.85527049555094 88.75342443748377,55.351820116484305 87.62132204393856,56.206986689561745 86.41846325062215,56.59319002836128 83.6117927331943,53.44837476397515 76.6776655727299,48.20693163390388 76.51256730710156,47.71036839543376 79.5786779562477,46.88276089465944 83.98916019778699,51.65526134928223 88.39964243944269,54.55182303916081 88.72983897081576,55.351820116484305 86.8901725813048,56.648361887200736 86.39487778418697,56.59319002836128 83.49386540066916,53.33802967946394 76.58332370652352,48.23451845278032 76.51256730710156,47.71036839543376 77.2201313029509,47.26897805556655 79.72019075544085,46.96552176310797 83.96557473123539,51.710434253764106 88.6590825712774,54.88285661046393 88.72983897081576,55.32423405122245 88.11661684105638,55.82078277831897 86.9137580479728,56.620775959221646 86.276950451429,56.59319002836128 82.88064327079337,52.841476220608456 83.56462180020753,51.820780027570436 84.50804046157282,52.01388501946349 88.58832617173903,54.772512133436976 88.49398430553265,55.60009457194246 86.96092898095958,56.648361887200736 86.20619405189063,56.56560409456142 83.16366886917967,53.08975306834327 76.55973824008834,48.17934481211705 76.913520238013,47.43449952060473 79.67301982233766,46.88276089465944 84.05991659732535,51.76560714645893 88.6354971047258,54.800098257139325 88.58832617173903,55.51733644641354 86.8901725813048,56.675947812211234 86.3477068512002,56.648361887200736 82.69195953849703,52.56561277905712 76.46539637388196,47.98623697806033 77.12578943674453,47.32415188892628 79.69660528888926,46.88276089465944 83.91840379824862,51.65526134928223 88.6354971047258,54.772512133436976 88.54115523863584,55.4897503987595 86.93734351440798,56.59319002836128 86.22977951844223,56.48284627569956 84.93257885915227,54.744926006824244 82.83347233769018,52.89664887380786 83.6117927331943,51.848366463789716 85.02692072524223,52.26216265591211 88.68266803771257,54.96561493756599 87.95151857531164,55.90354080754332 86.44204871717375,56.620775959221646 82.59761767240707,52.51044005557196 76.51256730710156,48.096584329381585 77.14937490329612,47.35173880122602 79.5786779562477,46.85517393273767 84.2957712628413,52.01388501946349 84.13067299709655,49.94489551518927 86.44204871717375,53.14492566903937 88.58832617173903,54.93802883144235 86.44204871717375,56.620775959221646 82.64478860551026,52.59319913631771 76.46539637388196,48.151757987448946 76.98427663755137,47.35173880122602 79.81453262153082,46.96552176310797 83.6589636662975,51.51732903698576 87.12602724670433,53.53113354675588 88.6590825712774,54.910442722408334 88.68266803771257,55.37940617874847 86.98451444751117,56.59319002836128 86.81941618176643,57.0897363370168 88.54115523863584,59.4069399322907 90.75818909273949,61.20000000001164" stroke="#4dd2ff" stroke-dasharray="none" stroke-linecap="round" stroke-linejoin="round" stroke-width="0.5"><title>2026-08-29 17.7km</title><desc>1787987556000</desc></polyline><polyline fill="none" opacity="1" points="155.77623762379517,52.96298265237783 156.02574257427477,52.87439002517203 156.20841584159643,52.93692601386647 156.39999999999418,53.59354909767717 155.8519801980292,54.1615731110287 155.3975247524795,54.474244082390214 155.16138613864314,54.521144556772924 154.94752475249697,54.46382174867904 154.38168316832162,54.14593951031566 154.23019801982446,53.86453384839842 154.07425742576015,53.77073160352302 152.91138613864314,53.781154084023 152.13168316835072,54.1198834980969 151.12029702973086,54.802546464572515 150.5633663366607,54.93803569823285 149.93514851486543,54.74522398420959 149.33366336635663,54.26579698885325 148.6653465346899,53.9687583552186 147.72970297030406,53.807210275543184 147.48019801982446,53.828055218858935 146.66930693070753,54.234529848676175 145.81831683169003,55.2767571506738 145.15000000002328,55.58942103789013 144.74009900991223,55.44351147102134 144.44158415842685,55.24027956779173 143.4212871287309,54.0104480961636 142.01336633664323,52.95255999861547 142.08465346536832,52.81706529906296 142.62376237625722,52.718049705781596 143.40346534654964,53.603971615681075 144.29455445546773,54.213685077520495 144.29900990100577,54.328331209602766 143.95594059408177,54.56804498647034 143.84900990099413,54.526355717825936 143.30990099010523,53.91143490376999 142.0,52.9265033546144 142.10693069308763,52.81185395700595 142.58811881189467,52.71283835323993 143.1405940594268,53.07242038344339 143.66633663367247,52.41057896210623 143.77772277229815,52.431424496953696 144.08960396042676,52.884812695458095 143.47920792081277,53.421577231998526 143.40346534654964,53.58833783786031 143.61287128712866,53.744675392670615 143.50594059407013,53.23397087501871 143.5549504950759,53.249604765413096 143.88910891089472,53.79157656227835 144.312376237649,54.1615731110287 144.26782178218127,54.328331209602766 143.9693069306959,54.547200356562826 143.81782178219873,54.50029990701296 143.1717821782222,53.79678780059476 142.01782178221038,52.95255999861547 142.10693069308763,52.801431271251204 142.62376237625722,52.72847240918054 143.40792079208768,53.609182873864484 144.29900990100577,54.208473883361876 144.30792079208186,54.286641737919126 144.16980198022793,54.406498873820965" stroke="#4dd2ff" stroke-dasharray="none" stroke-linecap="round" stroke-linejoin="round" stroke-width="0.5"><title>2026-08-23 15.3km</title><desc>1787469282000</desc></polyline></svg>