<?xml version="1.0" encoding="utf-8" ?>
<svg baseProfile="full" height="300mm" version="1.1" viewBox="0,0,200,300" width="200mm" xmlns="http://www.w3.org/2000/svg" xmlns:ev="http://www.w3.org/2001/xml-events" xmlns:xlink="http://www.w3.org/1999/xlink"><defs /><rect fill="#222222" height="300" width="200" x="0" y="0" /><text fill="#FFFFFF" style="font-size:12px; font-family:-apple-system, BlinkMacSystemFont, 'Segoe UI', Roboto, 'Helvetica Neue', Arial, sans-serif; font-weight:bold;" x="10" y="20">Over 3km Runs</text><text fill="#FFFFFF" style="font-size:4px; font-family:-apple-system, BlinkMacSystemFont, 'Segoe UI', Roboto, 'Helvetica Neue', Arial, sans-serif;" x="10" y="280">Runner</text><text fill="#FFFFFF" style="font-size:9px; font-family:-apple-system, BlinkMacSystemFont, 'Segoe UI', Roboto, 'Helvetica Neue', Arial, sans-serif;" x="10" y="290">Hannah YAN</text><text fill="#FFFFFF" style="font-size:4px; font-family:-apple-system, BlinkMacSystemFont, 'Segoe UI', Roboto, 'Helvetica Neue', Arial, sans-serif;" x="65" y="280">SPECIAL TRACKS</text><rect fill="yellow" height="2.6" width="2.6" x="65" y="283" /><text fill="#FFFFFF" style="font-size:3px; font-family:-apple-system, BlinkMacSystemFont, 'Segoe UI', Roboto, 'Helvetica Neue', Arial, sans-serif;" x="70" y="285.5">Over 20.0 km</text><rect fill="red" height="2.6" width="2.6" x="65" y="287" /><text fill="#FFFFFF" style="font-size:3px; font-family:-apple-system, BlinkMacSystemFont, 'Segoe UI', Roboto, 'Helvetica Neue', Arial, sans-serif;" x="70" y="289.5">Over 40.0 km</text><text fill="#FFFFFF" style="font-size:4px; font-family:-apple-system, BlinkMacSystemFont, 'Segoe UI', Roboto, 'Helvetica Neue', Arial, sans-serif;" x="120" y="280">STATISTICS</text><text fill="#FFFFFF" style="font-size:3px; font-family:-apple-system, BlinkMacSystemFont, 'Segoe UI', Roboto, 'Helvetica Neue', Arial, sans-serif;" x="120" y="285">Number: 309</text><text fill="#FFFFFF" style="font-size:3px; font-family:-apple-system, BlinkMacSystemFont, 'Segoe UI', Roboto, 'Helvetica Neue', Arial, sans-serif;" x="120" y="290">Weekly: 2.8</text><text fill="#FFFFFF" style="font-size:3px; font-family:-apple-system, BlinkMacSystemFont, 'Segoe UI', Roboto, 'Helvetica Neue', Arial, sans-serif;" x="141" y="285">Total: 2698.6 km</text><text fill="#FFFFFF" style="font-size:3px; font-family:-apple-system, BlinkMacSystemFont, 'Segoe UI', Roboto, 'Helvetica Neue', Arial, sans-serif;" x="141" y="290">Avg: 8.7 km</text><text fill="#FFFFFF" style="font-size:3px; font-family:-apple-system, BlinkMacSystemFont, 'Segoe UI', Roboto, 'Helvetica Neue', Arial, sans-serif;" x="167" y="285">Min: 3.0 km</text><text fill="#FFFFFF" style="font-size:3px; font-family:-apple-system, BlinkMacSystemFont, 'Segoe UI', Roboto, 'Helvetica Neue', Arial, sans-serif;" x="167" y="290">Max: 42.8 km</text><polyline fill="none" opacity="1" points="35.953901560627855,33.72453496363596 34.83457382960478,36.200732960074674 34.66818727494683,37.651060472635436 38.70684273715597,38.60614733102557 40.4160864346195,34.36127509364451 40.4160864346195,31.70817522201105 36.392557022860274,31.778925098260515 36.15054021612741,32.04423686755763 36.02953181281919,33.583036827723845 34.97070828336291,35.79393152080593 34.65306122449692,37.66874731586722 44.25810324132908,39.96802100914647 44.938775510236155,36.200732960074674 44.84801920771133,31.761237632046686 44.53037214890355,31.460550419433275 36.226170468260534,31.920424760959577" stroke="#4dd2ff" stroke-dasharray="none" stroke-linecap="round" stroke-linejoin="round" stroke-width="0.5"><title>2026-07-14 4.4km</title><desc>1784026688000</desc></polyline><polyline fill="none" opacity="1" points="50.408959126798436,32.676801520945446 50.217952361970674,32.576293334932416 47.67756238981383,32.75497448837996 47.534307316178456,33.815887608681805 46.86578363931039,35.22297698442708 46.73207890393678,36.39553713906935 52.978000113682356,37.88076130760601 53.36956398159964,38.1264354721352 54.06673867319478,38.182270429802884 56.27286680683028,39.00862435105955 56.97959183668718,38.96395673687948 56.59757830708986,36.39553713906935 56.368370189273264,35.92651463990478 53.254959922633134,37.132568285262096 52.99710079014767,37.065565666387556 53.216758569702506,35.35698451833741 53.149906201986596,32.598628495623416 53.025751804874744,32.419947077512916 47.68711272807559,32.743806925158424 47.648911375086755,33.469696078114794 46.98038769821869,34.966128735664824 46.69387755100615,36.35086841938755 49.205616508377716,37.0208972301989 49.387072935001925,36.88689180822985 50.29435506789014,34.44126297982439 50.42805980326375,32.66563394945115 49.778636802861,32.576293334932416 47.69666306633735,32.72147179514286 47.62981069862144,33.61487330978707 46.94218634522986,35.1224712223775 46.703427889209706,36.35086841938755 49.33932124375133,36.9762287751073 50.399408788536675,34.10624092024227 50.42805980326375,32.72147179514286 50.29435506789014,32.56512575276429 47.69666306633735,32.73263936075091 47.61071002215613,33.67071065342316 47.01858905120753,34.82095336211205 46.71297822747147,36.261530923322425" stroke="#4dd2ff" stroke-dasharray="none" stroke-linecap="round" stroke-linejoin="round" stroke-width="0.5"><title>2026-07-09 10.0km</title><desc>1783598044000</desc></polyline><polyline fill="none" opacity="1" points="63.79405489866622,40.72694501694059 66.79991528321989,39.1645687854616 65.90928998403251,32.65462510212092 63.57139857392758,30.571428571478464 61.79014797555283,31.157328308850992 61.010850838851184,32.65462510212092 61.90147613803856,39.034370587032754 63.961047142511234,40.79204394062981 66.79991528321989,38.96927147731185 65.90928998403251,32.78482465108391 63.738390817539766,30.571428571478464 60.89952267659828,32.32912610931089 61.79014797555283,39.099469689594116 64.23936754837632,40.85714285715949 65.68663365929388,40.4014502959908 66.85557936457917,38.578676675329916 66.02061814651825,32.65462510212092 65.07432876620442,31.22242824517889 63.29307816782966,30.63652856979752 60.843858595239,32.78482465108391 62.17979654413648,39.22966787428595 64.29503162926994,40.6618460866157 66.79991528321989,38.578676675329916 65.85362590313889,32.2640262900386 63.23741408670321,30.76672854583012 61.066514920210466,32.39422592159826 62.012804300524294,39.22966787428595 64.12803938589059,40.79204394062981 65.74229774042033,40.4014502959908 66.85557936457917,38.64377582632005 65.74229774042033,32.65462510212092 64.90733652259223,31.22242824517889 63.18175000557676,30.70162856130628 60.89952267659828,32.78482465108391 61.95714021916501,39.1645687854616 64.7960083601065,40.72694501694059 66.5215948773548,39.620262262935285 66.91124344570562,38.05788322020089 65.46397733455524,31.87342722999165 62.62510919361375,30.831828523485456 60.89952267659828,32.84992441511713 61.95714021916501,38.96927147731185 63.18175000557676,40.59674714936409 64.51768795424141,40.6618460866157 66.24327447125688,39.94575739733409 66.85557936457917,38.31828000303358 65.85362590313889,32.2640262900386 63.014757761964574,30.70162856130628 60.89952267659828,32.52442552574212 62.012804300524294,39.42496509948978 64.29503162926994,40.72694501694059 66.85557936457917,38.8390732377884 65.79796182177961,32.39422592159826 63.014757761964574,30.76672854583012 61.066514920210466,32.84992441511713 61.84581205667928,39.1645687854616 64.12803938589059,40.6618460866157 66.02061814651825,39.880658384179696 66.91124344570562,38.38337918149773" stroke="#4dd2ff" stroke-dasharray="none" stroke-linecap="round" stroke-linejoin="round" stroke-width="0.5"><title>2026-07-08 4.7km</title><desc>1783508969000</desc></polyline><polyline fill="none" opacity="1" points="96.13579367849161,39.40959778504839 96.21293754334329,39.34808617353701 96.33215987993754,39.368590054888045 96.63372226073989,39.59413203372969 97.58750095355208,40.61520565947649 97.783867154998,40.70952033988942 97.96270065988938,40.697218438072014 98.09945569305273,40.8571428571413 98.38699191660271,40.57009855726574 98.56582542150863,40.27485077354868 98.57634503944428,40.11902464748346 98.87440088094445,39.69665068106042 99.2846659804054,39.22916344773694 99.53713681084628,39.097937947441096 99.48103218185133,39.02002259635992 99.7440226302424,38.47050988202318 100.08415694348514,37.3632590991765 100.07013078623277,36.42002051014788 100.01402615725237,36.260077776601975 100.08065040415386,36.06732539982477 100.6311770760949,35.84586403833964 101.32897839913494,35.312711123664485 101.51482498264522,35.300407508239005 101.5569034544169,35.15276381843796 101.74275003792718,34.92309473800924 101.66911271236313,34.37352391092281 101.32897839913494,33.51224051210738 101.13962527629337,32.83550440617546 101.41664188193681,32.70835872745738 102.07587127255101,32.57711113743062 102.46159059682395,32.568908148292394 102.72107450588373,32.47047214306076 102.86484261768055,32.12594415458807 102.81575106730452,31.777311522699165 102.84730992111145,31.387659573185374 102.75964643830957,30.977495390987315 102.82627068524016,30.79292009173878 102.94549302183441,30.784716724687314 103.1664049984829,30.87905534086167 103.79056899595889,31.354846598449512 103.99745481535501,31.43277736800883 104.1552490843751,31.34254172576766 104.31304335340974,31.043121952054207 104.42875915068726,31.0595285749514 104.53395533004368,30.998003703265567 104.10265099471144,30.92007205882328 104.03953328708303,31.149764876616246 103.9168044111866,31.194882948602753 103.26108155988913,30.702682958602963 102.93847994320095,30.571428571427532 102.79471183143323,30.583733689109067 102.61938486584404,30.6903778786982 102.57029331548256,30.842140257551364 102.66496987690334,31.96598368958439 102.66496987690334,32.14645185873451 102.59133255135384,32.26129480126838 101.15715797284793,32.57300964307433 100.94325907484745,32.757576459047414 100.9327394569118,33.032374311045714 101.5007988254074,34.56628471565273 101.51482498264522,34.89438600721769 100.60663130090688,35.616199067004345 99.85973842753447,35.964797149121296 99.8983103599603,37.12950211090356 99.61428067571251,38.281869392227236 99.2846659804054,38.995417716101656 98.7376458477811,39.55722525429519 98.43959000628092,40.0206078239753 98.26776958000846,40.135427427099785 98.01880528886977,40.4470789207553 97.77334753704781,40.50448813305775 97.31399088722537,40.06571556576819 96.60216340693296,39.2414658156049 96.31112064406625,39.14304676329266 95.91137516252638,39.126643563602556 95.53968199549126,38.872393080477195 95.46604466995632,38.98311527012993 95.47656428789196,39.040526651315304 95.84124437630817,39.27017132544279 96.04111711705627,39.70895290050976 96.044623656373,39.856579229333875" stroke="#4dd2ff" stroke-dasharray="none" stroke-linecap="round" stroke-linejoin="round" stroke-width="0.5"><title>2026-06-28 15.3km</title><desc>1782609425000</desc></polyline><polyline fill="none" opacity="1" points="122.08849547839782,30.571428571427532 122.19070764120261,30.806160822234233 122.30349347602169,30.863814141655894 122.18013396918832,31.04089166191625 121.93693951285968,31.209732270552195 122.37398462278361,31.75742970743522 122.32816537738836,31.913913278418477 122.95906114089303,32.6098457745793 123.36438523477409,32.70455752235284 123.43135182421247,32.8857445736794 123.32209054671694,32.95163056575984 123.32209054671694,33.01751644665637 123.58995690441225,33.318119367766485 123.82962680340279,33.194584200788086 123.86134781944565,33.260469671811734 123.75208654195012,33.35106201295275 123.75208654195012,33.44988978180845 123.9071670648409,33.60224876880238 124.08691948908381,33.61460217413696 124.18208253721241,33.68460473051164 124.16798430786002,33.97284922885228 124.40765420683601,34.27344479673047 124.54511194302177,34.33521072276562 124.85527298877423,34.28579798974897 124.85174843143614,34.46285999370957 124.93986236488854,34.56580265026059 124.99625528231263,34.808746243936184 125.49321786696964,35.41403981126132 125.78575612603163,35.26580551924053 125.93731209156977,35.37286367547131 125.9972295663174,35.582861514201795 125.78223156867898,35.69403638350923 125.54961078436463,35.96167828953185 125.89501740349806,36.591658921999624 126.20870300658862,38.05745688870957 126.21927667861746,38.95914235997043 126.09944172912219,39.790815532091074 126.19460477723624,39.93079838475023 126.13821185984125,40.12842038175222 126.00427868097904,40.29310461570276 125.90206651817425,40.67187571962131 125.92321386220283,40.836557663009444 126.00780323831714,40.8571428571413 126.06067159838858,40.79950428626762 125.9972295663174,40.29310461570276 126.1311627451505,40.1366546099307 126.18403110522195,39.93079838475023 126.09591717176954,39.757878317399445 126.2263257932791,38.732693627811386 126.19108021991269,38.028635548675084 125.87387005946948,36.56283650047408 125.53198799767415,35.95344318129355 125.78223156867898,35.67344846861306 125.98665589428856,35.566391136286256 125.92321386220283,35.36051082627091 125.77518245401734,35.26580551924053 125.47207052292651,35.41403981126132 124.99625528231263,34.816981593514356 124.92223957819806,34.553449545797775 124.84117475942185,34.47109541622194 124.84117475942185,34.28579798974897 124.54863650035986,34.33932844769879 124.40765420683601,34.28579798974897 124.16445975050738,33.96873146528014 124.19970532390289,33.76284273326746 124.15388607849309,33.65166236666482 123.92126529419329,33.61048437279169 123.74151286995038,33.44577196310274 123.74856198464113,33.34282635425916 123.87897060612158,33.260469671811734 123.85782326210756,33.19046635515406 123.6393007071456,33.318119367766485 123.57233411772177,33.30164803473235 123.30799231736455,32.97221991547485 123.42430270952173,32.87339093780247 123.34676244809816,32.70043962505224 122.97315937025996,32.62631739939388 122.32464082003571,31.905677316633955 122.35636183607858,31.745075714603445 121.94046407021233,31.213850325060776 122.30349347602169,30.872050323192525" stroke="#4dd2ff" stroke-dasharray="none" stroke-linecap="round" stroke-linejoin="round" stroke-width="0.5"><title>2026-06-21 12.1km</title><desc>1782018676000</desc></polyline><polyline fill="none" opacity="1" points="139.08809093257878,36.91957338533393 138.26349780420423,36.7165828770012 137.64143632136984,36.87728373860591 136.98320847327705,36.70812492798723 136.77344355464447,36.81807819559617 136.58537845520186,37.139479187870165 136.33221389821847,37.19868449289788 135.8982175148558,36.953405086605926 134.84939292172203,36.97032093190501 133.93076724364073,37.67232535513904 133.2219064841338,37.5708311208291 132.8530095582828,37.38475802337052 131.08085765954456,37.43550527469779 130.97959183674539,37.07181592841516 132.1586153449025,37.19868449289788 132.76621028158115,37.05490010460926 133.50400413328316,37.32555285609851 133.93800051664584,37.17331079609721 133.97416688193334,37.28326342404762 134.4370963575493,36.775788495164306 134.8349263756245,36.62354538846557 135.92715060710907,36.65737721500773 136.39731335573015,36.91957338533393 136.9976750194037,36.420554128657386 137.61973650220898,36.538965759507846 138.3285972616868,36.403638167066674 139.08085765954456,36.59817150917661 139.73185223457403,35.87078354549158 140.09351588736172,35.04189152041363 140.80237664686865,34.52594418627268 140.97597520021372,34.03536822337628 141.26530612248462,33.75624607343343" stroke="#4dd2ff" stroke-dasharray="none" stroke-linecap="round" stroke-linejoin="round" stroke-width="0.5"><title>2026-06-18 10.3km</title><desc>1781755773000</desc></polyline><polyline fill="none" opacity="1" points="170.85401519900188,32.09669467811182 169.9375420624856,32.323592101391114 169.44156836508773,32.04627296990657 168.6760437451303,32.14711636504944 168.3310185643495,31.844585923681734 168.4496209702338,31.441210807963216 169.45235040201806,31.264733765761775 170.2286570588476,30.697484361146053 170.9833996418747,30.76051220601221 171.4362451916677,30.571428571427532 172.71930758282542,30.873962242847483 173.53874238725984,30.672273213858716 173.76516516215634,31.10086199270154 172.40662851271918,33.81102007343725 171.8351805569837,36.23120220663259 173.50639627652708,36.98749905099976 176.1587773540523,37.64295243669767 175.85688032081816,40.126079705150914 173.65734479314415,39.62189561015839 173.26919146475848,40.1638934263392 173.53874238725984,40.61765714566718 173.29075553856092,40.857142857144936 172.9996405422571,40.819329355719674 172.91338424698915,40.4916118412948 172.2448979591718,40.55463451014657" stroke="#4dd2ff" stroke-dasharray="none" stroke-linecap="round" stroke-linejoin="round" stroke-width="0.5"><title>2026-06-11 10.1km</title><desc>1781164397000</desc></polyline><polyline fill="none" opacity="1" points="25.00932318091509,44.705096869431145 25.211302750074537,44.64715749813331 26.491776999784634,44.580304278344556 26.769975274291937,44.74520869517073 26.994820455045556,45.38253591116154 27.42164520494407,45.5296100527994 28.008529236074537,45.431560682107374 28.427732115451363,45.2131771723798 28.896477153291926,45.48504218532253 29.090834851915133,45.47612860618028 29.44144089645124,45.34688149643989 29.753937588378903,44.99479253016034 29.925429675378837,45.083929255619296 29.940673416451318,45.32459747191024 30.176951403016574,45.525153268179565 30.660940181915066,44.88782821058339 30.958193132741144,44.81206165315598 32.00238939591509,44.959137787162035 32.42159227527736,45.53406683696085 32.379671987349866,45.64548628749253 32.4292141458136,45.8816945477156 32.635004650233896,46.34519369851478 32.84079515465419,46.434327565773856 32.89795918366872,46.75520792597672 32.42540321055276,46.9869533323872 32.05574248965422,47.26772009722481 30.436095001161448,49.28205533773871 30.215060755668674,49.482592290580214 29.681529818291892,48.56457086591399 29.567201760277385,48.50218033427518 29.391898737987503,48.52000620990657 29.186108233581763,48.41750732210494 29.15562075145135,48.337290627234324 29.85302190532093,47.94957444839383 29.89113125797303,47.55294156094533 29.96353902804549,47.42815740823062 30.26841384943691,47.65098599300836 30.46658248329186,47.68663845717674 31.015357161755674,47.20087103726473 31.144928960842662,46.871080788576364 31.18684924877016,46.56357133824349 31.7927879562194,46.077790964835 31.88806133788603,45.850497306262696 31.884250402625185,45.33796788804102 31.819464503103518,45.23100444011288 31.66702709242236,45.16860897003062 31.48791313485708,45.195349897094275 31.099197737625218,45.60537531924638 30.958193132741144,45.60091854264465 30.782890110465814,45.38699271087535 30.82481039839331,45.62320242096757 31.007735291219433,45.82375679519828 31.529833422784577,45.75244868266236 31.125874284480233,46.064420783583046 30.81718852787162,46.12681492644333 30.81718852787162,46.233776099139504 30.52374651230639,46.78640449726663 30.378930972146918,46.808687748332886 30.180762338277418,46.69727137513837 29.940673416451318,46.657161408638785 29.2356503920455,46.87553743076933 28.633522619857104,46.83097098759754 28.34770247482811,47.28554649529906 27.547406068755663,47.74011709683691 27.478809233944048,47.98077013505463 27.20061095946585,48.208052297501126 27.105337577784667,48.475441506721836 26.64040347520495,49.17510190586836 26.419369229726726,49.375639367866825 26.061141314625274,49.54052501031765 25.885838292335393,49.53606865009351 25.702913399523823,49.366726612050115 25.48950102456729,49.331075569923996 25.378983901813626,49.331075569923996 25.165571526857093,49.482592290580214 24.94453728137887,49.54052501031765 24.66633900688612,49.406833998378715 24.395762602929608,49.07260461215992 24.38814073240792,48.85423998083206 24.1213752636977,48.711633896284184 23.987992529349867,48.19022628986568 23.7212270606542,47.93620486133659 23.728848931204993,48.39076844079682 23.641197420074604,48.894347855130036 23.37062101610354,49.028040493612934 23.32870072814694,48.947824961443985 23.225805475958623,49.07260461215992 23.161019576422404,49.05923538154093 22.951418136726716,49.210753079991264 22.93236346039339,49.14836350545738 22.757060438103508,49.24194783260464 22.6846526680456,49.179558304276725 22.61224489795859,49.25977339516612 22.69989640908898,49.39792124915766 23.02763684206002,49.46922319009536 23.164830511668697,49.70541000736921" stroke="#ff8800" stroke-dasharray="none" stroke-linecap="round" stroke-linejoin="round" stroke-width="0.5"><title>2026-06-06 21.6km</title><desc>1780740439000</desc></polyline><polyline fill="none" opacity="1" points="86.03023685721564,52.285714285713766 86.41547587901005,52.0861957002453 86.32742124545621,51.95103757689503 86.75118416946498,51.056411948116875 87.28501538533601,49.3250487097248 87.19696075181128,48.127869092757464 87.25749831236317,47.863971490547556 87.16944367883843,47.56145331800872 87.23548465399654,47.32973625299201 88.19307879384723,46.930665904346824 89.23872756730998,46.14539079599854 89.54691878473386,46.1003337198199 89.5744358577067,45.855737580826826 89.8881304897368,45.488841527239856 89.85511000215774,44.93527487006577 89.03510122722946,42.740269088149944 88.94154317904031,42.218863103804324 89.15067293372704,42.10299449996455 89.84410317297443,42.0 89.84960658758064,42.218863103804324 89.35980268844287,42.360479986400605 89.34879585923045,42.5407191779741" stroke="#4dd2ff" stroke-dasharray="none" stroke-linecap="round" stroke-linejoin="round" stroke-width="0.5"><title>2026-05-23 13.0km</title><desc>1779516917000</desc></polyline><polyline fill="none" opacity="1" points="148.7192498621298,48.211244470308884 143.02040816331282,44.05394825075928 143.51682294544298,43.42686321079964 145.72090457810555,42.98558007090469 148.79867622733582,46.58549555405625 153.26640926639084,49.79053187937825 153.26640926639084,50.20857664317009 151.38003309443593,51.30013421481999 148.7192498621298,48.211244470308884 144.13237727526575,44.982959829241736 143.04026475455612,44.07717358812806 143.04026475455612,43.72879326867405 145.74076116934884,43.03203096953803 148.93767236627173,46.77129604005313 152.948703805916,49.39571109312237 153.30612244899385,50.23180132894777 151.77716492011677,51.25368506711675 151.2410369553836,51.16078674211167 148.6993932708865,48.25769426229817 143.02040816331282,44.05394825075928 143.25868725869805,43.566215596860275 145.82018753455486,43.07848185842158 148.87810259242542,46.70162087617791 148.16326530615333,47.700296109338524 144.410369553254,45.21521210898936" stroke="#4dd2ff" stroke-dasharray="none" stroke-linecap="round" stroke-linejoin="round" stroke-width="0.5"><title>2026-05-10 15.1km</title><desc>1778395698000</desc></polyline><polyline fill="none" opacity="1" points="34.65306122449692,58.428664920065785 44.93877551029436,58.036063399515115 44.84721128817182,59.1067937433254" stroke="#4dd2ff" stroke-dasharray="none" stroke-linecap="round" stroke-linejoin="round" stroke-width="0.5"><title>2026-04-26 11.2km</title><desc>1777162036000</desc></polyline><polyline fill="none" opacity="1" points="130.97959183673083,59.6498986605111 131.088223616287,59.633178893909644 131.28833478916204,59.70340185416535 132.19169379812956,59.63652284793716 132.3146192328859,59.666618418270446 132.95497498607438,59.6498986605111 133.11506392438605,59.73684130415313 133.3208925593499,59.75021707423184 133.3837846422539,59.74018524720668 133.418089414743,59.646554707902396 133.58961327720317,59.64321075493535 134.40149289286637,59.69337001226995 134.46438497575582,59.83715944160758 135.22194870164094,59.87059874993247 136.09672040020814,59.85053516919652 136.8228380846267,59.75021707423184 137.88342730085424,59.489388535541366 138.53807670925744,59.215181850871886 138.58667513696128,59.18174184835516 138.5895338679984,59.09479767602534 138.82109108232544,59.02122934317231 139.2184546970384,58.81055544163246 139.2384658143128,58.67010539286639 139.32994520763168,58.58650387670059 140.17898832683568,57.96115751388788 140.62780910027504,57.51638491493031 140.97657428728417,57.26557053551005 141.05661875642545,57.33579876264048 141.26530612244096,57.3658965264367 141.0509012943512,57.5264174486565 141.06805368060304,57.620054276301744 139.610100849648,58.64669699065962 139.48717541489168,58.64669699065962 139.46430556658015,58.5697835469 139.34423886283184,58.589847941602784 139.23274835223856,58.68013755992797 139.22131342807552,58.81055544163246 138.8296672754368,59.024573362026786 138.71817676484352,58.910876522466424 138.1693004049739,59.30212569167452 137.79194790753536,59.39241327291529 137.48034622406703,59.51614027970936 137.4145954101259,59.59639537619114 137.02580798855342,59.706745800756835 136.15675375206047,59.847191237828156 135.1733502739371,59.87728660734865 134.4615262447187,59.83381550883314 134.4129278170294,59.800376161556414 134.39577543077758,59.68668211588374 133.45525291826925,59.626490984777774 133.35233860078733,59.74018524720668 133.10648773126013,59.73349736075215 132.98642102754093,59.6498986605111 132.3460652743379,59.679994218102365 132.17454141187773,59.63652284793716 131.24259509250987,59.713433692879335 130.99102676087932,59.800376161556414" stroke="#4dd2ff" stroke-dasharray="none" stroke-linecap="round" stroke-linejoin="round" stroke-width="0.5"><title>2026-04-12 19.4km</title><desc>1775975191000</desc></polyline><polyline fill="none" opacity="1" points="160.91172955767252,63.33722211807617 162.27327999589033,63.48385804638383 163.097376313759,62.20602702230099 162.50617678137496,60.718705119768856 162.70324329216965,59.29421733306663 162.3628556826152,57.47169595974265 161.4312685407931,56.1938261436153 161.19837175530847,54.18273563479306 160.64300249761436,53.428571428579744 159.7293304929044,53.49141855549533 157.22121126472484,54.664561262878124 157.72283511038404,56.612800762362895 158.51110115356278,57.8278221442597 158.2423740933882,58.26774184094393 158.38569519214798,59.9436174477305 157.8124107971089,61.80801239646098 158.81565848831087,63.71428571428987 160.78632359637413,63.2743781156023 162.30911027058028,63.33722211807617 163.18695200048387,62.059390147944214" stroke="#4dd2ff" stroke-dasharray="none" stroke-linecap="round" stroke-linejoin="round" stroke-width="0.5"><title>2026-04-09 10.0km</title><desc>1775707979000</desc></polyline><polyline fill="none" opacity="1" points="15.04422526244889,66.55210575336241 14.820871778531,66.36163901239343 14.775055679288926,66.03981466852565 14.998409163206816,66.38134249346331 15.26185173401609,66.49299544339738 15.582564428885235,66.44045290189388 15.513840280007571,66.73600416213594 16.103722558065783,66.30252853447018 16.166719694563653,66.65719062016433 16.487432389432797,67.14977373718284 16.865415208390914,67.44532186990546 17.031498568248935,67.46502503241209 17.495386573311407,67.23515444269287 19.408208717795787,67.11036722103745 19.499840916338144,67.33367050626111 19.671651288546855,67.29426409820735 20.169901368091814,68.12179380235466 20.542157174670137,68.18747032542888 20.49634107539896,69.03469170437165 20.633789373212494,69.56009493246529 20.857142857130384,69.78339005748421 20.811326757859206,70.0329543170592 20.43334393890109,70.22341062700434 20.4104358892655,70.61088903564087 20.22717149220989,70.45983839692781 20.055361119942972,70.61745644700568 19.740375437482726,71.18881877218519 19.643016226560576,71.59599354971579 19.545657015609322,71.51718572125537 19.574292077624705,70.6765631202361 19.482659879111452,70.39416410003469 19.660197263758164,70.00668443876202 19.580019090062706,69.63890506151074 19.448297804628965,69.51412231438735 18.97868278712849,69.49441975413356 19.15622017183341,69.4024743964037 18.921412663068622,69.29739383314882 18.709513203939423,69.34336659983092 18.73242125354591,69.71771509790415 17.919185491540702,70.02638684845442 17.821826280618552,70.22341062700434 17.111676741973497,70.30878741788183 16.968501431751065,70.47297324858664 16.43588927775272,70.62402385770838 16.412981228117133,70.36132692745014 16.871142220828915,69.74398508947343 17.04295259306673,69.13320512330392 16.842507158755325,68.62750137029798 16.71651288578869,68.52898720822122 16.779510022257455,68.43704052632529 16.453070314979414,68.44360815063555 16.292713967559393,68.33852608433517 16.344257079210365,68.22687620839861 16.6821508113062,68.12179380235466 16.699331848561997,67.79341022174049 16.493159401841694,68.04298188972462 16.103722558065783,67.85908706655755 16.487432389432797,67.88535778647201 16.475978364615003,67.4321864250087 16.630607699626125,67.32710277318256 16.43588927775272,67.33367050626111 16.304167992377188,67.59637930119061 15.903277123783482,67.50443134007946 15.765828825940844,67.84595170273678 15.616926503309514,68.71288019367057 14.694877505564364,69.50098727484874 14.305440661788452,70.73566974137066 13.950365892465925,71.06403890984802 13.744193445745623,72.25272185121139 13.601018135552295,72.25272185121139 13.114222080796026,72.58765080809826 12.696150174975628,72.66645737834187 12.62742602606886,73.23780224247457 12.484250715846429,73.55302491110342 11.665287941461429,73.49392077363154 11.470569519558921,73.57272627868952 11.373210308607668,73.38884662279452 11.13840279984288,73.3560109168975 11.092586700571701,73.63183034671965 10.663060769962613,73.73033701098029 10.571428571420256,73.96018533147435" stroke="#4dd2ff" stroke-dasharray="none" stroke-linecap="round" stroke-linejoin="round" stroke-width="0.5"><title>2026-03-22 12.8km</title><desc>1774137608000</desc></polyline><polyline fill="none" opacity="1" points="170.68411664933956,70.6483686381871 170.85232806261047,70.67094787403221 170.94608524376235,70.65481985014594 171.0095092192496,70.55160029498256 171.94708103081211,70.62256377674203 171.96914154403203,70.74191107768638 172.05738359688257,70.76771583802292 173.23486348964798,70.78061820998482 174.20001094273175,70.69675269448999 175.17067352411686,70.45805727093466 175.9345187941217,70.18065213083537 175.9869125130208,70.1064619557892 175.93176122996374,69.93550129907271 176.10824533567938,69.86453621629516 176.2130327734485,69.95808106346703 176.5963341905299,69.75163688012253 176.59081906222855,69.6548656873947 176.66251573017507,69.57744851179996 177.3877551020414,69.04842587748863 176.701121628299,69.54196557388241 176.60460688298917,69.63873712538043 176.59357662637194,69.75808828203662 176.356426109327,69.88711603330194 176.19097226021404,69.96453242163807 176.10273020737804,69.85485914673518 175.9345187941217,69.93872698072664 175.89591289599775,70.04517428355757 175.43815724682645,70.28064729818652 175.15964326751418,70.33870885758733 174.91697762215335,70.43870350595171 174.8700990315847,70.50644162959361 174.3378891503089,70.65159424434387 173.47201400669292,70.76771583802292 172.80192591783998,70.77094143152499 172.0105050062848,70.73868548110477 171.93880833835283,70.59675889341452 171.158417683444,70.548374678252 170.99020627017308,70.548374678252 170.93505498714512,70.64514303171381 170.69238934179884,70.65159424434387 170.58760190404428,70.5677283735422 169.53696996225335,70.5677283735422 168.94685123379168,70.63224060235007 168.66006456202012,70.70642949653848 168.122339552443,70.70642949653848 167.75006839197886,70.81932529308324 167.5487662088999,70.95157412251137 167.42467582206882,70.90319047104458 167.10204081633128,70.94189739836838" stroke="#ff9000" stroke-dasharray="none" stroke-linecap="round" stroke-linejoin="round" stroke-width="0.5"><title>2026-02-18 20.3km</title><desc>1771394553000</desc></polyline><polyline fill="none" opacity="1" points="46.693877551020705,83.76960228738972 46.73974131865543,83.91624075082655 46.840641607414,83.94127652240786 48.433643136231694,83.94842959657763 49.237787861871766,83.8554395139945 50.34769103837607,83.58719745638155 51.09985682739352,83.31180006033173 51.18852677814721,83.21523161035293 51.13043267247849,83.02924715075642 51.32000291199074,82.94698446687471 51.43619112329907,83.061436842072 51.83367710937455,82.85041497353814 51.864252954459516,82.70734854980037 51.93457739814767,82.62866175835734 52.206702419396606,82.56428151986984 52.93746511686186,82.09930948591864 53.24016598316666,81.82747671542165 53.4419665607129,81.82747671542165 53.82722220873984,81.57352570243893 54.01679244826664,81.29811188132226 53.9831590186659,81.20511449925107 54.15438375112717,81.22299863108856 54.5029483850667,80.88677536747855 54.60384867385437,80.9654662186731 54.692518624593504,80.90465966795455 54.75061273024767,80.85458360277335 54.753670314734336,80.77231562013549 55.11446528672241,80.48974145725879 55.22759591351496,80.4754338417988 56.76556092116516,79.11975976849862 56.8481157028873,79.16983840719695 56.979591836745385,79.00529402965185 56.91538256207423,78.90871326056367 56.783906428230694,79.08041221455278 56.67689097042603,79.07325810890688 56.31915358296828,79.41307645260895 56.21213812517817,79.36299817477993 56.31915358296828,79.40949943523083 56.429226625259616,79.33438198265867 56.47509039287979,79.39876838080818 55.943070688445005,79.89597031953599 55.36212963187427,80.36812653253946 54.75978548376588,80.76873874678131 54.75061273024767,80.85816046703985 54.61913659638958,80.9726199233337 54.49683321604971,80.90465966795455 54.28891746950103,81.12642420664997 53.82722220873984,81.46264508359673 53.83945254677383,81.56994891396607 52.24950860250101,82.67158184915388 52.13026280667691,82.65012181057682 52.11191729962593,82.57501156813669 51.36892426412669,82.7145018853771" stroke="#ff7e00" stroke-dasharray="none" stroke-linecap="round" stroke-linejoin="round" stroke-width="0.5"><title>2026-02-08 23.1km</title><desc>1770528486000</desc></polyline><polyline fill="none" opacity="1" points="51.65129255719876,99.28012532127013 51.972857113349164,99.14285714285688 52.05965981562622,99.36087050118567 52.1178570819211,99.66654326503249 52.49761890437367,100.47047939874301 52.54299304419692,100.71384005651998 52.60217670484053,100.85570182065021 52.68306104104704,101.16248599223127 52.750135856440465,101.52346533906803 52.98785689335273,102.09547204529736 52.99772083679272,102.15428555047129 52.97897934425782,102.18542198367231 52.928673232712754,102.20502635898629 52.781700475450634,102.3491750956382 52.649523633353965,102.38261733035233 52.655441999417235,102.43566342344002 52.68306104104704,102.46103320287511 52.921768472300755,102.47256490129712 53.04802694834143,102.43220390349234 53.13384325626612,102.37454507618622 53.311394238196954,102.19810717172095 53.41891122168818,102.04473072723249 53.489931614461966,101.87059395451251 53.516564261753956,101.75527005843924 53.48499964274379,101.97323119663997 53.44850305201544,102.10585092219026 53.259115337958065,102.38146415155188 53.355781983675115,102.54521432109414 53.3922785744071,102.56481804990744 53.43666631988526,102.55328644898782 53.65761865294917,102.23385625868468 53.84799276134072,102.00898102051269 54.02357095458137,101.69184139591471 54.030475714989734,101.6526307655131 54.01272061679629,101.61111347381393 53.81938732536946,101.46580170843026 53.80360501585892,101.42659026547335 54.024557348926464,101.27320297262213 54.113332839886425,101.16248599223127 54.13700630414314,101.16940583643009 54.25044165370491,101.319334716085 54.125169572012965,101.57190255322348 54.00877503941956,101.76218952658564 53.99496551860284,101.82907749237802 53.95057777312104,101.90173119742394 53.91309478805488,101.92825544536117 53.87166622559744,102.03781143829838 53.66353701901244,102.35148145994208 53.57969349976702,102.46218637326456 53.49880916356051,102.51523207948776 53.4554078124238,102.58788121517864 53.293639140003506,102.712421465234 53.12102012979449,102.79314123841232 52.99476165376109,102.81505078809187 52.94840111958911,102.61786325714547 52.75901340553901,102.66052986713476 52.704761716613575,102.52099790157536 52.10897953282256,102.56943068686178 51.81207483527396,102.64899836737641 51.693707513990375,102.7147277527556 51.5299660528799,102.77469105719138 51.65129255719876,103.09756472454319 51.64734697982203,103.12293296502776 51.5487075454148,103.11947366297773 51.17190490599751,103.05144049983755 51.02591854308048,103.08372747760313 51.01112262792594,103.10448334142984 50.99139474104231,103.36623445814894 50.941088629497244,103.47116375965743 50.60176897515703,103.74789553999653 50.31472822104479,103.88741181865225 50.3137418266997,103.90816615399672 50.400544528973114,104.02807931881853 50.4044901063462,104.07996441448358 50.3226193757946,104.2448420812816 50.15690512599758,104.70717805932782 50.13717723911395,104.88357540387369 50.19241532238448,105.25480756299203 50.318673798417876,105.67675177076944 50.29993230587934,105.81278495207698 50.248639799992816,105.97648365235727 50.240748645239364,106.1125130997998 50.27527244728117,106.22779096609429 50.45479621789491,106.55863168480118 50.465646555679996,106.63817029351776 50.45479621789491,106.76266434429635 50.4113948667582,106.85833936343624 50.266394898182625,107.03585464882053 49.89748341352242,107.58567264927387 49.59466034990328,107.92799818032199 49.51081683065786,108.10088578604882 49.42302773404663,108.50543209317493 49.42302773404663,108.59532923852385 49.47234745124297,108.87538868117008 49.61537463112836,109.42857142857156" stroke="red" stroke-dasharray="none" stroke-linecap="round" stroke-linejoin="round" stroke-width="0.5"><title>2025-11-30 42.8km</title><desc>1764458479000</desc></polyline><polyline fill="none" opacity="1" points="89.87112304428592,100.5590151293436 87.06694530043751,99.14285714284051 84.96381199266762,101.52796368970303 86.04724430269562,108.01243127818452 88.91515335883014,109.42857142857974 90.95455535431392,107.04349164006999 89.80739173176698,100.40994600171689 86.93948267563246,99.21739184466423 84.96381199266762,101.45342923240969 86.11097561498173,108.0869650413515 88.78769073425792,109.42857142857974 90.95455535431392,107.04349164006999 89.87112304428592,100.5590151293436 87.13067661272362,99.14285714284051 84.96381199266762,101.52796368970303 85.98351299040951,107.86336372827645 88.78769073425792,109.42857142857974 90.95455535431392,107.04349164006999 89.87112304428592,100.5590151293436 87.06694530043751,99.14285714284051 84.96381199266762,101.37889476737473" stroke="#4dd2ff" stroke-dasharray="none" stroke-linecap="round" stroke-linejoin="round" stroke-width="0.5"><title>2025-11-26 8.7km</title><desc>1764155703000</desc></polyline><polyline fill="none" opacity="1" points="149.03107246008585,105.66608802204246 148.0979464880802,105.6255882016776 148.07128574602393,105.60128825088213 148.0592884120997,105.47168777134993 147.88199447742227,105.4668277290557 147.40210112038767,105.37124654017498 146.8102326467124,105.06181802936408 146.63027263782715,104.92249187128982 146.3556669946338,104.6276340762006 145.97575142032292,104.07516331832448 145.7771288919903,103.83861464180336 144.66937505950773,103.1013985611653 144.32545148697682,102.95557080824892 144.26279874313332,102.97015365476727 143.7482464214263,102.90372055910939 143.1937029866458,102.91344249606573 143.0204081632619,102.93774730767655 143.12038594598562,103.15000746041824 143.15771098485857,103.17917271555416 143.54562478179287,103.01390209935107 143.54829085600068,102.93774730767655 143.5669533754408,102.91992378345822 143.74291427301796,102.90696120553912 144.40676675024588,102.98473648545587 144.70403402418742,103.12084214197148 145.00530040943704,103.3136561285819 145.27990605262312,103.52753059122733 145.64782429301704,103.73330053521659 145.77846192909055,103.8418550627639 145.94775764115911,104.03141832896108 146.4089884787536,104.71674013592656 146.67559589932353,104.97757447851473 147.0101882121453,105.2027627894422 147.42876186244393,105.38258671676977 147.86333195798215,105.46196768500795 148.05129018947628,105.4733077850542 148.0686196718234,105.49436794547546 148.0659535976156,105.60776824205641 148.08594915415597,105.62720819683273 149.05373409083404,105.66770801231996 149.706922271238,105.59804825412175 149.75357856983464,105.54782820449782 149.7255847906854,105.44738754231003 149.77757323769038,105.42794732745278 149.98286095153162,105.39554690687419 150.3774399339818,105.3890668133854 151.09594693242252,105.26270436587492 151.76113244675798,105.07477852878674 152.0504014980761,104.9565135082903 152.49963500173908,104.8155661657338 153.3061224489793,104.59847196469855" stroke="red" stroke-dasharray="none" stroke-linecap="round" stroke-linejoin="round" stroke-width="0.5"><title>2025-11-16 42.7km</title><desc>1763252375000</desc></polyline><polyline fill="none" opacity="1" points="86.91100214018661,110.93621786227231 87.03431761468528,111.19637462393803 86.9593611497985,111.7251637128993 86.9883765555569,111.91179265754909 87.05607916900772,112.00793433244871 87.01497401084634,112.34725512598197 87.22291775216581,113.2690548631872 87.1576330891985,113.62815228969157 87.22049980168231,113.9306951952749 87.45745894877473,114.42267354194155 87.40909993916284,114.52728845955426 87.4719666516612,114.7280348573986 87.85883872854174,115.63844325905302 87.84674897613877,115.75153530525131 87.96281059920148,116.07667227290221 88.0329311631358,116.61950083231568 88.09579787563416,116.72976153659147 88.344846775115,116.91070119405776 88.36902627992094,117.07750385592954 88.31099546838959,117.28671250298976 88.55762641740148,117.43655012244017 88.55037256596552,117.51570928049114 88.43672889337176,117.61183080018418 88.44640069530578,117.79841864603077 88.51893920970906,118.04154630953781 88.53102896212658,118.23661225504293 88.58422387269093,118.344039269512 88.64467263470578,118.86986000853722 88.763152208252,118.98011143278927 88.7921676140104,119.28542069678952 88.87437793034769,119.6218222382704 88.93482669236255,119.70945555847538 88.85745227699226,119.92995102932036 88.92757284092659,120.07694699987223 88.90822923708765,120.24090309074381 89.00736520676583,120.43312619307835 89.05330626590876,120.85714285714312 89.00736520676583,120.43029939275584 88.94933439524902,120.36245609546313 88.90822923708765,120.21263487092801 88.92757284092659,120.05150544740718 88.86228817794472,119.91864361350599 88.92999079141009,119.70380180455686 88.80183941592986,119.31651681511539 88.763152208252,118.99141924547075 88.64467263470578,118.86986000853722 88.58422387269093,118.36100139024165 88.45123659625824,117.83799771866143 88.4294750419358,117.6259662886423 88.55279051643447,117.45633993392039 88.30615956743713,117.29236676802248 88.36419037896849,117.08598531940333 88.34968267608201,116.92200988197874 88.13932098427904,116.77216937868616 88.04018501457176,116.64494565059067 87.95555674776551,116.07667227290221 87.84191307517176,115.74305341838408 87.84916692660772,115.64127056603684 87.47680255262821,114.77610067258865 87.4115178896318,114.52446103472903 87.38008453340444,114.54708042493075 87.358322979082,114.4763947669926 87.33172552379256,114.50749647952034 87.37766658292094,114.44812045147955 87.37041273148498,114.24454449678888 87.20599209881038,113.8939378287796 87.14312538631202,113.5574642013271 87.2156639007153,113.30864064289563 87.00288425844337,112.2426316741039 87.05849711949122,112.01358971431 86.95694319931499,111.81282292499418 87.03673556516878,111.2189968313287 86.9085841897031,110.94752907849397 86.92792779354204,110.7552377513839 86.86506108104368,110.57142857142935" stroke="#ff8100" stroke-dasharray="none" stroke-linecap="round" stroke-linejoin="round" stroke-width="0.5"><title>2025-10-27 22.6km</title><desc>1761522564000</desc></polyline><polyline fill="none" opacity="1" points="126.7459691693075,118.97385460173246 126.00243339734152,112.09256505756639 123.21417425270192,110.57142857142026 121.41729613696225,112.8169145786087 121.91298665152863,119.26359159324784 124.70124579616822,120.85714285715949" stroke="#4dd2ff" stroke-dasharray="none" stroke-linecap="round" stroke-linejoin="round" stroke-width="0.5"><title>2025-10-23 8.3km</title><desc>1761191597000</desc></polyline><polyline fill="none" opacity="1" points="160.87011205413728,110.69275957290301 160.9468748823565,110.92487023421927 160.63079264844419,111.14115419961308 160.37341140082572,111.44711528577682 160.73916370005463,112.1276082357981 161.19522520902683,114.0371591922376 161.23134889290668,115.07102930765905 161.17264790661284,115.77784658535893 160.76625646298635,117.48155168581434 160.79334922588896,117.7294544064971 160.64885449036956,118.10394342244035 160.36438047984848,118.12504131181777 160.0076591015677,118.90565696768317 160.19279298145557,119.07971150161393 160.02120548303355,119.4067214137176 159.17681437241845,120.8571428571413 160.18376206044923,119.09026024179548 159.9850817991537,118.90038257841297 160.346318637894,118.14086472301278 160.3959887032397,118.09339447442471 160.56757620166172,118.14613919229669 160.66240087183542,118.06702209465584 161.0462150130188,116.44245671165481 161.1861942880787,115.49301097265197 161.18167882756097,114.03188428995782 160.72561731861788,112.16453394514247 160.346318637894,111.43128975824948 160.65336995085818,111.0936773116664 160.9242975799425,110.91959500386656 160.8520502121828,110.68220906271017 160.68949363473803,110.57142857142753" stroke="#4dd2ff" stroke-dasharray="none" stroke-linecap="round" stroke-linejoin="round" stroke-width="0.5"><title>2025-10-19 14.0km</title><desc>1760852519000</desc></polyline><polyline fill="none" opacity="1" points="112.45888792007463,123.05658151684474 112.19012760992337,123.3655773090286 112.53994261680054,123.98854655629111 112.98361043035402,125.93215785305802 113.0177387237054,126.73449716735195 112.85989536694251,128.06505471788478 112.4759520667576,129.63476549083498 112.37356718670344,129.7144954413052 112.23278797663806,129.64971486678405 112.17732949992933,129.70452920484604 111.8488446764095,130.41710981860524 112.01948614318098,130.60646509927392 111.06389392935671,132.28571428571377 111.7976522364188,131.0399861767255 111.95976162981242,130.64632927228377 112.1943936466123,130.45199111147303 112.04934839987254,130.60148207529346 111.86590882310702,130.49683845024265 111.84457863976422,130.41710981860524 112.20719175662089,129.64971486678405 112.37783322337782,129.69954608583794 112.4759520667576,129.62978236447452 112.83003311028006,128.1447873147663 113.00067457703699,126.80924858410071 112.97081232034543,125.8922897059856 112.53141054345178,124.02841630862167 112.18586157326354,123.36059352196025 112.45035584674042,123.07651679018454 112.74471237690886,122.88214751651685 112.65939164352312,122.66285814581715 112.50154828677478,122.53826145930361 112.10480687655217,122.70771287257594 111.53315796295647,122.0" stroke="#4dd2ff" stroke-dasharray="none" stroke-linecap="round" stroke-linejoin="round" stroke-width="0.5"><title>2025-10-07 14.0km</title><desc>1759810688000</desc></polyline><polyline fill="none" opacity="1" points="124.1023821614217,155.14285714286962 125.22285560984164,151.5525868347613 122.9404096964281,144.8571428571595" stroke="#4dd2ff" stroke-dasharray="none" stroke-linecap="round" stroke-linejoin="round" stroke-width="0.5"><title>2025-07-20 13.2km</title><desc>1752965179000</desc></polyline><polyline fill="none" opacity="1" points="39.89799449901329,156.28571428571013 39.99677785226959,156.6550095926359 39.60822999617085,156.8627373815907 39.15382657130249,157.36282037440105 39.70042779255891,158.41683022960206 40.319470139511395,160.9248508738965 40.43801016337238,162.60963843871286 40.2009301155922,164.63287074816617 39.73994113385561,166.1637202879574 39.76628336135764,166.57142857142753" stroke="#4dd2ff" stroke-dasharray="none" stroke-linecap="round" stroke-linejoin="round" stroke-width="0.5"><title>2025-06-29 12.0km</title><desc>1751152499000</desc></polyline><polyline fill="none" opacity="1" points="93.10204081633128,157.89941947849002 92.86982149808318,158.49857649935439 92.25323917032802,159.57048563124772 91.80481565922673,160.127493669228 91.78079297112708,160.6096042139652 91.65267196796776,160.69385600343958 91.43646777511458,160.6657720914336 91.33236946004035,160.7219398976522 90.9199799811031,161.21808575885734 90.46354890731163,161.9903772192847 89.52666407162906,162.69244867956513 89.33448256687552,162.97795455711457 88.93410443197354,162.84690290739672 88.20541622642486,163.22133516360554 87.89312128120218,163.32430347916306 87.81704943555815,163.24473707453217 87.63687927485444,163.30558198504514 87.52877717844967,163.35706607482643 87.50475449035002,163.47407514722 86.85213813044538,163.76893663880037 86.60390368681692,163.75957598668538 86.03136295388686,163.9514689594762 85.74309069676383,163.9655098760668 85.20258021463815,164.1386808147181 84.97836845909478,164.34929320613082 84.5099260412535,164.3960958237949 84.08152143690677,164.7283929872392 83.79725296111428,164.80327651089465 83.61708280042512,164.74711388001379 83.51298448533635,164.92028176318854 83.34882945002755,164.83603801269055 83.17266307066893,164.91560155903426 82.95645887781575,164.84539843732273 82.8163265306066,164.95772337865492" stroke="#4dd2ff" stroke-dasharray="none" stroke-linecap="round" stroke-linejoin="round" stroke-width="0.5"><title>2025-06-22 15.1km</title><desc>1750548259000</desc></polyline><polyline fill="none" opacity="1" points="189.4285714281723,176.26721822307445 179.1428571427241,169.44706749124452" stroke="#4dd2ff" stroke-dasharray="none" stroke-linecap="round" stroke-linejoin="round" stroke-width="0.5"><title>2025-05-11 9.2km</title><desc>1746938990000</desc></polyline><polyline fill="none" opacity="1" points="110.99734751530923,179.1428571428587 111.26611978485016,179.73453524417346 111.11328849432175,180.93019972514958 111.18179907285958,181.26300918229026 111.31882022987702,181.45406560393167 111.22922947336338,182.18130689485042 111.6771832559316,184.23972030543155 111.52435196543229,184.94227589579168 111.66664316694369,185.60784705969854 112.08824672704213,186.4644506061777 112.0091960595455,186.90199144230792 112.10932690504706,186.90815396582184 112.15675730557996,187.24092926774028 113.08428513776744,189.42857142857247 112.35701899658307,187.8140378316457 112.15675730557996,187.10535437421277 112.08824672704213,187.15465437199236 112.03554628204438,186.91431648869184 111.9617656590126,186.8896663933192 112.07243659356027,186.91431648869184 112.26215819557547,186.65548996699 111.92487534749671,186.77874083503775 111.7825841459562,186.729440519106 112.03554628204438,186.48293831364572 111.64029294444481,185.62017237990585 111.52435196543229,184.97308954350228 111.66664316694369,184.20890626977052 111.17652902833652,182.0087419865631 111.29247000734904,181.51569657399523 111.13963871682063,181.2260304476331" stroke="#4dd2ff" stroke-dasharray="none" stroke-linecap="round" stroke-linejoin="round" stroke-width="0.5"><title>2025-04-13 17.0km</title><desc>1744513358000</desc></polyline><polyline fill="none" opacity="1" points="122.39025767950807,180.009038444201 122.8073090427788,180.14437900853227 124.45234497578349,179.14285714286962 125.40229530353099,179.71128895145375 125.77300762652885,181.14589696770418 124.19748025375884,182.093275225634 122.87681760324631,183.6632086429745 124.82305729889777,187.23612477749703 125.33278674294706,189.42857142857974 125.10109154111706,187.75040406757034 122.87681760324631,183.6632086429745 124.54502305667847,181.74139228073182" stroke="#4dd2ff" stroke-dasharray="none" stroke-linecap="round" stroke-linejoin="round" stroke-width="0.5"><title>2025-04-12 10.0km</title><desc>1744429372000</desc></polyline><polyline fill="none" opacity="1" points="16.8467407329008,223.71428571428987 16.623439743416384,222.2608877203893 13.688626737217419,216.74537430593045 15.79403606778942,214.4347958144499 17.739944691536948,213.42857142855064" stroke="#4dd2ff" stroke-dasharray="none" stroke-linecap="round" stroke-linejoin="round" stroke-width="0.5"><title>2025-02-01 10.0km</title><desc>1738384413000</desc></polyline><polyline fill="none" opacity="1" points="22.61224489795859,217.3532529461154 22.92061074927915,217.81810676235182 23.646983643557178,217.6898715119387 25.20251804916188,217.09678065322805 24.537818325159606,217.12082496761286 24.195189601479797,217.48950349831284 23.74291968619218,217.6658273783105 23.921086622518487,218.14670860004844 25.826102326303953,217.83413615337486 26.9499245400948,217.49751822904364 26.76490502926754,216.61589276207087 26.394866007671226,216.61589276207087 25.997416688187514,216.89641106981435 25.38068498551729,217.08075110606296 26.607295816356782,216.58383346072515 26.86084107190254,216.88839627546258 27.0595657316735,217.4574445669059 28.066894179413794,217.04067722334003 28.76585677577532,217.0486920015901 29.067370052624028,216.8643518872559 30.581789011397632,216.47964063753898 30.759955947723938,216.3353734148477 30.602346734842286,215.88654029707686 30.66401990511804,215.7502868597512 31.993419353093486,215.66212274022837 32.3360480768024,215.7983763362281 32.822580864449264,215.7743316018241 32.89795918366872,216.0227934891227 32.67867680051131,216.96052939422952 32.754055119730765,218.0104592306816 31.64393805488362,218.4352358669421 31.733021523075877,219.0122871018466 31.58226488463697,219.14052011229796 31.205373288568808,219.3408837563111 30.72569307536469,219.3248546843024 29.793742946872953,219.58131942916953 29.533345116855344,219.12449099787045 28.08745190280024,219.56529040809255 27.75852832806413,219.4611016882045 27.176059497724054,219.68550798362412 27.189764646667754,219.81373985383107 27.09382860403275,219.7175659715358 26.9362193911511,220.10226076763502 26.70323185902089,220.22247749054077 26.662116412160685,220.11027522177028 26.68267413560534,220.22247749054077 26.388013433170272,220.1182896750397 26.079647581849713,219.81373985383107 25.19566547469003,219.94998597790982 25.017498538363725,220.0942463126412 26.065942432935117,220.90370198152232 26.70323185902089,220.78348634026042 27.03900800825795,221.27236209117837 27.484425349073717,221.48073440261942 27.81334892383893,221.40860559046268 28.053189030411886,221.18420440217596 28.3684074562334,221.27236209117837 28.436933200981002,221.0559748531232 28.978286584460875,220.92774508686125 29.074222627095878,221.32044806010526 29.862268691620557,221.09604661051708" stroke="#4dd2ff" stroke-dasharray="none" stroke-linecap="round" stroke-linejoin="round" stroke-width="0.5"><title>2025-01-25 14.8km</title><desc>1737764447000</desc></polyline><polyline fill="none" opacity="1" points="177.3877551020414,217.88859840920486 175.8470085708541,217.61710772415972 175.55152293472202,217.68292373483564 174.99572852396523,218.20944981495268 174.87612719504978,218.546753711591 174.9746224070841,218.8593755289039 174.86205645048176,219.04859338674578 174.90426868424402,219.32007907427032 174.66506602641311,219.52574941869534 173.82082135177916,219.4681617770766 173.35648678077268,219.32830589847435 173.19467321812408,219.17199608947703 172.50520673385472,219.18844976837863 172.26600407605292,219.37766682553047 171.689103548415,219.41880090747145 171.25994583879947,219.41880090747145 171.10516764846398,219.2871717686794 169.56442111730576,219.3529863659278 168.74128255955293,219.22958395039313 167.94628549093613,219.37766682553047 167.49602166449768,219.22958395039313 167.10204081633128,219.3941204609" stroke="#4dd2ff" stroke-dasharray="none" stroke-linecap="round" stroke-linejoin="round" stroke-width="0.5"><title>2024-10-28 17.0km</title><desc>1730088256000</desc></polyline><polyline fill="none" opacity="1" points="189.42857142887078,215.78674302934087 179.14285714295693,221.35611411352875" stroke="#4dd2ff" stroke-dasharray="none" stroke-linecap="round" stroke-linejoin="round" stroke-width="0.5"><title>2024-10-25 14.0km</title><desc>1729815581000</desc></polyline><polyline fill="none" opacity="1" points="155.06122448979295,239.1044498767551 155.17413024484995,239.06088377942797 155.19671139586717,239.27000064227468 155.28327247474226,239.2307913083132 155.39241470462002,239.2743572327272 155.55800981204084,239.47911648362788 155.8478012500127,239.55753466078386 156.3182418960787,239.36584552970817 156.33329599676654,239.55753466078386 156.40856650014757,239.5226821553406 156.47630995317013,239.59674369548884 156.36340419811313,239.7666490975862 156.45372880216746,239.78407525455623 156.39727592463896,240.02804070717684 156.55158045655116,240.3286390851972 156.84137189452304,240.49854158261587 158.18871390487766,239.6620920068708 158.2338762069121,239.74486639142197 157.91774009272922,240.17180541216658 157.76343556083157,240.28507423364863 157.72580030914105,240.48111571647678 157.6542933309247,240.54646267793214 157.669347431598,241.0038886153743 158.00053764643962,241.9230821500787 157.86505074037996,242.114759831853 158.00053764643962,241.9492200662935 158.13978807767853,242.03199002907058 158.279038508932,241.83595564742063 158.3016196599201,242.21931093296735 158.61775577408844,242.30208037364355 159.07314231951023,242.7986936577363 159.31777145544766,242.8858182014228 159.5736911669228,243.269164087651 159.71670512331184,243.3257944390025 159.9086449069291,243.5174658416945 160.2398351217562,243.45647957935944 160.3376867761399,243.50004120416997 160.66511346580228,243.79625907771333 161.00383073097328,243.53924662862119 161.30491274445376,243.6133012213104 161.4780349022185,243.41727407912185 162.1404153318872,243.46519190785693 162.27590223794687,243.40420557107063 162.68989000648435,243.49568504367562 163.0587154730165,243.38242471545527 163.17538475323818,243.50875352381627 163.24689173143997,243.75705388857386 163.63829834897479,243.38242471545527 163.74744057885255,243.43905491700934 163.9167992114526,243.16897174411497 164.07863079369417,243.0731353700503 164.05228611752682,242.75948755524587 164.4963820874109,242.73770637168855 164.80499115122075,242.80304988912394 164.902842805619,242.30208037364355 164.80122762608516,242.21931093296735 164.8614440287638,242.16703541432435 164.8501534532552,242.0494152640058 165.01198503551132,242.07119679770767 165.10983668989502,241.9230821500787 165.34693877550308,241.8228866567224" stroke="#4dd2ff" stroke-dasharray="none" stroke-linecap="round" stroke-linejoin="round" stroke-width="0.5"><title>2024-05-25 14.8km</title><desc>1716598951000</desc></polyline><polyline fill="none" opacity="1" points="66.02583311824128,249.08839686511783 59.58098682528362,251.67703938105842 58.79979333537631,255.02703351335367 61.72926892293617,256.62588884914294 68.04391630063765,254.03726414375706 68.95530870580114,250.76340190978954 66.02583311824128,249.08839686511783 59.646086282795295,251.6009029696579 58.79979333537631,255.02703351335367 61.66416946542449,256.62588884914294 68.04391630063765,254.03726414375706 68.95530870580114,250.76340190978954 65.96073366049677,249.08839686511783 59.646086282795295,251.6009029696579 58.79979333537631,255.02703351335367 61.66416946542449,256.62588884914294 68.04391630063765,254.11340029764688 69.02040816331282,250.9918113864842 66.02583311824128,249.08839686511783 59.646086282795295,251.67703938105842 58.7346938776318,254.95089745649602 61.72926892293617,256.62588884914294 68.04391630063765,254.11340029764688 69.02040816331282,250.9918113864842 66.09093257552013,249.08839686511783 59.646086282795295,251.6009029696579 58.7346938776318,254.87476139125647 61.66416946542449,256.62588884914294 68.04391630063765,254.11340029764688 68.95530870580114,250.76340190978954 66.02583311824128,249.08839686511783 59.71118574030697,251.6009029696579 58.79979333537631,255.02703351335367 61.599070007679984,256.62588884914294 68.04391630063765,254.03726414375706" stroke="#4dd2ff" stroke-dasharray="none" stroke-linecap="round" stroke-linejoin="round" stroke-width="0.5"><title>2024-05-07 10.0km</title><desc>1715083186000</desc></polyline><polyline fill="none" opacity="1" points="88.6209562101867,255.4117959450814 89.13886515214108,258.0 88.9086834002519,255.848766934796 86.1177296579117,250.80675756986602 87.87286551634315,248.7899315006507 89.80063768895343,247.71428571428987" stroke="#4dd2ff" stroke-dasharray="none" stroke-linecap="round" stroke-linejoin="round" stroke-width="0.5"><title>2024-04-27 10.0km</title><desc>1714177464000</desc></polyline><polyline fill="none" opacity="1" points="109.64122474938631,249.65635556011694 110.07192067336291,256.34566483524395 112.47151225036941,258.0 114.50193589320406,256.12988169147866 114.00971197965555,249.15285650250735 111.73317638086155,247.71428571426077 109.57969676004723,249.65635556011694 110.01039268448949,256.34566483524395 112.40998426149599,258.0 114.50193589320406,256.12988169147866 114.00971197965555,249.22478496207623 111.61012040218338,247.71428571426077 109.57969676004723,249.65635556011694 110.07192067336291,256.48952022677986 112.71762420726009,257.9280724677956 114.50193589320406,256.0579539615428 114.00971197965555,249.15285650250735 111.73317638086155,247.71428571426077 109.57969676004723,249.58442714618286 110.07192067336291,256.4175925348536 112.34845627215691,258.0 114.50193589320406,256.12988169147866 114.00971197965555,249.22478496207623 111.73317638086155,247.71428571426077 109.57969676004723,249.65635556011694 110.07192067336291,256.48952022677986 112.34845627215691,258.0 114.50193589320406,256.2018094137311 114.00971197965555,249.22478496207623 111.67164839152247,247.71428571426077 109.57969676004723,249.65635556011694 110.07192067336291,256.4175925348536 112.47151225036941,258.0 114.50193589320406,256.12988169147866 114.00971197965555,249.15285650250735 111.73317638086155,247.71428571426077 109.57969676004723,249.65635556011694 110.07192067336291,256.5614479109645 112.71762420726009,257.9280724677956 114.50193589320406,256.0579539615428 114.00971197965555,249.15285650250735" stroke="#4dd2ff" stroke-dasharray="none" stroke-linecap="round" stroke-linejoin="round" stroke-width="0.5"><title>2024-04-18 10.1km</title><desc>1713436846000</desc></polyline><polyline fill="none" opacity="1" points="130.97959183674539,252.91637433785218 131.12692525534658,253.16405566487083 132.7475928599015,253.67018519762496 134.2945937551558,253.28251173858007 135.41801107197534,253.41173638903274 137.43463723897003,252.90560557083518 138.060804267996,253.0994432028965 138.96322145691374,253.1102119493953 139.7735552591621,252.58254203024262 140.25238886964507,252.67946120008855 141.02588931721402,252.48562276803568 141.26530612248462,252.04410051665764" stroke="#4dd2ff" stroke-dasharray="none" stroke-linecap="round" stroke-linejoin="round" stroke-width="0.5"><title>2024-04-07 10.0km</title><desc>1712456610000</desc></polyline><polyline fill="none" opacity="1" points="179.61654135352,251.907451806881 179.2105263157282,255.38968181266682 182.52631578943692,256.4976606860291 188.8195488722995,253.41114402614767 189.36090225563385,251.19517548958538 188.00751879694872,249.3749107067124 185.57142857112922,249.21662660315633 179.14285714295693,252.6197274455917 179.41353383474052,255.70624737243634 182.32330827089027,256.5768019712996 188.61654135352,253.72771042381646 189.42857142887078,251.7491682394175 188.7518796992954,249.92890480539063 185.90977443614975,249.13748453895096 179.54887218074873,252.0657353407587 179.2781954887323,255.4688232151675 182.59398496244103,256.4976606860291 188.61654135352,253.72771042381646 188.95488721807487,250.16633072204422 186.2481203007046,249.05834246618906 179.41353383474052,252.30316057882737 179.14285714295693,255.38968181266682 182.25563909788616,256.6559432480717 188.7518796992954,253.56942724174587 188.7518796992954,250.008046786068 185.97744360915385,249.13748453895096 179.34586466196924,252.30316057882737 179.2105263157282,255.38968181266682 182.25563909788616,256.6559432480717 188.54887218028307,253.8068520023371 188.95488721807487,250.24547267745947 186.2481203007046,249.05834246618906 179.61654135352,252.0657353407587 179.14285714295693,255.38968181266682 182.25563909788616,256.6559432480717 188.61654135352,253.72771042381646 189.02255639084615,250.32461462466745 186.1804511277005,249.05834246618906 179.61654135352,252.0657353407587 179.14285714295693,255.2313989821705 181.91729323309846,256.6559432480717 188.61654135352,253.72771042381646 188.8195488722995,250.08718875836348 185.97744360915385,249.13748453895096 179.54887218074873,252.1448770951829 179.2105263157282,255.4688232151675 182.32330827089027,256.5768019712996 188.4812030075118,253.8068520023371 189.02255639084615,250.40375656326069 186.38345864671282,249.05834246618906 179.61654135352,252.0657353407587 179.2105263157282,255.38968181266682 181.98496240610257,256.6559432480717 188.61654135352,253.72771042381646 189.02255639084615,250.32461462466745 186.11278195492923,249.05834246618906 179.34586466196924,252.30316057882737 179.2781954887323,255.54796460916987 182.18796992488205,256.6559432480717 188.68421052629128,253.6485688369139 188.88721804483794,250.08718875836348 186.11278195492923,249.05834246618906" stroke="#4dd2ff" stroke-dasharray="none" stroke-linecap="round" stroke-linejoin="round" stroke-width="0.5"><title>2024-03-26 10.6km</title><desc>1711453549000</desc></polyline><polyline fill="none" opacity="1" points="83.82643363572424,267.6329916174436 83.66351313487394,267.84893837461277 83.53317673417041,267.60758609106415 82.81632653059205,265.60053251028876 82.9032174643362,265.37187870661 84.54328383936081,264.508071516153 84.97773850825615,264.5207746081069 85.96612287999596,264.012649880533 86.35713208193192,263.6188517367118 86.24851841473719,263.1996458409121 86.92192315147258,262.9455809489373 87.31293235346675,262.56448260221805 89.8870762665756,262.0436462376965 92.11365644464968,261.1544081952452 92.60241794720059,261.1035943938041 93.10204081633128,260.72249019681476" stroke="#4dd2ff" stroke-dasharray="none" stroke-linecap="round" stroke-linejoin="round" stroke-width="0.5"><title>2024-01-30 11.7km</title><desc>1706613736000</desc></polyline><polyline fill="none" opacity="1" points="98.74992282313178,259.3546277012756 98.73635959878447,259.4605126426686 98.74540174833965,259.3493334483028 98.88555506654666,259.32286217493674 99.10256665601628,259.5240434993975 99.81237539660651,259.4816896039083 100.16049815469887,259.7093413684561 100.36394651985029,259.7146355831428 100.55835273538833,259.57169158873876 100.68946390406927,259.60345695630167 100.73467465187423,259.3334506859719 100.74823787622154,259.58228004684497 101.11444493345334,259.3705104568435 101.66149498190498,259.2381540056267 101.69314250536263,259.1587399659802 101.81069044966716,259.14285714285506 101.91467516962439,259.3599219536918 101.70670572970994,260.07993503750185 101.54394703760045,260.2334658922082 101.31337222378352,260.26523083752545 101.12800815780065,260.4928790191261 101.02854451260646,260.5034672813272 101.0466288117459,260.720526159821 100.9833337648015,260.8158200026701 100.79344862399739,261.03817159333266 100.62164778236183,261.1069945034833 100.70302712838748,261.2711102898902 99.96609193913173,261.60463425353373 99.78977002267493,261.86404023616706 99.35122576897265,261.95403791436183 99.34670469418052,262.20285417805644 99.11160880560055,262.46225704396784 98.68210670139524,262.36696635231783 97.96777688607108,262.4251995744344 97.70103347397526,262.55225364087164 97.8321446426271,262.76400969779934 97.72815992266987,263.1769314185767 97.42072683759034,263.38868481888494 97.42072683759034,263.8121889180293 97.78693389482214,263.6322001160079 98.00394548432087,263.7327821737963 98.28425212070579,264.0980521487545 98.50578478496755,264.1351083733207 98.70923315008986,264.0609958966015 98.81321787004708,264.41038232110077 99.22463567511295,264.6485989323046 99.21559352555778,264.8444650700294 99.36026791852782,264.8762270738298 99.33314146986231,265.1144414565606 99.55467413412407,265.37912276757925 99.64057455494185,265.36324192857865 99.69934852706501,265.4479396779934 99.70386960185715,265.81319707223884 99.47781586283236,266.3319638393077 99.43712618981954,266.71309516346446 99.59536380713689,266.71838863353696 99.93896549046622,267.0254089352966 100.07459773388109,267.4806424507333 100.05651343474165,267.8988184086229 100.33229899636353,268.51284256633517 100.2644828746852,268.87807748349223 100.5673948849726,269.42857142857247 100.92455979264923,269.12156594035696 101.05114988650894,267.5282829269563 101.47160984112998,267.2477327999077 101.88754872092977,266.8083775387604 101.81973259925144,266.6495734786513 101.69766358015477,266.67074738259544 101.81069044966716,266.6442800012701 101.77452185141738,266.2949092494455 102.06387063741568,266.11492942077166 101.75643755230703,265.8343713317736 101.48065199068515,265.3685355421294 101.75643755230703,264.6009557012294 101.73383217837545,264.35744514162434 101.90111194530618,264.25686434559975 101.95084376787418,264.3150953575423 101.89659087051405,264.3098016319891 101.91467516962439,264.172164570311 102.23567147905123,263.62690631787336 102.35321942335577,263.54220547102886 102.57927316240966,263.5527930847529" stroke="#4dd2ff" stroke-dasharray="none" stroke-linecap="round" stroke-linejoin="round" stroke-width="0.5"><title>2024-01-27 16.6km</title><desc>1706316843000</desc></polyline><polyline fill="none" opacity="1" points="111.8298932001926,259.1428571428987 109.41934318258427,261.3972738540033 110.08224443742074,267.87867943116 112.3120032036677,269.35812187060947 114.66228947066702,267.4559809882194 114.2404432175681,260.76321992464364 112.01068445155397,259.1428571428987 109.47960693296045,261.3268234473071 109.96171693666838,267.5968804989243 112.67358570639044,269.35812187060947 114.66228947066702,267.24463166616624 114.11991571681574,260.4814179847599 111.70936569920741,259.1428571428987 109.47960693296045,261.18592261109734 110.02198068681173,268.09002855198923 112.43253070442006,269.35812187060947 114.66228947066702,267.38553122163285 114.2404432175681,260.76321992464364 111.6491019485984,259.1428571428987 109.53987068333663,261.0450217454927 109.96171693666838,267.87867943116 112.61332195578143,269.35812187060947 114.66228947066702,267.24463166616624 114.11991571681574,260.692769450834 111.95042070094496,259.1428571428987 109.53987068333663,260.9745713014854 109.90145318605937,267.5968804989243 112.25173945305869,269.2876723049558 114.66228947066702,267.1741818774026 114.11991571681574,260.6223189695156 111.8298932001926,259.2133077806211 109.47960693296045,261.25637303304393 109.84118943545036,267.6673302431591 112.25173945305869,269.42857142857974 114.60202572029084,267.4559809882194 113.99938821583055,260.6223189695156 111.6491019485984,259.2837584107183 109.47960693296045,261.3972738540033 109.96171693666838,267.87867943116 112.37226695427671,269.2876723049558 114.60202572029084,267.4559809882194 114.11991571681574,260.76321992464364 111.28751944610849,259.2837584107183" stroke="#4dd2ff" stroke-dasharray="none" stroke-linecap="round" stroke-linejoin="round" stroke-width="0.5"><title>2024-01-25 10.3km</title><desc>1706155972000</desc></polyline></svg>