<?xml version="1.0" encoding="utf-8" ?>
<svg baseProfile="full" height="300mm" version="1.1" viewBox="0,0,200,300" width="200mm" xmlns="http://www.w3.org/2000/svg" xmlns:ev="http://www.w3.org/2001/xml-events" xmlns:xlink="http://www.w3.org/1999/xlink"><defs /><rect fill="#222222" height="300" width="200" x="0" y="0" /><text fill="#FFFFFF" style="font-size:12px; font-family:-apple-system, BlinkMacSystemFont, 'Segoe UI', Roboto, 'Helvetica Neue', Arial, sans-serif; font-weight:bold;" x="10" y="20">Over 3km Runs</text><text fill="#FFFFFF" style="font-size:4px; font-family:-apple-system, BlinkMacSystemFont, 'Segoe UI', Roboto, 'Helvetica Neue', Arial, sans-serif;" x="10" y="280">Runner</text><text fill="#FFFFFF" style="font-size:9px; font-family:-apple-system, BlinkMacSystemFont, 'Segoe UI', Roboto, 'Helvetica Neue', Arial, sans-serif;" x="10" y="290">Hannah YAN</text><text fill="#FFFFFF" style="font-size:4px; font-family:-apple-system, BlinkMacSystemFont, 'Segoe UI', Roboto, 'Helvetica Neue', Arial, sans-serif;" x="65" y="280">SPECIAL TRACKS</text><rect fill="yellow" height="2.6" width="2.6" x="65" y="283" /><text fill="#FFFFFF" style="font-size:3px; font-family:-apple-system, BlinkMacSystemFont, 'Segoe UI', Roboto, 'Helvetica Neue', Arial, sans-serif;" x="70" y="285.5">Over 20.0 km</text><rect fill="red" height="2.6" width="2.6" x="65" y="287" /><text fill="#FFFFFF" style="font-size:3px; font-family:-apple-system, BlinkMacSystemFont, 'Segoe UI', Roboto, 'Helvetica Neue', Arial, sans-serif;" x="70" y="289.5">Over 40.0 km</text><text fill="#FFFFFF" style="font-size:4px; font-family:-apple-system, BlinkMacSystemFont, 'Segoe UI', Roboto, 'Helvetica Neue', Arial, sans-serif;" x="120" y="280">STATISTICS</text><text fill="#FFFFFF" style="font-size:3px; font-family:-apple-system, BlinkMacSystemFont, 'Segoe UI', Roboto, 'Helvetica Neue', Arial, sans-serif;" x="120" y="285">Number: 310</text><text fill="#FFFFFF" style="font-size:3px; font-family:-apple-system, BlinkMacSystemFont, 'Segoe UI', Roboto, 'Helvetica Neue', Arial, sans-serif;" x="120" y="290">Weekly: 2.8</text><text fill="#FFFFFF" style="font-size:3px; font-family:-apple-system, BlinkMacSystemFont, 'Segoe UI', Roboto, 'Helvetica Neue', Arial, sans-serif;" x="141" y="285">Total: 2714.2 km</text><text fill="#FFFFFF" style="font-size:3px; font-family:-apple-system, BlinkMacSystemFont, 'Segoe UI', Roboto, 'Helvetica Neue', Arial, sans-serif;" x="141" y="290">Avg: 8.8 km</text><text fill="#FFFFFF" style="font-size:3px; font-family:-apple-system, BlinkMacSystemFont, 'Segoe UI', Roboto, 'Helvetica Neue', Arial, sans-serif;" x="167" y="285">Min: 3.0 km</text><text fill="#FFFFFF" style="font-size:3px; font-family:-apple-system, BlinkMacSystemFont, 'Segoe UI', Roboto, 'Helvetica Neue', Arial, sans-serif;" x="167" y="290">Max: 42.8 km</text><polyline fill="none" opacity="1" points="18.150001783571497,30.651651637173927 18.056480262137484,30.58844560880607 17.605498703233025,30.610324638315433 17.32285588290688,30.583583599407575 16.821996179241978,30.639496645229883 16.64742267256952,30.692978561615746 16.221380186041642,30.69540955485172 15.96783295016212,30.77077021752666 15.80365072364657,30.87530233997677 15.687268385867355,30.84613063276811 15.462816734427179,30.87530233997677 15.180173914101033,31.040607980552522 15.084574136635638,31.062486579059623 14.993130871240282,31.05519371520859 14.949487494573987,31.011436483428042 14.862200741241395,31.01872936118707 14.920391910127364,31.00414360335526 14.845574692983064,30.950662412011297 13.908281222633377,31.434419563165648 13.752412020243355,31.480606898692713 13.737864228016406,31.512208706299134 13.82099446929351,31.675078870970538 13.681751315161819,31.837947880050706 13.388717214671487,31.978938029396886 13.133091722760582,31.981368886450582 13.097761370219814,32.06158702470748 13.041648457365227,32.36544106715701 13.133091722760582,32.81270690065867 13.074900553867337,33.123843210918494 13.14140474688611,33.77284053775111 13.291039181181986,34.19577274335097 13.467690943885827,34.55307146727864 13.648499218652432,34.81557310951939 14.11402856978384,35.34056739212792 14.83310515678022,36.040541100288465 15.132374025371973,36.39051995437876 15.200956474414852,36.36378564670849 15.279930203629192,36.41725423092976 15.778711651269987,36.94707256525544 15.88262445286091,37.12448606512771 16.059276215557475,37.289746722688506 16.2005976257351,37.48173922890055 16.487396958116733,38.077148821881565 16.736787681933492,38.947148151881265 16.767961522411497,39.19258893188271 16.720161633682437,39.39914597234747 16.445831837474543,40.02852597576384 16.11123261636385,40.65788874040845 15.963676438106631,40.85714285714312 16.186049833500874,40.5655508809632 16.755491986223205,39.338394094389514 16.778352802568406,39.10996559573323 16.558057663190993,38.49028110324798 16.477005677959824,38.06013733339023 16.21930193001026,37.503611691088736 16.042650167299144,37.26301346163564 15.903407013182004,37.146358867485105 15.7454595547606,36.90332656017017 15.614529424754437,36.80368257088958 15.25499113125261,36.4026719021258 15.198878218390746,36.375937608603635 15.126139257277828,36.39538073424774 15.024304711711011,36.2495568906852 14.05999391295336,35.27737427127977 13.958159367401095,35.20688943133973 13.436517103407823,34.506890312413816 13.224534988163214,34.054796207054096 13.1310134667292,33.7388111710934 13.076978809905995,33.123843210918494 13.1310134667292,32.81270690065867 13.043726713389333,32.36057943414198 13.097761370219814,32.05186362893801 13.147639514980256,31.981368886450582 13.43236059134506,31.96921459862824 13.968550647550728,31.61187566069384 14.153515434387373,31.524363236103454 14.307306380731461,31.512208706299134 14.365497549631982,31.439281392333214 14.353028013436415,31.378508453704853 14.868435509328265,31.14513887412977 14.907922373939073,31.02845319458902 14.951565750612644,31.001712642819257 15.136530537427461,31.040607980552522 15.575042560143629,30.838837700172007 15.645703265225166,30.860716491009953 15.701816178087029,30.938507578423014 15.980302486357687,30.756184302123074 16.348153803977766,30.668668615078786 16.564292431292415,30.690547568117836 16.81991792320332,30.622479645708154 17.495351133547956,30.571428571427532 17.56393358259811,30.593307617160463 18.03985421388643,30.57872158898863 18.154158295641537,30.637065646080373 18.330810058338102,30.65408263478639 18.386922971199965,30.57872158898863" stroke="#4dd2ff" stroke-dasharray="none" stroke-linecap="round" stroke-linejoin="round" stroke-width="0.5"><title>2026-07-19 15.6km</title><desc>1784414563000</desc></polyline><polyline fill="none" opacity="1" points="52.865306122461334,34.13280594277603 52.865306122461334,31.291691119622556 48.5566447051242,31.367454766630544 48.29747710103402,31.651568157365546 48.16789329913445,33.299416933601606 47.0340350313345,35.666989203353296 46.69387755100615,37.67466596025042 56.97959183668718,40.13688030895719" stroke="#4dd2ff" stroke-dasharray="none" stroke-linecap="round" stroke-linejoin="round" stroke-width="0.5"><title>2026-07-14 4.4km</title><desc>1784026688000</desc></polyline><polyline fill="none" opacity="1" points="58.90659996587783,35.22297698442708 58.77289523050422,36.39553713906935 65.0188164402498,37.88076130760601 65.41038030816708,38.1264354721352 66.10755499976221,38.182270429802884 68.31368313339772,39.00862435105955 69.02040816325461,38.96395673687948 68.6383946336573,36.39553713906935 68.4091865158407,35.92651463990478 65.29577624920057,37.132568285262096 65.03791711671511,37.065565666387556 65.25757489626994,35.35698451833741 65.19072252855403,32.598628495623416 65.06656813144218,32.419947077512916 59.72792905464303,32.743806925158424 59.68972770165419,33.469696078114794 59.02120402478613,34.966128735664824 58.73469387757359,36.35086841938755 61.24643283494515,37.0208972301989 61.42788926156936,36.88689180822985 62.335171394457575,34.44126297982439 62.46887612983119,32.66563394945115 61.81945312942844,32.576293334932416 59.73747939290479,32.72147179514286 59.67062702518888,33.61487330978707 58.983002671797294,35.1224712223775 58.744244215777144,36.35086841938755 61.380137570318766,36.9762287751073 62.44022511510411,34.10624092024227 62.46887612983119,32.72147179514286 62.335171394457575,32.56512575276429" stroke="#4dd2ff" stroke-dasharray="none" stroke-linecap="round" stroke-linejoin="round" stroke-width="0.5"><title>2026-07-09 10.0km</title><desc>1783598044000</desc></polyline><polyline fill="none" opacity="1" points="73.83096430194564,31.157328308850992 73.051667165244,32.65462510212092 73.94229246443138,39.034370587032754 76.00186346890405,40.79204394062981 78.8407316096127,38.96927147731185 77.95010631042533,32.78482465108391 75.77920714393258,30.571428571478464 72.9403390029911,32.32912610931089 73.83096430194564,39.099469689594116 76.28018387476914,40.85714285715949 77.72744998568669,40.4014502959908 78.89639569097199,38.578676675329916 78.06143447291106,32.65462510212092 77.11514509259723,31.22242824517889 75.33389449422248,30.63652856979752 72.88467492163181,32.78482465108391 74.2206128705293,39.22966787428595 76.33584795566276,40.6618460866157 78.8407316096127,38.578676675329916 77.8944422295317,32.2640262900386 75.27823041309603,30.76672854583012 73.10733124660328,32.39422592159826 74.05362062691711,39.22966787428595 76.1688557122834,40.79204394062981 77.78311406681314,40.4014502959908 78.89639569097199,38.64377582632005 77.78311406681314,32.65462510212092 76.94815284898505,31.22242824517889 75.22256633196957,30.70162856130628 72.9403390029911,32.78482465108391 73.99795654555783,39.1645687854616 76.83682468649931,40.72694501694059 78.56241120374762,39.620262262935285 78.95205977209844,38.05788322020089 77.50479366094805,31.87342722999165 74.66592552000657,30.831828523485456 72.9403390029911,32.84992441511713 73.99795654555783,38.96927147731185 75.22256633196957,40.59674714936409 76.55850428063422,40.6618460866157 78.2840907976497,39.94575739733409 78.89639569097199,38.31828000303358 77.8944422295317,32.2640262900386 75.05557408835739,30.70162856130628 72.9403390029911,32.52442552574212 74.05362062691711,39.42496509948978 76.33584795566276,40.72694501694059 78.89639569097199,38.8390732377884 77.83877814817242,32.39422592159826 75.05557408835739,30.76672854583012 73.10733124660328,32.84992441511713" stroke="#4dd2ff" stroke-dasharray="none" stroke-linecap="round" stroke-linejoin="round" stroke-width="0.5"><title>2026-07-08 4.7km</title><desc>1783508969000</desc></polyline><polyline fill="none" opacity="1" points="109.62831728007586,40.61520565947649 109.82468348152179,40.70952033988942 110.00351698641316,40.697218438072014 110.14027201957651,40.8571428571413 110.42780824312649,40.57009855726574 110.60664174803242,40.27485077354868 110.61716136596806,40.11902464748346 110.91521720746823,39.69665068106042 111.32548230692919,39.22916344773694 111.57795313737006,39.097937947441096 111.52184850837511,39.02002259635992 111.78483895676618,38.47050988202318 112.12497327000892,37.3632590991765 112.11094711275655,36.42002051014788 112.05484248377616,36.260077776601975 112.12146673067764,36.06732539982477 112.67199340261868,35.84586403833964 113.36979472565872,35.312711123664485 113.555641309169,35.300407508239005 113.59771978094068,35.15276381843796 113.78356636445096,34.92309473800924 113.70992903888691,34.37352391092281 113.36979472565872,33.51224051210738 113.18044160281715,32.83550440617546 113.4574582084606,32.70835872745738 114.1166875990748,32.57711113743062 114.50240692334773,32.568908148292394 114.76189083240752,32.47047214306076 114.90565894420433,32.12594415458807 114.8565673938283,31.777311522699165 114.88812624763523,31.387659573185374 114.80046276483336,30.977495390987315 114.86708701176394,30.79292009173878 114.98630934835819,30.784716724687314 115.20722132500669,30.87905534086167 115.83138532248267,31.354846598449512 116.0382711418788,31.43277736800883 116.19606541089888,31.34254172576766 116.35385967993352,31.043121952054207 116.46957547721104,31.0595285749514 116.57477165656746,30.998003703265567 116.14346732123522,30.92007205882328 116.08034961360681,31.149764876616246 115.95762073771039,31.194882948602753 115.30189788641292,30.702682958602963 114.97929626972473,30.571428571427532 114.83552815795701,30.583733689109067 114.66020119236782,30.6903778786982 114.61110964200634,30.842140257551364 114.70578620342712,31.96598368958439 114.70578620342712,32.14645185873451 114.63214887787763,32.26129480126838 113.19797429937171,32.57300964307433 112.98407540137123,32.757576459047414 112.97355578343559,33.032374311045714 113.54161515193118,34.56628471565273 113.555641309169,34.89438600721769 112.64744762743067,35.616199067004345 111.90055475405825,35.964797149121296 111.93912668648409,37.12950211090356 111.65509700223629,38.281869392227236 111.32548230692919,38.995417716101656 110.77846217430488,39.55722525429519 110.4804063328047,40.0206078239753 110.30858590653224,40.135427427099785 110.05962161539355,40.4470789207553 109.8141638635716,40.50448813305775 109.35480721374915,40.06571556576819 108.64297973345674,39.2414658156049 108.35193697059003,39.14304676329266 107.95219148905016,39.126643563602556 107.58049832201505,38.872393080477195 107.5068609964801,38.98311527012993" stroke="#4dd2ff" stroke-dasharray="none" stroke-linecap="round" stroke-linejoin="round" stroke-width="0.5"><title>2026-06-28 15.3km</title><desc>1782609425000</desc></polyline><polyline fill="none" opacity="1" points="133.83585604642576,30.571428571423894 134.30181746585004,31.15536343148051 134.2529666718765,31.32220045858776 134.92560452730686,32.06417808599508 135.3577461662935,32.16515626748151 135.42914348056365,32.358331236609956 135.3126531257003,32.4285764577362 135.3126531257003,32.49882156032618 135.59824238276633,32.81931333708053 135.85376961276052,32.687604686310806 135.8875893932127,32.75784935190677 135.7710990383348,32.854435573575756 135.7710990383348,32.95980210533526 135.93644018718624,33.122241652712546 136.12808560967096,33.13541239906044 136.2295449509984,33.210046549611434 136.21451393747702,33.51736223061744 136.4700411674712,33.837846167625685 136.61659354937728,33.90369872589508 136.9472758470365,33.85101668761126 136.94351809365617,34.03979368297587 137.03746192820836,34.14954735662468 137.09758598235203,34.40856487948258 137.6274292092421,35.05390661513229 137.93932273998507,34.895864665806585 138.10090613542707,35.01000613382348 138.16478794292198,35.233898104670516 137.93556498659018,35.35242866073895 137.68755326335668,35.63777861568815 138.05581309483387,36.309440792072564 138.39025314587343,37.87222066454342 138.40152640601445,38.83356454534078 138.27376279102464,39.720263888211775 138.37522213232296,39.86950845642059 138.31509807822295,40.08020576006311 138.17230344968266,40.255786032364995 138.06332860159455,40.65961785020045 138.08587512189115,40.835195680389006 138.176061203063,40.8571428571413 138.23242750381178,40.795690733120864 138.16478794292198,40.255786032364995 138.3075825714477,40.088984791254916 138.36394887218194,39.86950845642059 138.27000503762974,39.68514744150889 138.40904191277514,38.59213323706717 138.37146437897172,37.841492411997024 138.03326657453727,36.27871138648334 137.66876449644042,35.628998646210675 137.93556498659018,35.33047858320424 138.15351468278095,35.21633799360279 138.08587512189115,34.99683598040792 137.9280494798295,34.895864665806585 137.6048826889455,35.05390661513229 137.09758598235203,34.41734510626338 137.01867316130665,34.1363769310592 136.9322448335006,34.04857398751483 136.9322448335006,33.85101668761126 136.62035130277218,33.90808889274922 136.4700411674712,33.85101668761126 136.21075618408213,33.512972022570466 136.24833371791465,33.293461030152685 136.19948292392655,33.17492461306756 135.9514712007076,33.131022150741046 135.75982577820832,32.95541183850946 135.76734128498356,32.845655017230456 135.9063781601144,32.75784935190677 135.88383163983235,32.68321439077408 135.6508509301202,32.81931333708053 135.57945361585007,32.80175220770252 135.29762211217894,32.45052806502281 135.42162797378842,32.34516024446566 135.3389573993918,32.16076591685851 134.94063554085733,32.0817395264603" stroke="#4dd2ff" stroke-dasharray="none" stroke-linecap="round" stroke-linejoin="round" stroke-width="0.5"><title>2026-06-21 12.1km</title><desc>1782018676000</desc></polyline><polyline fill="none" opacity="1" points="149.82938100857427,35.76896072733507 149.60836566030048,36.146673298419046 149.31084499912686,36.21625176433736 148.8008095799887,35.92799778436893 147.568223983777,35.94787739761523 146.48864901333582,36.77287763714412 145.65559116206714,36.65360094195057 145.2220610557997,36.43492660758784 143.13941642770078,36.49456511286553 143.02040816325461,36.06715498855192 144.40600438520778,36.21625176433736 145.12005397197208,36.04727540056774 145.98711418447783,36.36534830356686 146.49714960358688,36.186432428090484 146.53965255516232,36.31564948342566 147.08369033559575,35.71926159178838 147.55122280312935,35.54034448622406 148.8348119413131,35.58010387246031 149.38735031199758,35.88823854536167 150.09289930848172,35.301787815609714 150.82395007586456,35.44094594706985 151.65700792710413,35.28190806571365 152.54106932028662,35.51052493552561 153.30612244896474,34.65569379142835" stroke="#4dd2ff" stroke-dasharray="none" stroke-linecap="round" stroke-linejoin="round" stroke-width="0.5"><title>2026-06-18 10.3km</title><desc>1781755773000</desc></polyline><polyline fill="none" opacity="1" points="180.27853438665625,31.87493591941893 180.3999640805996,31.461944998533 181.42659694730537,31.28126103134855 182.22140948928427,30.700489325674425 182.9941439050599,30.76501965161151 183.45778455451364,30.571428571434808 184.77143306139624,30.881174152375024 185.61040185566526,30.674677185728797 185.84222218039213,31.113482822358492 184.4513002319727,33.88824665354332 183.86622988857562,36.366121983322955 185.57728466641856,37.14044771152112 188.292894184764,37.811526037396106 187.98380041850032,40.35384701183648 185.73183154960861,39.83764398995845 185.33442527864827,40.392562150496815 185.61040185566526,40.857142857144936" stroke="#4dd2ff" stroke-dasharray="none" stroke-linecap="round" stroke-linejoin="round" stroke-width="0.5"><title>2026-06-11 10.1km</title><desc>1781164397000</desc></polyline><polyline fill="none" opacity="1" points="38.993786171180545,45.33638278534272 39.423636917446856,45.484499616792164 40.01468169357395,45.385755119961686 40.43685653366265,45.16582336893043 40.90892476393492,45.43961578308881 41.1046603716095,45.43063901066125 41.45775205602695,45.300475596781325 41.7724642095709,44.94589047738555 41.94517209868354,45.035659142315126 41.960523911053315,45.278033588499966 42.198477002748405,45.480011235562415 42.685897045375896,44.83816782867507 42.98525738653552,44.76186412028255 44.03685653366847,44.90998295822283 44.45903137372807,45.48898799755625 44.41681388973666,45.6011973620989 44.46670727992023,45.83908023312324 44.673956746875774,46.305865385365905 44.88120621381677,46.3956311718357 44.93877551020705,46.71878643011587 44.462869326831424,46.952174807691335 44.090587876940845,47.2349320831745 42.459457812976325,49.26354805860683 42.23685653365101,49.465506728651235 41.699543100825395,48.54097694313896 41.58440450807393,48.478144090568094 41.40785866584338,48.49609634367516 41.200609198902384,48.39287078464986 41.16990557416284,48.312085389330605 41.87225098995259,47.92162047639067 41.91063052085519,47.5221756393621 41.9835516296007,47.39650682287902 42.290587876952486,47.620915162548044 42.49016143770132,47.656820386724576 43.042826682925806,47.16760909331424 43.17331708803249,46.8354807794276 43.21553457203845,46.52579122477982 43.82576911360957,46.03656688603951 43.921717940902454,45.80766181720173 43.91787998781365,45.291498794893414 43.85263478526031,45.18377702401267 43.69911666159169,45.120939197986445 43.51873286627233,45.14786970624846 43.127261650923174,45.56080202505109 42.98525738653552,45.55631365189765 42.80871154431952,45.34087118176831 42.85092902831093,45.578755512942735 43.035150776733644,45.78073172788572 43.56095035027829,45.70891807275984 43.15412732255936,46.02310191618744 42.84325312214787,46.085938405583875 42.84325312214787,46.19365788510186 42.54773073407705,46.750204171126825 42.40188851658604,46.77264540046599 42.20231495582266,46.66043913507019 41.960523911053315,46.62004480687028 41.250502589085954,46.83996901721548 40.64410600060364,46.79508661791988 40.35625951872498,47.25288486242789 39.55028936947929,47.7106781659968 39.48120621382259,47.953037326497 39.20103563813609,48.18193081771096 39.10508681082865,48.451215696695726 38.63685653365974,49.15583637479358 38.41425525433442,49.35779555760746 38.05348766372481,49.52385016543121 37.876941821494256,49.519362211609405 37.692720073100645,49.348819614340755 37.47779469996749,49.31291582229096 37.36649406030483,49.31291582229096 37.15156868715712,49.465506728651235 36.92896740784636,49.52385016543121 36.64879683215986,49.38921134408156 36.37630216265097,49.052612421168305 36.36862625647336,48.832699682378006 36.09996954003873,48.68908258454394 35.96564118182869,48.163978431661235 35.696984465408605,47.908156104942464 35.70466037160077,48.365942336648004 35.616387450514594,48.873091903544264 35.343892780991155,49.00773236297391 35.30167529697064,48.92694813859998 35.198050563500146,49.052612421168305 35.132805360946804,49.03914840869038 34.921717940902454,49.19174029977876 34.90252817544388,49.128908411097655 34.725982333227876,49.22315620922018 34.65306122449692,49.16032436707246" stroke="#ff8800" stroke-dasharray="none" stroke-linecap="round" stroke-linejoin="round" stroke-width="0.5"><title>2026-06-06 21.6km</title><desc>1780740439000</desc></polyline><polyline fill="none" opacity="1" points="98.22860920723178,52.285714285717404 98.10320100953686,50.58068035337783 98.18941914546303,50.20483502487332 98.06401094776811,49.773985934203665 98.15806709605386,49.44397241497063 99.5218812461826,48.87561285038828 101.01110359409358,47.75721700821305 101.45003228608402,47.69304631679552 101.48922234785277,47.34469030504988 101.93598905220279,46.8221536596393 101.88896097810357,46.03375906879228 100.72109713687678,42.90761217587715 100.58785092676408,42.16502110330475 100.88569539634045,42.0" stroke="#4dd2ff" stroke-dasharray="none" stroke-linecap="round" stroke-linejoin="round" stroke-width="0.5"><title>2026-05-23 13.0km</title><desc>1779516917000</desc></polyline><polyline fill="none" opacity="1" points="160.83949255384505,46.56227010472503 165.30722559290007,49.76730643004703 165.30722559290007,50.18535119383887 163.42084942094516,51.27690876548877 160.76006618863903,48.18801902097766 156.17319360177498,44.959734379910515 155.08108108106535,44.05394813879684 155.08108108106535,43.70556781934283 157.78157749585807,43.008805520206806 160.97848869278096,46.74807059072191 164.98952013242524,49.37248564379115 165.34693877550308,50.208575879616546 163.817981246626,51.23045961778553 163.28185328189284,51.13756129278045 160.74020959739573,48.23446881296695 155.06122448982205,44.030722801428055 155.29950358520728,43.54299014752905" stroke="#4dd2ff" stroke-dasharray="none" stroke-linecap="round" stroke-linejoin="round" stroke-width="0.5"><title>2026-05-10 15.1km</title><desc>1778395698000</desc></polyline><polyline fill="none" opacity="1" points="143.02040816326917,59.82996995403664 143.75627529836493,59.810756383794796 143.94024208215706,59.91066683790632 144.17677080414433,59.926037652581726 144.24904346920084,59.91450954219181 144.2884649228654,59.806913668533525 144.4855721911881,59.80307095286116 145.4185465946357,59.86071164525492 145.49081925967766,60.02594778922139 146.36137636147032,60.06437469159937 147.36662342995987,60.041318555067846 148.201044199217,59.926037652581726 149.41982414173253,59.626305591831624 150.172116882517,59.31119998613576 150.2279639418848,59.27277228601815 150.23124906302837,59.17286007521034 150.49734387526405,59.08831875882606 150.95397571357898,58.84622208117071 150.97697156152572,58.68482339849288 151.0820954379742,58.58875241313217 152.05777641621535,57.870133373402496 152.5735404350271,57.35902132898991 152.97432521395967,57.07079707566663 153.0663086058339,57.15150009745412 153.30612244899385,57.18608705182487 153.05973836356134,57.370550251489476 153.07944909040816,57.47815335141786 151.4040373095777,58.657923548238614 151.26277710062277,58.657923548238614 151.23649613151792,58.56953818552938 151.0985210436629,58.59259525743619 150.9704013192677,58.6963518996381 150.957260834708,58.84622208117071 150.5071992386802,59.09216155021204 150.37907951427042,58.961506414878386 149.74833625562314,59.41111181596716 149.31470026528405,59.51486611724613 148.95662206115958,59.65704745561743 148.8810642749595,59.74927289066545 148.4342878000898,59.87608248108154 147.43561097385827,60.037475864213775 146.3055293021025,60.07206006719207 145.4875341385341,60.02210509675206 145.43168707918085,59.98367814960875 145.41197635234857,59.853026224878704 144.3311714976735,59.78385736837299 144.2129071366653,59.91450954219181 143.93038671872637,59.90682413322793 143.79241163090046,59.810756383794796" stroke="#4dd2ff" stroke-dasharray="none" stroke-linecap="round" stroke-linejoin="round" stroke-width="0.5"><title>2026-04-12 19.4km</title><desc>1775975191000</desc></polyline><polyline fill="none" opacity="1" points="175.6094789231429,60.628617124442826 175.19165514339693,58.391482905411976 174.04813743010163,56.82290525524877 173.76225800183602,54.35430353639822 173.08054551889654,53.42857142856519 171.95901853078976,53.50571590558684 168.88031699508429,54.945741648436524 169.49605730222538,57.337194124629605 170.46364921343047,58.82862569305871 170.1337883346714,59.36862452188507 170.3097141366452,61.425751928807586 169.6060109285172,63.71428571428987" stroke="#4dd2ff" stroke-dasharray="none" stroke-linecap="round" stroke-linejoin="round" stroke-width="0.5"><title>2026-04-09 10.0km</title><desc>1775707979000</desc></polyline><polyline fill="none" opacity="1" points="26.829636202310212,66.26415518968861 27.17746228928445,66.20717064588825 27.102928127802443,66.5277081237873 27.742679680581205,66.05758600585978 27.811002661968814,66.442231601206 28.158828748913947,66.97645821845799 28.56876663712319,67.29699230443657 28.74889086073381,67.31836119323998 29.251996450766455,67.06905709955754 31.32653061224846,66.93372023355914 31.425909494253574,67.17590181584092 31.61224489795859,67.1331639481723 32.15261756876134,68.030653893009 32.556344276847085,68.1018827791413 32.50665483585908,69.02072915388999 32.6557231588522,69.59055052927579 32.89795918366872,69.83272326149017 32.84826974268071,70.10338594880159 32.43833185447147,70.30994363760692 32.41348713397747,70.73017988272477 32.21472937002545,70.56635926247691 32.02839396626223,70.73730251002416 31.6867790594697,71.35696841341996 31.58118899737019,71.7985661793864 31.475598935241578,71.71309585335257 31.50665483585908,70.80140612422838 31.407275953883072,70.49513279072562 31.59982253771159,70.07489518707735 31.512866016011685,69.67602335039555 31.370008873112965,69.5406913372135 30.860692102927715,69.51932310157281 31.05323868681444,69.41960458557878 30.79858030169271,69.3056403998271 30.568766637094086,69.3554997530664 30.593611357588088,69.76149607102707 29.711623779934598,70.09626325942372 29.60603371783509,70.30994363760692 28.835847382462816,70.40253827311972 28.6805678793462,70.5806045484569 28.10292812777334,70.74442513661052 28.078083407279337,70.45951952866744 28.57497781724669,69.78998695560585 28.761313220951706,69.1275710019545 28.543921916600084,68.57911451620748 28.407275953883072,68.4722718621706 28.475598935241578,68.37255191006989 28.12156166814384,68.37967476831545 27.947648624685826,68.26570895245095 28.00354924579733,68.14462007733528 28.370008873112965,68.030653893009 28.38864241351257,67.6745084154827 28.165039929008344,67.94517913752497 27.742679680581205,67.74573765055538 28.158828748913947,67.77422932505579 28.146406388666946,67.28274637506547 28.31410825200146,67.16877883963025 28.10292812777334,67.17590181584092 27.960070984932827,67.46082029149693 27.525288376229582,67.36109895203845 27.376220053236466,67.73149180912151 27.21472936999635,68.6717113560444 26.214729370025452,69.52644584747031 25.792369121598313,70.8655096819275 25.407275953883072,71.22163952889969 25.18367346940795,72.5108149894586 25.028393966291333,72.5108149894586 24.50044365573558,72.87405919632874 24.047027506661834,72.95952815777855 23.972493345150724,73.57917512395215 23.81721384206321,73.92104705199745 22.929015084315324,73.85694618792331 22.717834960087202,73.94241399414022 22.61224489795859,73.74298895670654" stroke="#4dd2ff" stroke-dasharray="none" stroke-linecap="round" stroke-linejoin="round" stroke-width="0.5"><title>2026-03-22 12.8km</title><desc>1774137608000</desc></polyline><polyline fill="none" opacity="1" points="183.38877551020414,70.78601061431618 183.41326530613878,70.9185003263774 183.5112244898046,70.94714668234519 184.81836734696117,70.96146985121959 185.88979591838142,70.86836914503147 186.96734693879262,70.60338880876225 187.81530612245842,70.2954360788317 187.87346938777773,70.21307615236583 187.81224489795568,70.02328947095157 188.0081632653164,69.94450978084569 188.12448979594046,70.04835569749775 188.5500000000029,69.81917807729405 188.54387755104108,69.71175053298794 188.62346938777773,69.62580825174882 189.42857142857974,69.03853014877677 188.66632653062697,69.58641796650045 188.55918367348204,69.69384590908521 188.54693877552927,69.82633990144677 188.28367346939922,69.96957606579599 188.09999999999127,70.0555174730871 188.00204081634,69.93376708160213 187.81530612245842,70.02687036159841 187.77244897959463,70.14503954003885 187.26428571429278,70.40644261877605 186.9551020408253,70.47089786180368 186.68571428571886,70.58190382561224 186.63367346940504,70.65710120691801 186.0428571428638,70.81823788936526 185.08163265306212,70.94714668234519 184.33775510205305,70.9507274751304 183.45918367346167,70.91491953017248 183.37959183673956,70.75736412181504 182.51326530613005,70.70365188295546 182.32653061224846,70.70365188295546 182.2653061224555,70.8110762753422 181.99591836734908,70.81823788936526 181.87959183673956,70.7251367887402 180.71326530612714,70.7251367887402 180.05816326530476,70.79675304274497 179.7397959183727,70.87911154730682 179.14285714285506,70.87911154730682" stroke="#ff9000" stroke-dasharray="none" stroke-linecap="round" stroke-linejoin="round" stroke-width="0.5"><title>2026-02-18 20.3km</title><desc>1771394553000</desc></polyline><polyline fill="none" opacity="1" points="58.73469387754449,84.71466683072867 60.20930457490613,84.35828204328209 61.20862752683752,83.99239071614284 61.326433891110355,83.86409045321852 61.24925041105598,83.61699261669492 61.50111229326285,83.50769890872834 61.655479253298836,83.65975964733661 62.18357674822619,83.37939725960314 62.224199632459204,83.18932006787509 62.31763226617477,83.08477726913043 62.6791759357875,82.99924207076401 63.650062868749956,82.38148301775436 64.0522294225666,82.02032763073294 64.32034045844921,82.02032763073294 64.83218879967171,81.6829298393859 65.08405068187858,81.3170166900054 65.0393655092339,81.19346092646447 65.2668536608835,81.21722167666303 65.72995454104966,80.77051746703364 65.86401005899825,80.87506565953663 65.98181642325653,80.79427844128077 66.0589999032818,80.7277476816962 66.06306219167891,80.61844693383318 66.54241222554992,80.24302059737238 66.69271689717425,80.22401158536377 68.7360479736817,78.4228711499054 68.84572976108757,78.48940532865163 69.02040816325461,78.2707926564326 68.93510010639147,78.14247602641262 68.76042170423898,78.37059422594757 68.61824160943797,78.36108932413117 68.14295386400772,78.81256993558782 68.00077376920672,78.74603623629082 68.14295386400772,78.80781753177143 68.28919624720584,78.70801693522662 68.35013057355536,78.79356031728821 67.64329238803475,79.45413982829996 66.87145758776751,80.0814437384688 66.07118676854589,80.61369472137085 66.0589999032818,80.73249988209136 65.88432150111475,80.88457002860378 65.72182996421179,80.79427844128077 65.44559435149131,81.08891347610916 64.83218879967171,81.53561451483256 64.84843795336201,81.67817773969728" stroke="#ff7e00" stroke-dasharray="none" stroke-linecap="round" stroke-linejoin="round" stroke-width="0.5"><title>2026-02-08 23.1km</title><desc>1770528486000</desc></polyline><polyline fill="none" opacity="1" points="64.70924713990098,99.14285714285688 64.77041104317323,99.47090496458804 64.8501900474439,99.66213325569697 64.95922135327419,100.07567536290571 65.04963755811332,100.56227204414972 65.37008322525799,101.3333315724567 65.38337972596491,101.41261161072089 65.3581163746203,101.45458322265495 65.29030422099459,101.48100973167493 65.09218636038713,101.67532083970764 64.91401325085462,101.72040064986231 64.9219911512846,101.7919062722076 64.95922135327419,101.82610449043023 65.2809966704881,101.84164910878735 65.4511918795979,101.78724287265322 65.56687143578165,101.7095193290279 65.80620844859368,101.47168273391344 65.95114030634431,101.26493276463316 66.04687511146767,101.03019807293913 66.0827756633953,100.87474257225949 66.0402268611142,101.16855208634388 65.99102980847965,101.34732219850048 65.73573699481494,101.71884617595151 65.86604270179669,101.93957982664506 65.91523975442396,101.96600546418904 65.97507400762697,101.9504609772639 66.27291562355822,101.51987215867211 66.52953808728489,101.21674250444903 66.76621579995845,100.789241346356 66.77552335045038,100.73638579439648 66.75158964916773,100.68042088523543 66.49097823522607,100.48454202567973 66.46970383408188,100.43168537840393 66.76754545002768,100.22492078563573 66.88721395642642,100.07567536290571 66.91912555813178,100.08500324620763 67.0720353163124,100.287105931312 66.9031697572791,100.62756494210498 66.7462710488835,100.88406994864636 66.72765594789234,100.97423428202183 66.66782169468934,101.07217077635323 66.61729499199282,101.10792520699306 66.56144968899753,101.25560562982355 66.2808935239882,101.67842979656598 66.16787326793565,101.82765895300417 66.05884196210536,101.89916405385884 66.00033735897887,101.9970943887447 65.78227474731102,102.16497344578602 65.54958598485973,102.27378292223784 65.37939077574993,102.3033167840922 65.31689722240844,102.03750989241871 65.06160440875101,102.09502407156015 64.9884736548338,101.90693632647617 64.18536501187191,101.97222325435814 63.78514034046384,102.0794797210001 63.62558233192249,102.16808229914204 63.404860420116165,102.24891225573265 63.56840737886523,102.68414284820574 63.563088778581005,102.71833899193825 63.430123771460785,102.71367588610792 62.92219744428439,102.62196783774289 62.72540923376073,102.66549037266304 62.705464482700336,102.69346907710406 62.678871481271926,103.04630706028456 62.61105932764622,103.18775074764926 62.153659703173616,103.56078252103907 61.76673153247248,103.7488491203294 61.76540188240324,103.7768257643902 61.8824110886635,103.93846755512095 61.88772968894045,104.00840816412892 61.77736873304093,104.230661670259 61.55398752108886,104.85388611373037 61.52739451966045,105.09166803446533 61.60185492365417,105.59208540787131 61.7720501327567,106.16086213422295 61.74678678140481,106.34423355184936 61.67764497770986,106.56489782247536 61.66700777713413,106.74826420688714 61.71354552963021,106.90365765986826 61.95554184257344,107.34962776080101 61.97016799335688,107.45684503893881 61.95554184257344,107.62466181980108 61.897037239446945,107.75363082370495 61.70157867898524,107.99291971791718 61.20428955238458,108.73406908464221 60.79608698053926,109.19552060194565 60.68306672449398,109.42857142857156" stroke="red" stroke-dasharray="none" stroke-linecap="round" stroke-linejoin="round" stroke-width="0.5"><title>2025-11-30 42.8km</title><desc>1764458479000</desc></polyline><polyline fill="none" opacity="1" points="100.95596968522295,109.42857142857974 102.99537168070674,107.04349164006999 101.8482080581598,100.40994600171689 98.98029900202528,99.21739184466423 97.00462831906043,101.45342923240969 98.15179194137454,108.0869650413515 100.82850706065074,109.42857142857974 102.99537168070674,107.04349164006999 101.91193937067874,100.5590151293436 99.17149293911643,99.14285714284051 97.00462831906043,101.52796368970303 98.02432931680232,107.86336372827645 100.82850706065074,109.42857142857974" stroke="#4dd2ff" stroke-dasharray="none" stroke-linecap="round" stroke-linejoin="round" stroke-width="0.5"><title>2025-11-26 8.7km</title><desc>1764155703000</desc></polyline><polyline fill="none" opacity="1" points="161.25336711112323,105.79008393391996 160.64213285181904,105.66834335065687 159.8882772653451,105.27422806683171 159.65906441810512,105.09677005499543 159.30930259195156,104.72121331235576 158.82540880333545,104.01753811133676 158.5724257348993,103.71624897498259 157.16149331967608,102.7772659313705 156.72344210051233,102.59152691824602 156.64364207220933,102.61010091028038 155.98826311640005,102.5254858944154 155.28194797232572,102.5378686057993 155.06122448979295,102.56882534505166 155.18856496048102,102.839178487764 155.23610540287336,102.87632591408146 155.73018642914394,102.6658227654134 155.7335821750239,102.56882534505166 155.75735239622736,102.54612374173848 155.98147162463283,102.52961346586744 156.82701234999695,102.62867488214943 157.20563801618118,102.80203098080892 157.58935730119265,103.04761578118632 157.9391191273462,103.32002505054334 158.40773205948062,103.5821116942916 158.57412360783928,103.72037625925623 158.78975347154483,103.96182065707399 159.37721750965284,104.83470660335115 159.71679209815193,105.16692809351298 160.14295820672123,105.45374767210706 160.6760903106624,105.68278719393857 161.22959688992705,105.78389375566258 161.46899697481422,105.79833750144644 161.49106932307768,105.82516156843485 161.48767357719044,105.96959812974637 161.51314167131932,105.99435856075434 162.74579742758215,106.04594267701395 163.57775516941183,105.95721790080825 163.63718072239863,105.89325324202582 163.60152539061528,105.76532320745355 163.6677424353693,105.74056244518215 163.92921486851264,105.69929442847933 164.43178525949043,105.69104081320074 165.34693877550308,105.53009451987054" stroke="red" stroke-dasharray="none" stroke-linecap="round" stroke-linejoin="round" stroke-width="0.5"><title>2025-11-16 42.7km</title><desc>1763252375000</desc></polyline><polyline fill="none" opacity="1" points="98.92069148542942,110.79332034505023 98.8739443650411,111.17921522268261 99.11042979753984,112.22753823609492 99.0361843710707,112.63592422392867 99.10767996692448,112.9799931986363 99.37716336673475,113.53949891565571 99.32216675452946,113.65847294141349 99.39366235041234,113.88677314614142 99.83363524806919,114.92214128580963 99.8198860950215,115.05075598364238 99.95187796431128,115.42052020893425 100.03162305202568,116.03785567584782 100.10311864789401,116.16325041084565 100.38635120075196,116.36902526551785 100.41384950686188,116.55872272591296 100.34785357219516,116.7966466810467 100.62833629446686,116.96705053169353 100.6200868026499,117.05707482195794 100.49084476394637,117.16638967323343 100.50184408639325,117.37858796851287 100.5843390046939,117.65508655553276 100.59808815775614,117.87692662724294 100.65858443119214,117.99909872925855 100.72733019644511,118.59709193689378 100.86207189635024,118.72247611812054 100.89506986367633,119.06969115273387 100.98856410442386,119.45226609113706 101.05730986969138,119.55192767988046 100.96931529014546,119.80268765204346 101.04906037785986,119.96985981817306 101.02706173298066,120.15631999635843 101.13980478799203,120.37492702536292 101.19205156959652,120.85714285714312 101.13980478799203,120.3717122274902 101.07380885335442,120.29455697675075 101.02706173298066,120.12417177133284 101.04906037785986,119.94092623979486 100.97481495136162,119.78982821658974 101.05181020847522,119.54549790982855 100.90606918610865,119.10505542455212 100.86207189635024,118.73533600491464 100.72733019644511,118.59709193689378 100.65858443119214,118.0183890162898 100.50734374760941,117.42359953774394 100.48259527211485,117.18246535351136 100.62283663323615,116.98955662924345 100.342353910979,116.80307703236758 100.40834984563116,116.56836832786757 100.39185086198268,116.38188614768296 100.15261559886858,116.21147901736731 100.03987254384265,116.06679296829316 99.94362847247976,115.42052020893425 99.81438643379079,115.04110990018307 99.82263592562231,114.92535665988362 99.3991620116285,113.94143632100167 99.32491658514482,113.65525743332364 99.28916878721793,113.6809814884964 99.26442031172337,113.60059374380035 99.23417217501265,113.63596437766319 99.28641895660257,113.56843858640059 99.27816946477105,113.33692044892996 99.09118098327599,112.93819063387673 99.01968538739311,112.55553371521273 99.10218030570832,112.27255743299611 98.86019521199341,111.06023149127213 98.92344131603022,110.79975196649139 98.80794843040348,110.57142857142753" stroke="#ff8100" stroke-dasharray="none" stroke-linecap="round" stroke-linejoin="round" stroke-width="0.5"><title>2025-10-27 22.6km</title><desc>1761522564000</desc></polyline><polyline fill="none" opacity="1" points="172.82879219210008,111.33126779624581 173.32645731893717,113.41501505455017 173.3658763388521,114.54319862628108 173.3018204314576,115.3144943906409 172.8583564570581,117.17361777252881 172.88792072201613,117.44413509640799 172.73024464224,117.85278638565796 172.41981986016617,117.87580890254685 172.03055703823338,118.72763520611261 172.2325795154611,118.91756763846934 172.04533917069784,119.27440860439674 171.12391957949148,120.8571428571413 172.222724760446,118.9290786737547 172.0059201507829,118.72187966754063 172.40011035019415,117.89307578383887 172.45431150263175,117.841275123581 172.64155184736592,117.89883140972597 172.74502677473356,117.8124969577766 173.16385386165348,116.03973271111317 173.31660256395116,115.00367501970686 173.3116751864436,113.40925895616601 172.81401005963562,111.37156200538811 172.40011035019415,110.57142857142753" stroke="#4dd2ff" stroke-dasharray="none" stroke-linecap="round" stroke-linejoin="round" stroke-width="0.5"><title>2025-10-19 14.0km</title><desc>1760852519000</desc></polyline><polyline fill="none" opacity="1" points="125.15020002791425,126.21373812827733 124.97754940399318,127.66911512951265 124.55758842700743,129.3860802894451 124.4455988331465,129.473289697391 124.29161314156954,129.40243206462765 124.2309521115676,129.46238852943497 123.87165216452559,130.24181624857374 124.05830148767564,130.44893492633128 123.01306527820998,132.28571428571377 123.81565736763878,130.9231245661722 123.99297422455857,130.49253875282375 124.2496170438535,130.2799697515111 124.09096511921962,130.44348444544448 123.8903170968697,130.32902421397011 123.86698593149777,130.24181624857374 124.26361574311159,129.40243206462765 124.45026506620343,129.4569379446075 124.55758842700743,129.3806296965704 124.9448857724783,127.75632743213282 125.13153509559925,126.29550196682976 125.09887146402616,125.29252328187431 124.61824945703847,123.25380013558606 124.24028457771055,122.52332897015367 124.52959102854948,122.21260303286181 124.85156111093238,122.0" stroke="#4dd2ff" stroke-dasharray="none" stroke-linecap="round" stroke-linejoin="round" stroke-width="0.5"><title>2025-10-07 14.0km</title><desc>1759810688000</desc></polyline><polyline fill="none" opacity="1" points="50.56734866916668,156.28571428571013 53.10612071864307,166.57142857142026" stroke="#4dd2ff" stroke-dasharray="none" stroke-linecap="round" stroke-linejoin="round" stroke-width="0.5"><title>2025-06-29 12.0km</title><desc>1751152499000</desc></polyline><polyline fill="none" opacity="1" points="105.14285714284051,158.7471838682941 104.98346592872986,158.85199880638538 104.71449325492722,158.81706051585934 104.58498789346777,158.8869370747816 104.07194742304273,159.50417616312552 103.50411622275715,160.46495909864097 102.33856796956388,161.33838359329457 102.09948114841245,161.69357226129796 101.60138360428391,161.53053512419137 100.69484607400955,161.9963542361511 100.3063299896312,162.12445380160716 100.21169145620661,162.02546779991462 99.98754756138078,162.10116299367292 99.85306122447946,162.1652126918052 99.82317537182826,162.31077991068014 99.01127637494938,162.67760759681914 98.7024558976118,162.66596231096628 97.99017640954116,162.9046901788097 97.63154617778491,162.92215803097497 96.95911449324922,163.1375944190586 96.68017986856285,163.39961051278442 96.09740574195166,163.45783614221727 95.56444136975915,163.87123634216186 95.21079211344477,163.96439652243862 94.98664821861894,163.8945264019858 94.85714285713038,164.10995898885085" stroke="#4dd2ff" stroke-dasharray="none" stroke-linecap="round" stroke-linejoin="round" stroke-width="0.5"><title>2025-06-22 15.1km</title><desc>1750548259000</desc></polyline><polyline fill="none" opacity="1" points="123.00084074703045,179.14285714286234 122.88528437970672,180.08087089563924 123.46306621626718,182.73586327869998 123.2659406485036,183.64203680609353 123.4494713495078,184.50050690810167 123.99326601921348,185.60537528853456 123.89130451867823,186.16972624992195 124.02045575273223,186.17767482473573 124.08163265307667,186.60689661630022 125.27798092641751,189.42857142857247 124.33993512115558,187.34610617644648 124.08163265307667,186.4320287749797 123.99326601921348,186.49561712799186 123.92529168553301,186.18562339872005 123.83012761833379,186.15382909776963 123.97287371911807,186.18562339872005 124.2175813204667,185.85178256766085 123.78254558471963,186.01075457697152 123.59901488368632,185.94716581360262 123.92529168553301,185.62922118958522 123.41548418265302,184.51640441008203 123.2659406485036,183.68178100885416" stroke="#4dd2ff" stroke-dasharray="none" stroke-linecap="round" stroke-linejoin="round" stroke-width="0.5"><title>2025-04-13 17.0km</title><desc>1744513358000</desc></polyline><polyline fill="none" opacity="1" points="138.56811965303496,179.14285714286962 135.90722996019758,180.74287316619302 133.67677830625325,183.39431529329158 136.96375969122164,189.42857142857974" stroke="#4dd2ff" stroke-dasharray="none" stroke-linecap="round" stroke-linejoin="round" stroke-width="0.5"><title>2025-04-12 10.0km</title><desc>1744429372000</desc></polyline><polyline fill="none" opacity="1" points="35.54613222531043,216.94167107942485 35.16118782843114,217.35588251249283 34.65306122449692,217.55398291959136 34.85323231088114,218.09425441197527 36.99352315775468,217.7430783322925 38.25614077967475,217.36488708647084 38.04827080530231,216.37437823472283 37.632530856644735,216.37437823472283 37.18599535620888,216.68954139335256 36.493095441750484,216.89664797599107 37.87119638273725,216.33835951367655 38.15605523643899,216.6805367479028 38.37932298667147,217.31986420707835 39.511059513664804,216.8516248487722 40.296346083370736,216.8606294761339 40.63509715264081,216.6535228057619 42.33655138700851,216.221298564873 42.53672247342183,216.0592139082437 42.35964805085678,215.55494855661527 42.42893804231426,215.40186741184152 43.92252230233862,215.30281475959055 44.30746669927612,215.4558960826398 44.85408774288953,215.42888175154803 44.93877551020705,215.7080294258194 44.692411096184514,216.76157852280448 44.77709886353114,217.94117783755792 43.5298790174711,218.4184156601841 43.62996456067776,219.06673445030174 43.460589026042726,219.21080462147802 43.03715018942603,219.43591377541452 42.498228033742635,219.41790506502002 41.45117927409592,219.70604397373972 41.15862153246417,219.192795863426 39.53415617745486,219.68803532057063 39.1646095564065,219.5709789818211 38.51020408162731,219.82310012661037 38.525601857487345,219.96716901671607 38.417817426350666,219.85911737200513 38.24074300378561,220.2913231272032 37.978980813903036,220.42638697531947 37.93278748620651,220.3003273904178 37.955884150083875,220.42638697531947 37.62483196868561,220.30933165265742 37.278382011456415,219.96716901671607 36.28522546743625,220.12024194503465 36.08505438102293,220.2823188630282 37.26298423559638,221.19174473053135 37.978980813903036,221.05668209764553 38.35622632285231,221.6059354675017 38.8566540388274,221.8400423832718 39.22620065990486,221.7590054468601 39.49566173774656,221.50689003996376 39.849810582905775,221.6059354675017" stroke="#4dd2ff" stroke-dasharray="none" stroke-linecap="round" stroke-linejoin="round" stroke-width="0.5"><title>2025-01-25 14.8km</title><desc>1737764447000</desc></polyline><polyline fill="none" opacity="1" points="189.24131525174016,217.6408097653184 189.42857142857974,218.23515709552157 189.21456436929293,218.59489247674355 189.29481701657642,219.11103301661205 188.84005201561376,219.50204737753666 187.23499907110818,219.39256346070033 186.35221995174652,219.12667361088097 186.0445848040399,218.82950203641667 184.7337915659882,218.86078328291478 184.27902656508377,219.22051714190457 183.1822403863771,219.2987200389034 182.36633847292978,219.2987200389034 182.0720787664759,219.048470622889 179.1428571428405,219.17359538385062" stroke="#4dd2ff" stroke-dasharray="none" stroke-linecap="round" stroke-linejoin="round" stroke-width="0.5"><title>2024-10-28 17.0km</title><desc>1730088256000</desc></polyline><polyline fill="none" opacity="1" points="167.10204081633128,238.98330871738654 167.28113516874146,239.2047598581521 167.59455028548837,239.28957065283612 168.10334105941,239.08225510268676 168.11962236418913,239.28957065283612 168.20102888801193,239.25187698549053 168.27429475945246,239.33197599191044 168.15218497371825,239.51573201245992 168.24987280232017,239.53457874257583 168.1888179094385,239.79843215849178 168.35570128330437,240.12353519257522 168.66911640002218,240.30728807165724 170.12629317655228,239.40265147074751 170.17513709086052,239.49217358905662 169.83322969076107,239.95391650306556 169.66634631693887,240.07641895225606 169.62564305501292,240.28844165608461 169.5483068573667,240.35911567493895 169.56458816213126,240.85383078654922 169.9227768669807,241.84795659990414 169.7762451240851,242.05525976741046 169.9227768669807,241.87622526829 170.07337893606746,241.96574260436682 170.22398100516875,241.75372758060257 170.2484029622865,242.16833383125777 170.59031036237138,242.257850602673 171.08281983155757,242.79494759730005 171.34739103396714,242.88917449793007 171.6241732149938,243.3037705830393 171.77884561027167,243.36501741732354 171.98643224604893,243.5723137938803 172.34462095088384,243.50635595653875 172.45044943186804,243.5534687070758 172.80456781049725,243.8738341397584 173.17089716772898,243.59587014159115 173.4965232630493,243.6759616342024 173.68375826785632,243.46395444005975 174.40013567755523,243.51577851047114 174.54666742043628,243.4498205926102 174.99440330147627,243.54875743417142 175.39329526825168,243.4262641706082 175.51947538017703,243.56289125143667 175.59681157782325,243.83143295973787 176.02012550173094,243.4262641706082 176.13816496127401,243.48751084288233 176.32132963988988,243.1954106008925 176.49635366612347,243.09176168505655 176.4678613827855,242.75254542947005 176.94815987336915,242.72898865279421 177.2819266210572,242.79965894687848 177.3877551020414,242.257850602673 177.27785629489517,242.16833383125777 177.34298151393887,242.11179683384762" stroke="#4dd2ff" stroke-dasharray="none" stroke-linecap="round" stroke-linejoin="round" stroke-width="0.5"><title>2024-05-25 14.8km</title><desc>1716598951000</desc></polyline><polyline fill="none" opacity="1" points="80.08473262703046,254.03726414375706 80.99612503219396,250.76340190978954 78.0666494446341,249.08839686511783 71.68690260918811,251.6009029696579 70.84060966176912,255.02703351335367 73.70498579181731,256.62588884914294 80.08473262703046,254.03726414375706 80.99612503219396,250.76340190978954 78.00154998688959,249.08839686511783 71.68690260918811,251.6009029696579 70.84060966176912,255.02703351335367 73.70498579181731,256.62588884914294 80.08473262703046,254.11340029764688 81.06122448970564,250.9918113864842 78.0666494446341,249.08839686511783 71.68690260918811,251.67703938105842 70.77551020402461,254.95089745649602 73.77008524932899,256.62588884914294 80.08473262703046,254.11340029764688 81.06122448970564,250.9918113864842 78.13174890191294,249.08839686511783 71.68690260918811,251.6009029696579 70.77551020402461,254.87476139125647 73.70498579181731,256.62588884914294 80.08473262703046,254.11340029764688 80.99612503219396,250.76340190978954 78.0666494446341,249.08839686511783" stroke="#4dd2ff" stroke-dasharray="none" stroke-linecap="round" stroke-linejoin="round" stroke-width="0.5"><title>2024-05-07 10.0km</title><desc>1715083186000</desc></polyline><polyline fill="none" opacity="1" points="126.05052830604836,249.15285650250735 123.77399270725437,247.71428571426077 121.62051308644004,249.65635556011694 122.0512090108823,256.34566483524395 124.4508005878888,258.0 126.54275221959688,256.12988169147866 126.05052830604836,249.22478496207623 123.6509367285762,247.71428571426077 121.62051308644004,249.65635556011694 122.11273699975573,256.48952022677986 124.7584405336529,257.9280724677956 126.54275221959688,256.0579539615428 126.05052830604836,249.15285650250735 123.77399270725437,247.71428571426077 121.62051308644004,249.58442714618286 122.11273699975573,256.4175925348536 124.38927259854972,258.0 126.54275221959688,256.12988169147866 126.05052830604836,249.22478496207623 123.77399270725437,247.71428571426077 121.62051308644004,249.65635556011694 122.11273699975573,256.48952022677986 124.38927259854972,258.0 126.54275221959688,256.2018094137311 126.05052830604836,249.22478496207623 123.71246471791528,247.71428571426077 121.62051308644004,249.65635556011694 122.11273699975573,256.4175925348536 124.51232857676223,258.0 126.54275221959688,256.12988169147866 126.05052830604836,249.15285650250735 123.77399270725437,247.71428571426077 121.62051308644004,249.65635556011694" stroke="#4dd2ff" stroke-dasharray="none" stroke-linecap="round" stroke-linejoin="round" stroke-width="0.5"><title>2024-04-18 10.1km</title><desc>1713436846000</desc></polyline><polyline fill="none" opacity="1" points="143.02040816331282,253.59136119988398 148.87124304263853,252.1229245143768 150.68794063071255,252.6853053845116 153.30612244899385,252.716548734752" stroke="#4dd2ff" stroke-dasharray="none" stroke-linecap="round" stroke-linejoin="round" stroke-width="0.5"><title>2024-04-07 10.0km</title><desc>1712456610000</desc></polyline><polyline fill="none" opacity="1" points="20.789473684038967,262.6237469181651 19.436090225353837,260.80348213529214 16.99999999953434,260.6451980317361 10.571428571362048,264.04829887417145 10.84210526314564,267.1348188010161 13.751879699295387,268.0053733998793 20.045112781925127,265.1562818523962 20.857142857275903,263.17773966799723 20.180451127700508,261.3574762339704 17.338345864554867,260.5660559675307 10.977443609153852,263.49430676933844 10.70676691713743,266.89739464374725 14.022556390846148,267.92623211460887 20.045112781925127,265.1562818523962 20.383458646479994,261.59490215062397 17.676691729109734,260.4869138947688 10.84210526314564,263.7317320074071 10.571428571362048,266.81825324124657 13.684210526291281,268.08451467665145 20.180451127700508,264.9979986703256 20.180451127700508,261.43661821464775 17.406015037558973,260.5660559675307 10.774436090374365,263.7317320074071 10.639097744133323,266.81825324124657 13.684210526291281,268.08451467665145 19.97744360868819,265.23542343091685 20.383458646479994,261.6740441060392 17.676691729109734,260.4869138947688 11.045112781925127,263.49430676933844 10.571428571362048,266.81825324124657 13.684210526291281,268.08451467665145 20.045112781925127,265.1562818523962 20.45112781925127,261.7531860532472 17.60902255610563,260.4869138947688 11.045112781925127,263.49430676933844 10.571428571362048,266.65997041075025 13.345864661503583,268.08451467665145 20.045112781925127,265.1562818523962 20.248120300704613,261.5157601869432 17.406015037558973,260.5660559675307 10.977443609153852,263.57344852376264 10.639097744133323,266.89739464374725 13.751879699295387,268.0053733998793 19.909774435916916,265.23542343091685 20.45112781925127,261.83232799184043 17.812030075117946,260.4869138947688 11.045112781925127,263.49430676933844 10.639097744133323,266.81825324124657 13.413533834507689,268.08451467665145 20.045112781925127,265.1562818523962 20.45112781925127,261.7531860532472 17.541353383334354,260.4869138947688 10.774436090374365,263.7317320074071 10.70676691713743,266.9765360377496" stroke="#4dd2ff" stroke-dasharray="none" stroke-linecap="round" stroke-linejoin="round" stroke-width="0.5"><title>2024-03-26 10.6km</title><desc>1711453549000</desc></polyline><polyline fill="none" opacity="1" points="94.85714285715949,267.5598572794115 98.68261787469964,265.54501636963687 99.69598874030635,265.5746464880649 102.00140745961107,264.3894393032824 102.91344123857561,263.47090028310777 102.66009852220304,262.49309736851137 104.23082336399239,261.90048787908745 105.14285714295693,261.01157129203784" stroke="#4dd2ff" stroke-dasharray="none" stroke-linecap="round" stroke-linejoin="round" stroke-width="0.5"><title>2024-01-30 11.7km</title><desc>1706613736000</desc></polyline><polyline fill="none" opacity="1" points="111.40108424503705,259.5240434993975 112.11089298562729,259.4816896039083 112.45901574371965,259.7093413684561 112.66246410887106,259.7146355831428 112.8568703244091,259.57169158873876 112.98798149309005,259.60345695630167 113.033192240895,259.3334506859719 113.04675546524231,259.58228004684497 113.41296252247412,259.3705104568435 113.96001257092576,259.2381540056267 113.9916600943834,259.1587399659802 114.10920803868794,259.14285714285506 114.21319275864516,259.3599219536918 114.00522331873071,260.07993503750185 113.84246462662122,260.2334658922082 113.61188981280429,260.26523083752545 113.42652574682143,260.4928790191261 113.32706210162723,260.5034672813272 113.34514640076668,260.720526159821 113.28185135382228,260.8158200026701 113.09196621301817,261.03817159333266 112.92016537138261,261.1069945034833 113.00154471740825,261.2711102898902 112.2646095281525,261.60463425353373 112.0882876116957,261.86404023616706 111.64974335799343,261.95403791436183 111.64522228320129,262.20285417805644 111.41012639462133,262.46225704396784 110.98062429041602,262.36696635231783 110.26629447509185,262.4251995744344 109.99955106299603,262.55225364087164 110.13066223164788,262.76400969779934 110.02667751169065,263.1769314185767 109.71924442661111,263.38868481888494 109.71924442661111,263.8121889180293 110.08545148384292,263.6322001160079 110.30246307334164,263.7327821737963 110.58276970972656,264.0980521487545 110.80430237398832,264.1351083733207 111.00775073911063,264.0609958966015 111.11173545906786,264.41038232110077 111.52315326413373,264.6485989323046 111.51411111457855,264.8444650700294 111.6587855075486,264.8762270738298 111.63165905888309,265.1144414565606 111.85319172314485,265.37912276757925 111.93909214396263,265.36324192857865 111.99786611608579,265.4479396779934 112.00238719087793,265.81319707223884 111.77633345185313,266.3319638393077 111.73564377884031,266.71309516346446 111.89388139615767,266.71838863353696 112.23748307948699,267.0254089352966 112.37311532290187,267.4806424507333 112.35503102376242,267.8988184086229 112.63081658538431,268.51284256633517 112.56300046370598,268.87807748349223 112.86591247399338,269.42857142857247 113.22307738167001,269.12156594035696 113.34966747552971,267.5282829269563 113.77012743015075,267.2477327999077 114.18606630995055,266.8083775387604 114.11825018827221,266.6495734786513 113.99618116917554,266.67074738259544 114.10920803868794,266.6442800012701 114.07303944043815,266.2949092494455 114.36238822643645,266.11492942077166 114.05495514132781,265.8343713317736 113.77916957970592,265.3685355421294 114.05495514132781,264.6009557012294 114.03234976739623,264.35744514162434 114.19962953432696,264.25686434559975 114.24936135689495,264.3150953575423 114.19510845953482,264.3098016319891" stroke="#4dd2ff" stroke-dasharray="none" stroke-linecap="round" stroke-linejoin="round" stroke-width="0.5"><title>2024-01-27 16.6km</title><desc>1706316843000</desc></polyline><polyline fill="none" opacity="1" points="126.67297392198816,267.4559809882194 126.25112766888924,260.76321992464364 124.02136890287511,259.1428571428987 121.49029138428159,261.3268234473071 121.97240138798952,267.5968804989243 124.68427015771158,269.35812187060947 126.67297392198816,267.24463166616624 126.13060016813688,260.4814179847599 123.72005015052855,259.1428571428987 121.49029138428159,261.18592261109734 122.03266513813287,268.09002855198923 124.4432151557412,269.35812187060947 126.67297392198816,267.38553122163285 126.25112766888924,260.76321992464364 123.65978639991954,259.1428571428987 121.55055513465777,261.0450217454927 121.97240138798952,267.87867943116 124.62400640710257,269.35812187060947 126.67297392198816,267.24463166616624 126.13060016813688,260.692769450834 123.9611051522661,259.1428571428987 121.55055513465777,260.9745713014854 121.91213763738051,267.5968804989243 124.26242390437983,269.2876723049558 126.67297392198816,267.1741818774026 126.13060016813688,260.6223189695156 123.84057765151374,259.2133077806211 121.49029138428159,261.25637303304393 121.8518738867715,267.6673302431591 124.26242390437983,269.42857142857974 126.61271017161198,267.4559809882194 126.01007266715169,260.6223189695156 123.65978639991954,259.2837584107183 121.49029138428159,261.3972738540033 121.97240138798952,267.87867943116" stroke="#4dd2ff" stroke-dasharray="none" stroke-linecap="round" stroke-linejoin="round" stroke-width="0.5"><title>2024-01-25 10.3km</title><desc>1706155972000</desc></polyline></svg>