<?xml version="1.0" encoding="utf-8" ?>
<svg baseProfile="full" height="300mm" version="1.1" viewBox="0,0,200,300" width="200mm" xmlns="http://www.w3.org/2000/svg" xmlns:ev="http://www.w3.org/2001/xml-events" xmlns:xlink="http://www.w3.org/1999/xlink"><defs /><rect fill="#222222" height="300" width="200" x="0" y="0" /><text fill="#FFFFFF" style="font-size:12px; font-family:-apple-system, BlinkMacSystemFont, 'Segoe UI', Roboto, 'Helvetica Neue', Arial, sans-serif; font-weight:bold;" x="10" y="20">Over 3km Runs</text><text fill="#FFFFFF" style="font-size:4px; font-family:-apple-system, BlinkMacSystemFont, 'Segoe UI', Roboto, 'Helvetica Neue', Arial, sans-serif;" x="10" y="280">Runner</text><text fill="#FFFFFF" style="font-size:9px; font-family:-apple-system, BlinkMacSystemFont, 'Segoe UI', Roboto, 'Helvetica Neue', Arial, sans-serif;" x="10" y="290">Hannah YAN</text><text fill="#FFFFFF" style="font-size:4px; font-family:-apple-system, BlinkMacSystemFont, 'Segoe UI', Roboto, 'Helvetica Neue', Arial, sans-serif;" x="65" y="280">SPECIAL TRACKS</text><rect fill="yellow" height="2.6" width="2.6" x="65" y="283" /><text fill="#FFFFFF" style="font-size:3px; font-family:-apple-system, BlinkMacSystemFont, 'Segoe UI', Roboto, 'Helvetica Neue', Arial, sans-serif;" x="70" y="285.5">Over 20.0 km</text><rect fill="red" height="2.6" width="2.6" x="65" y="287" /><text fill="#FFFFFF" style="font-size:3px; font-family:-apple-system, BlinkMacSystemFont, 'Segoe UI', Roboto, 'Helvetica Neue', Arial, sans-serif;" x="70" y="289.5">Over 40.0 km</text><text fill="#FFFFFF" style="font-size:4px; font-family:-apple-system, BlinkMacSystemFont, 'Segoe UI', Roboto, 'Helvetica Neue', Arial, sans-serif;" x="120" y="280">STATISTICS</text><text fill="#FFFFFF" style="font-size:3px; font-family:-apple-system, BlinkMacSystemFont, 'Segoe UI', Roboto, 'Helvetica Neue', Arial, sans-serif;" x="120" y="285">Number: 310</text><text fill="#FFFFFF" style="font-size:3px; font-family:-apple-system, BlinkMacSystemFont, 'Segoe UI', Roboto, 'Helvetica Neue', Arial, sans-serif;" x="120" y="290">Weekly: 2.8</text><text fill="#FFFFFF" style="font-size:3px; font-family:-apple-system, BlinkMacSystemFont, 'Segoe UI', Roboto, 'Helvetica Neue', Arial, sans-serif;" x="141" y="285">Total: 2714.2 km</text><text fill="#FFFFFF" style="font-size:3px; font-family:-apple-system, BlinkMacSystemFont, 'Segoe UI', Roboto, 'Helvetica Neue', Arial, sans-serif;" x="141" y="290">Avg: 8.8 km</text><text fill="#FFFFFF" style="font-size:3px; font-family:-apple-system, BlinkMacSystemFont, 'Segoe UI', Roboto, 'Helvetica Neue', Arial, sans-serif;" x="167" y="285">Min: 3.0 km</text><text fill="#FFFFFF" style="font-size:3px; font-family:-apple-system, BlinkMacSystemFont, 'Segoe UI', Roboto, 'Helvetica Neue', Arial, sans-serif;" x="167" y="290">Max: 42.8 km</text><polyline fill="none" opacity="1" points="18.241380733139522,30.803885101797277 18.12050630581507,30.803885101797277 18.044703698833473,30.79669576035667 17.95251133900456,30.73438803886529 17.507939292721858,30.75595611571589 17.22931349412829,30.72959513009846 16.735572189274535,30.784713519542493 16.563479784264928,30.837435331637607 16.143492367264116,30.83983177472146 15.893548636173364,30.91412138446867 15.731699826697877,31.017167858681205 15.616971556693898,30.9884107502985 15.395709893098683,31.017167858681205 15.117084094512393,31.180124115853687 15.022843015569379,31.20169176782474 14.932699374854565,31.194502552785707 14.889676273603982,31.1513672145702 14.803630071102816,31.158556443318957 14.860994206101168,31.14417798354043 14.787240318233671,31.09145688618264 13.863268000852258,31.568338706172653 13.709614067796792,31.613869610626352 13.695273034041747,31.645022281940328 13.77722179833654,31.805577677070687 13.63995761815022,31.966131933033466 13.351088224015257,32.10511827951086 13.099095773824956,32.10751458834602 13.06426754900167,32.186592637481226 13.008952133102866,32.486128196655045 13.099095773824956,32.92703732676455 13.041731638812053,33.233751655530796 13.107290650252253,33.87352519820706 13.25479842597997,34.290446538714605 13.428939550096402,34.642667204270765 13.607178112433758,34.901438078466526 14.066091192471504,35.41897095292188 14.77494800358545,36.10899638220326 15.069963555040886,36.45400121055354 15.137571285573358,36.42764686050941 15.21542261166178,36.480355529920416 15.707115197415987,37.00264389492986 15.809551152779022,37.17753593013367 15.983692276888178,37.34044784360776 16.123005176195875,37.52971168305339 16.405728412995813,38.1166591000856 16.651574705872918,38.97429368572739 16.682305492482556,39.216246172811225 16.635184953018324,39.41986755009566 16.364754030852055,40.040302577834154 16.03491025458061,40.66072061180421 15.889451197966991,40.85714285714312 16.10866414244083,40.569695091331596 16.67001317784161,39.35997909974503 16.692549088016676,39.13479710932552 16.475384862642386,38.52391979641834 16.395484817461693,38.09988938500646 16.141443648157292,37.55127328591698 15.967302524033585,37.31409452530352 15.83003834385454,37.19909786833341 15.67433569169225,36.95951962385152 15.545266387933225,36.861291810895636 15.190837982372614,36.46598045043538 15.135522566481086,36.43962611433744 15.063817397720413,36.45879290726589 14.963430161456927,36.31504156477786 14.012824495679524,35.356675955506944 13.912437259423314,35.287192871541265 13.39820876349404,34.59714239264031 13.18923941453977,34.151473611813344 13.097047054718132,33.8399794691868 13.043780357926153,33.233751655530796 13.097047054718132,32.92703732676455 13.01100085220969,32.481335658922035 13.06426754900167,32.17700743412206 13.113436807572725,32.10751458834602 13.394111325273116,32.095533041647286 13.922680854957434,31.74327273362178 14.105016855508438,31.657004067181333 14.256622069442528,31.645022281940328 14.313986204448156,31.573131437271513 14.301693889807211,31.51322222557428 14.809776228416013,31.283169378657476 14.848701891452947,31.168142078093297 14.891724992718082,31.141781572692707 15.074060993254534,31.180124115853687 15.506340724889014,30.981221467493015 15.575997174535587,31.002789309060972 15.63131259043439,31.079474801474134 15.905840950821585,30.899742769357545 16.268464232809492,30.813470886831055 16.48153101996286,30.835038888295458 16.73352347016771,30.767938371756827 17.39935718003835,30.717612853763058 17.4669649105781,30.739180946604392 17.936121586149966,30.724802220327547 18.048801137054397,30.78231707062878 18.22294226117083,30.799092207753347 18.278257677069632,30.724802220327547 18.417570576362778,30.70563057106847 18.419619295476878,30.57142857142935" stroke="#4dd2ff" stroke-dasharray="none" stroke-linecap="round" stroke-linejoin="round" stroke-width="0.5"><title>2026-07-19 15.6km</title><desc>1784414563000</desc></polyline><polyline fill="none" opacity="1" points="46.70900360145606,37.527248071332 50.747659063665196,38.48233492972213 52.45690276112873,34.23746269234107 52.45690276112873,31.58436282070761 48.433373349369504,31.655112696957076 48.19135654263664,31.92042446625419 48.070348139328416,33.459224426420406 47.01152460987214,35.67011911950249 46.69387755100615,37.54493491456378 56.29891956783831,39.84420860784303 56.979591836745385,36.076920558771235 56.88883553422056,31.637425230743247" stroke="#4dd2ff" stroke-dasharray="none" stroke-linecap="round" stroke-linejoin="round" stroke-width="0.5"><title>2026-07-14 4.4km</title><desc>1784026688000</desc></polyline><polyline fill="none" opacity="1" points="59.71837871638127,32.75497448837996 59.57512364274589,33.815887608681805 58.90659996587783,35.22297698442708 58.77289523050422,36.39553713906935 65.0188164402498,37.88076130760601 65.41038030816708,38.1264354721352 66.10755499976221,38.182270429802884 68.31368313339772,39.00862435105955 69.02040816325461,38.96395673687948 68.6383946336573,36.39553713906935 68.4091865158407,35.92651463990478 65.29577624920057,37.132568285262096 65.03791711671511,37.065565666387556 65.25757489626994,35.35698451833741 65.19072252855403,32.598628495623416 65.06656813144218,32.419947077512916 59.72792905464303,32.743806925158424 59.68972770165419,33.469696078114794 59.02120402478613,34.966128735664824 58.73469387757359,36.35086841938755 61.24643283494515,37.0208972301989 61.42788926156936,36.88689180822985 62.335171394457575,34.44126297982439 62.46887612983119,32.66563394945115 61.81945312942844,32.576293334932416 59.73747939290479,32.72147179514286 59.67062702518888,33.61487330978707 58.983002671797294,35.1224712223775 58.744244215777144,36.35086841938755 61.380137570318766,36.9762287751073 62.44022511510411,34.10624092024227 62.46887612983119,32.72147179514286 62.335171394457575,32.56512575276429 59.73747939290479,32.73263936075091 59.651526348723564,33.67071065342316" stroke="#4dd2ff" stroke-dasharray="none" stroke-linecap="round" stroke-linejoin="round" stroke-width="0.5"><title>2026-07-09 10.0km</title><desc>1783598044000</desc></polyline><polyline fill="none" opacity="1" points="77.95010631042533,32.65462510212092 75.6122149003204,30.571428571478464 73.83096430194564,31.157328308850992 73.051667165244,32.65462510212092 73.94229246443138,39.034370587032754 76.00186346890405,40.79204394062981 78.8407316096127,38.96927147731185 77.95010631042533,32.78482465108391 75.77920714393258,30.571428571478464 72.9403390029911,32.32912610931089 73.83096430194564,39.099469689594116 76.28018387476914,40.85714285715949 77.72744998568669,40.4014502959908 78.89639569097199,38.578676675329916 78.06143447291106,32.65462510212092 77.11514509259723,31.22242824517889 75.33389449422248,30.63652856979752 72.88467492163181,32.78482465108391 74.2206128705293,39.22966787428595 76.33584795566276,40.6618460866157 78.8407316096127,38.578676675329916 77.8944422295317,32.2640262900386 75.27823041309603,30.76672854583012 73.10733124660328,32.39422592159826 74.05362062691711,39.22966787428595 76.1688557122834,40.79204394062981 77.78311406681314,40.4014502959908 78.89639569097199,38.64377582632005 77.78311406681314,32.65462510212092 76.94815284898505,31.22242824517889 75.22256633196957,30.70162856130628 72.9403390029911,32.78482465108391 73.99795654555783,39.1645687854616 76.83682468649931,40.72694501694059 78.56241120374762,39.620262262935285 78.95205977209844,38.05788322020089 77.50479366094805,31.87342722999165 74.66592552000657,30.831828523485456 72.9403390029911,32.84992441511713 73.99795654555783,38.96927147731185 75.22256633196957,40.59674714936409 76.55850428063422,40.6618460866157 78.2840907976497,39.94575739733409 78.89639569097199,38.31828000303358 77.8944422295317,32.2640262900386 75.05557408835739,30.70162856130628 72.9403390029911,32.52442552574212 74.05362062691711,39.42496509948978 76.33584795566276,40.72694501694059 78.89639569097199,38.8390732377884 77.83877814817242,32.39422592159826 75.05557408835739,30.76672854583012 73.10733124660328,32.84992441511713 73.8866283830721,39.1645687854616 76.1688557122834,40.6618460866157" stroke="#4dd2ff" stroke-dasharray="none" stroke-linecap="round" stroke-linejoin="round" stroke-width="0.5"><title>2026-07-08 4.7km</title><desc>1783508969000</desc></polyline><polyline fill="none" opacity="1" points="108.37297620646132,39.368590054888045 108.67453858726367,39.59413203372969 109.62831728007586,40.61520565947649 109.82468348152179,40.70952033988942 110.00351698641316,40.697218438072014 110.14027201957651,40.8571428571413 110.42780824312649,40.57009855726574 110.60664174803242,40.27485077354868 110.61716136596806,40.11902464748346 110.91521720746823,39.69665068106042 111.32548230692919,39.22916344773694 111.57795313737006,39.097937947441096 111.52184850837511,39.02002259635992 111.78483895676618,38.47050988202318 112.12497327000892,37.3632590991765 112.11094711275655,36.42002051014788 112.05484248377616,36.260077776601975 112.12146673067764,36.06732539982477 112.67199340261868,35.84586403833964 113.36979472565872,35.312711123664485 113.555641309169,35.300407508239005 113.59771978094068,35.15276381843796 113.78356636445096,34.92309473800924 113.70992903888691,34.37352391092281 113.36979472565872,33.51224051210738 113.18044160281715,32.83550440617546 113.4574582084606,32.70835872745738 114.1166875990748,32.57711113743062 114.50240692334773,32.568908148292394 114.76189083240752,32.47047214306076 114.90565894420433,32.12594415458807 114.8565673938283,31.777311522699165 114.88812624763523,31.387659573185374 114.80046276483336,30.977495390987315 114.86708701176394,30.79292009173878 114.98630934835819,30.784716724687314 115.20722132500669,30.87905534086167 115.83138532248267,31.354846598449512 116.0382711418788,31.43277736800883 116.19606541089888,31.34254172576766 116.35385967993352,31.043121952054207 116.46957547721104,31.0595285749514 116.57477165656746,30.998003703265567 116.14346732123522,30.92007205882328 116.08034961360681,31.149764876616246 115.95762073771039,31.194882948602753 115.30189788641292,30.702682958602963 114.97929626972473,30.571428571427532 114.83552815795701,30.583733689109067 114.66020119236782,30.6903778786982 114.61110964200634,30.842140257551364 114.70578620342712,31.96598368958439 114.70578620342712,32.14645185873451 114.63214887787763,32.26129480126838 113.19797429937171,32.57300964307433 112.98407540137123,32.757576459047414 112.97355578343559,33.032374311045714 113.54161515193118,34.56628471565273 113.555641309169,34.89438600721769 112.64744762743067,35.616199067004345 111.90055475405825,35.964797149121296 111.93912668648409,37.12950211090356 111.65509700223629,38.281869392227236 111.32548230692919,38.995417716101656 110.77846217430488,39.55722525429519 110.4804063328047,40.0206078239753 110.30858590653224,40.135427427099785 110.05962161539355,40.4470789207553 109.8141638635716,40.50448813305775 109.35480721374915,40.06571556576819 108.64297973345674,39.2414658156049 108.35193697059003,39.14304676329266 107.95219148905016,39.126643563602556 107.58049832201505,38.872393080477195 107.5068609964801,38.98311527012993 107.51738061441574,39.040526651315304 107.88206070283195,39.27017132544279" stroke="#4dd2ff" stroke-dasharray="none" stroke-linecap="round" stroke-linejoin="round" stroke-width="0.5"><title>2026-06-28 15.3km</title><desc>1782609425000</desc></polyline><polyline fill="none" opacity="1" points="134.29228487150976,30.571428571427532 134.1653161028662,30.753687039221404 133.91500624467153,30.927467599205556 134.3648384535918,31.491189609274443 134.31767862522975,31.652251588457148 134.96703318489017,32.36854573042365 135.38421628187643,32.46602856170284 135.453142184866,32.65251679753419 135.3406841326214,32.72033048697267 135.3406841326214,32.78814406197489 135.6163877445506,33.09754204616911 135.86306992363825,32.97039247789871 135.89571903557226,33.038205631033634 135.7832609833422,33.13144852976984 135.7832609833422,33.2331678089904 135.9428788639343,33.38998452679152 136.12789049824642,33.40269936899858 136.225837834063,33.47475006548484 136.2113271176495,33.77142804324103 136.45800929673715,34.08081845906054 136.5994887817942,34.14439153725107 136.9187245429639,34.09353308274149 136.91509686387144,34.27577558025223 137.005788841474,34.38173014086351 137.06383170715708,34.63178179665192 137.57533446083835,35.25478508911692 137.87643182648753,35.10221374692992 138.03242202797264,35.212404218822485 138.0940925727482,35.42854619026184 137.87280414738052,35.542973822335625 137.63337732649234,35.81844641556381 137.9888898787176,36.466859069201746 138.31175331900886,37.975543464101065 138.32263635631534,38.90361051733271 138.1992952667788,39.759616846266 138.29724260256626,39.90369532785189 138.23919973691227,40.107099364246096 138.10134793094767,40.276601942015986 137.99614523691707,40.66645515964774 138.0179113115446,40.835955379840016 138.10497561004013,40.8571428571413 138.1593907966162,40.79781789258777 138.0940925727482,40.276601942015986 138.23194437869824,40.11557451009867 138.28635956525977,39.90369532785189 138.19566758765723,39.72571595204499 138.32989171451482,38.670536330977484 138.29361492348835,37.945878867114516 137.96712380409008,36.43719335908099 137.61523893097183,35.80997036390181 137.87280414738052,35.52178354466014 138.08320953542716,35.411593920776795 138.0179113115446,35.199689949022286 137.86554878918105,35.10221374692992 137.55356838621083,35.25478508911692 137.06383170715708,34.64025809671148 136.98765044595348,34.36901560833212 136.9042138265504,34.28425195538148 136.9042138265504,34.09353308274149 136.60311646090122,34.14862973889103 136.45800929673715,34.09353308274149 136.20769943852792,33.767189801827044 136.2439762295835,33.55527716166398 136.19681640122144,33.44084387145267 135.9573895803478,33.398461088709155 135.7723779460357,33.22892951083486 135.77963330424973,33.12297191155085 135.91385743109277,33.038205631033634 135.8920913564798,32.96615415202541 135.6671752520051,33.09754204616911 135.59824934903008,33.08058879362579 135.3261734162079,32.74152224144564 135.44588682665199,32.63980171803996 135.36607788637048,32.4617901826532 134.98154390131822,32.38549928328575 134.31405094612273,31.643774658274197 134.34670005805674,31.478474162380735" stroke="#4dd2ff" stroke-dasharray="none" stroke-linecap="round" stroke-linejoin="round" stroke-width="0.5"><title>2026-06-21 12.1km</title><desc>1782018676000</desc></polyline><polyline fill="none" opacity="1" points="149.99621291813673,36.52910738759965 149.3069640227186,36.35197643862921 149.08731327581336,36.46711159808183 148.8903850200004,36.80365961797361 148.6252892909688,36.86565515829716 148.17083946979255,36.60881619234715 147.07258573529543,36.626529249799205 146.11066694720648,37.361617828471935 145.36839890593546,37.255340360738046 144.98211655794876,37.06049798622553 143.12644645484397,37.11363686059485 143.02040816325461,36.73280751566199 144.2549968441017,36.86565515829716 144.89122659369605,36.71509448071447 145.66379128966946,36.99850259016239 146.1182411108457,36.83908564661397 146.15611192927463,36.95422013627831 146.64085840521147,36.42282886317116 147.05743740792968,36.26341082360159 148.20113612455316,36.298837080852536 148.69345676412922,36.57339006628172 149.32211235008435,36.05085296539619 149.97349042707356,36.174845114932396 150.71575846831547,36.03313978618098 151.50347149171284,36.236841120844474 152.18514622343355,35.475172722937714 152.56385440772283,34.60721656707028 153.30612244896474,34.06695360010053" stroke="#4dd2ff" stroke-dasharray="none" stroke-linecap="round" stroke-linejoin="round" stroke-width="0.5"><title>2026-06-18 10.3km</title><desc>1781755773000</desc></polyline><polyline fill="none" opacity="1" points="181.48238469159696,32.04627296990657 180.71686007163953,32.14711636504944 180.37183489085874,31.844585923681734 180.49043729674304,31.441210807963216 181.49316672852729,31.264733765761775 182.26947338535683,30.697484361146053 183.02421596838394,30.76051220601221 183.47706151817692,30.571428571427532 184.76012390933465,30.873962242847483 185.57955871376907,30.672273213858716 185.80598148866557,31.10086199270154 184.4474448392284,33.81102007343725 183.87599688349292,36.23120220663259 185.54721260303631,36.98749905099976 188.19959368056152,37.64295243669767 187.8976966473274,40.126079705150914 185.69816111965338,39.62189561015839 185.3100077912677,40.1638934263392 185.57955871376907,40.61765714566718 185.33157186507015,40.857142857144936 185.04045686876634,40.819329355719674" stroke="#4dd2ff" stroke-dasharray="none" stroke-linecap="round" stroke-linejoin="round" stroke-width="0.5"><title>2026-06-11 10.1km</title><desc>1781164397000</desc></polyline><polyline fill="none" opacity="1" points="38.53259332632297,44.662746776870335 38.81079160083027,44.82765119369651 39.03563678158389,45.46497840968732 39.462461531482404,45.61205255132518 40.04934556261287,45.51400318063315 40.4685484419897,45.29561967090558 40.93729347983026,45.567484683848306 41.13165117845347,45.55857110470606 41.482257222989574,45.42932399496567 41.79475391491724,45.07723502868612 41.96624600191717,45.166371754145075 41.98148974298965,45.40703997043602 42.21776772955491,45.607595766705344 42.7017565084534,44.97027070910917 42.99900945927948,44.89450415168176 44.04320572245342,45.041580285687814 44.462408601815696,45.616509335486626 44.4204883138882,45.72792878601831 44.47003047235194,45.964137046241376 44.67582097677223,46.427636197040556 44.88161148119252,46.516770064299635 44.93877551020705,46.8376504245025 44.46621953709109,47.06939583091298 44.096558816192555,47.35016259575059 42.47691132769978,49.36449783626449 42.25587708220701,49.565034789105994 41.722346144830226,48.64701336443977 41.60801808681572,48.58462283280096 41.43271506452584,48.60244870843235 41.226924560120096,48.49994982063072 41.196437077989685,48.419733125760104 41.89383823185926,48.03201694691961 41.93194758451136,47.63538405947111 42.00435535458382,47.5105999067564 42.309230175975244,47.73342849153414 42.50739880983019,47.76908095570252 43.05617348829401,47.28331353579051 43.185745287380996,46.95352328710214 43.22766557530849,46.64601383676927 43.83360428275773,46.16023346336078 43.92887766442436,45.932939804788475 43.92506672916352,45.4204103865668 43.86028082964185,45.31344693863866 43.70784341896069,45.2510514685564 43.528729461395415,45.277792395620054 43.14001406416355,45.68781781777216 42.99900945927948,45.68336104117043 42.82370643700415,45.46943520940113 42.865626724931644,45.70564491949335 43.04855161775777,45.90619929372406 43.57064974932291,45.83489118118814 43.166690611018566,46.146863282108825 42.858004854409955,46.20925742496911 42.858004854409955,46.316218597665284 42.56456283884472,46.86884699579241 42.41974729868525,46.891130246858665 42.22157866481575,46.77971387366415 41.98148974298965,46.739603907164565 41.27646671858383,46.95797992929511 40.67433894639544,46.91341348612332 40.388518801366445,47.36798899382484 39.588222395294,47.82255959536269 39.51962556048238,48.063212633580406 39.24142728600418,48.290494796026906 39.146153904323,48.557884005247615 38.68121980174328,49.25754440439414 38.46018555626506,49.458081866392604 38.10195764116361,49.62296750884343 37.92665461887373,49.61851114861929 37.743729726062156,49.449169110575895 37.53031735110562,49.413518068449775 37.41980022835196,49.413518068449775 37.20638785339543,49.565034789105994 36.985353607917204,49.62296750884343 36.70715533342445,49.489276496904495 36.43657892946794,49.1550471106857 36.42895705894625,48.93668247935784 36.162191590236034,48.79407639480996 36.0288088558882,48.27266878839146 35.762043387192534,48.01864735986237 35.76966525774333,48.4732109393226 35.68201374661294,48.976790353655815 35.411437342641875,49.110482992138714 35.369517054685275,49.030267459969764 35.26662180249696,49.1550471106857 35.20183590296074,49.14167788006671 34.99223446326505,49.29319557851704 34.97317978693172,49.23080600398316 34.79787676464184,49.32439033113042 34.725468994583935,49.262000802802504 34.65306122449692,49.3422158936919 34.74071273562731,49.48036374768344" stroke="#ff8800" stroke-dasharray="none" stroke-linecap="round" stroke-linejoin="round" stroke-width="0.5"><title>2026-06-06 21.6km</title><desc>1780740439000</desc></polyline><polyline fill="none" opacity="1" points="98.15976788057014,52.285714285713766 98.59778294456191,51.36100030094531 99.14956815500045,49.5714072602932 99.05855203783722,48.33396368783724 99.12112561837421,48.06119059095727 99.03010950121097,47.74849802348035 99.09837158909068,47.50898777065595 100.08817186349188,47.0964957511751 101.16898825514363,46.284810001045116 101.48754466528771,46.238237549830956 101.51598720191396,45.98541506959373 101.84023211940075,45.60617944209662 101.8061010754609,45.033995041241724 100.95851348416181,42.76516607202211 100.86180885962676,42.22622398277963 101.07797213795129,42.1064584463129 101.79472406080458,42.0 101.8004125681473,42.22622398277963" stroke="#4dd2ff" stroke-dasharray="none" stroke-linecap="round" stroke-linejoin="round" stroke-width="0.5"><title>2026-05-23 13.0km</title><desc>1779516917000</desc></polyline><polyline fill="none" opacity="1" points="155.5576392719522,43.42686321079964 157.76172090461478,42.98558007090469 160.83949255384505,46.58549555405625 165.30722559290007,49.79053187937825 165.30722559290007,50.20857664317009 163.42084942094516,51.30013421481999 160.76006618863903,48.211244470308884 156.17319360177498,44.982959829241736 155.08108108106535,44.07717358812806 155.08108108106535,43.72879326867405 157.78157749585807,43.03203096953803 160.97848869278096,46.77129604005313 164.98952013242524,49.39571109312237 165.34693877550308,50.23180132894777 163.817981246626,51.25368506711675 163.28185328189284,51.16078674211167 160.74020959739573,48.25769426229817 155.06122448982205,44.05394825075928 155.29950358520728,43.566215596860275 157.8610038610641,43.07848185842158 160.91891891893465,46.70162087617791" stroke="#4dd2ff" stroke-dasharray="none" stroke-linecap="round" stroke-linejoin="round" stroke-width="0.5"><title>2026-05-10 15.1km</title><desc>1778395698000</desc></polyline><polyline fill="none" opacity="1" points="143.02040816326917,59.7384313998773 143.95172212150646,59.6694827854335 144.07845155254472,59.70050968000578 144.73862347229442,59.68327252000017 144.9036664522573,59.77290565232761 145.11586456932127,59.78669534308574 145.18070288287709,59.776353075569205 145.2160692357138,59.67982508691057 145.39290099994105,59.67637765344989 146.22990468393255,59.72808911703032 146.2947429974738,59.87632819059945 147.07574995612958,59.9108022970031 147.97759195369144,59.89011783755268 148.72617975555477,59.78669534308574 149.8195894976816,59.517795319530705 150.4944973977981,59.235103155795514 150.54459973100165,59.20062833371412 150.54754692707502,59.11099362539608 150.78626980877016,59.035148679377016 151.19593006256036,58.81795535624042 151.2165604350448,58.67315900223912 151.31087070930516,58.58697039044637 152.1861879422213,57.942272335028974 152.64889772527386,57.48373599948536 153.00845564586052,57.22516002895645 153.09097713582742,57.29756150781395 153.3061224489793,57.32859066372839 153.08508274369524,57.494078995572636 153.10276592012087,57.59061346717135 151.59969592420384,58.64902621394867 151.47296649318014,58.64902621394867 151.44938892462233,58.56973264069893 151.32560668965743,58.590417939303734 151.21066604291264,58.683501620318566 151.19887725863373,58.81795535624042 150.7951113969757,59.0385961807624 150.6801707502309,58.92138092897221 150.11430910474155,59.32473752232909 149.72527922342124,59.41781910321879 149.4040348517592,59.545374911369436 149.33624934213003,59.62811354665246 148.93543067655992,59.74187882676415 148.0394830711448,59.88667042635643 147.0256476229406,59.91769711390225 146.291795801415,59.87288077795529 146.24169346821145,59.83840663139563 146.22401029178582,59.721194259953336 145.25438278462389,59.659140480664064 145.14828372608463,59.776353075569205 144.89482486403722,59.76945822873313 144.77104262908688,59.68327252000017 144.11087070930807,59.71429940143935 143.93403894508083,59.6694827854335" stroke="#4dd2ff" stroke-dasharray="none" stroke-linecap="round" stroke-linejoin="round" stroke-width="0.5"><title>2026-04-12 19.4km</title><desc>1775975191000</desc></polyline><polyline fill="none" opacity="1" points="175.18298048363067,62.20602702230099 174.59178095124662,60.718705119768856 174.7888474620413,59.29421733306663 174.44845985248685,57.47169595974265 173.51687271066476,56.1938261436153 173.28397592518013,54.18273563479306 172.72860666748602,53.428571428579744 171.81493466277607,53.49141855549533 169.3068154345965,54.664561262878124 169.8084392802557,56.612800762362895 170.59670532343443,57.8278221442597 170.32797826325987,58.26774184094393 170.47129936201964,59.9436174477305 169.89801496698055,61.80801239646098 170.90126265818253,63.71428571428987 172.8719277662458,63.2743781156023" stroke="#4dd2ff" stroke-dasharray="none" stroke-linecap="round" stroke-linejoin="round" stroke-width="0.5"><title>2026-04-09 10.0km</title><desc>1775707979000</desc></polyline><polyline fill="none" opacity="1" points="26.491256209264975,66.00138998298644 26.726530612271745,66.36114597922278 27.004033754288685,66.47875811886479 27.341863666311838,66.4234112540289 27.269471542327665,66.73473680440657 27.890837273356738,66.27812552740943 27.957196720381035,66.6517167918646 28.295026632375084,67.17059026879724 28.693183314433554,67.48191252473043 28.86813094743411,67.50266729298164 29.356777784443693,67.26052795037685 31.371691902604653,67.12908053096908 31.468214734602952,67.36430205604847 31.64919504459249,67.32279243208177 32.17403794362326,68.19448941075825 32.56616194866365,68.26367124972603 32.5179005326936,69.15611089581944 32.66268478069105,69.70955617302388 32.89795918369782,69.94476910237427 32.84969776769867,70.20765321392537 32.451541085669305,70.40827464070026 32.42741037765518,70.81643371513928 32.23436471365858,70.6573211361756 32.053384403610835,70.82335164523829 31.72158716863487,71.42520896841597 31.619031659618486,71.85411565488903 31.516476150631206,71.7711016608082 31.54663953560521,70.88561298547575 31.45011670360691,70.58814164221258 31.63712969061453,70.17998124828591 31.552672212623293,69.79257259048609 31.41392064158572,69.6611298844291 30.919241127558053,69.64037575057591 31.106254114594776,69.54352304530767 30.858914357580943,69.43283407662238 30.635705308552133,69.48126052176667 30.659836016537156,69.8755889103486 29.80319588247221,70.20073522353778 29.700640373455826,70.40827464070026 28.95258842545445,70.4982081987182 28.801771500409814,70.67115702684532 28.240732539386954,70.83026957463153 28.216601831372827,70.55355186979432 28.699215991451638,69.90326099530648 28.880196301441174,69.25988221569423 28.669052606390323,68.72718782250013 28.536333712399937,68.62341571981233 28.60269315939513,68.52656161970663 28.258830570382997,68.53347977410886 28.08991561437142,68.42278922216065 28.14420970735955,68.30518032058171 28.50013765040785,68.19448941075825 28.518235681403894,67.84857919916249 28.301059309393167,68.11147111452738 27.890837273356738,67.9177613770371 28.295026632375084,67.94543422922288 28.282961278397124,67.46807600917236 28.445843557390617,67.35738378707174 28.240732539386954,67.36430205604847 28.101980968378484,67.64103225879808 27.679693578364095,67.54417681120685 27.53490933033754,67.90392494687694 27.378059728303924,68.81712352149043 26.40679873127374,69.64729379585333 25.99657669523731,70.94787427085248 25.622550721192965,71.29376930110448 25.40537434918224,72.54589514432155 25.25455742419581,72.54589514432155 24.741779879142996,72.89870007486024 24.30139445810346,72.98171274357446 24.229002334090183,73.58355167377158 24.07818540907465,73.91559854347724 23.215512598049827,73.85333987432386 23.01040158001706,73.93635142101266 22.907846071000677,73.74265766031021 22.660506313986843,73.70806943286152 22.61224489795859,73.99861001700629" stroke="#4dd2ff" stroke-dasharray="none" stroke-linecap="round" stroke-linejoin="round" stroke-width="0.5"><title>2026-03-22 12.8km</title><desc>1774137608000</desc></polyline><polyline fill="none" opacity="1" points="182.69442664959934,70.68455102047119 182.76073030110274,70.57664492721051 183.74087123639765,70.65083040561694 183.76393337605987,70.77559650218063 183.85618193466507,70.80257289120891 185.0871236387029,70.81606107714288 186.0960922485683,70.72838776638127 187.11082639335655,70.47885471429072 187.90935297886608,70.18885438565303 187.96412556055293,70.11129571050878 187.9064702113974,69.93257282666491 188.0909673286369,69.85838567454812 188.2005124920106,69.95617779336862 188.60121716848516,69.74036030349271 188.59545163359144,69.63919535145578 188.67040358745726,69.55826315835839 189.42857142857974,69.00522099860791 188.71076233185886,69.52116916776322 188.60986547086213,69.62233449486484 188.59833440104558,69.74710462219628 188.3504163997568,69.8819906962508 188.17745035233384,69.9629220663428 188.08520179374318,69.84826923131368 187.90935297886608,69.93594496583864 187.86899423447903,70.04722535809378 187.3904548366554,70.29338969232958 187.09929532352544,70.35408745482164 186.84561178732838,70.45862221894822 186.79660474056436,70.52943589640745 186.24023062140623,70.68117896059448 185.33504163997713,70.80257289120891 184.63452914799564,70.80594493822537 183.8071748878865,70.77222445194093 183.73222293402068,70.62385388801522 182.91639974377176,70.57327285590691 182.74055092889466,70.57327285590691 182.68289557975368,70.67443483976786 182.42921204357117,70.68117896059448 182.31966688021203,70.59350527839524 181.221332479181,70.59350527839524 180.60442024342774,70.66094659382543 180.30461242793535,70.738503929957 179.74247277386894,70.738503929957 179.35329916721093,70.85652560067501 179.14285714285506,70.99477900139209" stroke="#ff9000" stroke-dasharray="none" stroke-linecap="round" stroke-linejoin="round" stroke-width="0.5"><title>2026-02-18 20.3km</title><desc>1771394553000</desc></polyline><polyline fill="none" opacity="1" points="58.73469387754449,83.97764861061296 60.35075453584432,83.9849052274767 61.16653947463783,83.89056908820567 62.29250880086329,83.61844415400628 63.05556239382713,83.33906030590151 63.145515866184724,83.2410940014015 63.086580832561594,83.05241736627431 63.27889515274728,82.96896390771508 63.396765219949884,83.08507301210557 63.800004923556116,82.87099654475242 63.83102336229058,82.72585919570338 63.90236577139876,82.64603339159657 64.17842987617769,82.58072123168313 64.91977056201722,82.10901860134254 65.22685310553061,81.83325097771376 65.43157480120135,81.83325097771376 65.82240712930798,81.57562395489003 66.01472144949366,81.29622344396557 65.9806011668843,81.20187989954866 66.15430442380602,81.22002290904857 66.50791462542838,80.878932722444 66.61027547328558,80.95876264506296 66.70022894562862,80.89707590301987 66.75916397922265,80.84627497320616 66.762265823083,80.76281613919127 67.12828340020496,80.47615163861337 67.24305162353266,80.46163691653783 68.80327909208427,79.086339093079 68.8870288766775,79.13714263366637 69.02040816325461,78.97021643159678 68.95526944191079,78.8722376296646 68.82189015534823,79.04642197261273 68.71332561975578,79.03916430934623 68.35040988650871,79.38390161580173 68.24184535091626,79.33309844130781 68.35040988650871,79.38027282012627 68.46207626596151,79.30406802204016 68.50860392407048,79.36938643077883 67.96888309001224,79.87378550251742 67.37953275398468,80.35277630485143 66.76846951084735,80.75918748962431 66.75916397922265,80.84990361355449 66.62578469264554,80.96601990154159 66.50171093769313,80.89707590301987 66.29078555427259,81.12205054360675 65.82240712930798,81.46313830899817 65.83481450479303,81.57199539143767 64.22185569041176,82.68957476235664 64.1008837793197,82.66780408389604" stroke="#ff7e00" stroke-dasharray="none" stroke-linecap="round" stroke-linejoin="round" stroke-width="0.5"><title>2026-02-08 23.1km</title><desc>1770528486000</desc></polyline><polyline fill="none" opacity="1" points="64.1258540530689,99.14285714285779 64.1906765261956,99.48332785189268 64.61367063049693,100.3787844899598 64.66421018581605,100.64984945061133 64.73013134492794,100.80786083118255 64.8202235957142,101.14956947118117 64.89493424270768,101.55164289315599 65.15971756514773,102.18876713802365 65.17070442499971,102.25427600297917 65.14982939128095,102.28895702380487 65.09379640603584,102.31079317132117 64.9300921942413,102.4713518745466 64.78286827221746,102.50860119051868 64.78946038813592,102.5676860782196 64.8202235957142,102.59594396643934 65.08610560413945,102.60878843936007 65.22673741024482,102.56383272473613 65.32232309095707,102.49960998677216 65.52008656830003,102.30308630020681 65.63984334067936,102.1322494021233 65.71894873161364,101.9382888093296 65.74861325322127,101.8098363814106 65.71345530169492,102.05261032806902 65.67280392024259,102.20032755161901 65.46185621107725,102.50731673324935 65.56952743763395,102.68970830659964 65.61017881908629,102.71154373401805 65.65961968841293,102.69869936969826 65.90572534910461,102.34290508168033 66.11777174424788,102.0924299303415 66.31333784962044,101.73918696721012 66.32102865150955,101.69551257840703 66.30125230377598,101.64926893679512 66.08590985067713,101.48741480504759 66.06833087490668,101.44373951118814 66.31443653559836,101.27289052975812 66.41331827427348,101.14956947118117 66.43968673791096,101.15727707401493 66.56603562620876,101.32427393470516 66.42650250608858,101.60559422476854 66.29685755983519,101.81754356538113 66.28147595604241,101.89204609171884 66.23203508670849,101.972970732043 66.19028501927824,102.00251451405347 66.14414020789263,102.12454241776686 65.9123174650158,102.4739207965531 65.81892915626668,102.59722841434086 65.7288369054877,102.65631287113592 65.68049472213897,102.73723242192682 65.50031022055919,102.87595039832104 65.3080401731495,102.96585935213534 65.16740836704412,102.99026309625788 65.1157701257398,102.77062763502454 64.90482241657446,102.81815143391395 64.84439468738856,102.66273507738606 64.18078835232154,102.71668147594391 63.85008387077687,102.80530718227146 63.71824155255308,102.87851923480412 63.53585967901017,102.94530879276226 63.67099805518956,103.30493856503381 63.666603311248764,103.33319473910797 63.55673471272166,103.3293416283268 63.137036666375934,103.25356353478492 62.974431140566594,103.28952607876181 62.95795085078862,103.31264480083792 62.935977131084655,103.60419379976975 62.879944145839545,103.72106830711346 62.50199616693135,104.0293033761418 62.182278545231384,104.18470225996134 62.181179859246186,104.20781927955159 62.27786422594363,104.34138342094138 62.282258969884424,104.39917514267472 62.19106803311297,104.58282256814982 62.006488787599665,105.09779111254011 61.984515067888424,105.29426962182424 62.0460414830668,105.7077630415215 62.18667328917218,106.17774159566852 62.16579825545341,106.32926086454063 62.1086665842231,106.51159510934303 62.099877096341515,106.66311021928414 62.138331105823454,106.79151137736972 62.338291955129534,107.16001517423501 62.35037750097399,107.24860849921515 62.338291955129534,107.38727501698395 62.28994977178081,107.49384172967893 62.12844293195667,107.69156544676298 61.717534373492526,108.30397501213793 61.38023777602939,108.68527105830799 61.28684946728754,108.87784027829457 61.189066414604895,109.32844034580194 61.189066414604895,109.42857142857156" stroke="red" stroke-dasharray="none" stroke-linecap="round" stroke-linejoin="round" stroke-width="0.5"><title>2025-11-30 42.8km</title><desc>1764458479000</desc></polyline><polyline fill="none" opacity="1" points="97.00462831906043,101.52796368970303 98.08806062908843,108.01243127818452 100.95596968522295,109.42857142857974 102.99537168070674,107.04349164006999 101.8482080581598,100.40994600171689 98.98029900202528,99.21739184466423 97.00462831906043,101.45342923240969 98.15179194137454,108.0869650413515 100.82850706065074,109.42857142857974 102.99537168070674,107.04349164006999 101.91193937067874,100.5590151293436 99.17149293911643,99.14285714284051 97.00462831906043,101.52796368970303 98.02432931680232,107.86336372827645 100.82850706065074,109.42857142857974 102.99537168070674,107.04349164006999 101.91193937067874,100.5590151293436" stroke="#4dd2ff" stroke-dasharray="none" stroke-linecap="round" stroke-linejoin="round" stroke-width="0.5"><title>2025-11-26 8.7km</title><desc>1764155703000</desc></polyline><polyline fill="none" opacity="1" points="160.81448274615104,105.78423343469967 160.80081704958138,105.63661056784622 160.59886842247943,105.63107468264661 160.0522405596421,105.52220186696832 159.37806619548064,105.16974388211202 159.17308074690663,105.01104287300404 158.860288136515,104.67518182385902 158.4275410784321,104.0458838658169 158.20129787964106,103.77644046634305 156.93949856292602,102.93670629477583 156.54774859456666,102.77059957178972 156.4763832902463,102.78721032522026 155.89027674843237,102.71153896913802 155.2586178847123,102.72261284949764 155.06122448979295,102.75029751533657 155.17510529455467,102.99207480180758 155.21762079499604,103.02529580987175 155.6594783174587,102.83704247733203 155.6625151389162,102.75029751533657 155.68377288914053,102.72999543194874 155.8842031055101,102.71523026347768 156.64037164909678,102.80382106061916 156.9789772419099,102.95885372162775 157.32213806692016,103.17848063640304 157.63493067731906,103.42209672051376 158.0540120388323,103.65648126256019 158.20281629037345,103.78013150385868 158.3956544531029,103.99605564941157 158.9210245657232,104.77667907169598 159.22470671173505,105.07378532906296 159.6058278049968,105.33028857782483 160.0826087742389,105.53511902117589 160.57761067226238,105.62553879544976 160.79170658519433,105.63845586246407 160.81144592469354,105.66244467229717 160.80840910323604,105.7916145406798 160.8311852641782,105.81375783726253 161.93355145423993,105.85988960229042 162.67757271198934,105.78054288037492 162.7307170875356,105.72333917460219 162.69883046221366,105.60893112183658 162.7580484806822,105.58678752900505 162.99188373312063,105.5498814697803 163.44133330923069,105.54250024725934 164.25975669275067,105.3985656967734 165.01744364707702,105.18450668304922 165.34693877551035,105.04979559681396" stroke="red" stroke-dasharray="none" stroke-linecap="round" stroke-linejoin="round" stroke-width="0.5"><title>2025-11-16 42.7km</title><desc>1763252375000</desc></polyline><polyline fill="none" opacity="1" points="98.93964364503336,111.37857684651135 98.9697602752276,111.57228893711363 99.04003241236205,111.67207948607393 98.99736718625354,112.02427855371207 99.21320303600805,112.98106344334701 99.145440618071,113.35378972837316 99.2106933168252,113.66781507340784 99.45664579678851,114.17846552070114 99.40645141313144,114.28705089815594 99.47170411190018,114.49541624298581 99.87325918122951,115.44037746063623 99.86071058531525,115.55776169993806 99.98117710610677,115.8952386216115 100.05395896242408,116.45866920457411 100.11921166119282,116.57311464376653 100.3777127370704,116.76092152113051 100.40280992889893,116.93405486017218 100.3425766684959,117.15120362276139 100.59856802520517,117.30672804352616 100.59103886765661,117.38889153657328 100.47308206603338,117.48866116537647 100.48312094277935,117.68233059734666 100.55841251826496,117.93468570801451 100.57096111417923,118.13715500975923 100.62617493621656,118.24865921184937 100.68891791580245,118.79443647501103 100.81189415579138,118.90887228197425 100.84201078598562,119.22576897728868 100.9273412382172,119.57493799822441 100.99008421780309,119.66589727410246 100.90977320393722,119.89476123036548 100.98255506025453,120.04733615286023 100.9624773067917,120.21751488472364 101.0653757932887,120.41703344860434 101.11306045779202,120.85714285714312 101.0653757932887,120.41409936246237 101.00514253290021,120.34368120210456 100.9624773067917,120.18817379849497 100.98255506025453,120.02092901475407 100.91479264228838,119.88302466312962 100.98506477943738,119.66002894272788 100.85204966271704,119.25804528952904 100.81189415579138,118.92060926114027 100.68891791580245,118.79443647501103 100.62617493621656,118.26626509754715 100.4881403811305,117.72341181825504 100.46555290848482,117.50333313936062 100.59354858682491,117.32726893958898 100.33755723013019,117.15707248464787 100.39779049053323,116.94285822142956 100.3827321754361,116.77265940875077 100.16438660648419,116.61713199469523 100.06148811997264,116.48507973243977 99.97364794855821,115.8952386216115 99.85569114694954,115.5489578992183 99.86322030448355,115.44331207266805 99.47672355026589,114.54530630459703 99.40896113229974,114.28411616380981 99.37633478293719,114.30759402986223 99.35374731029151,114.2342256324755 99.32614039926557,114.26650775123562 99.37382506375434,114.20487821919778 99.36629590620578,113.99357592708475 99.19563500174263,113.62966265111208 99.13038230297389,113.28041880831734 99.20567387845949,113.022151625888 98.98481859032472,111.91568431808992 99.0425421315449,111.67794950717689 98.9371339258505,111.4695629969574 99.01995465889922,110.85319936550877 98.88693954219343,110.57142857142753" stroke="#ff8100" stroke-dasharray="none" stroke-linecap="round" stroke-linejoin="round" stroke-width="0.5"><title>2025-10-27 22.6km</title><desc>1761522564000</desc></polyline><polyline fill="none" opacity="1" points="140.23785536549985,110.57142857136205 132.00704259425402,120.85714285704307" stroke="#4dd2ff" stroke-dasharray="none" stroke-linecap="round" stroke-linejoin="round" stroke-width="0.5"><title>2025-10-23 8.3km</title><desc>1761191597000</desc></polyline><polyline fill="none" opacity="1" points="172.6865589862573,110.80075019266587 172.4201602715184,111.11743076228595 172.79872686610906,111.8217650870829 173.2707666939532,113.7982180151048 173.30815598723711,114.86831023229388 173.24739838566165,115.59989116936049 172.82676883609383,117.36328633979429 172.8548108060495,117.61987444313854 172.7052536328847,118.00748384920371 172.41081294819014,118.02932091256662 172.04159367692773,118.83728578697264 172.23321380506968,119.01743839932533 172.05561466192012,119.35590524991494 171.18163993116468,120.8571428571413 172.22386648171232,119.02835671933644 172.0182253686362,118.83182660711464 172.39211830153363,118.04569870404521 172.44352857983904,117.99656531407527 172.6211277229595,118.0511579667218 172.719274617848,117.9692689661897 173.11653585912427,116.28778620859885 173.26141937062494,115.30507621360448 173.2567457089608,113.79275830426195 172.78470588111668,111.85998450516126 172.39211830153363,111.10105078032575 172.70992729454883,110.75160993071768 172.990346994251,110.57142857142753" stroke="#4dd2ff" stroke-dasharray="none" stroke-linecap="round" stroke-linejoin="round" stroke-width="0.5"><title>2025-10-19 14.0km</title><desc>1760852519000</desc></polyline><polyline fill="none" opacity="1" points="124.60832106138696,123.53037089854115 125.07648853541468,125.58130982967123 125.1125014180434,126.42795490649223 124.9459418359329,127.83198681607973 124.54079690648359,129.48837816357627 124.43275825862656,129.5725108601 124.28420511781587,129.50415305497518 124.22568418356241,129.5619942807898 123.87906018833746,130.3139241161225 124.05912460145191,130.5137357335916 123.05076388810994,132.28571428571377 123.82504086443805,130.9711961613466 123.99610205684439,130.55580123532854 124.24369062486221,130.35073157944134 124.09063587372657,130.50847754338974 123.89706662966637,130.39805542098838 123.87455857804161,130.3139241161225 124.25719545583706,129.50415305497518 124.43725986895151,129.5567359903107 124.54079690648359,129.483119865341 124.91443056365824,127.91612230515602 125.09449497674359,126.50683415103413 125.06298370443983,125.53924013441792 124.59931784073706,123.5724422876956 124.23468740421231,122.86774183933812 124.51378724450478,122.56797818310224 124.82439835710102,122.36287569628257 124.73436615054379,122.13147700648187 124.5678065684333,122.0" stroke="#4dd2ff" stroke-dasharray="none" stroke-linecap="round" stroke-linejoin="round" stroke-width="0.5"><title>2025-10-07 14.0km</title><desc>1759810688000</desc></polyline><polyline fill="none" opacity="1" points="51.58828220667783,156.28571428571013 50.98676565889036,156.94769916299992 51.710329042572994,158.34294474161288 52.529786368540954,161.66293714751373 52.686703728861175,163.89317473884876 52.37286900822073,166.57142857142753" stroke="#4dd2ff" stroke-dasharray="none" stroke-linecap="round" stroke-linejoin="round" stroke-width="0.5"><title>2025-06-29 12.0km</title><desc>1751152499000</desc></polyline><polyline fill="none" opacity="1" points="105.14285714284051,158.39867145878816 104.6349206349114,159.02960340304344 104.6077097505331,159.57569775464071 104.4625850339944,159.67113110876744 104.2176870748226,159.63932001091234 104.09977324260399,159.70294218647177 103.6326530612132,160.26493456629396 103.11564625849132,161.13972149831898 102.05442176869838,161.93496910919202 101.83673469387577,162.25836619888287 101.38321995464503,162.10992189195167 100.55782312923111,162.534047317964 100.20408163263346,162.65068118157433 100.11791383216041,162.56055503805692 99.91383219952695,162.62947504471958 99.79138321994105,162.68779189950146 99.76417233559187,162.82032995372356 99.024943310651,163.15432429758584 98.74376417233725,163.14372133669895 98.09523809523671,163.36108158674324 97.76870748298825,163.3769859583117 97.15646258502966,163.57313945980786 96.9024943310651,163.81170349576496 96.37188208615407,163.86471757194522 95.88662131517776,164.24111590213943 95.56462585032568,164.32593767121944 95.36054421769222,164.26232135784448 95.2426303854736,164.45847139835314 95.05668934239657,164.36304715010556 94.85714285713038,164.45317005599645" stroke="#4dd2ff" stroke-dasharray="none" stroke-linecap="round" stroke-linejoin="round" stroke-width="0.5"><title>2025-06-22 15.1km</title><desc>1750548259000</desc></polyline><polyline fill="none" opacity="1" points="122.88886837771861,179.14285714286234 122.97178781934781,179.5456617161617 123.137626702548,179.77690033856925 123.02919358661165,180.6570920266022 123.5713591662934,183.1484224793021 123.3863850273483,183.998736671776 123.55860232911073,184.80428802533424 124.06887581589399,185.84104890644085 123.97319953714032,186.3706115315872 124.09438949023024,186.37807013170095 124.15179525752319,186.78083336639247 125.27439692840562,189.42857142857247 124.39417516370304,187.47447576622653 124.15179525752319,186.61674491888698 124.06887581589399,186.6764134894256 124.00509163006791,186.38552873103617 123.91579376987647,186.355694328995 124.04974056014908,186.38552873103617 124.27936362917535,186.07226687986258 123.8711448397662,186.22143936353677 123.69892753797467,186.16177040793264 124.00509163006791,185.86342487250658 123.52671023621224,184.8192055561958 123.3863850273483,184.036030919131 123.55860232911073,183.1111277624077 122.96540940075647,180.44823397657456" stroke="#4dd2ff" stroke-dasharray="none" stroke-linecap="round" stroke-linejoin="round" stroke-width="0.5"><title>2025-04-13 17.0km</title><desc>1744513358000</desc></polyline><polyline fill="none" opacity="1" points="136.2498813404236,179.14285714286962 137.1998316681711,179.71128895145375 137.57054399116896,181.14589696770418 135.99501661839895,182.093275225634 134.67435396788642,183.6632086429745 136.62059366353787,187.23612477749703 137.13032310758717,189.42857142857974 136.89862790575717,187.75040406757034" stroke="#4dd2ff" stroke-dasharray="none" stroke-linecap="round" stroke-linejoin="round" stroke-width="0.5"><title>2025-04-12 10.0km</title><desc>1744429372000</desc></polyline><polyline fill="none" opacity="1" points="34.65306122449692,217.59126772232412 36.38258503400721,216.9318385527513 35.6435374149587,216.95857226823136 35.26258503401186,217.36848817532154 34.75972789115622,217.56453420782782 34.95782312925439,218.0992028847395 37.07591836733627,217.75166863106278 38.325442176894285,217.37739936853177 38.11972789114225,216.39716246043827 37.708299319725484,216.39716246043827 37.26639455780969,216.70905726038472 36.58068027210538,216.91401607105217 37.94448979588924,216.36151726686512 38.22639455780154,216.70014599644492 38.44734693877399,217.33284339307284 39.56734693879844,216.86945985033526 40.34448979594163,216.8783710963762 40.67972789116902,216.67341219888476 42.363537414959865,216.24567028345336 42.56163265305804,216.08526650474232 42.38639455783414,215.5862305715782 42.45496598642785,215.43473693497072 43.93306122449576,215.33671149541624 44.3140136054426,215.48820530844387 44.854965986392926,215.461471125971 44.93877551020705,215.73772393547551 44.69496598641854,216.78034733812092 44.77877551023266,217.94771377109282 43.54448979589506,218.42000246074895 43.643537414987804,219.06159794488485 43.475918367359554,219.20417405502667 43.05687074831803,219.42694874366862 42.52353741499246,219.4091267902695 41.48734693878214,219.69427759178507 41.197823129274184,219.1863520544648 39.590204081643606,219.676455695022 39.22448979591718,219.56061327386124 38.57687074827845,219.81011982899508 38.59210884349886,219.95269467135222 38.48544217683957,219.84576356221805 38.31020408164477,220.27348718366557 38.05115646260674,220.40715036964684 38.00544217682909,220.28239806932834 38.02829931973247,220.40715036964684 37.70068027207162,220.29130895403796 37.35782312921947,219.95269467135222 36.37496598638245,220.10418017671327 36.17687074828427,220.2645762970351 37.34258503399906,221.16457108147733 38.05115646260674,221.03090909811 38.42448979589972,221.57446650710335 38.919727891130606,221.8061456474461 39.28544217685703,221.7259490940778 39.55210884351982,221.47644821732683 39.90258503399673,221.57446650710335 39.9787755102152,221.3338759557446 40.58068027213449,221.1913034526733" stroke="#4dd2ff" stroke-dasharray="none" stroke-linecap="round" stroke-linejoin="round" stroke-width="0.5"><title>2025-01-25 14.8km</title><desc>1737764447000</desc></polyline><polyline fill="none" opacity="1" points="189.42857142857974,217.3252624521847 188.67688648076728,218.03736340421165 188.5151314919931,218.49355054285843 188.64834148273803,218.91635636794672 188.49610149330692,219.17226433109317 188.55319148942363,219.5394355384633 188.22968151181703,219.81759469067765 187.08788159111282,219.7397102022005 186.45989163476042,219.5505619186515 186.24104664992774,219.3391604933422 185.30857671465492,219.36141329496604 184.98506673716474,219.61732017522445 184.20483679132303,219.67295202332025 183.62442183162784,219.67295202332025 183.41509184619645,219.4949300058288 181.33130699087633,219.5839410522458 180.21805206820136,219.41704527841648 179.1428571428405,219.61732017522445" stroke="#4dd2ff" stroke-dasharray="none" stroke-linecap="round" stroke-linejoin="round" stroke-width="0.5"><title>2024-10-28 17.0km</title><desc>1730088256000</desc></polyline><polyline fill="none" opacity="1" points="167.10204081633128,239.07751598487448 167.19275071992888,239.03642736918482 167.3071240766294,239.082081384302 167.48065606610908,239.29665463304264 167.78433704770578,239.37883135012817 168.2773256541841,239.17795466484313 168.2931012896006,239.37883135012817 168.37197946663946,239.34230838334406 168.4429698259628,239.41991965221678 168.3246525604045,239.59796852642467 168.41930637287442,239.6162299094758 168.36014774008072,239.87188849153608 168.5218480030162,240.18689438384172 168.82552898459835,240.3649402141491 170.2374483535823,239.48840007208491 170.2847752598027,239.57514178717975 169.95348691623076,240.0225437594563 169.79178665332438,240.14124149301279 169.7523475647904,240.34667913586964 169.67741329659475,240.41515814110244 169.69318893201125,240.89450825116364 170.04025291098515,241.8577582244543 169.89827219230938,242.0586229116816 170.04025291098515,241.88514891656087 170.18617753850413,241.97188599795118 170.33210216603766,241.76645579662727 170.35576561912603,242.16818508934375 170.68705396269797,242.25492162361115 171.1642669337889,242.7753373082087 171.42062100913608,242.8666376831643 171.68880681107112,243.26835712606044 171.83867534744786,243.3277017388791 172.03981469890277,243.5285598460723 172.38687867786211,243.4646505458586 172.48942030801845,243.51030005529537 172.83254037812003,243.82071548796011 173.18749217478035,243.55138457408975 173.50300488293578,243.62898856251923 173.68442469013098,243.4235659476435 174.37855264806421,243.4737804514516 174.52053336672543,243.4098710732178 174.9543633404246,243.50573510643517 175.34086640791793,243.38704627321567 175.46312758231943,243.51942995161153 175.53806185051508,243.77963121575158 175.94822837111133,243.38704627321567 176.0626017277973,243.44639072906284 176.2400776261493,243.16336261881588 176.40966570678574,243.06293286026266 176.38205834482505,242.7342520788734 176.84743958934268,242.7114269352096 177.17084011518455,242.77990233136006 177.27338174534088,242.25492162361115 177.1668962063559,242.16818508934375 177.22999874797824,242.11340403395297 177.2181670214195,241.99014641477697 177.3877551020414,242.01297192536367" stroke="#4dd2ff" stroke-dasharray="none" stroke-linecap="round" stroke-linejoin="round" stroke-width="0.5"><title>2024-05-25 14.8km</title><desc>1716598951000</desc></polyline><polyline fill="none" opacity="1" points="70.84060966176912,255.02703351335367 73.77008524932899,256.62588884914294 80.08473262703046,254.03726414375706 80.99612503219396,250.76340190978954 78.0666494446341,249.08839686511783 71.68690260918811,251.6009029696579 70.84060966176912,255.02703351335367 73.70498579181731,256.62588884914294 80.08473262703046,254.03726414375706 80.99612503219396,250.76340190978954 78.00154998688959,249.08839686511783 71.68690260918811,251.6009029696579 70.84060966176912,255.02703351335367 73.70498579181731,256.62588884914294 80.08473262703046,254.11340029764688 81.06122448970564,250.9918113864842 78.0666494446341,249.08839686511783 71.68690260918811,251.67703938105842 70.77551020402461,254.95089745649602 73.77008524932899,256.62588884914294 80.08473262703046,254.11340029764688 81.06122448970564,250.9918113864842 78.13174890191294,249.08839686511783 71.68690260918811,251.6009029696579 70.77551020402461,254.87476139125647 73.70498579181731,256.62588884914294 80.08473262703046,254.11340029764688 80.99612503219396,250.76340190978954 78.0666494446341,249.08839686511783 71.75200206669979,251.6009029696579 70.84060966176912,255.02703351335367" stroke="#4dd2ff" stroke-dasharray="none" stroke-linecap="round" stroke-linejoin="round" stroke-width="0.5"><title>2024-05-07 10.0km</title><desc>1715083186000</desc></polyline><polyline fill="none" opacity="1" points="102.84677701885812,258.0 97.15322298114188,247.71428571431898" stroke="#4dd2ff" stroke-dasharray="none" stroke-linecap="round" stroke-linejoin="round" stroke-width="0.5"><title>2024-04-27 10.0km</title><desc>1714177464000</desc></polyline><polyline fill="none" opacity="1" points="124.51232857676223,258.0 126.54275221959688,256.12988169147866 126.05052830604836,249.15285650250735 123.77399270725437,247.71428571426077 121.62051308644004,249.65635556011694 122.0512090108823,256.34566483524395 124.4508005878888,258.0 126.54275221959688,256.12988169147866 126.05052830604836,249.22478496207623 123.6509367285762,247.71428571426077 121.62051308644004,249.65635556011694 122.11273699975573,256.48952022677986 124.7584405336529,257.9280724677956 126.54275221959688,256.0579539615428 126.05052830604836,249.15285650250735 123.77399270725437,247.71428571426077 121.62051308644004,249.58442714618286 122.11273699975573,256.4175925348536 124.38927259854972,258.0 126.54275221959688,256.12988169147866 126.05052830604836,249.22478496207623 123.77399270725437,247.71428571426077 121.62051308644004,249.65635556011694 122.11273699975573,256.48952022677986 124.38927259854972,258.0 126.54275221959688,256.2018094137311 126.05052830604836,249.22478496207623 123.71246471791528,247.71428571426077 121.62051308644004,249.65635556011694 122.11273699975573,256.4175925348536 124.51232857676223,258.0 126.54275221959688,256.12988169147866 126.05052830604836,249.15285650250735 123.77399270725437,247.71428571426077 121.62051308644004,249.65635556011694 122.11273699975573,256.5614479109645 124.7584405336529,257.9280724677956" stroke="#4dd2ff" stroke-dasharray="none" stroke-linecap="round" stroke-linejoin="round" stroke-width="0.5"><title>2024-04-18 10.1km</title><desc>1713436846000</desc></polyline><polyline fill="none" opacity="1" points="143.02040816325461,253.6024786963826 145.14065356203355,253.0711520046607 146.68035557778785,253.24826112682058 149.44424690119922,252.55458244716283 150.3024414672982,252.8202470299875 151.53925128333503,252.83500615863886 152.64985601598164,252.11180701790727 153.30612244893564,252.2446397942549" stroke="#4dd2ff" stroke-dasharray="none" stroke-linecap="round" stroke-linejoin="round" stroke-width="0.5"><title>2024-04-07 10.0km</title><desc>1712456610000</desc></polyline><polyline fill="none" opacity="1" points="13.954887217842042,267.92623211460887 20.248120300704613,264.8397154547274 20.789473684038967,262.6237469181651 19.436090225353837,260.80348213529214 16.99999999953434,260.6451980317361 10.571428571362048,264.04829887417145 10.84210526314564,267.1348188010161 13.751879699295387,268.0053733998793 20.045112781925127,265.1562818523962 20.857142857275903,263.17773966799723 20.180451127700508,261.3574762339704 17.338345864554867,260.5660559675307 10.977443609153852,263.49430676933844 10.70676691713743,266.89739464374725 14.022556390846148,267.92623211460887 20.045112781925127,265.1562818523962 20.383458646479994,261.59490215062397 17.676691729109734,260.4869138947688 10.84210526314564,263.7317320074071 10.571428571362048,266.81825324124657 13.684210526291281,268.08451467665145 20.180451127700508,264.9979986703256 20.180451127700508,261.43661821464775 17.406015037558973,260.5660559675307 10.774436090374365,263.7317320074071 10.639097744133323,266.81825324124657 13.684210526291281,268.08451467665145 19.97744360868819,265.23542343091685 20.383458646479994,261.6740441060392 17.676691729109734,260.4869138947688 11.045112781925127,263.49430676933844 10.571428571362048,266.81825324124657 13.684210526291281,268.08451467665145 20.045112781925127,265.1562818523962 20.45112781925127,261.7531860532472 17.60902255610563,260.4869138947688 11.045112781925127,263.49430676933844 10.571428571362048,266.65997041075025 13.345864661503583,268.08451467665145 20.045112781925127,265.1562818523962 20.248120300704613,261.5157601869432 17.406015037558973,260.5660559675307 10.977443609153852,263.57344852376264 10.639097744133323,266.89739464374725 13.751879699295387,268.0053733998793 19.909774435916916,265.23542343091685 20.45112781925127,261.83232799184043 17.812030075117946,260.4869138947688 11.045112781925127,263.49430676933844 10.639097744133323,266.81825324124657 13.413533834507689,268.08451467665145 20.045112781925127,265.1562818523962 20.45112781925127,261.7531860532472 17.541353383334354,260.4869138947688 10.774436090374365,263.7317320074071 10.70676691713743,266.9765360377496 13.616541353287175,268.08451467665145 20.112781954696402,265.07714026549365" stroke="#4dd2ff" stroke-dasharray="none" stroke-linecap="round" stroke-linejoin="round" stroke-width="0.5"><title>2024-03-26 10.6km</title><desc>1711453549000</desc></polyline><polyline fill="none" opacity="1" points="95.65020026697312,267.8553167783102 94.85714285715949,265.63489652014687 94.95327102806186,265.38193489388505 96.76769025361864,264.4262977334147 97.2483311080723,264.4403512708959 98.341789052065,263.8782086108258 98.77436582103837,263.44254641201405 98.65420560742496,262.97877540346235 99.39919893187471,262.69770127646916 99.83177570090629,262.2760889699857 102.67957276367815,261.69988331905915 105.14285714289872,260.7161117931246" stroke="#4dd2ff" stroke-dasharray="none" stroke-linecap="round" stroke-linejoin="round" stroke-width="0.5"><title>2024-01-30 11.7km</title><desc>1706613736000</desc></polyline><polyline fill="none" opacity="1" points="110.95801891654264,259.3493334483028 111.09817223474965,259.32286217493674 111.31518382421928,259.5240434993975 112.02499256480951,259.4816896039083 112.37311532290187,259.7093413684561 112.57656368805328,259.7146355831428 112.77096990359132,259.57169158873876 112.90208107227227,259.60345695630167 112.94729182007723,259.3334506859719 112.96085504442453,259.58228004684497 113.32706210165634,259.3705104568435 113.87411215010798,259.2381540056267 113.90575967356563,259.1587399659802 114.02330761787016,259.14285714285506 114.12729233782738,259.3599219536918 113.91932289791293,260.07993503750185 113.75656420580344,260.2334658922082 113.52598939198651,260.26523083752545 113.34062532600365,260.4928790191261 113.24116168080945,260.5034672813272 113.2592459799489,260.720526159821 113.1959509330045,260.8158200026701 113.00606579220039,261.03817159333266 112.83426495056483,261.1069945034833 112.91564429659047,261.2711102898902 112.17870910733473,261.60463425353373 112.00238719087793,261.86404023616706 111.56384293717565,261.95403791436183 111.55932186238351,262.20285417805644 111.32422597380355,262.46225704396784 110.89472386959824,262.36696635231783 110.18039405427407,262.4251995744344 109.91365064217825,262.55225364087164 110.0447618108301,262.76400969779934 109.94077709087287,263.1769314185767 109.63334400579333,263.38868481888494 109.63334400579333,263.8121889180293 109.99955106302514,263.6322001160079 110.21656265252386,263.7327821737963 110.49686928890878,264.0980521487545 110.71840195317054,264.1351083733207 110.92185031829285,264.0609958966015 111.02583503825008,264.41038232110077 111.43725284331595,264.6485989323046 111.42821069376078,264.8444650700294 111.57288508673082,264.8762270738298 111.54575863806531,265.1144414565606 111.76729130232707,265.37912276757925 111.85319172314485,265.36324192857865 111.91196569526801,265.4479396779934 111.91648677006015,265.81319707223884 111.69043303103535,266.3319638393077 111.64974335802253,266.71309516346446 111.80798097533989,266.71838863353696 112.15158265866921,267.0254089352966 112.28721490208409,267.4806424507333 112.26913060294464,267.8988184086229 112.54491616456653,268.51284256633517 112.4771000428882,268.87807748349223 112.7800120531756,269.42857142857247 113.13717696085223,269.12156594035696 113.26376705471193,267.5282829269563 113.68422700933297,267.2477327999077 114.10016588913277,266.8083775387604 114.03234976745443,266.6495734786513 113.91028074835776,266.67074738259544 114.02330761787016,266.6442800012701 113.98713901962037,266.2949092494455 114.27648780561867,266.11492942077166 113.96905472051003,265.8343713317736 113.69326915888814,265.3685355421294 113.96905472051003,264.6009557012294 113.94644934657845,264.35744514162434 114.11372911350918,264.25686434559975 114.16346093607717,264.3150953575423 114.10920803871704,264.3098016319891 114.12729233782738,264.172164570311 114.44828864725423,263.62690631787336" stroke="#4dd2ff" stroke-dasharray="none" stroke-linecap="round" stroke-linejoin="round" stroke-width="0.5"><title>2024-01-27 16.6km</title><desc>1706316843000</desc></polyline><polyline fill="none" opacity="1" points="122.09292888874188,267.87867943116 124.32268765498884,269.35812187060947 126.67297392198816,267.4559809882194 126.25112766888924,260.76321992464364 124.02136890287511,259.1428571428987 121.49029138428159,261.3268234473071 121.97240138798952,267.5968804989243 124.68427015771158,269.35812187060947 126.67297392198816,267.24463166616624 126.13060016813688,260.4814179847599 123.72005015052855,259.1428571428987 121.49029138428159,261.18592261109734 122.03266513813287,268.09002855198923 124.4432151557412,269.35812187060947 126.67297392198816,267.38553122163285 126.25112766888924,260.76321992464364 123.65978639991954,259.1428571428987 121.55055513465777,261.0450217454927 121.97240138798952,267.87867943116 124.62400640710257,269.35812187060947 126.67297392198816,267.24463166616624 126.13060016813688,260.692769450834 123.9611051522661,259.1428571428987 121.55055513465777,260.9745713014854 121.91213763738051,267.5968804989243 124.26242390437983,269.2876723049558 126.67297392198816,267.1741818774026 126.13060016813688,260.6223189695156 123.84057765151374,259.2133077806211 121.49029138428159,261.25637303304393 121.8518738867715,267.6673302431591 124.26242390437983,269.42857142857974 126.61271017161198,267.4559809882194 126.01007266715169,260.6223189695156 123.65978639991954,259.2837584107183 121.49029138428159,261.3972738540033 121.97240138798952,267.87867943116 124.38295140559785,269.2876723049558 126.61271017161198,267.4559809882194" stroke="#4dd2ff" stroke-dasharray="none" stroke-linecap="round" stroke-linejoin="round" stroke-width="0.5"><title>2024-01-25 10.3km</title><desc>1706155972000</desc></polyline></svg>