<?xml version="1.0" encoding="utf-8" ?>
<svg baseProfile="full" height="300mm" version="1.1" viewBox="0,0,200,300" width="200mm" xmlns="http://www.w3.org/2000/svg" xmlns:ev="http://www.w3.org/2001/xml-events" xmlns:xlink="http://www.w3.org/1999/xlink"><defs /><rect fill="#222222" height="300" width="200" x="0" y="0" /><text fill="#FFFFFF" style="font-size:12px; font-family:-apple-system, BlinkMacSystemFont, 'Segoe UI', Roboto, 'Helvetica Neue', Arial, sans-serif; font-weight:bold;" x="10" y="20">Over 3km Runs</text><text fill="#FFFFFF" style="font-size:4px; font-family:-apple-system, BlinkMacSystemFont, 'Segoe UI', Roboto, 'Helvetica Neue', Arial, sans-serif;" x="10" y="280">Runner</text><text fill="#FFFFFF" style="font-size:9px; font-family:-apple-system, BlinkMacSystemFont, 'Segoe UI', Roboto, 'Helvetica Neue', Arial, sans-serif;" x="10" y="290">Hannah YAN</text><text fill="#FFFFFF" style="font-size:4px; font-family:-apple-system, BlinkMacSystemFont, 'Segoe UI', Roboto, 'Helvetica Neue', Arial, sans-serif;" x="65" y="280">SPECIAL TRACKS</text><rect fill="yellow" height="2.6" width="2.6" x="65" y="283" /><text fill="#FFFFFF" style="font-size:3px; font-family:-apple-system, BlinkMacSystemFont, 'Segoe UI', Roboto, 'Helvetica Neue', Arial, sans-serif;" x="70" y="285.5">Over 20.0 km</text><rect fill="red" height="2.6" width="2.6" x="65" y="287" /><text fill="#FFFFFF" style="font-size:3px; font-family:-apple-system, BlinkMacSystemFont, 'Segoe UI', Roboto, 'Helvetica Neue', Arial, sans-serif;" x="70" y="289.5">Over 40.0 km</text><text fill="#FFFFFF" style="font-size:4px; font-family:-apple-system, BlinkMacSystemFont, 'Segoe UI', Roboto, 'Helvetica Neue', Arial, sans-serif;" x="120" y="280">STATISTICS</text><text fill="#FFFFFF" style="font-size:3px; font-family:-apple-system, BlinkMacSystemFont, 'Segoe UI', Roboto, 'Helvetica Neue', Arial, sans-serif;" x="120" y="285">Number: 311</text><text fill="#FFFFFF" style="font-size:3px; font-family:-apple-system, BlinkMacSystemFont, 'Segoe UI', Roboto, 'Helvetica Neue', Arial, sans-serif;" x="120" y="290">Weekly: 2.8</text><text fill="#FFFFFF" style="font-size:3px; font-family:-apple-system, BlinkMacSystemFont, 'Segoe UI', Roboto, 'Helvetica Neue', Arial, sans-serif;" x="141" y="285">Total: 2725.3 km</text><text fill="#FFFFFF" style="font-size:3px; font-family:-apple-system, BlinkMacSystemFont, 'Segoe UI', Roboto, 'Helvetica Neue', Arial, sans-serif;" x="141" y="290">Avg: 8.8 km</text><text fill="#FFFFFF" style="font-size:3px; font-family:-apple-system, BlinkMacSystemFont, 'Segoe UI', Roboto, 'Helvetica Neue', Arial, sans-serif;" x="167" y="285">Min: 3.0 km</text><text fill="#FFFFFF" style="font-size:3px; font-family:-apple-system, BlinkMacSystemFont, 'Segoe UI', Roboto, 'Helvetica Neue', Arial, sans-serif;" x="167" y="290">Max: 42.8 km</text><polyline fill="none" opacity="1" points="29.762697367543296,30.610324638315433 29.48005454721715,30.583583599407575 28.97919484355225,30.639496645229883 28.80462133687979,30.692978561615746 28.378578850351914,30.69540955485172 28.12503161447239,30.77077021752666 27.96084938795684,30.87530233997677 27.844467050177627,30.84613063276811 27.62001539873745,30.87530233997677 27.337372578411305,31.040607980552522 27.24177280094591,31.062486579059623 27.150329535550554,31.05519371520859 27.10668615888426,31.011436483428042 27.019399405551667,31.01872936118707 27.077590574437636,31.00414360335526 27.002773357293336,30.950662412011297 26.06547988694365,31.434419563165648 25.909610684553627,31.480606898692713 25.895062892326678,31.512208706299134 25.97819313360378,31.675078870970538 25.83894997947209,31.837947880050706 25.54591587898176,31.978938029396886 25.290290387070854,31.981368886450582 25.254960034530086,32.06158702470748 25.1988471216755,32.36544106715701 25.290290387070854,32.81270690065867 25.23209921817761,33.123843210918494 25.298603411196382,33.77284053775111 25.448237845492258,34.19577274335097 25.6248896081961,34.55307146727864 25.805697882962704,34.81557310951939 26.271227234094113,35.34056739212792 26.990303821090492,36.040541100288465 27.289572689682245,36.39051995437876 27.358155138725124,36.36378564670849 27.437128867939464,36.41725423092976 27.93591031558026,36.94707256525544 28.03982311717118,37.12448606512771 28.216474879867746,37.289746722688506 28.35779629004537,37.48173922890055 28.644595622427005,38.077148821881565 28.893986346243764,38.947148151881265 28.92516018672177,39.19258893188271 28.87736029799271,39.39914597234747 28.603030501784815,40.02852597576384 28.268431280674122,40.65788874040845 28.120875102416903,40.85714285714312 28.343248497811146,40.5655508809632 28.912690650533477,39.338394094389514 28.935551466878678,39.10996559573323 28.715256327501265,38.49028110324798 28.634204342270095,38.06013733339023 28.376500594320532,37.503611691088736 28.199848831609415,37.26301346163564 28.060605677492276,37.146358867485105 27.902658219070872,36.90332656017017 27.77172808906471,36.80368257088958 27.41218979556288,36.4026719021258 27.356076882701018,36.375937608603635 27.2833379215881,36.39538073424774 27.181503376021283,36.2495568906852 26.21719257726363,35.27737427127977 26.115358031711366,35.20688943133973 25.593715767718095,34.506890312413816 25.381733652473486,34.054796207054096 25.288212131039472,33.7388111710934 25.234177474216267,33.123843210918494 25.288212131039472,32.81270690065867 25.200925377699605,32.36057943414198 25.254960034530086,32.05186362893801 25.304838179290527,31.981368886450582 25.58955925565533,31.96921459862824 26.125749311861,31.61187566069384 26.310714098697645,31.524363236103454 26.464505045041733,31.512208706299134 26.522696213942254,31.439281392333214 26.510226677746687,31.378508453704853 27.025634173638537,31.14513887412977 27.065121038249345,31.02845319458902 27.108764414922916,31.001712642819257 27.293729201737733,31.040607980552522 27.7322412244539,30.838837700172007 27.802901929535437,30.860716491009953 27.8590148423973,30.938507578423014 28.13750115066796,30.756184302123074 28.505352468288038,30.668668615078786 28.721491095602687,30.690547568117836 28.977116587513592,30.622479645708154 29.652549797858228,30.571428571427532 29.721132246908383,30.593307617160463 30.1970528781967,30.57872158898863 30.31135695995181,30.637065646080373" stroke="#4dd2ff" stroke-dasharray="none" stroke-linecap="round" stroke-linejoin="round" stroke-width="0.5"><title>2026-07-19 15.6km</title><desc>1784414563000</desc></polyline><polyline fill="none" opacity="1" points="65.69880961277522,30.571428571420256 65.07880668761209,31.25110894261161 64.76880522537977,35.193233827943914 62.05629242793657,40.857142857130384" stroke="#4dd2ff" stroke-dasharray="none" stroke-linecap="round" stroke-linejoin="round" stroke-width="0.5"><title>2026-07-14 4.4km</title><desc>1784026688000</desc></polyline><polyline fill="none" opacity="1" points="77.05963276675902,37.88076130760601 77.45119663467631,38.1264354721352 78.14837132627144,38.182270429802884 80.35449945990695,39.00862435105955 81.06122448976384,38.96395673687948 80.67921096016653,36.39553713906935 80.45000284234993,35.92651463990478 77.3365925757098,37.132568285262096 77.07873344322434,37.065565666387556 77.29839122277917,35.35698451833741 77.23153885506326,32.598628495623416 77.10738445795141,32.419947077512916 71.76874538115226,32.743806925158424 71.73054402816342,33.469696078114794 71.06202035129536,34.966128735664824 70.77551020408282,36.35086841938755 73.28724916145438,37.0208972301989 73.46870558807859,36.88689180822985 74.3759877209668,34.44126297982439 74.50969245634042,32.66563394945115 73.86026945593767,32.576293334932416 71.77829571941402,32.72147179514286 71.71144335169811,33.61487330978707 71.02381899830652,35.1224712223775 70.78506054228637,36.35086841938755 73.420953896828,36.9762287751073 74.48104144161334,34.10624092024227" stroke="#4dd2ff" stroke-dasharray="none" stroke-linecap="round" stroke-linejoin="round" stroke-width="0.5"><title>2026-07-09 10.0km</title><desc>1783598044000</desc></polyline><polyline fill="none" opacity="1" points="85.98310879105702,39.034370587032754 88.0426797955297,40.79204394062981 90.88154793623835,38.96927147731185 89.99092263705097,32.78482465108391 87.82002347055823,30.571428571478464 84.98115532961674,32.32912610931089 85.87178062857129,39.099469689594116 88.32100020139478,40.85714285715949 89.76826631231233,40.4014502959908 90.93721201759763,38.578676675329916 90.1022507995367,32.65462510212092 89.15596141922288,31.22242824517889 87.37471082084812,30.63652856979752 84.92549124825746,32.78482465108391 86.26142919715494,39.22966787428595 88.3766642822884,40.6618460866157 90.88154793623835,38.578676675329916 89.93525855615735,32.2640262900386 87.31904673972167,30.76672854583012 85.14814757322893,32.39422592159826 86.09443695354275,39.22966787428595 88.20967203890905,40.79204394062981 89.82393039343879,40.4014502959908 90.93721201759763,38.64377582632005 89.82393039343879,32.65462510212092 88.98896917561069,31.22242824517889 87.26338265859522,30.70162856130628 84.98115532961674,32.78482465108391 86.03877287218347,39.1645687854616 88.87764101312496,40.72694501694059 90.60322753037326,39.620262262935285 90.99287609872408,38.05788322020089 89.5456099875737,31.87342722999165 86.70674184663221,30.831828523485456 84.98115532961674,32.84992441511713 86.03877287218347,38.96927147731185 87.26338265859522,40.59674714936409 88.59932060725987,40.6618460866157 90.32490712427534,39.94575739733409 90.93721201759763,38.31828000303358 89.93525855615735,32.2640262900386 87.09639041498303,30.70162856130628 84.98115532961674,32.52442552574212 86.09443695354275,39.42496509948978 88.3766642822884,40.72694501694059 90.93721201759763,38.8390732377884 89.87959447479807,32.39422592159826" stroke="#4dd2ff" stroke-dasharray="none" stroke-linecap="round" stroke-linejoin="round" stroke-width="0.5"><title>2026-07-08 4.7km</title><desc>1783508969000</desc></polyline><polyline fill="none" opacity="1" points="121.82166806666646,40.697218438072014 121.95842309982982,40.8571428571413 122.2459593233798,40.57009855726574 122.42479282828572,40.27485077354868 122.43531244622136,40.11902464748346 122.73336828772153,39.69665068106042 123.14363338718249,39.22916344773694 123.39610421762336,39.097937947441096 123.33999958862842,39.02002259635992 123.60299003701948,38.47050988202318 123.94312435026222,37.3632590991765 123.92909819300985,36.42002051014788 123.87299356402946,36.260077776601975 123.93961781093094,36.06732539982477 124.49014448287198,35.84586403833964 125.18794580591202,35.312711123664485 125.3737923894223,35.300407508239005 125.41587086119398,35.15276381843796 125.60171744470426,34.92309473800924 125.52808011914021,34.37352391092281 125.18794580591202,33.51224051210738 124.99859268307046,32.83550440617546 125.2756092887139,32.70835872745738 125.9348386793281,32.57711113743062 126.32055800360104,32.568908148292394 126.58004191266082,32.47047214306076 126.72381002445763,32.12594415458807 126.6747184740816,31.777311522699165 126.70627732788853,31.387659573185374 126.61861384508666,30.977495390987315 126.68523809201724,30.79292009173878 126.80446042861149,30.784716724687314 127.02537240525999,30.87905534086167 127.64953640273598,31.354846598449512 127.8564222221321,31.43277736800883 128.01421649115218,31.34254172576766 128.17201076018682,31.043121952054207 128.28772655746434,31.0595285749514 128.39292273682076,30.998003703265567 127.96161840148852,30.92007205882328 127.89850069386011,31.149764876616246 127.77577181796369,31.194882948602753 127.12004896666622,30.702682958602963 126.79744734997803,30.571428571427532 126.65367923821032,30.583733689109067 126.47835227262112,30.6903778786982 126.42926072225964,30.842140257551364 126.52393728368043,31.96598368958439 126.52393728368043,32.14645185873451 126.45029995813093,32.26129480126838 125.01612537962501,32.57300964307433 124.80222648162453,32.757576459047414 124.79170686368889,33.032374311045714 125.35976623218448,34.56628471565273 125.3737923894223,34.89438600721769 124.46559870768397,35.616199067004345 123.71870583431155,35.964797149121296 123.75727776673739,37.12950211090356 123.47324808248959,38.281869392227236 123.14363338718249,38.995417716101656 122.59661325455818,39.55722525429519 122.298557413058,40.0206078239753 122.12673698678555,40.135427427099785 121.87777269564685,40.4470789207553 121.6323149438249,40.50448813305775 121.17295829400246,40.06571556576819 120.46113081371004,39.2414658156049 120.17008805084333,39.14304676329266 119.77034256930347,39.126643563602556" stroke="#4dd2ff" stroke-dasharray="none" stroke-linecap="round" stroke-linejoin="round" stroke-width="0.5"><title>2026-06-28 15.3km</title><desc>1782609425000</desc></polyline><polyline fill="none" opacity="1" points="145.92160506891378,30.571428571423894 146.64720576052787,31.37182877972009 147.11337380262557,31.48075788285132 147.19039287045598,31.689143257040996 147.06473018083489,31.764919517059752 147.06473018083489,31.840695649203553 147.37280645214196,32.18642262990761 147.6484536422504,32.04434337088969 147.6849363585934,32.12011903163511 147.5592736689723,32.22431035639602 147.5592736689723,32.33797334413248 147.73763361552847,32.513203220016294 147.9443690081098,32.52741101783977 148.05381715710973,32.60792178722477 148.0376026165177,32.939435199496074 148.31324980662612,33.28515372315451 148.47134157741675,33.35619144640805 148.8280614705145,33.299361276793206 148.82400783537014,33.503002385135915 148.92534871408134,33.621397953960695 148.99020687647862,33.90081025911422 149.56176943241735,34.59696556158815 149.89822114976414,34.42647954625863 150.07252746116137,34.54960840001877 150.14143925868848,34.79112940211053 149.89416751460521,34.91899293634924 149.62662759478553,35.22681106312666 150.02388383937068,35.951359251681424 150.38465736759827,37.63719085797493 150.39681827304594,38.674230000415264 150.25899467800627,39.630747168204834 150.36844282699167,39.79174310537201 150.30358466463804,40.01903050528199 150.14954652897723,40.208435793705576 150.03199110965943,40.64406492748458 150.05631292055477,40.83346758150583 150.1536001641216,40.8571428571413 150.21440469135996,40.79085205395677 150.14143925868848,40.208435793705576 150.29547739433474,40.028500788659585 150.356281921544,39.79174310537201 150.25494104284735,39.59286568739117 150.40492554333468,38.413788630899944 150.3643891918764,37.60404309336445 149.99956202847534,35.91821024323508 149.6063594190491,35.21733976757969 149.89416751460521,34.89531453152813 150.1292783532408,34.772186625348695 150.05631292055477,34.535401241813815 149.88606024431647,34.42647954625863 149.537447621522,34.59696556158815 148.99020687647862,33.91028183222443 148.90508053834492,33.60719050217449 148.81184692992247,33.512474042130634 148.81184692992247,33.299361276793206 148.47539521257568,33.36092729063603 148.31324980662612,33.299361276793206 148.03354898135876,32.934699310826545 148.0740853328607,32.6979042410494 148.0213880759111,32.57003438430547 147.7538481561205,32.52267508573277 147.5471127635392,32.333237392060255 147.5552200338425,32.21483842777161 147.70520453432982,32.12011903163511 147.68088272344903,32.039607387843716 147.4295573442214,32.18642262990761 147.352538276391,32.16747875465808 147.04851564024284,31.788599572082603 147.18228560015268,31.674935194067075" stroke="#4dd2ff" stroke-dasharray="none" stroke-linecap="round" stroke-linejoin="round" stroke-width="0.5"><title>2026-06-21 12.1km</title><desc>1782018676000</desc></polyline><polyline fill="none" opacity="1" points="162.55278804438422,35.93920627000625 161.94536397239426,35.59591166788596 160.4774224650464,35.61958719152608 159.19170817936538,36.60211700436048 158.19958219508408,36.46006503469107 157.68327173392754,36.199635955374106 155.2029567732825,36.27066212800128 155.06122448982205,35.76164022798184 156.71139321872033,35.93920627000625 157.56178691948298,35.73796473442053 158.59440784185426,36.11677203031286 159.20183191384422,35.903693084124825 159.25245058652945,36.05758347483061 159.9003695966676,35.3473183676615 160.4571749959723,35.13423795651033 161.98585891054245,35.18158919405687 162.64390165515942,35.548560605682724 163.48417162144324,34.85013011060073 164.35481279127998,35.01585977504146 165.34693877550308,34.82645442420471" stroke="#4dd2ff" stroke-dasharray="none" stroke-linecap="round" stroke-linejoin="round" stroke-width="0.5"><title>2026-06-18 10.3km</title><desc>1781755773000</desc></polyline><polyline fill="none" opacity="1" points="12.104504962393548,42.74635264457902 12.940209831052925,42.13570080361387 13.752700675453525,42.20355115160055 14.240195182152092,42.0 15.621429617749527,42.32568168763828 16.50356253463542,42.108560654349276 16.7473097879556,42.56994241110806 15.284826267918106,45.48746512307844 14.669654628494754,48.09282471110055 16.468741498421878,48.906988739428925 19.324066466127988,49.61259338774835 18.999070128367748,52.28571428571013 16.631239667301998,51.742953124063206" stroke="#4dd2ff" stroke-dasharray="none" stroke-linecap="round" stroke-linejoin="round" stroke-width="0.5"><title>2026-06-11 10.1km</title><desc>1781164397000</desc></polyline><polyline fill="none" opacity="1" points="51.93310180668777,45.34207954386511 52.36577047644823,45.11668103803095 52.84957271628082,45.39727899976788 53.050173644995084,45.388079095329886 53.41204198694322,45.25468026198723 53.73457681352738,44.89128136333238 53.911577632970875,44.98328137174758 53.92731103913684,45.2316804217553 54.17117883483297,45.43867854570635 54.67071448081697,44.78088109620148 54.97751590120606,44.70268073731495 56.05525422406208,44.85448130545046 56.48792289382254,45.447878439452325 56.444656026840676,45.56287694690036 56.4957895969128,45.80667277647808 56.7081905802479,46.28506061892767 56.920591563583,46.37705767733496 56.979591836745385,46.70824547549637 56.49185624536767,46.94743509381442 56.110321145664784,47.237220752820576 54.438646739770775,49.31626121712179 54.210512350240606,49.52323989235083 53.659843134199036,48.57572944295316 53.541842587903375,48.51133477951589 53.3609084169002,48.529733264535025 53.1485074335651,48.42394186943784 53.11704062121862,48.34114842413692 53.83684395365708,47.94097788238287 53.876177469064714,47.53160420619679 53.95091114839306,47.4028116906411 54.26557927188696,47.632798057875334 54.4701135521027,47.66959576372392 55.03651617435389,47.16822434256028 55.17025012683007,46.827840449168434 55.213516993797384,46.51045306620654 55.83891988918185,46.00906827544895 55.93725367775187,45.77447340566505 55.93332032622129,45.24548032735402 55.866453349997755,45.13508095987345 55.709119288265356,45.07068119935866 55.524251765717054,45.098281108395895 55.123049908303074,45.521477519254404 54.97751590120606,45.51687758041953 54.79658173020289,45.296079943731456 54.8398485971702,45.53987726975174 55.028649471263634,45.74687392598571 55.56751863268437,45.67327522780397 55.15058336908987,45.99526861227423 54.8319818940945,46.0596670029372 54.8319818940945,46.17006402209881 54.529113825265085,46.74044415462049 54.37964646660839,46.76344319654163 54.17511218636355,46.64844786528192 53.92731103913684,46.60704947155682 53.19964100362267,46.83244024927626 52.578171459797886,46.786442226286454 52.28317009402963,47.25561977706457 51.457166269945446,47.72479226408541 51.38636594216223,47.97317564846162 51.09923127951333,48.2077586528394 51.000897490928764,48.48373703742254 50.52102860264131,49.20587218743822 50.292894213140244,49.41285138818421 49.92315916807274,49.583033548402454 49.74222499708412,49.57843403931838 49.55342412300524,49.40365233351622 49.333156436579884,49.366856095391995 49.2190892418148,49.366856095391995 48.99882155538944,49.52323989235083 48.770687165873824,49.583033548402454 48.483552503210376,49.44504806418627 48.204284543637186,49.10008243764605 48.19641784056148,48.87470341662993 47.92108323251887,48.72751648653502 47.78341592851211,48.189360031574324 47.50808132048405,47.927178832491336 47.51594802357431,48.396344071865315 47.42548093809455,48.91609965094176 47.14621297850681,49.0540868139542 47.10294611151039,48.97129456870243 46.99674561986467,49.10008243764605 46.92987864362658,49.08628375564149 46.7135443087318,49.24266856180111 46.693877551020705,49.17827488621333" stroke="#ff8800" stroke-dasharray="none" stroke-linecap="round" stroke-linejoin="round" stroke-width="0.5"><title>2026-06-06 21.6km</title><desc>1780740439000</desc></polyline><polyline fill="none" opacity="1" points="109.48873346619075,52.285714285717404 109.3119658222422,51.678416038354044 109.44454155518906,51.21324937981262 111.36688968370436,50.412124867951206 113.46600545634283,48.83570321700245 114.08469221030828,48.745252176777285 114.13993209903128,48.25423107454844 114.76966683083447,47.517695717237075 114.70337896433193,46.40642343273794 113.0572302795481,42.000000000007276" stroke="#4dd2ff" stroke-dasharray="none" stroke-linecap="round" stroke-linejoin="round" stroke-width="0.5"><title>2026-05-23 13.0km</title><desc>1779516917000</desc></polyline><polyline fill="none" opacity="1" points="177.34796510473825,50.191236095284694 175.45794023608323,51.2849049968645 172.7920104211662,48.19004061068699 168.1962657404365,44.95551170533872 167.10204081633128,44.04797345989209 167.10204081633128,43.698919290691265 169.80776062840596,43.00080928884563 173.01085540594067,46.747306980381836 177.02964512689505,49.376798271463485 177.3877551020123,50.214505703086616 175.85584020847455,51.238366005563876 175.31867524574045,51.14528799326217 172.77211542252917,48.23658024753968" stroke="#4dd2ff" stroke-dasharray="none" stroke-linecap="round" stroke-linejoin="round" stroke-width="0.5"><title>2026-05-10 15.1km</title><desc>1778395698000</desc></polyline><polyline fill="none" opacity="1" points="155.06122448979295,60.04219497351369 155.32098297051562,60.05907537363237 155.4003536174132,60.04641507421911 155.44364669753122,59.92825208564318 155.66011209813587,59.924031972430384 156.68471499437874,59.987333623743325 156.76408564124722,60.168797800084576 157.720141160622,60.21099865289216 158.8241147037479,60.185678146583086 159.74048489965207,60.05907537363237 161.07896262677968,59.72990628131083 161.9051389057713,59.38385379045212 161.9664707692864,59.34165206156467 161.9700785259629,59.23192735723569 162.26230681678862,59.13908314060973 162.76378499488055,58.87320986886698 162.7890392916015,58.695960035311145 162.90448750526411,58.59045380761381 163.97599123828695,57.801258362720546 164.5424090365559,57.239949414612056 164.98255535113276,56.9234183247645 165.0835725380748,57.012047283453285 165.34693877550308,57.050031062524795 165.07635702473635,57.252610605894006 165.09800356479536,57.37078153043694 163.25804765959037,58.66641831972447 163.1029141225008,58.66641831972447 163.0740520690888,58.569352528546005 162.92252628863207,58.59467406209296 162.7818237782485,58.70862076386038 162.7673927515425,58.87320986886698 162.27313008680358,59.143303336975805 162.13242757640546,58.999816410021594 161.4397382944735,59.493578076388076 160.96351441310253,59.607522207330476 160.57026893533475,59.76366733901523 160.48729053177522,59.86495034046675 159.99663562372734,60.00421404709414 158.8998775939399,60.18145806062603 157.65880929710693,60.219438818090566 156.76047788458527,60.16457771235582 156.6991460210702,60.12237681039187 156.67749948101118,59.97889340936308 155.49054753432574,59.90293139963978 155.36066829395713,60.04641507421911" stroke="#4dd2ff" stroke-dasharray="none" stroke-linecap="round" stroke-linejoin="round" stroke-width="0.5"><title>2026-04-12 19.4km</title><desc>1775975191000</desc></polyline><polyline fill="none" opacity="1" points="188.75997770065442,59.306153225072194 188.26495281234384,55.03155642157071 187.08450884744525,53.428571428579744 185.14248813129961,53.56215374454041 179.81145087094046,56.055682526610326 180.877658323152,60.196688761992846 182.55312717636116,62.779231164982775 181.98194461292587,63.71428571428987" stroke="#4dd2ff" stroke-dasharray="none" stroke-linecap="round" stroke-linejoin="round" stroke-width="0.5"><title>2026-04-09 10.0km</title><desc>1775707979000</desc></polyline><polyline fill="none" opacity="1" points="38.959603280585725,66.42839656141587 39.619683387398254,65.94333598366211 39.69017737940885,66.34020396241976 40.04905588403926,66.8914060048919 40.47201983598643,67.22212528611999 40.657867633068236,67.24417318635096 41.17695975585957,66.98694728034025 43.31741369445808,66.84730999056774 43.4199504100834,67.09718706237618 43.61220675185905,67.05309116900753 44.16975014304626,67.97909948592132 44.58630555027048,68.05259171983926 44.535037192486925,69.00063508220046 44.6888422658958,69.58856293120334 44.93877551020705,69.83843087172136 44.887507152423495,70.11769405563973 44.46454320047633,70.33081525978923 44.438909021555446,70.76440480615565 44.23383559033391,70.59537867087056 44.04157924852916,70.77175375993829 43.689109288621694,71.41110998176009 43.58016402827343,71.86673982626962 43.471218767925166,71.77855362071568 43.50326149153989,70.83789431140758 43.40072477591457,70.52188892806589 43.59938966241316,70.08829797999351 43.509670036291936,69.67675171112205 43.3622735075478,69.53711942835798 42.83677283997531,69.51507220204803 43.03543772653211,69.41218506031873 42.772687392745866,69.29459958268126 42.535571237880504,69.34604325181863 42.56120541674318,69.76494038735837 41.6511920656194,70.11034503782139 41.542246805271134,70.33081525978923 40.74758725921856,70.42635215475457 40.58737364105764,70.6100766107993 39.99137898150366,70.77910271297151 39.96574480261188,70.48514402964065 40.47842838073848,69.79433658976632 40.670684722514125,69.11087190487888 40.44638565706555,68.54498782986047 40.30539767310256,68.43475017560559 40.375891665084055,68.33186155212024 40.010604615701595,68.33921074418322 39.83116536337184,68.22162358463538 39.88884226587834,68.09668702563795 40.26694640473579,67.97909948592132 40.28617203893373,67.61163723621576 40.05546442876221,67.89090871017106 39.619683387398254,67.68512983016262 40.04905588403926,67.71452684758697 40.03623879462248,67.20742668236198 40.209269502200186,67.08983774860826 39.99137898150366,67.09718706237618 39.84398245281773,67.39115902230697 39.39538432197878,67.2882689673861 39.2415792485117,67.67043131712853 39.07495708562783,68.6405269991883 38.0431813847099,69.52242127819045 37.607400343345944,70.90403480458917 37.210070570290554,71.27148092707648 36.97936296014814,72.60162084152398 36.81914934198721,72.60162084152398 36.27442304024589,72.9764073876795 35.80659927520901,73.06459218528471 35.72969673850457,73.70392886814079 35.56948312034365,74.05666401633061 34.65306122449692,73.99052630237566" stroke="#4dd2ff" stroke-dasharray="none" stroke-linecap="round" stroke-linejoin="round" stroke-width="0.5"><title>2026-03-22 12.8km</title><desc>1774137608000</desc></polyline><polyline fill="none" opacity="1" points="14.361786531022517,82.46823586917526 15.796611751546152,82.48395813229581 16.97269799785863,82.38176330289934 18.155504737020237,82.09089955580203 19.086292994819814,81.7528658502888 19.150137676784652,81.66246096531177 19.08293274839525,81.45413582661422 19.297988519159844,81.36766089725643 19.425677883060416,81.48165053461344 19.892752135172486,81.23008673066943 19.88603164233791,81.11216561048786 19.973398049216485,81.01782844453919 20.857142857144936,80.37318472484549 20.020441499058506,80.9745904966694 19.902832874417072,81.09251205403416 19.889391888747923,81.23794812535925 19.600410696788458,81.39517566936775 19.398795911693014,81.4895118759996 19.29126802633982,81.3558688458179 19.086292994819814,81.45806650043596 19.039249544977793,81.58777850290426 18.48144863957714,81.8747155641795 18.14206375135109,81.94546682735017 17.84636206655705,82.06731590882919 17.78923787745589,82.14985860767774 17.14071031876665,82.32673520128083 16.085592943491065,82.46823586917526 15.269053063908359,82.4721664355784 14.304662341906806,82.43286075277501 14.217295935042785,82.25991525388963 13.266346198739484,82.20095637686973 13.061371167219477,82.20095637686973 12.99416623885918,82.31887403724613 12.69846455406514,82.32673520128083 12.570775190193672,82.22453993892123 11.290521304894355,82.22453993892123 10.571428571434808,82.30315170417816" stroke="#ff9000" stroke-dasharray="none" stroke-linecap="round" stroke-linejoin="round" stroke-width="0.5"><title>2026-02-18 20.3km</title><desc>1771394553000</desc></polyline><polyline fill="none" opacity="1" points="70.77551020408282,85.27984131791527 70.93062498013023,85.11090930245336 70.8289980578702,84.78555739290096 71.16062275145669,84.64165116898948 71.36387659588945,84.84186842856434 72.05921869527083,84.47271732833178 72.1127065490873,84.22244408368715 72.23572861283901,84.08479334711956 72.71177051166887,83.97216977859716 73.99013021745486,83.15877096309123 74.5196599700721,82.68324031309385 74.87267980515026,82.68324031309385 75.54662676301086,82.23899111512947 75.87825145659735,81.75719595432383 75.81941481740796,81.59451098641875 76.11894679866964,81.62579659197945 76.72870833199704,81.03762443452797 76.90521824956522,81.17528227301591 77.06033302558353,81.06891033509964 77.16195994778536,80.98130977177425 77.16730873315828,80.83739427848923 77.79846540800645,80.34307317400453 77.9963704670663,80.31804414727594 80.68680951319402,77.9464957423952 80.8312267184665,78.03410080770482 81.06122448979295,77.74625510512124 80.94889999681618,77.57730153922967 80.71890222548973,77.8776630999273 80.53169473717571,77.86514806540072 79.90588684772956,78.45960927612032 79.71867935941555,78.37200484209825 79.90588684772956,78.4533518208591 80.09844312138739,78.32194510715271 80.17867490209755,78.43457945108457 79.2479862459877,79.30435964967182 78.23171702376567,80.1303261086141 77.17800630393322,80.8311370751835 77.16195994778536,80.98756695918928 76.93196217645891,81.18779660608197 76.71801076125121,81.06891033509964 76.35429335542722,81.45685412510284" stroke="#ff7e00" stroke-dasharray="none" stroke-linecap="round" stroke-linejoin="round" stroke-width="0.5"><title>2026-02-08 23.1km</title><desc>1770528486000</desc></polyline><polyline fill="none" opacity="1" points="76.72566060053941,99.14285714285688 76.84927973554295,99.61172906171305 76.95179316457507,100.16342988169527 77.3151128174577,101.0376532178143 77.33018832172093,101.12754051833326 77.30154486361425,101.17512771654583 77.22465979184926,101.20508995685304 77.00003477823338,101.42539889393629 76.79802302103053,101.47651015134034 76.80706832359283,101.5575828589881 76.84927973554295,101.59635662330402 77.21410693885264,101.61398103182182 77.40707339350047,101.55229552050696 77.53823028063198,101.4641729656214 77.8095893574864,101.19451505465622 77.97391235400573,100.96010300052694 78.08245598474605,100.69396201174095 78.1231598462764,100.51770736286926 78.0749182326108,100.85082708210757 78.01913886681723,101.05351571782376 77.72968918485276,101.47474769679684 77.8774291266891,101.72501437714891 77.93320849248994,101.75497562938108 78.00104826169263,101.73735136988034 78.3387395573227,101.24915197714108 78.62969678970694,100.90546513084155 78.89804076569999,100.42076651173193 78.90859361868934,100.3608391581729 78.88145771100244,100.29738643137898 78.58597782732977,100.07529998566497 78.56185702049697,100.01537139024367 78.89954831612704,99.78094275607691 79.03522785454697,99.61172906171305 79.0714090647889,99.62230496793018 79.24477736388508,99.85144795511042 79.0533184596643,100.23745863431395 78.87542750929424,100.52828269434758 78.85432180331554,100.6305105528063 78.78648203410557,100.74155044747022 78.72919511789223,100.78208863743748 78.66587799994886,100.94952794294659 78.347784859885,101.42892381326783 78.21964307359303,101.59811906499272 78.0960239385895,101.67919118137797 78.02969171980658,101.7902240924941 77.78245344979223,101.98056450581316 77.51863212508033,102.10393213180396 77.32566567043978,102.13741747280619 77.25481080037571,101.83604698314775 76.96536111841851,101.90125626429472 76.88244584493077,101.68800334418484 75.97188538708724,101.76202532796378 75.51811270859616,101.88363215940444 75.33720665736473,101.9840893077926 75.08695328650356,102.07573389775644 75.27238198900886,102.56919610990008 75.26635178730066,102.60796752216993 75.11559674461023,102.60268051670937 74.53971248153539,102.4987024021193 74.31659501835384,102.54804802885519 74.29398176195537,102.5797701403626 74.26383075341437,102.97981603492917 74.1869456816421,103.14018416177532 73.66834833479516,103.56312567204623 73.2296511605673,103.77635461716454 73.22814361014025,103.80807439262571 73.36080804770609,103.99134302541097 73.36683824940701,104.07064132896994 73.24171156397642,104.32263121361393 72.98844309226115,105.02923988923794 72.95829208372015,105.29883581067043 73.04271490762767,105.86620646049778 73.2356813622755,106.51108259387547 73.20703790416155,106.71898816611792 73.12864528196224,106.96917618370571 73.11658487854584,107.17707604931638 73.16934914349258,107.35326034882746 73.44372332118655,107.85889896054687 73.4603063758841,107.98046136026278 73.44372332118655,108.17073116516804 73.37739110240364,108.31695555992701 73.15578118964913,108.58826008015421 72.59195732999069,109.42857142857065" stroke="red" stroke-dasharray="none" stroke-linecap="round" stroke-linejoin="round" stroke-width="0.5"><title>2025-11-30 42.8km</title><desc>1764458479000</desc></polyline><polyline fill="none" opacity="1" points="113.88902438478544,100.40994600171689 111.02111532865092,99.21739184466423 109.04544464568608,101.45342923240969 110.19260826800019,108.0869650413515 112.86932338727638,109.42857142857974 115.03618800733238,107.04349164006999 113.95275569730438,100.5590151293436 111.21230926574208,99.14285714284051 109.04544464568608,101.52796368970303" stroke="#4dd2ff" stroke-dasharray="none" stroke-linecap="round" stroke-linejoin="round" stroke-width="0.5"><title>2025-11-26 8.7km</title><desc>1764155703000</desc></polyline><polyline fill="none" opacity="1" points="172.70079358566727,105.43226157386198 172.4349365248636,105.2264333839903 172.02925834319467,104.79083645753053 171.46800454817276,103.97466483819699 171.17457712550095,103.6252086658751 169.53807921789848,102.53611058465685 169.0299968350373,102.32067751142313 168.93743919164262,102.34222092397067 168.17728492890456,102.24407852188415 167.35805131933012,102.258440854941 167.102040816324,102.29434664211112 167.2497391834404,102.60792108946953 167.3048799071621,102.65100726764831 167.8779495715571,102.40685102131101 167.88188819467905,102.29434664211112 167.9094585565399,102.26801573786724 168.16940768266068,102.24886596738543 169.1501248402783,102.36376431313329 169.58928131849825,102.56483481776013 170.03434573140112,102.84968121268503 170.44002391306276,103.16564049925728 170.98355390404322,103.46962688405983 171.17654643706192,103.6299957782885 171.42664900537784,103.9100398452938 172.10803080566257,104.92247389900876 172.5018931179584,105.30780757455977 172.99619031990005,105.64048094371901 173.61455415020464,105.90613696961555 174.25654971925542,106.02340741781154 174.53422264941764,106.04016028244041 174.5598236997248,106.07127270783167 174.55588507660286,106.23880031426779 174.5854247500174,106.26751919059461 176.0151449436744,106.3273500495452 176.98010760880425,106.22444086052383 177.04903351345274,106.15025018411143 177.00767797067238,106.00186799965013 177.08448112156475,105.97314873910364 177.38775510203413,105.92528321255122" stroke="red" stroke-dasharray="none" stroke-linecap="round" stroke-linejoin="round" stroke-width="0.5"><title>2025-11-16 42.7km</title><desc>1763252375000</desc></polyline><polyline fill="none" opacity="1" points="111.07943550743221,111.7969764214231 111.00148571131285,112.22573824566462 111.07654847795493,112.5869740511389 111.35947736765957,113.17439550792005 111.30173677791026,113.2993055730094 111.37679954458144,113.53899649083723 111.83872426245944,114.62602284715285 111.82428911502939,114.76105459189603 111.96286653038987,115.14926767583711 112.04659038550744,115.79740421540373 112.12165315217862,115.92905534185957 112.41901718929876,116.14509703942349 112.4478874841734,116.3442591840485 112.37859877647134,116.59405401558797 112.67307578412874,116.7729599233262 112.66441469568235,116.86747584715522 112.52872430979914,116.98224480702811 112.54027242775192,117.20503043360259 112.62688331234676,117.49532452327003 112.64131845977681,117.72823298896219 112.70483310849522,117.85650069375879 112.77700884566002,118.48432991960544 112.91847329051234,118.61596996572734 112.95311764434155,118.98050879928087 113.05127664690372,119.38217176859143 113.12345238406851,119.48680583016358 113.03106744049,119.75007711349281 113.11479129560757,119.92559009642537 113.09169505971659,120.12135343926457 113.21006326866336,120.35086755419434 113.26491682892083,120.85714285714312 113.21006326866336,120.34749235856907 113.1407745609904,120.26648755663155 113.09169505971659,120.08760122440253 113.11479129560757,119.89521291841993 113.03684149945911,119.73657607484893 113.1176783250994,119.48005525590452 112.96466576229432,119.01763752100487 112.91847329051234,118.62947147823252 112.77700884566002,118.48432991960544 112.70483310849522,117.87675344215131 112.54604648672102,117.2522877908832 112.5200632213382,116.99912256044445 112.66730172515963,116.79658893051419 112.37282471750223,116.60080520011434 112.44211342518975,116.35438603955663 112.42479124828242,116.1585995969599 112.17361968291516,115.97969024591839 112.05525147396838,115.82778529278403 111.95420544192893,115.14926767583711 111.81851505606028,114.75092723086163 111.82717614450667,114.62939864773034 111.38257360355055,113.59638700684627 111.3046238074021,113.29592963172581 111.26709242408106,113.32293715194282 111.24110915871279,113.2385385753787 111.20935183434631,113.27567397657367 111.26420539460378,113.20477908226349 111.25554430614284,112.96170967752369 111.0592263010476,112.543085807034 110.98416353437642,112.1413367671721 111.07077441897127,111.84424178694644 110.81671582414128,110.57142857142935" stroke="#ff8100" stroke-dasharray="none" stroke-linecap="round" stroke-linejoin="round" stroke-width="0.5"><title>2025-10-27 22.6km</title><desc>1761522564000</desc></polyline><polyline fill="none" opacity="1" points="185.83381351592834,112.13742766850191 185.74535070281127,113.2026064451129 185.13291584246326,115.77010241876997 185.17374483315507,116.14369362128491 184.9559902161418,116.7080512911416 184.52728581393603,116.73984596382797 183.98970410323818,117.91623943290324 184.26870220628916,118.1785408810465 184.01011859858409,118.67134719620663 182.73761505549191,120.85714285714494 184.25509254267672,118.19443790920195 183.95567994433804,117.90829088992177 184.50006648679846,116.76369195954612 184.5749196364195,116.692153949778 184.83350324409548,116.77164062310476 184.9764047114877,116.6524105817225 185.55481541290646,114.20417873767292 185.76576519815717,112.77335710579064 185.7589603663364,110.57142857142753" stroke="#4dd2ff" stroke-dasharray="none" stroke-linecap="round" stroke-linejoin="round" stroke-width="0.5"><title>2025-10-19 14.0km</title><desc>1760852519000</desc></polyline><polyline fill="none" opacity="1" points="136.63375190633815,129.2306405660529 136.5157589232258,129.3225249799725 136.3535185714718,129.2478689054551 136.2896057056205,129.3110394366995 135.91104488485144,130.13224968053692 136.10769985668594,130.35047130094972 135.00643201445928,132.28571428571377 135.85204839330981,130.85008066843147 136.03887061652495,130.39641258338816 136.30927120280103,130.1724484657243 136.14211447676644,130.34472863793053 135.93071038203198,130.2241325745781 135.90612851057085,130.13224968053692 136.32402032570099,129.2478689054551 136.5206752975064,129.30529666416624 136.63375190633815,129.22489778504678 137.041810972878,127.5135220847842 137.2384659446834,125.97438663051435 137.20405132460291,124.91764159795639 136.69766477216035,122.76962929230285 136.29943845421076,122.0" stroke="#4dd2ff" stroke-dasharray="none" stroke-linecap="round" stroke-linejoin="round" stroke-width="0.5"><title>2025-10-07 14.0km</title><desc>1759810688000</desc></polyline><polyline fill="none" opacity="1" points="117.18367346937885,158.64312885688196 117.04351174432668,158.71875521651236 116.4882556796365,159.38678389440975 115.87370042357361,160.4266249645516 114.61224489795859,161.37191929445908 114.35348479016102,161.75633470296088 113.81440123220091,161.5798820362288 112.83326915671933,162.08403112752785 112.41278398153372,162.22267138049938 112.31035810548929,162.1155403042394 112.06777050442179,162.1974640857443 111.92221794379293,162.26678412067486 111.88987293030368,162.4243293549407 111.01116673083743,162.82134149952617 110.67693492493709,162.80873797998356 109.90604543703375,163.06710959795964 109.5179052753374,163.08601479435674 108.7901424720767,163.3191783904731 108.4882556796365,163.60275450868357 107.85752791684354,163.66577124074684 107.28070850984659,164.1131881238107 106.89795918366872,164.21401400025934" stroke="#4dd2ff" stroke-dasharray="none" stroke-linecap="round" stroke-linejoin="round" stroke-width="0.5"><title>2025-06-22 15.1km</title><desc>1750548259000</desc></polyline><polyline fill="none" opacity="1" points="134.87929624377284,179.14285714286234 134.57634305604734,180.53551341701677 134.8584029204212,181.85485649822658 135.69413585209986,183.55287772221345 135.5374359274865,184.4202026698622 135.7359224986867,184.43241846766614 135.8299424535362,185.0920696304529 137.66855490312446,189.42857142857247 136.2269155959948,186.22812668877305 135.8299424535362,184.82332331531506 135.69413585209986,184.9210493204373 135.58966923569096,184.4446342641968 135.443415972637,184.3957710703762 135.66279586718883,184.4446342641968 136.0388756864122,183.93156969776464 135.37028934108093,184.17588644227362 135.08822947664885,184.0781598064932 135.58966923569096,183.58952538704762" stroke="#4dd2ff" stroke-dasharray="none" stroke-linecap="round" stroke-linejoin="round" stroke-width="0.5"><title>2025-04-13 17.0km</title><desc>1744513358000</desc></polyline><polyline fill="none" opacity="1" points="46.69387755100615,217.55398291959136 46.89404863739037,218.09425441197527 49.03433948426391,217.7430783322925 50.29695710618398,217.36488708647084 50.08908713181154,216.37437823472283 49.673347183153965,216.37437823472283 49.22681168271811,216.68954139335256 48.53391176825971,216.89664797599107 49.91201270924648,216.33835951367655 50.19687156294822,216.6805367479028 50.4201393131807,217.31986420707835 51.551875840174034,216.8516248487722 52.337162409879966,216.8606294761339 52.67591347915004,216.6535228057619 54.37736771351774,216.221298564873 54.57753879993106,216.0592139082437 54.400464377366006,215.55494855661527 54.46975436882349,215.40186741184152 55.96333862884785,215.30281475959055 56.34828302578535,215.4558960826398 56.89490406939876,215.42888175154803 56.97959183671628,215.7080294258194 56.733227422693744,216.76157852280448 56.81791519004037,217.94117783755792 55.57069534398033,218.4184156601841 55.67078088718699,219.06673445030174 55.501405352551956,219.21080462147802 55.07796651593526,219.43591377541452 54.539044360251864,219.41790506502002 53.49199560060515,219.70604397373972 53.1994378589734,219.192795863426 51.57497250396409,219.68803532057063 51.20542588291573,219.5709789818211 50.55102040813654,219.82310012661037 50.566418183996575,219.96716901671607 50.458633752859896,219.85911737200513 50.28155933029484,220.2913231272032 50.019797140412265,220.42638697531947 49.97360381271574,220.3003273904178 49.996700476593105,220.42638697531947 49.66564829519484,220.30933165265742 49.319198337965645,219.96716901671607 48.32604179394548,220.12024194503465 48.12587070753216,220.2823188630282 49.30380056210561,221.19174473053135 50.019797140412265,221.05668209764553 50.39704264936154,221.6059354675017 50.89747036533663,221.8400423832718 51.26701698641409,221.7590054468601" stroke="#4dd2ff" stroke-dasharray="none" stroke-linecap="round" stroke-linejoin="round" stroke-width="0.5"><title>2025-01-25 14.8km</title><desc>1737764447000</desc></polyline><polyline fill="none" opacity="1" points="20.73800330935046,229.32663888156821 20.857142857159488,230.09287840890465 20.182018753373995,230.67336111843179 17.799227799172513,230.51082611449237 16.488692774437368,230.11609774670796 16.031991174910218,229.67492990741448 14.086045228876173,229.72136866911023 13.410921125207096,230.2554137223051 11.78268063988071,230.37151030104724 10.571428571478464,230.37151030104724" stroke="#4dd2ff" stroke-dasharray="none" stroke-linecap="round" stroke-linejoin="round" stroke-width="0.5"><title>2024-10-28 17.0km</title><desc>1730088256000</desc></polyline><polyline fill="none" opacity="1" points="179.14285714285506,239.13003704863877 179.67723548272625,238.91229540473796 179.69433558960736,239.13003704863877 179.77983612398384,239.0904477313561 179.85678660492704,239.1745749920483 179.72853580335504,239.36757227547787 179.8311364446272,239.38736682535455 179.76701104383392,239.66448967739416 179.94228713931807,240.00594244843887 180.2714641966595,240.19893643241085 181.80192376203195,239.24880480709908 181.85322408266074,239.34282907683155 181.49412183825916,239.82779347570613 181.31884574280411,239.95645668813813 181.27609547559405,240.17914221289902 181.1948699679342,240.25337049454902 181.21197007481533,240.7729652938142 181.58817242608347,241.81708662812161 181.43427146419708,242.03481526664473 181.58817242608347,241.84677695439677 181.7463484146865,241.94079620139019 181.9045244033041,241.71811874293053 181.9301745635894,242.15357593137742 182.28927680799097,242.2475945853148 182.8065550409956,242.81170269230643 183.08443177769368,242.91066835227684 183.3751335945999,243.3461148639435 183.53758460990502,243.41044185905412 183.7556109725847,243.62816336510514 184.13181332385284,243.55888844616857 184.24296401854372,243.60837054118383 184.61489134308067,243.94484745240334 184.9996437477821,243.65290438367083 185.34164588528802,243.73702375267385 185.53829711436993,243.51435451759608 186.29070181690622,243.56878486918868 186.44460277877806,243.49950986568 186.91485571784142,243.60342233394113 187.33380833630508,243.4747687690906 187.46633416459372,243.61826695414857 187.54755967225356,243.90031387720956 187.99216245101707,243.4747687690906 188.11613822585787,243.53909559404565 188.30851442822313,243.23230535650873 188.49234057714057,243.1234438393367 188.46241539010953,242.76716807962657 188.96686854293512,242.74242661052267 189.31742073387431,242.8166509800758 189.42857142857974,242.2475945853148" stroke="#4dd2ff" stroke-dasharray="none" stroke-linecap="round" stroke-linejoin="round" stroke-width="0.5"><title>2024-05-25 14.8km</title><desc>1716598951000</desc></polyline><polyline fill="none" opacity="1" points="90.10746577125974,249.08839686511783 83.72771893581375,251.6009029696579 82.88142598839477,255.02703351335367 85.74580211844295,256.62588884914294 92.12554895365611,254.03726414375706 93.0369413588196,250.76340190978954 90.04236631351523,249.08839686511783 83.72771893581375,251.6009029696579 82.88142598839477,255.02703351335367 85.74580211844295,256.62588884914294 92.12554895365611,254.11340029764688 93.10204081633128,250.9918113864842 90.10746577125974,249.08839686511783 83.72771893581375,251.67703938105842 82.81632653065026,254.95089745649602 85.81090157595463,256.62588884914294 92.12554895365611,254.11340029764688 93.10204081633128,250.9918113864842 90.17256522853859,249.08839686511783 83.72771893581375,251.6009029696579 82.81632653065026,254.87476139125647 85.74580211844295,256.62588884914294 92.12554895365611,254.11340029764688" stroke="#4dd2ff" stroke-dasharray="none" stroke-linecap="round" stroke-linejoin="round" stroke-width="0.5"><title>2024-05-07 10.0km</title><desc>1715083186000</desc></polyline><polyline fill="none" opacity="1" points="133.6613294130657,249.65635556011694 134.09202533750795,256.34566483524395 136.49161691451445,258.0 138.58356854622252,256.12988169147866 138.091344632674,249.22478496207623 135.69175305520184,247.71428571426077 133.6613294130657,249.65635556011694 134.15355332638137,256.48952022677986 136.79925686027855,257.9280724677956 138.58356854622252,256.0579539615428 138.091344632674,249.15285650250735 135.81480903388,247.71428571426077 133.6613294130657,249.58442714618286 134.15355332638137,256.4175925348536 136.43008892517537,258.0 138.58356854622252,256.12988169147866 138.091344632674,249.22478496207623 135.81480903388,247.71428571426077 133.6613294130657,249.65635556011694 134.15355332638137,256.48952022677986 136.43008892517537,258.0 138.58356854622252,256.2018094137311 138.091344632674,249.22478496207623 135.75328104454093,247.71428571426077 133.6613294130657,249.65635556011694 134.15355332638137,256.4175925348536 136.55314490338787,258.0 138.58356854622252,256.12988169147866 138.091344632674,249.15285650250735" stroke="#4dd2ff" stroke-dasharray="none" stroke-linecap="round" stroke-linejoin="round" stroke-width="0.5"><title>2024-04-18 10.1km</title><desc>1713436846000</desc></polyline><polyline fill="none" opacity="1" points="29.040816326159984,260.6451980317361 22.612244897987694,264.04829887417145 22.882921589771286,267.1348188010161 25.792696025921032,268.0053733998793 32.08592910855077,265.1562818523962 32.89795918390155,263.17773966799723 32.22126745432615,261.3574762339704 29.379162191180512,260.5660559675307 23.018259935779497,263.49430676933844 22.747583243763074,266.89739464374725 26.063372717471793,267.92623211460887 32.08592910855077,265.1562818523962 32.42427497310564,261.59490215062397 29.71750805573538,260.4869138947688 22.882921589771286,263.7317320074071 22.612244897987694,266.81825324124657 25.725026852916926,268.08451467665145 32.22126745432615,264.9979986703256 32.22126745432615,261.43661821464775 29.446831364184618,260.5660559675307 22.81525241700001,263.7317320074071 22.67991407075897,266.81825324124657 25.725026852916926,268.08451467665145 32.018259935313836,265.23542343091685 32.42427497310564,261.6740441060392 29.71750805573538,260.4869138947688 23.085929108550772,263.49430676933844 22.612244897987694,266.81825324124657 25.725026852916926,268.08451467665145 32.08592910855077,265.1562818523962 32.491944145876914,261.7531860532472 29.649838882731274,260.4869138947688 23.085929108550772,263.49430676933844 22.612244897987694,266.65997041075025 25.38668098812923,268.08451467665145 32.08592910855077,265.1562818523962 32.28893662733026,261.5157601869432 29.446831364184618,260.5660559675307 23.018259935779497,263.57344852376264 22.67991407075897,266.89739464374725 25.792696025921032,268.0053733998793 31.95059076254256,265.23542343091685 32.491944145876914,261.83232799184043 29.85284640174359,260.4869138947688 23.085929108550772,263.49430676933844 22.67991407075897,266.81825324124657 25.454350161133334,268.08451467665145 32.08592910855077,265.1562818523962 32.491944145876914,261.7531860532472 29.58216970996,260.4869138947688" stroke="#4dd2ff" stroke-dasharray="none" stroke-linecap="round" stroke-linejoin="round" stroke-width="0.5"><title>2024-03-26 10.6km</title><desc>1711453549000</desc></polyline><polyline fill="none" opacity="1" points="106.89795918390155,269.2113400436356 114.26803792454302,265.4224099884741 117.1836734698154,262.4859781602281 116.37377470731735,259.3600885277847" stroke="#4dd2ff" stroke-dasharray="none" stroke-linecap="round" stroke-linejoin="round" stroke-width="0.5"><title>2024-01-30 11.7km</title><desc>1706613736000</desc></polyline><polyline fill="none" opacity="1" points="124.49983207025798,259.7093413684561 124.7032804354094,259.7146355831428 124.89768665094743,259.57169158873876 125.02879781962838,259.60345695630167 125.07400856743334,259.3334506859719 125.08757179178065,259.58228004684497 125.45377884901245,259.3705104568435 126.00082889746409,259.2381540056267 126.03247642092174,259.1587399659802 126.15002436522627,259.14285714285506 126.2540090851835,259.3599219536918 126.04603964526905,260.07993503750185 125.88328095315956,260.2334658922082 125.65270613934263,260.26523083752545 125.46734207335976,260.4928790191261 125.36787842816557,260.5034672813272 125.38596272730501,260.720526159821 125.32266768036061,260.8158200026701 125.1327825395565,261.03817159333266 124.96098169792094,261.1069945034833 125.04236104394658,261.2711102898902 124.30542585469084,261.60463425353373 124.12910393823404,261.86404023616706 123.69055968453176,261.95403791436183 123.68603860973963,262.20285417805644 123.45094272115966,262.46225704396784 123.02144061695435,262.36696635231783 122.30711080163019,262.4251995744344 122.04036738953437,262.55225364087164 122.17147855818621,262.76400969779934 122.06749383822898,263.1769314185767 121.76006075314945,263.38868481888494 121.76006075314945,263.8121889180293 122.12626781038125,263.6322001160079 122.34327939987998,263.7327821737963 122.6235860362649,264.0980521487545 122.84511870052665,264.1351083733207 123.04856706564897,264.0609958966015 123.15255178560619,264.41038232110077 123.56396959067206,264.6485989323046 123.55492744111689,264.8444650700294 123.69960183408693,264.8762270738298 123.67247538542142,265.1144414565606 123.89400804968318,265.37912276757925 123.97990847050096,265.36324192857865 124.03868244262412,265.4479396779934 124.04320351741626,265.81319707223884 123.81714977839147,266.3319638393077 123.77646010537865,266.71309516346446 123.934697722696,266.71838863353696 124.27829940602533,267.0254089352966 124.4139316494402,267.4806424507333 124.39584735030076,267.8988184086229 124.67163291192264,268.51284256633517 124.60381679024431,268.87807748349223 124.90672880053171,269.42857142857247 125.26389370820834,269.12156594035696 125.39048380206805,267.5282829269563 125.81094375668908,267.2477327999077 126.22688263648888,266.8083775387604 126.15906651481055,266.6495734786513 126.03699749571388,266.67074738259544 126.15002436522627,266.6442800012701 126.11385576697649,266.2949092494455 126.40320455297478,266.11492942077166 126.09577146786614,265.8343713317736 125.81998590624426,265.3685355421294 126.09577146786614,264.6009557012294 126.07316609393456,264.35744514162434 126.2404458608653,264.25686434559975" stroke="#4dd2ff" stroke-dasharray="none" stroke-linecap="round" stroke-linejoin="round" stroke-width="0.5"><title>2024-01-27 16.6km</title><desc>1706316843000</desc></polyline><polyline fill="none" opacity="1" points="136.06218522926793,259.1428571428987 133.5311077106744,261.3268234473071 134.01321771438234,267.5968804989243 136.7250864841044,269.35812187060947 138.71379024838097,267.24463166616624 138.1714164945297,260.4814179847599 135.76086647692136,259.1428571428987 133.5311077106744,261.18592261109734 134.07348146452568,268.09002855198923 136.48403148213401,269.35812187060947 138.71379024838097,267.38553122163285 138.29194399528205,260.76321992464364 135.70060272631235,259.1428571428987 133.59137146105058,261.0450217454927 134.01321771438234,267.87867943116 136.66482273349538,269.35812187060947 138.71379024838097,267.24463166616624 138.1714164945297,260.692769450834 136.00192147865891,259.1428571428987 133.59137146105058,260.9745713014854 133.95295396377333,267.5968804989243 136.30324023077264,269.2876723049558 138.71379024838097,267.1741818774026 138.1714164945297,260.6223189695156 135.88139397790655,259.2133077806211 133.5311077106744,261.25637303304393 133.89269021316431,267.6673302431591 136.30324023077264,269.42857142857974 138.6535264980048,267.4559809882194 138.0508889935445,260.6223189695156 135.70060272631235,259.2837584107183" stroke="#4dd2ff" stroke-dasharray="none" stroke-linecap="round" stroke-linejoin="round" stroke-width="0.5"><title>2024-01-25 10.3km</title><desc>1706155972000</desc></polyline></svg>