<?xml version="1.0" encoding="utf-8" ?>
<svg baseProfile="full" height="300mm" version="1.1" viewBox="0,0,200,300" width="200mm" xmlns="http://www.w3.org/2000/svg" xmlns:ev="http://www.w3.org/2001/xml-events" xmlns:xlink="http://www.w3.org/1999/xlink"><defs /><rect fill="#222222" height="300" width="200" x="0" y="0" /><text fill="#FFFFFF" style="font-size:12px; font-family:-apple-system, BlinkMacSystemFont, 'Segoe UI', Roboto, 'Helvetica Neue', Arial, sans-serif; font-weight:bold;" x="10" y="20">Over 3km Runs</text><text fill="#FFFFFF" style="font-size:4px; font-family:-apple-system, BlinkMacSystemFont, 'Segoe UI', Roboto, 'Helvetica Neue', Arial, sans-serif;" x="10" y="280">Runner</text><text fill="#FFFFFF" style="font-size:9px; font-family:-apple-system, BlinkMacSystemFont, 'Segoe UI', Roboto, 'Helvetica Neue', Arial, sans-serif;" x="10" y="290">Hannah YAN</text><text fill="#FFFFFF" style="font-size:4px; font-family:-apple-system, BlinkMacSystemFont, 'Segoe UI', Roboto, 'Helvetica Neue', Arial, sans-serif;" x="65" y="280">SPECIAL TRACKS</text><rect fill="yellow" height="2.6" width="2.6" x="65" y="283" /><text fill="#FFFFFF" style="font-size:3px; font-family:-apple-system, BlinkMacSystemFont, 'Segoe UI', Roboto, 'Helvetica Neue', Arial, sans-serif;" x="70" y="285.5">Over 20.0 km</text><rect fill="red" height="2.6" width="2.6" x="65" y="287" /><text fill="#FFFFFF" style="font-size:3px; font-family:-apple-system, BlinkMacSystemFont, 'Segoe UI', Roboto, 'Helvetica Neue', Arial, sans-serif;" x="70" y="289.5">Over 40.0 km</text><text fill="#FFFFFF" style="font-size:4px; font-family:-apple-system, BlinkMacSystemFont, 'Segoe UI', Roboto, 'Helvetica Neue', Arial, sans-serif;" x="120" y="280">STATISTICS</text><text fill="#FFFFFF" style="font-size:3px; font-family:-apple-system, BlinkMacSystemFont, 'Segoe UI', Roboto, 'Helvetica Neue', Arial, sans-serif;" x="120" y="285">Number: 308</text><text fill="#FFFFFF" style="font-size:3px; font-family:-apple-system, BlinkMacSystemFont, 'Segoe UI', Roboto, 'Helvetica Neue', Arial, sans-serif;" x="120" y="290">Weekly: 2.8</text><text fill="#FFFFFF" style="font-size:3px; font-family:-apple-system, BlinkMacSystemFont, 'Segoe UI', Roboto, 'Helvetica Neue', Arial, sans-serif;" x="141" y="285">Total: 2688.6 km</text><text fill="#FFFFFF" style="font-size:3px; font-family:-apple-system, BlinkMacSystemFont, 'Segoe UI', Roboto, 'Helvetica Neue', Arial, sans-serif;" x="141" y="290">Avg: 8.7 km</text><text fill="#FFFFFF" style="font-size:3px; font-family:-apple-system, BlinkMacSystemFont, 'Segoe UI', Roboto, 'Helvetica Neue', Arial, sans-serif;" x="167" y="285">Min: 3.0 km</text><text fill="#FFFFFF" style="font-size:3px; font-family:-apple-system, BlinkMacSystemFont, 'Segoe UI', Roboto, 'Helvetica Neue', Arial, sans-serif;" x="167" y="290">Max: 42.8 km</text><polyline fill="none" opacity="1" points="28.329891956876963,31.67280027270317 24.215606242592912,31.86736240144819 23.913085234118626,33.72453496363596 22.79375750309555,36.200732960074674 22.6273709484376,37.651060472635436 26.666026410646737,38.60614733102557 28.37527010811027,34.36127509364451 28.37527010811027,31.70817522201105 24.351740696351044,31.778925098260515 24.10972388961818,32.04423686755763 23.988715486309957,33.583036827723845 22.92989195685368,35.79393152080593 22.612244897987694,37.66874731586722 32.21728691481985,39.96802100914647 32.897959183726925,36.200732960074674 32.8072028812021,31.761237632046686 32.48955582239432,31.460550419433275 24.185354141751304,31.920424760959577 24.064345738384873,33.19391633645864 23.03577430988662,35.440190334338695" stroke="#4dd2ff" stroke-dasharray="none" stroke-linecap="round" stroke-linejoin="round" stroke-width="0.5"><title>2026-07-14 4.4km</title><desc>1784026688000</desc></polyline><polyline fill="none" opacity="1" points="37.25075322604971,36.99856300501415 38.37769313855097,33.96106436425907 38.368142800289206,32.676801520945446 38.177136035461444,32.576293334932416 35.6367460633046,32.75497448837996 35.493490989669226,33.815887608681805 34.824967312801164,35.22297698442708 34.69126257742755,36.39553713906935 40.937183787173126,37.88076130760601 41.32874765509041,38.1264354721352 42.02592234668555,38.182270429802884 44.23205048032105,39.00862435105955 44.93877551017795,38.96395673687948 44.55676198058063,36.39553713906935 44.327553862764034,35.92651463990478 41.214143596123904,37.132568285262096 40.95628446363844,37.065565666387556 41.175942243193276,35.35698451833741 41.109089875477366,32.598628495623416 40.984935478365514,32.419947077512916 35.64629640156636,32.743806925158424 35.608095048577525,33.469696078114794 34.93957137170946,34.966128735664824 34.65306122449692,36.35086841938755 37.164800181868486,37.0208972301989 37.346256608492695,36.88689180822985 38.25353874138091,34.44126297982439 38.38724347675452,32.66563394945115 37.73782047635177,32.576293334932416 35.65584673982812,32.72147179514286 35.58899437211221,33.61487330978707 34.90137001872063,35.1224712223775 34.66261156270048,36.35086841938755 37.2985049172421,36.9762287751073 38.358592462027445,34.10624092024227 38.38724347675452,32.72147179514286 38.25353874138091,32.56512575276429 35.65584673982812,32.73263936075091 35.5698936956469,33.67071065342316 34.9777727246983,34.82095336211205 34.67216190096224,36.261530923322425 34.99687340116361,36.47370735301956 40.6697743164259,37.858427264363854" stroke="#4dd2ff" stroke-dasharray="none" stroke-linecap="round" stroke-linejoin="round" stroke-width="0.5"><title>2026-07-09 10.0km</title><desc>1783598044000</desc></polyline><polyline fill="none" opacity="1" points="48.91437043133192,32.980123922694474 49.91632389253937,39.034370587032754 51.75323857204057,40.72694501694059 54.759098956594244,39.1645687854616 53.86847365740687,32.65462510212092 51.530582247301936,30.571428571478464 49.74933164892718,31.157328308850992 48.97003451222554,32.65462510212092 49.860659811412916,39.034370587032754 51.92023081588559,40.79204394062981 54.759098956594244,38.96927147731185 53.86847365740687,32.78482465108391 51.69757449091412,30.571428571478464 48.858706349972636,32.32912610931089 49.74933164892718,39.099469689594116 52.19855122175068,40.85714285715949 53.64581733266823,40.4014502959908 54.814763037953526,38.578676675329916 53.9798018198926,32.65462510212092 53.03351243957877,31.22242824517889 51.25226184120402,30.63652856979752 48.80304226861335,32.78482465108391 50.138980217510834,39.22966787428595 52.2542153026443,40.6618460866157 54.759098956594244,38.578676675329916 53.812809576513246,32.2640262900386 51.196597760077566,30.76672854583012 49.02569859358482,32.39422592159826 49.97198797389865,39.22966787428595 52.08722305926494,40.79204394062981 53.70148141379468,40.4014502959908 54.814763037953526,38.64377582632005 53.70148141379468,32.65462510212092 52.86652019596659,31.22242824517889 51.140933678951114,30.70162856130628 48.858706349972636,32.78482465108391 49.91632389253937,39.1645687854616 52.75519203348085,40.72694501694059 54.480778550729156,39.620262262935285 54.87042711907998,38.05788322020089 53.42316100792959,31.87342722999165 50.58429286698811,30.831828523485456 48.858706349972636,32.84992441511713 49.91632389253937,38.96927147731185 51.140933678951114,40.59674714936409 52.476871627615765,40.6618460866157 54.20245814463124,39.94575739733409 54.814763037953526,38.31828000303358 53.812809576513246,32.2640262900386 50.97394143533893,30.70162856130628 48.858706349972636,32.52442552574212 49.97198797389865,39.42496509948978 52.2542153026443,40.72694501694059 54.814763037953526,38.8390732377884 53.757145495153964,32.39422592159826 50.97394143533893,30.76672854583012 49.02569859358482,32.84992441511713 49.80499573005363,39.1645687854616 52.08722305926494,40.6618460866157 53.9798018198926,39.880658384179696 54.87042711907998,38.38337918149773 53.478825089288875,31.808327362465207 51.02960551646538,30.63652856979752" stroke="#4dd2ff" stroke-dasharray="none" stroke-linecap="round" stroke-linejoin="round" stroke-width="0.5"><title>2026-07-08 4.7km</title><desc>1783508969000</desc></polyline><polyline fill="none" opacity="1" points="65.47687624045648,30.571428571420256 65.22435120563023,34.36092871162691 62.278225800720975,40.857142857130384" stroke="#4dd2ff" stroke-dasharray="none" stroke-linecap="round" stroke-linejoin="round" stroke-width="0.5"><title>2026-07-03 5.0km</title><desc>1783051432000</desc></polyline><polyline fill="none" opacity="1" points="84.48069667622622,40.2092398494824 84.0984838912409,39.49161311517673 84.09497735195328,39.40959778504839 84.17212121680495,39.34808617353701 84.2913435533992,39.368590054888045 84.59290593420155,39.59413203372969 85.54668462701375,40.61520565947649 85.74305082845967,40.70952033988942 85.92188433335104,40.697218438072014 86.0586393665144,40.8571428571413 86.34617559006438,40.57009855726574 86.5250090949703,40.27485077354868 86.53552871290594,40.11902464748346 86.83358455440612,39.69665068106042 87.24384965386707,39.22916344773694 87.49632048430794,39.097937947441096 87.440215855313,39.02002259635992 87.70320630370406,38.47050988202318 88.04334061694681,37.3632590991765 88.02931445969443,36.42002051014788 87.97320983071404,36.260077776601975 88.03983407761552,36.06732539982477 88.59036074955657,35.84586403833964 89.2881620725966,35.312711123664485 89.47400865610689,35.300407508239005 89.51608712787856,35.15276381843796 89.70193371138885,34.92309473800924 89.6282963858248,34.37352391092281 89.2881620725966,33.51224051210738 89.09880894975504,32.83550440617546 89.37582555539848,32.70835872745738 90.03505494601268,32.57711113743062 90.42077427028562,32.568908148292394 90.6802581793454,32.47047214306076 90.82402629114222,32.12594415458807 90.77493474076618,31.777311522699165 90.80649359457311,31.387659573185374 90.71883011177124,30.977495390987315 90.78545435870183,30.79292009173878 90.90467669529608,30.784716724687314 91.12558867194457,30.87905534086167 91.74975266942056,31.354846598449512 91.95663848881668,31.43277736800883 92.11443275783677,31.34254172576766 92.2722270268714,31.043121952054207 92.38794282414892,31.0595285749514 92.49313900350535,30.998003703265567 92.0618346681731,30.92007205882328 91.9987169605447,31.149764876616246 91.87598808464827,31.194882948602753 91.2202652333508,30.702682958602963 90.89766361666261,30.571428571427532 90.7538955048949,30.583733689109067 90.5785685393057,30.6903778786982 90.52947698894423,30.842140257551364 90.62415355036501,31.96598368958439 90.62415355036501,32.14645185873451 90.55051622481551,32.26129480126838 89.11634164630959,32.57300964307433 88.90244274830911,32.757576459047414 88.89192313037347,33.032374311045714 89.45998249886907,34.56628471565273 89.47400865610689,34.89438600721769 88.56581497436855,35.616199067004345 87.81892210099613,35.964797149121296 87.85749403342197,37.12950211090356 87.57346434917417,38.281869392227236 87.24384965386707,38.995417716101656 86.69682952124276,39.55722525429519 86.39877367974259,40.0206078239753 86.22695325347013,40.135427427099785 85.97798896233144,40.4470789207553 85.73253121050948,40.50448813305775 85.27317456068704,40.06571556576819 84.56134708039463,39.2414658156049 84.27030431752792,39.14304676329266 83.87055883598805,39.126643563602556 83.49886566895293,38.872393080477195 83.42522834341798,38.98311527012993 83.43574796135363,39.040526651315304 83.80042804976983,39.27017132544279 84.00030079051794,39.70895290050976 84.00380732983467,39.856579229333875 84.20718660991406,40.20513916303025 84.31939586790395,40.750526651088876" stroke="#4dd2ff" stroke-dasharray="none" stroke-linecap="round" stroke-linejoin="round" stroke-width="0.5"><title>2026-06-28 15.3km</title><desc>1782609425000</desc></polyline><polyline fill="none" opacity="1" points="110.04253299759876,30.571428571427532 109.88868441233353,30.632709776211414 110.08798826142447,30.653136822922534 110.18938846532546,30.886004394113115 110.30127834551968,30.94319972376252 110.1788987890759,31.118870565387624 109.93763623491395,31.286369928242493 110.37120952064288,31.82971653457571 110.32575425681716,31.984957022326853 110.95163827409851,32.67536112970993 111.35374253102054,32.769320500825415 111.42017714738904,32.94906822798657 111.31178382594953,33.014430831113714 111.31178382594953,33.079793323944614 111.57752229139442,33.37800829819753 111.81528828678711,33.25545447701734 111.846757315594,33.32081656323135 111.7383639941545,33.41068925169748 111.7383639941545,33.50873194681117 111.89221257941972,33.65988061567987 112.07053707596788,33.67213588732193 112.16494416237401,33.74158235334471 112.1509579273552,34.02753707838201 112.38872392273333,34.32574475781803 112.52508971421048,34.38702002412174 112.83278688472637,34.33799981882839 112.82929032597167,34.51365526740847 112.9167042948684,34.615780162137526 112.97264923497278,34.85679384645846 113.46566401953169,35.4572790477614 113.75587839627406,35.310222307878576 113.90623042277002,35.41643000934346 113.96567192161456,35.624759655103844 113.7523818375048,35.735051367060805 113.52160895960697,36.000567163846426 113.86427171769901,36.62554331976207 114.17546544696961,38.079697195884364 114.18595512323373,38.974219805993926 114.06707212554466,39.79928628471316 114.16147921193624,39.938157133496134 114.10553427184641,40.13420924945967 113.97266503912397,40.29758525527723 113.87126483519387,40.67334745541302 113.89224418773665,40.83672118886534 113.97616159787867,40.8571428571413 114.0286099792138,40.79996215887877 113.96567192161456,40.29758525527723 114.098541154337,40.14237806610254 114.15098953565757,39.938157133496134 114.0635755667754,39.7666107185687 114.19294824074314,38.74956995035973 114.15798265319609,38.05110480847725 113.84329236515623,36.5969498594568 113.50412616584799,35.99239747413594 113.7523818375048,35.714626999633765 113.95518224535044,35.60842011552813 113.89224418773665,35.40417528941907 113.74538871999539,35.310222307878576 113.4446846669889,35.4572790477614 112.97264923497278,34.86496377558797 112.89922150109487,34.60352518897707 112.81880064970755,34.52182526889737 112.81880064970755,34.33799981882839 112.52858627297974,34.391105038434034 112.38872392273333,34.33799981882839 112.14746136858594,34.02345202573633 112.18242695616209,33.819198844532366 112.13697169230727,33.7089016789505 111.90619881443854,33.66805079720507 111.72787431789038,33.504646839475754 111.73486743541434,33.40251901590818 111.86424010936753,33.32081656323135 111.8432607568393,33.25136934296461 111.62647411397484,33.37800829819753 111.56003949760634,33.36166781109205 111.29779759093071,33.034856621965446 111.41318402986508,32.9368127276357 111.33625973724702,32.76523531552084 110.96562450913189,32.69170190627847 110.3222576980479,31.976786485847697 110.3537267268548,31.817460680103977 109.94113279368321,31.290455269510858 110.30127834551968,30.951370478247554 110.19288502409472,30.877833625843778 110.09498137891933,30.661307638598373" stroke="#4dd2ff" stroke-dasharray="none" stroke-linecap="round" stroke-linejoin="round" stroke-width="0.5"><title>2026-06-21 12.1km</title><desc>1782018676000</desc></polyline><polyline fill="none" opacity="1" points="126.61853533008252,35.85824583940121 126.00007148220902,36.707808873805334 125.66982379643014,36.9044004234529 124.98531041140086,36.735893416531326 124.46892312093405,36.869294832293235 123.92251331356238,36.728872281972144 123.74838271562476,36.8201469734704 123.5922656278126,37.086949198230286 123.38210800959496,37.136096859503596 123.02183780694031,36.93248488300014 122.15118481719401,36.946527108346345 121.38861288825865,37.52927683971211 120.80017155726091,37.4450241828672 120.49394188501174,37.29056070090883 119.02283855748829,37.33268714071892 118.93877551020705,37.030780397915805 119.9175095607643,37.136096859503596 120.4218878444517,37.01673819041025 121.03434718895005,37.24141315399902 121.3946173916047,37.11503358054324 121.42463990848046,37.20630774105666 121.80892812466482,36.78504133773822 122.1391758104146,36.658660895402136 123.04585582047002,36.68674545893737 123.43614854000043,36.9044004234529 123.93452232034178,36.490153264661785 124.45090961077949,36.58844943458098 125.03935094177723,36.47611094278545 125.66381929308409,36.63759746495634 126.2042245970224,36.0337762831914 126.50444976589642,35.345694286894286 127.09289109689416,34.91739474856877 127.23699917798513,34.510156558702874 127.47717931307852,34.27845095612429 127.88548554276349,34.31355791759415 129.22448979594628,33.89929458886763" stroke="#4dd2ff" stroke-dasharray="none" stroke-linecap="round" stroke-linejoin="round" stroke-width="0.5"><title>2026-06-18 10.3km</title><desc>1781755773000</desc></polyline><polyline fill="none" opacity="1" points="141.26530612248462,36.72808890246961 139.99812769144773,37.15818255287013 133.62179367168574,34.71584978721512 130.97959183674539,34.27038887569506" stroke="#4dd2ff" stroke-dasharray="none" stroke-linecap="round" stroke-linejoin="round" stroke-width="0.5"><title>2026-06-15 11.4km</title><desc>1781479179000</desc></polyline><polyline fill="none" opacity="1" points="160.33895903936354,31.784414526904584 159.6438216357492,32.18469707832264 158.86568275117315,32.03913994845789 157.98379201529315,32.25747557402792 157.50653349939967,31.990620864169614 156.76989535533357,32.08765901226434 156.4378894311958,31.796544321696274 156.5520164676127,31.408390252086974 157.5169086845708,31.238572433743684 158.26392201380804,30.69272774401179 158.990184972703,30.75337728219165 159.42594274808653,30.571428571427532 160.66058977833018,30.862546370168275 161.44910384801915,30.668467919742397 161.66698273574002,31.080884234521363 160.35970940964762,33.688776608978515 159.80982459778897,36.017635052630794 161.41797829268035,36.74539362408541 163.97027383412933,37.37611398631998 163.6797686505597,39.765542379529506 161.56323088443605,39.2803832790305 161.18972421984654,39.80192922937567 161.44910384801915,40.23857052784297 161.2104745900724,40.46901943235571 160.93034459161572,40.43263279398525 160.84734311059583,40.11728144495282 160.20408163266256,40.177926002434106 159.052436083497,39.886831834184704 158.6270534932264,40.857142857144936" stroke="#4dd2ff" stroke-dasharray="none" stroke-linecap="round" stroke-linejoin="round" stroke-width="0.5"><title>2026-06-11 10.1km</title><desc>1781164397000</desc></polyline><polyline fill="none" opacity="1" points="12.83082706767891,45.19094324762045 12.909774436091539,44.676547106919315 13.075187969923718,44.44792455539209 13.274436090228846,44.39076872091391 14.537593984961859,44.32481958340941 14.812030075190705,44.487493933196674 15.033834586472949,45.1162023235338 15.45488721804577,45.26128752392833 16.03383458647295,45.16456411329273 16.447368421053397,44.94913388933128 16.90977443610609,45.21732236518801 17.101503759404295,45.20852932786511 17.447368421038846,45.08103007743193 17.755639097755193,44.73370254819747 17.924812030076282,44.821633842791925 17.939849624061026,45.05904740849655 18.172932330839103,45.256891010154504 18.650375939847436,44.628184749020875 18.943609022564488,44.553442812437424 19.973684210533975,44.698529978257284 20.38721804509987,45.26568403725105 20.345864661649102,45.375596718895395 20.394736842106795,45.608610642266285 20.597744360900833,46.065841712446854 20.80075187969487,46.153770187494956 20.857142857144936,46.47031115686332 20.390977443617885,46.69892257934043 20.026315789480577,46.97589242520917 18.428571428579744,48.962987021022855 18.21052631578641,49.160812034078845 17.684210526320385,48.25520537283228 17.571428571434808,48.193658572799905 17.398496240595705,48.21124338212758 17.195488721801667,48.11013062694474 17.16541353384673,48.03099873386964 17.853383458656026,47.64852579282888 17.890977443603333,47.25725672732369 17.96240601503814,47.13416007959677 18.263157894762116,47.35397526611632 18.45864661653468,47.389145588040265 19.000000000014552,46.909947391279275 19.127819548884872,46.58461702533896 19.16917293233564,46.28126614579014 19.766917293236475,45.80205517070863 19.860902255633846,45.57783529333756 19.857142857130384,45.07223701125258 19.79323308271705,44.96672007194138 19.642857142869616,44.90516840024793 19.46616541352705,44.93154769927423 19.08270676691609,45.336028186990006 18.943609022564488,45.331631681125145 18.770676691725384,45.12059885219787 18.812030075176153,45.353614205832855 18.992481203007628,45.5514564046789 19.50751879697782,45.48111261968734 19.109022556382115,45.78886579965547 18.804511278198333,45.85041616207309 18.804511278198333,45.95593085692235 18.515037593984744,46.5010858446949 18.372180451115128,46.52306775062607 18.176691729328013,46.413158104700415 17.939849624061026,46.37359056099376 17.24436090225936,46.58901339861404 16.650375939861988,46.54504964491571 16.368421052626218,46.993477749918384 15.57894736842718,47.44190101510685 15.511278195481282,47.679299607996654 15.236842105266987,47.9035081447073 15.142857142855064,48.16728134488585 14.684210526320385,48.857479962316575 14.466165413541603,49.05530547764647 14.112781954900129,49.21796130694929 13.939849624075578,49.21356521182679 13.759398496258655,49.04651325251689 13.548872180457693,49.01134433340121 13.439849624061026,49.01134433340121 13.229323308274616,49.160812034078845 13.011278195495834,49.21796130694929 12.736842105266987,49.08607825094441 12.469924812030513,48.7563687796719 12.462406015052693,48.54095717881137 12.199248120305128,48.40027961221858 12.067669172931346,47.88592320515818 11.804511278198333,47.63533700793414 11.812030075190705,48.08375334600714 11.725563909800258,48.58052265860897 11.458646616549231,48.712407319162594 11.41729323308391,48.633276573065814 11.315789473694167,48.7563687796719 11.251879699266283,48.74318034639873 11.045112781968783,48.89264901164279 11.02631578949513,48.831103155775054 10.853383458656026,48.92342190539421 10.78195488723577,48.86187609510671 10.71052631578641,48.94100640589022 10.796992481205962,49.07728603232317 11.1203007518925,49.14762372917903 11.25563909774064,49.380616499583994 10.981203007526346,49.96089470230072 10.571428571434808,49.92133053677753" stroke="#ff8800" stroke-dasharray="none" stroke-linecap="round" stroke-linejoin="round" stroke-width="0.5"><title>2026-06-06 21.6km</title><desc>1780740439000</desc></polyline><polyline fill="none" opacity="1" points="73.70155739292386,52.285714285713766 74.17156955806422,51.60006147337481 74.68519109929912,51.05606621920742 75.02437513598124,50.880399904574006 74.94684735615738,50.76139981560482 75.31994979653973,49.97372589130828 75.78996196162188,48.44934560026741 75.71243418182712,47.39528775009239 75.76573453046149,47.162938873356325 75.68820675063762,46.89658648139448 75.74635258549824,46.692570987026556 76.58946719093365,46.34120914641608 77.51010957625112,45.649812984323944 77.7814568055619,45.6101424418448 77.8056842367514,45.3947875554295 78.08187695234665,45.071753601292585 78.05280403493089,44.58436534950306 77.33082658541389,42.651770571890665 77.24845331936376,42.19269821287526 77.43258179639815,42.09068159837989 78.04311306244927,42.0 78.04795854870463,42.19269821287526 77.61671027346165,42.317384922120254 77.60701930098003,42.47607667738703 77.93651236518053,42.651770571890665 78.13517730098101,42.651770571890665" stroke="#4dd2ff" stroke-dasharray="none" stroke-linecap="round" stroke-linejoin="round" stroke-width="0.5"><title>2026-05-23 13.0km</title><desc>1779516917000</desc></polyline><polyline fill="none" opacity="1" points="93.10204081609845,49.88138487038668 88.41973804449663,48.89372174773598 85.34937557112426,47.6366942912573 82.81632653065026,44.40432941529434" stroke="#4dd2ff" stroke-dasharray="none" stroke-linecap="round" stroke-linejoin="round" stroke-width="0.5"><title>2026-05-17 11.1km</title><desc>1779003218000</desc></polyline><polyline fill="none" opacity="1" points="140.84968744206708,52.28571428571013 138.07561936229467,48.356896199911716 136.67914971662685,46.96634172066115 131.26311203697696,43.015350596411736 131.73489232268184,42.419384541513864 133.82959679118358,42.0 136.75463456241414,45.421270309074316 141.00065713352524,48.46725726922159 141.00065713352524,48.86455663495872 139.20789204793982,49.901945853678626 136.67914971662685,46.96634172066115 132.31989987695124,43.898260138361366 131.28198324842378,43.03742338049051 131.28198324842378,42.70633137325058 133.84846800251398,42.04414578093565 136.88673304230906,45.59785047855985 140.69871775060892,48.092029395193094 141.03839955641888,48.88662879978074 139.585316276527,49.85780173679814 139.07579356792849,49.7695134748501 136.66027850518003,47.01048644987168 131.26311203697696,43.015350596411736 131.489566574106,42.55182158987736 133.92395284830127,42.08829155261628 136.830119408085,45.53163293245598 136.15075579669792,46.48074908243143 132.5840968369739,44.11898693948751 131.2064984027529,43.015350596411736 131.28198324842378,42.66218573253718" stroke="#4dd2ff" stroke-dasharray="none" stroke-linecap="round" stroke-linejoin="round" stroke-width="0.5"><title>2026-05-10 15.1km</title><desc>1778395698000</desc></polyline><polyline fill="none" opacity="1" points="18.369394627865404,63.71428571426077 14.723573432769626,60.285727697599214 13.059176800306886,53.428571428521536" stroke="#4dd2ff" stroke-dasharray="none" stroke-linecap="round" stroke-linejoin="round" stroke-width="0.5"><title>2026-05-02 12.6km</title><desc>1777678663000</desc></polyline><polyline fill="none" opacity="1" points="22.612244897987694,59.399165136681404 25.669144149753265,58.197850321623264 25.907181386603042,57.9048451272829 30.129210271232296,57.74369200617366 30.091625444358215,58.183200076644425 31.707772999594454,58.32970245684555 32.897959183726925,59.09151233526063" stroke="#4dd2ff" stroke-dasharray="none" stroke-linecap="round" stroke-linejoin="round" stroke-width="0.5"><title>2026-04-26 11.2km</title><desc>1777162036000</desc></polyline><polyline fill="none" opacity="1" points="119.581963511082,59.408971940589254 119.6269602024986,59.42445264561684 119.70107240014477,59.56997087212949 119.80165323977417,59.5544902441743 119.9869337338605,59.61950882652127 120.82334282142983,59.55758637041981 120.93715798207268,59.5854514918974 121.53005556312564,59.56997087212949 121.67827995840344,59.650470005382886 121.86885418088059,59.662854467746 121.92708519331063,59.65356612146752 121.95884756372834,59.56687474719547 122.11765941578778,59.563778621932215 122.8693688489293,59.61022046647486 122.92759986134479,59.74335334520765 123.62901887464977,59.77431439290376 124.43895932022133,59.755737768229665 125.11126282729674,59.662854467746 126.09324944594118,59.42135650526143 126.69938134799304,59.167471880600715 126.74437803942419,59.13651019015742 126.74702490362688,59.05600964151199 126.96142090391368,58.98789361948366 127.32933502788364,58.792833223769776 127.34786307727336,58.6627922367752 127.43256273171573,58.58538661269813 128.2186813994631,58.00638604311462 128.63423907905235,57.59457651891171 128.95715651159117,57.362350544348374 129.0312687092228,57.42737400322949 129.22448979591718,57.45524115560693 129.0259749808174,57.60386551951524 129.04185616603354,57.69056271608497 127.69195542343368,58.641118682699016 127.57814026279084,58.641118682699016 127.55696534918388,58.56990546328416 127.44579705272918,58.588482841600126 127.34256934888253,58.67208089788801 127.33198189208633,58.792833223769776 126.96936149650719,58.99098980575036 126.8661337926751,58.88571928883357 126.35793586606451,59.247972122289866 126.00854979149881,59.33156829246764 125.72004159356584,59.446125618880615 125.65916371694766,59.52043283378953 125.29919018558576,59.6226049458819 124.49454346841958,59.75264166296438 123.58402218323317,59.78050659851033 122.9249529971421,59.74025723863997 122.8799563057255,59.70929615487876 122.86407512052392,59.604028224786816 121.99325679833419,59.54829799068648 121.89796968709561,59.65356612146752 121.67033936579537,59.64737388897629 121.55917106934066,59.56997087212949 120.9662734882877,59.59783598180911 120.8074616362137,59.55758637041981 119.94458390664659,59.62879718362092 119.71165985694097,59.70929615487876 119.21669625131472,59.696911712198926 118.93877551020705,59.76812218598934" stroke="#4dd2ff" stroke-dasharray="none" stroke-linecap="round" stroke-linejoin="round" stroke-width="0.5"><title>2026-04-12 19.4km</title><desc>1775975191000</desc></polyline><polyline fill="none" opacity="1" points="146.5161785056116,63.46443667562562 146.94353075651452,63.71428571428987 148.86661588575225,63.277049688549596 150.2198980137473,63.42279513839458 151.0389898280846,62.15272402022674 150.45138048299123,60.67443420240306 150.6472502646502,59.258596926621976 150.30892973276787,57.44714320945786 149.38299985567573,56.17703353482648 149.1515173864318,54.17815580914612 148.5995207290398,53.42857142856519 147.69139719568193,53.49103690267657 145.1985090652015,54.657055446645245 145.6970866912743,56.59346383936645 146.48056581802666,57.80110674051684 146.2134706611978,58.23835492947546 146.35592141153757,59.904053418300464 145.78611841017846,61.75712642450526 146.78327366232406,63.65182348433882 148.74197147926316,63.21458731990424 150.25551070133224,63.277049688549596 151.12802154698875,62.00697763009521 150.50479951442685,60.73689737706445 150.54041220189538,58.57149575486255" stroke="#4dd2ff" stroke-dasharray="none" stroke-linecap="round" stroke-linejoin="round" stroke-width="0.5"><title>2026-04-09 10.0km</title><desc>1775707979000</desc></polyline><polyline fill="none" opacity="1" points="183.63488124782452,55.53341569067561 184.16575682384428,55.45731411316956 184.24742998939473,55.28754870635021 184.04835164838005,55.11778281712759 184.00751506563392,54.83093590815406 184.2065934066195,55.13534482804607 184.44140375757706,55.23486279235658 184.72725983697455,55.18803082980594 184.66600496284082,55.45146014166312 185.1917759659991,55.06509675343477 185.2479262673296,55.381212438744114 185.5337823467271,55.82025922691537 185.87068415459362,56.08368575117129 186.01871676716837,56.1012474781528 186.4321871676948,55.8963603420998 188.13711449844413,55.78513560260399 188.2187876639946,55.984169200743054 188.3719248493726,55.949045672776265 188.81602268700954,56.68663542396462 189.1478199220437,56.74517390308756 189.10698333929759,57.500315142089676 189.22949308759416,57.968614992038056 189.42857142860885,58.167641316871595 189.38773484583362,58.39008171894966 189.0508330379671,58.55983831084086 189.03041474657948,58.9052036815192 188.86706841550767,58.77056996085594 188.71393123007147,58.91105731467542 188.43317972356454,59.42032120352087 188.34640198515262,59.78324224592143 188.25962424676982,59.71299963554338 188.28514711098978,58.96373998718991 188.20347394543933,58.71203346596303 188.36171570367878,58.36666697879264 188.29025168385124,58.038859652966494 188.1728465083579,57.927638901684986 187.75427153494093,57.91007771149816 187.91251329320949,57.82812542242755 187.703225806501,57.734465525845735 187.51435661118012,57.77544174866125 187.53477490253863,58.109104231309175 186.80992555833654,58.38422803477806 186.72314781995374,58.55983831084086 186.09018078699592,58.635935936854366 185.96256646583788,58.78227725295801 185.4878411910904,58.916910947242286 185.4674228997028,58.682765196994296 185.87578872745507,58.13251907243102 186.02892591283307,57.58812164352639 185.850265863206,57.13738023389669 185.73796526057413,57.0495730700859 185.79411556190462,56.96761960076401 185.50315490964567,56.97347342372086 185.36022686993238,56.87981218745699 185.40616802553996,56.78029696304657 185.7073378234927,56.68663542396462 185.72265154204797,56.39394216799337 185.53888691955945,56.616389173304924 185.1917759659991,56.45248093389091 185.5337823467271,56.47589642419916 185.5235732010333,56.07197793031082 185.66139666788513,55.97831528084134 185.4878411910904,55.984169200743054 185.3704360156553,56.218325526147964 185.01311591640115,56.13637091664714 184.89060616804636,56.44077318529526 184.75788727402687,57.21347967150359 183.93605104577728,57.91593144212311 183.58894009221694,59.01642261327288 183.27245657570893,59.309103023490024 183.0886919532495,60.36859412159538 182.96107763209147,60.36859412159538 182.52718894011923,60.667121370515815 182.15455512230983,60.737362859428686 182.093300248147,61.246611184978974 181.96568592701806,61.52757392088097 181.23573200995452,61.474893508522655 181.0621765331889,61.54513404802492 180.975398794777,61.38123932743474 180.7661113080685,61.351972365748225 180.72527472529327,61.597814398483024 180.34243176181917,61.68561487938496 180.26075859626872,61.89048216653828 179.67373271894758,62.311921234701 179.14285714286962,62.03681551309637" stroke="#4dd2ff" stroke-dasharray="none" stroke-linecap="round" stroke-linejoin="round" stroke-width="0.5"><title>2026-03-22 12.8km</title><desc>1774137608000</desc></polyline><polyline fill="none" opacity="1" points="158.13330836922978,70.41241730449474 158.87773825127806,70.43081415986308 158.9747238344862,70.49826919621046 159.13461898521928,70.51973212936718 159.223740872505,70.50440146445908 159.28402920802182,70.40628501676292 160.1752480808791,70.47374011027932 160.1962179367256,70.58718695852804 160.28009736005333,70.61171594834741 161.39936341509747,70.62398043545727 162.31679460775922,70.54426117633557 163.23946826437896,70.31736669879683 163.96554952255974,70.05367628784552 164.01535293017514,69.98315402665321 163.96292829058075,69.82064555327088 164.13068713723624,69.75318893788972 164.23029395245248,69.84210898884521 164.59464519753237,69.64587127124105 164.5894027335744,69.55388438314912 164.65755476504273,69.4802946622076 165.34693877550308,68.97742656180526 164.69425201274862,69.4465659775924 164.60250889346935,69.53855320671937 164.59202396555338,69.65200372005347 164.36659801536007,69.77465242347353 164.209324096606,69.84824139607554 164.1254446732928,69.74399029633423 163.96554952255974,69.82371175932713 163.92885227485385,69.92489637695326 163.49372776634118,70.14872775936055 163.228983336463,70.2039187931423 162.99831492229714,70.29896977132921 162.95375397866883,70.36335896632954 162.44785620670882,70.50133533050393 161.62478936529078,70.61171594834741 160.98782999439572,70.61478207061009 160.23553641639592,70.58412083333678 160.16738438494212,70.44921100354986 159.4255757348874,70.40321887241771 159.26568058415432,70.40321887241771 159.21325594457448,70.49520306161685 158.9825875304232,70.50133533050393 158.8829807152215,70.42161573363956 157.884291331211,70.42161573363956 157.32334768769215,70.48293851994458 157.05073956187698,70.55345956360361 156.539599325959,70.55345956360361 156.18573300879507,70.66077386562029 155.99438307432865,70.78648439919925 155.87642763525946,70.7404928038959 155.56974349373195,70.77728608598409 155.21587717655348,70.98271438488155 155.06122448979295,71.02257343819656" stroke="#ff9000" stroke-dasharray="none" stroke-linecap="round" stroke-linejoin="round" stroke-width="0.5"><title>2026-02-18 20.3km</title><desc>1771394553000</desc></polyline><polyline fill="none" opacity="1" points="34.65306122449692,83.59679093570594 34.74676816065039,83.49362668556569 35.66730100401037,83.53876108802251 35.70864229937433,83.67094002451813 35.7995931491605,83.69350710264916 37.23551414137182,83.6999548361764 37.96036485333752,83.61613419367495 38.96082420107268,83.37434258547182 39.63882144498348,83.12610120274985 39.71874794935866,83.03905504365866 39.6663823085546,82.87140988768988 39.83725966271595,82.79725885109292 39.94199094429496,82.90042546153381 40.30028217076324,82.710211751526 40.327843034334364,82.58125262787871 40.39123302054941,82.51032487696102 40.63652470636589,82.45229295781246 41.29522934577835,82.03317025625438 41.56808189515141,81.7881420033209 41.749983594738296,81.7881420033209 42.09725047576649,81.55923224777871 42.268127829927835,81.31097605961259 42.23781087998941,81.22714883740264 42.39215171600517,81.24326947499685 42.70634556074219,80.94020005946004 42.79729641054291,81.01113146980606 42.87722291491809,80.95632084906174 42.929588555693044,80.91118261667543 42.93234464204579,80.83702680381612 43.2575628322229,80.58231633116884 43.35953802743461,80.56941954167087 44.745849465194624,79.34742394076238 44.82026379684976,79.39256449290406 44.9387755102216,79.24424528441887 44.880897696712054,79.1571880209649 44.76238598335476,79.31195631711125 44.66592296084855,79.30550765382213 44.34346085702418,79.6118176506643 44.24699783451797,79.56667742381069 44.34346085702418,79.60859335096939 44.442679965883144,79.54088297839189 44.48402126124711,79.59892044982371 44.004462235068786,80.04709497337171 43.4808058271592,80.4726934461869 42.93785681476584,80.83380263394429 42.929588555693044,80.91440677835635 42.8110768423212,81.01757977165107 42.7008333880367,80.95632084906174 42.513419515729765,81.15621793056926 42.09725047576649,81.45928519478366 42.108274821192026,81.55600815442085 40.675109915362555,82.54901276159217 40.56762254741625,82.52966882542569 40.551086029270664,82.46196495201548 39.88135704444721,82.58770059703056 38.78719076055859,83.0068156623056 38.59702080189891,82.88430570170385" stroke="#ff7e00" stroke-dasharray="none" stroke-linecap="round" stroke-linejoin="round" stroke-width="0.5"><title>2026-02-08 23.1km</title><desc>1770528486000</desc></polyline><polyline fill="none" opacity="1" points="39.475562169089244,99.67627900806747 39.37897716603402,99.41460372117581 39.61613638145718,99.27593555834665 39.92788599527921,99.14285714285779 40.01203926526796,99.35421619647968 40.06846020764715,99.65055907464102 40.43663076384473,100.42995709729621 40.48061997316108,100.6658897883517 40.537997202696715,100.8034215820071 40.61641274973226,101.10084194500087 40.681440276537614,101.45080331300869 40.9119054818475,102.00535096559724 40.921468353437376,102.0623693377238 40.90329889742134,102.0925554102887 40.854528252315504,102.11156141177798 40.71204146562741,102.25131037392111 40.58389898632595,102.28373186925637 40.589636709282786,102.33515886492023 40.61641274973226,102.35975429619612 40.84783424219859,102.370934018777 40.97023899854685,102.3318049380432 41.053435981375515,102.27590600017083 41.225567669993325,102.10485341515232 41.32980297031463,101.95615839754555 41.3986556457603,101.78733670806287 41.42447539905697,101.67553278136347 41.39387420996718,101.88684120874495 41.358491585087904,102.01541305360297 41.174884450563695,102.28261388831379 41.26860059214232,102.44136599933245 41.303983217025234,102.46037137405438 41.34701613917787,102.44919174599909 41.561224462784594,102.13951135192474 41.745787884461606,101.92149985993365 41.91600699875926,101.61404011785635 41.92270100887254,101.57602629247776 41.9054878400093,101.53577621078784 41.71805555685569,101.39489971841522 41.702754962305335,101.35688510528234 41.91696328591934,101.20817957043255 42.003029130224604,101.10084194500087 42.02598002204104,101.1075505785102 42.135953045319184,101.25290325945389 42.014504576131,101.49776210407799 41.90166269137262,101.68224105029822 41.8882746711497,101.74708743061638 41.84524174899343,101.81752356562356 41.808902836957714,101.84323822817896 41.76873877627804,101.94945030235431 41.56696218573779,102.25354634230553 41.485677777225646,102.36087226898508 41.40726223019374,102.41229888959151 41.365185595197545,102.48273059471285 41.20835450113009,102.60346956956892 41.04100424830904,102.68172557643993 40.91859949196078,102.702966392696 40.87365399549162,102.51179751090694 40.69004686097105,102.55316183086234 40.6374510672249,102.4178887245871 40.05985362321371,102.46484322196739 39.7720111883682,102.5419823008815 39.657256729293294,102.60570546351391 39.49851306090568,102.6638385401966 39.61613638145718,102.97685730791909 39.61231123282414,103.00145124721712 39.51668251692172,102.99809753158661 39.1513808221971,102.93214090816491 39.00985032267272,102.96344240783947 38.99550601529336,102.98356475157652 38.976380272109964,103.23732657946857 38.92760962700413,103.33905318023335 38.59864684432614,103.60733842499121 38.320367281066865,103.74259632316625 38.319410993910424,103.7627171850736 38.40356426389553,103.87897030473414 38.40738941252857,103.92927173947737 38.328017578336585,104.0891169337574 38.16736133563245,104.53734127892858 38.148235592449055,104.70835454201733 38.201787673355284,105.06825578122061 38.324192429699906,105.47732121244371 38.30602297368023,105.60920232598073 38.256296041414316,105.76790453870672 38.24864574414096,105.89978203234568 38.28211579470735,106.01154133420823 38.456160057638044,106.33228397925359 38.466679216388,106.4093948737127 38.456160057638044,106.53008905940806 38.41408342264549,106.62284384129725 38.27350921027755,106.79494092291588 37.91585781282629,107.32797712368483 37.622277655023936,107.6598540363093 37.54099324651179,107.82746468645291 37.45588368937024,108.21966324380719 37.45588368937024,108.30681650684619 37.503698047312355,108.57832784546008 37.642359685360134,109.1146260928117 37.682523746039806,109.21182724427035 37.81066622533763,109.42857142857156" stroke="red" stroke-dasharray="none" stroke-linecap="round" stroke-linejoin="round" stroke-width="0.5"><title>2025-11-30 42.8km</title><desc>1764458479000</desc></polyline><polyline fill="none" opacity="1" points="76.68314309511334,109.42857142857974 78.91373902768828,107.34162705519702 77.83030671766028,100.5590151293436 75.02612897381186,99.14285714284051 72.92299566604197,101.52796368970303 74.00642797606997,108.01243127818452 76.8743370322045,109.42857142857974 78.91373902768828,107.04349164006999 77.76657540514134,100.40994600171689 74.89866634900682,99.21739184466423 72.92299566604197,101.45342923240969 74.07015928835608,108.0869650413515 76.74687440763228,109.42857142857974 78.91373902768828,107.04349164006999 77.83030671766028,100.5590151293436 75.08986028609797,99.14285714284051 72.92299566604197,101.52796368970303 73.94269666378386,107.86336372827645 76.74687440763228,109.42857142857974 78.91373902768828,107.04349164006999 77.83030671766028,100.5590151293436 75.02612897381186,99.14285714284051 72.92299566604197,101.37889476737473 73.94269666378386,107.86336372827645 76.8743370322045,109.42857142857974" stroke="#4dd2ff" stroke-dasharray="none" stroke-linecap="round" stroke-linejoin="round" stroke-width="0.5"><title>2025-11-26 8.7km</title><desc>1764155703000</desc></polyline><polyline fill="none" opacity="1" points="137.17310065350466,105.45011153147425 137.11912672045582,105.49930623851014 136.51069329342135,105.55595444665687 135.65201708590757,105.51868591786388 135.62748347998422,105.49632474668397 135.61644335731398,105.37706448430254 135.45329487788695,105.37259220209125 135.01168997116474,105.28463698999713 134.46704391953972,104.99989633532641 134.30144207952253,104.87168636088427 134.04874593845307,104.60035389255881 133.69914205396344,104.09196219693877 133.51636668979336,103.87428663485935 132.4969953634427,103.19588958319582 132.18051184696378,103.06169674580633 132.12285787302972,103.07511609508947 131.64935927859915,103.0139833859539 131.1390602752872,103.02292965495326 130.9795918367381,103.04529529912634 131.07159285897797,103.24062020533438 131.10593990727648,103.26745850093721 131.46290387354384,103.11537405554373 131.465357234134,103.04529529912634 131.48253075828688,103.02889383068668 131.64445255741884,103.01696547633674 132.25533934504347,103.08853542980523 132.52888905115105,103.21378185147205 132.80611879815115,103.39121211034944 133.0588149392206,103.58802252821079 133.39737870104,103.77737504911966 133.51759337008843,103.87726851776097 133.673381767745,104.05170741602888 134.09781315031432,104.68235059582003 134.34314920960605,104.92237418406148 134.65104596401216,105.12959577107631 135.03622357709537,105.29507238684982 135.43612135373405,105.36811991826562 135.60908327552897,105.37855524467705 135.62503011939407,105.39793511322932 135.62257675879664,105.50228772961782 135.64097696323734,105.52017666116899 136.53154685845948,105.55744518547453 137.1326202037235,105.49334325413747 137.1755540140948,105.44713002779281 137.14979372787639,105.35470305707895 137.1976342594353,105.33681388619789 137.38654302508803,105.30699854389695 137.74964039283077,105.30103546681221 138.410821072619,105.18475488899549 139.02293454054598,105.01182277701355 139.28912416487583,104.90299357031654 139.7025154247749,104.77329175813247 140.44465700413275,104.57351848977396 140.56977839436877,104.50344799685536 141.2653061224555,104.40803221915212" stroke="red" stroke-dasharray="none" stroke-linecap="round" stroke-linejoin="round" stroke-width="0.5"><title>2025-11-16 42.7km</title><desc>1763252375000</desc></polyline><polyline fill="none" opacity="1" points="165.34693877550308,108.08365703944582 159.3920515574282,105.64549993298715 155.48227712139487,104.54363167335396 155.06122448982205,104.05130578696844 156.46473326161504,100.48777153195988" stroke="#ff5200" stroke-dasharray="none" stroke-linecap="round" stroke-linejoin="round" stroke-width="0.5"><title>2025-11-09 30.0km</title><desc>1762665792000</desc></polyline><polyline fill="none" opacity="1" points="74.88627536449349,111.01649162113063 74.95085318686324,111.22418505094356 74.93009602966777,111.39411477997055 75.04771992040332,111.64226409481671 74.97622304565448,112.14664710328907 75.00389925522904,112.32466225249664 75.0684770775988,112.41636654110152 75.02926911402028,112.74002609885792 75.22761528271076,113.6192804828188 75.16534381115343,113.96180388978246 75.22530893191288,114.25038303049223 75.45133131019247,114.71965428395742 75.40520429420576,114.81944073564046 75.46516941497975,115.01092175179474 75.83418554278614,115.87931056342131 75.82265378879674,115.98718288470445 75.93335862712411,116.29731326623732 76.00024280029174,116.81508775817929 76.06020792106574,116.92025941716383 76.29776205333474,117.09284786630087 76.32082556131354,117.25195180806804 76.2654731421353,117.45150450120309 76.50072092362097,117.59442641630812 76.49380187122733,117.66993201035075 76.3854033836833,117.76161707400752 76.39462878688937,117.93959302131043 76.46381931084034,118.17149921022974 76.47535106482974,118.35756195338763 76.52609078241221,118.46003071055566 76.58374955237377,118.96158237227246 76.69676074151357,119.06674517954889 76.72443695110269,119.3579629983451 76.80285287825973,119.67883804113444 76.86051164822129,119.76242667526094 76.78670842266001,119.9727452526713 76.85359259582765,120.11295667421291 76.8351417894446,120.26934542749404 76.92970217218681,120.45269653794276 76.97352283736109,120.85714285714312 76.92970217218681,120.45000020762564 76.87434975302313,120.38528819463863 76.8351417894446,120.24238191774748 76.85359259582765,120.08868936794715 76.79132112425577,119.9619597267847 76.85589894664008,119.7570338684327 76.73366235429421,119.38762388591022 76.69676074151357,119.07753108398356 76.58374955237377,118.96158237227246 76.52609078241221,118.47620995037323 76.39924148847058,117.97734533531002 76.37848433128966,117.77510014380277 76.49610822201066,117.61330283577263 76.2608604405541,117.45689779555505 76.31621285971778,117.26004181248027 76.3023747549305,117.10363460557892 76.10172223542759,116.96070993973626 76.00716185268539,116.83935817952442 75.92643957473047,116.29731326623732 75.81804108718643,115.97909247644202 75.82496013958007,115.882007377013 75.46978211657552,115.05676910563852 75.40751064500364,114.81674380964614 75.3775280846312,114.83831920958983 75.35677092745027,114.77089602414344 75.33140106865903,114.80056224771215 75.37522173383331,114.74392670004272 75.36830268143967,114.54974672427852 75.2114708271256,114.21532218774155 75.1515057063516,113.89437838608319 75.22069623031712,113.65703919433508 75.01773736001633,112.64023150680441 75.07078342839668,112.42176090073735 74.9739166948566,112.2302604342749 75.05002627121576,111.66384218192252 74.92778967888444,111.40490393085565 74.94624048526748,111.2214877445258 74.88627536449349,111.04616221473407 74.86321185651468,110.70899434404964 74.92317697727412,110.57142857142935" stroke="#ff8100" stroke-dasharray="none" stroke-linecap="round" stroke-linejoin="round" stroke-width="0.5"><title>2025-10-27 22.6km</title><desc>1761522564000</desc></polyline><polyline fill="none" opacity="1" points="110.05805426789448,119.4084600431379 112.72239078418352,120.85714285715949 114.70515284268185,118.97385460173246 113.96161707071587,112.09256505756639 111.17335792607628,110.57142857142026 109.3764798103366,112.8169145786087 109.87217032490298,119.26359159324784 112.66042946954258,120.85714285715949 114.70515284268185,118.82898606004892 114.02357838512398,112.16500004404224" stroke="#4dd2ff" stroke-dasharray="none" stroke-linecap="round" stroke-linejoin="round" stroke-width="0.5"><title>2025-10-23 8.3km</title><desc>1761191597000</desc></polyline><polyline fill="none" opacity="1" points="148.2337915677199,111.28550902659481 148.6526748183678,111.12571573382593 148.79372734153003,111.23557368051479 148.86639076254505,111.45528880951679 148.56718844067655,111.66002244427 148.323552264279,111.94964412357513 148.66977209388278,112.59379633721619 149.1014783011924,114.40137050181511 149.13567285225145,115.38002828723984 149.0801067067805,116.04909901612336 148.69541800719162,117.66182022332214 148.72106392050046,117.89648405972184 148.58428571620607,118.25097403437394 148.31500362649967,118.27094522165135 147.9773324346752,119.0098732336337 148.15257950892556,119.17463263829995 147.99015539132233,119.4841790616083 147.19085775999702,120.8571428571413 148.1440308711317,119.18461803835453 147.9559608402633,119.00488051545108 148.29790635097015,118.28592360658149 148.34492385870544,118.24098843758475 148.5073479762941,118.29091640050319 148.5971086728532,118.21602443640586 148.96042577801563,116.67821660514164 149.09292966342764,115.77947463508826 149.0886553445307,114.39637729801689 148.6569491372211,112.62875008274932 148.29790635097015,111.9346637353301 148.58856003508845,111.61508099047933 148.84501916813315,111.45029529516978 148.7766300659714,111.22558660497816 148.62275458616205,111.12072218472895 148.22524292995513,111.27552196160104 147.65248419949785,110.5714285714239" stroke="#4dd2ff" stroke-dasharray="none" stroke-linecap="round" stroke-linejoin="round" stroke-width="0.5"><title>2025-10-19 14.0km</title><desc>1760852519000</desc></polyline><polyline fill="none" opacity="1" points="100.58918609395914,123.04206052735753 100.66692592579057,123.25716178261064 100.40097386948764,123.4340220502927 100.14320495337597,123.73038095236188 100.47871370134817,124.32787284970618 100.90423699142411,126.1919969722112 100.93696955220366,126.96152330327459 100.78558145860734,128.23766551877634 100.41734014989925,129.74318039311765 100.3191424675606,129.81964965639418 100.18412065436132,129.75751838979704 100.13093024310365,129.81009100553274 99.81587934562413,130.49352946544968 99.97954214952188,130.67514075110375 99.06303044779634,132.28571428571377 99.76678050447663,131.09093227250196 99.92226016813947,130.71337461332587 100.14729652348615,130.52698423058973 100.00818314019125,130.67036151606953 99.83224562602118,130.56999746383008 99.81178777554305,130.49352946544968 100.15957123377302,129.75751838979704 100.32323403765622,129.8053116793526 100.41734014989925,129.7384010598871 100.75694046793797,128.31413732023793 100.92060327182116,127.03321763813801 100.89196228113724,126.15375929845322 100.47053056115692,124.36611206307134 100.13911338328035,123.72560098544636 100.39279072931095,123.45314203790622 100.67510906601092,123.26672181472532 100.59327766406932,123.05640064278487 100.441889570473,122.93689954228103 100.06137355143437,123.09942096186933 99.51310315847513,122.42065116886806 99.43945489672478,122.15774464566493 99.31670779379783,122.0" stroke="#4dd2ff" stroke-dasharray="none" stroke-linecap="round" stroke-linejoin="round" stroke-width="0.5"><title>2025-10-07 14.0km</title><desc>1759810688000</desc></polyline><polyline fill="none" opacity="1" points="112.94619934097864,155.14285714285506 113.12910500052385,154.0736804305343 112.63525971991476,152.94034694583388 113.12910500052385,151.35794617561623 112.12312387337442,148.40694951021578 111.8853465160355,145.8622149184812 110.95252765261102,144.85714285714494" stroke="#4dd2ff" stroke-dasharray="none" stroke-linecap="round" stroke-linejoin="round" stroke-width="0.5"><title>2025-07-20 13.2km</title><desc>1752965179000</desc></polyline><polyline fill="none" opacity="1" points="27.111736876686336,156.54341300161468 27.60191985889105,156.28571428571013 27.896029648196418,156.47183012307505 27.987938957376173,156.81542725178588 27.626429007970728,157.0086998726474 27.203646185836988,157.47398355545738 27.712211029895116,158.45464795354928 28.28817603396601,160.78814279082144 28.398467204970075,162.35569092617516 28.177884862961946,164.2381324281887 27.74897475357284,165.66245463457744 27.773483902652515,166.0417916933584 27.510010549711296,166.57142857142753 27.816374913585605,165.94874695050385" stroke="#4dd2ff" stroke-dasharray="none" stroke-linecap="round" stroke-linejoin="round" stroke-width="0.5"><title>2025-06-29 12.0km</title><desc>1751152499000</desc></polyline><polyline fill="none" opacity="1" points="81.06122448979295,157.57179229269968 80.65468873802456,158.3625638884514 80.31650855514454,158.85047894739182 80.1078441869904,159.38886103434197 79.55380431290541,160.35204206261915 79.15086622265517,160.8525505094767 79.12928025354631,161.28575862050275 79.01415508490754,161.36146440824814 78.81988136282598,161.3362291616795 78.72634216331062,161.38669963882785 78.35578302675276,161.83251940708215 77.94564961346623,162.52647420310677 77.10379681778431,163.15733169924715 76.93110906482616,163.41387755423784 76.57134291282273,163.2961190064525 75.91656851617154,163.63257107577374 75.6359509176109,163.72509489622462 75.56759534872253,163.6535992356803 75.40570058031881,163.70827239941354 75.30856371929985,163.75453424853913 75.28697775017645,163.85967461474138 74.70055892241362,164.12462710577893 74.47750390817237,164.11621594268217 73.9630383108015,164.28864443064958 73.70400668137881,164.3012611199556 73.21832237616763,164.45686662586377 73.01685333104979,164.64611574567607 72.59592693320883,164.68817098344516 72.21097715056385,164.98676189386242 71.95554318263021,165.0540496770991 71.79364841425559,165.00358385032814 71.70010921471112,165.15918661069009 71.55260509239451,165.08348804649722 71.39430798552348,165.15498113868307 71.20003426344192,165.09189900518322 71.07411611024872,165.19283037079367 70.937404972472,165.15077566622494 70.77551020408282,165.28535056444525" stroke="#4dd2ff" stroke-dasharray="none" stroke-linecap="round" stroke-linejoin="round" stroke-width="0.5"><title>2025-06-22 15.1km</title><desc>1750548259000</desc></polyline><polyline fill="none" opacity="1" points="172.96973017370328,176.9701404547086 177.3877551020123,174.47009244764922 176.2142172306776,170.43773973663338 173.6600465690717,168.74414525961038 167.79235721123405,171.6474477815209 167.10204081633128,171.08291759860003" stroke="#4dd2ff" stroke-dasharray="none" stroke-linecap="round" stroke-linejoin="round" stroke-width="0.5"><title>2025-05-11 9.2km</title><desc>1746938990000</desc></polyline><polyline fill="none" opacity="1" points="98.99527248740196,179.1428571428587 99.11750211179606,179.50880830773895 99.06861026203842,179.88619285020104 99.31795869584312,180.43511111512998 99.1761723314994,181.54436641945358 99.23973173621926,181.85312415336375 99.36685054560076,182.03037316636255 99.28373440098949,182.70505763873007 99.69931512395851,184.61471208653165 99.557528759673,185.26649486304814 99.6895367540128,185.8839660313497 100.08067155210301,186.67866391086136 100.00733377749566,187.08458421798423 100.10022829202353,187.09030138362868 100.14423095682287,187.39902743067432 101.00472751262714,189.42857142857247 100.33001998587861,187.93071815543954 100.14423095682287,187.2732503651423 100.08067155210301,187.31898751373956 100.03177970237448,187.09601854868015 99.96333111269632,187.0731498848727 100.066003997199,187.09601854868015 100.24201465633814,186.85589709599662 99.9291068178427,186.97024077795504 99.79709882350289,186.92450333419765 100.03177970237448,186.69581553483295 99.66509082913399,185.89540061608204 99.557528759673,185.29508164697472 99.6895367540128,184.58612494269255 99.23484255123185,182.54496378053955 99.34240462069283,182.08755014330018 99.20061825640732,181.81881782561322 99.14683722166228,181.47575335006695 99.30818032589741,180.42367537482278" stroke="#4dd2ff" stroke-dasharray="none" stroke-linecap="round" stroke-linejoin="round" stroke-width="0.5"><title>2025-04-13 17.0km</title><desc>1744513358000</desc></polyline><polyline fill="none" opacity="1" points="109.62002276151907,179.14285714285506 109.90764179895632,180.24425983072433 112.0488057442708,182.93240033756592 112.33642478164984,183.02573781651154 113.47092209587572,182.3350393071887 114.126054347842,182.7270577106683 114.38171571452403,183.71643363170733 113.29515490634367,184.36979205845273 112.38436128786998,185.4524950010964 113.72658346255776,187.91655288400943 114.07811784162186,189.4285714285652 113.91832948755473,188.27122505962325 112.38436128786998,185.4524950010964 113.53483743756078,184.12711635278538 114.4616098915576,183.6977662126883 114.14203318330692,182.7830602688773" stroke="#4dd2ff" stroke-dasharray="none" stroke-linecap="round" stroke-linejoin="round" stroke-width="0.5"><title>2025-04-12 10.0km</title><desc>1744429372000</desc></polyline><polyline fill="none" opacity="1" points="182.64272717467975,206.92312440872774 184.172837308608,209.47256528257276 185.226355761406,212.28571428571013 185.05076935270336,211.1428759365226 182.74306226545013,206.8059081741958 184.39859126275405,204.98905021793325 185.92870139679871,204.19783417051076 185.3768583976198,202.67400432634167 184.39859126275405,202.0" stroke="#4dd2ff" stroke-dasharray="none" stroke-linecap="round" stroke-linejoin="round" stroke-width="0.5"><title>2025-02-01 10.0km</title><desc>1738384413000</desc></polyline><polyline fill="none" opacity="1" points="11.64201016369043,215.8176148555358 10.571428571420256,215.95234075757617 10.686617730068974,216.49124194082106 10.99153020887752,216.95088988427597 11.709768492350122,216.82409073350573 13.247882552183,216.23764186728658 12.59062676448957,216.26141691069643 12.251835121394834,216.6259666304395 11.804630152444588,216.80031586883706 11.980801806872478,217.27581172774808 13.864483342709718,216.96673976301827 14.975719932233915,216.63389160463703 14.792772444925504,215.76213941364404 14.426877470337786,215.76213941364404 14.03387916428619,216.0395162120185 13.424054206639994,216.22179183415574 14.63692828908097,215.73043914268055 14.887634104990866,216.03159117491305 15.084133258031216,216.59426672528207 16.08018068887759,216.18216673668212 16.771315640886314,216.1900917578605 17.069452286843443,216.0078160585108 18.566911349480506,215.62741316929169 18.7430830039375,215.4847615874387 18.58723884812207,215.0409549275064 18.648221343872137,214.90622738507227 19.962732919258997,214.81905061075668 20.301524562382838,214.95377831009682 20.782608695648378,214.93000285137532 20.857142857130384,215.1756822274183 20.640316205535783,216.10291647877602 20.714850367046893,217.1410882077107 19.61716544322553,217.5611077933645 19.70525127046858,218.13169666266185 19.556182947475463,218.25849359855783 19.183512140036328,218.45661338094214 18.709203839622205,218.44076381764899 17.78769057028694,218.69435642768804 17.530208921496524,218.24264399331878 16.100508187460946,218.67850691475905 15.77526821003994,218.5754849987061 15.199322416679934,218.79737818015565 15.212874082382768,218.92417398856924 15.118012422317406,218.82907715238252 14.962168266501976,219.20946377224755 14.731789949175436,219.32833419456438 14.691134951950517,219.21738847294182 14.71146245059208,219.32833419456438 14.420101637457265,219.22531317277753 14.115189158619614,218.92417398856924 13.241106719331583,219.05889429966192 13.064935064903693,219.20153907070198 14.10163749291678,220.0019296892715 14.731789949175436,219.88306033647677 15.063805759418756,220.36646119427314 15.50423489548848,220.57249995545135 15.82947487293859,220.50117890996626 16.066629023116548,220.27929077846784 16.378317334805615,220.36646119427314 16.446075663436204,220.15249726520415 16.9813664596295,220.025703537176 17.07622811969486,220.4140086510306 17.85544889891753,220.19212026115565 18.140033879171824,221.38080038894987 18.201016374921892,222.32380653210566" stroke="#4dd2ff" stroke-dasharray="none" stroke-linecap="round" stroke-linejoin="round" stroke-width="0.5"><title>2025-01-25 14.8km</title><desc>1737764447000</desc></polyline><polyline fill="none" opacity="1" points="165.34693877550308,217.88046128262067 164.66029027412878,218.1044136663004 163.9736417727836,218.17542275584856 162.95067563810153,217.9951687224493 162.7544903519738,218.03886672772205 162.38547517097322,218.388449438502 162.30606684088707,218.61239961873798 162.37146193627268,218.81996233305108 162.29672468442004,218.94559199161813 162.32475115387933,219.12584270695152 162.16593449367792,219.26239586023803 161.60540510481223,219.2241610137171 161.29711394093465,219.1313048400043 161.1896791414183,219.02752421295736 160.73191347383545,219.03844849931556 160.57309681363404,219.1640776262684 160.19006839793292,219.19138826559356 159.905132625252,219.19138826559356 159.80236890396918,219.10399416890505 158.77940276928712,219.14769123574297 158.23288661515107,219.06575920508476 157.7050547739491,219.1640776262684 157.40610576656763,219.06575920508476 157.1445253850834,219.17500188372287 156.37379747541854,219.01659992428904 155.06122448979295,218.57962648231478" stroke="#4dd2ff" stroke-dasharray="none" stroke-linecap="round" stroke-linejoin="round" stroke-width="0.5"><title>2024-10-28 17.0km</title><desc>1730088256000</desc></polyline><polyline fill="none" opacity="1" points="177.3877551020123,217.1446247608692 175.02069867087994,217.27303840126842 173.95918367343256,217.5726697534119 170.82344396831468,219.2705681740772 169.09085627133027,219.82701762743818 167.10204081633128,219.99823238198587" stroke="#4dd2ff" stroke-dasharray="none" stroke-linecap="round" stroke-linejoin="round" stroke-width="0.5"><title>2024-10-25 14.0km</title><desc>1729815581000</desc></polyline><polyline fill="none" opacity="1" points="143.02040816326917,239.0560689091435 143.0804707284551,239.05172342435617 143.02791598391195,239.1255966057106 143.14053329361195,239.0821418086307 143.16305675555486,239.29072443131736 143.24939669299056,239.25161526718512 143.3582600923546,239.29506989179208 143.52343214658322,239.49930603511893 143.812483241476,239.57752387386427 144.2817220318684,239.38632445954863 144.2967376731831,239.57752387386427 144.37181587964005,239.54276040766854 144.43938626545423,239.61663273950398 144.32676895575423,239.78610407670203 144.41686280352587,239.80348571429568 144.36055414867587,240.04682789751314 144.5144644719403,240.3466583234731 144.80351556681853,240.51612676341392 146.14741546253208,239.6818141026488 146.1924623864179,239.76437701979012 145.8771339192608,240.1902253204098 145.7232235960255,240.3032047689885 145.6856844927679,240.4987454159127 145.61436019663233,240.56392543257243 145.6293758379179,241.02018276360832 145.95971994637512,241.93702799365929 145.8245791747322,242.12821598792652 145.95971994637512,241.96309913417645 146.09861462833942,242.04565764084327 146.23750931030372,241.85012407695467 146.26003277221753,242.23249998768733 146.57536123938917,242.3150579735884 147.02958438851056,242.8104025376124 147.27358855950297,242.89730450034403 147.52885446150322,243.27967103576884 147.67150305377436,243.33615671104053 147.86295248026727,243.52733844226532 148.19329658870993,243.4665079842489 148.29089825712435,243.5099583202391 148.61748845523107,243.80541943278877 148.95534038433107,243.54906358484368 149.25565321018803,243.62292898696978 149.42833308505942,243.42740264405074 150.0890213019593,243.4751980549736 150.22416207358765,243.41436752269874 150.63709220913006,243.50561328862386 151.0049754208303,243.39264231160632 151.12134664083715,243.51864838213442 151.19267093698727,243.76631440289202 151.58307761060132,243.39264231160632 151.69194100996538,243.44912783745895 151.86086697452993,243.17973465807518 152.0222851184226,243.08414312146488 151.99600774615828,242.77129659669663 152.43896916430094,242.74957105849535 152.7467898108007,242.81474763993901 152.84439147921512,242.3150579735884 152.7430359005084,242.23249998768733 152.80309846566524,242.1803580196356 152.7918367346865,242.06303835875588 152.95325487859373,242.08476424620312 153.0508565469936,241.93702799365929 153.28735289735778,241.83708847418893 153.3061224489793,241.71542265657263 153.18975122894335,241.59810171847857" stroke="#4dd2ff" stroke-dasharray="none" stroke-linecap="round" stroke-linejoin="round" stroke-width="0.5"><title>2024-05-25 14.8km</title><desc>1716598951000</desc></polyline><polyline fill="none" opacity="1" points="56.19839834654704,253.88499181211228 56.84939292143099,250.61112888524076 53.985016791615635,249.08839686511783 47.54017049865797,251.67703938105842 46.75897700875066,255.02703351335367 49.688452596310526,256.62588884914294 56.003099974012,254.03726414375706 56.9144923791755,250.76340190978954 53.985016791615635,249.08839686511783 47.60526995616965,251.6009029696579 46.75897700875066,255.02703351335367 49.62335313879885,256.62588884914294 56.003099974012,254.03726414375706 56.9144923791755,250.76340190978954 53.919917333871126,249.08839686511783 47.60526995616965,251.6009029696579 46.75897700875066,255.02703351335367 49.62335313879885,256.62588884914294 56.003099974012,254.11340029764688 56.97959183668718,250.9918113864842 53.985016791615635,249.08839686511783 47.60526995616965,251.67703938105842 46.69387755100615,254.95089745649602 49.688452596310526,256.62588884914294 56.003099974012,254.11340029764688 56.97959183668718,250.9918113864842 54.05011624889448,249.08839686511783 47.60526995616965,251.6009029696579 46.69387755100615,254.87476139125647 49.62335313879885,256.62588884914294 56.003099974012,254.11340029764688 56.9144923791755,250.76340190978954 53.985016791615635,249.08839686511783 47.67036941368133,251.6009029696579 46.75897700875066,255.02703351335367 49.55825368105434,256.62588884914294 56.003099974012,254.03726414375706 56.84939292143099,250.68726540153148 53.985016791615635,249.08839686511783" stroke="#4dd2ff" stroke-dasharray="none" stroke-linecap="round" stroke-linejoin="round" stroke-width="0.5"><title>2024-05-07 10.0km</title><desc>1715083186000</desc></polyline><polyline fill="none" opacity="1" points="75.8719060375588,250.53679175907746 74.43160544557031,252.2194248707092 76.45267240528483,255.91032350013847 76.87082419008948,258.0 76.68497895239852,256.26312721613795 74.43160544557031,252.19228571426356 75.84867538278922,250.56393109008786 77.40512924839277,249.69547107911785 76.94051615416538,248.22993816743838 76.08098193001933,247.71428571428987" stroke="#4dd2ff" stroke-dasharray="none" stroke-linecap="round" stroke-linejoin="round" stroke-width="0.5"><title>2024-04-27 10.0km</title><desc>1714177464000</desc></polyline><polyline fill="none" opacity="1" points="90.45773410773836,247.71428571428987 88.15748132695444,248.91893136381987 85.46063323924318,251.93053104216233 88.75237428746186,258.0" stroke="#4dd2ff" stroke-dasharray="none" stroke-linecap="round" stroke-linejoin="round" stroke-width="0.5"><title>2024-04-20 9.0km</title><desc>1713573009000</desc></polyline><polyline fill="none" opacity="1" points="102.03042364213616,249.22478496207623 99.63083206489682,247.71428571426077 97.60040842276067,249.65635556011694 98.03110434673727,256.34566483524395 100.43069592374377,258.0 102.46111956657842,256.12988169147866 101.9688956530299,249.15285650250735 99.6923600542359,247.71428571426077 97.53888043342158,249.65635556011694 97.96957635786384,256.34566483524395 100.36916793487035,258.0 102.46111956657842,256.12988169147866 101.9688956530299,249.22478496207623 99.56930407555774,247.71428571426077 97.53888043342158,249.65635556011694 98.03110434673727,256.48952022677986 100.67680788063444,257.9280724677956 102.46111956657842,256.0579539615428 101.9688956530299,249.15285650250735 99.6923600542359,247.71428571426077 97.53888043342158,249.58442714618286 98.03110434673727,256.4175925348536 100.30763994553126,258.0 102.46111956657842,256.12988169147866 101.9688956530299,249.22478496207623 99.6923600542359,247.71428571426077 97.53888043342158,249.65635556011694 98.03110434673727,256.48952022677986 100.30763994553126,258.0 102.46111956657842,256.2018094137311 101.9688956530299,249.22478496207623 99.63083206489682,247.71428571426077 97.53888043342158,249.65635556011694 98.03110434673727,256.4175925348536 100.43069592374377,258.0 102.46111956657842,256.12988169147866 101.9688956530299,249.15285650250735 99.6923600542359,247.71428571426077 97.53888043342158,249.65635556011694 98.03110434673727,256.5614479109645 100.67680788063444,257.9280724677956 102.46111956657842,256.0579539615428 101.9688956530299,249.15285650250735 99.63083206489682,247.71428571426077 97.53888043342158,249.58442714618286" stroke="#4dd2ff" stroke-dasharray="none" stroke-linecap="round" stroke-linejoin="round" stroke-width="0.5"><title>2024-04-18 10.1km</title><desc>1713436846000</desc></polyline><polyline fill="none" opacity="1" points="114.27771436143667,247.71428571426077 112.1660826166626,248.885030873731 109.8039182915818,251.5610068332171 112.77451888215728,257.95818869327195 113.31137441052124,258.0" stroke="#4dd2ff" stroke-dasharray="none" stroke-linecap="round" stroke-linejoin="round" stroke-width="0.5"><title>2024-04-14 10.0km</title><desc>1713054435000</desc></polyline><polyline fill="none" opacity="1" points="118.93877551020705,254.1983209234313 119.87443113693735,253.7879953156371 120.19281395437429,253.4384568373207 120.29677569068735,253.61322628917696 121.44035479004378,253.97036254191335 122.53195302127278,253.69681152880366 123.32466126058716,253.7879953156371 124.74763752627769,253.430858155858 125.18947490555001,253.5676342992665 125.826240540453,253.57523296625004 126.39803009011666,253.20289733789105 126.73590573313413,253.27128565925523 127.28170484871953,253.1345089513561 127.45064267021371,252.82296103297995 129.023063931847,251.8579137800989 129.22448979591718,251.51596479085856" stroke="#4dd2ff" stroke-dasharray="none" stroke-linecap="round" stroke-linejoin="round" stroke-width="0.5"><title>2024-04-07 10.0km</title><desc>1712456610000</desc></polyline><polyline fill="none" opacity="1" points="176.6530612243805,249.96693387097912 173.98144712415524,249.10767753625987 167.70315398881212,251.91978545684833 167.30241187359206,255.35679169627838 170.57513914629817,256.45038123364793 176.78664192929864,253.40394920570543 177.320964749204,251.2167594813509 175.9851576993242,249.42013450083323 173.58070500870235,249.26390603504842 167.23562152148224,252.62281076260842 167.5027829313185,255.66924601508072 170.3747680890374,256.52849471004447 176.58627087180503,253.716404351464 177.3877551020123,251.76355752011295 176.71985157672316,249.96693387097912 173.9146567718126,249.1857917898451 167.63636363646947,252.07601336046355 167.36920222616754,255.43490528839175 170.64192949887365,256.45038123364793 176.58627087180503,253.716404351464 176.92022263421677,250.20127633417724 174.2486085339915,249.10767753625987 167.5027829313185,252.3103551538079 167.23562152148224,255.35679169627838 170.30797773669474,256.6066081780009 176.71985157672316,253.5601767951739 176.71985157672316,250.0450480337604 173.98144712415524,249.1857917898451 167.43599257897586,252.3103551538079 167.30241187359206,255.35679169627838 170.30797773669474,256.6066081780009 176.51948051922955,253.79451811732724 176.92022263421677,250.27939047198743 174.2486085339915,249.10767753625987 167.70315398881212,252.07601336046355 167.23562152148224,255.35679169627838 170.30797773669474,256.6066081780009 176.58627087180503,253.716404351464 176.98701298655942,250.35750460170675 174.18181818141602,249.10767753625987 167.70315398881212,252.07601336046355 167.23562152148224,255.20056448696414 169.97402597405016,256.6066081780009 176.58627087180503,253.716404351464 176.78664192929864,250.12316218821798 173.98144712415524,249.1857917898451 167.63636363646947,252.15412729984382 167.30241187359206,255.43490528839175 170.3747680890374,256.52849471004447 176.45269016665407,253.79451811732724 176.98701298655942,250.43561872292776 174.38218923914246,249.10767753625987 167.70315398881212,252.07601336046355 167.30241187359206,255.35679169627838 170.04081632639281,256.6066081780009 176.58627087180503,253.716404351464 176.98701298655942,250.35750460170675 174.1150278293062,249.10767753625987 167.43599257897586,252.3103551538079 167.36920222616754,255.5130188721232 170.24118738388643,256.6066081780009 176.6530612243805,253.6382905773935 176.8534322816413,250.12316218821798 174.1150278293062,249.10767753625987 167.63636363646947,252.07601336046355 167.10204081633128,255.044337244879" stroke="#4dd2ff" stroke-dasharray="none" stroke-linecap="round" stroke-linejoin="round" stroke-width="0.5"><title>2024-03-26 10.6km</title><desc>1711453549000</desc></polyline><polyline fill="none" opacity="1" points="71.66639884299366,267.34318160722614 71.60340671701124,267.4379021162458 71.61240559216822,267.3010835742316 71.4774224650464,267.480000091331 71.36943596333731,267.28003455106955 70.77551020408282,265.6171476385716 70.84750120522222,265.4277030610756 72.2063313514227,264.7120202882288 72.56628635700326,264.7225450722035 73.38518399483291,264.3015528438482 73.70914349990198,263.9752826407057 73.61915474850684,263.6279615704334 74.17708500724984,263.4174633615912 74.5010445122607,263.10171521256416 76.63377792056417,262.67019112053094 78.47854732442647,261.9334383417008 78.88349670579191,261.8913380180238 79.29744496219791,261.57558502192114 80.521291981393,261.11247881352756 81.06122448982205,261.09142848008923" stroke="#4dd2ff" stroke-dasharray="none" stroke-linecap="round" stroke-linejoin="round" stroke-width="0.5"><title>2024-01-30 11.7km</title><desc>1706613736000</desc></polyline><polyline fill="none" opacity="1" points="86.13482726065558,259.1428571428587 86.219164905051,259.3975573514472 86.40559548739111,259.53790179716816 86.39227901722188,259.64186038603657 86.40115666398196,259.53270386192526 86.5387601890543,259.5067141773834 86.75182371170376,259.70423543321886 87.44871898376732,259.6626520772661 87.79050838469993,259.8861621995238 87.99025543720927,259.89136009717913 88.18112484290032,259.75101666637056 88.30985072121257,259.7822041302679 88.3542389551003,259.5171100528569 88.36755542526953,259.76141248987915 88.72710011978052,259.5534955995936 89.26419774981332,259.42354709402207 89.29526951353182,259.34557782483535 89.41067892164574,259.3299839560823 89.51277185959043,259.5430997318581 89.30858598370105,260.25001370071186 89.1487883416994,260.40075138629254 88.92240834888071,260.43193843562403 88.74041658994975,260.65544504011996 88.6427624753851,260.66584067129224 88.66051776893437,260.8789506226567 88.59837424149737,260.97251079561465 88.41194365915726,261.1908171694449 88.24326837039553,261.2583879923295 88.3231671913527,261.4195180391689 87.59963897897978,261.746974239828 87.4265248668089,262.0016608793485 86.99595899810083,262.0900212401684 86.99152017472079,262.33431081828894 86.76070135849295,262.5889943977854 86.33901313654496,262.4954373186956 85.63767904110136,262.55261111052096 85.37578846115503,262.6773536969886 85.50451433943817,262.8852573004042 85.40242140149348,263.29066678395975 85.10058141103946,263.4985677790901 85.10058141103946,263.91436711702045 85.46012610555044,263.7376528305067 85.67318962822901,263.8364050105265 85.94839667831548,264.1950296709729 86.16589902437408,264.23141173592376 86.36564607688342,264.15864757893723 86.46773901482811,264.5016776565317 86.87167194319773,264.7355604204131 86.86279429643764,264.9278631880952 87.00483664489002,264.9590473494245 86.97820370455156,265.19292792537453 87.19570605061017,265.4527939198415 87.28004369500559,265.4372019991133 87.33774839903344,265.52035885214354 87.34218722244259,265.87897116076056 87.12024605300394,266.38830006389253 87.08029664249625,266.7624975098406 87.23565546111786,266.76769467642225 87.57300603867043,267.06912939325775 87.70617074033362,267.5160808978726 87.68841544675524,267.92664902881006 87.95918367349077,268.5295023158724 87.89260132267373,268.88809255632077 88.19000248971861,269.42857142857247 88.54066953744041,269.12715125578325 88.66495659231441,267.5628546564112 89.07776716750232,267.2874085454532 89.48613891925197,266.8560464238799 89.41955656843493,266.7001314677145 89.29970833694097,266.72092015726594 89.41067892164574,266.69493429395516 89.3751683345472,266.35191960390875 89.65925303145195,266.1752141274919 89.35741304099793,265.89976019943424 89.0866448142624,265.44239930656477 89.35741304099793,264.68878395714273 89.33521892403951,264.449703557053 89.4994553894503,264.350952615845 89.54828244671808,264.4081242377033 89.49501656604116,264.4029268202903 89.51277185959043,264.26779377379717 89.82792832018458,263.73245534182934 89.9433377282985,263.64929544772167 90.16527889776626,263.6596904422113 90.3561483034864,263.51416031809276 90.81778593591298,262.80729355274525" stroke="#4dd2ff" stroke-dasharray="none" stroke-linecap="round" stroke-linejoin="round" stroke-width="0.5"><title>2024-01-27 16.6km</title><desc>1706316843000</desc></polyline><polyline fill="none" opacity="1" points="102.65160501934588,267.24463166616624 102.22975876624696,260.692769450834 99.81920874887146,259.1428571428987 97.40865873126313,261.3972738540033 98.0715599860996,267.87867943116 100.30131875234656,269.35812187060947 102.65160501934588,267.4559809882194 102.22975876624696,260.76321992464364 100.00000000023283,259.1428571428987 97.46892248163931,261.3268234473071 97.95103248534724,267.5968804989243 100.6629012550693,269.35812187060947 102.65160501934588,267.24463166616624 102.1092312654946,260.4814179847599 99.69868124788627,259.1428571428987 97.46892248163931,261.18592261109734 98.01129623549059,268.09002855198923 100.42184625309892,269.35812187060947 102.65160501934588,267.38553122163285 102.22975876624696,260.76321992464364 99.63841749727726,259.1428571428987 97.52918623201549,261.0450217454927 97.95103248534724,267.87867943116 100.60263750446029,269.35812187060947 102.65160501934588,267.24463166616624 102.1092312654946,260.692769450834 99.93973624962382,259.1428571428987 97.52918623201549,260.9745713014854 97.89076873473823,267.5968804989243 100.24105500173755,269.2876723049558 102.65160501934588,267.1741818774026 102.1092312654946,260.6223189695156 99.81920874887146,259.2133077806211 97.46892248163931,261.25637303304393 97.83050498412922,267.6673302431591 100.24105500173755,269.42857142857974 102.5913412689697,267.4559809882194 101.98870376450941,260.6223189695156 99.63841749727726,259.2837584107183 97.46892248163931,261.3972738540033 97.95103248534724,267.87867943116 100.36158250295557,269.2876723049558 102.5913412689697,267.4559809882194 102.1092312654946,260.76321992464364 99.27683499478735,259.2837584107183 97.34839498065412,261.3972738540033 97.83050498412922,267.80822970927693" stroke="#4dd2ff" stroke-dasharray="none" stroke-linecap="round" stroke-linejoin="round" stroke-width="0.5"><title>2024-01-25 10.3km</title><desc>1706155972000</desc></polyline></svg>