<?xml version="1.0" encoding="utf-8" ?>
<svg baseProfile="full" height="300mm" version="1.1" viewBox="0,0,200,300" width="200mm" xmlns="http://www.w3.org/2000/svg" xmlns:ev="http://www.w3.org/2001/xml-events" xmlns:xlink="http://www.w3.org/1999/xlink"><defs /><rect fill="#222222" height="300" width="200" x="0" y="0" /><text fill="#FFFFFF" style="font-size:12px; font-family:-apple-system, BlinkMacSystemFont, 'Segoe UI', Roboto, 'Helvetica Neue', Arial, sans-serif; font-weight:bold;" x="10" y="20">Over 3km Runs</text><text fill="#FFFFFF" style="font-size:4px; font-family:-apple-system, BlinkMacSystemFont, 'Segoe UI', Roboto, 'Helvetica Neue', Arial, sans-serif;" x="10" y="280">Runner</text><text fill="#FFFFFF" style="font-size:9px; font-family:-apple-system, BlinkMacSystemFont, 'Segoe UI', Roboto, 'Helvetica Neue', Arial, sans-serif;" x="10" y="290">Hannah YAN</text><text fill="#FFFFFF" style="font-size:4px; font-family:-apple-system, BlinkMacSystemFont, 'Segoe UI', Roboto, 'Helvetica Neue', Arial, sans-serif;" x="65" y="280">SPECIAL TRACKS</text><rect fill="yellow" height="2.6" width="2.6" x="65" y="283" /><text fill="#FFFFFF" style="font-size:3px; font-family:-apple-system, BlinkMacSystemFont, 'Segoe UI', Roboto, 'Helvetica Neue', Arial, sans-serif;" x="70" y="285.5">Over 20.0 km</text><rect fill="red" height="2.6" width="2.6" x="65" y="287" /><text fill="#FFFFFF" style="font-size:3px; font-family:-apple-system, BlinkMacSystemFont, 'Segoe UI', Roboto, 'Helvetica Neue', Arial, sans-serif;" x="70" y="289.5">Over 40.0 km</text><text fill="#FFFFFF" style="font-size:4px; font-family:-apple-system, BlinkMacSystemFont, 'Segoe UI', Roboto, 'Helvetica Neue', Arial, sans-serif;" x="120" y="280">STATISTICS</text><text fill="#FFFFFF" style="font-size:3px; font-family:-apple-system, BlinkMacSystemFont, 'Segoe UI', Roboto, 'Helvetica Neue', Arial, sans-serif;" x="120" y="285">Number: 310</text><text fill="#FFFFFF" style="font-size:3px; font-family:-apple-system, BlinkMacSystemFont, 'Segoe UI', Roboto, 'Helvetica Neue', Arial, sans-serif;" x="120" y="290">Weekly: 2.8</text><text fill="#FFFFFF" style="font-size:3px; font-family:-apple-system, BlinkMacSystemFont, 'Segoe UI', Roboto, 'Helvetica Neue', Arial, sans-serif;" x="141" y="285">Total: 2714.2 km</text><text fill="#FFFFFF" style="font-size:3px; font-family:-apple-system, BlinkMacSystemFont, 'Segoe UI', Roboto, 'Helvetica Neue', Arial, sans-serif;" x="141" y="290">Avg: 8.8 km</text><text fill="#FFFFFF" style="font-size:3px; font-family:-apple-system, BlinkMacSystemFont, 'Segoe UI', Roboto, 'Helvetica Neue', Arial, sans-serif;" x="167" y="285">Min: 3.0 km</text><text fill="#FFFFFF" style="font-size:3px; font-family:-apple-system, BlinkMacSystemFont, 'Segoe UI', Roboto, 'Helvetica Neue', Arial, sans-serif;" x="167" y="290">Max: 42.8 km</text><polyline fill="none" opacity="1" points="18.153354208203382,30.670982017443748 18.076549498175154,30.663697633612173 17.983138364361366,30.600566210136094 17.532689119114366,30.62241941485263 17.2503799147089,30.595709939585504 16.750111398090667,30.65155698874696 16.575743948313175,30.704975778042353 16.150204338729964,30.70740390186802 15.89695637596742,30.782675612990715 15.732967941054085,30.887084351516023 15.616722974540608,30.857947076972778 15.392536253391881,30.887084351516023 15.110227048993693,31.052194874471752 15.014740112208528,31.074047648693522 14.923404781373392,31.066763392933353 14.879812918930838,31.023057809765305 14.79262919404573,31.030342079415277 14.850751677302469,31.015773537805217 14.776022770252894,30.96235547269498 13.839835629194567,31.445541623708777 13.684150406174012,31.49167444226441 13.669619785352552,31.523238948848302 13.752651904302184,31.685916870599613 13.613573105074465,31.84859363812575 13.320884885797568,31.989417370510637 13.065561120056373,31.991845358314094 13.030272469506599,32.07196881152595 12.974225789221236,32.37546420149738 13.065561120056373,32.82220210718879 13.007438636792358,33.1329711693852 13.073864331949153,33.78120245572791 13.223322146048304,34.203635455583935 13.399765398797172,34.56051244389164 13.580360257496068,34.82270424373746 14.045340123571805,35.34707885218086 14.76356795240281,36.04622635015585 15.06248358060111,36.39579210859665 15.130985078722006,36.36908935662177 15.20986559172161,36.42249482948682 15.708058305375744,36.95168779560481 15.811848454053688,37.1288918864102 15.988291706788004,37.29395747944727 16.12944630900165,37.485723368341496 16.41590711934259,38.0804301728258 16.66500347616966,38.94940260381554 16.69614052077668,39.194553679117234 16.648397052384098,39.40086691109536 16.374391059871414,40.02950402922397 16.040186781145167,40.658123928929854 15.892804770024668,40.85714285714312 16.11491568818019,40.565895059977265 16.68368570293387,39.34018674128856 16.706519535640837,39.11202786697686 16.48648442044214,38.49307481573487 16.405528104478435,38.063438763752856 16.148128535758588,37.507570013487566 15.971685283002444,37.26725577285288 15.832606483789277,37.15073887132348 15.674845457797346,36.907993425880704 15.544069870462408,36.80846705084332 15.184955956043268,36.40792971285737 15.128909275757906,36.381226975014215 15.056256171679706,36.40064715106928 14.954541825973138,36.254995429893825 13.991369246257818,35.283960320992264 13.889654900558526,35.21355867745115 13.368628354197426,34.514385798705916 13.156896450891509,34.0628253201794 13.063485317084996,33.74721325545033 13.00951443977101,33.1329711693852 13.063485317084996,32.82220210718879 12.976301592192613,32.370608306884606 13.030272469506599,32.062256892713776 13.080091740870557,31.991845358314094 13.364476748247398,31.979705416739307 13.900033915422682,31.6227882618914 14.084780380071606,31.535379132119488 14.238389800098957,31.523238948848302 14.296512283362972,31.45039771424308 14.284057465520164,31.389696508626002 14.798856602959859,31.156602385572114 14.83829685945966,31.040054435343336 14.88188872190949,31.013345446639505 15.066635186543863,31.052194874471752 15.504629613962607,30.850662752551216 15.575206915062154,30.872515718876457 15.631253595347516,30.950214985998173 15.909411193810229,30.768106913994416 16.276828320114873,30.680694525617582 16.492711829363543,30.702547653952934 16.748035595112015,30.63456007514833 17.422671561515017,30.583569258727948 17.491173059643188,30.60542247964804 17.966531940575805,30.59085366801446 18.080701104125183,30.649128859013217 18.25714435687405,30.66612576180887 18.313191037159413,30.59085366801446 18.454345639358507,30.571428571427532" stroke="#4dd2ff" stroke-dasharray="none" stroke-linecap="round" stroke-linejoin="round" stroke-width="0.5"><title>2026-07-19 15.6km</title><desc>1784414563000</desc></polyline><polyline fill="none" opacity="1" points="50.747659063665196,38.48233492972213 52.45690276112873,34.23746269234107 52.45690276112873,31.58436282070761 48.433373349369504,31.655112696957076 48.19135654263664,31.92042446625419 48.070348139328416,33.459224426420406 47.01152460987214,35.67011911950249 46.69387755100615,37.54493491456378 56.29891956783831,39.84420860784303 56.979591836745385,36.076920558771235" stroke="#4dd2ff" stroke-dasharray="none" stroke-linecap="round" stroke-linejoin="round" stroke-width="0.5"><title>2026-07-14 4.4km</title><desc>1784026688000</desc></polyline><polyline fill="none" opacity="1" points="59.57512364274589,33.815887608681805 58.90659996587783,35.22297698442708 58.77289523050422,36.39553713906935 65.0188164402498,37.88076130760601 65.41038030816708,38.1264354721352 66.10755499976221,38.182270429802884 68.31368313339772,39.00862435105955 69.02040816325461,38.96395673687948 68.6383946336573,36.39553713906935 68.4091865158407,35.92651463990478 65.29577624920057,37.132568285262096 65.03791711671511,37.065565666387556 65.25757489626994,35.35698451833741 65.19072252855403,32.598628495623416 65.06656813144218,32.419947077512916 59.72792905464303,32.743806925158424 59.68972770165419,33.469696078114794 59.02120402478613,34.966128735664824 58.73469387757359,36.35086841938755 61.24643283494515,37.0208972301989 61.42788926156936,36.88689180822985 62.335171394457575,34.44126297982439 62.46887612983119,32.66563394945115 61.81945312942844,32.576293334932416 59.73747939290479,32.72147179514286 59.67062702518888,33.61487330978707 58.983002671797294,35.1224712223775 58.744244215777144,36.35086841938755 61.380137570318766,36.9762287751073 62.44022511510411,34.10624092024227 62.46887612983119,32.72147179514286 62.335171394457575,32.56512575276429 59.73747939290479,32.73263936075091" stroke="#4dd2ff" stroke-dasharray="none" stroke-linecap="round" stroke-linejoin="round" stroke-width="0.5"><title>2026-07-09 10.0km</title><desc>1783598044000</desc></polyline><polyline fill="none" opacity="1" points="75.6122149003204,30.571428571478464 73.83096430194564,31.157328308850992 73.051667165244,32.65462510212092 73.94229246443138,39.034370587032754 76.00186346890405,40.79204394062981 78.8407316096127,38.96927147731185 77.95010631042533,32.78482465108391 75.77920714393258,30.571428571478464 72.9403390029911,32.32912610931089 73.83096430194564,39.099469689594116 76.28018387476914,40.85714285715949 77.72744998568669,40.4014502959908 78.89639569097199,38.578676675329916 78.06143447291106,32.65462510212092 77.11514509259723,31.22242824517889 75.33389449422248,30.63652856979752 72.88467492163181,32.78482465108391 74.2206128705293,39.22966787428595 76.33584795566276,40.6618460866157 78.8407316096127,38.578676675329916 77.8944422295317,32.2640262900386 75.27823041309603,30.76672854583012 73.10733124660328,32.39422592159826 74.05362062691711,39.22966787428595 76.1688557122834,40.79204394062981 77.78311406681314,40.4014502959908 78.89639569097199,38.64377582632005 77.78311406681314,32.65462510212092 76.94815284898505,31.22242824517889 75.22256633196957,30.70162856130628 72.9403390029911,32.78482465108391 73.99795654555783,39.1645687854616 76.83682468649931,40.72694501694059 78.56241120374762,39.620262262935285 78.95205977209844,38.05788322020089 77.50479366094805,31.87342722999165 74.66592552000657,30.831828523485456 72.9403390029911,32.84992441511713 73.99795654555783,38.96927147731185 75.22256633196957,40.59674714936409 76.55850428063422,40.6618460866157 78.2840907976497,39.94575739733409 78.89639569097199,38.31828000303358 77.8944422295317,32.2640262900386 75.05557408835739,30.70162856130628 72.9403390029911,32.52442552574212 74.05362062691711,39.42496509948978 76.33584795566276,40.72694501694059 78.89639569097199,38.8390732377884 77.83877814817242,32.39422592159826 75.05557408835739,30.76672854583012 73.10733124660328,32.84992441511713 73.8866283830721,39.1645687854616" stroke="#4dd2ff" stroke-dasharray="none" stroke-linecap="round" stroke-linejoin="round" stroke-width="0.5"><title>2026-07-08 4.7km</title><desc>1783508969000</desc></polyline><polyline fill="none" opacity="1" points="108.67453858726367,39.59413203372969 109.62831728007586,40.61520565947649 109.82468348152179,40.70952033988942 110.00351698641316,40.697218438072014 110.14027201957651,40.8571428571413 110.42780824312649,40.57009855726574 110.60664174803242,40.27485077354868 110.61716136596806,40.11902464748346 110.91521720746823,39.69665068106042 111.32548230692919,39.22916344773694 111.57795313737006,39.097937947441096 111.52184850837511,39.02002259635992 111.78483895676618,38.47050988202318 112.12497327000892,37.3632590991765 112.11094711275655,36.42002051014788 112.05484248377616,36.260077776601975 112.12146673067764,36.06732539982477 112.67199340261868,35.84586403833964 113.36979472565872,35.312711123664485 113.555641309169,35.300407508239005 113.59771978094068,35.15276381843796 113.78356636445096,34.92309473800924 113.70992903888691,34.37352391092281 113.36979472565872,33.51224051210738 113.18044160281715,32.83550440617546 113.4574582084606,32.70835872745738 114.1166875990748,32.57711113743062 114.50240692334773,32.568908148292394 114.76189083240752,32.47047214306076 114.90565894420433,32.12594415458807 114.8565673938283,31.777311522699165 114.88812624763523,31.387659573185374 114.80046276483336,30.977495390987315 114.86708701176394,30.79292009173878 114.98630934835819,30.784716724687314 115.20722132500669,30.87905534086167 115.83138532248267,31.354846598449512 116.0382711418788,31.43277736800883 116.19606541089888,31.34254172576766 116.35385967993352,31.043121952054207 116.46957547721104,31.0595285749514 116.57477165656746,30.998003703265567 116.14346732123522,30.92007205882328 116.08034961360681,31.149764876616246 115.95762073771039,31.194882948602753 115.30189788641292,30.702682958602963 114.97929626972473,30.571428571427532 114.83552815795701,30.583733689109067 114.66020119236782,30.6903778786982 114.61110964200634,30.842140257551364 114.70578620342712,31.96598368958439 114.70578620342712,32.14645185873451 114.63214887787763,32.26129480126838 113.19797429937171,32.57300964307433 112.98407540137123,32.757576459047414 112.97355578343559,33.032374311045714 113.54161515193118,34.56628471565273 113.555641309169,34.89438600721769 112.64744762743067,35.616199067004345 111.90055475405825,35.964797149121296 111.93912668648409,37.12950211090356 111.65509700223629,38.281869392227236 111.32548230692919,38.995417716101656 110.77846217430488,39.55722525429519 110.4804063328047,40.0206078239753 110.30858590653224,40.135427427099785 110.05962161539355,40.4470789207553 109.8141638635716,40.50448813305775 109.35480721374915,40.06571556576819 108.64297973345674,39.2414658156049 108.35193697059003,39.14304676329266 107.95219148905016,39.126643563602556 107.58049832201505,38.872393080477195 107.5068609964801,38.98311527012993 107.51738061441574,39.040526651315304" stroke="#4dd2ff" stroke-dasharray="none" stroke-linecap="round" stroke-linejoin="round" stroke-width="0.5"><title>2026-06-28 15.3km</title><desc>1782609425000</desc></polyline><polyline fill="none" opacity="1" points="134.13001095126674,30.571428571427532 133.875185698329,30.748343997256598 134.33313252968946,31.32223511299162 134.28512197478267,31.48620252474211 134.9461903845513,32.215418054711336 135.37089913943782,32.314659400282835 135.4410684119939,32.50451173853071 135.32658170413924,32.57354873406803 135.32658170413924,32.64258561310635 135.60725879433448,32.95756489577616 135.85839092764945,32.82812164839925 135.8916290041234,32.89715809795962 135.77714229626872,32.99208302591069 135.77714229626872,33.095637241644 135.93963955903018,33.25528281080187 136.12798865902005,33.268227018852485 136.22770288841275,33.3415774537425 136.21293040999444,33.64360727096937 136.4640625433094,33.9585788487384 136.6080942080007,34.023298735704884 136.93308873347996,33.97152283431933 136.9293956138863,34.157052844435384 137.02172360406257,34.26491874273415 137.08081351780856,34.519481135488604 137.60154338247958,35.15372292175016 137.90807230991777,34.998399311472895 138.0668764530419,35.110577533589094 138.12965948638157,35.33061853771869 137.904379190295,35.4471103550859 137.6606332961819,35.72755225917717 138.02255901774333,36.38766177168145 138.35124666283082,37.92356165711681 138.36232602165546,38.86837031660616 138.23675995500525,39.739818332494906 138.33647418439796,39.88649587758846 138.27738427068107,40.093569164255314 138.13704572558345,40.26612943640794 138.02994525695976,40.66301530221608 138.05210397460905,40.83557317425948 138.1407388451771,40.8571428571413 138.19613563930034,40.79674771646387 138.12965948638157,40.26612943640794 138.26999803146464,40.10219719513407 138.3253948255733,39.88649587758846 138.2330668353825,39.705305892566685 138.3697122608719,38.63109165359856 138.3327810648043,37.89336193392228 138.00040030009404,36.357460915271076 137.6421676981554,35.71892330615083 137.904379190295,35.42553782131654 138.11858012755692,35.31336046250726 138.05210397460905,35.097633908273565 137.89699295109313,34.998399311472895 137.5793846648303,35.15372292175016 137.08081351780856,34.528110341394495 137.00325800603605,34.251974849947146 136.91831625506165,34.16568212676793 136.91831625506165,33.97152283431933 136.61178732762346,34.02761339120116 136.4640625433094,33.97152283431933 136.20923729037168,33.63929257498603 136.24616848646838,33.4235571959689 136.19815793154703,33.30705961840067 135.9544120374485,33.263912283291575 135.76606293745863,33.091322487893194 135.7734491766896,32.98345349610827 135.9100946021499,32.89715809795962 135.88793588451517,32.82380686643228 135.65896246883494,32.95756489577616 135.5887931962934,32.94030581976767 135.31180922572094,32.59512277127578 135.43368217277748,32.49156728891103 135.3524335414113,32.310344564179104 134.9609628629987,32.23267743645192 134.2814288551599,31.477572677344142" stroke="#4dd2ff" stroke-dasharray="none" stroke-linecap="round" stroke-linejoin="round" stroke-width="0.5"><title>2026-06-21 12.1km</title><desc>1782018676000</desc></polyline><polyline fill="none" opacity="1" points="149.79591836733744,36.110432896100974 149.55918367343838,36.2345230123974 149.34693877550308,36.59724698939681 149.06122448976384,36.664064405078534 148.57142857142026,36.38724907510914 147.3877551020123,36.406339814806415 146.3510204081831,37.198601949596195 145.55102040813654,37.08405845659581 145.13469387753867,36.87406167518202 143.13469387753867,36.9313335731058 143.02040816325461,36.52088416801416 144.3510204081831,36.664064405078534 145.0367346938583,36.50179345257493 145.86938775505405,36.807244414972956 146.35918367342674,36.635428375819174 146.39999999993597,36.75951777023147 146.92244897957426,36.18679606477235 147.37142857140861,36.0149788443523 148.60408163265674,36.05316047716042 149.13469387753867,36.34906758368015 149.81224489797023,35.78588870828389 150.51428571427823,35.91952469167154 151.3142857142666,35.76679783735017 152.16326530612423,35.98634260916151 152.89795918366872,35.16543333585287 153.30612244896474,34.22996947897627" stroke="#4dd2ff" stroke-dasharray="none" stroke-linecap="round" stroke-linejoin="round" stroke-width="0.5"><title>2026-06-18 10.3km</title><desc>1781755773000</desc></polyline><polyline fill="none" opacity="1" points="180.71686007163953,32.14711636504944 180.37183489085874,31.844585923681734 180.49043729674304,31.441210807963216 181.49316672852729,31.264733765761775 182.26947338535683,30.697484361146053 183.02421596838394,30.76051220601221 183.47706151817692,30.571428571427532 184.76012390933465,30.873962242847483 185.57955871376907,30.672273213858716 185.80598148866557,31.10086199270154 184.4474448392284,33.81102007343725 183.87599688349292,36.23120220663259 185.54721260303631,36.98749905099976 188.19959368056152,37.64295243669767 187.8976966473274,40.126079705150914 185.69816111965338,39.62189561015839 185.3100077912677,40.1638934263392 185.57955871376907,40.61765714566718 185.33157186507015,40.857142857144936" stroke="#4dd2ff" stroke-dasharray="none" stroke-linecap="round" stroke-linejoin="round" stroke-width="0.5"><title>2026-06-11 10.1km</title><desc>1781164397000</desc></polyline><polyline fill="none" opacity="1" points="38.81079160083027,44.745198985281604 39.03563678158389,45.38252620127241 39.462461531482404,45.52960034291027 40.04934556261287,45.43155097221825 40.4685484419897,45.213167462490674 40.93729347983026,45.4850324754334 41.13165117845347,45.476118896291155 41.482257222989574,45.346871786550764 41.79475391491724,44.99478282027121 41.96624600191717,45.08391954573017 41.98148974298965,45.32458776202111 42.21776772955491,45.52514355829044 42.7017565084534,44.887818500694266 42.99900945927948,44.81205194326685 44.04320572245342,44.95912807727291 44.462408601815696,45.53405712707172 44.4204883138882,45.645476577603404 44.47003047235194,45.88168483782647 44.67582097677223,46.34518398862565 44.88161148119252,46.43431785588473 44.93877551020705,46.75519821608759 44.46621953709109,46.986943622498075 44.096558816192555,47.26771038733568 42.47691132769978,49.282045627849584 42.25587708220701,49.48258258069109 41.722346144830226,48.564561156024865 41.60801808681572,48.50217062438605 41.43271506452584,48.51999650001744 41.226924560120096,48.41749761221581 41.196437077989685,48.3372809173452 41.89383823185926,47.949564738504705 41.93194758451136,47.5529318510562 42.00435535458382,47.42814769834149 42.309230175975244,47.650976283119235 42.50739880983019,47.686628747287614 43.05617348829401,47.200861327375605 43.185745287380996,46.87107107868724 43.22766557530849,46.563561628354364 43.83360428275773,46.077781254945876 43.92887766442436,45.85048759637357 43.92506672916352,45.337958178151894 43.86028082964185,45.230994730223756 43.70784341896069,45.16859926014149 43.528729461395415,45.19534018720515 43.14001406416355,45.60536560935725 42.99900945927948,45.60090883275552 42.82370643700415,45.38698300098622 42.865626724931644,45.623192711078445 43.04855161775777,45.82374708530915 43.57064974932291,45.752438972773234 43.166690611018566,46.06441107369392 42.858004854409955,46.1268052165542 42.858004854409955,46.23376638925038 42.56456283884472,46.7863947873775 42.41974729868525,46.80867803844376 42.22157866481575,46.69726166524924 41.98148974298965,46.65715169874966 41.27646671858383,46.8755277208802 40.67433894639544,46.83096127770841 40.388518801366445,47.28553678540993 39.588222395294,47.740107386947784 39.51962556048238,47.9807604251655 39.24142728600418,48.208042587612 39.146153904323,48.47543179683271 38.68121980174328,49.17509219597923 38.46018555626506,49.3756296579777 38.10195764116361,49.540515300428524 37.92665461887373,49.536058940204384 37.743729726062156,49.36671690216099 37.53031735110562,49.33106586003487 37.41980022835196,49.33106586003487 37.20638785339543,49.48258258069109 36.985353607917204,49.540515300428524 36.70715533342445,49.40682428848959 36.43657892946794,49.072594902270794 36.42895705894625,48.854230270942935 36.162191590236034,48.711624186395056 36.0288088558882,48.19021657997655 35.762043387192534,47.936195151447464 35.76966525774333,48.39075873090769 35.68201374661294,48.89433814524091 35.411437342641875,49.02803078372381 35.369517054685275,48.94781525155486 35.26662180249696,49.072594902270794 35.20183590296074,49.0592256716518 34.99223446326505,49.210743370102136 34.97317978693172,49.148353795568255 34.79787676464184,49.24193812271551 34.725468994583935,49.1795485943876 34.65306122449692,49.259763685276994" stroke="#ff8800" stroke-dasharray="none" stroke-linecap="round" stroke-linejoin="round" stroke-width="0.5"><title>2026-06-06 21.6km</title><desc>1780740439000</desc></polyline><polyline fill="none" opacity="1" points="98.21862489444902,52.285714285717404 98.82491747420863,50.31933867284533 98.72491045075003,48.959655880214996 98.79366527940147,48.65993725516455 98.69365825594286,48.31635576761619 98.76866352351499,48.053185812503216 99.85623990374734,47.599946316600835 101.0438233074965,46.708079267438734 101.39384788961615,46.656906218471704 101.42510008445242,46.37910900523275 101.78137510555098,45.96241108983668 101.74387247176492,45.33370421271684 100.81255706571392,42.84075198642677 100.70629960324732,42.24857121852983 100.94381628397969,42.116974802578625 101.73137159383623,42.0" stroke="#4dd2ff" stroke-dasharray="none" stroke-linecap="round" stroke-linejoin="round" stroke-width="0.5"><title>2026-05-23 13.0km</title><desc>1779516917000</desc></polyline><polyline fill="none" opacity="1" points="157.76172090461478,42.98558007090469 160.83949255384505,46.58549555405625 165.30722559290007,49.79053187937825 165.30722559290007,50.20857664317009 163.42084942094516,51.30013421481999 160.76006618863903,48.211244470308884 156.17319360177498,44.982959829241736 155.08108108106535,44.07717358812806 155.08108108106535,43.72879326867405 157.78157749585807,43.03203096953803 160.97848869278096,46.77129604005313 164.98952013242524,49.39571109312237 165.34693877550308,50.23180132894777 163.817981246626,51.25368506711675 163.28185328189284,51.16078674211167 160.74020959739573,48.25769426229817 155.06122448982205,44.05394825075928 155.29950358520728,43.566215596860275 157.8610038610641,43.07848185842158" stroke="#4dd2ff" stroke-dasharray="none" stroke-linecap="round" stroke-linejoin="round" stroke-width="0.5"><title>2026-05-10 15.1km</title><desc>1778395698000</desc></polyline><polyline fill="none" opacity="1" points="143.02040816326917,59.778803872901335 143.15975463909854,59.81291977147339 143.88565255969297,59.793966498498776 144.06712703985977,59.892523408336274 144.30045137146953,59.9076859857596 144.37174491725455,59.89631405329783 144.41063230585132,59.79017584270332 144.6050692488643,59.78638518650769 145.52540411250084,59.84324498735441 145.59669765825674,60.00624258242533 146.45546082325745,60.04414889349937 147.44708923266444,60.021405111681815 148.27020562476537,59.9076859857596 149.47247405577218,59.612014567293954 150.21457505495346,59.30117787812196 150.26966552215163,59.26327078011673 150.27290613787773,59.164712137382594 150.53539601094963,59.08131615073944 150.98584159561142,58.842499295747984 151.00852590562135,58.683287173676945 151.1122256085655,58.58851771710397 152.07468847651035,57.87963422201938 152.58346514408186,57.37544650587006 152.97882026154548,57.091126991959754 153.06955750161433,57.17073668358353 153.3061224489793,57.20485506863042 153.06307627019123,57.38681923944023 153.08251996450417,57.49296457840319 151.429805948821,58.656751751135744 151.2904594730062,58.656751751135744 151.2645345472847,58.56956379567055 151.12842868715234,58.592308500188665 151.00204467419826,58.69465949160076 150.98908221132297,58.842499295747984 150.54511785808427,59.085106881626416 150.4187338451302,58.9562218064093 149.7965356274799,59.39973614503833 149.36877435282804,59.50208482724338 149.01554723967274,59.64233995340328 148.94101307819074,59.7333159575428 148.50028934067814,59.85840758564518 147.5151421627088,60.01761447996614 146.40037035607384,60.05173015089895 145.5934570425452,60.00245194911622 145.53836657536158,59.96454559388803 145.51892288104864,59.835663685778854 144.4527603101742,59.76743189947956 144.33609814435476,59.89631405329783 144.05740519269602,59.88873276298182 143.9212993325782,59.793966498498776 143.19540141198377,59.828082382624416" stroke="#4dd2ff" stroke-dasharray="none" stroke-linecap="round" stroke-linejoin="round" stroke-width="0.5"><title>2026-04-12 19.4km</title><desc>1775975191000</desc></polyline><polyline fill="none" opacity="1" points="174.7888474620413,60.718705119768856 174.985913972836,59.29421733306663 174.64552636328153,57.47169595974265 173.71393922145944,56.1938261436153 173.4810424359748,54.18273563479306 172.9256731782807,53.428571428579744 172.01200117357075,53.49141855549533 169.50388194539119,54.664561262878124 170.00550579105038,56.612800762362895 170.79377183422912,57.8278221442597 170.52504477405455,58.26774184094393 170.66836587281432,59.9436174477305 170.09508147777524,61.80801239646098 171.09832916897722,63.71428571428987" stroke="#4dd2ff" stroke-dasharray="none" stroke-linecap="round" stroke-linejoin="round" stroke-width="0.5"><title>2026-04-09 10.0km</title><desc>1775707979000</desc></polyline><polyline fill="none" opacity="1" points="26.69743725421722,66.23624767003639 26.97624860200449,66.35441425700265 27.31567111230106,66.29880647589744 27.242937717266614,66.61159967765707 27.86723269155482,66.15283584308054 27.9339049703849,66.52818829204625 28.273327480681473,67.0495078431195 28.67336115357466,67.36229773490777 28.84913352498552,67.38315034531843 29.340083941671764,67.13986950905382 31.364496771042468,67.00780242002656 31.461474631127203,67.24413282677415 31.64330811877153,67.2024275180811 32.1706252330041,68.07823385198571 32.56459778963472,68.14774182808469 32.51610885959235,69.04438861452218 32.66157564971945,69.60044294430554 32.89795918366872,69.83676471481158 32.849470253655454,70.10088811504102 32.44943658076227,70.30245531165565 32.42519211574108,70.7125385302279 32.23123639560072,70.55267586249829 32.049402907898184,70.7194890728424 31.716041513864184,71.32418367273931 31.613002537516877,71.75511231176642 31.509963561198674,71.6717069729857 31.540269142453326,70.78204392558837 31.44329128236859,70.48317024245625 31.63118588627549,70.07308569817542 31.546330258715898,69.68385071789089 31.406924584822264,69.55178836442064 30.90991305184434,69.53093639139843 31.097807655809447,69.4336271029606 30.849301889305934,69.32241632416844 30.62504058785271,69.37107106133772 30.64928505284479,69.76725839341088 29.788606544578215,70.09393751185416 29.68556756823091,70.30245531165565 28.933989152574213,70.39281283458695 28.782461246155435,70.56657697834453 28.218777434376534,70.72643961475114 28.19453296935535,70.44841740688571 28.679422269837232,69.79506093016244 28.86125575748156,69.14864913331985 28.649116688524373,68.61344351139269 28.515772130922414,68.50918220610038 28.582444409723394,68.41187151624763 28.23696078316425,68.41882228422764 28.067249528015964,68.30760991470743 28.1217995742918,68.1894465810692 28.479405433376087,68.07823385198571 28.4975887821347,67.73069294993911 28.279388596944045,67.99482419076958 27.86723269155482,67.80020126654563 28.273327480681473,67.82800457412668 28.261205248185433,67.34839599122643 28.424855387071148,67.23718194368121 28.218777434376534,67.24413282677415 28.079371760512004,67.52216759147268 27.655093622626737,67.42485554777522 27.50962683247053,67.78629960866238 27.352037809818285,68.70380318539537 26.376198092708364,69.53788704974431 25.964042187319137,70.8445987232044 25.588252979476238,71.19212437234091 25.37005279425648,72.45015298912767 25.21852488789591,72.45015298912767 24.703330006159376,72.80462111321685 24.260868519486394,72.88802512038092 24.18813512439374,73.49270124058239 24.03660721803317,73.8263134461522 23.169867593504023,73.763761277085 22.96378964080941,73.84716415692674 22.860750664433,73.65255728481134 22.61224489795859,73.61780600148631" stroke="#4dd2ff" stroke-dasharray="none" stroke-linecap="round" stroke-linejoin="round" stroke-width="0.5"><title>2026-03-22 12.8km</title><desc>1774137608000</desc></polyline><polyline fill="none" opacity="1" points="182.62145922747732,70.65925984754358 183.62207234825473,70.73499483666092 183.64561618640437,70.86236692035891 183.73979153893015,70.88990676472167 184.9964438994648,70.90367667814644 186.02648681790743,70.81417213657551 187.06241569589474,70.55942709226656 187.87762109134928,70.26336953216014 187.93353770695103,70.18419089040981 187.87467811157694,70.00173502501275 188.0630288166867,69.92599832722772 188.174862047832,70.02583302821586 188.58393623544544,69.80550776244127 188.5780502759153,69.70222977993399 188.65456774986524,69.61960715762325 189.4285714285652,69.05501361656934 188.69576946660527,69.58173838553921 188.5927651747479,69.68501675094376 188.58099325568764,69.81239294960687 188.3278969957173,69.95009638657939 188.15131820968236,70.03271816869528 188.05714285715658,69.91567058203145 187.87762109134928,70.0051775979955 187.8364193746238,70.1187823017317 187.34788473330264,70.37008826584133 187.05064377683448,70.43205382136875 186.791661557334,70.53877200116767 186.74163090130605,70.61106476259374 186.1736358062626,70.7659772813422 185.24954015942058,70.88990676472167 184.5343960760365,70.89334924362265 183.68976088288764,70.8589244381692 183.61324340895226,70.70745486103624 182.78038013489277,70.65581734384978 182.60085836910002,70.65581734384978 182.54199877375504,70.75909229618628 182.28301655425457,70.7659772813422 182.17118332312384,70.67647236057019 181.04990803188412,70.67647236057019 180.4201103617379,70.74532232150159 180.11404046596726,70.82449959627411 179.54015941140824,70.82449959627411 179.14285714285506,70.94498638343066" stroke="#ff9000" stroke-dasharray="none" stroke-linecap="round" stroke-linejoin="round" stroke-width="0.5"><title>2026-02-18 20.3km</title><desc>1771394553000</desc></polyline><polyline fill="none" opacity="1" points="58.73469387754449,84.46141682291636 59.702544631421915,84.34949602226698 61.03839947425877,84.02664583199294 61.94368953304365,83.69518363509997 62.05041071884625,83.57895599082985 61.98048994192504,83.35510922085814 62.208652477071155,83.25609967932542 62.348494030869915,83.39385201927871 62.82689934648806,83.13987077929778 62.863699755384005,82.96767920525235 62.948340695831575,82.8729735285342 63.275864334995276,82.79548690160664 64.1553941075399,82.23585687576997 64.519718155585,81.90868498312193 64.76260085428657,81.90868498312193 65.2262860063347,81.60303517715147 65.45444854148082,81.27155321141618 65.41396809169964,81.15962362526625 65.62005038149073,81.18114856963075 66.03957504288701,80.77647770781186 66.16101639224507,80.87118827075028 66.26773757804767,80.79800285514648 66.33765835492522,80.73773241390518 66.3413383957959,80.63871649491193 66.7755832207622,80.29861650066232 66.91174473366118,80.28139617207489 68.76280530099757,78.64973692964486 68.86216640501516,78.71001046831589 69.02040816325461,78.51196850549968 68.94312730459205,78.39572603422857 68.7848855463526,78.6023790865438 68.65608411522408,78.5937685636818 68.22551933117211,79.0027663841538 68.09671790002903,78.94249327981743 68.22551933117211,78.99846116538174 68.35800080317131,78.9080514657544 68.4132014165225,78.98554550632252 67.77287430176511,79.58396673060997 67.07366653278586,80.15224347499316 66.34869847759546,80.63441144948592 66.33765835492522,80.74203744839178 66.17941659668577,80.87979831099437 66.03221496111655,80.79800285514648 65.78197218064452,81.06491373463723 65.2262860063347,81.4695817239226 65.24100616989017,81.59873023389082 63.327384907446685,82.92463119774402" stroke="#ff7e00" stroke-dasharray="none" stroke-linecap="round" stroke-linejoin="round" stroke-width="0.5"><title>2026-02-08 23.1km</title><desc>1770528486000</desc></polyline><polyline fill="none" opacity="1" points="64.20468994238763,99.14285714285779 64.64661445103411,100.07838846767481 64.69941582089814,100.36158449411505 64.76828717289754,100.52666741373196 64.8624113539554,100.8836686610166 64.94046555288514,101.30373621665603 65.21709881674178,101.96937390756739 65.22857737540471,102.03781451386112 65.20676811394515,102.07404762664373 65.14822746474965,102.09686101497209 64.97719694062107,102.26460525847142 64.82338425449416,102.30352160621987 64.83027138969192,102.3652507407387 64.8624113539554,102.39477326419637 65.14019247367833,102.408192570344 65.28711802460748,102.36122493676794 65.3869814849968,102.29412801596027 65.59359554099501,102.08880923553716 65.71871183044277,101.91032681349861 65.80135745284497,101.70768583388599 65.83234956124943,101.5734847291551 65.7956181735135,101.8271236238752 65.75314750644611,101.98145168842984 65.53275918005966,102.30217966518103 65.64524905498547,102.49273387294306 65.68771972205286,102.51554650894559 65.7393732360506,102.50212731625925 65.99649295017298,102.13041004098068 66.21802913242573,101.86872528685217 66.42234747668408,101.49967351680243 66.43038246774813,101.45404455267362 66.40972106214758,101.4057313530584 66.18474131229596,101.23663370626764 66.16637561842072,101.1910037965772 66.42349533255037,101.01250875042388 66.52680236054584,100.8836686610166 66.55435090134415,100.89172120491912 66.68635432600422,101.06619173501531 66.54057663094136,101.36010205124148 66.40512963868241,101.58153683544879 66.38905965654703,101.65937359962481 66.3374061425493,101.74391988891875 66.29378761962289,101.77478585422614 66.24557767322403,101.90227491575297 66.00338008537074,102.26728914835076 65.90581233670673,102.39611519544815 65.81168815564888,102.45784387977619 65.76118249751744,102.54238485176484 65.57293413538719,102.68731092268263 65.37205935872771,102.78124360361744 65.22513380780583,102.80673949710763 65.17118458207551,102.5772746126122 64.95079625568906,102.62692526083538 64.88766418302112,102.46455350128781 64.194359239591,102.52091418204782 63.84885462374223,102.61350618586948 63.71111191975069,102.68999472321048 63.520567845887854,102.75977333781248 63.66175411748554,103.13549774812418 63.65716269402037,103.16501848072221 63.542377107354696,103.16099293031493 63.103896166307095,103.08182351302548 62.93401349805208,103.11939550141778 62.91679566005769,103.14354886381716 62.893838542717276,103.44814565792694 62.83529789352178,103.57025069131942 62.44043547541514,103.89228031310631 62.106409418229305,104.054633817982 62.10526156236301,104.07878540170441 62.206272878625896,104.21832698622075 62.21086430208379,104.27870508126034 62.11559226515965,104.47057134474016 61.9227524795715,105.008586458026 61.89979536223109,105.21385803933481 61.96407529076532,105.6458566758829 62.11100084169448,106.13686834602413 62.089191580227634,106.29516861017692 62.02950307516585,106.48566292374562 62.02032022822823,106.64395884284113 62.060495183563035,106.77810638324263 62.26940495128656,107.16310196049926 62.28203136582306,107.25566013379921 62.26940495128656,107.4005324431455 62.21889929315512,107.51186837351906 62.0501644807664,107.71844088985108 61.62086638665642,108.35825783650216 61.268474635602615,108.75661815910917 61.17090688693861,108.95780549731717 61.06874771481671,109.42857142857156" stroke="red" stroke-dasharray="none" stroke-linecap="round" stroke-linejoin="round" stroke-width="0.5"><title>2025-11-30 42.8km</title><desc>1764458479000</desc></polyline><polyline fill="none" opacity="1" points="98.08806062908843,108.01243127818452 100.95596968522295,109.42857142857974 102.99537168070674,107.04349164006999 101.8482080581598,100.40994600171689 98.98029900202528,99.21739184466423 97.00462831906043,101.45342923240969 98.15179194137454,108.0869650413515 100.82850706065074,109.42857142857974 102.99537168070674,107.04349164006999 101.91193937067874,100.5590151293436 99.17149293911643,99.14285714284051 97.00462831906043,101.52796368970303 98.02432931680232,107.86336372827645 100.82850706065074,109.42857142857974 102.99537168070674,107.04349164006999" stroke="#4dd2ff" stroke-dasharray="none" stroke-linecap="round" stroke-linejoin="round" stroke-width="0.5"><title>2025-11-26 8.7km</title><desc>1764155703000</desc></polyline><polyline fill="none" opacity="1" points="160.99076543840056,105.68131767372142 160.78213344206597,105.67559858170716 160.21741525647667,105.56312268519832 159.5209294942615,105.1990003137762 159.3091601746637,105.03504718952718 158.98601587958547,104.6880710194946 158.53894731600303,104.03794682126681 158.30521673363546,103.75958635336428 157.0016589219158,102.89206168076998 156.59694422225584,102.72045775496554 156.52321712580306,102.73761823136192 155.91771373793017,102.65944257693081 155.26515050126181,102.67088294075074 155.06122448979295,102.69948381407448 155.17887411179254,102.94926257548286 155.22279663733934,102.98358301297412 155.67927717068233,102.78909954879418 155.682414493931,102.69948381407448 155.70437575670803,102.67850984536017 155.91143909142556,102.66325603245241 156.69263258147112,102.75477868913185 157.04244412421394,102.91494206348943 157.39696165182977,103.14183739987675 157.720105946908,103.39351581283518 158.1530565558569,103.6356571713568 158.3067853952598,103.76339954356263 158.50600542184839,103.98646956979064 159.04876234466064,104.79292725814594 159.36249466997833,105.09986606970779 159.7562287382607,105.36485814033767 160.24878848901426,105.5764673249123 160.76017217928893,105.66987948762835 160.98135346864,105.68322403726233 161.00174606979272,105.70800674243583 160.99860874653677,105.84145141048793 161.02213867093087,105.86432752624933 162.16098701185547,105.91198599449672 162.92963120889908,105.83001334019536 162.9845343658235,105.77091651193587 162.95159247167612,105.65272219297185 163.01277027510514,105.62984577115822 163.25434416560893,105.59171832793982 163.71866800708085,105.58409282826506 164.56417662382592,105.43539484977009 165.34693877551035,105.21425168079622" stroke="red" stroke-dasharray="none" stroke-linecap="round" stroke-linejoin="round" stroke-width="0.5"><title>2025-11-16 42.7km</title><desc>1763252375000</desc></polyline><polyline fill="none" opacity="1" points="98.91493849318067,111.31077199990068 98.98718991338683,111.41337324668893 98.94332297969959,111.7754923434677 99.16523805599718,112.75922600968624 99.09556704366696,113.14245049288911 99.16265764813579,113.46532066705367 99.41553761879914,113.99035408064083 99.36392946151318,114.10199787081547 99.43102006598201,114.31623202815172 99.843885324226,115.28780899717094 99.83098328491906,115.40849947768947 99.95484286238207,115.75548176495067 100.02967469044961,116.33478191803988 100.09676529490389,116.45245082428846 100.36254730488872,116.64554746493559 100.3883513835317,116.8235572727881 100.32642159478564,117.04682224138378 100.58962319692364,117.20672715865658 100.58188197333948,117.29120486636384 100.4606028037233,117.3937846037552 100.4709244351834,117.59290892355784 100.54833667109779,117.85237186125414 100.56123871041927,118.06054390771897 100.61800768344256,118.17518873406334 100.68251788003545,118.73633834443717 100.8089578653744,118.85399734715429 100.83992275974015,119.17981974597205 100.92765662711463,119.53882345183956 100.99216682372207,119.63234468415067 100.90959377205581,119.86765481623843 100.98442560012336,120.02452715975596 100.96378233721771,120.19949914104654 101.0695790596219,120.40463733924844 101.11860680906102,120.85714285714312 101.0695790596219,120.40162061171577 101.00764927090495,120.32921905541298 100.96378233721771,120.16933163459908 100.98442560012336,119.9973762389327 100.91475458777859,119.85558767717703 100.9870060079993,119.62631106551817 100.8502443911857,119.21300515192524 100.8089578653744,118.86606490974737 100.68251788003545,118.73633834443717 100.61800768344256,118.19329050664783 100.47608525090618,117.63514723699336 100.45286158012459,117.40886982815027 100.58446238118631,117.22784660902653 100.32126077906287,117.05285640546936 100.38319056780892,116.83260858927497 100.36770812062605,116.65761596157245 100.14321263645252,116.49770796669873 100.03741591403377,116.36193632409777 99.9471016387979,115.75548176495067 99.82582246918173,115.39944770936563 99.83356369276589,115.29082626540367 99.43618088171934,114.36752729184991 99.36650986937457,114.09898047682327 99.33296456716198,114.12311961979867 99.30974089639494,114.04768473017248 99.28135640987603,114.08087610619077 99.33038415930059,114.01751071846775 99.32264293570188,113.8002568918746 99.14717520095292,113.42609364469354 99.08008459648408,113.06701300953864 99.15749683239846,112.80147148083415 98.93042094036355,111.66383944562585 98.98977032123366,111.41940860264185 98.88139319095353,111.20515268377312 98.96654665046663,110.57142857142935" stroke="#ff8100" stroke-dasharray="none" stroke-linecap="round" stroke-linejoin="round" stroke-width="0.5"><title>2025-10-27 22.6km</title><desc>1761522564000</desc></polyline><polyline fill="none" opacity="1" points="172.42328519345028,110.9437719778216 172.80860161944292,111.66066456322369 173.28905790374847,113.67235758968673 173.32711384704453,114.7615295201067 173.26527293917025,115.50615452408601 172.8371435769368,117.30099097931452 172.86568553440156,117.56215404110844 172.71346176115912,117.95667451165355 172.4137712075899,117.97890092922535 172.03796876742854,118.80127179393457 172.23300547691179,118.98463652214195 172.05223974617547,119.32913822687624 171.16268207132816,120.8571428571413 172.2234914910514,118.99574951548493 172.01418380287942,118.79571527705775 172.3947432359564,117.99557073625328 172.4470701580285,117.94556129935881 172.62783588873572,118.00112733742208 172.72773273990606,117.9177782583829 173.1320771375904,116.20631471194429 173.27954391791718,115.20608302620894 173.27478692500154,113.66680053235905 172.794330640696,111.69956543242006 172.3947432359564,110.92709994125835 172.71821875410387,110.57142857142753" stroke="#4dd2ff" stroke-dasharray="none" stroke-linecap="round" stroke-linejoin="round" stroke-width="0.5"><title>2025-10-19 14.0km</title><desc>1760852519000</desc></polyline><polyline fill="none" opacity="1" points="125.08936992369127,125.49450123893985 125.12584910090663,126.35210867139904 124.95713290624553,127.77431997815802 124.5467421625799,129.45215827138964 124.4373046309338,129.5373803175935 124.28682802489493,129.4681374159918 124.22754936190904,129.5267275696715 123.87643728117109,130.28839338822945 124.05883316727704,130.49079216538667 123.03741620518849,132.28571428571377 123.8217185153917,130.9541757881525 123.99499460714287,130.5334023309988 124.24578895053128,130.3256774343754 124.09075244734413,130.48546589216494 123.89467686979333,130.37361402475653 123.87187738405191,130.28839338822945 124.25946864197613,129.4681374159918 124.44186452808208,129.5214011948774 124.5467421625799,129.4468318887375 124.92521362620755,127.85954485306866 125.1076095123135,126.43200924394841 125.07569023221731,125.45188682551452 124.60602082556579,123.45962289147064 124.23666915620561,122.74579798572086 124.5193827796611,122.44215299137068 124.83401568315458,122.23439483871698 124.7428177401307,122.0" stroke="#4dd2ff" stroke-dasharray="none" stroke-linecap="round" stroke-linejoin="round" stroke-width="0.5"><title>2025-10-07 14.0km</title><desc>1759810688000</desc></polyline><polyline fill="none" opacity="1" points="50.57799603015883,156.28571428571013 51.64953766192775,158.3519655054115 52.86309083516244,163.2686185041821 53.09547335765092,166.5714285714348" stroke="#4dd2ff" stroke-dasharray="none" stroke-linecap="round" stroke-linejoin="round" stroke-width="0.5"><title>2025-06-29 12.0km</title><desc>1751152499000</desc></polyline><polyline fill="none" opacity="1" points="105.14285714284051,158.51363946517813 105.11363636361784,159.10007033138027 104.95779220777331,159.20255274007286 104.69480519479839,159.16839195885404 104.56818181817653,159.23671349965298 104.06655844155466,159.8402166802589 103.51136363638216,160.7796185561274 102.37175324675627,161.63360604735135 102.13798701300402,161.9808904220772 101.65097402597894,161.8214814788371 100.76461038959678,162.27693435108813 100.38474025973119,162.40218321598877 100.29220779216848,162.30540002777707 100.07305194804212,162.37941071675232 99.94155844155466,162.44203506649137 99.91233766233199,162.58436286335564 99.11850649348344,162.94302724397858 98.81655844155466,162.93164110984435 98.1201298701344,163.1650563783587 97.76948051949148,163.18213550464498 97.11201298699598,163.39277761704943 96.83928571428987,163.64896286020303 96.26948051949148,163.70589274882877 95.74837662337814,164.1100932284171 95.4025974025717,164.20118024180192 95.18344155844534,164.13286499619062 95.05681818179437,164.34350339196317 94.85714285713038,164.24103076174288" stroke="#4dd2ff" stroke-dasharray="none" stroke-linecap="round" stroke-linejoin="round" stroke-width="0.5"><title>2025-06-22 15.1km</title><desc>1750548259000</desc></polyline><polyline fill="none" opacity="1" points="122.88340358407004,179.14285714286234 123.05600167709053,179.38352051743277 122.94314907779335,180.299586785688 123.50741207427927,182.89245811340516 123.31489881666494,183.77742914838745 123.49413529786398,184.6158129145333 124.02520635339897,185.69482977454754 123.92563053051708,186.24597614916274 124.05175990617136,186.25373874459183 124.11150539995288,186.67291767846473 125.27986172205419,189.42857142857247 124.36376415126142,187.39483134041075 124.11150539995288,186.50214136483555 124.02520635339897,186.56424188848905 123.95882247146801,186.261501339206 123.86588503676467,186.2304509558453 124.00529118883424,186.261501339206 124.24427316378569,185.93547165852215 123.81941631939844,186.09072406808264 123.6401798381412,186.0286231436694 123.95882247146801,185.7181177333041 123.46094335691305,184.63133844949334 123.31489881666494,183.81624342312716 123.49413529786398,182.8536433499903" stroke="#4dd2ff" stroke-dasharray="none" stroke-linecap="round" stroke-linejoin="round" stroke-width="0.5"><title>2025-04-13 17.0km</title><desc>1744513358000</desc></polyline><polyline fill="none" opacity="1" points="137.26285531616304,179.14285714286962 137.6552531955531,180.66138541474356 135.98756220855284,181.66418245233945 134.5896447636187,183.32595225435216 136.64973362989258,187.10787324028206 137.18928071379196,189.42857142857974" stroke="#4dd2ff" stroke-dasharray="none" stroke-linecap="round" stroke-linejoin="round" stroke-width="0.5"><title>2025-04-12 10.0km</title><desc>1744429372000</desc></polyline><polyline fill="none" opacity="1" points="36.29292435536627,216.91465722022258 35.54613222531043,216.94167107942485 35.16118782843114,217.35588251249283 34.65306122449692,217.55398291959136 34.85323231088114,218.09425441197527 36.99352315775468,217.7430783322925 38.25614077967475,217.36488708647084 38.04827080530231,216.37437823472283 37.632530856644735,216.37437823472283 37.18599535620888,216.68954139335256 36.493095441750484,216.89664797599107 37.87119638273725,216.33835951367655 38.15605523643899,216.6805367479028 38.37932298667147,217.31986420707835 39.511059513664804,216.8516248487722 40.296346083370736,216.8606294761339 40.63509715264081,216.6535228057619 42.33655138700851,216.221298564873 42.53672247342183,216.0592139082437 42.35964805085678,215.55494855661527 42.42893804231426,215.40186741184152 43.92252230233862,215.30281475959055 44.30746669927612,215.4558960826398 44.85408774288953,215.42888175154803 44.93877551020705,215.7080294258194 44.692411096184514,216.76157852280448 44.77709886353114,217.94117783755792 43.5298790174711,218.4184156601841 43.62996456067776,219.06673445030174 43.460589026042726,219.21080462147802 43.03715018942603,219.43591377541452 42.498228033742635,219.41790506502002 41.45117927409592,219.70604397373972 41.15862153246417,219.192795863426 39.53415617745486,219.68803532057063 39.1646095564065,219.5709789818211 38.51020408162731,219.82310012661037 38.525601857487345,219.96716901671607 38.417817426350666,219.85911737200513 38.24074300378561,220.2913231272032 37.978980813903036,220.42638697531947 37.93278748620651,220.3003273904178 37.955884150083875,220.42638697531947 37.62483196868561,220.30933165265742 37.278382011456415,219.96716901671607 36.28522546743625,220.12024194503465 36.08505438102293,220.2823188630282 37.26298423559638,221.19174473053135 37.978980813903036,221.05668209764553 38.35622632285231,221.6059354675017 38.8566540388274,221.8400423832718 39.22620065990486,221.7590054468601 39.49566173774656,221.50689003996376 39.849810582905775,221.6059354675017 39.926799462293275,221.3628237576777" stroke="#4dd2ff" stroke-dasharray="none" stroke-linecap="round" stroke-linejoin="round" stroke-width="0.5"><title>2025-01-25 14.8km</title><desc>1737764447000</desc></polyline><polyline fill="none" opacity="1" points="189.42857142857974,217.4890719793766 189.2318817290943,218.04378322446428 189.39386148162885,218.55790369343595 189.20874176442157,218.86908086796757 189.27816165838158,219.31555114375078 188.8847822593525,219.65378516347846 187.4963843805017,219.55907972811838 186.7327655471745,219.32908052168204 186.46665595372906,219.07202209564275 185.33279768598732,219.09908090166573 184.93941828701645,219.41025675942365 183.99067973648198,219.4779035848478 183.2849108147202,219.4779035848478 183.03037120361114,219.26143361756112 180.49654507474042,219.36966864702117 179.1428571428405,219.1667278916575" stroke="#4dd2ff" stroke-dasharray="none" stroke-linecap="round" stroke-linejoin="round" stroke-width="0.5"><title>2024-10-28 17.0km</title><desc>1730088256000</desc></polyline><polyline fill="none" opacity="1" points="167.10204081633128,238.9877609016221 167.21874101752474,239.03434371516778 167.39580339175882,239.2532823038673 167.70566254669393,239.3371308477508 168.2086806553416,239.1321674693354 168.22477723483462,239.3371308477508 168.30526013221242,239.2998648472094 168.37769473985827,239.379055062087 168.256970393777,239.5607262138583 168.3535498706624,239.57935911174718 168.2931876976072,239.84021888561983 168.45817763726518,240.16163334850353 168.7680367921712,240.34330139444864 170.20868065535615,239.44892866733426 170.25697039379156,239.53743508086336 169.9189422247582,239.993939127693 169.7539522851439,240.11505168211443 169.71371083644044,240.32466880753782 169.63725208392134,240.3945409693697 169.65334866338526,240.88364311609985 170.00747341189708,241.86648972421608 169.8626041966054,242.07144086047992 170.00747341189708,241.89443766045224 170.15636677206203,241.9829393459986 170.30526013222698,241.77332981350992 170.32940500142286,242.1832320026333 170.66743317044165,242.27173312992818 171.15435469963995,242.80273630106603 171.41592411611055,242.89589411714405 171.68956596723,243.3057862560563 171.84248347225366,243.36633819276904 172.04771486060054,243.57128261513208 172.40183960908325,243.50607312571083 172.50646737568604,243.5526513419136 172.8565679792955,243.86938195552284 173.21874101752474,243.59457169599045 173.54067260706506,243.6737544823045 173.7257832710602,243.46415269059798 174.43403276805475,243.51538877273197 174.5789019833319,243.45017920370447 175.02155791892437,243.54799352241753 175.4159241161251,243.42689004940257 175.54067260706506,243.5619669794687 175.61713135958416,243.82746185305223 176.03564242598077,243.42689004940257 176.15234262718877,243.487441825946 176.33342914631066,243.19865571032642 176.50646737568604,243.09618277984555 176.47829836160236,242.76081522199456 176.95314745616633,242.7375257170388 177.28312733543862,242.80739419636302 177.3877551020414,242.27173312992818 177.27910319059447,242.1832320026333 177.34348950847925,242.12733646567722 177.33141707387404,242.00157125800615" stroke="#4dd2ff" stroke-dasharray="none" stroke-linecap="round" stroke-linejoin="round" stroke-width="0.5"><title>2024-05-25 14.8km</title><desc>1716598951000</desc></polyline><polyline fill="none" opacity="1" points="73.77008524932899,256.62588884914294 80.08473262703046,254.03726414375706 80.99612503219396,250.76340190978954 78.0666494446341,249.08839686511783 71.68690260918811,251.6009029696579 70.84060966176912,255.02703351335367 73.70498579181731,256.62588884914294 80.08473262703046,254.03726414375706 80.99612503219396,250.76340190978954 78.00154998688959,249.08839686511783 71.68690260918811,251.6009029696579 70.84060966176912,255.02703351335367 73.70498579181731,256.62588884914294 80.08473262703046,254.11340029764688 81.06122448970564,250.9918113864842 78.0666494446341,249.08839686511783 71.68690260918811,251.67703938105842 70.77551020402461,254.95089745649602 73.77008524932899,256.62588884914294 80.08473262703046,254.11340029764688 81.06122448970564,250.9918113864842 78.13174890191294,249.08839686511783 71.68690260918811,251.6009029696579 70.77551020402461,254.87476139125647 73.70498579181731,256.62588884914294 80.08473262703046,254.11340029764688 80.99612503219396,250.76340190978954 78.0666494446341,249.08839686511783 71.75200206669979,251.6009029696579" stroke="#4dd2ff" stroke-dasharray="none" stroke-linecap="round" stroke-linejoin="round" stroke-width="0.5"><title>2024-05-07 10.0km</title><desc>1715083186000</desc></polyline><polyline fill="none" opacity="1" points="126.54275221959688,256.12988169147866 126.05052830604836,249.15285650250735 123.77399270725437,247.71428571426077 121.62051308644004,249.65635556011694 122.0512090108823,256.34566483524395 124.4508005878888,258.0 126.54275221959688,256.12988169147866 126.05052830604836,249.22478496207623 123.6509367285762,247.71428571426077 121.62051308644004,249.65635556011694 122.11273699975573,256.48952022677986 124.7584405336529,257.9280724677956 126.54275221959688,256.0579539615428 126.05052830604836,249.15285650250735 123.77399270725437,247.71428571426077 121.62051308644004,249.58442714618286 122.11273699975573,256.4175925348536 124.38927259854972,258.0 126.54275221959688,256.12988169147866 126.05052830604836,249.22478496207623 123.77399270725437,247.71428571426077 121.62051308644004,249.65635556011694 122.11273699975573,256.48952022677986 124.38927259854972,258.0 126.54275221959688,256.2018094137311 126.05052830604836,249.22478496207623 123.71246471791528,247.71428571426077 121.62051308644004,249.65635556011694 122.11273699975573,256.4175925348536 124.51232857676223,258.0 126.54275221959688,256.12988169147866 126.05052830604836,249.15285650250735 123.77399270725437,247.71428571426077 121.62051308644004,249.65635556011694 122.11273699975573,256.5614479109645" stroke="#4dd2ff" stroke-dasharray="none" stroke-linecap="round" stroke-linejoin="round" stroke-width="0.5"><title>2024-04-18 10.1km</title><desc>1713436846000</desc></polyline><polyline fill="none" opacity="1" points="143.02040816325461,253.3928758232505 145.12941176467575,253.63547067123 148.91524609841872,252.68530575708428 150.09075630246662,253.04919926129514 151.78487394959666,253.06941554674995 153.30612244899385,252.07881504305988" stroke="#4dd2ff" stroke-dasharray="none" stroke-linecap="round" stroke-linejoin="round" stroke-width="0.5"><title>2024-04-07 10.0km</title><desc>1712456610000</desc></polyline><polyline fill="none" opacity="1" points="20.248120300704613,264.8397154547274 20.789473684038967,262.6237469181651 19.436090225353837,260.80348213529214 16.99999999953434,260.6451980317361 10.571428571362048,264.04829887417145 10.84210526314564,267.1348188010161 13.751879699295387,268.0053733998793 20.045112781925127,265.1562818523962 20.857142857275903,263.17773966799723 20.180451127700508,261.3574762339704 17.338345864554867,260.5660559675307 10.977443609153852,263.49430676933844 10.70676691713743,266.89739464374725 14.022556390846148,267.92623211460887 20.045112781925127,265.1562818523962 20.383458646479994,261.59490215062397 17.676691729109734,260.4869138947688 10.84210526314564,263.7317320074071 10.571428571362048,266.81825324124657 13.684210526291281,268.08451467665145 20.180451127700508,264.9979986703256 20.180451127700508,261.43661821464775 17.406015037558973,260.5660559675307 10.774436090374365,263.7317320074071 10.639097744133323,266.81825324124657 13.684210526291281,268.08451467665145 19.97744360868819,265.23542343091685 20.383458646479994,261.6740441060392 17.676691729109734,260.4869138947688 11.045112781925127,263.49430676933844 10.571428571362048,266.81825324124657 13.684210526291281,268.08451467665145 20.045112781925127,265.1562818523962 20.45112781925127,261.7531860532472 17.60902255610563,260.4869138947688 11.045112781925127,263.49430676933844 10.571428571362048,266.65997041075025 13.345864661503583,268.08451467665145 20.045112781925127,265.1562818523962 20.248120300704613,261.5157601869432 17.406015037558973,260.5660559675307 10.977443609153852,263.57344852376264 10.639097744133323,266.89739464374725 13.751879699295387,268.0053733998793 19.909774435916916,265.23542343091685 20.45112781925127,261.83232799184043 17.812030075117946,260.4869138947688 11.045112781925127,263.49430676933844 10.639097744133323,266.81825324124657 13.413533834507689,268.08451467665145 20.045112781925127,265.1562818523962 20.45112781925127,261.7531860532472 17.541353383334354,260.4869138947688 10.774436090374365,263.7317320074071 10.70676691713743,266.9765360377496 13.616541353287175,268.08451467665145" stroke="#4dd2ff" stroke-dasharray="none" stroke-linecap="round" stroke-linejoin="round" stroke-width="0.5"><title>2024-03-26 10.6km</title><desc>1711453549000</desc></polyline><polyline fill="none" opacity="1" points="94.85714285715949,266.8727890170121 94.98354180378374,266.54016973578837 97.36932192224776,265.28360228668316 98.00131665560184,265.30208128526283 99.43910467415117,264.5629198152019 100.00789993413491,263.9900675230456 99.84990125079639,263.380254952659 100.82949308754178,263.0106705398939 101.39828834752552,262.45629245335294 105.14285714284051,261.6986395544227" stroke="#4dd2ff" stroke-dasharray="none" stroke-linecap="round" stroke-linejoin="round" stroke-width="0.5"><title>2024-01-30 11.7km</title><desc>1706613736000</desc></polyline><polyline fill="none" opacity="1" points="111.18407265556743,259.32286217493674 111.40108424503705,259.5240434993975 112.11089298562729,259.4816896039083 112.45901574371965,259.7093413684561 112.66246410887106,259.7146355831428 112.8568703244091,259.57169158873876 112.98798149309005,259.60345695630167 113.033192240895,259.3334506859719 113.04675546524231,259.58228004684497 113.41296252247412,259.3705104568435 113.96001257092576,259.2381540056267 113.9916600943834,259.1587399659802 114.10920803868794,259.14285714285506 114.21319275864516,259.3599219536918 114.00522331873071,260.07993503750185 113.84246462662122,260.2334658922082 113.61188981280429,260.26523083752545 113.42652574682143,260.4928790191261 113.32706210162723,260.5034672813272 113.34514640076668,260.720526159821 113.28185135382228,260.8158200026701 113.09196621301817,261.03817159333266 112.92016537138261,261.1069945034833 113.00154471740825,261.2711102898902 112.2646095281525,261.60463425353373 112.0882876116957,261.86404023616706 111.64974335799343,261.95403791436183 111.64522228320129,262.20285417805644 111.41012639462133,262.46225704396784 110.98062429041602,262.36696635231783 110.26629447509185,262.4251995744344 109.99955106299603,262.55225364087164 110.13066223164788,262.76400969779934 110.02667751169065,263.1769314185767 109.71924442661111,263.38868481888494 109.71924442661111,263.8121889180293 110.08545148384292,263.6322001160079 110.30246307334164,263.7327821737963 110.58276970972656,264.0980521487545 110.80430237398832,264.1351083733207 111.00775073911063,264.0609958966015 111.11173545906786,264.41038232110077 111.52315326413373,264.6485989323046 111.51411111457855,264.8444650700294 111.6587855075486,264.8762270738298 111.63165905888309,265.1144414565606 111.85319172314485,265.37912276757925 111.93909214396263,265.36324192857865 111.99786611608579,265.4479396779934 112.00238719087793,265.81319707223884 111.77633345185313,266.3319638393077 111.73564377884031,266.71309516346446 111.89388139615767,266.71838863353696 112.23748307948699,267.0254089352966 112.37311532290187,267.4806424507333 112.35503102376242,267.8988184086229 112.63081658538431,268.51284256633517 112.56300046370598,268.87807748349223 112.86591247399338,269.42857142857247 113.22307738167001,269.12156594035696 113.34966747552971,267.5282829269563 113.77012743015075,267.2477327999077 114.18606630995055,266.8083775387604 114.11825018827221,266.6495734786513 113.99618116917554,266.67074738259544 114.10920803868794,266.6442800012701 114.07303944043815,266.2949092494455 114.36238822643645,266.11492942077166 114.05495514132781,265.8343713317736 113.77916957970592,265.3685355421294 114.05495514132781,264.6009557012294 114.03234976739623,264.35744514162434 114.19962953432696,264.25686434559975 114.24936135689495,264.3150953575423 114.19510845953482,264.3098016319891 114.21319275864516,264.172164570311" stroke="#4dd2ff" stroke-dasharray="none" stroke-linecap="round" stroke-linejoin="round" stroke-width="0.5"><title>2024-01-27 16.6km</title><desc>1706316843000</desc></polyline><polyline fill="none" opacity="1" points="124.32268765498884,269.35812187060947 126.67297392198816,267.4559809882194 126.25112766888924,260.76321992464364 124.02136890287511,259.1428571428987 121.49029138428159,261.3268234473071 121.97240138798952,267.5968804989243 124.68427015771158,269.35812187060947 126.67297392198816,267.24463166616624 126.13060016813688,260.4814179847599 123.72005015052855,259.1428571428987 121.49029138428159,261.18592261109734 122.03266513813287,268.09002855198923 124.4432151557412,269.35812187060947 126.67297392198816,267.38553122163285 126.25112766888924,260.76321992464364 123.65978639991954,259.1428571428987 121.55055513465777,261.0450217454927 121.97240138798952,267.87867943116 124.62400640710257,269.35812187060947 126.67297392198816,267.24463166616624 126.13060016813688,260.692769450834 123.9611051522661,259.1428571428987 121.55055513465777,260.9745713014854 121.91213763738051,267.5968804989243 124.26242390437983,269.2876723049558 126.67297392198816,267.1741818774026 126.13060016813688,260.6223189695156 123.84057765151374,259.2133077806211 121.49029138428159,261.25637303304393 121.8518738867715,267.6673302431591 124.26242390437983,269.42857142857974 126.61271017161198,267.4559809882194 126.01007266715169,260.6223189695156 123.65978639991954,259.2837584107183 121.49029138428159,261.3972738540033 121.97240138798952,267.87867943116 124.38295140559785,269.2876723049558" stroke="#4dd2ff" stroke-dasharray="none" stroke-linecap="round" stroke-linejoin="round" stroke-width="0.5"><title>2024-01-25 10.3km</title><desc>1706155972000</desc></polyline></svg>