<?xml version="1.0" encoding="utf-8" ?>
<svg baseProfile="full" height="300mm" version="1.1" viewBox="0,0,200,300" width="200mm" xmlns="http://www.w3.org/2000/svg" xmlns:ev="http://www.w3.org/2001/xml-events" xmlns:xlink="http://www.w3.org/1999/xlink"><defs /><rect fill="#222222" height="300" width="200" x="0" y="0" /><text fill="#FFFFFF" style="font-size:12px; font-family:-apple-system, BlinkMacSystemFont, 'Segoe UI', Roboto, 'Helvetica Neue', Arial, sans-serif; font-weight:bold;" x="10" y="20">Over 3km Runs</text><text fill="#FFFFFF" style="font-size:4px; font-family:-apple-system, BlinkMacSystemFont, 'Segoe UI', Roboto, 'Helvetica Neue', Arial, sans-serif;" x="10" y="280">Runner</text><text fill="#FFFFFF" style="font-size:9px; font-family:-apple-system, BlinkMacSystemFont, 'Segoe UI', Roboto, 'Helvetica Neue', Arial, sans-serif;" x="10" y="290">Hannah YAN</text><text fill="#FFFFFF" style="font-size:4px; font-family:-apple-system, BlinkMacSystemFont, 'Segoe UI', Roboto, 'Helvetica Neue', Arial, sans-serif;" x="65" y="280">SPECIAL TRACKS</text><rect fill="yellow" height="2.6" width="2.6" x="65" y="283" /><text fill="#FFFFFF" style="font-size:3px; font-family:-apple-system, BlinkMacSystemFont, 'Segoe UI', Roboto, 'Helvetica Neue', Arial, sans-serif;" x="70" y="285.5">Over 20.0 km</text><rect fill="red" height="2.6" width="2.6" x="65" y="287" /><text fill="#FFFFFF" style="font-size:3px; font-family:-apple-system, BlinkMacSystemFont, 'Segoe UI', Roboto, 'Helvetica Neue', Arial, sans-serif;" x="70" y="289.5">Over 40.0 km</text><text fill="#FFFFFF" style="font-size:4px; font-family:-apple-system, BlinkMacSystemFont, 'Segoe UI', Roboto, 'Helvetica Neue', Arial, sans-serif;" x="120" y="280">STATISTICS</text><text fill="#FFFFFF" style="font-size:3px; font-family:-apple-system, BlinkMacSystemFont, 'Segoe UI', Roboto, 'Helvetica Neue', Arial, sans-serif;" x="120" y="285">Number: 306</text><text fill="#FFFFFF" style="font-size:3px; font-family:-apple-system, BlinkMacSystemFont, 'Segoe UI', Roboto, 'Helvetica Neue', Arial, sans-serif;" x="120" y="290">Weekly: 2.8</text><text fill="#FFFFFF" style="font-size:3px; font-family:-apple-system, BlinkMacSystemFont, 'Segoe UI', Roboto, 'Helvetica Neue', Arial, sans-serif;" x="141" y="285">Total: 2674.1 km</text><text fill="#FFFFFF" style="font-size:3px; font-family:-apple-system, BlinkMacSystemFont, 'Segoe UI', Roboto, 'Helvetica Neue', Arial, sans-serif;" x="141" y="290">Avg: 8.7 km</text><text fill="#FFFFFF" style="font-size:3px; font-family:-apple-system, BlinkMacSystemFont, 'Segoe UI', Roboto, 'Helvetica Neue', Arial, sans-serif;" x="167" y="285">Min: 3.0 km</text><text fill="#FFFFFF" style="font-size:3px; font-family:-apple-system, BlinkMacSystemFont, 'Segoe UI', Roboto, 'Helvetica Neue', Arial, sans-serif;" x="167" y="290">Max: 42.8 km</text><polyline fill="none" opacity="1" points="10.781536012713332,35.133638533981866 10.571428571420256,36.373202781578584 13.169120572973043,36.99856300501415 14.2960604854743,33.96106436425907 14.286510147212539,32.676801520945446 14.095503382384777,32.576293334932416 11.555113410227932,32.75497448837996 11.411858336592559,33.815887608681805 10.743334659724496,35.22297698442708 10.609629924350884,36.39553713906935 16.85555113409646,37.88076130760601 17.247115002013743,38.1264354721352 17.94428969360888,38.182270429802884 20.150417827244382,39.00862435105955 20.85714285710128,38.96395673687948 20.475129327503964,36.39553713906935 20.245921209687367,35.92651463990478 17.132510943047237,37.132568285262096 16.874651810561772,37.065565666387556 17.09430959011661,35.35698451833741 17.0274572224007,32.598628495623416 16.903302825288847,32.419947077512916 11.564663748489693,32.743806925158424 11.526462395500857,33.469696078114794 10.857938718632795,34.966128735664824 10.571428571420256,36.35086841938755 13.083167528791819,37.0208972301989 13.264623955416027,36.88689180822985 14.17190608830424,34.44126297982439 14.305610823677853,32.66563394945115 13.656187823275104,32.576293334932416 11.574214086751454,32.72147179514286 11.507361719035544,33.61487330978707 10.81973736564396,35.1224712223775 10.58097890962381,36.35086841938755 13.216872264165431,36.9762287751073 14.276959808950778,34.10624092024227 14.305610823677853,32.72147179514286 14.17190608830424,32.56512575276429 11.574214086751454,32.73263936075091 11.48826104257023,33.67071065342316 10.89614007162163,34.82095336211205 10.59052924788557,36.261530923322425 10.915240748086944,36.47370735301956 16.588141663349234,37.858427264363854 16.826900119369384,37.46758074182435 17.09430959011661,35.28998077264259" stroke="#4dd2ff" stroke-dasharray="none" stroke-linecap="round" stroke-linejoin="round" stroke-width="0.5"><title>2026-07-09 10.0km</title><desc>1783598044000</desc></polyline><polyline fill="none" opacity="1" points="27.114965107059106,30.63652856979752 25.333714508917183,31.547927823849022 24.832737778313458,32.980123922694474 25.834691239520907,39.034370587032754 27.671605919022113,40.72694501694059 30.677466303575784,39.1645687854616 29.786841004388407,32.65462510212092 27.448949594283476,30.571428571478464 25.667698995908722,31.157328308850992 24.88840185920708,32.65462510212092 25.779027158394456,39.034370587032754 27.83859816286713,40.79204394062981 30.677466303575784,38.96927147731185 29.786841004388407,32.78482465108391 27.61594183789566,30.571428571478464 24.777073696954176,32.32912610931089 25.667698995908722,39.099469689594116 28.116918568732217,40.85714285715949 29.56418467964977,40.4014502959908 30.733130384935066,38.578676675329916 29.89816916687414,32.65462510212092 28.951879786560312,31.22242824517889 27.170629188185558,30.63652856979752 24.721409615594894,32.78482465108391 26.057347564492375,39.22966787428595 28.172582649625838,40.6618460866157 30.677466303575784,38.578676675329916 29.731176923494786,32.2640262900386 27.114965107059106,30.76672854583012 24.94406594056636,32.39422592159826 25.89035532088019,39.22966787428595 28.005590406246483,40.79204394062981 29.61984876077622,40.4014502959908 30.733130384935066,38.64377582632005 29.61984876077622,32.65462510212092 28.784887542948127,31.22242824517889 27.059301025932655,30.70162856130628 24.777073696954176,32.78482465108391 25.834691239520907,39.1645687854616 28.673559380462393,40.72694501694059 30.399145897710696,39.620262262935285 30.788794466061518,38.05788322020089 29.341528354911134,31.87342722999165 26.502660213969648,30.831828523485456 24.777073696954176,32.84992441511713 25.834691239520907,38.96927147731185 27.059301025932655,40.59674714936409 28.395238974597305,40.6618460866157 30.120825491612777,39.94575739733409 30.733130384935066,38.31828000303358 29.731176923494786,32.2640262900386 26.89230878232047,30.70162856130628 24.777073696954176,32.52442552574212 25.89035532088019,39.42496509948978 28.172582649625838,40.72694501694059 30.733130384935066,38.8390732377884 29.675512842135504,32.39422592159826 26.89230878232047,30.76672854583012 24.94406594056636,32.84992441511713 25.723363077035174,39.1645687854616 28.005590406246483,40.6618460866157 29.89816916687414,39.880658384179696 30.788794466061518,38.38337918149773 29.397192436270416,31.808327362465207 26.94797286344692,30.63652856979752 25.500706752529368,31.287528174521867 24.777073696954176,32.91502417245647" stroke="#4dd2ff" stroke-dasharray="none" stroke-linecap="round" stroke-linejoin="round" stroke-width="0.5"><title>2026-07-08 4.7km</title><desc>1783508969000</desc></polyline><polyline fill="none" opacity="1" points="44.938775510236155,32.450529749825364 44.49157054128591,32.03578881084104 36.19514732435346,32.50462631964183 36.10262215830153,33.89309907007555 35.023161888471805,36.273311759956414 34.65306122449692,38.36498638606281 38.83211455499986,39.3927826177387" stroke="#4dd2ff" stroke-dasharray="none" stroke-linecap="round" stroke-linejoin="round" stroke-width="0.5"><title>2026-07-03 5.0km</title><desc>1783051432000</desc></polyline><polyline fill="none" opacity="1" points="60.48812485253438,40.548339478125854 60.57169058645377,40.345075085737335 60.56166269838286,39.758729226025025 60.19731609847804,39.07464729335334 60.193973469140474,38.99646569439574 60.26751131498895,38.93782938658842 60.38116071312106,38.95737483285848 60.668626837810734,39.17237405935521 61.577822022882174,40.14571853763482 61.76500926686276,40.23562456505897 61.93548336405365,40.22389770433074 62.06584590897546,40.376346603527054 62.339941516242106,40.102719925427664 62.51041561344755,39.821273227797064 62.52044350151846,39.67273105066852 62.80456699685601,39.27010056680956 63.195654631606885,38.82446559422169 63.436323945294134,38.69937410923376 63.38284187557292,38.62510083957386 63.63353907734563,38.10127459163414 63.95777412496682,37.045781228196574 63.94440360754379,36.14663345942972 63.89092153783713,35.994167101853236 63.95443149560015,35.81042475763752 64.47922430462495,35.599315403796936 65.14440754664247,35.09108423173166 65.32156690255215,35.07935573749273 65.36167845486489,34.938613516169426 65.53883781076001,34.71968010565979 65.46864259426366,34.19579846139459 65.14440754664247,33.3747749628601 64.96390556136612,32.72967226374749 65.22797328059096,32.608469892831636 65.85638759967696,32.483357350683946 66.22407682891935,32.47553780272574 66.47143140132539,32.38170309802081 66.60847920496599,32.05327975347609 66.56168239396357,31.720943633295974 66.59176605817629,31.349505605765444 66.50820032424235,30.95851417099766 66.57171028203447,30.782566674344707 66.68535968016658,30.774746766142925 66.89594532964111,30.864675610475388 67.49093335516227,31.318226443352614 67.68814848722832,31.392514410770673 67.83856680827739,31.30649675062523 67.98898512934102,31.02107307883489 68.09929189810646,31.036712789231387 68.19957077881554,30.978063841084804 67.7884273679374,30.903775039681932 67.7282600394974,31.122731077972276 67.61126801201317,31.165740147182078 66.98619632227928,30.696547592997376 66.6786744214478,30.571428571427532 66.5416266178072,30.583158497702243 66.37449514996842,30.684817702735018 66.32769833898055,30.82948608877996 66.41794933160418,31.900796493278904 66.41794933160418,32.07282884385131 66.34775411512237,32.182303558671265 64.98061870815582,32.47944757690857 64.77671831740008,32.6553869868294 64.76669042932917,32.917339665993495 65.30819638512912,34.37954883960629 65.32156690255215,34.692313338084205 64.45582589911646,35.38038591030272 63.74384584612562,35.7126890957079 63.78061476905714,36.822950995334395 63.50986179114261,37.92145192802491 63.195654631606885,38.601646091810835 62.6742044519342,39.13719245337779 62.39008095659665,39.57891463105261 62.226292118109995,39.68836709743482 61.988965433774865,39.98545072867637 61.754981378791854,40.04017640015445 61.317096933038556,39.621913852945 60.63854317359801,38.83619289921626 60.361104936979245,38.74237435498071 59.98004519028473,38.72673790777117 59.62572647846537,38.48437212962381 59.55553126198356,38.589918712361396 59.56555915005447,38.64464645133921 59.91319260316959,38.863556596399576 60.10372247648775,39.28182773032677 60.10706510585442,39.422553402193444 60.300937608553795,39.754820222387934 60.40790174798167,40.27471407396297 60.23074239205744,40.579610823839175 59.662495401411434,40.8571428571413" stroke="#4dd2ff" stroke-dasharray="none" stroke-linecap="round" stroke-linejoin="round" stroke-width="0.5"><title>2026-06-28 15.3km</title><desc>1782609425000</desc></polyline><polyline fill="none" opacity="1" points="85.84978772420436,30.571428571427532 86.09537927809288,30.878036560516193 86.0751936709421,30.960584434309567 85.92716588501935,31.01954708935955 86.11892915313365,31.039201286974276 86.21649292111397,31.26325840727077 86.3241494926915,31.318289774630102 86.20640011754585,31.48731418062016 85.97426563508634,31.64847627245399 86.39143484993838,32.171265578479506 86.34769936773228,32.32063260481664 86.94990331496228,32.98491555049259 87.33679411906633,33.075320006595575 87.40071520843776,33.24826705079613 87.29642290472111,33.311156686126196 87.29642290472111,33.374046215329145 87.55210726220685,33.660978345982585 87.78087747680547,33.5430612993332 87.81115588755347,33.605950437300635 87.70686358383682,33.6924228287462 87.70686358383682,33.786756117926416 87.85489136975957,33.932186137702956 88.02646903070854,33.94397773607125 88.11730426296708,34.010796722985106 88.10384719152353,34.28593246602031 88.3326174061076,34.57285757784848 88.46382385271136,34.631814519096224 88.7598794245423,34.584648973555886 88.75651515669597,34.75365856889039 88.84062185321818,34.85191960930388 88.8944501390215,35.08381463781552 89.36881190750864,35.66158072305916 89.64804614003515,35.520087815777515 89.79270965808246,35.62227719157454 89.84990221173211,35.82272476898652 89.64468187215971,35.928843638383114 89.42264019328286,36.184313751793525 89.75233844373724,36.78564418622773 90.05175828342908,38.184780735333334 90.0618510870263,39.04545944228448 89.94746597972699,39.83930986264022 90.03830121197097,39.97292658871811 89.98447292619676,40.161561151729984 89.85663074745389,40.318755892079935 89.75906697945902,40.68030128051396 89.77925258662435,40.83749383447139 89.85999501530023,40.8571428571413 89.91045903324266,40.802125567595795 89.84990221173211,40.318755892079935 89.97774439047498,40.16942090447992 90.02820840838831,39.97292658871811 89.94410171185154,39.807870563399774 90.06857962273352,38.82930912357915 90.03493694413919,38.157270129402605 89.73215283657191,36.75813254798777 89.40581885397842,36.17645315900518 89.64468187215971,35.90919201868019 89.83980940814945,35.807003429315955 89.77925258662435,35.61048612405284 89.63795333645248,35.520087815777515 89.34862630034331,35.66158072305916 88.8944501390215,35.091675460964325 88.82380051392829,34.84012829812491 88.74642235309875,34.76151946165919 88.74642235309875,34.584648973555886 88.4671881205868,34.63574497853551 88.3326174061076,34.584648973555886 88.10048292364809,34.282001969699195 88.13412560228608,34.08547662544879 88.09039012006542,33.97935250876253 87.86834844120312,33.94004720369776 87.69677078026871,33.782825568981934 87.70349931599048,33.684561710542766 87.82797722685791,33.605950437300635 87.80779161970713,33.539130724682764 87.59920701227384,33.660978345982585 87.53528592288785,33.645256094630895 87.28296583327756,33.33080967539718 87.39398667271598,33.23647523237014 87.31997277976188,33.07138938263233 86.96336038642039,33.000638080349745 86.34433509985683,32.312771197302936 86.37461351061938,32.15947341933497 85.97762990296178,31.652407046476583 86.3241494926915,31.326151391906023 86.21985718898941,31.255396776734415 86.12565768885543,31.047062963123608 85.93053015288024,31.007754565802315 86.06846513520577,30.960584434309567" stroke="#4dd2ff" stroke-dasharray="none" stroke-linecap="round" stroke-linejoin="round" stroke-width="0.5"><title>2026-06-21 12.1km</title><desc>1782018676000</desc></polyline><polyline fill="none" opacity="1" points="101.62724158773199,34.90851552206004 101.55470481564407,35.41743704708642 101.04211162601132,35.8302253919137 100.54402579084854,36.514429189715884 100.27805762641947,36.67275609359422 99.72677815836505,36.537047347541375 99.31090066491743,36.64448346658537 98.8708442474308,36.53139280899268 98.73060648798128,36.604901763639646 98.60487608300173,36.819773513056134 98.43562361472868,36.85935505690213 98.14547652628971,36.69537418442633 97.44428772918764,36.70668322627898 96.83014305864344,37.17600635267081 96.35623614749056,37.10815266146892 96.10961112228688,36.98375400392979 94.92484384443378,37.01768093923238 94.85714285713038,36.77453742704893 95.64537578079035,36.85935505690213 96.05158170461073,36.76322839956629 96.54483175495989,36.9441725521865 96.83497884342796,36.84239154168972 96.85915776743786,36.91590006869956 97.16864799516043,36.57662910072759 97.43461615956039,36.474847390465584 98.1648196655151,36.49746556505124 98.47914567802218,36.67275609359422 98.88051581702894,36.33913814201878 99.29639331047656,36.41830191215195 99.77030022162944,36.32782902242616 100.27322184163495,36.45788375325719 100.70844247430796,35.97159053070936 100.95023171466892,35.41743704708642 101.4241386258218,35.07250187588579 101.5401974612032,34.74452866514548 101.73362885351526,34.55792231948726 102.0624622204341,34.58619605009153 103.14084223250393,34.25256507589802 103.74531533347908,34.36566055469302 105.14285714284051,35.032919008954195" stroke="#4dd2ff" stroke-dasharray="none" stroke-linecap="round" stroke-linejoin="round" stroke-width="0.5"><title>2026-06-18 10.3km</title><desc>1781755773000</desc></polyline><polyline fill="none" opacity="1" points="117.18367346937885,36.044266241540754 116.26835349525209,36.25639402066008 115.57022809123737,36.10908314017797 115.08412595806294,36.27407130269421 112.63810139440466,35.33716838656619 111.62452673376538,35.16628519124788 107.6219410841004,35.154500125881896 106.89795918366872,35.41377104490675" stroke="#4dd2ff" stroke-dasharray="none" stroke-linecap="round" stroke-linejoin="round" stroke-width="0.5"><title>2026-06-15 11.4km</title><desc>1781479179000</desc></polyline><polyline fill="none" opacity="1" points="135.40656120580388,30.571428571427532 136.6308330508764,30.898936043071444 136.25732638628688,31.784414526904584 135.56218898267252,32.18469707832264 134.7840500980965,32.03913994845789 133.90215936221648,32.25747557402792 133.424900846323,31.990620864169614 132.6882627022569,32.08765901226434 132.35625677811913,31.796544321696274 132.47038381453604,31.408390252086974 133.43527603149414,31.238572433743684 134.18228936073137,30.69272774401179 134.90855231962632,30.75337728219165 135.34431009500986,30.571428571427532 136.5789571252535,30.862546370168275 137.36747119494248,30.668467919742397 137.58535008266335,31.080884234521363 136.27807675657095,33.688776608978515 135.7281919447123,36.017635052630794 137.33634563960368,36.74539362408541 139.88864118105266,37.37611398631998 139.59813599748304,39.765542379529506 137.48159823135938,39.2803832790305 137.10809156676987,39.80192922937567 137.36747119494248,40.23857052784297 137.12884193699574,40.46901943235571 136.84871193853905,40.43263279398525 136.76571045751916,40.11728144495282 136.1224489795859,40.177926002434106 134.97080343042035,39.886831834184704 134.54542084014975,40.857142857144936 132.63638677663403,40.52966380400903 133.64277973404387,36.43003214310738" stroke="#4dd2ff" stroke-dasharray="none" stroke-linecap="round" stroke-linejoin="round" stroke-width="0.5"><title>2026-06-11 10.1km</title><desc>1781164397000</desc></polyline><polyline fill="none" opacity="1" points="168.72234156820923,33.958036022657325 169.06068743286596,33.94484657482826 169.36143931257538,33.588729900846374 169.440386680988,33.07433376014524 169.6058002148202,32.84571120861801 169.80504833512532,32.78855537413983 171.06820622985833,32.72260623663533 171.34264232008718,32.885280586422596 171.56444683136942,33.51398897675972 171.98549946294224,33.65907417715425 172.56444683136942,33.56235076651865 172.97798066594987,33.3469205425572 173.44038668100256,33.61510901841393 173.63211600430077,33.60631598109103 173.97798066593532,33.478816730657854 174.28625134265167,33.13148920142339 174.45542427497276,33.21942049601785 174.4704618689575,33.456834061722475 174.70354457573558,33.654677663380426 175.1809881847439,33.025971402246796 175.47422126746096,32.951229465663346 176.50429645543045,33.096316631483205 176.91783028999635,33.66347069047697 176.87647690654558,33.773383372121316 176.92534908700327,34.00639729549221 177.1283566057973,34.463628365672776 177.33136412459135,34.55155684072088 177.3877551020414,34.86809781008924 176.92158968851436,35.096709232566354 176.55692803437705,35.37367907843509 174.95918367347622,37.360773674248776 174.74113856068288,37.558598687304766 174.21482277121686,36.6529920260582 174.10204081633128,36.591445226025826 173.92910848549218,36.6090300353535 173.72610096669814,36.50791728017066 173.6960257787432,36.42878538709556 174.3839957035525,36.0463124460548 174.4215896884998,35.655043380549614 174.49301825993462,35.53194673282269 174.7937701396586,35.75176191934224 174.98925886143115,35.786932241266186 175.53061224491103,35.307734044505196 175.65843179378135,34.98240367856488 175.69978517723212,34.67905279901606 176.29752953813295,34.19984182393455 176.39151450053032,33.97562194656348 176.38775510202686,33.470023664478504 176.32384532761353,33.3645067251673 176.1734693877661,33.30295505347385 175.99677765842353,33.329334352500155 175.61331901181256,33.73381484021593 175.47422126746096,33.72941833435107 175.30128893662186,33.518385505423794 175.34264232007263,33.751400859058776 175.5230934479041,33.94924305790482 176.0381310418743,33.87889927291326 175.6396348012786,34.18665245288139 175.3351235230948,34.24820281529901 175.3351235230948,34.35371751014827 175.04564983888122,34.89887249792082 174.9027926960116,34.92085440385199 174.7073039742245,34.810944757926336 174.4704618689575,34.77137721421968 173.77497314715583,34.986800051839964 173.18098818475846,34.94283629814163 172.8990332975227,35.391264403144305 172.10955961332365,35.83968766833277 172.04189044037776,36.077086261222576 171.76745435016346,36.301294797933224 171.67346938775154,36.56506799811177 171.21482277121686,37.255266615542496 170.99677765843808,37.45309213087239 170.6433941997966,37.61574796017521 170.47046186897205,37.61135186505271 170.29001074115513,37.44429990574281 170.07948442535417,37.40913098662713 169.9704618689575,37.40913098662713 169.7599355531711,37.558598687304766 169.5418904403923,37.61574796017521 169.26745435016346,37.48386490417033 169.000537056927,37.154155432897824 168.99301825994917,36.93874383203729 168.7298603652016,36.798066265444504 168.59828141782782,36.2837098583841 168.3351235230948,36.03312366116006 168.34264232008718,36.481539999233064 168.25617615469673,36.97830931183489 167.9892588614457,37.110193972388515 167.94790547798038,37.031063226291735 167.84640171859064,37.154155432897824 167.78249194416276,37.14096699962465 167.57572502686526,37.29043566486871 167.5569280343916,37.228889809000975 167.3839957035525,37.32120855862013 167.31256713213224,37.25966274833263 167.24113856068288,37.33879305911614 167.32760472610244,37.475072685549094 167.65091299678897,37.54541038240495 167.78625134263712,37.778403152809915 167.51181525242282,38.35868135552664 167.10204081633128,38.31911719000345 167.2599355531711,38.58287758193546 167.47798066594987,38.7059651919335" stroke="#ff8800" stroke-dasharray="none" stroke-linecap="round" stroke-linejoin="round" stroke-width="0.5"><title>2026-06-06 21.6km</title><desc>1780740439000</desc></polyline><polyline fill="none" opacity="1" points="25.49348878674209,42.0 30.01671529468149,52.285714285681024" stroke="#4dd2ff" stroke-dasharray="none" stroke-linecap="round" stroke-linejoin="round" stroke-width="0.5"><title>2026-06-01 10.0km</title><desc>1780286606000</desc></polyline><polyline fill="none" opacity="1" points="49.49823167815339,52.285714285713766 49.69081427945639,52.01224212676607 49.759593779890565,51.73340624908451 50.20436788292136,51.08457067160634 50.69040968615445,50.56978612098828 51.01138068831642,50.40355249276399 50.9380158878339,50.29094230571718 51.291083990217885,49.54556380461872 51.73585809319047,48.103037574685004 51.66249329270795,47.10557906272879 51.71293159306515,46.88570653409988 51.63956679258263,46.63365636389426 51.69459039292997,46.44059581091642 52.49243259828654,46.10810091166786 53.363639604183845,45.45383038288128 53.62041640590178,45.41629001423644 53.6433429060271,45.21249895617075 53.90470500779338,44.90681083179879 53.87719320761971,44.44559367916008 53.19398350303527,42.61677269863867 53.1160334025044,42.18235097119032 53.290274803643115,42.08581230353229 53.86802260755212,42.0 53.87260790760047,42.18235097119032 53.46451620484004,42.300342426256975 53.45534560477245,42.45051297148893 53.767146006866824,42.61677269863867 53.95514330815058,42.61677269863867 54.175237709627254,42.52559807713624 53.895534407754894,42.19307747847779" stroke="#4dd2ff" stroke-dasharray="none" stroke-linecap="round" stroke-linejoin="round" stroke-width="0.5"><title>2026-05-23 13.0km</title><desc>1779516917000</desc></polyline><polyline fill="none" opacity="1" points="69.02040816325461,47.38191611887305 67.16761724557728,48.48149747765274 61.500256791419815,49.501391844052705 60.669225571036804,49.32609799182683 60.12428706581704,49.102996430010535 59.67471279902384,48.52930518050562 59.129774293804076,45.38990043688682 58.73469387757359,44.78432244165742" stroke="#4dd2ff" stroke-dasharray="none" stroke-linecap="round" stroke-linejoin="round" stroke-width="0.5"><title>2026-05-17 11.1km</title><desc>1779003218000</desc></polyline><polyline fill="none" opacity="1" points="93.10204081702977,48.450347299454734 82.81632653065026,45.83536698599346" stroke="#4dd2ff" stroke-dasharray="none" stroke-linecap="round" stroke-linejoin="round" stroke-width="0.5"><title>2026-05-12 8.1km</title><desc>1778560494000</desc></polyline><polyline fill="none" opacity="1" points="117.18367346940795,52.12187157882727 115.57699985103682,51.3666980980197 114.57095188443782,50.34808656174573 112.36365261435276,47.22196382662514 111.25249515863834,46.11551301188592 106.94300610752543,42.97174740348419 107.31839713983936,42.49754294990271 108.98513332341099,42.16384270688286 111.31255772378063,44.88611456133367 114.6910770147806,47.30977706721751 114.6910770147806,47.625904348446056 113.26459109195275,48.45134496469109 111.25249515863834,46.11551301188592 107.78388201992493,43.67427002781187 106.9580217487528,42.989310505319736 106.9580217487528,42.72586378199048 109.00014896463836,42.19896907986549 111.41766721277963,45.02661770256236 114.45082675403683,47.01121185951342 114.72110829735175,47.643466957553755 113.56490391778061,48.41621991577267 113.15948160289554,48.34596979554044 111.23747951729456,46.15063854800246 106.94300610752543,42.97174740348419 107.1231938029523,42.602921834550216 109.06021152983885,42.2340954454703 111.37262028898112,44.97392903848959 110.83205720240949,45.72913162357872 107.99410099803936,43.849900218920084 106.89795918366872,42.97174740348419 106.9580217487528,42.69073752059194 109.01516460592393,42.21653226359922 111.08732310443884,44.60510792174318" stroke="#4dd2ff" stroke-dasharray="none" stroke-linecap="round" stroke-linejoin="round" stroke-width="0.5"><title>2026-05-10 15.1km</title><desc>1778395698000</desc></polyline><polyline fill="none" opacity="1" points="119.10204081656411,45.583218325220514 120.35374149680138,48.51152024412295 129.2244897959754,48.70249596051872 119.91836734721437,48.44786165835103 118.93877551029436,45.71053609641967" stroke="#4dd2ff" stroke-dasharray="none" stroke-linecap="round" stroke-linejoin="round" stroke-width="0.5"><title>2026-05-09 10.3km</title><desc>1778316787000</desc></polyline><polyline fill="none" opacity="1" points="173.66902675008168,52.28571428571013 172.7757862067083,49.66507851808274 172.47242149384692,47.14292809693143 171.69715611659922,46.41386263204913 171.34323061822215,44.955723146384116 171.29266983282287,42.965541383164236 170.8207691683201,42.0" stroke="#4dd2ff" stroke-dasharray="none" stroke-linecap="round" stroke-linejoin="round" stroke-width="0.5"><title>2026-05-02 12.6km</title><desc>1777678663000</desc></polyline><polyline fill="none" opacity="1" points="179.14285714286962,46.401727506112366 179.31084950687364,47.08928637336794 179.6086541521363,47.232155045552645 181.4718421889993,46.499950544326566 181.61692650339683,46.321363117036526 184.19026407893398,46.22313987099187 184.1673560292984,46.491021181944234 185.1524021635414,46.58031476334145 185.87782373532536,47.04463986369956 187.12249443211476,47.178579321822326 189.42857142860885,48.06257441472553" stroke="#4dd2ff" stroke-dasharray="none" stroke-linecap="round" stroke-linejoin="round" stroke-width="0.5"><title>2026-04-26 11.2km</title><desc>1777162036000</desc></polyline><polyline fill="none" opacity="1" points="94.97683302090445,59.74960007608752 95.1449085700151,59.61257445501724 95.8655961517943,59.302774937770664 95.90888833868667,59.317669223419216 95.9801931171096,59.45767512295606 96.07696388779732,59.44278091146043 96.25522583382553,59.50533654676656 97.05995119016734,59.445759754387836 97.16945495702385,59.47256932657547 97.73989318429085,59.45767512295606 97.88250274112215,59.53512489562854 98.06585788560915,59.54704022633996 98.12188306865573,59.53810372878252 98.15244225939387,59.454696281289216 98.30523821312818,59.45171743930587 99.02847239414405,59.496400035961415 99.08449757717608,59.62448975290863 99.75934637285536,59.654277975576406 100.53860573691782,59.636405045770516 101.18544194106653,59.54704022633996 102.13023025500297,59.31469036691669 102.7134014784242,59.07042306029689 102.75669366533111,59.04063421923274 102.75924026455323,58.96318308478294 102.96551480209746,58.89764734286655 103.31949209493177,58.70997596437155 103.33731828951568,58.584861016250215 103.41880946484162,58.510387568574515 104.17514943584683,57.95331992475076 104.57496551479562,57.55711001857344 104.88565062072303,57.3336809180164 104.9569553991314,57.39624124513102 105.14285714285506,57.42305277128435 104.95186220067262,57.5660471456722 104.96714179604896,57.6494601949089 103.6683761892782,58.56400847078294 103.5588724224508,58.56400847078294 103.53849962861568,58.495492855372504 103.43154246098129,58.513366510271226 103.33222509107145,58.59379781671669 103.32203869415389,58.70997596437155 102.97315459977835,58.90062624354323 102.87383722985396,58.79934344365756 102.3848901779129,59.14787389941557 102.04873907967703,59.228303391199006 101.77115976372443,59.33852121007476 101.71258798145573,59.4100136183788 101.36625048631686,59.50831538307102 100.59208432071318,59.63342622302662 99.716054185963,59.660235616325735 99.08195097795397,59.62151092891327 99.03865879106161,59.59172267154827 99.02337919568527,59.49044236049667 98.18554804936866,59.436823224643376 98.09387047712517,59.53810372878252 97.8748629434267,59.53214606216534 97.76790577582142,59.45767512295606 97.19746754853986,59.48448468379138 97.044671594791,59.445759754387836 96.21448024616984,59.514273054735895 95.99037951402715,59.59172267154827 95.51416545821121,59.57980735977617 95.24677253917616,59.648320333568336 94.97428642166778,59.809176224840485 94.85714285714494,59.76747293395783" stroke="#4dd2ff" stroke-dasharray="none" stroke-linecap="round" stroke-linejoin="round" stroke-width="0.5"><title>2026-04-12 19.4km</title><desc>1775975191000</desc></polyline><polyline fill="none" opacity="1" points="122.2742887585191,59.904053418300464 121.65106672584079,61.71548452602292 122.43454585259315,63.46443667562562 122.86189810349606,63.71428571428987 124.7849832327338,63.277049688549596 126.13826536072884,63.42279513839458 126.95735717506614,62.15272402022674 126.36974782997277,60.67443420240306 126.56561761163175,59.258596926621976 126.2272970797494,57.44714320945786 125.30136720265727,56.17703353482648 125.06988473341335,54.17815580914612 124.51788807602134,53.42857142856519 123.60976454266347,53.49103690267657 121.11687641218305,54.657055446645245 121.61545403825585,56.59346383936645 122.3989331650082,57.80110674051684 122.13183800817933,58.23835492947546 122.2742887585191,59.904053418300464 121.70448575716,61.75712642450526 122.7016410093056,63.65182348433882 124.6603388262447,63.21458731990424 126.17387804831378,63.277049688549596 127.04638889397029,62.00697763009521 126.42316686140839,60.73689737706445 126.45877954887692,58.57149575486255 126.15607170457952,57.21810764435213 125.30136720265727,56.19785507097549" stroke="#4dd2ff" stroke-dasharray="none" stroke-linecap="round" stroke-linejoin="round" stroke-width="0.5"><title>2026-04-09 10.0km</title><desc>1775707979000</desc></polyline><polyline fill="none" opacity="1" points="159.49772496015066,55.7086775136122 159.65738092036918,55.614355953381164 159.855741355801,55.692032543815 160.3588995334576,55.61990428479112 160.4363084838551,55.45900245283701 160.24762416724116,55.29810016366173 160.20891969205695,55.02622973958569 160.3976040086709,55.314745249270345 160.62015474110376,55.409067308577505 160.8910860675387,55.36468047671224 160.83302935474785,55.614355953381164 161.33134947298095,55.24816487751741 161.38456812640652,55.547775933915545 161.65549945284147,55.96389977124636 161.9748113732785,56.213572605855006 162.11511509591946,56.23021742234778 162.50699790733051,56.036027592082974 164.12290974715143,55.93060997680004 164.20031869754894,56.11925188661189 164.3454604795552,56.08596218347884 164.76637164741987,56.785041839473706 165.08084550846252,56.84052398219865 165.0421410332783,57.55623875011588 165.15825445888913,58.00008832567619 165.34693877550308,58.188723341922014 165.30823430028977,58.399549969482905 164.98892237985274,58.56044344674592 164.96957014224608,58.887777041250956 164.81475224145106,58.760172644666454 164.6696104594157,58.893325051980355 164.40351719240425,59.375999904295895 164.32127018258325,59.71997257618568 164.23902317279135,59.653397383375705 164.2632134697633,58.9432571239995 164.18580451936577,58.70469238257283 164.3357843607664,58.37735772987071 164.26805152918678,58.06666546197812 164.15677616294124,57.9612516266825 163.7600552920776,57.944607318957424 163.91003513353644,57.86693381826262 163.71167469810462,57.77816397272545 163.53266650027945,57.81700079726579 163.552018737857,58.13324252000166 162.86501430298085,58.39400191040113 162.78276729315985,58.56044344674592 162.1828479274991,58.63256796057976 162.0618964424939,58.77126869056883 161.61195691823377,58.898873062149505 161.59260468062712,58.67695223112969 161.979649432702,58.15543485530725 162.12479121470824,57.639460810507444 161.95545913567184,57.2122529363769 161.8490218288498,57.129030248193885 161.90224048227537,57.051355628867896 161.62647109641694,57.05690381948807 161.49100543322857,56.96813270421262 161.53454796780716,56.87381324175658 161.81999347245437,56.785041839473706 161.83450765066664,56.50763031041424 161.66033751223586,56.718463196444645 161.33134947298095,56.563112724943494 161.65549945284147,56.58530567554044 161.6458233340527,56.20247605880286 161.77645093784668,56.113703604107286 161.61195691823377,56.11925188661189 161.50068155201734,56.34118274064895 161.16201739397366,56.263507040675904 161.04590396833373,56.552016246379935 160.92011442393414,57.28437916722396 160.14118686044822,57.95015542206602 159.8121988212224,58.993189152013656 159.51223913836293,59.27058850600588 159.33806899993215,60.27476280642077 159.21711751492694,60.27476280642077 158.80588246585103,60.55770373143241 158.45270412962418,60.624277861330484 158.39464741680422,61.10693796291889 158.273695931799,61.37323143086178 157.58185343752848,61.32330150099369 157.41735941788647,61.38987473104862 157.33511240806547,61.23453707253793 157.13675197263365,61.20679816012125 157.09804749742034,61.43980460225066 156.73519304240472,61.52302095644336 156.6577840920072,61.71719197413404 156.10140726092504,62.116627403273014 155.59824908323935,61.855885150671384 155.17249985600938,61.10693796291889 155.06122448979295,61.09029457961515" stroke="#4dd2ff" stroke-dasharray="none" stroke-linecap="round" stroke-linejoin="round" stroke-width="0.5"><title>2026-03-22 12.8km</title><desc>1774137608000</desc></polyline><polyline fill="none" opacity="1" points="133.10191861174826,70.50433747090028 133.38164487351605,70.42929066904253 134.20285958694876,70.36324931903437 134.93168764511938,70.38126061156618 135.02664059634844,70.44730191960662 135.18318465110497,70.46831503081012 135.270438714404,70.45330566726261 135.3294635219354,70.35724555230263 136.20200415495492,70.42328691631519 136.22253452279256,70.53435613600777 136.30465599412855,70.55837104520288 137.40046437738056,70.57037849216249 138.29866797018622,70.49232999595733 139.20200415495492,70.27019079189813 139.91286814126943,70.01202682668554 139.96162776488927,69.94298257695664 139.9103018452879,69.78387996978017 140.07454478797445,69.71783711580065 140.17206403519958,69.80489357287297 140.52877917634032,69.61276862180603 140.52364658439183,69.52270960262649 140.59037027986778,69.45066218122702 141.2653061224555,68.95833323262741 140.62629842356546,69.41764038521069 140.5364780642849,69.50769973827664 140.52621288037335,69.61877254624233 140.30551142613695,69.73885076785336 140.1515336673474,69.81089745660029 140.06941219602595,69.70883126014633 139.91286814126943,69.7868819140349 139.8769399975572,69.88594589596141 139.45093486497353,70.10508620149085 139.19173897104338,70.15912053696229 138.96590492484393,70.25217942877862 138.92227789320168,70.31521914963378 138.42698276916053,70.45030379360105 137.6211658316024,70.55837104520288 136.9975559086015,70.56137290741754 136.26102896247176,70.53135427092457 136.19430526701035,70.39927189266018 135.46804350482125,70.35424366846928 135.31149945006473,70.35424366846928 135.2601735304779,70.44430004531932 135.034339484293,70.45030379360105 134.93682023706788,70.3722549667309 133.9590614688932,70.3722549667309 133.4098741292837,70.43229254493781 133.14297934740898,70.50133560265385 132.64255163141934,70.50133560265385 132.29610167419014,70.60640080253143 132.10876206768444,70.72947668420966 131.9932787486032,70.68444898461712 131.6930221190123,70.72047115001442 131.34657216178312,70.92159406540122 131.1951606990042,70.96061774933696 131.03091775631765,70.88257032774163 130.97959183673083,71.04166676737259" stroke="#ff9000" stroke-dasharray="none" stroke-linecap="round" stroke-linejoin="round" stroke-width="0.5"><title>2026-02-18 20.3km</title><desc>1771394553000</desc></polyline><polyline fill="none" opacity="1" points="10.571428571434808,83.44074382430699 10.678182222545729,83.52503320586038 10.89702720734931,83.52815503018974 10.987767810802325,83.42825648801954 11.879160797674558,83.47196214187716 11.919193416862981,83.59995689823518 12.007265179025126,83.62180960596379 13.39773148491804,83.62805323375869 14.09963674104074,83.54688596914639 15.06842612499895,83.31274837656383 15.724961079395143,83.07236517980346 15.80235747648112,82.9880745036935 15.751649492172874,82.82573622603923 15.917117651420995,82.7539324718673 16.01853361997928,82.85383329962133 16.36548298613343,82.66964088505301 16.39217139892571,82.54476401700595 16.453554748324677,82.47608151404165 16.691081622077036,82.41988661983669 17.328934687524452,82.01403142465824 17.59314997405454,81.7767596447029 17.769293498407933,81.7767596447029 18.10556749944226,81.55509612428614 18.27103565869038,81.31469859075514 18.241678404636332,81.23352495471772 18.391133516197442,81.24913528671095 18.695381421901402,80.95565966170216 18.78345318409265,81.02434570825426 18.860849581149523,80.97127014089165 18.911557565428666,80.9275607783402 18.91422640669043,80.85575239910213 19.229149677514215,80.60910489419075 19.327896804810734,80.59661635801967 20.670323967686272,79.41330354468482 20.74238268219051,79.45701515355722 20.857142857144936,79.31339105234474 20.801097190313158,79.22908962338624 20.68633701535873,79.37895866366125 20.5929275706294,79.37271413553572 20.280673141081934,79.6693277598788 20.187263696352602,79.62561646599534 20.280673141081934,79.6662055267534 20.376751427087584,79.60063855465705 20.416784046261455,79.6568388253836 19.95240566387656,80.0908261948407 19.44532582104148,80.50295216799714 18.91956408927217,80.85263029169073 18.911557565428666,80.9306828778208 18.79679739047424,81.03058988637713 18.690043739348766,80.97127014089165 18.50856253244274,81.16483939573845 18.10556749944226,81.45831293752599 18.11624286454753,81.55197409096763 16.728445399960037,82.51354471732157 16.624360590110882,82.49481312163516 16.608347542438423,82.42925244297294 15.959819111871184,82.55100787296578 14.900289124474511,82.95685567359214 14.716139076292166,82.83822381760729 14.61205426644301,82.45110601873057 13.085477055370575,82.61032443870135" stroke="#ff7e00" stroke-dasharray="none" stroke-linecap="round" stroke-linejoin="round" stroke-width="0.5"><title>2026-02-08 23.1km</title><desc>1770528486000</desc></polyline><polyline fill="none" opacity="1" points="15.590924670774257,99.75567492949904 15.481907934652554,99.69417109875121 15.393929516030767,99.67627900806747 15.297344512975542,99.41460372117581 15.534503728398704,99.27593555834665 15.846253342220734,99.14285714285779 15.930406612209481,99.35421619647968 15.986827554588672,99.65055907464102 16.354998110786255,100.42995709729621 16.398987320102606,100.6658897883517 16.456364549638238,100.8034215820071 16.534780096673785,101.10084194500087 16.599807623479137,101.45080331300869 16.83027282878902,102.00535096559724 16.8398357003789,102.0623693377238 16.82166624436286,102.0925554102887 16.772895599257026,102.11156141177798 16.63040881256893,102.25131037392111 16.50226633326747,102.28373186925637 16.50800405622431,102.33515886492023 16.534780096673785,102.35975429619612 16.76620158914011,102.370934018777 16.88860634548837,102.3318049380432 16.971803328317037,102.27590600017083 17.143935016934847,102.10485341515232 17.248170317256154,101.95615839754555 17.317022992701823,101.78733670806287 17.342842745998496,101.67553278136347 17.312241556908702,101.88684120874495 17.276858932029427,102.01541305360297 17.093251797505218,102.28261388831379 17.186967939083843,102.44136599933245 17.222350563966756,102.46037137405438 17.26538348611939,102.44919174599909 17.479591809726116,102.13951135192474 17.66415523140313,101.92149985993365 17.83437434570078,101.61404011785635 17.84106835581406,101.57602629247776 17.823855186950823,101.53577621078784 17.63642290379721,101.39489971841522 17.621122309246857,101.35688510528234 17.83533063286086,101.20817957043255 17.921396477166127,101.10084194500087 17.944347368982562,101.1075505785102 18.054320392260706,101.25290325945389 17.932871923072526,101.49776210407799 17.820030038314144,101.68224105029822 17.806642018091225,101.74708743061638 17.763609095934953,101.81752356562356 17.727270183899236,101.84323822817896 17.687106123219564,101.94945030235431 17.485329532679316,102.25354634230553 17.40404512416717,102.36087226898508 17.32562957713526,102.41229888959151 17.283552942139067,102.48273059471285 17.12672184807161,102.60346956956892 16.95937159525056,102.68172557643993 16.8369668389023,102.702966392696 16.792021342433145,102.51179751090694 16.608414207912574,102.55316183086234 16.555818414166424,102.4178887245871 15.978220970155235,102.46484322196739 15.69037853530972,102.5419823008815 15.575624076234817,102.60570546351391 15.416880407847202,102.6638385401966 15.534503728398704,102.97685730791909 15.530678579765663,103.00145124721712 15.435049863863242,102.99809753158661 15.06974816913862,102.93214090816491 14.928217669614241,102.96344240783947 14.913873362234881,102.98356475157652 14.894747619051486,103.23732657946857 14.845976973945653,103.33905318023335 14.517014191267663,103.60733842499121 14.238734628008388,103.74259632316625 14.237778340851946,103.7627171850736 14.321931610837055,103.87897030473414 14.325756759470096,103.92927173947737 14.246384925278107,104.0891169337574 14.085728682573972,104.53734127892858 14.066602939390577,104.70835454201733 14.120155020296806,105.06825578122061 14.242559776641428,105.47732121244371 14.224390320621751,105.60920232598073 14.174663388355839,105.76790453870672 14.167013091082481,105.89978203234568 14.200483141648874,106.01154133420823 14.374527404579567,106.33228397925359 14.385046563329524,106.4093948737127 14.374527404579567,106.53008905940806 14.332450769587012,106.62284384129725 14.191876557219075,106.79494092291588 13.834225159767811,107.32797712368483 13.540645001965459,107.6598540363093 13.459360593453312,107.82746468645291 13.374251036311762,108.21966324380719 13.374251036311762,108.30681650684619 13.422065394253877,108.57832784546008 13.560727032301656,109.1146260928117 13.600891092981328,109.21182724427035 13.72903357227915,109.42857142857156 13.581765349797934,109.1973029909459 13.52821326889898,109.03976942586905" stroke="red" stroke-dasharray="none" stroke-linecap="round" stroke-linejoin="round" stroke-width="0.5"><title>2025-11-30 42.8km</title><desc>1764458479000</desc></polyline><polyline fill="none" opacity="1" points="48.84136301302351,101.3043602941325 49.8610640107654,107.78882994159358 52.60151044209488,109.42857142857974 54.83210637466982,107.34162705519702 53.74867406464182,100.5590151293436 50.944496320793405,99.14285714284051 48.84136301302351,101.52796368970303 49.92479532305151,108.01243127818452 52.792704379186034,109.42857142857974 54.83210637466982,107.04349164006999 53.68494275212288,100.40994600171689 50.81703369598836,99.21739184466423 48.84136301302351,101.45342923240969 49.98852663533762,108.0869650413515 52.66524175461382,109.42857142857974 54.83210637466982,107.04349164006999 53.74867406464182,100.5590151293436 51.008227633079514,99.14285714284051 48.84136301302351,101.52796368970303 49.8610640107654,107.86336372827645 52.66524175461382,109.42857142857974 54.83210637466982,107.04349164006999 53.74867406464182,100.5590151293436 50.944496320793405,99.14285714284051 48.84136301302351,101.37889476737473 49.8610640107654,107.86336372827645 52.792704379186034,109.42857142857974 54.83210637466982,107.11802550579887 53.74867406464182,100.48448056937195" stroke="#4dd2ff" stroke-dasharray="none" stroke-linecap="round" stroke-linejoin="round" stroke-width="0.5"><title>2025-11-26 8.7km</title><desc>1764155703000</desc></polyline><polyline fill="none" opacity="1" points="112.56183940825576,105.24788351606912 112.53938151679904,105.26425913810453 112.56745388112176,105.35159538895641 112.51804651991552,105.39662788005899 111.96109081187751,105.44848325400108 111.17506461100129,105.41436790313492 111.15260671954456,105.39389864327222 111.14250066839304,105.28472863234765 110.9931556902302,105.28063473645943 110.58891364406009,105.20012114984274 110.09034845379938,104.93947154401121 109.93875768648286,104.82210902919633 109.70744140451279,104.57373318346436 109.38741645130358,104.1083549773748 109.22010515996953,103.90909628872487 108.28697977007687,103.2880963675234 107.9972729703295,103.16525718176945 107.94449692541093,103.17754116034394 107.51105962035945,103.12158070552869 107.04393547812651,103.12977005766425 106.897959183676,103.1502434120739 106.98217627662962,103.32904246650105 107.01361732466466,103.35361005477989 107.34037964531308,103.2143930160646 107.3426254344522,103.1502434120739 107.358345958477,103.13522962245952 107.50656804206665,103.12431049022962 108.06576953925833,103.1898251255825 108.31617502896552,103.30447482489217 108.56994920239231,103.46689324418185 108.80126548436237,103.64705212559693 109.11118438642734,103.82038410025052 109.22122805454273,103.91182588349875 109.36383566527365,104.07150603218633 109.75235718742624,104.64879239272705 109.97693610195711,104.86850830838284 110.25878263969935,105.05819750129922 110.61137153551681,105.20967363921045 110.97743516621267,105.27654083909238 111.13576330095384,105.28609326397873 111.15036093040544,105.303833460247 111.14811514125904,105.39935711618818 111.16495855984249,105.41573251914087 111.98018001960736,105.44984786589885 112.53039836022072,105.39116940582699 112.56969967026089,105.34886614131756 112.54611888424552,105.26425913810453 112.58991177257121,105.24788351606912 112.76283753676398,105.22059076004462 113.0952143302784,105.21513220094403 113.70045450494945,105.10868977245173 114.26077889671433,104.95038892540288 114.5044470189896,104.8507674299708 114.8828624899761,104.73203929731062 115.56221370644926,104.54916824325119 115.67674895285745,104.48502620360887 116.31343017557083,104.39768326735975 116.87824614562123,104.25438480275625 117.18367346938612,104.15066287762784" stroke="red" stroke-dasharray="none" stroke-linecap="round" stroke-linejoin="round" stroke-width="0.5"><title>2025-11-16 42.7km</title><desc>1763252375000</desc></polyline><polyline fill="none" opacity="1" points="141.2653061224264,106.3333445416647 137.31138907175045,107.4541082933356 135.7077024357859,107.27090736902028 132.970375246834,106.15014160235296 131.17314022377832,105.64363764429436 130.97959183674539,105.41732655136002 131.62475312699098,103.77925032124767 132.49111257400364,102.4213513775685 133.64318630675552,101.11732027809194" stroke="#ff5200" stroke-dasharray="none" stroke-linecap="round" stroke-linejoin="round" stroke-width="0.5"><title>2025-11-09 30.0km</title><desc>1762665792000</desc></polyline><polyline fill="none" opacity="1" points="50.89057372107345,110.84741672462042 50.82989356365579,110.96569642267968 50.8433780430787,111.26796420257051 50.906305613723816,111.47035013782079 50.886078894589446,111.63593740346914 51.00069696968421,111.87774539523525 50.93102715932764,112.36923916557316 50.95799611817347,112.5427052328123 51.020923688818584,112.6320660673482 50.982717663791846,112.94745467813664 51.17599520216754,113.80424018637314 51.11531504477898,114.13801059078651 51.17374778894009,114.41921524583267 51.393994286161615,114.87649452329242 51.34904602142342,114.97373098554817 51.40747876558453,115.16031880670198 51.7670648835192,116.0065164064963 51.755827817338286,116.11163210827908 51.8637036527216,116.41383727370885 51.92887863659416,116.91838031531552 51.987311380769825,117.02086436878199 52.21879494417226,117.18904241236851 52.24126907654863,117.3440805379596 52.18733115885698,117.53853376870575 52.41656730903196,117.67780339067758 52.40982506933506,117.75137947963049 52.3041966471792,117.84072158050003 52.31318630013266,118.01414944761746 52.380608697247226,118.24012939785825 52.39184576342814,118.42143740708525 52.44128885465034,118.52128762994471 52.497474185569445,119.0100224070793 52.60759743419476,119.11249783503808 52.634566393040586,119.39627373816256 52.71097844309406,119.70894899077575 52.76716377402772,119.79040156204428 52.69524655042915,119.99534556064646 52.760421534316265,120.13197395426869 52.7424422284239,120.28436627656811 52.83458617112774,120.46303194740904 52.877287022653036,120.85714285714312 52.83458617112774,120.46040452037232 52.780648253450636,120.39734618828152 52.7424422284239,120.25809180489705 52.760421534316265,120.10832678604129 52.6997413768986,119.98483565310926 52.76266894755827,119.78514656551124 52.643556045979494,119.42517665760352 52.60759743419476,119.12300811145178 52.497474185569445,119.0100224070793 52.44128885465034,118.5370534179383 52.31768112660211,118.05093702141676 52.29745440746774,117.85386009765716 52.41207248256251,117.69619743333351 52.182836332387524,117.54378924030425 52.23677425006463,117.35196380663547 52.223289770656265,117.19955350229066 52.027764819024014,117.06028119987423 51.93562087630562,116.94203051901968 51.85696141301014,116.41383727370885 51.75133299086883,116.10374844607213 51.75807523056574,116.00914430445846 51.411973592068534,115.20499455592835 51.35129343466542,114.97110297805557 51.32207706257759,114.9921270301893 51.30185034345777,114.92642680820063 51.277128797839396,114.95533492728646 51.31982964935014,114.90014667076139 51.31308740963868,114.71092886046608 51.16026330951718,114.38505036417519 51.10183056535607,114.07230810978945 51.169252962456085,113.84103399420019 50.97148059759638,112.85021028353185 51.023171102046035,112.63732257700576 50.92877974610019,112.45071580258627 51.002944382926216,111.89877206586061 50.883831481361995,111.64645084337099 50.90181078725436,111.46772175962724 50.8433780430787,111.29687658001785 50.82090391071688,110.96832485401501 50.87933665487799,110.83427450117051 50.80517201805196,110.6897095841232 50.796182365113054,110.57142857142753" stroke="#ff8100" stroke-dasharray="none" stroke-linecap="round" stroke-linejoin="round" stroke-width="0.5"><title>2025-10-27 22.6km</title><desc>1761522564000</desc></polyline><polyline fill="none" opacity="1" points="87.40153184439987,110.57142857142026 85.23288584314287,112.8169145786087 86.0383829290513,119.4084600431379 88.70271944534034,120.85714285715949 90.68548150383867,118.97385460173246 89.94194573187269,112.09256505756639 87.1536865872331,110.57142857142026 85.35680847149342,112.8169145786087 85.8524989860598,119.26359159324784 88.6407581306994,120.85714285715949 90.68548150383867,118.82898606004892 90.0039070462808,112.16500004404224 87.21564790140837,110.57142857142026 85.29484715731815,112.8893494886579" stroke="#4dd2ff" stroke-dasharray="none" stroke-linecap="round" stroke-linejoin="round" stroke-width="0.5"><title>2025-10-23 8.3km</title><desc>1761191597000</desc></polyline><polyline fill="none" opacity="1" points="123.5213108148746,110.68652635089893 123.59109448702657,110.96947382077633 124.14936386427144,111.66484571820547 124.55164620965661,111.51138524803173 124.6871086320607,111.61688937689178 124.75689230421267,111.82789690052232 124.46954777181963,112.02451666662819 124.23556722397916,112.30266025017409 124.56806589719781,112.92128384728858 124.98266300825344,114.65722142240338 125.0155023833795,115.5970936866579 124.96213839881239,116.23964824482027 124.59269542855327,117.78845514668137 124.61732495990873,118.01381894038059 124.48596745936084,118.35426000169537 124.22735738019401,118.37343970402071 123.90306855077506,119.08308300742283 124.07137034833431,119.24131277581182 123.91538331644551,119.53859145902243 123.14776292273018,120.8571428571413 124.06316050453461,119.25090244106468 123.88254394131945,119.07828815735775 124.21093769263825,118.38782447545964 124.25609183344932,118.34467014750408 124.41207886532356,118.39261939825883 124.49828222504584,118.3206955031892 124.8472005858348,116.84383305965457 124.97445316448284,115.98070943977655 124.97034824258299,114.65242610597124 124.55575113152736,112.95485232898864 124.21093769263825,112.28827355481917 124.49007238127524,111.98135630295292 124.73636769475706,111.82310128584868 124.67068894447584,111.60729810255725 124.5229117564013,111.50658959998691 124.14115402050084,111.65525445399544 123.59109448702657,110.9790652296033 123.50899604918959,110.68652635089893 123.40226808001171,110.57142857142753" stroke="#4dd2ff" stroke-dasharray="none" stroke-linecap="round" stroke-linejoin="round" stroke-width="0.5"><title>2025-10-19 14.0km</title><desc>1760852519000</desc></polyline><polyline fill="none" opacity="1" points="76.02075153090118,123.2805673182047 76.40218280458066,123.1117034078452 76.5386950498796,123.2148980958882 76.61498130460677,123.42597739414123 76.35400201209995,123.59953073369252 76.1010528516781,123.89034832564721 76.43028826685622,124.47666833691255 76.84785513485258,126.30593712091286 76.8799756631779,127.06107487107147 76.73141821972968,128.31335581662643 76.37006227626989,129.79072061772968 76.27370069135213,129.8657600609513 76.14120351207384,129.80479052296505 76.08900765357248,129.8563801374621 75.77984756858496,130.52703968497735 75.9404502101388,130.7052552081077 75.04107541751,132.28571428571377 75.7316667761479,131.11327227175934 75.88423928558768,130.74277417468693 76.10506791772787,130.55986891389693 75.96855567241437,130.7005653350716 75.79590783275489,130.60207788695334 75.7758325025643,130.52703968497735 76.11711311583349,129.80479052296505 76.27771575738734,129.8516901749863 76.37006227626989,129.78603064833442 76.70331275748322,128.3883977505684 76.86391539902252,127.13142866735143 76.8358099367324,126.26841441406577 76.42225813477125,124.51419255458313 76.0970377856429,123.88565773441587 76.34597188004409,123.61829321633559 76.62301143670629,123.435358673054 76.54271011592937,123.22897008025757 76.39415267251024,123.1117034078452 76.02075153090118,123.27118600666654 75.48273268176126,122.60510783147038 75.41046149305475,122.34711712677381 75.29000951188209,122.19232198589452 75.30205471001682,122.0 74.95675903069787,122.06098023187951" stroke="#4dd2ff" stroke-dasharray="none" stroke-linecap="round" stroke-linejoin="round" stroke-width="0.5"><title>2025-10-07 14.0km</title><desc>1759810688000</desc></polyline><polyline fill="none" opacity="1" points="89.06724496441893,155.14285714285506 88.809334146732,154.90834061207715 88.65649810660398,154.33879829863872 88.75202063168399,153.78042050095246 88.49410981393885,153.18853681330802 88.75202063168399,152.36212762673676 88.2266467436566,150.82096890149114 88.10246746102348,149.4919806429025 87.6153025830863,148.96708151476196 87.40515302791027,147.0349835308807 86.85112238244619,144.85714285714494" stroke="#4dd2ff" stroke-dasharray="none" stroke-linecap="round" stroke-linejoin="round" stroke-width="0.5"><title>2025-07-20 13.2km</title><desc>1752965179000</desc></polyline><polyline fill="none" opacity="1" points="183.28454158856766,144.85714285714494 183.366829755425,145.22245970918084 184.1348526463844,146.16458251223594 184.57372286979808,145.93385991041941 184.83704500383465,146.1004929884548 184.91933317072107,146.40812208639545 184.5956663809484,146.58116276992587 184.21714081327082,146.99774017313393 184.6724686700618,147.8757478133557 185.18814118255978,149.96497048680612 185.2868869828235,151.36842639071256 185.08939538229606,153.05381236398534 184.70538393684546,154.3290353472803 184.72732744796667,154.66866308994213 184.49143470288254,155.1428571428587 184.76572859252337,154.58535834749273 184.7108698145894,154.35466769590494 185.07293774891878,153.00254655930257" stroke="#4dd2ff" stroke-dasharray="none" stroke-linecap="round" stroke-linejoin="round" stroke-width="0.5"><title>2025-06-29 12.0km</title><desc>1751152499000</desc></polyline><polyline fill="none" opacity="1" points="56.97959183673083,157.49833484779083 56.83495949067583,157.62811102017804 56.646601086482406,158.14721118170564 56.266520735181984,158.886523147783 55.950347699574195,159.34268703055204 55.75526220953907,159.8460337887591 55.237276598025346,160.74653560688967 54.8605597896385,161.21447336018173 54.84037853204063,161.61949036130318 54.732745158238686,161.6902695788158 54.55111383991607,161.66667652128308 54.46366172368289,161.71386262140368 54.1172168017074,162.13067057347507 53.7337729074643,162.77946611364314 52.94670386140933,163.36927042412935 52.785253800684586,163.60912150307922 52.44889950749348,163.49902611781727 51.83673469387577,163.8135834972163 51.57437834519078,163.9000863103829 51.510471029469045,163.83324324514615 51.35911159754323,163.88435854112686 51.26829593839648,163.9276098905866 51.24811468079861,164.02590822511047 50.69985718288808,164.27361887647567 50.49131752112589,164.2657550716067 50.01033088186523,164.4269627390713 49.76815579076356,164.43875839463726 49.31407749495702,164.58423783917533 49.12571909077815,164.76117153228915 48.732184567750664,164.80049001651787 48.37228547403356,165.0796500599754 48.13347392586002,165.142559076412 47.982114493934205,165.09537732404715 47.894662377701025,165.24085420170377 47.75675711748772,165.1700817376659 47.60876122849004,165.23692240168384 47.42712991016742,165.1779453514282 47.30940590755199,165.2723085869693 47.181591276137624,165.23299060123827 47.03023184421181,165.35880800935047 46.94277972797863,165.26051319561884 46.693877551020705,165.2841039745872" stroke="#4dd2ff" stroke-dasharray="none" stroke-linecap="round" stroke-linejoin="round" stroke-width="0.5"><title>2025-06-22 15.1km</title><desc>1750548259000</desc></polyline><polyline fill="none" opacity="1" points="150.11037027393468,178.0 148.58654899476096,175.09895247821987 149.79055593139492,173.7363253151707 150.99456286802888,173.0550083938433 150.67474852548912,171.95610544193187 149.978682015324,171.4945644748077 148.3796103025088,172.2857769356633 148.19148421869613,172.13193030346883 145.70821991201956,169.01101696671685 145.33196774416137,167.71428571428987" stroke="#4dd2ff" stroke-dasharray="none" stroke-linecap="round" stroke-linejoin="round" stroke-width="0.5"><title>2025-05-11 9.2km</title><desc>1746938990000</desc></polyline><polyline fill="none" opacity="1" points="40.03031469718553,179.14285714285506 39.71068333822768,179.76549182731833 37.96336524304934,180.4379354404373 37.62242512695957,181.01075626532838 41.969411607598886,189.4285714285652" stroke="#ff8800" stroke-dasharray="none" stroke-linecap="round" stroke-linejoin="round" stroke-width="0.5"><title>2025-04-20 21.5km</title><desc>1745103989000</desc></polyline><polyline fill="none" opacity="1" points="75.10396329851937,179.1428571428587 74.9790136363008,179.40902899586945 75.02363851564587,180.0405290161725 75.13520071405219,180.37454228557908 75.09057583470712,180.71899109992592 75.31816271948628,181.22000326193302 75.18875056930119,182.23244980224263 75.24676291248761,182.51426112040645 75.36278759883135,182.67604096431023 75.28692530392436,183.29184325724054 75.66623677851749,185.03483518283974 75.5368246283615,185.62973449460696 75.65731180264265,186.19331669759413 76.01431083754869,186.91865838905505 75.94737351854565,187.28915254760068 76.03216078932746,187.2943707553095 76.07232318076422,187.57615315203293 76.85772105757496,189.42857142857247 76.24189772232785,188.06144128426604 76.07232318076422,187.46135311064427 76.01431083754869,187.5030986111451 75.96968595820363,187.29958896247263 75.9072111271089,187.27871613052412 76.00092337376554,187.29958896247263 76.16157293948345,187.0804237864504 75.87597371154698,187.18478827743456 75.75548653723672,187.14304250753412 75.96968595820363,186.9343131281239 75.63499936295557,186.20375334433265 75.5368246283615,185.6558264054329 75.65731180264265,185.00874294350797 75.2423004245502,183.14572137509458 75.34047515914426,182.72822789752536 75.21106300898828,182.48294883124618 75.16197564167669,182.169824846158 75.30923774361145,181.2095655604753 75.07272588295746,180.71377219643546 75.12627573820646,180.37976122495456" stroke="#4dd2ff" stroke-dasharray="none" stroke-linecap="round" stroke-linejoin="round" stroke-width="0.5"><title>2025-04-13 17.0km</title><desc>1744513358000</desc></polyline><polyline fill="none" opacity="1" points="85.6546525703161,179.1428571428405 85.6261134854285,179.8597114321019 85.96858250384685,180.2431437876221 86.22543426771881,181.22672688278544 88.1375529539655,183.62731078277284 88.39440471772105,183.71066373573558 89.40754223050317,183.0938508433319 89.99259347037878,183.44393413157377 90.22090614942135,184.32747422222747 89.2505772637669,184.91094138704648 88.43721334502334,185.87782509195677 89.63585490954574,188.07829700454022 89.94978484307649,189.4285714285652 89.80708941875491,188.39502907729184 88.43721334502334,185.87782509195677 89.46462040027836,184.69422526285052 90.29225386155304,184.31080370018026 90.00686301285168,183.49394596660568 89.52169857011177,183.12719214223034 88.26597883581417,183.6939931486413" stroke="#4dd2ff" stroke-dasharray="none" stroke-linecap="round" stroke-linejoin="round" stroke-width="0.5"><title>2025-04-12 10.0km</title><desc>1744429372000</desc></polyline><polyline fill="none" opacity="1" points="162.84159218508285,206.12321312673157 161.5702741490677,206.87691001179337 160.43178038543556,208.22912412280857 161.58924904512241,210.15767674513336 162.38619467953686,212.28571428571013 162.25337040727027,211.42120163205254 160.50767996965442,208.14045461146452 161.76002310961485,206.7660724040179 162.91749176941812,206.16754831242724 162.50004405598156,205.014830447064 161.76002310961485,204.50497245255974 160.01433267211542,205.21433976058324 157.49067149602342,201.99999999998545" stroke="#4dd2ff" stroke-dasharray="none" stroke-linecap="round" stroke-linejoin="round" stroke-width="0.5"><title>2025-02-01 10.0km</title><desc>1738384413000</desc></polyline><polyline fill="none" opacity="1" points="169.6971848027606,204.19487955518707 169.155118173745,203.96505187280127 168.17262240860146,204.38508124143118 167.10204081633128,204.51980714347155 167.21722997498,205.05870832671644 167.52214245378855,205.51835627017135 168.24038073726115,205.3915571194011 169.77849479709403,204.80510825318197 169.1212390094006,204.8288832965918 168.78244736630586,205.1934330163349 168.33524239735561,205.36778225473245 168.5114140517835,205.84327811364346 170.39509558762074,205.53420614891365 171.50633217714494,205.20135799053241 171.32338468983653,204.32960579953942 170.9574897152488,204.32960579953942 170.56449140919722,204.60698259791388 169.95466645155102,204.78925822005112 171.167540533992,204.29790552857594 171.4182463499019,204.59905756080843 171.61474550294224,205.16173311117745 172.61079293378862,204.7496331225775 173.30192788579734,204.7575581437559 173.60006453175447,204.57528244440618 175.09752359439153,204.19487955518707 175.27369524884853,204.05222797333408 175.1178510930331,203.60842131340178 175.17883358878316,203.47369377096766 176.49334516417002,203.38651699665206 176.83213680729386,203.5212446959922 177.3132209405594,203.4974692372707 177.3877551020414,203.74314861331368 177.1709284504468,204.6703828646714 177.24546261195792,205.7085545936061 176.14777768813656,206.12857417925989 176.2358635153796,206.69916304855724 176.0867951923865,206.82595998445322 175.71412438494735,207.02407976683753 175.23981608453323,207.00823020354437 174.31830281519797,207.26182281358342 174.06082116640755,206.81011037921417 172.63112043237197,207.24597330065444 172.30588045495097,207.14295138460147 171.72993466159096,207.36484456605103 171.7434863272938,207.49164037446462 171.64862466722843,207.3965435382779 171.492780511413,207.77693015814293 171.26240219408646,207.89580058045976 171.22174719686154,207.7848548588372 171.2420746955031,207.89580058045976 170.9507138823683,207.79277955867292 170.64580140353064,207.49164037446462 169.7717189642426,207.6263606855573 169.59554730981472,207.76900545659737 170.6322497378278,208.56939607516688 171.26240219408646,208.45052672237216 171.59441800432978,208.93392758016853 172.0348471403995,209.13996634134674 172.36008711784962,209.06864529586164 172.59724126802757,208.84675716436323 172.90892957971664,208.93392758016853 172.97668790834723,208.71996365109953 173.51197870454052,208.5931699230714 173.6068403646059,208.98147503692599 174.38606114382856,208.75958664705104 174.67064612408285,209.94826677484525 174.73162861983292,210.89127291800105 174.0066145035089,210.76448286720552 173.105428732757,210.89919728905807" stroke="#4dd2ff" stroke-dasharray="none" stroke-linecap="round" stroke-linejoin="round" stroke-width="0.5"><title>2025-01-25 14.8km</title><desc>1737764447000</desc></polyline><polyline fill="none" opacity="1" points="189.42857142863795,205.0960994400084 179.1428571427241,209.18961484567262" stroke="#4dd2ff" stroke-dasharray="none" stroke-linecap="round" stroke-linejoin="round" stroke-width="0.5"><title>2024-12-28 10.1km</title><desc>1735359007000</desc></polyline><polyline fill="none" opacity="1" points="141.2653061224555,217.71200773503006 139.85408265957085,217.91778863705622 138.93626984508592,218.41004432902264 138.42905750022328,218.5754730941553 137.9218451553752,218.62792596741565 137.16620227426756,218.49477622520135 137.02128446144343,218.5270549932684 136.74870095639199,218.7852841543354 136.6900437464501,218.9507112918327 136.73834968404844,219.10403336392847 136.68314289821137,219.196833266029 136.703845442913,219.32998055726057 136.5865310230147,219.43084940782865 136.17248012925847,219.40260615655643 135.94475213770056,219.33401531639902 135.86539238305704,219.25735481966694 135.52725081981043,219.26542435289593 135.4099363999121,219.35822386230575 135.12700162253168,219.3783976388222 134.91652575152693,219.3783976388222 134.84061642100278,219.31384151641032 134.0849735399097,219.3461195912787 133.68127391849703,219.28559817849236 133.2913759935327,219.35822386230575 133.07054885019897,219.28559817849236 132.8773250997765,219.36629337418344 132.30800512088172,219.2492852847281 131.33843594466452,218.92650248726932 131.26597703824518,218.8498411714172 130.97959183673083,218.81756267654418" stroke="#4dd2ff" stroke-dasharray="none" stroke-linecap="round" stroke-linejoin="round" stroke-width="0.5"><title>2024-10-28 17.0km</title><desc>1730088256000</desc></polyline><polyline fill="none" opacity="1" points="153.30612244896474,217.23943747134035 151.46718220307957,218.09802026733814 150.4790949067974,218.29862232352752 149.14792174371541,218.37083893383533 148.55095233552856,218.53934409050999 146.78749098037952,219.49419957325154 145.81312711871578,219.80713278819167 144.6946671930491,219.90341967150744 143.5281752460578,219.70282186002441 143.02040816325461,219.72689362540405" stroke="#4dd2ff" stroke-dasharray="none" stroke-linecap="round" stroke-linejoin="round" stroke-width="0.5"><title>2024-10-25 14.0km</title><desc>1729815581000</desc></polyline><polyline fill="none" opacity="1" points="32.89795918366872,231.4628458316438 22.612244897987694,228.5371541683562" stroke="#4dd2ff" stroke-dasharray="none" stroke-linecap="round" stroke-linejoin="round" stroke-width="0.5"><title>2024-10-13 12.0km</title><desc>1728776779000</desc></polyline><polyline fill="none" opacity="1" points="118.93877551020705,239.06336703954366 119.08057220769115,239.038114279836 119.05148570562596,239.21909205033444 119.10965870974178,239.2148832739731 119.05875733114954,239.28643241392274 119.16783171381394,239.2443446995385 119.18964659035555,239.44636533798257 119.27327028373838,239.40848654345245 119.37870885364828,239.45057409079163 119.53868461489037,239.6483849895958 119.81864219707495,239.72414210453644 120.27311879151966,239.5389578008144 120.28766204255226,239.72414210453644 120.36037829767156,239.6904722928084 120.42582292726729,239.76202060996002 120.31674854460289,239.92616039925997 120.40400805074023,239.94299521262292 120.34947085940803,240.17868188000284 120.49853918240115,240.46907967679726 120.77849676457117,240.63321665998592 122.0801177310932,239.8251513752548 122.12374748416187,239.90511687294565 121.81833921268117,240.31756803720782 121.66927088971715,240.4269931659146 121.63291276214295,240.6163821275877 121.56383231977816,240.67951158875803 121.5783755707962,241.12141511899245 121.89832709330949,242.00941650829554 121.76743783410348,242.19458975124144 121.89832709330949,242.03466745386686 122.03285216527001,242.11462867983573 122.16737723723054,241.9252465783684 122.18919211374305,242.29559298890308 122.4946003852383,242.37555371049166 122.93453372867953,242.855314794062 123.17086155778088,242.9394828314944 123.41809682517487,243.30982016166672 123.55625770987535,243.36452880438083 123.74168416042812,243.54969598132084 124.06163568292686,243.49077924220182 124.15616681457323,243.53286263584232 124.4724825243029,243.8190285773053 124.79970567231067,243.5707376535247 125.09057069275877,243.6422792589765 125.25781807952444,243.45290415130512 125.89772112452192,243.4991959243489 126.02861038371339,243.44027911330704 126.4285497868259,243.5286542983995 126.78485943688429,243.4192373747428 126.89756963231775,243.5412793094365 126.966650074668,243.7811537869493 127.344774601268,243.4192373747428 127.45021317116334,243.47394587274175 127.6138247451745,243.21302777040546 127.77016469367663,243.12044353204692 127.74471400438051,242.81743912134698 128.17373990954366,242.79639706596936 128.47187655550078,242.85952319999342 128.56640768714715,242.37555371049166 128.46824074276083,242.29559298890308 128.52641374684754,242.2450914009023 128.515506308584,242.13146260245412 128.6718462570716,242.152504996091 128.76637738871796,242.00941650829554 128.9954335923103,241.91262107409784 129.0136126560974,241.79478284847937 128.90090246066393,241.68115281299833 128.87181595862785,241.40759774349863 129.22448979593173,241.08774644475488" stroke="#4dd2ff" stroke-dasharray="none" stroke-linecap="round" stroke-linejoin="round" stroke-width="0.5"><title>2024-05-25 14.8km</title><desc>1716598951000</desc></polyline><polyline fill="none" opacity="1" points="22.677344355732203,255.1031695624115 25.541720485780388,256.62588884914294 32.11676569352858,253.88499181211228 32.76776026841253,250.61112888524076 29.903384138597175,249.08839686511783 23.458537845639512,251.67703938105842 22.677344355732203,255.02703351335367 25.606819943292066,256.62588884914294 31.921467320993543,254.03726414375706 32.83285972615704,250.76340190978954 29.903384138597175,249.08839686511783 23.52363730315119,251.6009029696579 22.677344355732203,255.02703351335367 25.541720485780388,256.62588884914294 31.921467320993543,254.03726414375706 32.83285972615704,250.76340190978954 29.838284680852666,249.08839686511783 23.52363730315119,251.6009029696579 22.677344355732203,255.02703351335367 25.541720485780388,256.62588884914294 31.921467320993543,254.11340029764688 32.89795918366872,250.9918113864842 29.903384138597175,249.08839686511783 23.52363730315119,251.67703938105842 22.612244897987694,254.95089745649602 25.606819943292066,256.62588884914294 31.921467320993543,254.11340029764688 32.89795918366872,250.9918113864842 29.968483595876023,249.08839686511783 23.52363730315119,251.6009029696579 22.612244897987694,254.87476139125647 25.541720485780388,256.62588884914294 31.921467320993543,254.11340029764688 32.83285972615704,250.76340190978954 29.903384138597175,249.08839686511783 23.58873676066287,251.6009029696579 22.677344355732203,255.02703351335367 25.47662102803588,256.62588884914294 31.921467320993543,254.03726414375706 32.76776026841253,250.68726540153148 29.903384138597175,249.08839686511783 23.52363730315119,251.67703938105842 22.677344355732203,255.02703351335367" stroke="#4dd2ff" stroke-dasharray="none" stroke-linecap="round" stroke-linejoin="round" stroke-width="0.5"><title>2024-05-07 10.0km</title><desc>1715083186000</desc></polyline><polyline fill="none" opacity="1" points="53.18411266710609,248.33849644695874 53.50934183294885,249.69547107911785 52.0458105863072,250.53679175907746 50.60550999431871,252.2194248707092 52.626576954033226,255.91032350013847 53.044728738837875,258.0 52.85888350114692,256.26312721613795 50.60550999431871,252.19228571426356 52.02257993153762,250.56393109008786 53.579033797141165,249.69547107911785 53.114420702913776,248.22993816743838 52.25488647876773,247.71428571428987 50.53581803024281,248.7184500649455 50.094435590785,248.55561286880402" stroke="#4dd2ff" stroke-dasharray="none" stroke-linecap="round" stroke-linejoin="round" stroke-width="0.5"><title>2024-04-27 10.0km</title><desc>1714177464000</desc></polyline><polyline fill="none" opacity="1" points="64.2192142874701,247.71428571428987 65.1390769291902,248.45118478735094 65.5333037758246,249.98638520133682 64.00895996915642,250.78468621865613 62.221798264887184,252.78042918920983 64.40318681579083,256.8025773168483 64.53459576470777,258.0 62.221798264887184,252.7497255548078" stroke="#4dd2ff" stroke-dasharray="none" stroke-linecap="round" stroke-linejoin="round" stroke-width="0.5"><title>2024-04-20 9.0km</title><desc>1713573009000</desc></polyline><polyline fill="none" opacity="1" points="76.34906327072531,258.0 78.37948691355996,256.12988169147866 77.9487909891177,249.22478496207623 75.54919941187836,247.71428571426077 73.5187757697422,249.65635556011694 73.9494716937188,256.34566483524395 76.34906327072531,258.0 78.37948691355996,256.12988169147866 77.88726300001144,249.15285650250735 75.61072740121745,247.71428571426077 73.45724778040312,249.65635556011694 73.88794370484538,256.34566483524395 76.28753528185189,258.0 78.37948691355996,256.12988169147866 77.88726300001144,249.22478496207623 75.48767142253928,247.71428571426077 73.45724778040312,249.65635556011694 73.9494716937188,256.48952022677986 76.59517522761598,257.9280724677956 78.37948691355996,256.0579539615428 77.88726300001144,249.15285650250735 75.61072740121745,247.71428571426077 73.45724778040312,249.58442714618286 73.9494716937188,256.4175925348536 76.2260072925128,258.0 78.37948691355996,256.12988169147866 77.88726300001144,249.22478496207623 75.61072740121745,247.71428571426077 73.45724778040312,249.65635556011694 73.9494716937188,256.48952022677986 76.2260072925128,258.0 78.37948691355996,256.2018094137311 77.88726300001144,249.22478496207623 75.54919941187836,247.71428571426077 73.45724778040312,249.65635556011694 73.9494716937188,256.4175925348536 76.34906327072531,258.0 78.37948691355996,256.12988169147866 77.88726300001144,249.15285650250735 75.61072740121745,247.71428571426077 73.45724778040312,249.65635556011694 73.9494716937188,256.5614479109645 76.59517522761598,257.9280724677956 78.37948691355996,256.0579539615428 77.88726300001144,249.15285650250735 75.54919941187836,247.71428571426077 73.45724778040312,249.58442714618286 73.9494716937188,256.4175925348536 76.28753528185189,258.0" stroke="#4dd2ff" stroke-dasharray="none" stroke-linecap="round" stroke-linejoin="round" stroke-width="0.5"><title>2024-04-18 10.1km</title><desc>1713436846000</desc></polyline><polyline fill="none" opacity="1" points="88.19159783772193,247.71428571428987 89.33999723719899,248.51287851741654 89.66811135143507,250.1420013095194 88.05488362361211,251.03641794159194 86.25025599566288,253.08078890127945 88.51971195195802,257.9680573283986 88.92985459463671,258.0 86.25025599566288,253.04884571107686 88.13691215217113,250.9725311268703" stroke="#4dd2ff" stroke-dasharray="none" stroke-linecap="round" stroke-linejoin="round" stroke-width="0.5"><title>2024-04-14 10.0km</title><desc>1713054435000</desc></polyline><polyline fill="none" opacity="1" points="94.85714285713038,254.0151779758089 95.02313379442785,253.90807848493205 96.08204149774974,254.10219617863186 96.9062723586685,253.7407351674192 97.1867398044269,253.43282230644763 97.27832101119566,253.58677892430205 98.28571428571013,253.90138476074208 99.24731695684022,253.66041021775163 99.94562365848105,253.7407351674192 101.19914142618654,253.42612853195897 101.58836155495374,253.54661636446326 102.14929644647054,253.5533101262008 102.65299308372778,253.22531496777447 102.95063200575532,253.28555910395517 103.43143334129127,253.16507077418282 103.58025280229049,252.89062427735553 104.96541855475516,252.04050196165917 105.14285714284051,251.73927477748293 105.10279036490829,251.62547746789278 104.98831385644735,251.61208953565801" stroke="#4dd2ff" stroke-dasharray="none" stroke-linecap="round" stroke-linejoin="round" stroke-width="0.5"><title>2024-04-07 10.0km</title><desc>1712456610000</desc></polyline><polyline fill="none" opacity="1" points="152.57142857136205,253.5211200651829 153.30612244899385,251.72450079012197 152.57142857136205,249.92787714098813 149.89981447113678,249.06862080626888 143.62152133579366,251.88072872685734 143.2207792205736,255.3177349662874 146.4935064932797,256.41132450365694 152.70500927628018,253.36489247571444 153.23933209618554,251.1777027513599 151.90352504630573,249.38107777084224 149.4990723556839,249.22484930505743 143.15398886846378,252.58375403261743 143.42115027830005,255.63018928508973 146.29313543601893,256.4894379800535 152.50463821878657,253.67734762147302 153.30612244899385,251.72450079012197 152.6382189237047,249.92787714098813 149.83302411879413,249.1467350598541 143.554730983451,252.03695663047256 143.28756957314909,255.39584855840076 146.5602968458552,256.41132450365694 152.50463821878657,253.67734762147302 152.8385899811983,250.16221960418625 150.16697588097304,249.06862080626888 143.42115027830005,252.27129842381692 143.15398886846378,255.3177349662874 146.22634508367628,256.5675514480099 152.6382189237047,253.5211200651829 152.6382189237047,250.0059913037694 149.89981447113678,249.1467350598541 143.3543599259574,252.27129842381692 143.2207792205736,255.3177349662874 146.22634508367628,256.5675514480099 152.4378478662111,253.75546138733625 152.8385899811983,250.24033374199644 150.16697588097304,249.06862080626888 143.62152133579366,252.03695663047256 143.15398886846378,255.3177349662874 146.22634508367628,256.5675514480099 152.50463821878657,253.67734762147302 152.90538033354096,250.31844787171576 150.10018552839756,249.06862080626888 143.62152133579366,252.03695663047256 143.15398886846378,255.16150775697315 145.8923933210317,256.5675514480099 152.50463821878657,253.67734762147302 152.70500927628018,250.084105458227 149.89981447113678,249.1467350598541 143.554730983451,252.11507056985283 143.2207792205736,255.39584855840076 146.29313543601893,256.4894379800535 152.3710575136356,253.75546138733625 152.90538033354096,250.39656199293677 150.300556586124,249.06862080626888 143.62152133579366,252.03695663047256 143.2207792205736,255.3177349662874 145.95918367337435,256.5675514480099 152.50463821878657,253.67734762147302 152.90538033354096,250.31844787171576 150.03339517628774,249.06862080626888 143.3543599259574,252.27129842381692 143.28756957314909,255.47396214213222 146.15955473086797,256.5675514480099 152.57142857136205,253.5992338474025 152.77179962862283,250.084105458227 150.03339517628774,249.06862080626888 143.554730983451,252.03695663047256 143.02040816331282,255.005280514888 145.8923933210317,256.6456649079919 152.30426716129296,253.8335751448176" stroke="#4dd2ff" stroke-dasharray="none" stroke-linecap="round" stroke-linejoin="round" stroke-width="0.5"><title>2024-03-26 10.6km</title><desc>1711453549000</desc></polyline><polyline fill="none" opacity="1" points="46.99692285925266,266.5999698547603 47.19301099985023,266.6764138635117 47.282141972886166,266.6208182296177 47.24054751879885,266.68336331442697 47.246489583689254,266.593020395012 47.15735861065332,266.7111611108048 47.08605383223039,266.57912147330353 46.69387755100615,265.4810973595013 46.74141406995477,265.35600483952294 47.63866586491349,264.88343094618904 47.87634845962748,264.89038058690494 48.41707636258798,264.6123943841303 48.63099069779855,264.39695426732214 48.57157004912733,264.16761401121767 48.93997807093547,264.0286195266963 49.15389240614604,263.8201272480437 50.56216177975875,263.53518672973587 51.7802850776352,263.0487000594876 52.0476779966848,263.02090071231214 52.32101298053749,262.81240523308225 53.12913380257669,262.5066106656668 53.48565769463312,262.49271087876696 54.668128603254445,262.11046558528324 56.97959183671628,261.8602674606227" stroke="#4dd2ff" stroke-dasharray="none" stroke-linecap="round" stroke-linejoin="round" stroke-width="0.5"><title>2024-01-30 11.7km</title><desc>1706613736000</desc></polyline><polyline fill="none" opacity="1" points="61.23052139437641,259.1530119514173 61.56871682572819,259.14285714285506 61.87222554613254,259.3814945729864 61.954606484549004,259.6302855173708 62.13671171681199,259.76737385107845 62.12370420021762,259.86892051114773 62.132375877932645,259.7622965124101 62.26678688271204,259.73690981093387 62.47490714813466,259.92984840351346 63.155633849673904,259.88922981723226 63.48949344213179,260.1075543121551 63.68460619098914,260.11263161410534 63.871047262102365,259.9755442717651 63.99678658915218,260.00600815963844 64.04014497778553,259.7470644931418 64.0531524943799,259.98569890321596 64.4043554423115,259.7826058638566 64.9289919447474,259.655672275534 64.95934281677182,259.57951196054637 65.07207462722727,259.5642798829758 65.17179892108834,259.77245118920837 64.97235033338075,260.4629641451429 64.8162601343065,260.6102045865955 64.59513235227496,260.6406680695218 64.41736295889132,260.85898912829725 64.32197450389504,260.86914357186834 64.3393178593542,261.0773091888186 64.27861611526168,261.1686986851855 64.0965108829987,261.38194016312264 63.93174900620943,261.447943284722 64.009794105732,261.6053349756985 63.30305237103312,261.9251939104761 63.13395465534995,262.17397160060864 62.71337828562537,262.26028192495505 62.70904244676058,262.49890377446354 62.483578825878794,262.74767847557086 62.071674133854685,262.65629200129115 61.386611593465204,262.71213931190505 61.13079710051534,262.8339877629296 61.25653642756515,263.0370678236868 61.15681213370408,263.433071458061 60.861975091000204,263.6361489710471 60.861975091000204,264.0423014062253 61.2131780389318,263.86968704335595 61.421298304368975,263.96614808774393 61.69012031388411,264.31645234720054 61.902576418200624,264.3519903169108 62.09768916704343,264.2809143510349 62.19741346088995,264.61598583538944 62.591974797454895,264.8444423177134 62.58330311973987,265.0322834955623 62.72204996335495,265.06274415749067 62.69603493018076,265.2911985026476 62.90849103448272,265.5450353822307 62.990871972884634,265.5298052074904 63.04723787808325,265.61103274991183 63.051573716962594,265.96132494410995 62.83478177379584,266.4588369780213 62.79575922404183,266.82435272094517 62.94751358425128,266.8294293087856 63.27703733785893,267.12387048057644 63.40711250374443,267.5604523253387 63.38976914828527,267.96149492203403 63.65425531895016,268.55036149361695 63.58921773600741,268.9006321316483 63.8797189398465,269.42857142857247 64.22225021003396,269.13414446339084 64.34365369820443,267.60614089239243 64.74688671249896,267.3370853684428 65.1457838878996,266.91573121960755 65.0807463049714,266.7634336247065 64.96367865565117,266.78373999875475 65.07207462722727,266.7583570298557 65.0373879163235,266.4233005760434 65.31488160359731,266.2506948188675 65.02004456089344,265.9816316591787 64.75555839022854,265.5348819329338 65.02004456089344,264.7987511086794 64.99836536655494,264.56521757978044 65.15879140450852,264.4687577454606 65.20648563200666,264.52460293645345 65.15445556565828,264.51952610359876 65.17179892108834,264.38752826016935 65.47964348037203,263.8646101408922 65.59237529082748,263.7833796279483 65.80916723400878,263.7935334496142 65.995608305122,263.65137974971367 66.44653554688557,262.9609129021228 66.82808936685615,262.65629200129115 66.89312694981345,262.5141349158548" stroke="#4dd2ff" stroke-dasharray="none" stroke-linecap="round" stroke-linejoin="round" stroke-width="0.5"><title>2024-01-27 16.6km</title><desc>1706316843000</desc></polyline><polyline fill="none" opacity="1" points="73.88333827932365,267.74928205128526 76.51690530823544,269.2186604892486 78.55193437612616,267.18951797886984 78.13295780331828,260.68222591100493 75.73880595876835,259.1428571428987 73.34465411421843,261.3819378041662 74.00304587138817,267.81925252708606 76.2176363277249,269.28863080986775 78.55193437612616,267.3994295615703 78.13295780331828,260.7521971335518 75.91836734721437,259.1428571428987 73.40450791013427,261.3119666482671 73.88333827932365,267.53937057958683 76.57675910438411,269.28863080986775 78.55193437612616,267.18951797886984 78.01325021125376,260.47231219889363 75.61909836647101,259.1428571428987 73.40450791013427,261.1720243137679 73.94319207500666,268.0291639099014 76.33734391978942,269.28863080986775 78.55193437612616,267.32945904135704 78.13295780331828,260.7521971335518 75.55924457032233,259.1428571428987 73.46436170628294,261.03208195004845 73.88333827932365,267.81925252708606 76.51690530823544,269.28863080986775 78.55193437612616,267.18951797886984 78.01325021125376,260.68222591100493 75.8585135510657,259.1428571428987 73.46436170628294,260.96211075707106 73.82348448294215,267.53937057958683 76.1577825313434,269.2186604892486 78.55193437612616,267.1195474367123 78.01325021125376,260.61225468094926 75.73880595876835,259.21282852825243 73.40450791013427,261.2419954848592 73.76363068679348,267.60934107756475 76.1577825313434,269.3586011228617 78.49208058021031,267.3994295615703 77.89354261895642,260.61225468094926 75.55924457032233,259.28279990603914 73.40450791013427,261.3819378041662 73.88333827932365,267.81925252708606 76.27749012410641,269.2186604892486 78.49208058021031,267.3994295615703 78.01325021125376,260.7521971335518 75.20012179366313,259.28279990603914 73.28480031783693,261.3819378041662 73.76363068679348,267.74928205128526 76.45705151208676,269.42857142857974 78.55193437612616,267.3994295615703" stroke="#4dd2ff" stroke-dasharray="none" stroke-linecap="round" stroke-linejoin="round" stroke-width="0.5"><title>2024-01-25 10.3km</title><desc>1706155972000</desc></polyline></svg>