<?xml version="1.0" encoding="utf-8" ?>
<svg baseProfile="full" height="300mm" version="1.1" viewBox="0,0,200,300" width="200mm" xmlns="http://www.w3.org/2000/svg" xmlns:ev="http://www.w3.org/2001/xml-events" xmlns:xlink="http://www.w3.org/1999/xlink"><defs /><rect fill="#222222" height="300" width="200" x="0" y="0" /><text fill="#FFFFFF" style="font-size:12px; font-family:-apple-system, BlinkMacSystemFont, 'Segoe UI', Roboto, 'Helvetica Neue', Arial, sans-serif; font-weight:bold;" x="10" y="20">Over 3km Runs</text><text fill="#FFFFFF" style="font-size:4px; font-family:-apple-system, BlinkMacSystemFont, 'Segoe UI', Roboto, 'Helvetica Neue', Arial, sans-serif;" x="10" y="280">Runner</text><text fill="#FFFFFF" style="font-size:9px; font-family:-apple-system, BlinkMacSystemFont, 'Segoe UI', Roboto, 'Helvetica Neue', Arial, sans-serif;" x="10" y="290">Hannah YAN</text><text fill="#FFFFFF" style="font-size:4px; font-family:-apple-system, BlinkMacSystemFont, 'Segoe UI', Roboto, 'Helvetica Neue', Arial, sans-serif;" x="65" y="280">SPECIAL TRACKS</text><rect fill="yellow" height="2.6" width="2.6" x="65" y="283" /><text fill="#FFFFFF" style="font-size:3px; font-family:-apple-system, BlinkMacSystemFont, 'Segoe UI', Roboto, 'Helvetica Neue', Arial, sans-serif;" x="70" y="285.5">Over 20.0 km</text><rect fill="red" height="2.6" width="2.6" x="65" y="287" /><text fill="#FFFFFF" style="font-size:3px; font-family:-apple-system, BlinkMacSystemFont, 'Segoe UI', Roboto, 'Helvetica Neue', Arial, sans-serif;" x="70" y="289.5">Over 40.0 km</text><text fill="#FFFFFF" style="font-size:4px; font-family:-apple-system, BlinkMacSystemFont, 'Segoe UI', Roboto, 'Helvetica Neue', Arial, sans-serif;" x="120" y="280">STATISTICS</text><text fill="#FFFFFF" style="font-size:3px; font-family:-apple-system, BlinkMacSystemFont, 'Segoe UI', Roboto, 'Helvetica Neue', Arial, sans-serif;" x="120" y="285">Number: 225</text><text fill="#FFFFFF" style="font-size:3px; font-family:-apple-system, BlinkMacSystemFont, 'Segoe UI', Roboto, 'Helvetica Neue', Arial, sans-serif;" x="120" y="290">Weekly: 2.3</text><text fill="#FFFFFF" style="font-size:3px; font-family:-apple-system, BlinkMacSystemFont, 'Segoe UI', Roboto, 'Helvetica Neue', Arial, sans-serif;" x="141" y="285">Total: 2156.7 km</text><text fill="#FFFFFF" style="font-size:3px; font-family:-apple-system, BlinkMacSystemFont, 'Segoe UI', Roboto, 'Helvetica Neue', Arial, sans-serif;" x="141" y="290">Avg: 9.6 km</text><text fill="#FFFFFF" style="font-size:3px; font-family:-apple-system, BlinkMacSystemFont, 'Segoe UI', Roboto, 'Helvetica Neue', Arial, sans-serif;" x="167" y="285">Min: 3.0 km</text><text fill="#FFFFFF" style="font-size:3px; font-family:-apple-system, BlinkMacSystemFont, 'Segoe UI', Roboto, 'Helvetica Neue', Arial, sans-serif;" x="167" y="290">Max: 42.7 km</text><polyline fill="none" opacity="1" points="26.137010864098556,37.515213089063764 25.515045628882945,40.93942490682821 32.538069742615335,42.51515464828117 35.57015026395675,34.48490300800768 35.36282851896249,30.666666666656965 28.236143532791175,31.03031041563372 27.666008733795024,34.60611602663994 25.929689119104296,38.21217987372074 25.540960847050883,40.81821456772741 26.085180427879095,41.15154287678888 32.64173061517067,42.575759465195006 35.5960654822411,34.30308338382747 35.38874373724684,30.696970329998294 28.210228314623237,31.090917662193533 27.89924569707364,33.9091404688952 25.95560433715582,38.18187700526323 25.748282592045143,41.03033262756071 32.56398496078327,42.666666666656965" stroke="#4dd2ff" stroke-dasharray="none" stroke-linecap="round" stroke-linejoin="round" stroke-width="0.5"><title>2026-09-07 5.0km</title><desc>1788776927000</desc></polyline><polyline fill="none" opacity="1" points="39.01471334348025,38.64160357755827 38.97818366311549,38.534795231271346 38.771182141048484,38.07195318456979 38.44444444444525,37.53077190512886 38.62100456621556,37.30764950428056 38.86250634196767,37.219824120422345 39.26636225266702,37.23881342175446 39.65804160324478,37.400221833739124 40.021308980220056,37.61859607087899 40.34601725012908,37.692178215153035 40.70116692034935,37.585365345916216 40.87366818873852,37.47855196779892 41.12531709792529,37.25780270701398 41.43378995433886,37.15336143907007 41.72602739727154,37.1818454694876 42.17453069508338,37.45956286951696 42.56418061898148,37.44057375516422 42.846270928464946,37.2364397599722 43.29680365297099,36.773570908444526 43.47539320142096,36.664379940042636 43.93404363267473,36.55281470560112 44.24657534246944,36.695238311116555 44.34398782344215,36.79968171339897 44.43734145104099,36.81867137062727 44.53678335870791,36.488723787904746 44.80872653476399,36.48397630522959 45.48858447488601,36.03058707670789 45.59005580923986,36.02109191629097 45.661085743282456,36.1136695587611 45.71182141045574,36.11129577783686 46.63926940639067,35.6555251819027 46.801623541352456,35.53920724334057 47.047184170471155,35.45374878137591 47.30492135971872,35.278083141847674 47.696600710303755,35.190249805780695 47.9726027397337,35.211614702995575 48.1938102486165,35.145146067019596 48.715372907150595,35.102416125517266 48.87772704211966,35.11903333467126 49.01775748351065,35.08817279357754 49.3729071537382,35.10479001329077 49.46626078133704,35.171258768948974 49.64282090310007,35.171258768948974 49.69355657026608,35.095294460681544 50.36529680365493,35.140398299769004 50.38762049721845,35.216362455168564 50.44444444444525,35.244848947060746 50.38762049721845,35.225857956484106 50.35717909691448,35.13802441576263 49.82952815830504,35.10953778809562 49.82141045155004,34.836539103473115 49.72602739727154,34.69172975577567 48.91222729579749,34.87214781613147" stroke="#4dd2ff" stroke-dasharray="none" stroke-linecap="round" stroke-linejoin="round" stroke-width="0.5"><title>2026-09-06 10.1km</title><desc>1788673930000</desc></polyline><polyline fill="none" opacity="1" points="53.59055431711022,38.478982270215056 53.73713026905898,38.062658626484335 58.13440882717259,35.68715056104702 58.82540974335279,36.10347847970843 61.17062497441657,39.38509584651911 61.505655721761286,40.119779924687464 61.254382661310956,40.658546765873325 56.438315669074655,42.66666666667152 52.50170438841451,36.17694803462655 54.38625234202482,34.878982462571 56.438315669074655,32.67487329890719 59.9142596720485,30.666666666671517 60.35398752789479,30.862590032425942 64.16496227832977,38.87081560361548 62.59450565034058,40.02182218237431 60.41680579306558,41.0013977389317 60.18647215422243,40.78099360031774 56.45925509079825,42.6421775045892 53.611493738833815,38.283065354815335 57.422468489268795,36.054498763391166 58.59507610462606,35.88306967487733 61.065927865798585,39.23815875092987 61.56847398681566,40.43814230065618 56.98274063342251,42.568710002698936 56.312679138733074,42.593199172610184 53.65337258228101,38.16061719831487 57.108377163647674,36.07898862287402 58.13440882717259,35.66266066019307 58.57413668301888,35.834089912023046 60.98217017913703,39.09122156194644 61.54753456520848,40.36467409900797 56.96180121169891,42.568710002698936 56.04046665667556,42.42177492904011 53.59055431711022,38.209596468674135 58.07159056211822,35.66266066019307 58.61601552646607,35.88306967487733 60.52150290145073,38.478982270215056 61.52659514336847,40.51161047910864 56.626770464354195,42.6421775045892 56.04046665667556,42.34830735721334 53.56961489550304,38.332044599199435 58.26004535739776,35.80960002665233 60.877473070519045,39.01775293247192 61.48471630003769,40.53609986673109 56.522073355852626,42.617688339872984 55.05631383648142,40.97690840055293 53.611493738833815,38.234086100012064 58.23910593567416,35.73613035507151 61.17062497441657,39.434074857621454 61.52659514336847,40.48712108885229 56.60583104274701,42.593199172610184 55.265708053600974,41.22180166760518" stroke="#4dd2ff" stroke-dasharray="none" stroke-linecap="round" stroke-linejoin="round" stroke-width="0.5"><title>2026-09-05 10.4km</title><desc>1788599092000</desc></polyline><polyline fill="none" opacity="1" points="97.23201833688654,33.872822371980874 95.14297557226382,38.48351719675702 94.93407129577827,41.04837515563122 101.88013848790433,42.666666666656965 104.80479835846927,35.002602087770356 105.06592870410532,32.926246773364255 104.72645925474353,30.666666666656965 97.70205295889173,31.002551315148594" stroke="#4dd2ff" stroke-dasharray="none" stroke-linecap="round" stroke-linejoin="round" stroke-width="0.5"><title>2026-09-01 5.0km</title><desc>1788258260000</desc></polyline><polyline fill="none" opacity="1" points="108.91316700761672,40.393977977131726 109.14640397089534,41.00003005715553 115.93619112134911,42.666666666656965 118.73503467952833,35.030361188109964 118.8646107702516,30.666666666656965 111.63426491152495,31.03031041563372 111.21962142142002,33.939443789218785" stroke="#4dd2ff" stroke-dasharray="none" stroke-linecap="round" stroke-linejoin="round" stroke-width="0.5"><title>2026-08-31 5.5km</title><desc>1788172980000</desc></polyline><polyline fill="none" opacity="1" points="123.50573524343781,36.09457190716057 124.5212425540376,36.766189641966776 124.56377689164947,36.91543698451278 124.19160143751651,37.15174450125778 124.02146408703993,37.157963107270916 123.24521242556511,36.324664033032604 121.8149953231914,35.292351769388915 121.80436173878843,35.15553793892832 122.51149510164396,34.98141078470144 123.46320090582594,36.05104086301071 124.5212425540376,36.7724082888235 124.54250972284353,36.91543698451278 124.13843351550167,37.18283752478601 124.01614729483845,37.157963107270916 123.1495101659093,36.23760225357546 121.77777777778101,35.22394489399085 121.9106975828472,35.10578737612741 122.5008615172701,34.96897311106295 123.46320090582594,36.06347830750747 124.55846009944798,36.78484558051423 124.5531433072465,36.89678108744556 124.29793728154618,37.089558404812124 124.02678087924141,37.17661892139586 123.39408260717755,36.467693819096894 121.83094569979585,35.28613296581534 121.79372815441457,35.174194389135664 122.48491114066564,34.98762962051478 123.4791512824304,36.06347830750747 124.47339142419514,36.71644044349523 124.54782651504502,36.89678108744556 124.13311672327109,37.189056127521326 124.02146408703993,37.17661892139586 123.36749864619924,36.4428190987237 121.80967853098991,35.292351769388915 121.79372815441457,35.174194389135664 121.95323192045907,35.07469325296552 122.51681189387455,35.00628612405853 123.47383449022891,36.07591574934486 124.53187613844057,36.791064225388254 124.54782651504502,36.89056245375468 124.40958991780644,37.00249775919292 124.13843351550167,37.18283752478601 123.99488012603251,37.17661892139586 123.22926204896066,36.33088272662644 123.38344902280369,36.100790625110676 123.59612071089214,36.14432163237143 124.51592576183612,36.766189641966776 124.49465859300108,36.95274876087933 124.14906709987554,37.189056127521326 123.97892974942806,37.17040031734359 123.29306355534936,36.386850939343276 121.80436173878843,35.27991416159057 121.88411362181068,35.11200619877491 122.50617830947158,34.98762962051478 123.49510165903484,36.0883531885338 124.52655934623908,36.7724082888235 124.51592576183612,36.93409287566101 124.13311672327109,37.19527472959089 124.01083050263696,37.189056127521326 123.18672771131969,36.26869576106765 121.7830945699825,35.23638251362354 121.93196475162404,35.08713090420133 122.51149510164396,34.98762962051478 123.46320090582594,36.06347830750747 124.52655934623908,36.766189641966776 124.50529217743315,36.9278742459428 124.14375030770316,37.17661892139586 123.98424654162955,37.15174450125778 123.69182297051884,36.75997099444794 123.21862846452859,36.34332011182414 123.39408260717755,36.10700934241686 123.71309013929567,36.2002900228872 124.53719293061295,36.80972015604857 124.37237237239606,37.021153622699785 124.0320976714429,37.18283752478601 123.16546054251376,36.25625836003019 121.79372815441457,35.26125774499451 121.93728154385462,35.09334972882789 122.48491114066564,34.98141078470144 123.54826958107878,36.14432163237143 123.5110520356684,35.67791630403008 124.0320976714429,36.39928831270299 124.51592576183612,36.803501513153606 124.0320976714429,37.18283752478601 123.17609412691672,36.27491446057684 121.7830945699825,35.273695356718235 121.90006399844424,35.09334972882789 122.53807906268048,35.00628612405853 123.40471619160962,36.03238469138523 124.18628464528592,36.48634985247918 124.53187613844057,36.79728286960017 124.53719293061295,36.9029997204525 124.15438389210613,37.17661892139586 124.11716634666664,37.28855368165023 124.50529217743315,37.8109130756784 125.00507064440171,38.21511656144139 125.4995323191979,38.36436022227281 126.17476492887363,38.15915009085802 127.33382562891347,36.791064225388254 128.46098557574442,36.29978925205796 129.19470289960736,36.405506998387864 130.18894304143032,36.69778448321449 130.6515039629885,36.93409287566101 131.34268694923958,37.49998542459434 132.02855314328917,37.68032366270563 132.65061783092096,37.5559525232602 133.777777777781,36.72887774707851" stroke="#4dd2ff" stroke-dasharray="none" stroke-linecap="round" stroke-linejoin="round" stroke-width="0.5"><title>2026-08-29 17.7km</title><desc>1787987556000</desc></polyline><polyline fill="none" opacity="1" points="187.57347998775367,37.15126062012132 187.8154598227702,37.30992480156783 188.39474488237465,37.30134837521473 188.80904369079508,37.095513597996614 189.33333333332848,36.563768915035325 189.2123434157984,36.349353761317616 188.62572563395952,36.88967777470316 188.49007027191692,36.86823648294376 188.3104185762204,36.1435141457805 188.32141765962297,35.87334806270155 188.36174763213785,35.82188765205865 188.6697219675989,35.81331091060565 188.87503819125413,35.740408534820745 189.0253589978529,35.79186904899325 189.18301252671517,36.332200499971805 188.73205010690435,36.79962427305145 188.35808127098426,37.056919460810605 188.16376413076068,37.095513597996614 187.98777879621775,37.04834298088463 187.52215093185077,36.786759470756806 187.39749465321074,36.55519233069208 187.26917201343167,36.47800298975926 186.31225175678264,36.48657959047705 185.6706385578873,36.76531812451867 184.83837457989284,37.32707764881707 184.3800794378185,37.43857097888758 183.86312251756317,37.279907301395724 183.36816376412753,36.88538951725786 182.8182095936354,36.64095809249193 182.04827375496097,36.50802108426433 181.84295753130573,36.52517427114435 181.17567980445165,36.85965996306186 180.4754048273753,37.7173029613441 179.92545065688319,37.97459231959874 179.58814543232438,37.85452415580585 179.3424992361688,37.68728576308786 178.50290253588173,36.67526434636966 177.34433241673105,35.804734167311835 177.40299419492658,35.69323633938984 177.84662389244477,35.611756963309745 178.48823709135468,36.340777131554205 179.2215093186678,36.84250691784837 179.2251756797923,36.93684857659537 178.94286587227543,37.134107698409935 178.85487320498214,37.099801833184756 178.4112435074785,36.59378694597035 177.33333333332848,35.78329230118106 177.42132600060722,35.68894795525193 177.81729300336156,35.60746857054619 178.27192178429686,35.90336660538378 178.7045523984125,35.35874101373338 178.79621142681572,35.37589468738224 179.0528567063884,35.74898529170969 178.5505652306747,36.19068581673855 178.48823709135468,36.327912183514854 178.66055606475857,36.45656148006674 178.57256339749438,36.0363055983471 178.6128933699947,36.0491706390203 178.88787045521894,36.495156189346744 179.23617476320942,36.79962427305145 179.19951115183358,36.93684857659537 178.95386495569255,37.11695476942987 178.82920867705252,37.078360652678384 178.2975863122556,36.49944448811584 177.34799877788464,35.804734167311835 177.42132600060722,35.6803711856337 177.84662389244477,35.62033374744715 178.49190345249372,36.34506544666874 179.2251756797923,36.83821865541904 179.23250840205583,36.902542544288735 179.11885120684747,37.00117230883916 178.8365413993306,37.099801833184756 178.6788878704392,36.85965996306186 178.2975863122556,36.49086789014109 177.3406660556211,35.79186904899325 177.40299419492658,35.697524723065726 177.81729300336156,35.616045355604 178.41857622975658,36.276452350455656 179.21784295752877,36.83821865541904 179.2251756797923,36.915407309817965 178.9355331500119,37.121243002358824 178.8365413993306,37.091225362353725" stroke="#4dd2ff" stroke-dasharray="none" stroke-linecap="round" stroke-linejoin="round" stroke-width="0.5"><title>2026-08-23 15.3km</title><desc>1787469282000</desc></polyline><polyline fill="none" opacity="1" points="44.57735272019636,56.0 47.27349202800542,54.66916497677448 47.19754444179125,53.981563583773095 48.62156168196816,53.22741753711307 47.90005961363204,52.02965061388386 44.63431340968236,48.369764993854915 40.26732720679138,44.0" stroke="#4dd2ff" stroke-dasharray="none" stroke-linecap="round" stroke-linejoin="round" stroke-width="0.5"><title>2026-08-16 14.0km</title><desc>1786833613000</desc></polyline><polyline fill="none" opacity="1" points="112.45006080521853,56.0 112.76045967268874,55.58415467339364 112.8380593895854,55.206111368723214 113.18079147246317,54.90367528589559 113.87918892427115,53.68635711570096 115.19191746800789,50.72236533743853 115.32771697256248,50.02671680950152 114.81038552673999,48.83200028104329 114.51291994540952,47.304548801599594 114.0925881456642,46.10222492752655 113.5299901983526,44.915004779853916 112.69579324199003,44.0 113.07085854021716,44.249547919855104 113.45239048148505,44.77888910799811 114.29952072401647,46.50300179927581 114.93325174509664,49.2025157706812 115.17251753882738,49.58059082138789 115.20485075420584,50.69211989001633 114.15078793332214,53.16464298393112 113.21959133085329,54.896114367453265 112.82512610344565,55.259037551695656 112.80572617423604,55.50854617235018" stroke="#4dd2ff" stroke-dasharray="none" stroke-linecap="round" stroke-linejoin="round" stroke-width="0.5"><title>2026-08-02 17.7km</title><desc>1785623979000</desc></polyline><polyline fill="none" opacity="1" points="153.8557981621707,44.0 153.7486705953197,44.55118818736082 155.2056055039866,48.01690452758339 155.16275447723456,48.31753781026782 155.4984208532842,49.21943079010816 155.76266885141376,50.98978334786807 155.9912076605833,51.27370412134769 156.60540571031743,51.674531710668816 156.78395165500115,52.64318998497038 156.64111489924835,52.91040396960307 157.27673846232938,53.31122325111937 157.24817111121956,53.51998248783639 156.91250473516993,53.82059481918259 156.95535576189286,54.43016631154751 157.1696108955075,55.08148407632689 157.19817824667552,55.66599544561177 157.36244051577523,56.0" stroke="#4dd2ff" stroke-dasharray="none" stroke-linecap="round" stroke-linejoin="round" stroke-width="0.5"><title>2026-07-26 15.2km</title><desc>1785019201000</desc></polyline></svg>