<?xml version="1.0" encoding="utf-8" ?>
<svg baseProfile="full" height="300mm" version="1.1" viewBox="0,0,200,300" width="200mm" xmlns="http://www.w3.org/2000/svg" xmlns:ev="http://www.w3.org/2001/xml-events" xmlns:xlink="http://www.w3.org/1999/xlink"><defs /><rect fill="#222222" height="300" width="200" x="0" y="0" /><text fill="#FFFFFF" style="font-size:12px; font-family:-apple-system, BlinkMacSystemFont, 'Segoe UI', Roboto, 'Helvetica Neue', Arial, sans-serif; font-weight:bold;" x="10" y="20">Over 3km Runs</text><text fill="#FFFFFF" style="font-size:4px; font-family:-apple-system, BlinkMacSystemFont, 'Segoe UI', Roboto, 'Helvetica Neue', Arial, sans-serif;" x="10" y="280">Runner</text><text fill="#FFFFFF" style="font-size:9px; font-family:-apple-system, BlinkMacSystemFont, 'Segoe UI', Roboto, 'Helvetica Neue', Arial, sans-serif;" x="10" y="290">Hannah YAN</text><text fill="#FFFFFF" style="font-size:4px; font-family:-apple-system, BlinkMacSystemFont, 'Segoe UI', Roboto, 'Helvetica Neue', Arial, sans-serif;" x="65" y="280">SPECIAL TRACKS</text><rect fill="yellow" height="2.6" width="2.6" x="65" y="283" /><text fill="#FFFFFF" style="font-size:3px; font-family:-apple-system, BlinkMacSystemFont, 'Segoe UI', Roboto, 'Helvetica Neue', Arial, sans-serif;" x="70" y="285.5">Over 20.0 km</text><rect fill="red" height="2.6" width="2.6" x="65" y="287" /><text fill="#FFFFFF" style="font-size:3px; font-family:-apple-system, BlinkMacSystemFont, 'Segoe UI', Roboto, 'Helvetica Neue', Arial, sans-serif;" x="70" y="289.5">Over 40.0 km</text><text fill="#FFFFFF" style="font-size:4px; font-family:-apple-system, BlinkMacSystemFont, 'Segoe UI', Roboto, 'Helvetica Neue', Arial, sans-serif;" x="120" y="280">STATISTICS</text><text fill="#FFFFFF" style="font-size:3px; font-family:-apple-system, BlinkMacSystemFont, 'Segoe UI', Roboto, 'Helvetica Neue', Arial, sans-serif;" x="120" y="285">Number: 306</text><text fill="#FFFFFF" style="font-size:3px; font-family:-apple-system, BlinkMacSystemFont, 'Segoe UI', Roboto, 'Helvetica Neue', Arial, sans-serif;" x="120" y="290">Weekly: 2.8</text><text fill="#FFFFFF" style="font-size:3px; font-family:-apple-system, BlinkMacSystemFont, 'Segoe UI', Roboto, 'Helvetica Neue', Arial, sans-serif;" x="141" y="285">Total: 2674.1 km</text><text fill="#FFFFFF" style="font-size:3px; font-family:-apple-system, BlinkMacSystemFont, 'Segoe UI', Roboto, 'Helvetica Neue', Arial, sans-serif;" x="141" y="290">Avg: 8.7 km</text><text fill="#FFFFFF" style="font-size:3px; font-family:-apple-system, BlinkMacSystemFont, 'Segoe UI', Roboto, 'Helvetica Neue', Arial, sans-serif;" x="167" y="285">Min: 3.0 km</text><text fill="#FFFFFF" style="font-size:3px; font-family:-apple-system, BlinkMacSystemFont, 'Segoe UI', Roboto, 'Helvetica Neue', Arial, sans-serif;" x="167" y="290">Max: 42.8 km</text><polyline fill="none" opacity="1" points="11.66016713087447,32.71030422834883 11.526462395500857,33.53670097908616 10.781536012713332,35.133638533981866 10.571428571420256,36.373202781578584 13.169120572973043,36.99856300501415 14.2960604854743,33.96106436425907 14.286510147212539,32.676801520945446 14.095503382384777,32.576293334932416 11.555113410227932,32.75497448837996 11.411858336592559,33.815887608681805 10.743334659724496,35.22297698442708 10.609629924350884,36.39553713906935 16.85555113409646,37.88076130760601 17.247115002013743,38.1264354721352 17.94428969360888,38.182270429802884 20.150417827244382,39.00862435105955 20.85714285710128,38.96395673687948 20.475129327503964,36.39553713906935 20.245921209687367,35.92651463990478 17.132510943047237,37.132568285262096 16.874651810561772,37.065565666387556 17.09430959011661,35.35698451833741 17.0274572224007,32.598628495623416 16.903302825288847,32.419947077512916 11.564663748489693,32.743806925158424 11.526462395500857,33.469696078114794 10.857938718632795,34.966128735664824 10.571428571420256,36.35086841938755 13.083167528791819,37.0208972301989 13.264623955416027,36.88689180822985 14.17190608830424,34.44126297982439 14.305610823677853,32.66563394945115 13.656187823275104,32.576293334932416 11.574214086751454,32.72147179514286 11.507361719035544,33.61487330978707 10.81973736564396,35.1224712223775 10.58097890962381,36.35086841938755 13.216872264165431,36.9762287751073 14.276959808950778,34.10624092024227 14.305610823677853,32.72147179514286 14.17190608830424,32.56512575276429 11.574214086751454,32.73263936075091 11.48826104257023,33.67071065342316 10.89614007162163,34.82095336211205 10.59052924788557,36.261530923322425 10.915240748086944,36.47370735301956 16.588141663349234,37.858427264363854 16.826900119369384,37.46758074182435 17.09430959011661,35.28998077264259 16.998806207731832,32.56512575276429 16.721846398722846,32.44228227133135" stroke="#4dd2ff" stroke-dasharray="none" stroke-linecap="round" stroke-linejoin="round" stroke-width="0.5"><title>2026-07-09 10.0km</title><desc>1783598044000</desc></polyline><polyline fill="none" opacity="1" points="29.89816916687414,32.719724880182184 28.89621570543386,31.09222836547997 27.114965107059106,30.63652856979752 25.333714508917183,31.547927823849022 24.832737778313458,32.980123922694474 25.834691239520907,39.034370587032754 27.671605919022113,40.72694501694059 30.677466303575784,39.1645687854616 29.786841004388407,32.65462510212092 27.448949594283476,30.571428571478464 25.667698995908722,31.157328308850992 24.88840185920708,32.65462510212092 25.779027158394456,39.034370587032754 27.83859816286713,40.79204394062981 30.677466303575784,38.96927147731185 29.786841004388407,32.78482465108391 27.61594183789566,30.571428571478464 24.777073696954176,32.32912610931089 25.667698995908722,39.099469689594116 28.116918568732217,40.85714285715949 29.56418467964977,40.4014502959908 30.733130384935066,38.578676675329916 29.89816916687414,32.65462510212092 28.951879786560312,31.22242824517889 27.170629188185558,30.63652856979752 24.721409615594894,32.78482465108391 26.057347564492375,39.22966787428595 28.172582649625838,40.6618460866157 30.677466303575784,38.578676675329916 29.731176923494786,32.2640262900386 27.114965107059106,30.76672854583012 24.94406594056636,32.39422592159826 25.89035532088019,39.22966787428595 28.005590406246483,40.79204394062981 29.61984876077622,40.4014502959908 30.733130384935066,38.64377582632005 29.61984876077622,32.65462510212092 28.784887542948127,31.22242824517889 27.059301025932655,30.70162856130628 24.777073696954176,32.78482465108391 25.834691239520907,39.1645687854616 28.673559380462393,40.72694501694059 30.399145897710696,39.620262262935285 30.788794466061518,38.05788322020089 29.341528354911134,31.87342722999165 26.502660213969648,30.831828523485456 24.777073696954176,32.84992441511713 25.834691239520907,38.96927147731185 27.059301025932655,40.59674714936409 28.395238974597305,40.6618460866157 30.120825491612777,39.94575739733409 30.733130384935066,38.31828000303358 29.731176923494786,32.2640262900386 26.89230878232047,30.70162856130628 24.777073696954176,32.52442552574212 25.89035532088019,39.42496509948978 28.172582649625838,40.72694501694059 30.733130384935066,38.8390732377884 29.675512842135504,32.39422592159826 26.89230878232047,30.76672854583012 24.94406594056636,32.84992441511713 25.723363077035174,39.1645687854616 28.005590406246483,40.6618460866157 29.89816916687414,39.880658384179696 30.788794466061518,38.38337918149773 29.397192436270416,31.808327362465207 26.94797286344692,30.63652856979752 25.500706752529368,31.287528174521867 24.777073696954176,32.91502417245647 26.057347564492375,39.42496509948978 29.007543867686763,40.53164820512757" stroke="#4dd2ff" stroke-dasharray="none" stroke-linecap="round" stroke-linejoin="round" stroke-width="0.5"><title>2026-07-08 4.7km</title><desc>1783508969000</desc></polyline><polyline fill="none" opacity="1" points="44.453314069018234,39.838659477449255 44.938775510236155,36.219904063342256 44.77189813979203,31.997924054798204 44.33194870868465,31.589911951115937 36.17012822831748,32.05114295166277 36.07910420803819,33.4170888580702 35.01715730538126,35.75868452791474 34.65306122449692,37.81642343000567 38.76431280479301,38.827544501575176 40.55445186927682,34.07344851792732 40.38757449883269,31.838267262879526" stroke="#4dd2ff" stroke-dasharray="none" stroke-linecap="round" stroke-linejoin="round" stroke-width="0.5"><title>2026-07-03 5.0km</title><desc>1783051432000</desc></polyline><polyline fill="none" opacity="1" points="59.57607271360757,40.8571428571413 60.485064355816576,40.447137599509006 60.68958747530996,40.26111515053708 60.7707474433555,40.063702517174534 60.76100824718014,39.494236911967164 60.4071507864719,38.82984894819674 60.403904387756484,38.753918111764506 60.475325159641216,38.69696987897623 60.585702716198284,38.715952633276174 60.86489300629182,38.924762267739425 61.74791345871927,39.870085225542425 61.929711787146516,39.95740295699943 62.09527812198212,39.94601369973316 62.221887672145385,40.09407376224772 62.488092367348145,39.828324496240384 62.65365870218375,39.554980340493785 62.66339789835911,39.410714529800316 62.93934178973723,39.0196753361779 63.319170440227026,38.58686970591225 63.55291114820284,38.46537946764511 63.500968768654275,38.39324444399608 63.74444867282,37.88449857947853 64.0593493488559,36.859391712863726 64.04636375397968,35.986129422650265 63.99442137441656,35.838052404364134 64.05610295012593,35.659599800805154 64.56578754950897,35.45456805382855 65.21182089520153,34.96096830004899 65.38388002746797,34.949577456300176 65.42283681215486,34.81288704923645 65.5948959444213,34.60025649160525 65.52672157123743,34.09145682556118 65.21182089520153,33.294069693482015 65.03651536420512,32.667538793870335 65.29298086327617,32.549825706340926 65.90330382302636,32.42831501712135 66.26040768245002,32.42072058538179 66.50064118788578,32.32958727895311 66.63374353549443,32.01061888245749 66.5882939533767,31.687850354846887 66.61751154188823,31.327105620930524 66.53635157382814,30.94737040093969 66.59803314955207,30.776488239825994 66.70841070609458,30.768893458207458 66.91293382558797,30.856233349699323 67.49079279812577,31.296726951313758 67.68233032274293,31.368876249591267 67.82841826522781,31.28533494358271 67.97450620772725,31.008128306399158 68.08163736555434,31.02331776668143 68.17902932720608,30.966357257453637 67.77972228439467,30.894207149205613 67.72128710740071,31.106859683190123 67.60766315212823,31.148630568444787 67.00058659109345,30.6929455535319 66.7019179086492,30.571428571427532 66.56881556104054,30.58282080598292 66.4064956249349,30.68155335395204 66.36104604283173,30.82205689575494 66.44869880832266,31.862525448155793 66.44869880832266,32.0296051759542 66.3805244351679,32.13592823374711 65.05274735781131,32.42451780144984 64.85471703577787,32.595392108640226 64.8449778396025,32.84980345733857 65.37089443259174,34.269917231824365 65.38388002746797,34.573677583266544 64.54306275844283,35.24194130044634 63.8515798306471,35.564677841437515 63.88729021658946,36.64297651812376 63.62433192010212,37.709852813219186 63.319170440227026,38.37046493270827 62.81273223955941,38.890593501630065 62.53678834819584,39.31959898205605 62.37771481080563,39.425900431924674 62.14722050153068,39.714431351105304 61.91997259098571,39.76758153049377 61.494694358392735,39.36136030349007 60.835675417794846,38.598259394653724 60.566224323862116,38.50714178345879 60.196134869533125,38.49195549241995 59.852016605000244,38.25656715932564 59.78384223184548,38.359075171654695 59.79358142800629,38.412227359025565 60.131206895108335,38.62483532099213 60.316251622251,39.03106488751655 60.31949802098097,39.16773922156426 60.50778914686816,39.49044044426046 60.61167390597984,39.99536712179179 60.43961477369885,40.29148622848879 59.88772699095716,40.5610284188042 60.06952531938441,40.6673261906617 60.27729483760777,40.602788295316714" stroke="#4dd2ff" stroke-dasharray="none" stroke-linecap="round" stroke-linejoin="round" stroke-width="0.5"><title>2026-06-28 15.3km</title><desc>1782609425000</desc></polyline><polyline fill="none" opacity="1" points="85.99819526623469,30.571428571427532 85.93352953146677,30.782989714487485 85.94322939167614,30.97188253623972 86.17925932361686,31.266553349025344 86.15985960319813,31.345887384435628 86.01759498668252,31.402554444997804 86.201892330806,31.421443445262412 86.29565764623112,31.63677734423618 86.39912282188016,31.68966617402839 86.28595778602175,31.85210994870431 86.06286100101715,32.00699751288994 86.46378855666262,32.50943305013061 86.42175582905475,32.65298476639509 87.00051415534108,33.29140516796542 87.3723421303439,33.37828990517664 87.4337745783996,33.54450359789553 87.33354268947733,33.604944749520655 87.33354268947733,33.66538579914777 87.57927248164196,33.9411467941718 87.79913597990526,33.827820614769735 87.82823556056246,33.88826128840083 87.72800367164018,33.9713670481251 87.72800367164018,34.062027657058934 87.87026828817034,34.20179564633145 88.03516591186053,34.21312816211503 88.12246465380304,34.27734568378219 88.10953150685236,34.54176956023366 88.32939500511566,34.81752380969192 88.45549318792473,34.874185378910624 88.74002242097049,34.82885613070539 88.73678913424374,34.991285671345395 88.81762130270363,35.08572111227841 88.86935389054997,35.30858776600144 89.32524732073944,35.86385967017486 89.59361012009322,35.727875509699516 89.73264144986751,35.82608634403732 89.78760732444061,36.018729891035036 89.59037683333736,36.120717231904564 89.37697990855668,36.36624112116624 89.69384200900095,36.944159943152044 89.98160452877346,38.28882387491467 89.99130438899738,39.11599375680089 89.88137263986573,39.87893717940824 89.96867138180824,40.00735180223273 89.916938793991,40.18864225120706 89.79407389790867,40.33971692490377 89.700308582469,40.687186257920985 89.71970830290229,40.838258830346604 89.79730718463543,40.8571428571413 89.84580648572592,40.80426755707231 89.78760732444061,40.33971692490377 89.91047222050838,40.196196000015334 89.95897152159887,40.00735180223273 89.87813935312442,39.84872190716851 89.99777096246544,38.908258823717915 89.96543809509603,38.26238434007246 89.67444228855311,36.917719416192995 89.3608134748647,36.35868656502862 89.59037683333736,36.101830709190835 89.7779074642167,36.00362063066859 89.71970830290229,35.81475433843298 89.5839102598693,35.727875509699516 89.30584760030615,35.86385967017486 88.86935389054997,35.316142543531896 88.80145486901165,35.07438887250828 88.72708927401982,34.99884051578556 88.72708927401982,34.82885613070539 88.45872647466604,34.87796281367628 88.32939500511566,34.82885613070539 88.10629822011106,34.53799209001954 88.13863108750957,34.349118071786506 88.09659835988714,34.247125687918015 87.88320143512101,34.2093506572528 87.71830381143081,34.05825013627327 87.72477038491343,33.96381198702511 87.84440199423989,33.88826128840083 87.82500227382116,33.82404306927856 87.62453849599115,33.9411467941718 87.56310604794999,33.92603665761635 87.32060954252665,33.62383258848058 87.427308004917,33.53317087062169 87.35617569666647,33.37451231229352 87.0134473023063,33.30651557218516 86.41852254231344,32.64542942724802 86.44762212297064,32.49809999540594 86.06609428777301,32.01077524999346 86.39912282188016,31.697221714766783 86.29889093297243,31.629221790753945 86.20835890427406,31.42899904258229 86.02082827340928,31.391221040052187 86.15339302971552,31.345887384435628 86.1695594634075,31.277886793417565 85.920596384487,30.945437601167214" stroke="#4dd2ff" stroke-dasharray="none" stroke-linecap="round" stroke-linejoin="round" stroke-width="0.5"><title>2026-06-21 12.1km</title><desc>1782018676000</desc></polyline><polyline fill="none" opacity="1" points="101.9042471042194,34.76890009816634 101.49189189187018,34.676796695424855 101.34362934360979,34.942270759846 101.27413127411273,35.4298725993649 100.78301158300019,35.8253684594747 100.30579150578706,36.480909665748186 100.05096525096451,36.632603956084495 99.52277992275776,36.502580306150776 99.12432432430796,36.60551572290933 98.70270270269248,36.497162646919605 98.5683397683315,36.56759217238505 98.44787644786993,36.7734625377052 98.28571428571013,36.81138593579453 98.00772200769279,36.654274532302225 97.3359073358879,36.665109816996846 96.74749034747947,37.11477210971134 96.29343629343202,37.04976093801088 96.05714285714203,36.930573575584276 94.9220077219943,36.96307924737994 94.85714285713038,36.73012147692134 95.61235521236085,36.81138593579453 96.00154440151528,36.71928620599647 96.47413127409527,36.89265026573776 96.75212355211261,36.79513305432556 96.77528957524919,36.865562170070916 97.07181467179907,36.540503904812795 97.32664092662162,36.442986022953846 98.02625482625444,36.464656679414475 98.32741312740836,36.632603956084495 98.71196911195875,36.312961891671875 99.11042471040855,36.388809341700835 99.564478764456,36.302126532493276 100.04633204633137,36.42673302460025 100.46332046331372,35.96081154515923 100.69498069497058,35.4298725993649 101.14903474901803,35.0993874150663 101.26023166021332,34.785153622615326 101.44555984556791,34.606364569812285 101.76061776062124,34.63345386035144 102.79382239381084,34.31379931886113 103.372972972953,34.422157014087134 104.71196911195875,35.06146274931598 104.92046332044993,35.01270242352257 105.14285714284051,35.08313399031613" stroke="#4dd2ff" stroke-dasharray="none" stroke-linecap="round" stroke-linejoin="round" stroke-width="0.5"><title>2026-06-18 10.3km</title><desc>1781755773000</desc></polyline><polyline fill="none" opacity="1" points="117.18367346937885,36.25753207775415 116.78716130784596,36.06927988600728 116.28680072302814,35.988600182965456 115.45129295409424,36.18223127643432 114.81404126589769,36.04776530980598 114.3703252755804,36.19836717086946 112.13758417550707,35.34315840529598 111.21238913189154,35.187175534487324 107.55881278624292,35.176418079227005 106.89795918366872,35.41308162119458 107.52104972323286,35.176418079227005 110.9810903709731,35.17103935081468" stroke="#4dd2ff" stroke-dasharray="none" stroke-linecap="round" stroke-linejoin="round" stroke-width="0.5"><title>2026-06-15 11.4km</title><desc>1781479179000</desc></polyline><polyline fill="none" opacity="1" points="134.13041343499208,30.704857654229272 134.95005306019448,30.75337728219165 135.40656120580388,30.571428571427532 136.6308330508764,30.898936043071444 136.25732638628688,31.784414526904584 135.56218898267252,32.18469707832264 134.7840500980965,32.03913994845789 133.90215936221648,32.25747557402792 133.424900846323,31.990620864169614 132.6882627022569,32.08765901226434 132.35625677811913,31.796544321696274 132.47038381453604,31.408390252086974 133.43527603149414,31.238572433743684 134.18228936073137,30.69272774401179 134.90855231962632,30.75337728219165 135.34431009500986,30.571428571427532 136.5789571252535,30.862546370168275 137.36747119494248,30.668467919742397 137.58535008266335,31.080884234521363 136.27807675657095,33.688776608978515 135.7281919447123,36.017635052630794 137.33634563960368,36.74539362408541 139.88864118105266,37.37611398631998 139.59813599748304,39.765542379529506 137.48159823135938,39.2803832790305 137.10809156676987,39.80192922937567 137.36747119494248,40.23857052784297 137.12884193699574,40.46901943235571 136.84871193853905,40.43263279398525 136.76571045751916,40.11728144495282 136.1224489795859,40.177926002434106 134.97080343042035,39.886831834184704 134.54542084014975,40.857142857144936 132.63638677663403,40.52966380400903 133.64277973404387,36.43003214310738 134.40016824833583,34.99876529895846 134.68029824685073,34.02840474231198" stroke="#4dd2ff" stroke-dasharray="none" stroke-linecap="round" stroke-linejoin="round" stroke-width="0.5"><title>2026-06-11 10.1km</title><desc>1781164397000</desc></polyline><polyline fill="none" opacity="1" points="167.98549946294224,33.46125201907853 168.16595059077372,33.465648535660875 168.72234156820923,33.790989470813656 169.06068743286596,33.77780002298459 169.36143931257538,33.421683349002706 169.440386680988,32.90728720830157 169.6058002148202,32.678664656774345 169.80504833512532,32.621508822296164 171.06820622985833,32.55555968479166 171.34264232008718,32.71823403457893 171.56444683136942,33.34694242491605 171.98549946294224,33.492027625310584 172.56444683136942,33.39530421467498 172.97798066594987,33.17987399071353 173.44038668100256,33.44806246657026 173.63211600430077,33.43926942924736 173.97798066593532,33.311770178814186 174.28625134265167,32.96444264957972 174.45542427497276,33.05237394417418 174.4704618689575,33.289787509878806 174.70354457573558,33.48763111153676 175.1809881847439,32.85892485040313 175.47422126746096,32.78418291381968 176.50429645543045,32.92927007963954 176.91783028999635,33.4964241386333 176.87647690654558,33.60633682027765 176.92534908700327,33.83935074364854 177.1283566057973,34.29658181382911 177.33136412459135,34.38451028887721 177.3877551020414,34.70105125824557 176.92158968851436,34.929662680722686 176.55692803437705,35.20663252659142 174.95918367347622,37.19372712240511 174.74113856068288,37.3915521354611 174.21482277121686,36.48594547421453 174.10204081633128,36.42439867418216 173.92910848549218,36.44198348350983 173.72610096669814,36.34087072832699 173.6960257787432,36.26173883525189 174.3839957035525,35.87926589421113 174.4215896884998,35.487996828705946 174.49301825993462,35.36490018097902 174.7937701396586,35.584715367498575 174.98925886143115,35.61988568942252 175.53061224491103,35.14068749266153 175.65843179378135,34.81535712672121 175.69978517723212,34.512006247172394 176.29752953813295,34.03279527209088 176.39151450053032,33.80857539471981 176.38775510202686,33.302977112634835 176.32384532761353,33.197460173323634 176.1734693877661,33.13590850163018 175.99677765842353,33.162287800656486 175.61331901181256,33.56676828837226 175.47422126746096,33.5623717825074 175.30128893662186,33.351338953580125 175.34264232007263,33.58435430721511 175.5230934479041,33.782196506061155 176.0381310418743,33.71185272106959 175.6396348012786,34.01960590103772 175.3351235230948,34.08115626345534 175.3351235230948,34.1866709583046 175.04564983888122,34.73182594607715 174.9027926960116,34.75380785200832 174.7073039742245,34.64389820608267 174.4704618689575,34.604330662376015 173.77497314715583,34.819753499996295 173.18098818475846,34.77578974629796 172.8990332975227,35.22421785130064 172.10955961332365,35.6726411164891 172.04189044037776,35.91003970937891 171.76745435016346,36.134248246089555 171.67346938775154,36.3980214462681 171.21482277121686,37.08822006369883 170.99677765843808,37.28604557902872 170.6433941997966,37.448701408331544 170.47046186897205,37.44430531320904 170.29001074115513,37.27725335389914 170.07948442535417,37.242084434783465 169.9704618689575,37.242084434783465 169.7599355531711,37.3915521354611 169.5418904403923,37.448701408331544 169.26745435016346,37.31681835232666 169.000537056927,36.987108881054155 168.99301825994917,36.77169728019362 168.7298603652016,36.631019713600836 168.59828141782782,36.11666330654043 168.3351235230948,35.86607710931639 168.34264232008718,36.314493447389395 168.25617615469673,36.81126275999122 167.9892588614457,36.94314742054485 167.94790547798038,36.86401667444807 167.84640171859064,36.987108881054155 167.78249194416276,36.97392044778098 167.57572502686526,37.12338911302504 167.5569280343916,37.06184325715731 167.3839957035525,37.15416200677646 167.31256713213224,37.09261619648896 167.24113856068288,37.17174650727247 167.32760472610244,37.308026133705425 167.65091299678897,37.378363830561284 167.78625134263712,37.611356600966246 167.51181525242282,38.19163480368297 167.10204081633128,38.152070638159785 167.2599355531711,38.415831030091795 167.47798066594987,38.53891864008983 167.98549946294224,38.644422015622695 168.27121374866692,38.87301174378081" stroke="#ff8800" stroke-dasharray="none" stroke-linecap="round" stroke-linejoin="round" stroke-width="0.5"><title>2026-06-06 21.6km</title><desc>1780740439000</desc></polyline><polyline fill="none" opacity="1" points="31.0132656453643,46.49743041716283 32.04590766201727,46.70564354333328 30.016231973888353,42.0 30.657182191265747,43.45750622812193 26.989522614516318,47.03878431615885 23.46429641963914,52.28571428571013" stroke="#4dd2ff" stroke-dasharray="none" stroke-linecap="round" stroke-linejoin="round" stroke-width="0.5"><title>2026-06-01 10.0km</title><desc>1780286606000</desc></polyline><polyline fill="none" opacity="1" points="34.65306122414768,52.13134986301884 44.93877551052719,42.154364422662184" stroke="#4dd2ff" stroke-dasharray="none" stroke-linecap="round" stroke-linejoin="round" stroke-width="0.5"><title>2026-05-30 10.0km</title><desc>1780128842000</desc></polyline><polyline fill="none" opacity="1" points="49.267642451275606,52.285714285713766 49.472472536814166,51.8932868081647 49.5509181014495,51.954444547445746 49.73395775232348,51.69452361917865 49.799329056200804,51.42950475787802 50.22206348797772,50.81282060897138 50.684020702086855,50.32354492266313 50.98908678686712,50.1655485872252 50.919357396051055,50.05851851710031 51.25493008934427,49.35007538833088 51.67766452109208,47.97902994744072 51.60793513030512,47.03099800395648 51.65587408648571,46.82202071002757 51.58614469569875,46.582460257286584 51.63844173878897,46.39896633843455 52.396748863800894,46.08294739453413 53.22478537968709,45.46109760977197 53.46883824749966,45.42541746045026 53.49062868213514,45.2317247599276 53.739039636886446,44.94118424804037 53.712891115341336,44.50282156092726 53.06353616344859,42.76462324223394 52.98944868569379,42.351728199853824 53.15505598884192,42.25997326506331 53.704174941492965,42.178413176177855 53.7085330284026,42.351728199853824 53.320663292048266,42.46387288268306 53.31194711817079,42.60660210113929 53.60829702910269,42.76462324223394 53.78697859306703,42.76462324223394 53.99616676548612,42.67796655166967 53.730323463038076,42.36192318183021 53.74339772382518,42.178413176177855 54.40582693647593,42.0" stroke="#4dd2ff" stroke-dasharray="none" stroke-linecap="round" stroke-linejoin="round" stroke-width="0.5"><title>2026-05-23 13.0km</title><desc>1779516917000</desc></polyline><polyline fill="none" opacity="1" points="69.02040816331282,46.91124462933658 68.81673065264476,46.99066225480783 68.94120024249423,47.73189099191222 67.40230349567719,48.64518463973218 62.695089917164296,49.4922916217256 62.00484946457436,49.34669551783736 61.552232774323784,49.1613911403183 61.178824004891794,48.684892907775065 60.726207314641215,46.07735651458643 60.398060214240104,45.574373691262736 59.70781976159196,44.925787588399544 58.73469387757359,44.793422663991805" stroke="#4dd2ff" stroke-dasharray="none" stroke-linecap="round" stroke-linejoin="round" stroke-width="0.5"><title>2026-05-17 11.1km</title><desc>1779003218000</desc></polyline><polyline fill="none" opacity="1" points="89.12976758298464,52.28571428573923 91.15456137270667,49.547805116395466 89.12976758298464,42.73998449620558 86.21912651066668,42.00000000005821 84.7638059745077,44.81193691899534 86.72532495786436,51.323747420858126" stroke="#4dd2ff" stroke-dasharray="none" stroke-linecap="round" stroke-linejoin="round" stroke-width="0.5"><title>2026-05-12 8.1km</title><desc>1778560494000</desc></polyline><polyline fill="none" opacity="1" points="117.18367346934974,49.8839087033557 116.45899814466247,50.49908625778335 114.90445269009797,51.01856724356185 113.65380333946086,50.43073334087967 112.87068645638647,49.63783686095849 111.15250463818666,47.20443450464518 110.2875695732655,46.34316313180898 106.93302411865443,43.89602740255941 107.22523191093933,43.52690234495094 108.52263450832106,43.26714704214828 110.33432282001013,45.38618820156262 112.96419294987572,47.272789129434386 112.96419294987572,47.51886547902541 111.8538033394725,48.16139595869754 110.2875695732655,46.34316313180898 107.58756957325386,44.442877399895224 106.94471243035514,43.90969868069806 106.94471243035514,43.70462935628893 108.53432281996356,43.294489730207715 110.41614100174047,45.49555712399888 112.777179962839,47.04038325752481 112.98756957327714,47.53253637360467 112.08756957325386,48.134054301306605 111.77198515768396,48.07937096909154 110.27588126150658,46.37050516845193 106.93302411865443,43.89602740255941 107.07328385888832,43.60893022675009 108.58107606670819,43.32183241251914 110.38107606675476,45.45454378890281 109.96029684593668,46.042400346603245 107.75120593688916,44.57958953730122 106.89795918366872,43.89602740255941 106.94471243035514,43.67728675507533 108.54601113166427,43.30816107208375 110.15899814467411,45.16745007870486 112.89406307972968,47.19076357531594 112.9291280147736,47.55987815839762" stroke="#4dd2ff" stroke-dasharray="none" stroke-linecap="round" stroke-linejoin="round" stroke-width="0.5"><title>2026-05-10 15.1km</title><desc>1778395698000</desc></polyline><polyline fill="none" opacity="1" points="118.93877551017795,47.131880571716465 119.61447936831973,46.47322034275567 125.73335319536272,46.736684685529326 126.1650528825121,47.7466282305395 129.2244897959754,47.81249394296901 126.01489646965638,47.72467298837728 125.67704454041086,46.78059537670924 119.46432295546401,46.49517571742763 118.95754506182857,47.17579117923742" stroke="#4dd2ff" stroke-dasharray="none" stroke-linecap="round" stroke-linejoin="round" stroke-width="0.5"><title>2026-05-09 10.3km</title><desc>1778316787000</desc></polyline><polyline fill="none" opacity="1" points="173.35581538412953,52.285714285717404 173.04161651647883,51.66912023101031 173.3670367723098,50.68518720340944 172.7723032013164,48.940326784977515 172.57031821500277,47.26103945571958 172.05413436092203,46.77561622833309 171.8184852101258,45.80476407691458 171.7848210458178,44.47966982802609 171.4706221781089,43.836797223346366 171.45940078992862,42.984001893913955 171.1227591460338,42.0" stroke="#4dd2ff" stroke-dasharray="none" stroke-linecap="round" stroke-linejoin="round" stroke-width="0.5"><title>2026-05-02 12.6km</title><desc>1777678663000</desc></polyline><polyline fill="none" opacity="1" points="179.14285714286962,45.79009495797072 180.58439615249517,45.958069187468936 181.64631278943853,47.24185579190089 181.75917349482188,47.703771898737614 181.95924474528874,47.79975399421528 183.2109725685732,47.307844037524774 183.30844317778246,47.18786535195977 185.0372639829293,47.12187696671026 185.0218738867261,47.30184510928302 185.68364802279393,47.361834363218804 186.17100106878206,47.67377746056809 187.0071962950169,47.76376072744824 188.5564659779484,48.35764670757271 189.10024937658454,48.47162411357931 189.42857142857974,48.495619327739405" stroke="#4dd2ff" stroke-dasharray="none" stroke-linecap="round" stroke-linejoin="round" stroke-width="0.5"><title>2026-04-26 11.2km</title><desc>1777162036000</desc></polyline><polyline fill="none" opacity="1" points="44.93877551006153,62.304917762230616 40.09148486959748,60.02335009264061 34.65306122438051,54.837939380609896" stroke="#4dd2ff" stroke-dasharray="none" stroke-linecap="round" stroke-linejoin="round" stroke-width="0.5"><title>2026-04-19 10.0km</title><desc>1776585792000</desc></polyline><polyline fill="none" opacity="1" points="94.85714285714494,59.8355964533057 95.25466988462722,59.6156297616908 95.64029490528628,59.56551051122551 95.79740139518981,59.43742754813866 96.4710549806623,59.147846374762594 96.51152180381177,59.161768619553186 96.57817304195487,59.29263736017492 96.6686282937153,59.27871518469874 96.83525638906576,59.33718827217854 97.58746321949002,59.28149962038151 97.68982047805912,59.306559528287835 98.22303038317477,59.29263736017492 98.35633285946096,59.36503255383832 98.52772175753489,59.37617025824511 98.58009058750758,59.367816980386124 98.60865540383384,59.28985292567086 98.75147948556696,59.2870684908703 99.42751347241574,59.32883498193587 99.47988230237388,59.44856522186819 100.11068866333517,59.47640938557015 100.83909148014209,59.45970289089564 101.4437134261243,59.37617025824511 102.32684233147302,59.15898417117933 102.87195424338279,58.93065840135023 102.91242106654681,58.90281365960982 102.91480146790855,58.830417193041285 103.10761397823808,58.76915848866702 103.43848976757727,58.59373504554242 103.4551525771094,58.47678543307666 103.53132542069943,58.40717232149109 104.23830462525075,57.886460399851785 104.61202763910114,57.516108210300445 104.9024366052763,57.307260689553004 104.9690878434194,57.36573816264172 105.14285714285506,57.390799896995304 104.96432704069593,57.524462076617056 104.97860944886634,57.60243136749159 103.76460475417844,58.457293780418695 103.66224749562389,58.457293780418695 103.64320428473002,58.393249677052154 103.5432274275081,58.409956849498485 103.45039177438593,58.485138994079534 103.440870168939,58.59373504554242 103.11475518232328,58.77194297833012 103.02191952920111,58.677270164458605 102.56488246769004,59.003054591861655 102.25066948786844,59.07823504020962 101.99120573941036,59.18125974987015 101.93645650807593,59.24808637267415 101.6127219228365,59.33997270166947 100.8890799087385,59.45691847407943 100.0702218401857,59.481978214771516 99.47750190101215,59.44578080388237 99.43703507786267,59.41793660774783 99.42275266967772,59.32326612028373 98.63960062155093,59.2731463124328 98.55390617251396,59.367816980386124 98.34919165536121,59.36224812700311 98.2492147981684,59.29263736017492 97.71600489305274,59.31769725746926 97.57318081131962,59.28149962038151 96.79716996727802,59.345541559770936 96.5876946474018,59.41793660774783 96.14255959268485,59.406798921043446 95.89261744967371,59.47084055519008 95.63791450392455,59.62119856140271 95.5284160412557,59.58221693865926 95.29751710913843,59.59057014840437 95.1546930274053,59.640689351097535" stroke="#4dd2ff" stroke-dasharray="none" stroke-linecap="round" stroke-linejoin="round" stroke-width="0.5"><title>2026-04-12 19.4km</title><desc>1775975191000</desc></polyline><polyline fill="none" opacity="1" points="122.40233264677227,57.77149426238611 122.15354746056255,58.24941770498117 122.2779400536092,59.911751058418304 121.65597708825953,61.71952261374099 122.43787338759284,63.46494143434393 122.86436227802187,63.71428571428987 124.78356228524353,63.27793301673955 126.13411043852102,63.42338402364112 126.95154747867491,62.155878772755386 126.36512525426224,60.68057547704666 126.56059932906646,59.26759855332784 126.22296229074709,57.45980443424196 125.29890302813146,56.19226070478908 125.06788821239024,54.19742122144089 124.51700672879815,53.449351192321046 123.61071783641819,53.511690470259055 121.12286597513594,54.675353359634755 121.62043634743895,56.607849714011536 122.40233264677227,57.81305286877614 122.13577709021047,58.24941770498117 122.2779400536092,59.911751058418304 121.70928819966502,61.76108038498205 122.70442894403823,63.65194967396383 124.6591696923133,63.21559683799569 126.16965117945801,63.27793301673955 127.04039933090098,62.010426827459014 126.41843636555132,60.74291246017674 126.4539771063719,58.581885501000215 126.15188080910593,57.23123157933878 125.29890302813146,56.213040176124196 124.99680673051625,54.09352277664584 124.42815487657208,53.428571428579744" stroke="#4dd2ff" stroke-dasharray="none" stroke-linecap="round" stroke-linejoin="round" stroke-width="0.5"><title>2026-04-09 10.0km</title><desc>1775707979000</desc></polyline><polyline fill="none" opacity="1" points="160.08371186934528,55.61049371884292 159.79104813103913,55.642974028793105 159.639995879028,55.77830844801065 159.7957685139263,55.68628107900804 159.98930421183468,55.76206833521064 160.48022403087816,55.691694457887934 160.55575015686918,55.53470625470436 160.37165522473515,55.37771760542455 160.3338921617251,55.112459908505116 160.51798709385912,55.39395783121654 160.73512470614514,55.4859856871517 160.99946614718647,55.44267847992887 160.94282155268593,55.68628107900804 161.42902098884224,55.32899689943952 161.4809452004847,55.62132049095089 161.74528664149693,56.027322913236276 162.05683191129356,56.27092293452006 162.1937230147014,56.287162897744565 162.57607402760186,56.09769636302735 164.15268190801726,55.99484282925914 164.22820803403738,56.17889638605266 164.36981952027418,56.146416391165985 164.78049283043947,56.82849227398037 165.08731771737803,56.88262491988644 165.04955465436797,57.58093129739427 165.16284384336905,58.0139850824562 165.34693877550308,58.198031913358136 165.30917571252212,58.40373058714977 164.9976304427255,58.56071063885247 164.97874891123502,58.88008247084872 164.82769665922388,58.75558180671942 164.68608517292887,58.885495536847884 164.42646411480382,59.356430248197285 164.34621760592563,59.69203644389927 164.26597109704744,59.62708056509655 164.2895730114251,58.93421310688791 164.21404688540497,58.701450995700725 164.36037875452894,58.38207813124609 164.29429339431226,58.07894285747898 164.18572458814015,57.9760930117518 163.7986531923525,57.959853544922225 163.94498506150558,57.884069303305296 163.7514493635972,57.79745861417905 163.5767951972084,57.8353508073742 163.5956767286989,58.143900556129665 162.92538236037944,58.39831747397693 162.84513585150125,58.56071063885247 162.25980837494717,58.63108086208376 162.14179880305892,58.7664079625647 161.7028031956288,58.89090860229771 161.68392166413832,58.67438557029163 162.06155229418073,58.16555310539843 162.20316378044663,57.66212914062271 162.03795037977397,57.2453122794941 161.93410195651813,57.16411382374281 161.9860261681606,57.08832849070677 161.7169643442612,57.093741732220224 161.58479362374055,57.0071298042385 161.62727706960868,56.91510448198824 161.90577965928242,56.82849227398037 161.91994080791483,56.55782824883863 161.7500070243841,56.76353302887583 161.42902098884224,56.61196115993516 161.74528664149693,56.63361430953228 161.7358458757808,56.26009628971224 161.86329621338518,56.17348305489213 161.7028031956288,56.17889638605266 161.5942343895149,56.39542919729138 161.2638075882278,56.319642809892684 161.1505183991976,56.60113458195701 161.02778844442219,57.31568417797098 160.2678068014793,57.965266701052315 159.94682076596655,58.98293063398887 159.6541570276604,59.253582780198485 159.48422324412968,60.23333246477341 159.36621367227053,60.23333246477341 158.96498112782137,60.50939139390175 158.62039317790186,60.57434623564768 158.56374858340132,61.04526655505106 158.44573901151307,61.30508294461106 157.77072426033556,61.25636746461896 157.61023124257918,61.32132142840783 157.52998473367188,61.16976206081017 157.3364490357926,61.142697844290524 157.29868597275345,61.37003685115633 156.9446572571178,61.45122912697843 156.86913113112678,61.640677306702855 156.32628710044082,62.030397234353586 155.83536728136824,61.77599703745727 155.41997358831577,61.04526655505106 155.31140478217276,61.029027990156465 155.06122448979295,60.69884280224869 155.18395444456837,60.62306231684488" stroke="#4dd2ff" stroke-dasharray="none" stroke-linecap="round" stroke-linejoin="round" stroke-width="0.5"><title>2026-03-22 12.8km</title><desc>1774137608000</desc></polyline><polyline fill="none" opacity="1" points="133.42682340602914,70.04725813671757 133.51981820564833,70.18752633078111 133.48066250054399,70.31634341875724 133.74741074160556,70.24477844567991 134.53052484377986,70.18180111262518 135.2255386094621,70.19897676346045 135.31608617751044,70.26195405649742 135.46536730324442,70.28199225533172 135.5485731765948,70.26767925768763 135.60485950269504,70.17607589324325 136.4369182362425,70.239053239653 136.45649608880922,70.34496935493371 136.53480749901792,70.36787008204556 137.5797753791121,70.37932043831825 138.43630642835342,70.30489303579998 139.29773194075096,70.0930600760421 139.9756150854373,69.84687373947963 140.02211248526874,69.78103282753182 139.97316785385192,69.6293118545218 140.12979067429842,69.56633308727214 140.22278547393216,69.64935052242436 140.56295066206076,69.46613929142768 140.55805619893363,69.38025859933441 140.62168421973183,69.31155384916383 141.26530612244096,68.84206671474021 140.65594546170905,69.28006411363276 140.57029235677328,69.36594512412375 140.56050343050447,69.4718646611982 140.35004151554313,69.5863718018627 140.20320762136544,69.655075853374 140.1248962111713,69.55774506217858 139.9756150854373,69.63217452227582 139.9413538434601,69.72664238798279 139.53511340296245,69.93561558440524 139.2879430144676,69.98714297354672 139.07258663636458,70.07588435789148 139.03098369970394,70.1359993236747 138.5586680068227,70.26481665724896 137.7902372940589,70.36787008204556 137.19556002273748,70.37073267156848 136.49320456232817,70.34210676267867 136.42957654154452,70.21615240339088 135.73701000743313,70.17321328310572 135.58772888169915,70.17321328310572 135.53878425031144,70.25909145546211 135.32342787222296,70.26481665724896 135.23043307258922,70.19038893940706 134.29803784468095,70.19038893940706 133.7743302888557,70.2476410482468 133.51981820564833,70.3134808234845 133.04260804963997,70.3134808234845 132.71223178779474,70.4136714780434 132.53358388323977,70.53103720104264 132.42345846261014,70.48809858101595 132.13713236901094,70.52244948249609 131.80675610715116,70.71424121337077 131.66236944457341,70.75145437663741 131.50574662414147,70.67702799887229 131.45680199275375,70.82874309048202 131.04811432067072,71.03484524693522 130.97959183673083,71.15793328525797" stroke="#ff9000" stroke-dasharray="none" stroke-linecap="round" stroke-linejoin="round" stroke-width="0.5"><title>2026-02-18 20.3km</title><desc>1771394553000</desc></polyline><polyline fill="none" opacity="1" points="10.571428571434808,83.2185964412347 11.31172325432999,83.15924805850773 11.968994234470301,83.16734102793453 12.06124279309006,83.24017763701704 12.250352338247467,83.24287528521563 12.328763613069896,83.15655040146521 13.099039077511407,83.1943175741053 13.13363228700473,83.30492111468811 13.209737347846385,83.32380459800333 14.411274823840358,83.3291998763707 15.017809096738347,83.25906116834085 15.85496476618573,83.05673688990646 16.422293401672505,82.84901562526284 16.489173606678378,82.77617789752185 16.44535554132017,82.63589724234771 16.58834080718225,82.57384978302434 16.675976937869564,82.66017664180436 16.9757847533765,82.50101126831942 16.998846893024165,82.3931019747215 17.05188981423271,82.33375166834776 17.257142857153667,82.28519222389332 17.808327994891442,81.93448237586199 18.036643177460064,81.72944976600957 18.18885329917248,81.72944976600957 18.47943625881453,81.53790465217753 18.62242152467661,81.3301709987627 18.597053171048174,81.26002678502118 18.726201153112925,81.27351607190576 18.989109545160318,81.01991628293945 19.065214606031077,81.07926965141814 19.13209481103695,81.0334056970205 19.175912876366056,80.99563531960484 19.178219090332277,80.93358386364343 19.450352338244556,80.72044945020752 19.53568225496565,80.70965778688878 20.695707879567635,79.68712693877387 20.757975656641065,79.72489925729133 20.857142857144936,79.60079000032601 20.808712363883387,79.52794298077242 20.709545163379516,79.65744864920816 20.628827674576314,79.65205259284085 20.359000640630256,79.90836400723856 20.278283151827054,79.87059196091104 20.359000640630256,79.90566600579041 20.442024343370576,79.84900790927531 20.4766175528639,79.89757199971973 20.075336322872317,80.27259157861772 19.637155669450294,80.62872016618348 19.18283151826472,80.93088597082715 19.175912876366056,80.998333205569 19.076745675862185,81.08466540533846 18.984497117242427,81.0334056970205 18.82767456759757,81.20067383786773 18.47943625881453,81.45427182666754 18.488661114664865,81.53520682338603 17.289429852666217,82.36612457988122 17.19948750801268,82.34993812925859 17.18565022421535,82.29328547106161 16.62524023062724,82.39849745025276 15.709673286357429,82.74920090846172 15.55054452274635,82.64668808940951 15.460602178092813,82.31216970446258 14.141447789879749,82.44975441086717 13.569506726475083,82.56845434463503 13.22818705959071,82.55496574365861" stroke="#ff7e00" stroke-dasharray="none" stroke-linecap="round" stroke-linejoin="round" stroke-width="0.5"><title>2026-02-08 23.1km</title><desc>1770528486000</desc></polyline><polyline fill="none" opacity="1" points="107.85102447681129,86.57142857136205 116.23060817830265,76.2857142854482" stroke="#4dd2ff" stroke-dasharray="none" stroke-linecap="round" stroke-linejoin="round" stroke-width="0.5"><title>2026-01-14 7.5km</title><desc>1768363280000</desc></polyline><polyline fill="none" opacity="1" points="15.711894996391493,99.80935070752548 15.701375837641535,99.76350266410373 15.596184250152874,99.75567492949904 15.48716751403117,99.69417109875121 15.399189095409383,99.67627900806747 15.302604092354159,99.41460372117581 15.53976330777732,99.27593555834665 15.851512921599351,99.14285714285779 15.935666191588098,99.35421619647968 15.992087133967289,99.65055907464102 16.36025769016487,100.42995709729621 16.404246899481222,100.6658897883517 16.461624129016855,100.8034215820071 16.5400396760524,101.10084194500087 16.605067202857754,101.45080331300869 16.835532408167637,102.00535096559724 16.845095279757516,102.0623693377238 16.826925823741476,102.0925554102887 16.778155178635643,102.11156141177798 16.635668391947547,102.25131037392111 16.507525912646088,102.28373186925637 16.513263635602925,102.33515886492023 16.5400396760524,102.35975429619612 16.771461168518726,102.370934018777 16.893865924866986,102.3318049380432 16.977062907695654,102.27590600017083 17.149194596313464,102.10485341515232 17.25342989663477,101.95615839754555 17.32228257208044,101.78733670806287 17.348102325377113,101.67553278136347 17.31750113628732,101.88684120874495 17.282118511408044,102.01541305360297 17.098511376883835,102.28261388831379 17.19222751846246,102.44136599933245 17.227610143345373,102.46037137405438 17.270643065498007,102.44919174599909 17.484851389104733,102.13951135192474 17.669414810781745,101.92149985993365 17.839633925079397,101.61404011785635 17.846327935192676,101.57602629247776 17.82911476632944,101.53577621078784 17.641682483175828,101.39489971841522 17.626381888625474,101.35688510528234 17.840590212239476,101.20817957043255 17.926656056544743,101.10084194500087 17.94960694836118,101.1075505785102 18.059579971639323,101.25290325945389 17.938131502451142,101.49776210407799 17.82528961769276,101.68224105029822 17.81190159746984,101.74708743061638 17.76886867531357,101.81752356562356 17.732529763277853,101.84323822817896 17.69236570259818,101.94945030235431 17.490589112057933,102.25354634230553 17.409304703545786,102.36087226898508 17.330889156513877,102.41229888959151 17.288812521517684,102.48273059471285 17.131981427450228,102.60346956956892 16.964631174629176,102.68172557643993 16.842226418280916,102.702966392696 16.797280921811762,102.51179751090694 16.61367378729119,102.55316183086234 16.56107799354504,102.4178887245871 15.983480549533851,102.46484322196739 15.695638114688336,102.5419823008815 15.580883655613434,102.60570546351391 15.422139987225819,102.6638385401966 15.53976330777732,102.97685730791909 15.53593815914428,103.00145124721712 15.440309443241858,102.99809753158661 15.075007748517237,102.93214090816491 14.933477248992858,102.96344240783947 14.919132941613498,102.98356475157652 14.900007198430103,103.23732657946857 14.85123655332427,103.33905318023335 14.52227377064628,103.60733842499121 14.243994207387004,103.74259632316625 14.243037920230563,103.7627171850736 14.327191190215672,103.87897030473414 14.331016338848713,103.92927173947737 14.251644504656724,104.0891169337574 14.090988261952589,104.53734127892858 14.071862518769194,104.70835454201733 14.125414599675423,105.06825578122061 14.247819356020045,105.47732121244371 14.229649900000368,105.60920232598073 14.179922967734456,105.76790453870672 14.172272670461098,105.89978203234568 14.205742721027491,106.01154133420823 14.379786983958184,106.33228397925359 14.390306142708141,106.4093948737127 14.379786983958184,106.53008905940806 14.33771034896563,106.62284384129725 14.197136136597692,106.79494092291588 13.839484739146428,107.32797712368483 13.545904581344075,107.6598540363093 13.464620172831928,107.82746468645291 13.379510615690378,108.21966324380719 13.379510615690378,108.30681650684619 13.427324973632494,108.57832784546008 13.565986611680273,109.1146260928117 13.606150672359945,109.21182724427035 13.734293151657766,109.42857142857156 13.58702492917655,109.1973029909459 13.533472848277597,109.03976942586905 13.435931558062293,108.65989162093956 13.368991456933145,108.30458181675021" stroke="red" stroke-dasharray="none" stroke-linecap="round" stroke-linejoin="round" stroke-width="0.5"><title>2025-11-30 42.8km</title><desc>1764458479000</desc></polyline><polyline fill="none" opacity="1" points="53.81240537692793,100.6335496812826 51.07195894536562,99.14285714284051 48.84136301302351,101.3043602941325 49.8610640107654,107.78882994159358 52.60151044209488,109.42857142857974 54.83210637466982,107.34162705519702 53.74867406464182,100.5590151293436 50.944496320793405,99.14285714284051 48.84136301302351,101.52796368970303 49.92479532305151,108.01243127818452 52.792704379186034,109.42857142857974 54.83210637466982,107.04349164006999 53.68494275212288,100.40994600171689 50.81703369598836,99.21739184466423 48.84136301302351,101.45342923240969 49.98852663533762,108.0869650413515 52.66524175461382,109.42857142857974 54.83210637466982,107.04349164006999 53.74867406464182,100.5590151293436 51.008227633079514,99.14285714284051 48.84136301302351,101.52796368970303 49.8610640107654,107.86336372827645 52.66524175461382,109.42857142857974 54.83210637466982,107.04349164006999 53.74867406464182,100.5590151293436 50.944496320793405,99.14285714284051 48.84136301302351,101.37889476737473 49.8610640107654,107.86336372827645 52.792704379186034,109.42857142857974 54.83210637466982,107.11802550579887 53.74867406464182,100.48448056937195 50.880765008507296,99.14285714284051 48.84136301302351,101.52796368970303" stroke="#4dd2ff" stroke-dasharray="none" stroke-linecap="round" stroke-linejoin="round" stroke-width="0.5"><title>2025-11-26 8.7km</title><desc>1764155703000</desc></polyline><polyline fill="none" opacity="1" points="112.96314115000132,105.18093690787555 112.63831768449018,105.18753814578486 112.37758981920342,105.21658354533065 112.35586249709013,105.23242645807204 112.38302164972265,105.31692160570674 112.33522154108505,105.36048916152686 111.79638395282382,105.41065764751238 111.03592767905502,105.37765209048484 111.014200356949,105.35784870853058 111.00442306199693,105.25223006678334 110.85993636999046,105.24826934790417 110.46884457205306,105.17037491894371 109.98649802126602,104.91820440886568 109.83983859703585,104.80465977053609 109.61604717932642,104.56436374741588 109.30643283930112,104.11412458732138 109.14456428959238,103.9213479092432 108.24179405602627,103.32054950639213 107.96151160084264,103.20170635667637 107.91045239388768,103.21359072969517 107.49111507720954,103.15945070370253 107.03918677737965,103.16737365105746 106.897959183676,103.18718099436046 106.97943664158083,103.36016360299436 107.00985489253071,103.3839319921617 107.325987429198,103.24924377135176 107.32816016139986,103.18718099436046 107.34336928687844,103.17265561277236 107.48676961279125,103.16209168678779 108.0277799332689,103.22547508981279 108.270039574767,103.3363951622323 108.51555831458245,103.49353000810152 108.73934973229188,103.6678282076964 109.03918677737965,103.83552158410384 109.14565065570059,103.92398870858142 109.2836191510869,104.07847436151496 109.659501823553,104.63698123335234 109.87677504462044,104.84954965196266 110.1494529370757,105.03306813602649 110.49057189415907,105.17961665981875 110.84472724451189,105.24430862759709 110.99790486536949,105.25355030608807 111.01202762473986,105.27071340260409 111.00985489253071,105.36312961388649 111.02615038411022,105.37897231467377 111.81485217661248,105.41197786772591 112.34717156824627,105.35520825489766 112.3851943819318,105.31428114221217 112.36238069372484,105.23242645807204 112.40474897183594,105.21658354533065 112.57204935206391,105.19017863984027 112.89361371925042,105.1848976511028 113.47916505004832,105.08191786181396 114.02126173663419,104.9287666409682 114.25700318150484,104.83238589549364 114.6231085590116,104.71752006372662 115.28036005276954,104.54059792017142 115.39116939551604,104.47854246145562 116.00713897726382,104.39404084590387 116.55358112826798,104.25540397055829 116.84907270893018,104.15505618494626 117.08590051990177,104.04810555910353 117.18367346938612,103.98076574030074" stroke="red" stroke-dasharray="none" stroke-linecap="round" stroke-linejoin="round" stroke-width="0.5"><title>2025-11-16 42.7km</title><desc>1763252375000</desc></polyline><polyline fill="none" opacity="1" points="141.26530612248462,104.82162561854784 139.54476715129567,105.20393101209265 136.961278727249,106.13774857030512 134.66186683118576,106.7895319714844 133.72923822994926,106.68299094411122 132.137337686494,106.0312063711026 131.0921504610451,105.7366475294184 130.97959183674539,105.60503565879844 131.35478725100984,104.65240768964577 131.85862109306618,103.86271763172772 132.52861290425062,103.10435457439962 133.4076421605714,102.35851697639737 134.47962905853637,101.78189659994314" stroke="#ff5200" stroke-dasharray="none" stroke-linecap="round" stroke-linejoin="round" stroke-width="0.5"><title>2025-11-09 30.0km</title><desc>1762665792000</desc></polyline><polyline fill="none" opacity="1" points="50.84688047091913,110.88233939310885 50.840396709645574,111.01630784876397 50.92684686012217,111.2311613498423 50.86849300854374,111.34490653838475 50.88146053111268,111.63558622541859 50.94197563644411,111.83021325559457 50.92252435259434,111.98945237321641 51.03274829444854,112.22199012961937 50.965749427828996,112.69464141713615 50.99168447296688,112.86145728534939 51.05219957830559,112.94739227790888 51.01545826435904,113.25068978024501 51.201326087873895,114.07462855227641 51.142972236310015,114.39560314219489 51.19916483411362,114.66602720509218 51.41096770277363,115.10577568674125 51.36774262753897,115.19928437770068 51.42393522534985,115.37871894884847 51.76973582725623,116.1924757229408 51.75892955844756,116.2935615856386 51.862669739013654,116.5841810586735 51.92534609811264,117.0693813452599 51.98153869592352,117.16793644960308 52.2041478333922,117.32966702205522 52.22576037100953,117.47876142385212 52.173890280719206,117.66575986700627 52.394338164434885,117.79969028507003 52.38785440316133,117.87044567460543 52.28627547634096,117.95636265169378 52.294920491396624,118.12314178427368 52.35975810424861,118.34045830155083 52.37056437305728,118.51481547384901 52.418111955827044,118.6108377212131 52.47214329987037,119.08083578753394 52.57804473420401,119.17938259704715 52.6039797793419,119.45227933363458 52.677462407242274,119.75296750028429 52.731493751292874,119.83129741005177 52.662333630913054,120.02838443465771 52.72500999001204,120.1597748816057 52.707719959915266,120.30632491273354 52.79633136414486,120.47814104643476 52.837395185633795,120.85714285714312 52.79633136414486,120.4756143475297 52.74446127386909,120.41497349376732 52.707719959915266,120.28105773008792 52.72500999001204,120.13703427901055 52.66665613842633,120.01827744728689 52.727171243779594,119.82624387524083 52.612624794390285,119.48007419678652 52.57804473420401,119.18948993915365 52.47214329987037,119.08083578753394 52.418111955827044,118.62599909342862 52.29924299891718,118.1585190264068 52.27979171505285,117.96899747521456 52.39001565690705,117.81737915208942 52.16956777319865,117.67081385866913 52.2214378634817,117.4863424702744 52.20847034092003,117.33977514648177 52.020441263630346,117.20584215073359 51.931829859393474,117.09212486695833 51.85618597773282,116.5841810586735 51.75460705091973,116.28598016077376 51.761090812200564,116.19500287471783 51.42825773287768,115.4216819560479 51.36990388129925,115.19675712059143 51.34180758240109,115.216975169953 51.32235629855131,115.15379370889059 51.29858250715915,115.18159357234799 51.33964632864081,115.12852107768595 51.3331625673527,114.9465573437501 51.18619731155195,114.63317210848982 51.13000471374107,114.33241950872798 51.194842326585785,114.11001178944571 51.0046519955431,113.15717346104248 51.05436083206587,112.95244726783494 50.96358817406872,112.77299447003497 51.03490954821609,112.2422106970862 50.92036309883406,111.99956275752993 50.93765312892356,111.82768564199614 50.88146053111268,111.66339018398321 50.859847993502626,111.34743420308769 50.91604059130623,111.21852296211546 50.84471921716613,111.07950025563332 50.83607420211774,110.96575380285321 50.92252435259434,110.71803743076816 50.90307306873001,110.57142857142935" stroke="#ff8100" stroke-dasharray="none" stroke-linecap="round" stroke-linejoin="round" stroke-width="0.5"><title>2025-10-27 22.6km</title><desc>1761522564000</desc></polyline><polyline fill="none" opacity="1" points="90.62352018943056,118.90142033458687 90.06586836068891,112.09256505756639 87.40153184439987,110.57142857142026 85.23288584314287,112.8169145786087 86.0383829290513,119.4084600431379 88.70271944534034,120.85714285715949 90.68548150383867,118.97385460173246 89.94194573187269,112.09256505756639 87.1536865872331,110.57142857142026 85.35680847149342,112.8169145786087 85.8524989860598,119.26359159324784 88.6407581306994,120.85714285715949 90.68548150383867,118.82898606004892 90.0039070462808,112.16500004404224 87.21564790140837,110.57142857142026 85.29484715731815,112.8893494886579 85.79053767211735,119.19115735689411 89.1364486454986,120.7847087890259" stroke="#4dd2ff" stroke-dasharray="none" stroke-linecap="round" stroke-linejoin="round" stroke-width="0.5"><title>2025-10-23 8.3km</title><desc>1761191597000</desc></polyline><polyline fill="none" opacity="1" points="123.48083260805288,110.57142857142753 123.47279514925322,110.79209639268447 123.56924465482007,110.90008237481743 123.63756305458082,111.17708869681883 124.18411025271052,111.85785962512455 124.57794573371939,111.70762141860178 124.7105638038338,111.81091024003399 124.7788822036091,112.01748716423026 124.49757114575186,112.20997843571968 124.26850357005605,112.48228174028918 124.59402065128961,113.08791587942324 124.99991232050525,114.78740336067494 125.0320621556748,115.70754079532344 124.97981867351336,116.33660340867573 124.6181330276886,117.85288946545552 124.64224540407304,118.07352121604708 124.51364606333664,118.40681391625913 124.26046611125639,118.42559089560746 123.9429864888225,119.12033356813845 124.1077543941501,119.27524093024476 123.95504267701472,119.56627754803776 123.2035402795882,120.8571428571413 124.09971693533589,119.28462923791085 123.92289284184517,119.11563939723419 124.24439119367162,118.43967362492549 124.28859721706249,118.39742542362 124.44130893416877,118.44436786703955 124.52570225152886,118.37395418337474 124.86729425036174,116.92810194173944 124.99187486172013,116.08310163309943 124.98785613231303,114.78270873319343 124.58196446309739,113.12077951186802 124.24439119367162,112.46819712745128 124.51766479274374,112.16772432543075 124.75878855661722,112.0127922447682 124.69448888623447,111.80152035707215 124.54981462791329,111.70292646647067 124.17607279391086,111.8484697520762 123.63756305458082,111.18647871145004 123.55718846662785,110.90008237481743 123.45270150227589,110.78740134403779 123.4647576904681,110.58551378417542 123.13120315043489,110.65124471811578" stroke="#4dd2ff" stroke-dasharray="none" stroke-linecap="round" stroke-linejoin="round" stroke-width="0.5"><title>2025-10-19 14.0km</title><desc>1760852519000</desc></polyline><polyline fill="none" opacity="1" points="75.64188181326608,122.68217693532642 75.70761963246332,122.94871993947163 76.2296552554617,123.61281139947823 76.59701365686487,123.45017770778941 76.72848929525935,123.5495650371704 76.8019609755138,123.75285658384382 76.55061049036158,123.92000668865876 76.30699386628112,124.20009459191715 76.62408217065968,124.76478237950141 77.02624294690031,126.52656045749245 77.05717839124554,127.25383746879379 76.91410196121433,128.4599156223485 76.5660782125342,129.88277318300243 76.4732718795567,129.9550440527637 76.34566317171266,129.89632398035974 76.29539307467348,129.9460102007033 75.99763942300342,130.59192582499236 76.15231664465682,130.7635661025488 75.28612420348509,132.28571428571377 75.95123625654378,131.1565294136126 76.09817961708177,130.79970081025385 76.31086079683155,130.62354382248668 76.17938515845162,130.75904926194926 76.01310714517604,130.66419549930652 75.9937724924821,130.59192582499236 76.32246158845373,129.89632398035974 76.47713881009258,129.941493273971 76.5660782125342,129.8782562496017 76.88703344744863,128.53218889093841 77.04171066908748,127.32159556813349 77.01464215527812,126.49042214751171 76.61634830957337,124.8009221445609 76.30312693574524,124.19557705962143 76.54287662928982,123.9380769312047 76.8096948366292,123.76189174132014 76.73235622580978,123.56311783695128 76.58927979579312,123.45017770778941 76.2296552554617,123.60377621058069 75.71148656301375,122.96227292929325 75.64188181326608,122.71380076826972 75.52587389701512,122.56471678008529 75.53747468865186,122.37949049643066 75.20491866212978,122.43822086817818 75.065709162649,122.37497277219154 74.77955630263023,122.0" stroke="#4dd2ff" stroke-dasharray="none" stroke-linecap="round" stroke-linejoin="round" stroke-width="0.5"><title>2025-10-07 14.0km</title><desc>1759810688000</desc></polyline><polyline fill="none" opacity="1" points="116.8647365923971,127.49259003181942 117.18367346934974,128.51843857846688 115.11058376845904,130.01057765333098 112.75842430000193,130.2903531671327 106.89795918366872,123.99536111857742" stroke="#4dd2ff" stroke-dasharray="none" stroke-linecap="round" stroke-linejoin="round" stroke-width="0.5"><title>2025-10-01 13.5km</title><desc>1759289819000</desc></polyline><polyline fill="none" opacity="1" points="88.7718475353031,153.83542227137514 88.91350453876657,155.14285714285506 88.78675879881484,153.81798966639326 88.58545674133347,153.63494709150837 88.46616663315217,153.19041343238496 88.54072295076912,152.75459379312088 88.33942089322954,152.29262246063445 88.54072295076912,151.64760155352997 88.13066320394864,150.44471124797565 88.03373999104952,149.4074221834162 87.65350277131074,148.99773299157823 87.48947887259419,147.48971055617585 87.05705223054974,145.78988341276272 87.00486280818586,145.18839772084175 87.35527750093024,144.85714285713766" stroke="#4dd2ff" stroke-dasharray="none" stroke-linecap="round" stroke-linejoin="round" stroke-width="0.5"><title>2025-07-20 13.2km</title><desc>1752965179000</desc></polyline><polyline fill="none" opacity="1" points="155.06122448993847,148.92577661259566 165.34693877538666,151.07422338740434" stroke="#4dd2ff" stroke-dasharray="none" stroke-linecap="round" stroke-linejoin="round" stroke-width="0.5"><title>2025-07-06 13.1km</title><desc>1751755614000</desc></polyline><polyline fill="none" opacity="1" points="183.26654282017262,144.85714285714494 183.2560358978517,145.13947191746047 183.39787934924243,145.29291104985896 183.4766812666785,145.64275075952537 184.21216582943453,146.5449592562145 184.63244272244629,146.32401152937746 184.88460885823588,146.48358497176014 184.96341077567195,146.7781809470289 184.65345656705904,146.94389052804036 184.2909677468706,147.34281906631804 184.72700502336374,148.18362872573562 185.2208303726511,150.1843386558503 185.31539267356857,151.5283352528204 185.12626807170454,153.14231757057496 184.75852579035563,154.36351400799322 184.7795396349684,154.68875296213446 184.55364080498111,155.1428571428587 184.81631386312074,154.60897753773315 184.763779251487,154.38806040751297 185.11050768822315,153.09322371102462 185.31539267356857,151.49765074503375 185.24709767845343,150.33162746765083" stroke="#4dd2ff" stroke-dasharray="none" stroke-linecap="round" stroke-linejoin="round" stroke-width="0.5"><title>2025-06-29 12.0km</title><desc>1751152499000</desc></polyline><polyline fill="none" opacity="1" points="56.97959183673083,157.10560735539912 56.62865068357496,158.02635129769806 56.283415890618926,158.71355571265485 56.160729146024096,158.82364046582006 56.00095106003573,159.26397563751198 55.678541707937256,159.89110906116366 55.41034277789004,160.27805750873813 55.24485833168728,160.705029599334 54.80546859520837,161.46889494187053 54.48591242321709,161.8658307669939 54.46879334257392,162.20939303867817 54.37749157915823,162.26943266341004 54.223419853369705,162.24941946786566 54.14923717059719,162.28944584627607 53.855359619585215,162.64300998426188 53.530097087379545,163.19336137450773 52.86245294233959,163.6936724928055 52.72550029720878,163.89713007933096 52.44018228650384,163.80373987458006 51.92090350702347,164.07056829793692 51.69835545869137,164.14394571892626 51.64414503664011,164.0872449995095 51.51575193183089,164.13060438234243 51.43871606895118,164.16729304438013 51.42159698830801,164.25067620859045 50.95652863086434,164.46080080550382 50.77963146423281,164.45413020486922 50.371626708933036,164.5908772359653 50.16619774122955,164.60088309302955 49.78101842677279,164.72428840270913 49.62124034079898,164.87437529134877 49.28741826827172,164.90772783636385 48.98212799683097,165.14452989264282 48.77955220922013,165.19789349105304 48.65115910442546,165.1578708006964 48.57697642162384,165.28127393297837 48.4599960372434,165.22124003699355 48.33445611252682,165.27793871953327 48.18038438675285,165.227910475518 48.08052308301558,165.30795562788444 47.97210223894217,165.27460350572983 47.84370913413295,165.38133017258588 47.76952645134588,165.29794999494516 47.55839112342801,165.3179612576605 46.8650683574233,165.62813420772545 46.693877551020705,165.751535501744" stroke="#4dd2ff" stroke-dasharray="none" stroke-linecap="round" stroke-linejoin="round" stroke-width="0.5"><title>2025-06-22 15.1km</title><desc>1750548259000</desc></polyline><polyline fill="none" opacity="1" points="149.903685647354,178.0 149.81466158904368,177.0744336192729 148.9066161935334,173.28888074692804 148.1855213206727,171.91606195086933 148.7552752943011,171.27124652905331 149.3250292679295,170.9488372377018 149.17368836869719,170.4288200314695 148.84429935266962,170.21041198744933 148.08759485644987,170.58482548112806 147.99857079808135,170.51202296865085 146.82345322758192,169.03516040179966 146.64540511072846,168.42152790408 146.42284496483626,168.1927148093091 146.44064977648668,167.71428571428987" stroke="#4dd2ff" stroke-dasharray="none" stroke-linecap="round" stroke-linejoin="round" stroke-width="0.5"><title>2025-05-11 9.2km</title><desc>1746938990000</desc></polyline><polyline fill="none" opacity="1" points="38.29805120185483,179.14285714285506 38.57810568602872,180.79935973505053 39.443728637183085,182.41615744575392 39.31643114433973,182.6641300932315 38.62053818360437,182.93193981725926 38.484754191245884,183.16007342436933 40.21600009361282,186.51258166725893 41.03070404767641,189.29963501830935 41.29378553284914,189.42857142857247" stroke="#ff8800" stroke-dasharray="none" stroke-linecap="round" stroke-linejoin="round" stroke-width="0.5"><title>2025-04-20 21.5km</title><desc>1745103989000</desc></polyline><polyline fill="none" opacity="1" points="75.0192068908218,179.1428571428587 75.01086201419821,179.42589136639435 75.18610442327918,179.81140070305628 75.06927615056338,180.0602721067953 75.11100053366681,180.6507263367821 75.21531149143993,180.96302964866118 75.17358710835106,181.2850902233331 75.38638146223093,181.75353795226692 75.26538075119606,182.70017821060173 75.31962244925671,182.96367255663063 75.42810584534891,183.11493714901007 75.35717439405562,183.69071396137224 75.71183165052207,185.32041613431284 75.59083093950176,185.87664860264704 75.70348677388392,186.4035994894257 76.03728183879866,187.08179593619934 75.97469526415807,187.42820897826823 76.0539715920604,187.4330880166126 76.09152353687386,187.69655532102115 76.82587267967756,189.42857142857247 76.25007619267853,188.1503010395063 76.09152353687386,187.5892169712788 76.03728183879866,187.62824912735232 75.99555745570979,187.4379670544513 75.93714331934461,187.41845090002607 76.0247645238851,187.4379670544513 76.17497230308072,187.23304702105816 75.90793625115475,187.33062810289266 75.79528041674348,187.29159569493277 75.99555745570979,187.09643315964786 75.68262458233221,186.41335778240318 75.59083093950176,185.90104460996736 75.70348677388392,185.2960198198416 75.31545001093764,183.5540896056591 75.40724365378264,183.1637320729642 75.28624294276233,182.9343954814285 75.24034612132527,182.6416237069825 75.37803658562189,181.7437786731207 75.15689735508931,181.28021053442717 75.20696661483089,180.96790937111655 75.08596590379602,180.67512510920278 75.05258639731619,180.12370970071424" stroke="#4dd2ff" stroke-dasharray="none" stroke-linecap="round" stroke-linejoin="round" stroke-width="0.5"><title>2025-04-13 17.0km</title><desc>1744513358000</desc></polyline><polyline fill="none" opacity="1" points="84.76994093938265,179.15952820974053 85.15521858510328,179.35958087535982 86.51082511636196,179.1428571428405 86.48228603147436,179.8597114321019 86.8247550498927,180.2431437876221 87.08160681376467,181.22672688278544 88.99372550001135,183.62731078277284 89.2505772637669,183.71066373573558 90.26371477654902,183.0938508433319 90.84876601642463,183.44393413157377 91.07707869546721,184.32747422222747 90.10674980981275,184.91094138704648 89.29338589106919,185.87782509195677 90.4920274555916,188.07829700454022 90.80595738912234,189.4285714285652 90.66326196480077,188.39502907729184 89.29338589106919,185.87782509195677 90.32079294632422,184.69422526285052 91.14842640759889,184.31080370018026 90.86303555889754,183.49394596660568 90.37787111615762,183.12719214223034 89.12215138186002,183.6939931486413 87.11014589859406,181.2600685754005 86.8390245923656,180.29315663503075" stroke="#4dd2ff" stroke-dasharray="none" stroke-linecap="round" stroke-linejoin="round" stroke-width="0.5"><title>2025-04-12 10.0km</title><desc>1744429372000</desc></polyline><polyline fill="none" opacity="1" points="161.81955212453613,205.68027759350662 162.57882325572427,206.03886469859572 162.80498912453186,207.03913019545143 161.72262389498064,207.68080700558494 160.75334159989143,208.83204492965888 161.73877859988715,210.47396161973302 162.41727620642632,212.28571428571013 162.30419327208074,211.5496919763391 160.81796041951748,208.75655414508947 161.88417094416218,207.58644291304518 162.86960794427432,207.07687595386233 162.51420443604002,206.0954836495075 161.88417094416218,205.66140456810535 160.39793809171533,206.26534039487888 158.2493623374612,203.5287398793589 157.97473235387588,202.47183468892763 157.5385553210508,202.0" stroke="#4dd2ff" stroke-dasharray="none" stroke-linecap="round" stroke-linejoin="round" stroke-width="0.5"><title>2025-02-01 10.0km</title><desc>1738384413000</desc></polyline><polyline fill="none" opacity="1" points="171.14721303537954,204.02052758487844 170.76776639508898,204.18695447443315 169.6971848027606,204.19487955518707 169.155118173745,203.96505187280127 168.17262240860146,204.38508124143118 167.10204081633128,204.51980714347155 167.21722997498,205.05870832671644 167.52214245378855,205.51835627017135 168.24038073726115,205.3915571194011 169.77849479709403,204.80510825318197 169.1212390094006,204.8288832965918 168.78244736630586,205.1934330163349 168.33524239735561,205.36778225473245 168.5114140517835,205.84327811364346 170.39509558762074,205.53420614891365 171.50633217714494,205.20135799053241 171.32338468983653,204.32960579953942 170.9574897152488,204.32960579953942 170.56449140919722,204.60698259791388 169.95466645155102,204.78925822005112 171.167540533992,204.29790552857594 171.4182463499019,204.59905756080843 171.61474550294224,205.16173311117745 172.61079293378862,204.7496331225775 173.30192788579734,204.7575581437559 173.60006453175447,204.57528244440618 175.09752359439153,204.19487955518707 175.27369524884853,204.05222797333408 175.1178510930331,203.60842131340178 175.17883358878316,203.47369377096766 176.49334516417002,203.38651699665206 176.83213680729386,203.5212446959922 177.3132209405594,203.4974692372707 177.3877551020414,203.74314861331368 177.1709284504468,204.6703828646714 177.24546261195792,205.7085545936061 176.14777768813656,206.12857417925989 176.2358635153796,206.69916304855724 176.0867951923865,206.82595998445322 175.71412438494735,207.02407976683753 175.23981608453323,207.00823020354437 174.31830281519797,207.26182281358342 174.06082116640755,206.81011037921417 172.63112043237197,207.24597330065444 172.30588045495097,207.14295138460147 171.72993466159096,207.36484456605103 171.7434863272938,207.49164037446462 171.64862466722843,207.3965435382779 171.492780511413,207.77693015814293 171.26240219408646,207.89580058045976 171.22174719686154,207.7848548588372 171.2420746955031,207.89580058045976 170.9507138823683,207.79277955867292 170.64580140353064,207.49164037446462 169.7717189642426,207.6263606855573 169.59554730981472,207.76900545659737 170.6322497378278,208.56939607516688 171.26240219408646,208.45052672237216 171.59441800432978,208.93392758016853 172.0348471403995,209.13996634134674 172.36008711784962,209.06864529586164 172.59724126802757,208.84675716436323 172.90892957971664,208.93392758016853 172.97668790834723,208.71996365109953 173.51197870454052,208.5931699230714 173.6068403646059,208.98147503692599 174.38606114382856,208.75958664705104 174.67064612408285,209.94826677484525 174.73162861983292,210.89127291800105 174.0066145035089,210.76448286720552 173.105428732757,210.89919728905807 172.94280874406104,210.62184380337567 172.93603291120962,210.16222719358484" stroke="#4dd2ff" stroke-dasharray="none" stroke-linecap="round" stroke-linejoin="round" stroke-width="0.5"><title>2025-01-25 14.8km</title><desc>1737764447000</desc></polyline><polyline fill="none" opacity="1" points="189.42857142863795,212.00573338431423 189.0157668418251,210.27762193838134 187.53655040601734,209.07195815074374 184.40611562342383,210.31781066549593 179.72766364051495,204.36983294409583 179.1428571428405,202.279980901425" stroke="#4dd2ff" stroke-dasharray="none" stroke-linecap="round" stroke-linejoin="round" stroke-width="0.5"><title>2024-12-28 10.1km</title><desc>1735359007000</desc></polyline><polyline fill="none" opacity="1" points="141.26530612244096,217.5091187948674 141.09959841243108,217.79287075992033 140.29473239237268,218.15966843238857 139.08447429604712,218.33614509203835 138.29736267348926,218.75830108103764 137.86237993469695,218.90017195239852 137.42739719593374,218.94515527092517 136.77936168713495,218.83096672617467 136.65508090461663,218.85864883423346 136.42131467084982,219.08010485527484 136.371010544608,219.2219743307869 136.41243747209955,219.35346256350385 136.36509241210297,219.43304728966905 136.38284680961806,219.54723373246816 136.28223855709075,219.63373834798767 135.9271506070654,219.60951707869754 135.73185223455948,219.5506939214756 135.66379371080257,219.48495026762976 135.37380521827436,219.49187065847218 135.27319696577615,219.57145504786968 135.03055353325908,219.5887559764633 134.8500504919939,219.5887559764633 134.78495103449677,219.53339297274943 134.136915525698,219.56107448632247 133.79070477442292,219.5091716291572 133.45633028815791,219.57145504786968 133.26695004814246,219.5091716291572 133.10124233813258,219.57837542039852 132.6129964068532,219.4780298753285 131.781498790544,219.20121298256709 131.71935839927755,219.135468626253 131.47375590051524,219.10778675248366 131.3228435217752,219.18737207643426 130.97959183673083,219.19083230350952" stroke="#4dd2ff" stroke-dasharray="none" stroke-linecap="round" stroke-linejoin="round" stroke-width="0.5"><title>2024-10-28 17.0km</title><desc>1730088256000</desc></polyline><polyline fill="none" opacity="1" points="153.11299274401972,216.28018372943916 153.30612244896474,217.2855891397412 152.98216294389567,217.8465698353757 151.31252549472265,218.62610685003892 150.41540686535882,218.80824039469007 149.2067887118319,218.87380835280783 148.66477953988942,219.0268000123251 147.06367198604858,219.89374632887484 146.17901333759073,220.17786921754305 145.16352488903794,220.2652914089922 144.10442650711047,220.08316171825572 143.64340721143526,220.10501730656688 143.12008801093907,220.5712682049998 143.02040816325461,220.8626734134159" stroke="#4dd2ff" stroke-dasharray="none" stroke-linecap="round" stroke-linejoin="round" stroke-width="0.5"><title>2024-10-25 14.0km</title><desc>1729815581000</desc></polyline><polyline fill="none" opacity="1" points="32.89795918366872,231.66706822279957 31.618906629970297,231.5424282870663 30.979380353121087,230.3895063814998 24.077825949061662,228.42641275253845 22.825420323526487,228.33293177722953 22.612244897987694,230.42066649228218" stroke="#4dd2ff" stroke-dasharray="none" stroke-linecap="round" stroke-linejoin="round" stroke-width="0.5"><title>2024-10-13 12.0km</title><desc>1728776779000</desc></polyline><polyline fill="none" opacity="1" points="118.93877551020705,238.99344137810112 119.0796262325166,238.9850799183987 118.96766796606244,239.14812807557246 119.10851868837199,239.1230437858212 119.0796262325166,239.30281419057428 119.13741114424192,239.29863349242805 119.08684934648045,239.36970530314284 119.19519605595269,239.32789837056043 119.21686539784423,239.52857125895753 119.29993120844301,239.490945167061 119.40466636091878,239.5327519337152 119.5635748681525,239.72924316711214 119.84166475578968,239.80449487995065 120.29310937857372,239.62054600522242 120.30755560651596,239.80449487995065 120.37978674616897,239.7710496912623 120.44479477184359,239.8421206846724 120.33644806237135,240.00516544026323 120.42312542995205,240.02188794272297 120.36895207520865,240.25600226224924 120.5170259114966,240.54446271419147 120.79511579913378,240.70750468239567 122.08805319880776,239.9048302826377 122.13139188260539,239.98426230264522 121.82802109606564,240.3939618615259 121.67994725982135,240.50265697708164 121.64383168997301,240.6907824590271 121.57521210730192,240.75349076157 121.58965833522961,241.19244619943493 121.90747534969705,242.07452342216857 121.77745929831872,242.25846130990976 121.90747534969705,242.0996059098834 122.04110295804276,242.17903368666157 122.17473056640301,241.99091501915973 122.19639990826545,242.3587907197907 122.49977069479064,242.4382179955537 122.93676908967609,242.91477842582754 123.17152029350109,242.9983849489654 123.41710616831551,243.36625162981727 123.55434533364314,243.42059529211838 123.73853473975032,243.60452715432257 124.05635175418865,243.5460034692951 124.1502522357332,243.58780610995746 124.46445769318962,243.87206293874624 124.7894978215918,243.6254284502029 125.0784223801893,243.69649277668577 125.24455400137231,243.50838105632283 125.88018803027808,243.5543640008218 126.01020408162731,243.49584024434807 126.4074753496825,243.58362584780116 126.76140793395462,243.4749388825512 126.87336620040878,243.59616663298948 126.94198578307987,243.83444082431015 127.31758770924353,243.4749388825512 127.4223228617193,243.52928240110487 127.58484292593494,243.2701049743082 127.74013987617218,243.17813839765222 127.71485897729872,242.87715543492232 128.1410227012093,242.8562537584221 128.4371703737561,242.91895875601767 128.53107085530064,242.4382179955537 128.43355881678872,242.3587907197907 128.4913437284995,242.30862604547292 128.48050905755372,242.19575530431757 128.63580600779096,242.2166573168215 128.7297064893355,242.07452342216857 128.95723457921122,241.9783737440266 128.97529236413538,241.8613216582562 128.86333409766667,241.74844968831894 128.83444164182583,241.47671959997024 129.18476266910147,241.15900214065186 129.15587021326064,241.10465548705542 129.22448979591718,241.00014248961816" stroke="#4dd2ff" stroke-dasharray="none" stroke-linecap="round" stroke-linejoin="round" stroke-width="0.5"><title>2024-05-25 14.8km</title><desc>1716598951000</desc></polyline><polyline fill="none" opacity="1" points="17.331103515345603,258.0 16.879898547194898,249.64836135704536 14.097467913292348,247.71428571431898" stroke="#4dd2ff" stroke-dasharray="none" stroke-linecap="round" stroke-linejoin="round" stroke-width="0.5"><title>2024-05-10 6.8km</title><desc>1715315282000</desc></polyline><polyline fill="none" opacity="1" points="29.968483595876023,249.08839686511783 23.58873676066287,251.6009029696579 22.677344355732203,255.1031695624115 25.541720485780388,256.62588884914294 32.11676569352858,253.88499181211228 32.76776026841253,250.61112888524076 29.903384138597175,249.08839686511783 23.458537845639512,251.67703938105842 22.677344355732203,255.02703351335367 25.606819943292066,256.62588884914294 31.921467320993543,254.03726414375706 32.83285972615704,250.76340190978954 29.903384138597175,249.08839686511783 23.52363730315119,251.6009029696579 22.677344355732203,255.02703351335367 25.541720485780388,256.62588884914294 31.921467320993543,254.03726414375706 32.83285972615704,250.76340190978954 29.838284680852666,249.08839686511783 23.52363730315119,251.6009029696579 22.677344355732203,255.02703351335367 25.541720485780388,256.62588884914294 31.921467320993543,254.11340029764688 32.89795918366872,250.9918113864842 29.903384138597175,249.08839686511783 23.52363730315119,251.67703938105842 22.612244897987694,254.95089745649602 25.606819943292066,256.62588884914294 31.921467320993543,254.11340029764688 32.89795918366872,250.9918113864842 29.968483595876023,249.08839686511783 23.52363730315119,251.6009029696579 22.612244897987694,254.87476139125647 25.541720485780388,256.62588884914294 31.921467320993543,254.11340029764688 32.83285972615704,250.76340190978954 29.903384138597175,249.08839686511783 23.58873676066287,251.6009029696579 22.677344355732203,255.02703351335367 25.47662102803588,256.62588884914294 31.921467320993543,254.03726414375706 32.76776026841253,250.68726540153148 29.903384138597175,249.08839686511783 23.52363730315119,251.67703938105842 22.677344355732203,255.02703351335367 25.541720485780388,256.62588884914294 31.98656677850522,254.03726414375706" stroke="#4dd2ff" stroke-dasharray="none" stroke-linecap="round" stroke-linejoin="round" stroke-width="0.5"><title>2024-05-07 10.0km</title><desc>1715083186000</desc></polyline><polyline fill="none" opacity="1" points="51.89276230422547,251.5668231004238 53.38149595196592,250.9122716776037 53.97378783329623,251.3424057418306 54.19789827486966,252.2774761964247 53.18940128770191,252.8572174031142 52.19691218924709,254.0166941327043 53.58959850482643,256.56003590014006 53.87774050119333,258.0 53.7496773917228,256.80314754224673 52.19691218924709,253.99799295529374 53.17339339898899,252.87591870082542 54.245921940892,252.2774761964247 53.925764167215675,251.2675998925697 53.333472285885364,250.9122716776037 52.14888852328295,251.6042259659298 51.84473863826133,251.49201734580856 49.74770522065228,248.81769089437148 49.427547446859535,247.71428571428987" stroke="#4dd2ff" stroke-dasharray="none" stroke-linecap="round" stroke-linejoin="round" stroke-width="0.5"><title>2024-04-27 10.0km</title><desc>1714177464000</desc></polyline><polyline fill="none" opacity="1" points="61.103983974666335,247.71428571427532 63.76897722145077,251.08141134692414 65.66408353031147,250.2742284181586 66.3550077052787,250.82772560456942 66.65111806616187,251.98084024505806 65.50615800451487,252.5804574560898 64.16379103576764,254.07949329337862 65.80226836528163,257.1005958477908 65.90097181894816,258.0 64.16379103576764,254.0564312813949 65.34823247883469,252.67270611185813 66.63137737545185,251.93471577615128" stroke="#4dd2ff" stroke-dasharray="none" stroke-linecap="round" stroke-linejoin="round" stroke-width="0.5"><title>2024-04-20 9.0km</title><desc>1713573009000</desc></polyline><polyline fill="none" opacity="1" points="73.5187757697422,249.44057029555552 73.9494716937188,256.4175925348536 76.34906327072531,258.0 78.37948691355996,256.12988169147866 77.9487909891177,249.22478496207623 75.54919941187836,247.71428571426077 73.5187757697422,249.65635556011694 73.9494716937188,256.34566483524395 76.34906327072531,258.0 78.37948691355996,256.12988169147866 77.88726300001144,249.15285650250735 75.61072740121745,247.71428571426077 73.45724778040312,249.65635556011694 73.88794370484538,256.34566483524395 76.28753528185189,258.0 78.37948691355996,256.12988169147866 77.88726300001144,249.22478496207623 75.48767142253928,247.71428571426077 73.45724778040312,249.65635556011694 73.9494716937188,256.48952022677986 76.59517522761598,257.9280724677956 78.37948691355996,256.0579539615428 77.88726300001144,249.15285650250735 75.61072740121745,247.71428571426077 73.45724778040312,249.58442714618286 73.9494716937188,256.4175925348536 76.2260072925128,258.0 78.37948691355996,256.12988169147866 77.88726300001144,249.22478496207623 75.61072740121745,247.71428571426077 73.45724778040312,249.65635556011694 73.9494716937188,256.48952022677986 76.2260072925128,258.0 78.37948691355996,256.2018094137311 77.88726300001144,249.22478496207623 75.54919941187836,247.71428571426077 73.45724778040312,249.65635556011694 73.9494716937188,256.4175925348536 76.34906327072531,258.0 78.37948691355996,256.12988169147866 77.88726300001144,249.15285650250735 75.61072740121745,247.71428571426077 73.45724778040312,249.65635556011694 73.9494716937188,256.5614479109645 76.59517522761598,257.9280724677956 78.37948691355996,256.0579539615428 77.88726300001144,249.15285650250735 75.54919941187836,247.71428571426077 73.45724778040312,249.58442714618286 73.9494716937188,256.4175925348536 76.28753528185189,258.0 78.37948691355996,256.2018094137311 77.9487909891177,249.36864185862942" stroke="#4dd2ff" stroke-dasharray="none" stroke-linecap="round" stroke-linejoin="round" stroke-width="0.5"><title>2024-04-18 10.1km</title><desc>1713436846000</desc></polyline><polyline fill="none" opacity="1" points="85.11611414456274,247.71428571428987 87.86747175303753,251.1667188933061 89.66094930528197,250.33337778554414 90.51692722795997,250.92862174769107 90.76149234874174,252.14291456596402 89.55904717172962,252.80958235684375 88.21393900748808,254.33338706099312 89.90551442606375,257.9761910170928 90.21122082707006,258.0 88.21393900748808,254.30957769152883 89.62018845195416,252.7619632941787 90.80225320230238,252.11910496564815 90.43540552107152,250.8810022884427" stroke="#4dd2ff" stroke-dasharray="none" stroke-linecap="round" stroke-linejoin="round" stroke-width="0.5"><title>2024-04-14 10.0km</title><desc>1713054435000</desc></polyline><polyline fill="none" opacity="1" points="94.99921073400765,254.38234047788137 94.85714285713038,254.20290956516328 94.90260457774275,253.85069183823725 95.0674033149262,253.744361570225 96.11870560378884,253.93708504844108 96.93701657454949,253.5782201660404 97.21546961323475,253.27251883390636 97.30639305445948,253.42536968599597 98.30655090764049,253.7377159225034 99.26124704023823,253.49847213590328 99.95453827938763,253.5782201660404 101.19905288078007,253.2658731362535 101.58547750589787,253.38549558653176 102.14238358323928,253.3921412715281 102.64246250982978,253.06650187943524 102.93796369375195,253.12631332292585 103.41531176003627,253.00669037894477 103.56306235198281,252.73421504480575 104.93827940014307,251.8901985800003 105.11444356743596,251.5911349059861 105.07466456192196,251.478154925142 104.96101026042015,251.4648631493219 105.14285714284051,251.33859113873405 104.89850039462908,251.33194523640486" stroke="#4dd2ff" stroke-dasharray="none" stroke-linecap="round" stroke-linejoin="round" stroke-width="0.5"><title>2024-04-07 10.0km</title><desc>1712456610000</desc></polyline><polyline fill="none" opacity="1" points="143.3543599259574,255.47396214213222 146.29313543601893,256.4894379800535 152.57142857136205,253.5211200651829 153.30612244899385,251.72450079012197 152.57142857136205,249.92787714098813 149.89981447113678,249.06862080626888 143.62152133579366,251.88072872685734 143.2207792205736,255.3177349662874 146.4935064932797,256.41132450365694 152.70500927628018,253.36489247571444 153.23933209618554,251.1777027513599 151.90352504630573,249.38107777084224 149.4990723556839,249.22484930505743 143.15398886846378,252.58375403261743 143.42115027830005,255.63018928508973 146.29313543601893,256.4894379800535 152.50463821878657,253.67734762147302 153.30612244899385,251.72450079012197 152.6382189237047,249.92787714098813 149.83302411879413,249.1467350598541 143.554730983451,252.03695663047256 143.28756957314909,255.39584855840076 146.5602968458552,256.41132450365694 152.50463821878657,253.67734762147302 152.8385899811983,250.16221960418625 150.16697588097304,249.06862080626888 143.42115027830005,252.27129842381692 143.15398886846378,255.3177349662874 146.22634508367628,256.5675514480099 152.6382189237047,253.5211200651829 152.6382189237047,250.0059913037694 149.89981447113678,249.1467350598541 143.3543599259574,252.27129842381692 143.2207792205736,255.3177349662874 146.22634508367628,256.5675514480099 152.4378478662111,253.75546138733625 152.8385899811983,250.24033374199644 150.16697588097304,249.06862080626888 143.62152133579366,252.03695663047256 143.15398886846378,255.3177349662874 146.22634508367628,256.5675514480099 152.50463821878657,253.67734762147302 152.90538033354096,250.31844787171576 150.10018552839756,249.06862080626888 143.62152133579366,252.03695663047256 143.15398886846378,255.16150775697315 145.8923933210317,256.5675514480099 152.50463821878657,253.67734762147302 152.70500927628018,250.084105458227 149.89981447113678,249.1467350598541 143.554730983451,252.11507056985283 143.2207792205736,255.39584855840076 146.29313543601893,256.4894379800535 152.3710575136356,253.75546138733625 152.90538033354096,250.39656199293677 150.300556586124,249.06862080626888 143.62152133579366,252.03695663047256 143.2207792205736,255.3177349662874 145.95918367337435,256.5675514480099 152.50463821878657,253.67734762147302 152.90538033354096,250.31844787171576 150.03339517628774,249.06862080626888 143.3543599259574,252.27129842381692 143.28756957314909,255.47396214213222 146.15955473086797,256.5675514480099 152.57142857136205,253.5992338474025 152.77179962862283,250.084105458227 150.03339517628774,249.06862080626888 143.554730983451,252.03695663047256 143.02040816331282,255.005280514888 145.8923933210317,256.6456649079919 152.30426716129296,253.8335751448176 152.97217068611644,250.39656199293677 150.16697588097304,249.06862080626888" stroke="#4dd2ff" stroke-dasharray="none" stroke-linecap="round" stroke-linejoin="round" stroke-width="0.5"><title>2024-03-26 10.6km</title><desc>1711453549000</desc></polyline><polyline fill="none" opacity="1" points="46.69387755100615,267.3916514319244 47.312604348757304,267.2932395395983 48.50550961482804,266.8532783260416 48.668853489420144,266.9169571418024 48.74310070514912,266.87064528315386 48.708452004473656,266.9227461213668 48.71340181885171,266.8474893391176 48.63915460312273,266.94590203355256 48.57975683052791,266.83591136342875 48.25306908134371,265.92124353812324 48.29266759639722,265.8170399038245 49.040089568065014,265.4233799378162 49.238082143332576,265.42916907548715 49.688515252113575,265.19760309040066 49.86670856983983,265.0181387775083 49.817210426030215,264.82709547465856 50.12409891773132,264.7113113299529 50.30229223545757,264.5376346531739 51.475398243987,264.30027563624026 52.49011019230238,263.89502615298625 52.71285183951841,263.8718689489615 52.94054330105428,263.6981896060606 53.6137180570222,263.4434589052944 53.91070691993809,263.43188020889284 54.89571998192696,263.1134650967542 56.821197776531335,262.9050469284266 56.81129814774613,261.40557057712067 56.979591836745385,261.17977713950677" stroke="#4dd2ff" stroke-dasharray="none" stroke-linecap="round" stroke-linejoin="round" stroke-width="0.5"><title>2024-01-30 11.7km</title><desc>1706613736000</desc></polyline><polyline fill="none" opacity="1" points="60.97602239913249,259.309588339489 61.10114407945366,259.1428571428587 61.17880581204372,259.20348673661647 61.51533998672676,259.193381809695 61.817357835767325,259.4308470240394 61.8993341090827,259.6784158773553 62.080544818527414,259.81483081666374 62.06760119642422,259.91587866731425 62.07623027781665,259.8097784184938 62.2099810395448,259.7845164195496 62.41707899318135,259.9765072745395 63.094461883214535,259.9360882116416 63.426681517157704,260.1533402703644 63.62083584870561,260.1583926319945 63.80636109881743,260.0219786791822 63.93148277916771,260.0522929247745 63.974628186173504,259.7946212207389 63.9875718082767,260.0320834298618 64.33704960506293,259.8299880079612 64.85910902982869,259.70367793270634 64.88931081471674,259.62789172635166 65.00148887294927,259.6127344705819 65.10072330906405,259.81988321429526 64.90225443684903,260.50700428746495 64.74693097161071,260.6535214661417 64.52688939587097,260.68383530877327 64.34999322715157,260.9010839482253 64.25507333171845,260.9111885119455 64.27233149453241,261.1183315943272 64.21192792471265,261.2092721744848 64.03071721526794,261.42146618461265 63.86676466866629,261.4871450909304 63.94442640125635,261.64376365497446 63.24115626703133,261.9620514041562 63.07288917970436,262.20960706832193 62.65437873173505,262.2954934259651 62.650064191024285,262.5329431362261 62.42570807458833,262.78049582604945 62.015826708011446,262.6895582531324 61.334129277282045,262.74513123503493 61.079571375928936,262.8663811517981 61.20469305625011,263.0684636588485 61.10545862013532,263.46252207569705 60.812069852487184,263.6646020474909 60.812069852487184,264.06875941301405 61.16154764924431,263.896992952672 61.36864560289541,263.9929801688013 61.636147126337164,264.3415636915597 61.84755962068448,264.37692709448675 62.04171395221783,264.3062002623119 62.14094838833262,264.6396258351997 62.53357159211009,264.8669601117763 62.524942510717665,265.0538785911449 62.66300781312748,265.08418962663563 62.63712056893564,265.31152177654803 62.84853306328296,265.5641117788182 62.93050933658378,265.54895641653275 62.98659836567822,265.6297849594848 62.990912906388985,265.9783564762547 62.77518587136001,266.47342467116323 62.73635500506498,266.83714495675304 62.88736392957799,266.84219660778035 63.21526902283949,267.13519144908787 63.34470524385688,267.56962875127283 63.32744708105747,267.96870137845326 63.59063406380301,268.55467536654396 63.52591595328704,268.9032254330341 63.814990180238965,269.42857142857247 64.15583889560367,269.13559072409043 64.27664603521407,267.6150928905845 64.67789832041308,267.3473589997593 65.07483606485766,266.9280745932265 65.0101179543708,266.77652510245025 64.8936253554275,266.7967317291441 65.00148887294927,266.77147344444165 64.96697254735045,266.438062828267 65.24310315221373,266.26630493135235 64.9497143845656,265.99856344229556 64.6865274018055,265.5540082044863 64.9497143845656,264.82149334346104 64.92814168104087,264.5891069593745 65.08777968697541,264.4931209473725 65.13523963467742,264.54869182006223 65.0834651462792,264.5436399252212 65.10072330906405,264.412290471093 65.40705569881538,263.8919409885675 65.51923375704791,263.8111094896849 65.734960792106,263.82121343455583 65.92048604224692,263.67975801074135 66.36919827510428,262.9926828194257 66.74887785676401,262.6895582531324 66.81359596729453,262.54809946041496 66.77907964169572,262.2803370211914 66.94303218831192,261.97720791045504" stroke="#4dd2ff" stroke-dasharray="none" stroke-linecap="round" stroke-linejoin="round" stroke-width="0.5"><title>2024-01-27 16.6km</title><desc>1706316843000</desc></polyline><polyline fill="none" opacity="1" points="75.73880595876835,259.21282852825243 73.40450791013427,261.2419954848592 73.88333827932365,267.74928205128526 76.51690530823544,269.2186604892486 78.55193437612616,267.18951797886984 78.13295780331828,260.68222591100493 75.73880595876835,259.1428571428987 73.34465411421843,261.3819378041662 74.00304587138817,267.81925252708606 76.2176363277249,269.28863080986775 78.55193437612616,267.3994295615703 78.13295780331828,260.7521971335518 75.91836734721437,259.1428571428987 73.40450791013427,261.3119666482671 73.88333827932365,267.53937057958683 76.57675910438411,269.28863080986775 78.55193437612616,267.18951797886984 78.01325021125376,260.47231219889363 75.61909836647101,259.1428571428987 73.40450791013427,261.1720243137679 73.94319207500666,268.0291639099014 76.33734391978942,269.28863080986775 78.55193437612616,267.32945904135704 78.13295780331828,260.7521971335518 75.55924457032233,259.1428571428987 73.46436170628294,261.03208195004845 73.88333827932365,267.81925252708606 76.51690530823544,269.28863080986775 78.55193437612616,267.18951797886984 78.01325021125376,260.68222591100493 75.8585135510657,259.1428571428987 73.46436170628294,260.96211075707106 73.82348448294215,267.53937057958683 76.1577825313434,269.2186604892486 78.55193437612616,267.1195474367123 78.01325021125376,260.61225468094926 75.73880595876835,259.21282852825243 73.40450791013427,261.2419954848592 73.76363068679348,267.60934107756475 76.1577825313434,269.3586011228617 78.49208058021031,267.3994295615703 77.89354261895642,260.61225468094926 75.55924457032233,259.28279990603914 73.40450791013427,261.3819378041662 73.88333827932365,267.81925252708606 76.27749012410641,269.2186604892486 78.49208058021031,267.3994295615703 78.01325021125376,260.7521971335518 75.20012179366313,259.28279990603914 73.28480031783693,261.3819378041662 73.76363068679348,267.74928205128526 76.45705151208676,269.42857142857974 78.55193437612616,267.3994295615703 78.13295780331828,261.10205313557526 75.61909836647101,259.1428571428987" stroke="#4dd2ff" stroke-dasharray="none" stroke-linecap="round" stroke-linejoin="round" stroke-width="0.5"><title>2024-01-25 10.3km</title><desc>1706155972000</desc></polyline></svg>