<?xml version="1.0" encoding="utf-8" ?>
<svg baseProfile="full" height="300mm" version="1.1" viewBox="0,0,200,300" width="200mm" xmlns="http://www.w3.org/2000/svg" xmlns:ev="http://www.w3.org/2001/xml-events" xmlns:xlink="http://www.w3.org/1999/xlink"><defs /><rect fill="#222222" height="300" width="200" x="0" y="0" /><text fill="#FFFFFF" style="font-size:12px; font-family:-apple-system, BlinkMacSystemFont, 'Segoe UI', Roboto, 'Helvetica Neue', Arial, sans-serif; font-weight:bold;" x="10" y="20">Over 3km Runs</text><text fill="#FFFFFF" style="font-size:4px; font-family:-apple-system, BlinkMacSystemFont, 'Segoe UI', Roboto, 'Helvetica Neue', Arial, sans-serif;" x="10" y="280">Runner</text><text fill="#FFFFFF" style="font-size:9px; font-family:-apple-system, BlinkMacSystemFont, 'Segoe UI', Roboto, 'Helvetica Neue', Arial, sans-serif;" x="10" y="290">Hannah YAN</text><text fill="#FFFFFF" style="font-size:4px; font-family:-apple-system, BlinkMacSystemFont, 'Segoe UI', Roboto, 'Helvetica Neue', Arial, sans-serif;" x="65" y="280">SPECIAL TRACKS</text><rect fill="yellow" height="2.6" width="2.6" x="65" y="283" /><text fill="#FFFFFF" style="font-size:3px; font-family:-apple-system, BlinkMacSystemFont, 'Segoe UI', Roboto, 'Helvetica Neue', Arial, sans-serif;" x="70" y="285.5">Over 20.0 km</text><rect fill="red" height="2.6" width="2.6" x="65" y="287" /><text fill="#FFFFFF" style="font-size:3px; font-family:-apple-system, BlinkMacSystemFont, 'Segoe UI', Roboto, 'Helvetica Neue', Arial, sans-serif;" x="70" y="289.5">Over 40.0 km</text><text fill="#FFFFFF" style="font-size:4px; font-family:-apple-system, BlinkMacSystemFont, 'Segoe UI', Roboto, 'Helvetica Neue', Arial, sans-serif;" x="120" y="280">STATISTICS</text><text fill="#FFFFFF" style="font-size:3px; font-family:-apple-system, BlinkMacSystemFont, 'Segoe UI', Roboto, 'Helvetica Neue', Arial, sans-serif;" x="120" y="285">Number: 310</text><text fill="#FFFFFF" style="font-size:3px; font-family:-apple-system, BlinkMacSystemFont, 'Segoe UI', Roboto, 'Helvetica Neue', Arial, sans-serif;" x="120" y="290">Weekly: 2.8</text><text fill="#FFFFFF" style="font-size:3px; font-family:-apple-system, BlinkMacSystemFont, 'Segoe UI', Roboto, 'Helvetica Neue', Arial, sans-serif;" x="141" y="285">Total: 2714.2 km</text><text fill="#FFFFFF" style="font-size:3px; font-family:-apple-system, BlinkMacSystemFont, 'Segoe UI', Roboto, 'Helvetica Neue', Arial, sans-serif;" x="141" y="290">Avg: 8.8 km</text><text fill="#FFFFFF" style="font-size:3px; font-family:-apple-system, BlinkMacSystemFont, 'Segoe UI', Roboto, 'Helvetica Neue', Arial, sans-serif;" x="167" y="285">Min: 3.0 km</text><text fill="#FFFFFF" style="font-size:3px; font-family:-apple-system, BlinkMacSystemFont, 'Segoe UI', Roboto, 'Helvetica Neue', Arial, sans-serif;" x="167" y="290">Max: 42.8 km</text><polyline fill="none" opacity="1" points="18.283884762393427,30.736553762493713 18.224554848064145,30.817919354847618 18.10384916030307,30.817919354847618 18.028152373051853,30.810740049659216 17.9360887128787,30.748519309159747 17.4921372849858,30.77005727717915 17.213900445378385,30.74373309124894 16.720848398734233,30.798774535940538 16.54899623309757,30.851422748883124 16.12959511457302,30.853815846554426 15.880000302575354,30.928001748707175 15.718377432509442,31.030904371013094 15.603809322092275,31.00218740728269 15.382856537689804,31.030904371013094 15.104619698089664,31.193633142787803 15.010510178814002,31.21517068652065 14.920492377765186,31.20799150755738 14.877529336357838,31.1649163858674 14.791603253543144,31.172095578520384 14.848887308755366,31.15773719093704 14.775236380621209,31.105089691733156 13.852553919874481,31.581305789199178 13.699114486269536,31.62677313293716 13.684793472457386,31.657882315417737 13.76662783705251,31.81821357672925 13.629555276369501,31.978543700464797 13.341089141184057,32.11733602331151 13.089448470076604,32.11972898692329 13.054668865122949,32.19869664384714 12.999430669027788,32.497814054204355 13.089448470076604,32.938107679325185 13.032164414857107,33.24439383777826 13.097631906530296,33.88327426262185 13.24493376279861,34.299613584867984 13.41883178754506,34.65134255369412 13.596821530532907,34.90975218618951 14.05509397223068,35.42656258963143 14.762961225918843,36.115624749920244 15.057564938448195,36.46014795478186 15.125078289231169,36.43383039516084 15.202820935599448,36.48646548376564 15.693827123133815,37.008024739143366 15.79612007887772,37.18267262671543 15.970018103616894,37.34535711669196 16.109136523431516,37.53435674560387 16.391465081258502,38.12048478957331 16.636968175029324,38.97692212541915 16.667656061748858,39.21853684911366 16.620601302114665,39.42187397287307 16.35054789896094,40.04144287916279 16.02116458149976,40.66099481540732 15.875908584348508,40.85714285714312 16.094815509619366,40.57009636570183 16.655380907061044,39.36206912623493 16.67788535731961,39.137201487750644 16.461024291158537,38.52717695381398 16.38123578568775,38.103738484858695 16.12754925545596,37.555888248673 15.953651230702235,37.31904058737382 15.816578670019226,37.20420446465141 15.66109337729722,36.964960669140055 15.532204253067903,36.86686998128607 15.17827062622382,36.47211047175733 15.12303243012866,36.445792926064314 15.051427361104288,36.46493296232984 14.95118026448472,36.32138229536213 14.001901635245304,35.36435455544597 13.90165453863301,35.29496846921029 13.388143900832802,34.605881294273786 13.17946627112542,34.16083466286182 13.087402610959543,33.84977536312181 13.034210273974168,33.24439383777826 13.087402610959543,32.938107679325185 13.001476528137573,32.49302820680896 13.054668865122949,32.18912482133965 13.103769483874203,32.11972898692329 13.38405218259868,32.107764166350535 13.911883834196487,31.755995610392347 14.093965295418457,31.66984737419989 14.245358869899064,31.657882315417737 14.302642925111286,31.586091829689394 14.290367770423472,31.526266250686604 14.797740830879775,31.29653455537664 14.836612154060276,31.18166783183733 14.8795751954749,31.155344125454576 15.06165665667504,31.193633142787803 15.493332929887401,30.995008160647558 15.562892139787436,31.016545893713555 15.618130335882597,31.09312433390187 15.892275457263167,30.91364320600769 16.254392520568217,30.82749175821482 16.467161868502444,30.849029650953526 16.718802539617172,30.78202280610276 17.383706751905265,30.73176754205815 17.451220102695515,30.75330552604464 17.91972183996404,30.738946872334054 18.0322440912787,30.79638143244847 18.206142116032424,30.813133151637885 18.261380312127585,30.738946872334054 18.400498731927655,30.71980198651727 18.402544591051992,30.58578733160357 18.42914075954468,30.571428571427532" stroke="#4dd2ff" stroke-dasharray="none" stroke-linecap="round" stroke-linejoin="round" stroke-width="0.5"><title>2026-07-19 15.6km</title><desc>1784414563000</desc></polyline><polyline fill="none" opacity="1" points="46.87539015611401,36.200732960074674 46.70900360145606,37.651060472635436 50.747659063665196,38.60614733102557 52.45690276112873,34.36127509364451 52.45690276112873,31.70817522201105 48.433373349369504,31.778925098260515 48.19135654263664,32.04423686755763 48.070348139328416,33.583036827723845 47.01152460987214,35.79393152080593 46.69387755100615,37.66874731586722 56.29891956783831,39.96802100914647 56.979591836745385,36.200732960074674 56.88883553422056,31.761237632046686 56.57118847541278,31.460550419433275" stroke="#4dd2ff" stroke-dasharray="none" stroke-linecap="round" stroke-linejoin="round" stroke-width="0.5"><title>2026-07-14 4.4km</title><desc>1784026688000</desc></polyline><polyline fill="none" opacity="1" points="62.25876868853811,32.576293334932416 59.71837871638127,32.75497448837996 59.57512364274589,33.815887608681805 58.90659996587783,35.22297698442708 58.77289523050422,36.39553713906935 65.0188164402498,37.88076130760601 65.41038030816708,38.1264354721352 66.10755499976221,38.182270429802884 68.31368313339772,39.00862435105955 69.02040816325461,38.96395673687948 68.6383946336573,36.39553713906935 68.4091865158407,35.92651463990478 65.29577624920057,37.132568285262096 65.03791711671511,37.065565666387556 65.25757489626994,35.35698451833741 65.19072252855403,32.598628495623416 65.06656813144218,32.419947077512916 59.72792905464303,32.743806925158424 59.68972770165419,33.469696078114794 59.02120402478613,34.966128735664824 58.73469387757359,36.35086841938755 61.24643283494515,37.0208972301989 61.42788926156936,36.88689180822985 62.335171394457575,34.44126297982439 62.46887612983119,32.66563394945115 61.81945312942844,32.576293334932416 59.73747939290479,32.72147179514286 59.67062702518888,33.61487330978707 58.983002671797294,35.1224712223775 58.744244215777144,36.35086841938755 61.380137570318766,36.9762287751073 62.44022511510411,34.10624092024227 62.46887612983119,32.72147179514286 62.335171394457575,32.56512575276429 59.73747939290479,32.73263936075091 59.651526348723564,33.67071065342316 59.059405377774965,34.82095336211205" stroke="#4dd2ff" stroke-dasharray="none" stroke-linecap="round" stroke-linejoin="round" stroke-width="0.5"><title>2026-07-09 10.0km</title><desc>1783598044000</desc></polyline><polyline fill="none" opacity="1" points="78.8407316096127,39.1645687854616 77.95010631042533,32.65462510212092 75.6122149003204,30.571428571478464 73.83096430194564,31.157328308850992 73.051667165244,32.65462510212092 73.94229246443138,39.034370587032754 76.00186346890405,40.79204394062981 78.8407316096127,38.96927147731185 77.95010631042533,32.78482465108391 75.77920714393258,30.571428571478464 72.9403390029911,32.32912610931089 73.83096430194564,39.099469689594116 76.28018387476914,40.85714285715949 77.72744998568669,40.4014502959908 78.89639569097199,38.578676675329916 78.06143447291106,32.65462510212092 77.11514509259723,31.22242824517889 75.33389449422248,30.63652856979752 72.88467492163181,32.78482465108391 74.2206128705293,39.22966787428595 76.33584795566276,40.6618460866157 78.8407316096127,38.578676675329916 77.8944422295317,32.2640262900386 75.27823041309603,30.76672854583012 73.10733124660328,32.39422592159826 74.05362062691711,39.22966787428595 76.1688557122834,40.79204394062981 77.78311406681314,40.4014502959908 78.89639569097199,38.64377582632005 77.78311406681314,32.65462510212092 76.94815284898505,31.22242824517889 75.22256633196957,30.70162856130628 72.9403390029911,32.78482465108391 73.99795654555783,39.1645687854616 76.83682468649931,40.72694501694059 78.56241120374762,39.620262262935285 78.95205977209844,38.05788322020089 77.50479366094805,31.87342722999165 74.66592552000657,30.831828523485456 72.9403390029911,32.84992441511713 73.99795654555783,38.96927147731185 75.22256633196957,40.59674714936409 76.55850428063422,40.6618460866157 78.2840907976497,39.94575739733409 78.89639569097199,38.31828000303358 77.8944422295317,32.2640262900386 75.05557408835739,30.70162856130628 72.9403390029911,32.52442552574212 74.05362062691711,39.42496509948978 76.33584795566276,40.72694501694059 78.89639569097199,38.8390732377884 77.83877814817242,32.39422592159826 75.05557408835739,30.76672854583012 73.10733124660328,32.84992441511713 73.8866283830721,39.1645687854616 76.1688557122834,40.6618460866157 78.06143447291106,39.880658384179696" stroke="#4dd2ff" stroke-dasharray="none" stroke-linecap="round" stroke-linejoin="round" stroke-width="0.5"><title>2026-07-08 4.7km</title><desc>1783508969000</desc></polyline><polyline fill="none" opacity="1" points="108.25375386986707,39.34808617353701 108.37297620646132,39.368590054888045 108.67453858726367,39.59413203372969 109.62831728007586,40.61520565947649 109.82468348152179,40.70952033988942 110.00351698641316,40.697218438072014 110.14027201957651,40.8571428571413 110.42780824312649,40.57009855726574 110.60664174803242,40.27485077354868 110.61716136596806,40.11902464748346 110.91521720746823,39.69665068106042 111.32548230692919,39.22916344773694 111.57795313737006,39.097937947441096 111.52184850837511,39.02002259635992 111.78483895676618,38.47050988202318 112.12497327000892,37.3632590991765 112.11094711275655,36.42002051014788 112.05484248377616,36.260077776601975 112.12146673067764,36.06732539982477 112.67199340261868,35.84586403833964 113.36979472565872,35.312711123664485 113.555641309169,35.300407508239005 113.59771978094068,35.15276381843796 113.78356636445096,34.92309473800924 113.70992903888691,34.37352391092281 113.36979472565872,33.51224051210738 113.18044160281715,32.83550440617546 113.4574582084606,32.70835872745738 114.1166875990748,32.57711113743062 114.50240692334773,32.568908148292394 114.76189083240752,32.47047214306076 114.90565894420433,32.12594415458807 114.8565673938283,31.777311522699165 114.88812624763523,31.387659573185374 114.80046276483336,30.977495390987315 114.86708701176394,30.79292009173878 114.98630934835819,30.784716724687314 115.20722132500669,30.87905534086167 115.83138532248267,31.354846598449512 116.0382711418788,31.43277736800883 116.19606541089888,31.34254172576766 116.35385967993352,31.043121952054207 116.46957547721104,31.0595285749514 116.57477165656746,30.998003703265567 116.14346732123522,30.92007205882328 116.08034961360681,31.149764876616246 115.95762073771039,31.194882948602753 115.30189788641292,30.702682958602963 114.97929626972473,30.571428571427532 114.83552815795701,30.583733689109067 114.66020119236782,30.6903778786982 114.61110964200634,30.842140257551364 114.70578620342712,31.96598368958439 114.70578620342712,32.14645185873451 114.63214887787763,32.26129480126838 113.19797429937171,32.57300964307433 112.98407540137123,32.757576459047414 112.97355578343559,33.032374311045714 113.54161515193118,34.56628471565273 113.555641309169,34.89438600721769 112.64744762743067,35.616199067004345 111.90055475405825,35.964797149121296 111.93912668648409,37.12950211090356 111.65509700223629,38.281869392227236 111.32548230692919,38.995417716101656 110.77846217430488,39.55722525429519 110.4804063328047,40.0206078239753 110.30858590653224,40.135427427099785 110.05962161539355,40.4470789207553 109.8141638635716,40.50448813305775 109.35480721374915,40.06571556576819 108.64297973345674,39.2414658156049 108.35193697059003,39.14304676329266 107.95219148905016,39.126643563602556 107.58049832201505,38.872393080477195 107.5068609964801,38.98311527012993 107.51738061441574,39.040526651315304 107.88206070283195,39.27017132544279 108.08193344358006,39.70895290050976" stroke="#4dd2ff" stroke-dasharray="none" stroke-linecap="round" stroke-linejoin="round" stroke-width="0.5"><title>2026-06-28 15.3km</title><desc>1782609425000</desc></polyline><polyline fill="none" opacity="1" points="134.18736300089222,30.571428571427532 134.30278285423992,30.63042833574218 134.1765423896577,30.811641352891456 133.92766833088535,30.98442509225424 134.37492026259133,31.544913543155417 134.32803094715928,31.705051656619617 134.97366075178434,32.41723707221536 135.3884508497431,32.51416073337532 135.4569813876733,32.699579256237485 135.34516840473225,32.767003960372676 135.34516840473225,32.83442855072644 135.61929055642395,33.14205180079807 135.86455774477508,33.015631573663995 135.89701957853686,33.08305574457336 135.7852065955958,33.17576379381717 135.7852065955958,33.27689960227872 135.94390889395436,33.432816805558105 136.1278592852177,33.44545871430819 136.22524478647392,33.51709612164268 136.21081730480364,33.81207232835368 136.45608449315478,34.119688053462596 136.59675243940728,34.18289647086567 136.91415703610983,34.13232974493803 136.91055016570317,34.31352688341212 137.00072192611697,34.418873679318494 137.0584318527981,34.66749101675305 137.5670005815773,35.28692070738907 137.86637082618836,35.135224527875835 138.02146625411115,35.24478293750508 138.08278305119893,35.45968509952945 137.8627639557526,35.573456364614685 137.62471050822933,35.8473488227537 137.9781838091003,36.49204212422046 138.29919527622405,37.99207257236776 138.31001588747313,38.914816151129344 138.18738229329756,39.76591235226442 138.28476779453922,39.90916438697241 138.2270578678872,40.11140167987105 138.0899967920268,40.27993197590695 137.98539754992817,40.66754896110069 138.00703877244086,40.836076913077704 138.09360366243345,40.8571428571413 138.14770671870792,40.79815818581483 138.08278305119893,40.27993197590695 138.21984412704478,40.11982821154379 138.27394718329015,39.90916438697241 138.18377542287635,39.732205916559906 138.317229628301,38.68307889886273 138.28116092414712,37.96257813412376 137.95654258660215,36.46254657922691 137.6066761561524,35.838921390470205 137.8627639557526,35.5523876362422 138.07196243994986,35.4428300697582 138.00703877244086,35.23214159787676 137.85555021492473,35.135224527875835 137.5453593590646,35.28692070738907 137.0584318527981,34.67591869600801 136.98268757404003,34.40623207846875 136.89972955443955,34.3219546373075 136.89972955443955,34.13232974493803 136.6003593098285,34.18711036181048 136.45608449315478,34.13232974493803 136.20721043438243,33.807858397867676 136.2432791385654,33.59716130729794 136.19638982313336,33.48338441653323 135.95833637562464,33.44124474516866 135.7743859843613,33.27268561537494 135.7815997252037,33.16733579822903 135.9150539306138,33.08305574457336 135.89341270811565,33.01141755920253 135.66978674226266,33.14205180079807 135.60125620433246,33.12519579360378 135.33074092307652,32.788074157073424 135.44976764683088,32.68693711156084 135.37041649766616,32.509946666043106 134.98808823346917,32.4340933780004 134.32442407673807,31.696623350857408 134.3568859104853,31.53227103318568 133.93127520130656,30.988639320468792" stroke="#4dd2ff" stroke-dasharray="none" stroke-linecap="round" stroke-linejoin="round" stroke-width="0.5"><title>2026-06-21 12.1km</title><desc>1782018676000</desc></polyline><polyline fill="none" opacity="1" points="150.51513630052796,36.60199245579861 149.87507014381117,36.76734457244311 149.19779083845788,36.59328970363276 148.9819545763021,36.70642541023699 148.78844620336895,37.037128891432076 148.52795416282606,37.09804780877312 148.08139637907152,36.84566914324387 147.00221506835078,36.863074593333295 146.05700109276222,37.585397523747815 145.32762337927124,37.48096568497567 144.94804926309735,37.28950696964603 143.12460497944267,37.341723027093394 143.02040816325461,36.96750721636636 144.23355680910754,37.09804780877312 144.85873770632315,36.95010178839584 145.61788593870006,37.22858819406247 146.0644437224546,37.071939706846024 146.1016568710911,37.18507475529623 146.57798517378978,36.66291169532633 146.9873298088787,36.50626213112264 148.11116689801565,36.54107317116723 148.5949378303776,36.810858232100145 149.21267609792994,36.29739558159781 149.85274225461762,36.41923446659348 150.5821199680504,36.27999001186254 151.35615345992846,36.48015384143946 152.02599013553117,35.73171268054284 152.3981216219836,34.87882956935209 153.12749933544546,34.34794888256147 153.30612244896474,33.84317390481738" stroke="#4dd2ff" stroke-dasharray="none" stroke-linecap="round" stroke-linejoin="round" stroke-width="0.5"><title>2026-06-18 10.3km</title><desc>1781755773000</desc></polyline><polyline fill="none" opacity="1" points="181.97835838899482,32.323592101391114 181.48238469159696,32.04627296990657 180.71686007163953,32.14711636504944 180.37183489085874,31.844585923681734 180.49043729674304,31.441210807963216 181.49316672852729,31.264733765761775 182.26947338535683,30.697484361146053 183.02421596838394,30.76051220601221 183.47706151817692,30.571428571427532 184.76012390933465,30.873962242847483 185.57955871376907,30.672273213858716 185.80598148866557,31.10086199270154 184.4474448392284,33.81102007343725 183.87599688349292,36.23120220663259 185.54721260303631,36.98749905099976 188.19959368056152,37.64295243669767 187.8976966473274,40.126079705150914 185.69816111965338,39.62189561015839 185.3100077912677,40.1638934263392 185.57955871376907,40.61765714566718 185.33157186507015,40.857142857144936 185.04045686876634,40.819329355719674 184.95420057349838,40.4916118412948" stroke="#4dd2ff" stroke-dasharray="none" stroke-linecap="round" stroke-linejoin="round" stroke-width="0.5"><title>2026-06-11 10.1km</title><desc>1781164397000</desc></polyline><polyline fill="none" opacity="1" points="37.25211907661287,44.72959999665909 38.53259332632297,44.662746776870335 38.81079160083027,44.82765119369651 39.03563678158389,45.46497840968732 39.462461531482404,45.61205255132518 40.04934556261287,45.51400318063315 40.4685484419897,45.29561967090558 40.93729347983026,45.567484683848306 41.13165117845347,45.55857110470606 41.482257222989574,45.42932399496567 41.79475391491724,45.07723502868612 41.96624600191717,45.166371754145075 41.98148974298965,45.40703997043602 42.21776772955491,45.607595766705344 42.7017565084534,44.97027070910917 42.99900945927948,44.89450415168176 44.04320572245342,45.041580285687814 44.462408601815696,45.616509335486626 44.4204883138882,45.72792878601831 44.47003047235194,45.964137046241376 44.67582097677223,46.427636197040556 44.88161148119252,46.516770064299635 44.93877551020705,46.8376504245025 44.46621953709109,47.06939583091298 44.096558816192555,47.35016259575059 42.47691132769978,49.36449783626449 42.25587708220701,49.565034789105994 41.722346144830226,48.64701336443977 41.60801808681572,48.58462283280096 41.43271506452584,48.60244870843235 41.226924560120096,48.49994982063072 41.196437077989685,48.419733125760104 41.89383823185926,48.03201694691961 41.93194758451136,47.63538405947111 42.00435535458382,47.5105999067564 42.309230175975244,47.73342849153414 42.50739880983019,47.76908095570252 43.05617348829401,47.28331353579051 43.185745287380996,46.95352328710214 43.22766557530849,46.64601383676927 43.83360428275773,46.16023346336078 43.92887766442436,45.932939804788475 43.92506672916352,45.4204103865668 43.86028082964185,45.31344693863866 43.70784341896069,45.2510514685564 43.528729461395415,45.277792395620054 43.14001406416355,45.68781781777216 42.99900945927948,45.68336104117043 42.82370643700415,45.46943520940113 42.865626724931644,45.70564491949335 43.04855161775777,45.90619929372406 43.57064974932291,45.83489118118814 43.166690611018566,46.146863282108825 42.858004854409955,46.20925742496911 42.858004854409955,46.316218597665284 42.56456283884472,46.86884699579241 42.41974729868525,46.891130246858665 42.22157866481575,46.77971387366415 41.98148974298965,46.739603907164565 41.27646671858383,46.95797992929511 40.67433894639544,46.91341348612332 40.388518801366445,47.36798899382484 39.588222395294,47.82255959536269 39.51962556048238,48.063212633580406 39.24142728600418,48.290494796026906 39.146153904323,48.557884005247615 38.68121980174328,49.25754440439414 38.46018555626506,49.458081866392604 38.10195764116361,49.62296750884343 37.92665461887373,49.61851114861929 37.743729726062156,49.449169110575895 37.53031735110562,49.413518068449775 37.41980022835196,49.413518068449775 37.20638785339543,49.565034789105994 36.985353607917204,49.62296750884343 36.70715533342445,49.489276496904495 36.43657892946794,49.1550471106857 36.42895705894625,48.93668247935784 36.162191590236034,48.79407639480996 36.0288088558882,48.27266878839146 35.762043387192534,48.01864735986237 35.76966525774333,48.4732109393226 35.68201374661294,48.976790353655815 35.411437342641875,49.110482992138714 35.369517054685275,49.030267459969764 35.26662180249696,49.1550471106857 35.20183590296074,49.14167788006671 34.99223446326505,49.29319557851704 34.97317978693172,49.23080600398316 34.79787676464184,49.32439033113042 34.725468994583935,49.262000802802504 34.65306122449692,49.3422158936919 34.74071273562731,49.48036374768344 35.06845316859835,49.55166568862114" stroke="#ff8800" stroke-dasharray="none" stroke-linecap="round" stroke-linejoin="round" stroke-width="0.5"><title>2026-06-06 21.6km</title><desc>1780740439000</desc></polyline><polyline fill="none" opacity="1" points="98.27422402999946,52.285714285713766 98.18442755675642,52.14788255197709 98.6165730842331,51.235560018903925 99.16096420321264,49.46994807519877 99.0711677299987,48.24908662706366 99.1329028053151,47.979968773546716 99.04310633210116,47.67146638260965 99.11045368702617,47.43516564081074 100.08699033345329,47.0282011412055 101.15332345315255,46.227392229680845 101.46761110945954,46.181443863628374 101.49567250735709,45.932009282358194 101.81557244324358,45.557855528863 101.78189876579563,44.9933385748991 100.94566910879803,42.754912611409964 100.85026035597548,42.22319251185763 101.06352697988041,42.105031870400126 101.77067420663661,41.99999999999636 101.77628648624523,42.22319251185763 101.27679360384354,42.36761076782568" stroke="#4dd2ff" stroke-dasharray="none" stroke-linecap="round" stroke-linejoin="round" stroke-width="0.5"><title>2026-05-23 13.0km</title><desc>1779516917000</desc></polyline><polyline fill="none" opacity="1" points="155.06122448982205,44.05394825075928 155.5576392719522,43.42686321079964 157.76172090461478,42.98558007090469 160.83949255384505,46.58549555405625 165.30722559290007,49.79053187937825 165.30722559290007,50.20857664317009 163.42084942094516,51.30013421481999 160.76006618863903,48.211244470308884 156.17319360177498,44.982959829241736 155.08108108106535,44.07717358812806 155.08108108106535,43.72879326867405 157.78157749585807,43.03203096953803 160.97848869278096,46.77129604005313 164.98952013242524,49.39571109312237 165.34693877550308,50.23180132894777 163.817981246626,51.25368506711675 163.28185328189284,51.16078674211167 160.74020959739573,48.25769426229817 155.06122448982205,44.05394825075928 155.29950358520728,43.566215596860275 157.8610038610641,43.07848185842158 160.91891891893465,46.70162087617791 160.20408163266256,47.700296109338524" stroke="#4dd2ff" stroke-dasharray="none" stroke-linecap="round" stroke-linejoin="round" stroke-width="0.5"><title>2026-05-10 15.1km</title><desc>1778395698000</desc></polyline><polyline fill="none" opacity="1" points="143.02040816326917,59.644512183869665 143.22265535428596,59.71548471504866 144.13565695942088,59.647891831788 144.25989451960777,59.678308646973164 144.90708553083823,59.66141041988885 145.0688832836604,59.74928110298424 145.27690896583954,59.76279964813875 145.34047236874176,59.75266073981402 145.3751433157595,59.65803077340388 145.54849805090635,59.65465112655511 146.36904379729822,59.705345791695436 146.43260720018588,59.85067005201927 147.19825728044088,59.88446629678219 148.08236642972042,59.86418855422744 148.8162348085316,59.76279964813875 149.88814492088568,59.49918698459442 150.54978216005838,59.22205337464038 150.59889933501836,59.188256428275054 150.6017885806068,59.10038420017736 150.83581747305288,59.02603058736713 151.23742260949803,58.81310791946089 151.25764732858806,58.6711586847814 151.35010318734567,58.58666479288149 152.20820912635827,57.954643384622614 152.66182068333728,57.505123212977196 153.0143086448079,57.25163160141892 153.0952075212117,57.322609455692145 153.30612244899385,57.35302848775609 153.0894290300348,57.51526283554995 153.1067645035655,57.60989915742175 151.63324925475172,58.64750041760635 151.50901169457939,58.64750041760635 151.48589772988635,58.56976598764959 151.36454941527336,58.59004455285685 151.25186883742572,58.68129793677144 151.24031185508647,58.81310791946089 150.84448520980368,59.02941030080183 150.7318046319706,58.914499843293015 150.17706947949773,59.30992526767659 149.79568906214263,59.401176592764386 149.4807612932782,59.526224281089526 149.41430864480208,59.607336033095635 149.02137124513683,59.71886435545093 148.14304058701964,59.86080892921018 147.1491401054809,59.89122554143978 146.42971795459744,59.84729042557956 146.38060077963746,59.813494141450064 146.36326530612132,59.69858650764945 145.41270350838022,59.6377528869416 145.30869066728337,59.75266073981402 145.06021554689505,59.74590146580522 144.93886723229662,59.66141041988885 144.2916762210516,59.69182722219557 144.11832148590474,59.647891831788 143.176427424929,59.72562363518591" stroke="#4dd2ff" stroke-dasharray="none" stroke-linecap="round" stroke-linejoin="round" stroke-width="0.5"><title>2026-04-12 19.4km</title><desc>1775975191000</desc></polyline><polyline fill="none" opacity="1" points="174.358884165762,63.48385804638383 175.18298048363067,62.20602702230099 174.59178095124662,60.718705119768856 174.7888474620413,59.29421733306663 174.44845985248685,57.47169595974265 173.51687271066476,56.1938261436153 173.28397592518013,54.18273563479306 172.72860666748602,53.428571428579744 171.81493466277607,53.49141855549533 169.3068154345965,54.664561262878124 169.8084392802557,56.612800762362895 170.59670532343443,57.8278221442597 170.32797826325987,58.26774184094393 170.47129936201964,59.9436174477305 169.89801496698055,61.80801239646098 170.90126265818253,63.71428571428987 172.8719277662458,63.2743781156023 174.39471444045193,63.33722211807617" stroke="#4dd2ff" stroke-dasharray="none" stroke-linecap="round" stroke-linejoin="round" stroke-width="0.5"><title>2026-04-09 10.0km</title><desc>1775707979000</desc></polyline><polyline fill="none" opacity="1" points="26.807429488631897,66.44489183036785 26.761201559274923,66.12017468340491 26.9865627149411,66.46477242137917 27.252373308845563,66.57742899333971 27.575968814489897,66.52441415932844 27.506626920425333,66.82262206010637 28.101811511121923,66.38525002230745 28.16537491400959,66.74310008180328 28.48897041962482,67.24011091223656 28.87035083695082,67.53831565738801 29.037927080964437,67.55819592697662 29.505984865827486,67.32625908475893 31.436000917223282,67.20035018021736 31.528456775966333,67.42566068597807 31.70181151109864,67.38590006302547 32.20454024305218,68.22086823642167 32.580142169230385,68.28713511026581 32.53391423984431,69.14197196227906 32.672598027973436,69.67209791601636 32.89795918366872,69.89740018823068 32.85173125428264,70.14920772203914 32.47035083695664,70.34137599881797 32.447236872278154,70.73233735944814 32.26232515479205,70.57992896217911 32.08897041960154,70.73896380372025 31.771153405192308,71.31546197002899 31.67291905527236,71.72629674556083 31.57468470535241,71.64678053212265 31.603577161207795,70.79860177289083 31.51112130243564,70.51366433453222 31.69025452877395,70.12270171001 31.609355652384693,69.75161645071785 31.476450355403358,69.62571206092252 31.002614079305204,69.60583239900006 31.181747305672616,69.51306056614703 30.94482916762354,69.40703545849829 30.731024994282052,69.45342146354233 30.754138958931435,69.83113489193056 29.933593212539563,70.14258122001775 29.835358862619614,70.34137599881797 29.118825957353693,70.42752022152854 28.974363678047666,70.59318187992903 28.436963999061845,70.74559024733026 28.41385003438336,70.48053199634887 28.87612932815682,69.85764101825771 29.04948406328913,69.2413708950844 28.84723687224323,68.73112149036751 28.720110066497,68.63172180773836 28.783673469384667,68.53894863881578 28.454299472592538,68.54557529794693 28.292501719784923,68.4395486737485 28.344508140318794,68.32689520341955 28.685439119464718,68.22086823642167 28.702774592966307,67.88953289328492 28.494748910772614,68.14134790210665 28.101811511121923,67.95580009176047 28.48897041962482,67.98230695298116 28.47741343730013,67.52506214108143 28.633432698901743,67.41903391710366 28.436963999061845,67.42566068597807 28.304058702138718,67.69073090827442 27.899564320105128,67.59795644864789 27.760880531976,67.94254665725748 27.610639761493076,68.81726776383584 26.680302682856563,69.61245895361208 26.287365283205872,70.85823968949262 25.929098830529256,71.18956049095141 25.721073148335563,72.3889282227974 25.57661086905864,72.3889282227974 25.085439119429793,72.7268677770553 24.663609263894614,72.80638272096257 24.59426736983005,73.38286326926755 24.449805090553127,73.70091940007842 23.623480852984358,73.64128398946195 23.427012153173564,73.7207978586157 23.32877780322451,73.53526535187848 23.091859665175434,73.5021344935667 23.045631735789357,73.78043319916469 22.61224489795859,73.87982531658781" stroke="#4dd2ff" stroke-dasharray="none" stroke-linecap="round" stroke-linejoin="round" stroke-width="0.5"><title>2026-03-22 12.8km</title><desc>1774137608000</desc></polyline><polyline fill="none" opacity="1" points="182.68150725556188,70.69267522007976 182.77830058125255,70.67602492140759 182.84377841922105,70.56946280107695 183.81171167609864,70.64272429760604 183.8344865762774,70.76593642949774 183.92558617691975,70.79257682696516 185.14119647307962,70.80589701722784 186.1375983551552,70.71931567961656 187.13969396229368,70.47289056755835 187.9282748803962,70.18650219983829 187.98236526829714,70.10990951981694 187.92542801787204,69.93341263369621 188.10762721917126,69.8601494843042 188.2158079949586,69.95672359998207 188.61152188526466,69.74359412202102 188.60582816023089,69.64368918184118 188.67984658575733,69.56376500111219 189.42857142857974,69.01761099447504 188.71970266103745,69.52713301704534 188.6200624728226,69.6270383276169 188.60867502275505,69.7502544400777 188.36384484599694,69.88346050490509 188.19303309477982,69.96338387288051 188.10193349413748,69.85015904160718 187.9282748803962,69.9367427727957 187.8884188051161,70.04663716514733 187.4158396267594,70.28973551681156 187.12830651221157,70.34967728724041 186.87778261041967,70.45291006842126 186.82938594759617,70.5228417598646 186.27994148117432,70.67269486061741 185.38602664980863,70.79257682696516 184.69423905739677,70.79590687505879 183.8771895140526,70.76260637822452 183.8031710885407,70.61608377316406 182.99750899530773,70.56613272900177 182.82385038156644,70.56613272900177 182.7669131311559,70.66603473797295 182.51638922937855,70.67269486061741 182.40820845362032,70.58611315619055 181.3235538333829,70.58611315619055 180.71432525405544,70.65271448844942 180.41825155194965,70.72930584613641 179.86311336049403,70.72930584613641 179.47878692025552,70.84585755416629 179.27096595628245,70.98238900552678 179.14285714285506,70.93243854331558" stroke="#ff9000" stroke-dasharray="none" stroke-linecap="round" stroke-linejoin="round" stroke-width="0.5"><title>2026-02-18 20.3km</title><desc>1771394553000</desc></polyline><polyline fill="none" opacity="1" points="58.73469387754449,83.92738289470071 58.836046093550976,83.95253080022303 60.43618259487266,83.9597159126497 61.243929043688695,83.86630933223205 62.35880341983284,83.59686583213988 63.114338121027686,83.3202349452149 63.20340521995968,83.22323397007858 63.14505091375031,83.03641649558631 63.33547022870334,82.95378536134376 63.45217884107842,83.06875036288329 63.851445146574406,82.8567833381785 63.88215793931158,82.71307612723467 63.95279736259545,82.63403690166524 64.22614121790684,82.5693683073805 64.96017696418858,82.10231368742825 65.2642336122226,81.82926339183177 65.46693804425013,81.82926339183177 65.85391923265706,81.57417494522815 66.04433854759554,81.2975275596691 66.01055447559338,81.20411364707252 66.18254611488373,81.22207788102241 66.53267195202352,80.88434869058256 66.63402416804456,80.96339199408249 66.72309126697655,80.90231309392766 66.78144557315682,80.85201274060819 66.78451685240725,80.76937628387532 67.14692780665064,80.48553648575034 67.26056513976073,80.47116478721364 68.80541861413803,79.1094187189592 68.88834315451095,79.15972165732455 69.02040816325461,78.99444029391088 68.95591129852983,78.8974269444916 68.82384628978616,79.06989492932917 68.7163515152206,79.06270878080977 68.3570118402713,79.40404915351974 68.24951706570573,79.3537465776426 68.3570118402713,79.40045611486494 68.4675778940873,79.32500221505688 68.51364708319306,79.3896769965977 67.97924448967387,79.88910587742066 67.39570142776938,80.36337685399485 66.79065941098088,80.76578338989202 66.78144557315682,80.85560562546743 66.64938056441315,80.97057773982306 66.526529393479,80.90231309392766 66.31768240290694,81.12507090466897 65.85391923265706,81.4627976977572 65.86620434974611,81.57058213650453 64.26913912773307,82.6771492293592 64.14935923607845,82.65559307236254 64.13093156043033,82.58014641498448" stroke="#ff7e00" stroke-dasharray="none" stroke-linecap="round" stroke-linejoin="round" stroke-width="0.5"><title>2026-02-08 23.1km</title><desc>1770528486000</desc></polyline><polyline fill="none" opacity="1" points="64.02141043756637,99.14285714285779 64.11314687749837,99.3732620591336 64.17465199063008,99.69630881233206 64.575998915323,100.54593949092305 64.62395205437497,100.8031324097874 64.68649962705604,100.95305738749448 64.77198130971374,101.27727871920433 64.84286855874961,101.65877560005083 65.09410130900869,102.26329432435432 65.10452590445493,102.32545070247397 65.08471917311181,102.35835688464522 65.0315537363349,102.37907554375579 64.87622726417976,102.53141748213238 64.7365376851958,102.56676052417515 64.74279244246645,102.62282167900594 64.77198130971374,102.6496334393114 65.02425651951853,102.66182058247432 65.15769134123548,102.61916552504499 65.24838532161812,102.55822945497948 65.43602803965769,102.37176308008566 65.5496561300206,102.20966894456069 65.6247132172357,102.0256344943482 65.65285962494454,101.90375575800317 65.6195009195144,102.13410548603588 65.58092991636295,102.27426312131229 65.38077768378935,102.56554180039166 65.48293871916758,102.73859928821093 65.52150972231902,102.75931726407543 65.56842040182528,102.74713022395645 65.80193133982903,102.40954409245933 66.00312603194106,102.1718872772044 66.18868383089284,101.83672190379093 66.19598104770557,101.79528259895142 66.17721677589725,101.75140552558696 65.97289470514806,101.59783445364064 65.95621535243117,101.55639429006169 66.18972629043492,101.3942886895693 66.2835476494547,101.27727871920433 66.3085666785264,101.28459187714816 66.42844952615997,101.44304249333527 66.29605716398873,101.70996591406492 66.17304693772167,101.91106851851964 66.1584525040962,101.98175829769843 66.11154182458631,102.0585415322521 66.07192836189279,102.08657337934619 66.02814506101276,102.20235637344285 65.80818609709604,102.53385493678343 65.71957703579756,102.6508521542064 65.63409535313986,102.70691290018385 65.58822713317568,102.78369130566716 65.417263767853,102.91531023996959 65.23483334753473,103.00061800607818 65.10139852582142,103.02377286226783 65.05240292722374,102.81537748270785 64.85225069465378,102.86046919991986 64.79491541969401,102.71300644310122 64.16526985472956,102.76419207651543 63.85148953179305,102.84828226671198 63.72639438643455,102.9177476134746 63.55334610202044,102.98111914375113 63.68156862601245,103.32234447445626 63.677398787836864,103.34915460833872 63.5731528333672,103.3454986846591 63.17493328731143,103.27359861680361 63.02064927470201,103.30772073879598 63.005012381541746,103.32965633532967 62.98416319064199,103.60628499971608 62.930997753865086,103.71717832806189 62.572391670510115,104.00963913490796 62.269035943016206,104.15708531320251 62.26799348347413,104.17901929437721 62.35972992340248,104.30574814674128 62.36389976157443,104.36058231476909 62.27737561937465,104.53483138512547 62.10224241587275,105.0234458587056 62.08139322497664,105.2098693683156 62.13977095948212,105.60220181618115 62.27320578119543,106.04812871080503 62.25339904984503,106.19189381763226 62.199191153526044,106.3648969107544 62.1908514771676,106.50865807148875 62.22733756123125,106.6304881617898 62.417065198354976,106.98013337930661 62.42853225335057,107.06419284530602 62.417065198354976,107.19576295443403 62.3711969783908,107.29687600064153 62.21795542532709,107.48448099319921 61.828075555633404,108.06554983839578 61.508040475422604,108.42733264805884 61.41943141412776,108.61004693046834 61.326652514657326,109.0375870534117 61.326652514657326,109.13259381999887 61.37877549188852,109.42857142857156" stroke="red" stroke-dasharray="none" stroke-linecap="round" stroke-linejoin="round" stroke-width="0.5"><title>2025-11-30 42.8km</title><desc>1764458479000</desc></polyline><polyline fill="none" opacity="1" points="99.10776162683032,99.14285714284051 97.00462831906043,101.52796368970303 98.08806062908843,108.01243127818452 100.95596968522295,109.42857142857974 102.99537168070674,107.04349164006999 101.8482080581598,100.40994600171689 98.98029900202528,99.21739184466423 97.00462831906043,101.45342923240969 98.15179194137454,108.0869650413515 100.82850706065074,109.42857142857974 102.99537168070674,107.04349164006999 101.91193937067874,100.5590151293436 99.17149293911643,99.14285714284051 97.00462831906043,101.52796368970303 98.02432931680232,107.86336372827645 100.82850706065074,109.42857142857974 102.99537168070674,107.04349164006999 101.91193937067874,100.5590151293436 99.10776162683032,99.14285714284051" stroke="#4dd2ff" stroke-dasharray="none" stroke-linecap="round" stroke-linejoin="round" stroke-width="0.5"><title>2025-11-26 8.7km</title><desc>1764155703000</desc></polyline><polyline fill="none" opacity="1" points="160.57075700481073,105.7395839433675 160.54182798136753,105.71321656601685 160.5288099208119,105.57258974840079 160.33643191491137,105.56731621636027 159.81570949290472,105.46360303208166 159.17348517243954,105.12784851240576 158.97821426418523,104.97666856082287 158.68024532270647,104.656724425412 158.26800673862454,104.05724975690191 158.05248551395925,103.80057564805065 156.8504845898351,103.00063762552236 156.4773001874055,102.84240292695631 156.40931698230997,102.85822647409987 155.8509868298279,102.7861412869106 155.24926314219192,102.79669036095947 155.06122448979295,102.8230630126809 155.1697083277104,103.053382143401 155.21020896053233,103.08502876253078 155.63112625165377,102.9056970124775 155.634019153993,102.8230630126809 155.65426947041124,102.80372307274683 155.84520102514216,102.7896576457706 156.5655337089047,102.8740500040667 156.8880923203178,103.02173545557343 157.21499028523976,103.2309539509597 157.51295922671852,103.46302473619016 157.91217975025938,103.68630147473868 158.05393196512887,103.8040917622593 158.23763126401172,104.00978296771245 158.73810336960742,104.75341158007996 159.02739360404667,105.03643756621568 159.39045284827444,105.28078477576582 159.8446385163479,105.47590802471314 160.3161815985004,105.56204268241618 160.52013121377968,105.57434759198713 160.5389350790283,105.59719953936565 160.53604217667453,105.72024787130522 160.55773894426238,105.74134176682674 161.60786249530065,105.78528728451784 162.31662356969173,105.70970091210074 162.3672493607155,105.65520816805565 162.3368738861027,105.54622206913336 162.39328548181948,105.52512789140292 162.6160389623401,105.48997086071995 163.04418850931688,105.4829394444132 163.82382569114998,105.34582614881583 164.54560482609668,105.14191168404705 164.85948473047029,105.01358474013614 165.34693877550308,104.86064567458016" stroke="red" stroke-dasharray="none" stroke-linecap="round" stroke-linejoin="round" stroke-width="0.5"><title>2025-11-16 42.7km</title><desc>1763252375000</desc></polyline><polyline fill="none" opacity="1" points="99.03614802735683,111.02059214844485 98.95982769236434,111.55900281747381 98.98937104783545,111.7490275684504 99.05830554397835,111.846918588868 99.01645245704276,112.19241349274489 99.22817983799905,113.13098583392821 99.1617072881636,113.49661721643679 99.22571789170615,113.8046650404267 99.4669886281481,114.30559517742586 99.41774970234837,114.41211361541536 99.48176030589093,114.61651269365939 99.8756717123324,115.54348642828518 99.86336198088247,115.65863624042322 99.98153540281055,115.98968923666325 100.0529318452318,116.54239483128185 100.1169424487889,116.65466178382667 100.37052291666623,116.8388937282125 100.3951423795661,117.00873144735124 100.33605566859478,117.22174674963753 100.58717419020832,117.3743107389837 100.57978835134418,117.45491023722388 100.46407687569445,117.55278073570298 100.47392466086603,117.74276364006073 100.54778304956562,117.99031513214322 100.56009278101556,118.18893039939394 100.61425559940108,118.29831210174052 100.67580425666529,118.83370041023045 100.79643962488626,118.94595791389838 100.82598298035737,119.25682243157098 100.90968915422854,119.5993449661546 100.97123781149276,119.68857281813871 100.89245553019282,119.91308031357403 100.96385197261407,120.06275094880584 100.9441564023,120.22969030217064 101.04509620019235,120.42541099931077 101.09187317971373,120.85714285714312 101.04509620019235,120.42253276395058 100.98600948923558,120.35345502417476 100.9441564023,120.20090772805997 100.96385197261407,120.0368464746607 100.89737942277861,119.90156715371268 100.96631391892151,119.68281619136178 100.8358307655144,119.28848435921282 100.79643962488626,118.95747147784823 100.67580425666529,118.83370041023045 100.61425559940108,118.31558285667961 100.47884855343727,117.78306287357373 100.4566910368303,117.56717342639058 100.58225029762252,117.39446063591095 100.33113177602354,117.22750389682915 100.3902184869803,117.01736723526483 100.37544680925203,116.85040818332709 100.16125748198829,116.69784125766819 100.06031768409593,116.56830263066149 99.97414956394641,115.98968923666325 99.85843808829668,115.6500000214146 99.86582392716082,115.54636517952349 99.48668419847672,114.66545309022513 99.42021164862672,114.40923474419105 99.38820634686272,114.43226570543084 99.36604883025575,114.36029388684256 99.33896742106299,114.3919615104769 99.38574440058437,114.33150510611995 99.37835856170568,114.12422498583874 99.21094621397788,113.76723885539468 99.14693561042077,113.42464292319892 99.22079399912036,113.17129189655861 99.00414272557828,112.08588636520471 99.0607674902567,111.85267687320993 98.95736574607145,111.64825703246424 99.03860997364973,111.0436259781327 98.90812682027172,110.76721873472525 98.92782239058579,110.57142857142935" stroke="#ff8100" stroke-dasharray="none" stroke-linecap="round" stroke-linejoin="round" stroke-width="0.5"><title>2025-10-27 22.6km</title><desc>1761522564000</desc></polyline><polyline fill="none" opacity="1" points="138.83531870506704,112.3714379875455 135.53588255262002,110.57142857147846 133.40957925422117,113.22858392441412 133.99614568101242,120.85714285715949" stroke="#4dd2ff" stroke-dasharray="none" stroke-linecap="round" stroke-linejoin="round" stroke-width="0.5"><title>2025-10-23 8.3km</title><desc>1761191597000</desc></polyline><polyline fill="none" opacity="1" points="172.99577843607403,110.8167317378975 172.67625482889707,111.03537051408784 172.41607132015633,111.3446627786252 172.7858057799167,112.03256465580489 173.24683269887464,113.96290601711371 173.28334968254785,115.00803248482043 173.22400958408252,115.72254529812562 172.81319351767888,117.44479963849153 172.84058125544107,117.69540142196274 172.69451332071912,118.07396772017819 172.4069420742453,118.09529531468797 172.04633686042507,118.88440999252634 172.2334864017903,119.06035956057895 172.06003072930616,119.39092982201328 171.20644623582484,120.8571428571413 172.22435715585016,119.07102315110387 172.02351374563295,118.87907817787345 172.38868358239415,118.11129100467224 172.43889443497756,118.06330391955635 172.61235010743258,118.11662290020831 172.70820718960022,118.0366444081701 173.09620014118263,116.39439142593255 173.23770345296361,115.43460851250347 173.23313882999355,113.9575736838633 172.7721119110356,112.069892397074 172.38868358239415,111.32866494926566 172.6990779436892,110.98737671732306 172.97295532128192,110.81139907300894 172.8999213539064,110.57142857142753" stroke="#4dd2ff" stroke-dasharray="none" stroke-linecap="round" stroke-linejoin="round" stroke-width="0.5"><title>2025-10-19 14.0km</title><desc>1760852519000</desc></polyline><polyline fill="none" opacity="1" points="124.23918901453726,122.87300083476657 124.60832106138696,123.53037089854115 125.07648853541468,125.58130982967123 125.1125014180434,126.42795490649223 124.9459418359329,127.83198681607973 124.54079690648359,129.48837816357627 124.43275825862656,129.5725108601 124.28420511781587,129.50415305497518 124.22568418356241,129.5619942807898 123.87906018833746,130.3139241161225 124.05912460145191,130.5137357335916 123.05076388810994,132.28571428571377 123.82504086443805,130.9711961613466 123.99610205684439,130.55580123532854 124.24369062486221,130.35073157944134 124.09063587372657,130.50847754338974 123.89706662966637,130.39805542098838 123.87455857804161,130.3139241161225 124.25719545583706,129.50415305497518 124.43725986895151,129.5567359903107 124.54079690648359,129.483119865341 124.91443056365824,127.91612230515602 125.09449497674359,126.50683415103413 125.06298370443983,125.53924013441792 124.59931784073706,123.5724422876956 124.23468740421231,122.86774183933812 124.51378724450478,122.56797818310224 124.82439835710102,122.36287569628257 124.73436615054379,122.13147700648187 124.5678065684333,122.0 124.14915680798003,122.1788086439883" stroke="#4dd2ff" stroke-dasharray="none" stroke-linecap="round" stroke-linejoin="round" stroke-width="0.5"><title>2025-10-07 14.0km</title><desc>1759810688000</desc></polyline><polyline fill="none" opacity="1" points="52.05400739671313,156.2857142857174 51.633709381334484,156.51041653556604 51.14217441427172,157.05136377310555 51.73344111384358,158.19150196557894 52.403068460320355,160.9044653311139 52.53129497347982,162.72692518703116 52.274841947160894,164.91548577484355 51.77618328490644,166.57142857142753" stroke="#4dd2ff" stroke-dasharray="none" stroke-linecap="round" stroke-linejoin="round" stroke-width="0.5"><title>2025-06-29 12.0km</title><desc>1751152499000</desc></polyline><polyline fill="none" opacity="1" points="105.14285714285506,158.0971173044236 104.50311562427669,159.20928796671797 104.03784906529472,159.78721755055085 104.01292407106666,160.28743644773203 103.87999076851702,160.37485278341774 103.65566582043539,160.34571402334768 103.54765751209925,160.40399152503232 103.11977844449575,160.91877291333003 102.64620355411898,161.72007209016374 101.67412877913739,162.4485137628035 101.47472882529837,162.74474340715824 101.05931225478707,162.6087693812624 100.3032540964632,162.99726553077562 99.97922917146934,163.10410139615124 99.90030002304411,163.02154643108588 99.7133625663264,163.08467671182734 99.60120009230741,163.138094573962 99.57627509807935,163.2594985751639 98.89914608815161,163.56543523585788 98.64158781444712,163.55572299220148 98.04754211861291,163.7548235766517 97.74844218786166,163.76939187823518 97.18762981766486,163.94906721805455 96.95499653818842,164.16759033338167 96.4689591507049,164.21615088458202 96.0244634202536,164.5609293227426 95.72951765518519,164.63862551509737 95.54258019848203,164.58035338313857 95.43457189013134,164.7600255527177 95.26425109623233,164.67261755795334 95.08146780521201,164.75516955737476 94.85714285714494,164.6823295655813" stroke="#4dd2ff" stroke-dasharray="none" stroke-linecap="round" stroke-linejoin="round" stroke-width="0.5"><title>2025-06-22 15.1km</title><desc>1750548259000</desc></polyline><polyline fill="none" opacity="1" points="123.19814356608549,179.14285714285506 123.03598417667672,180.4114993264593 123.10867631676956,180.7646218981754 123.25406059689703,180.96733949980626 123.15900164449704,181.73896815817716 123.63429640649701,183.923017383946 123.47213701711735,184.66845364340043 123.62311300032889,185.37464812199687 124.07044924690854,186.28353469592912 123.98657370070578,186.7477809544689 124.0928160592448,186.75431960925926 124.14314138700138,187.1074059410821 125.12728112947661,189.42857142857247 124.35562610410852,187.7154943400601 124.14314138700138,186.9635561975265 124.07044924690854,187.01586523390506 124.014532216097,186.7608582633693 123.9362483729492,186.7347036428073 124.05367413768545,186.7608582633693 124.25497544862446,186.48623419542128 123.89710645136074,186.61700771329197 123.7461304681492,186.5646983393417 124.014532216097,186.30315080558648 123.59515448490856,185.38772572143353 123.47213701711735,184.70114801036834 123.62311300032889,183.89032260534805 123.1030846136855,181.55587070438196 123.22610208147671,181.03273213267676" stroke="#4dd2ff" stroke-dasharray="none" stroke-linecap="round" stroke-linejoin="round" stroke-width="0.5"><title>2025-04-13 17.0km</title><desc>1744513358000</desc></polyline><polyline fill="none" opacity="1" points="134.63959968765266,180.14437900853227 136.28463562065735,179.14285714286962 137.23458594840486,179.71128895145375 137.60529827140272,181.14589696770418 136.0297708986327,182.093275225634 134.70910824812017,183.6632086429745 136.65534794377163,187.23612477749703 137.16507738782093,189.42857142857974 136.93338218599092,187.75040406757034 134.70910824812017,183.6632086429745" stroke="#4dd2ff" stroke-dasharray="none" stroke-linecap="round" stroke-linejoin="round" stroke-width="0.5"><title>2025-04-12 10.0km</title><desc>1744429372000</desc></polyline><polyline fill="none" opacity="1" points="29.683692225255072,223.71428571428987 25.82651185640134,216.4653298111516 28.59361951216124,213.42857142857974" stroke="#4dd2ff" stroke-dasharray="none" stroke-linecap="round" stroke-linejoin="round" stroke-width="0.5"><title>2025-02-01 10.0km</title><desc>1738384413000</desc></polyline><polyline fill="none" opacity="1" points="34.65306122449692,217.79482415149687 35.40188383049099,217.66262558633753 37.00549450551625,217.0512043096096 36.32025117741432,217.0759917518444 35.9670329670771,217.45606487998884 35.500784929376096,217.63783833045454 35.684458398784045,218.1335819525848 37.648351648356766,217.81134895639116 38.80690737836994,217.46432731873938 38.616169544751756,216.55545381192496 38.23469387757359,216.55545381192496 37.82496075355448,216.8446419849497 37.1891679748951,217.03467934374203 38.45368916797452,216.52240366678598 38.715070643636864,216.8363794806137 38.919937205675524,217.42301511622645 39.95839874417288,216.99336691382632 40.678963893296896,217.00162940156588 40.989795918401796,216.81159196226508 42.55102040816564,216.41499059837952 42.73469387757359,216.2662645672899 42.572213500825455,215.80355954684637 42.63579277868848,215.66309497993643 44.00627943489235,215.57220600781875 44.35949764522957,215.71267073830677 44.861067503952654,215.68788286307245 44.938775510236155,215.94402386089496 44.71271585559589,216.91074198834394 44.790423861908494,217.9931215793622 43.64599686028669,218.43102661440935 43.737833595019765,219.0259125372031 43.58241758245276,219.15810879316996 43.19387755106436,219.36466499486414 42.69937205655151,219.34814051883586 41.73861852436676,219.61253171529825 41.47017268449417,219.14158427342045 39.97959183677449,219.59600729178783 39.64050235482864,219.48859845349216 39.04003139719134,219.71994038304547 39.05416012558271,219.85213546352315 38.955259026697604,219.75298917415057 38.79277864994947,220.14957357590174 38.55259026691783,220.27350578818005 38.51020408162731,220.1578357295075 38.53139717428712,220.27350578818005 38.22762951333425,220.16609788222559 37.90973312401911,219.85213546352315 36.99843014130602,219.99259249115858 36.81475667192717,220.14131142140832 37.89560439562774,220.97578460752266 38.55259026691783,220.85185351031396 38.89874411304481,221.35583874529402 39.35792778650648,221.57065113503631 39.69701726848143,221.49629306700808 39.944270015723305,221.26495640243957 40.26923076924868,221.35583874529402 40.339874411321944,221.13276371484972 40.89795918369782,221.00057080334227 40.99686028261203,221.40541088770988" stroke="#4dd2ff" stroke-dasharray="none" stroke-linecap="round" stroke-linejoin="round" stroke-width="0.5"><title>2025-01-25 14.8km</title><desc>1737764447000</desc></polyline><polyline fill="none" opacity="1" points="189.42857142857974,217.39601401480468 189.06462871585973,217.47707804817765 188.38006980385398,218.12558784526482 188.23275965821813,218.54103712653887 188.35407389578177,218.9260860708746 188.21542905282695,219.1591412588823 188.2674208690005,219.49352379903576 187.97280057769967,219.7468431280504 186.93296425562585,219.67591378344514 186.3610542785318,219.5036565850387 186.16175231680973,219.31113346729398 185.31255265374784,219.33139907686564 185.01793236250523,219.56445327868278 184.30737754245638,219.61511716055975 183.77879407870932,219.61511716055975 183.58815741966828,219.45299264421192 181.69045613193884,219.5340549366956 180.67661571790813,219.3820630820046 179.69743651463068,219.56445327868278 179.14285714286962,219.3820630820046" stroke="#4dd2ff" stroke-dasharray="none" stroke-linecap="round" stroke-linejoin="round" stroke-width="0.5"><title>2024-10-28 17.0km</title><desc>1730088256000</desc></polyline><polyline fill="none" opacity="1" points="167.10204081633128,238.97747660088498 167.1254174397036,239.19396008048716 167.21502782931202,239.15336950862547 167.32801484229276,239.1984701417423 167.49944341371884,239.4104425026162 167.79944341372175,239.49162313828492 168.28645640073228,239.2931813219111 168.30204081632837,239.49162313828492 168.37996289425064,239.45554287412597 168.45009276436758,239.53221340034725 168.33320964749146,239.70810410638296 168.42671614100982,239.72614413933843 168.36827458256448,239.97870382949623 168.52801484231895,240.2898914685611 168.82801484229276,240.46577916758906 170.2228200371028,239.5998637545199 170.26957328386197,239.6855540548895 169.9423005565768,240.1275329729542 169.78256029685144,240.24479194610103 169.74359925788303,240.44773943571272 169.6695732838416,240.51538839239947 169.68515769942314,240.98892819809407 170.0280148423044,241.94050241413424 169.8877551020414,242.13893237787852 170.0280148423044,241.967561097852 170.17217068644823,242.05324682068022 170.31632653062115,241.85030668240142 170.33970315397892,242.24716652914503 170.66697588126408,242.33285171148236 171.13840445270762,242.84695932717295 171.39165120592224,242.93715303092176 171.65658627086668,243.33400314723258 171.80463821892045,243.39262843141478 172.00333951762877,243.591051894884 172.34619666048093,243.52791725284987 172.44749536179006,243.57301343489962 172.78645640073228,243.87966625625995 173.13710575138975,243.6135999595317 173.44879406307882,243.69026329355256 173.62801484229567,243.48733064976477 174.31372912802908,243.5369364929211 174.45398886827752,243.47380177381638 174.88256029682816,243.56850381875483 175.26437847866328,243.45125363806073 175.38515769943479,243.58203266580676 175.45918367346167,243.83907997523056 175.86437847865454,243.45125363806073 175.97736549163528,243.5098787671668 176.1526901669713,243.23028130068633 176.320222634502,243.13106887253525 176.2929499072343,242.80637210061832 176.75269016697712,242.7838236253665 177.0721706864424,242.85146901671033 177.17346938775154,242.33285171148236 177.06827458256157,242.24716652914503 177.13061224488774,242.19304948654826 177.1189239332016,242.071285899121 177.28645640073228,242.0938347368501 177.3877551020414,241.94050241413424" stroke="#4dd2ff" stroke-dasharray="none" stroke-linecap="round" stroke-linejoin="round" stroke-width="0.5"><title>2024-05-25 14.8km</title><desc>1716598951000</desc></polyline><polyline fill="none" opacity="1" points="71.62180315167643,251.67703938105842 70.84060966176912,255.02703351335367 73.77008524932899,256.62588884914294 80.08473262703046,254.03726414375706 80.99612503219396,250.76340190978954 78.0666494446341,249.08839686511783 71.68690260918811,251.6009029696579 70.84060966176912,255.02703351335367 73.70498579181731,256.62588884914294 80.08473262703046,254.03726414375706 80.99612503219396,250.76340190978954 78.00154998688959,249.08839686511783 71.68690260918811,251.6009029696579 70.84060966176912,255.02703351335367 73.70498579181731,256.62588884914294 80.08473262703046,254.11340029764688 81.06122448970564,250.9918113864842 78.0666494446341,249.08839686511783 71.68690260918811,251.67703938105842 70.77551020402461,254.95089745649602 73.77008524932899,256.62588884914294 80.08473262703046,254.11340029764688 81.06122448970564,250.9918113864842 78.13174890191294,249.08839686511783 71.68690260918811,251.6009029696579 70.77551020402461,254.87476139125647 73.70498579181731,256.62588884914294 80.08473262703046,254.11340029764688 80.99612503219396,250.76340190978954 78.0666494446341,249.08839686511783 71.75200206669979,251.6009029696579 70.84060966176912,255.02703351335367 73.6398863340728,256.62588884914294" stroke="#4dd2ff" stroke-dasharray="none" stroke-linecap="round" stroke-linejoin="round" stroke-width="0.5"><title>2024-05-07 10.0km</title><desc>1715083186000</desc></polyline><polyline fill="none" opacity="1" points="101.68698726361617,258.0 101.42992253776174,255.59752398452838 98.31301273626741,249.96665731319808 100.27313127112575,247.71428571428987" stroke="#4dd2ff" stroke-dasharray="none" stroke-linecap="round" stroke-linejoin="round" stroke-width="0.5"><title>2024-04-27 10.0km</title><desc>1714177464000</desc></polyline><polyline fill="none" opacity="1" points="122.11273699975573,256.34566483524395 124.51232857676223,258.0 126.54275221959688,256.12988169147866 126.05052830604836,249.15285650250735 123.77399270725437,247.71428571426077 121.62051308644004,249.65635556011694 122.0512090108823,256.34566483524395 124.4508005878888,258.0 126.54275221959688,256.12988169147866 126.05052830604836,249.22478496207623 123.6509367285762,247.71428571426077 121.62051308644004,249.65635556011694 122.11273699975573,256.48952022677986 124.7584405336529,257.9280724677956 126.54275221959688,256.0579539615428 126.05052830604836,249.15285650250735 123.77399270725437,247.71428571426077 121.62051308644004,249.58442714618286 122.11273699975573,256.4175925348536 124.38927259854972,258.0 126.54275221959688,256.12988169147866 126.05052830604836,249.22478496207623 123.77399270725437,247.71428571426077 121.62051308644004,249.65635556011694 122.11273699975573,256.48952022677986 124.38927259854972,258.0 126.54275221959688,256.2018094137311 126.05052830604836,249.22478496207623 123.71246471791528,247.71428571426077 121.62051308644004,249.65635556011694 122.11273699975573,256.4175925348536 124.51232857676223,258.0 126.54275221959688,256.12988169147866 126.05052830604836,249.15285650250735 123.77399270725437,247.71428571426077 121.62051308644004,249.65635556011694 122.11273699975573,256.5614479109645 124.7584405336529,257.9280724677956 126.54275221959688,256.0579539615428" stroke="#4dd2ff" stroke-dasharray="none" stroke-linecap="round" stroke-linejoin="round" stroke-width="0.5"><title>2024-04-18 10.1km</title><desc>1713436846000</desc></polyline><polyline fill="none" opacity="1" points="143.02040816325461,252.94666046537168 144.70439487416297,253.4725643612619 146.31183673470514,253.0697445903279 147.4791457047686,253.20401801782282 149.57456098718103,252.67811278626323 150.2251922163996,252.87952360952477 151.16286663501523,252.8907130884545 152.00485999049852,252.34242722827184 152.50240151875187,252.44313300754584 153.30612244893564,252.24172135302797" stroke="#4dd2ff" stroke-dasharray="none" stroke-linecap="round" stroke-linejoin="round" stroke-width="0.5"><title>2024-04-07 10.0km</title><desc>1712456610000</desc></polyline><polyline fill="none" opacity="1" points="10.639097744133323,266.81825324124657 13.954887217842042,267.92623211460887 20.248120300704613,264.8397154547274 20.789473684038967,262.6237469181651 19.436090225353837,260.80348213529214 16.99999999953434,260.6451980317361 10.571428571362048,264.04829887417145 10.84210526314564,267.1348188010161 13.751879699295387,268.0053733998793 20.045112781925127,265.1562818523962 20.857142857275903,263.17773966799723 20.180451127700508,261.3574762339704 17.338345864554867,260.5660559675307 10.977443609153852,263.49430676933844 10.70676691713743,266.89739464374725 14.022556390846148,267.92623211460887 20.045112781925127,265.1562818523962 20.383458646479994,261.59490215062397 17.676691729109734,260.4869138947688 10.84210526314564,263.7317320074071 10.571428571362048,266.81825324124657 13.684210526291281,268.08451467665145 20.180451127700508,264.9979986703256 20.180451127700508,261.43661821464775 17.406015037558973,260.5660559675307 10.774436090374365,263.7317320074071 10.639097744133323,266.81825324124657 13.684210526291281,268.08451467665145 19.97744360868819,265.23542343091685 20.383458646479994,261.6740441060392 17.676691729109734,260.4869138947688 11.045112781925127,263.49430676933844 10.571428571362048,266.81825324124657 13.684210526291281,268.08451467665145 20.045112781925127,265.1562818523962 20.45112781925127,261.7531860532472 17.60902255610563,260.4869138947688 11.045112781925127,263.49430676933844 10.571428571362048,266.65997041075025 13.345864661503583,268.08451467665145 20.045112781925127,265.1562818523962 20.248120300704613,261.5157601869432 17.406015037558973,260.5660559675307 10.977443609153852,263.57344852376264 10.639097744133323,266.89739464374725 13.751879699295387,268.0053733998793 19.909774435916916,265.23542343091685 20.45112781925127,261.83232799184043 17.812030075117946,260.4869138947688 11.045112781925127,263.49430676933844 10.639097744133323,266.81825324124657 13.413533834507689,268.08451467665145 20.045112781925127,265.1562818523962 20.45112781925127,261.7531860532472 17.541353383334354,260.4869138947688 10.774436090374365,263.7317320074071 10.70676691713743,266.9765360377496 13.616541353287175,268.08451467665145 20.112781954696402,265.07714026549365 20.315789473243058,261.5157601869432" stroke="#4dd2ff" stroke-dasharray="none" stroke-linecap="round" stroke-linejoin="round" stroke-width="0.5"><title>2024-03-26 10.6km</title><desc>1711453549000</desc></polyline><polyline fill="none" opacity="1" points="95.74758205161197,267.83057596705476 95.61059140629368,267.57690159133926 94.85714285715949,265.4673791263267 94.94846995401895,265.2270515435521 96.67226890748134,264.31914320908254 97.12890439189505,264.3324948495647 98.1677501188824,263.79842812702555 98.57872205477906,263.3845248615544 98.46456318371929,262.943916666969 99.17234818451107,262.6768806484324 99.58332012040773,262.27632556037133 102.2888853654149,261.72889821609715 104.62914222292602,260.7942606731376 105.14285714284051,260.7408526043728" stroke="#4dd2ff" stroke-dasharray="none" stroke-linecap="round" stroke-linejoin="round" stroke-width="0.5"><title>2024-01-30 11.7km</title><desc>1706613736000</desc></polyline><polyline fill="none" opacity="1" points="110.8902027948352,259.4605126426686 110.89924494439038,259.3493334483028 111.03939826259739,259.32286217493674 111.25640985206701,259.5240434993975 111.96621859265724,259.4816896039083 112.3143413507496,259.7093413684561 112.51778971590102,259.7146355831428 112.71219593143906,259.57169158873876 112.84330710012,259.60345695630167 112.88851784792496,259.3334506859719 112.90208107227227,259.58228004684497 113.26828812950407,259.3705104568435 113.81533817795571,259.2381540056267 113.84698570141336,259.1587399659802 113.96453364571789,259.14285714285506 114.06851836567512,259.3599219536918 113.86054892576067,260.07993503750185 113.69779023365118,260.2334658922082 113.46721541983425,260.26523083752545 113.28185135385138,260.4928790191261 113.18238770865719,260.5034672813272 113.20047200779663,260.720526159821 113.13717696085223,260.8158200026701 112.94729182004812,261.03817159333266 112.77549097841256,261.1069945034833 112.8568703244382,261.2711102898902 112.11993513518246,261.60463425353373 111.94361321872566,261.86404023616706 111.50506896502338,261.95403791436183 111.50054789023125,262.20285417805644 111.26545200165128,262.46225704396784 110.83594989744597,262.36696635231783 110.12162008212181,262.4251995744344 109.85487667002599,262.55225364087164 109.98598783867783,262.76400969779934 109.8820031187206,263.1769314185767 109.57457003364107,263.38868481888494 109.57457003364107,263.8121889180293 109.94077709087287,263.6322001160079 110.1577886803716,263.7327821737963 110.43809531675652,264.0980521487545 110.65962798101828,264.1351083733207 110.86307634614059,264.0609958966015 110.96706106609781,264.41038232110077 111.37847887116368,264.6485989323046 111.36943672160851,264.8444650700294 111.51411111457855,264.8762270738298 111.48698466591304,265.1144414565606 111.7085173301748,265.37912276757925 111.79441775099258,265.36324192857865 111.85319172311574,265.4479396779934 111.85771279790788,265.81319707223884 111.63165905888309,266.3319638393077 111.59096938587027,266.71309516346446 111.74920700318762,266.71838863353696 112.09280868651695,267.0254089352966 112.22844092993182,267.4806424507333 112.21035663079238,267.8988184086229 112.48614219241426,268.51284256633517 112.41832607073593,268.87807748349223 112.72123808102333,269.42857142857247 113.07840298869996,269.12156594035696 113.20499308255967,267.5282829269563 113.6254530371807,267.2477327999077 114.0413919169805,266.8083775387604 113.97357579530217,266.6495734786513 113.8515067762055,266.67074738259544 113.96453364571789,266.6442800012701 113.9283650474681,266.2949092494455 114.2177138334664,266.11492942077166 113.91028074835776,265.8343713317736 113.63449518673588,265.3685355421294 113.91028074835776,264.6009557012294 113.88767537442618,264.35744514162434 114.05495514135691,264.25686434559975 114.1046869639249,264.3150953575423 114.05043406656478,264.3098016319891 114.06851836567512,264.172164570311 114.38951467510196,263.62690631787336 114.5070626194065,263.54220547102886" stroke="#4dd2ff" stroke-dasharray="none" stroke-linecap="round" stroke-linejoin="round" stroke-width="0.5"><title>2024-01-27 16.6km</title><desc>1706316843000</desc></polyline><polyline fill="none" opacity="1" points="121.46015950897709,261.3972738540033 122.12306076381356,267.87867943116 124.35281953006051,269.35812187060947 126.70310579705983,267.4559809882194 126.28125954396091,260.76321992464364 124.05150077794679,259.1428571428987 121.52042325935327,261.3268234473071 122.0025332630612,267.5968804989243 124.71440203278325,269.35812187060947 126.70310579705983,267.24463166616624 126.16073204320855,260.4814179847599 123.75018202560022,259.1428571428987 121.52042325935327,261.18592261109734 122.06279701320454,268.09002855198923 124.47334703081287,269.35812187060947 126.70310579705983,267.38553122163285 126.28125954396091,260.76321992464364 123.68991827499121,259.1428571428987 121.58068700972944,261.0450217454927 122.0025332630612,267.87867943116 124.65413828217424,269.35812187060947 126.70310579705983,267.24463166616624 126.16073204320855,260.692769450834 123.99123702733777,259.1428571428987 121.58068700972944,260.9745713014854 121.94226951245219,267.5968804989243 124.2925557794515,269.2876723049558 126.70310579705983,267.1741818774026 126.16073204320855,260.6223189695156 123.87070952658542,259.2133077806211 121.52042325935327,261.25637303304393 121.88200576184317,267.6673302431591 124.2925557794515,269.42857142857974 126.64284204668365,267.4559809882194 126.04020454222336,260.6223189695156 123.68991827499121,259.2837584107183 121.52042325935327,261.3972738540033 122.0025332630612,267.87867943116 124.41308328066953,269.2876723049558 126.64284204668365,267.4559809882194 126.16073204320855,260.76321992464364" stroke="#4dd2ff" stroke-dasharray="none" stroke-linecap="round" stroke-linejoin="round" stroke-width="0.5"><title>2024-01-25 10.3km</title><desc>1706155972000</desc></polyline></svg>