<?xml version="1.0" encoding="utf-8" ?>
<svg baseProfile="full" height="300mm" version="1.1" viewBox="0,0,200,300" width="200mm" xmlns="http://www.w3.org/2000/svg" xmlns:ev="http://www.w3.org/2001/xml-events" xmlns:xlink="http://www.w3.org/1999/xlink"><defs /><rect fill="#222222" height="300" width="200" x="0" y="0" /><text fill="#FFFFFF" style="font-size:12px; font-family:-apple-system, BlinkMacSystemFont, 'Segoe UI', Roboto, 'Helvetica Neue', Arial, sans-serif; font-weight:bold;" x="10" y="20">Over 3km Runs</text><text fill="#FFFFFF" style="font-size:4px; font-family:-apple-system, BlinkMacSystemFont, 'Segoe UI', Roboto, 'Helvetica Neue', Arial, sans-serif;" x="10" y="280">Runner</text><text fill="#FFFFFF" style="font-size:9px; font-family:-apple-system, BlinkMacSystemFont, 'Segoe UI', Roboto, 'Helvetica Neue', Arial, sans-serif;" x="10" y="290">Hannah YAN</text><text fill="#FFFFFF" style="font-size:4px; font-family:-apple-system, BlinkMacSystemFont, 'Segoe UI', Roboto, 'Helvetica Neue', Arial, sans-serif;" x="65" y="280">SPECIAL TRACKS</text><rect fill="yellow" height="2.6" width="2.6" x="65" y="283" /><text fill="#FFFFFF" style="font-size:3px; font-family:-apple-system, BlinkMacSystemFont, 'Segoe UI', Roboto, 'Helvetica Neue', Arial, sans-serif;" x="70" y="285.5">Over 20.0 km</text><rect fill="red" height="2.6" width="2.6" x="65" y="287" /><text fill="#FFFFFF" style="font-size:3px; font-family:-apple-system, BlinkMacSystemFont, 'Segoe UI', Roboto, 'Helvetica Neue', Arial, sans-serif;" x="70" y="289.5">Over 40.0 km</text><text fill="#FFFFFF" style="font-size:4px; font-family:-apple-system, BlinkMacSystemFont, 'Segoe UI', Roboto, 'Helvetica Neue', Arial, sans-serif;" x="120" y="280">STATISTICS</text><text fill="#FFFFFF" style="font-size:3px; font-family:-apple-system, BlinkMacSystemFont, 'Segoe UI', Roboto, 'Helvetica Neue', Arial, sans-serif;" x="120" y="285">Number: 310</text><text fill="#FFFFFF" style="font-size:3px; font-family:-apple-system, BlinkMacSystemFont, 'Segoe UI', Roboto, 'Helvetica Neue', Arial, sans-serif;" x="120" y="290">Weekly: 2.8</text><text fill="#FFFFFF" style="font-size:3px; font-family:-apple-system, BlinkMacSystemFont, 'Segoe UI', Roboto, 'Helvetica Neue', Arial, sans-serif;" x="141" y="285">Total: 2714.2 km</text><text fill="#FFFFFF" style="font-size:3px; font-family:-apple-system, BlinkMacSystemFont, 'Segoe UI', Roboto, 'Helvetica Neue', Arial, sans-serif;" x="141" y="290">Avg: 8.8 km</text><text fill="#FFFFFF" style="font-size:3px; font-family:-apple-system, BlinkMacSystemFont, 'Segoe UI', Roboto, 'Helvetica Neue', Arial, sans-serif;" x="167" y="285">Min: 3.0 km</text><text fill="#FFFFFF" style="font-size:3px; font-family:-apple-system, BlinkMacSystemFont, 'Segoe UI', Roboto, 'Helvetica Neue', Arial, sans-serif;" x="167" y="290">Max: 42.8 km</text><polyline fill="none" opacity="1" points="18.084536718568415,30.58844560880607 17.633555159663956,30.610324638315433 17.35091233933781,30.583583599407575 16.85005263567291,30.639496645229883 16.67547912900045,30.692978561615746 16.249436642472574,30.69540955485172 15.99588940659305,30.77077021752666 15.831707180077501,30.87530233997677 15.715324842298287,30.84613063276811 15.49087319085811,30.87530233997677 15.208230370531965,31.040607980552522 15.11263059306657,31.062486579059623 15.021187327671214,31.05519371520859 14.977543951004918,31.011436483428042 14.890257197672327,31.01872936118707 14.948448366558296,31.00414360335526 14.873631149413995,30.950662412011297 13.936337679064309,31.434419563165648 13.780468476674287,31.480606898692713 13.765920684447337,31.512208706299134 13.849050925724441,31.675078870970538 13.70980777159275,31.837947880050706 13.416773671102419,31.978938029396886 13.161148179191514,31.981368886450582 13.125817826650746,32.06158702470748 13.069704913796159,32.36544106715701 13.161148179191514,32.81270690065867 13.102957010298269,33.123843210918494 13.169461203317042,33.77284053775111 13.319095637612918,34.19577274335097 13.495747400316759,34.55307146727864 13.676555675083364,34.81557310951939 14.142085026214772,35.34056739212792 14.861161613211152,36.040541100288465 15.160430481802905,36.39051995437876 15.229012930845784,36.36378564670849 15.307986660060124,36.41725423092976 15.806768107700918,36.94707256525544 15.910680909291841,37.12448606512771 16.087332671988406,37.289746722688506 16.22865408216603,37.48173922890055 16.515453414547665,38.077148821881565 16.764844138364424,38.947148151881265 16.79601797884243,39.19258893188271 16.74821809011337,39.39914597234747 16.473888293905475,40.02852597576384 16.13928907279478,40.65788874040845 15.991732894537563,40.85714285714312 16.214106289931806,40.5655508809632 16.783548442654137,39.338394094389514 16.806409258999338,39.10996559573323 16.586114119621925,38.49028110324798 16.505062134390755,38.06013733339023 16.247358386441192,37.503611691088736 16.070706623730075,37.26301346163564 15.931463469612936,37.146358867485105 15.773516011191532,36.90332656017017 15.642585881185369,36.80368257088958 15.28304758768354,36.4026719021258 15.226934674821678,36.375937608603635 15.15419571370876,36.39538073424774 15.052361168141942,36.2495568906852 14.088050369384291,35.27737427127977 13.986215823832026,35.20688943133973 13.464573559838755,34.506890312413816 13.252591444594145,34.054796207054096 13.159069923160132,33.7388111710934 13.105035266336927,33.123843210918494 13.159069923160132,32.81270690065867 13.071783169820264,32.36057943414198 13.125817826650746,32.05186362893801 13.175695971411187,31.981368886450582 13.46041704777599,31.96921459862824 13.99660710398166,31.61187566069384 14.181571890818304,31.524363236103454 14.335362837162393,31.512208706299134 14.393554006062914,31.439281392333214 14.381084469867346,31.378508453704853 14.896491965759196,31.14513887412977 14.935978830370004,31.02845319458902 14.979622207043576,31.001712642819257 15.164586993858393,31.040607980552522 15.60309901657456,30.838837700172007 15.673759721656097,30.860716491009953 15.72987263451796,30.938507578423014 16.008358942788618,30.756184302123074 16.376210260408698,30.668668615078786 16.592348887723347,30.690547568117836 16.847974379634252,30.622479645708154 17.523407589978888,30.571428571427532 17.591990039029042,30.593307617160463 18.06791067031736,30.57872158898863 18.18221475207247,30.637065646080373 18.358866514769034,30.65408263478639" stroke="#4dd2ff" stroke-dasharray="none" stroke-linecap="round" stroke-linejoin="round" stroke-width="0.5"><title>2026-07-19 15.6km</title><desc>1784414563000</desc></polyline><polyline fill="none" opacity="1" points="56.80914588191081,30.571428571420256 49.86604154598899,30.69351635116618 49.44841120997444,31.15134506500908 49.239596042083576,33.806737279723166 47.41246332204901,37.62191320088459 46.86432350589894,40.857142857130384" stroke="#4dd2ff" stroke-dasharray="none" stroke-linecap="round" stroke-linejoin="round" stroke-width="0.5"><title>2026-07-14 4.4km</title><desc>1784026688000</desc></polyline><polyline fill="none" opacity="1" points="58.77289523050422,36.39553713906935 65.0188164402498,37.88076130760601 65.41038030816708,38.1264354721352 66.10755499976221,38.182270429802884 68.31368313339772,39.00862435105955 69.02040816325461,38.96395673687948 68.6383946336573,36.39553713906935 68.4091865158407,35.92651463990478 65.29577624920057,37.132568285262096 65.03791711671511,37.065565666387556 65.25757489626994,35.35698451833741 65.19072252855403,32.598628495623416 65.06656813144218,32.419947077512916 59.72792905464303,32.743806925158424 59.68972770165419,33.469696078114794 59.02120402478613,34.966128735664824 58.73469387757359,36.35086841938755 61.24643283494515,37.0208972301989 61.42788926156936,36.88689180822985 62.335171394457575,34.44126297982439 62.46887612983119,32.66563394945115 61.81945312942844,32.576293334932416 59.73747939290479,32.72147179514286 59.67062702518888,33.61487330978707 58.983002671797294,35.1224712223775 58.744244215777144,36.35086841938755 61.380137570318766,36.9762287751073 62.44022511510411,34.10624092024227 62.46887612983119,32.72147179514286" stroke="#4dd2ff" stroke-dasharray="none" stroke-linecap="round" stroke-linejoin="round" stroke-width="0.5"><title>2026-07-09 10.0km</title><desc>1783598044000</desc></polyline><polyline fill="none" opacity="1" points="73.051667165244,32.65462510212092 73.94229246443138,39.034370587032754 76.00186346890405,40.79204394062981 78.8407316096127,38.96927147731185 77.95010631042533,32.78482465108391 75.77920714393258,30.571428571478464 72.9403390029911,32.32912610931089 73.83096430194564,39.099469689594116 76.28018387476914,40.85714285715949 77.72744998568669,40.4014502959908 78.89639569097199,38.578676675329916 78.06143447291106,32.65462510212092 77.11514509259723,31.22242824517889 75.33389449422248,30.63652856979752 72.88467492163181,32.78482465108391 74.2206128705293,39.22966787428595 76.33584795566276,40.6618460866157 78.8407316096127,38.578676675329916 77.8944422295317,32.2640262900386 75.27823041309603,30.76672854583012 73.10733124660328,32.39422592159826 74.05362062691711,39.22966787428595 76.1688557122834,40.79204394062981 77.78311406681314,40.4014502959908 78.89639569097199,38.64377582632005 77.78311406681314,32.65462510212092 76.94815284898505,31.22242824517889 75.22256633196957,30.70162856130628 72.9403390029911,32.78482465108391 73.99795654555783,39.1645687854616 76.83682468649931,40.72694501694059 78.56241120374762,39.620262262935285 78.95205977209844,38.05788322020089 77.50479366094805,31.87342722999165 74.66592552000657,30.831828523485456 72.9403390029911,32.84992441511713 73.99795654555783,38.96927147731185 75.22256633196957,40.59674714936409 76.55850428063422,40.6618460866157 78.2840907976497,39.94575739733409 78.89639569097199,38.31828000303358 77.8944422295317,32.2640262900386 75.05557408835739,30.70162856130628 72.9403390029911,32.52442552574212 74.05362062691711,39.42496509948978 76.33584795566276,40.72694501694059 78.89639569097199,38.8390732377884 77.83877814817242,32.39422592159826 75.05557408835739,30.76672854583012" stroke="#4dd2ff" stroke-dasharray="none" stroke-linecap="round" stroke-linejoin="round" stroke-width="0.5"><title>2026-07-08 4.7km</title><desc>1783508969000</desc></polyline><polyline fill="none" opacity="1" points="109.78786481876159,40.70952033988942 109.96669832365296,40.697218438072014 110.10345335681632,40.8571428571413 110.3909895803663,40.57009855726574 110.56982308527222,40.27485077354868 110.58034270320786,40.11902464748346 110.87839854470803,39.69665068106042 111.28866364416899,39.22916344773694 111.54113447460986,39.097937947441096 111.48502984561492,39.02002259635992 111.74802029400598,38.47050988202318 112.08815460724873,37.3632590991765 112.07412844999635,36.42002051014788 112.01802382101596,36.260077776601975 112.08464806791744,36.06732539982477 112.63517473985848,35.84586403833964 113.33297606289852,35.312711123664485 113.51882264640881,35.300407508239005 113.56090111818048,35.15276381843796 113.74674770169077,34.92309473800924 113.67311037612671,34.37352391092281 113.33297606289852,33.51224051210738 113.14362294005696,32.83550440617546 113.4206395457004,32.70835872745738 114.0798689363146,32.57711113743062 114.46558826058754,32.568908148292394 114.72507216964732,32.47047214306076 114.86884028144414,32.12594415458807 114.8197487310681,31.777311522699165 114.85130758487503,31.387659573185374 114.76364410207316,30.977495390987315 114.83026834900375,30.79292009173878 114.949490685598,30.784716724687314 115.17040266224649,30.87905534086167 115.79456665972248,31.354846598449512 116.0014524791186,31.43277736800883 116.15924674813868,31.34254172576766 116.31704101717332,31.043121952054207 116.43275681445084,31.0595285749514 116.53795299380727,30.998003703265567 116.10664865847502,30.92007205882328 116.04353095084662,31.149764876616246 115.92080207495019,31.194882948602753 115.26507922365272,30.702682958602963 114.94247760696453,30.571428571427532 114.79870949519682,30.583733689109067 114.62338252960762,30.6903778786982 114.57429097924614,30.842140257551364 114.66896754066693,31.96598368958439 114.66896754066693,32.14645185873451 114.59533021511743,32.26129480126838 113.16115563661151,32.57300964307433 112.94725673861103,32.757576459047414 112.93673712067539,33.032374311045714 113.50479648917099,34.56628471565273 113.51882264640881,34.89438600721769 112.61062896467047,35.616199067004345 111.86373609129805,35.964797149121296 111.90230802372389,37.12950211090356 111.61827833947609,38.281869392227236 111.28866364416899,38.995417716101656 110.74164351154468,39.55722525429519 110.44358767004451,40.0206078239753 110.27176724377205,40.135427427099785 110.02280295263336,40.4470789207553 109.7773452008114,40.50448813305775 109.31798855098896,40.06571556576819 108.60616107069654,39.2414658156049 108.31511830782983,39.14304676329266 107.91537282628997,39.126643563602556 107.54367965925485,38.872393080477195" stroke="#4dd2ff" stroke-dasharray="none" stroke-linecap="round" stroke-linejoin="round" stroke-width="0.5"><title>2026-06-28 15.3km</title><desc>1782609425000</desc></polyline><polyline fill="none" opacity="1" points="133.9711285863159,30.571428571427532 133.91933753980265,30.748307257057604 134.63246041091043,31.534943352053233 135.09061197614938,31.64199925162393 135.1663065825851,31.8468011186269 135.04280485628988,31.92127428924141 135.04280485628988,31.99574733418558 135.3455832820182,32.335529007425066 135.616490294502,32.19589301990709 135.65234563440026,32.27036560155466 135.52884390810505,32.372765196148976 135.52884390810505,32.48447357389887 135.70413668089896,32.6566901024089 135.90731694026908,32.67065357528554 136.01488295993477,32.749779838090035 135.99894725331978,33.07559236708039 136.2698542658036,33.41536572870609 136.42522740529967,33.48518184898785 136.77581295088748,33.429328961592546 136.77182902423374,33.62946814770112 136.87142719057738,33.74582772251961 136.9351700170664,34.02043510310614 137.49690367530275,34.704618943855166 137.8275695876073,34.53706469791723 137.9988784337329,34.65807616155507 138.06660518686112,34.89544383834436 137.823585660939,35.021108562345034 137.56064650174812,35.32363328273641 137.95107131388795,36.03572175019508 138.30564078611496,37.69256288772522 138.3175925660762,38.711768546228996 138.1821390598343,39.65183692935534 138.28970507948543,39.810064293629694 138.2259622530255,40.03344313692651 138.07457304015406,40.21959130994583 137.9590391671809,40.64772913038905 137.98294272710336,40.83387471430251 138.0785569668078,40.8571428571413 138.13831586662855,40.79199202633026 138.06660518686112,40.21959130994583 138.217994399718,40.04275056421102 138.2777532995242,39.810064293629694 138.178155133166,39.614606878898485 138.3255604193837,38.45580586685537 138.28572115284624,37.65998514993771 137.92716775395093,36.00314278996302 137.54072686849395,35.31432486069389 137.823585660939,34.997837344133586 138.0546534068999,34.87682681178194 137.98294272710336,34.64411331729934 137.81561780764605,34.53706469791723 137.47300011536572,34.704618943855166 136.9351700170664,34.0297437979425 136.8515075573232,33.73186458973214 136.7598772442725,33.63877692497408 136.7598772442725,33.429328961592546 136.42921133196796,33.48983625308756 136.2698542658036,33.429328961592546 135.9949633266515,33.070937919303105 136.0348025932035,32.83821490515402 135.98301154669025,32.71254396736913 135.72007238751394,32.665999084816576 135.51689212815836,32.47981906381028 135.52485998146585,32.36345615191385 135.67226526765444,32.27036560155466 135.64836170774652,32.1912384793759 135.40135825517063,32.335529007425066 135.32566364874947,32.31691090125969 135.0268691496749,31.944547129278362 135.1583387292776,31.832837385161838 135.0706923428952,31.63734465269954" stroke="#4dd2ff" stroke-dasharray="none" stroke-linecap="round" stroke-linejoin="round" stroke-width="0.5"><title>2026-06-21 12.1km</title><desc>1782018676000</desc></polyline><polyline fill="none" opacity="1" points="150.1377551020705,35.84315119719395 149.81632653059205,35.91832078983862 149.2653061224264,35.606903543630324 147.93367346940795,35.62838062579249 146.76734693878097,36.519675527422805 145.8673469387577,36.39081409780192 145.398979591846,36.154567718709586 143.148979591846,36.21899860387202 143.02040816325461,35.75724302314484 144.51734693878097,35.91832078983862 145.28877551021287,35.73576596827479 146.22551020403625,36.07939830097166 146.7765306122019,35.886105256926385 146.82244897953933,36.02570582563931 147.4102040816215,35.38139390700235 147.9153061224497,35.18809953402524 149.30204081634292,35.23105387094256 149.898979591846,35.563949365772714 150.66122448979877,34.93037313094828 151.45102040813072,35.0807136122603 152.351020408154,34.90889590114966 153.30612244899385,35.155883769431966" stroke="#4dd2ff" stroke-dasharray="none" stroke-linecap="round" stroke-linejoin="round" stroke-width="0.5"><title>2026-06-18 10.3km</title><desc>1781755773000</desc></polyline><polyline fill="none" opacity="1" points="180.15256492595654,31.504070151160704 181.2277618223452,31.31483907639631 182.06017232278828,30.70659443929617 182.86946030927356,30.774177319617593 183.35503310122294,30.571428571420256 184.73082267830614,30.895826414212934 185.60947820654837,30.67956127713842 185.85226460249396,31.13912425619492 184.39554622676224,34.0451460252807 183.78279960836517,36.64023522476782 185.574794435699,37.451189799438 188.41886364552192,38.15401293769537 188.0951484509278,40.8165963304491 185.73665203299606,40.27597474602226 185.32044678280363,40.857142857144936" stroke="#4dd2ff" stroke-dasharray="none" stroke-linecap="round" stroke-linejoin="round" stroke-width="0.5"><title>2026-06-11 10.1km</title><desc>1781164397000</desc></polyline><polyline fill="none" opacity="1" points="39.38425787452434,45.472658657381544 39.979522812514915,45.37320910777271 40.4047120539326,45.15170700602175 40.880150932993274,45.42745434534663 41.07728412673168,45.41841347721129 41.4328969468188,45.28732067405872 41.74985619953077,44.93020375561173 41.92379725283536,45.02061338432759 41.93925867979124,45.264718425954925 42.1789107976947,45.46813822833428 42.6698111036967,44.8217119485671 42.97130892943824,44.74486341850934 44.030416676265304,44.89403985055469 44.455605917668436,45.477179085959506 44.41308699353249,45.590189644764905 44.46333663116093,45.82977104060774 44.672065895123524,46.299889119531144 44.88079515910067,46.39029584923264 44.93877551020705,46.71575849191868 44.459471274429234,46.95081330285393 44.08453167062544,47.23558951416635 42.44175505603198,49.278690158342215 42.2175643650844,49.48209084819973 41.67641442146851,48.550959760199476 41.56045371925575,48.487678270201286 41.38264730920491,48.50575870549801 41.17391804524232,48.40179609814004 41.142995191316004,48.32043388113016 41.85035547478765,47.92718098121259 41.88900904217735,47.5248840389977 41.96245082023961,47.398317925442825 42.27167935947364,47.624328579451685 42.47267790994374,47.66049017313344 43.02928928054462,47.1677858265175 43.16071140971326,46.83328605905626 43.203230333849206,46.521385267456935 43.81782205554191,46.02866778236421 43.91445597403799,45.79812829176444 43.9105906173063,45.27827977625202 43.84487955273653,45.16978885330536 43.69026528313407,45.10650235433786 43.508593516322435,45.133625151083834 43.114327128831064,45.54950587802523 42.97130892943824,45.54498545711249 42.7935025193874,45.32800469050562 42.83602144352335,45.56758755692135 43.02155856706668,45.77100591695853 43.55111244045838,45.69867949991749 43.14138462599658,46.015106670300156 42.82829073005996,46.078391823091806 42.82829073005996,46.18688043831571 42.53065826105012,46.7474005610311 42.38377470491105,46.77000202462659 42.182776154440944,46.65699458710151 41.93925867979124,46.61631183641293 41.224167682856205,46.837806343639386 40.613441317909746,46.792603476253134 40.323539562377846,47.25367047936743 39.51181464694673,47.71473250625786 39.442238225616165,47.95882215306119 39.16006718359131,48.18934998337136 39.063433265080675,48.46055760294257 38.5918597427808,49.17020939448412 38.36766905184777,49.37361060077819 38.00432551826816,49.540850867208064 37.826519108217326,49.53633086861737 37.64098198468855,49.36457056772633 37.42452200723346,49.3284104163904 37.31242666176695,49.3284104163904 37.09596668431186,49.48209084819973 36.87177599337883,49.540850867208064 36.589604951339425,49.405250701394834 36.31516462279251,49.06624840398581 36.30743390931457,48.84476545022699 36.036858937484794,48.700122901485884 35.90157145158446,48.17126941418246 35.63099647976924,47.913620471827016 35.63872719324718,48.374675376362575 35.54982398824359,48.88544607883523 35.27538365966757,49.02104789442092 35.23286473551707,48.93968685672007 35.12850010354305,49.06624840398581 35.06278903897328,49.0526882561353 34.850194418249885,49.20636967970131 34.83086763454776,49.14308916047594 34.65306122449692,49.238009904165665" stroke="#ff8800" stroke-dasharray="none" stroke-linecap="round" stroke-linejoin="round" stroke-width="0.5"><title>2026-06-06 21.6km</title><desc>1780740439000</desc></polyline><polyline fill="none" opacity="1" points="97.6817107378738,52.285714285717404 97.78708752250532,51.826351857911504 97.63381219940493,51.29976320749847 97.74876869173022,50.89641693735757 99.41563783056336,50.201761424446886 101.2357822926133,48.83484532802686 101.77224592352286,48.75641518038901 101.82014446193352,48.33065050764708 102.36618780053686,47.69200028681371 102.30870955443243,46.728415466554 100.88133310788544,42.90760324018629 100.71847807709128,42.0" stroke="#4dd2ff" stroke-dasharray="none" stroke-linecap="round" stroke-linejoin="round" stroke-width="0.5"><title>2026-05-23 13.0km</title><desc>1779516917000</desc></polyline><polyline fill="none" opacity="1" points="165.30722559290007,49.76730643004703 165.30722559290007,50.18535119383887 163.42084942094516,51.27690876548877 160.76006618863903,48.18801902097766 156.17319360177498,44.959734379910515 155.08108108106535,44.05394813879684 155.08108108106535,43.70556781934283 157.78157749585807,43.008805520206806 160.97848869278096,46.74807059072191 164.98952013242524,49.37248564379115 165.34693877550308,50.208575879616546 163.817981246626,51.23045961778553 163.28185328189284,51.13756129278045 160.74020959739573,48.23446881296695 155.06122448982205,44.030722801428055" stroke="#4dd2ff" stroke-dasharray="none" stroke-linecap="round" stroke-linejoin="round" stroke-width="0.5"><title>2026-05-10 15.1km</title><desc>1778395698000</desc></polyline><polyline fill="none" opacity="1" points="143.02040816326917,59.906253263725375 143.21855057815264,60.01386235619793 143.47330511153268,60.03041757489336 143.55114677452366,60.0180011615339 143.59360586341063,59.90211444656234 143.8059013079037,59.8979756289591 144.81076641184336,59.96005784701629 144.88860807481979,60.13802632543229 145.82624628799385,60.17941422751392 146.90895305490994,60.1545814915371 147.8076704365958,60.03041757489336 149.1203639350424,59.7075895452399 149.93062488152646,59.3682033562327 149.99077525747998,59.32681459494779 149.99431351487874,59.21920361041339 150.28091236494947,59.128147930467094 150.7727301447012,58.867396400459256 150.79749794653617,58.69356108038119 150.91072218360205,58.590087308395596 151.96158463385655,57.816094802929 152.517091046946,57.265598823894834 152.9487584507442,56.95516534018316 153.0478296581714,57.04208696426576 153.3061224489793,57.079339029674884 153.04075314335932,57.278016111940815 153.0619826878101,57.39391061000424 151.25747140961175,58.66458845185116 151.1053263410722,58.66458845185116 151.07702028180938,58.56939252111624 150.9284134706395,58.59422626454034 150.7904214317241,58.705977914603864 150.77626840209996,58.867396400459256 150.2915271371603,59.13228682961926 150.1535350982449,58.9915640127183 149.47418967587873,59.475813930435834 149.00713969797653,59.587563059198146 148.62146964049316,59.74070023513195 148.54008972010342,59.840032136449736 148.05888671259163,59.97661308849274 146.98325646047306,60.150442700665735 145.76609591205488,60.18769180267191 144.88506981740647,60.13388753282197 144.8249194414675,60.092499582529854 144.80368989701674,59.951780223625974 143.63960320972546,59.877281534350914 143.5122259430209,60.0180011615339 143.2079358059127,60.00972355043632" stroke="#4dd2ff" stroke-dasharray="none" stroke-linecap="round" stroke-linejoin="round" stroke-width="0.5"><title>2026-04-12 19.4km</title><desc>1775975191000</desc></polyline><polyline fill="none" opacity="1" points="176.30361721350346,59.81170726934215 174.83286180440336,57.79425354997511 174.46517295204103,54.61921805283055 173.58837645803578,53.428571428579744 172.1459048066754,53.52779215382179 168.18617870484013,55.37990657775663 168.97812392527703,58.455715220217826 170.2226092715282,60.37394615035737 169.79835290345363,61.068475136882626 170.02462296641897,63.71428571428987" stroke="#4dd2ff" stroke-dasharray="none" stroke-linecap="round" stroke-linejoin="round" stroke-width="0.5"><title>2026-04-09 10.0km</title><desc>1775707979000</desc></polyline><polyline fill="none" opacity="1" points="27.118128276313655,66.16783074409614 27.042821033246582,66.49169289381825 27.689208203111775,66.01669458553079 27.758239842631156,66.40532979352429 28.109673643717542,66.94509750442376 28.52386348071741,67.26895622704615 28.705855984881055,67.29054675777297 29.214179875707487,67.0386568376125 31.310231475130422,66.90191623353167 31.41064113259199,67.14660976632877 31.59890924030333,67.10342861388926 32.144886752736056,68.01022748432297 32.55280098615913,68.08219516915415 32.50259615745745,69.01057198220224 32.653210643620696,69.58630364642158 32.89795918366872,69.83098823735054 32.84775435493793,70.10445828628144 32.433564517938066,70.31315842823096 32.408462103572674,70.73775343855232 32.20764278867864,70.57223364164383 32.019374680909095,70.74494994301494 31.67421648342861,71.37104313156306 31.567531222390244,71.81722122822976 31.46084596135188,71.73086438874452 31.492223979294067,70.80971845132444 31.3918143218325,70.50026839624479 31.586358033149736,70.07567201329948 31.498499582899967,69.67266300686606 31.35416070028441,69.53592730592936 30.83956120579387,69.51433743513917 31.034104917169316,69.41358462093922 30.776805169909494,69.29843837834778 30.54460783704417,69.34881488168321 30.569710251380457,69.75902226578182 29.678574541467242,70.09726171910006 29.571889280399773,70.31315842823096 28.793714435130823,70.40671347180614 28.636824345361674,70.58662668227043 28.053193211380858,70.75214644674998 28.028090797015466,70.46428574708989 28.53013908432331,69.78780866289162 28.718407192034647,69.11852201295551 28.498761066352017,68.56437683881813 28.36069778734236,68.45642599373969 28.429729426832637,68.35567172853189 28.07202002214035,68.36286846633448 27.89630312161171,68.2477205767209 27.95278355391929,68.12537574622547 28.323044165794272,68.01022748432297 28.341870976582868,67.65038800245384 28.11594924729434,67.92386616944714 27.689208203111775,67.72235603984882 28.109673643717542,67.75114323507296 28.097122436534846,67.25456253636366 28.266563733457588,67.13941290934599 28.053193211380858,67.14660976632877 27.908854328794405,67.43448346717923 27.469562077429146,67.33372780022182 27.31894759120769,67.70796243800578 27.155781897861743,68.65793410958577 26.145409719727468,69.52153405942954 25.7186686755158,70.87448690254678 25.329581252881326,71.2343105917389 25.103659523592796,72.53685760985536 24.946769433823647,72.53685760985536 24.413343128573615,72.90386945035425 23.95522406641976,72.99022491109645 23.879916823323583,73.61629896600061 23.723026733554434,73.9617168505938 22.82561542003532,73.89695112093614 22.61224489795859,73.98330541446921" stroke="#4dd2ff" stroke-dasharray="none" stroke-linecap="round" stroke-linejoin="round" stroke-width="0.5"><title>2026-03-22 12.8km</title><desc>1774137608000</desc></polyline><polyline fill="none" opacity="1" points="183.04265402843885,70.97509039388387 183.146648612048,71.00550169121198 184.53432633717603,71.0207073302081 185.67176709546766,70.92187056155308 186.81570751524123,70.64056442257424 187.7159106296458,70.31363830170085 187.77765741369512,70.22620406697024 187.71266079890484,70.02472436726748 187.92064996615227,69.94109095217937 188.0441435341927,70.0513349584835 188.49587000678002,69.80803739011753 188.48937034529808,69.69399108715879 188.57386594449054,69.60275378384904 189.4285714285652,68.97929266979554 188.61936357482045,69.56093660898841 188.50561949898838,69.6749833347676 188.49262017603905,69.81564046409767 188.21313473256305,69.96770160539745 188.0181448882795,70.05893798090983 187.91415030468488,69.92968638047023 187.7159106296458,70.02852588150927 187.6704129993159,70.15397562544604 187.13094109682424,70.43148410714275 186.8027081922919,70.49991052627593 186.51672308733396,70.61775572008628 186.46147596481023,70.69758611540237 185.83425863237062,70.8686506503218 184.81381178063748,71.00550169121198 184.02410291130946,71.009303101564 183.09140148949518,70.97128897990115 183.00690589031728,70.80402636628787 182.0872037914669,70.74700484257482 181.88896411644237,70.74700484257482 181.82396750168118,70.86104779941888 181.53798239675234,70.8686506503218 181.4144888287119,70.76981346293178 180.17630331753753,70.76981346293178 179.48083953959576,70.84584209277455 179.14285714285506,70.93327481799497" stroke="#ff9000" stroke-dasharray="none" stroke-linecap="round" stroke-linejoin="round" stroke-width="0.5"><title>2026-02-18 20.3km</title><desc>1771394553000</desc></polyline><polyline fill="none" opacity="1" points="58.73469387754449,85.05660758226804 59.90126174950274,84.6294813303939 60.03878397835069,84.47970896260813 59.94868320770911,84.19125726962739 60.242696248635184,84.06367236018559 60.42289778983104,84.24118171480222 61.039376746542985,83.91389837420866 61.08679820477846,83.69201020018954 61.19586755865021,83.56997130372838 61.6179185367364,83.47012108599301 62.751291387947276,82.74897497155325 63.220763824210735,82.32737725834522 63.533745448396076,82.32737725834522 64.13125582181965,81.9335131699736 64.42526886274572,81.50636144372402 64.37310525870998,81.36212760634226 64.63866542465985,81.38986491362448 65.17927004827652,80.86840107831813 65.33576086038374,80.99044627122203 65.4732830892026,80.8961386471492 65.56338385978597,80.81847341742468 65.56812600558624,80.69088028990882 66.12769921246218,80.25262326642769 66.30315860785777,80.23043293982482 68.68845795581001,78.12785682982576 68.81649589297012,78.2055260509369 69.02040816328372,77.95032674892354 68.9208231010416,77.80053527487689 68.71691083075712,78.06683093242464 68.55093572699116,78.05573530706897 67.99610466594459,78.58277491436093 67.83012956220773,78.50510625293828 67.99610466594459,78.57722715665295 68.1668219154817,78.46072410895795 68.23795410280582,78.56058387999292 67.41282072995091,79.33171680847954 66.51181302397163,80.06400519047384 65.57761029724497,80.68533275557638 65.56338385978597,80.82402093766359 65.35947158947238,81.00154127467249 65.16978575664689,80.8961386471492 64.84731984080281,81.240083279783 64.13125582181965,81.76154341350411" stroke="#ff7e00" stroke-dasharray="none" stroke-linecap="round" stroke-linejoin="round" stroke-width="0.5"><title>2026-02-08 23.1km</title><desc>1770528486000</desc></polyline><polyline fill="none" opacity="1" points="64.7621573000797,99.14285714285779 64.84653945712489,99.34511907680371 64.96186173841852,99.78252206716115 65.05749484973057,100.2971947927781 65.39642984719103,101.11274353024965 65.4104935400319,101.19659793155006 65.38377252363716,101.24099125510747 65.31204769015312,101.26894254197487 65.10249866682716,101.47446516768014 64.9140451827625,101.52214602876393 64.92248339846265,101.5977774396797 64.96186173841852,101.63394885404068 65.3022031051587,101.65039037821589 65.48221837352321,101.59284496756936 65.60457250123,101.51063686878024 65.85771897237282,101.25907738763817 66.01101322432805,101.04039819332411 66.11227181278082,100.79211959170607 66.15024378345697,100.62769449525422 66.10523996636039,100.93845646559748 66.05320430285065,101.12754139862136 65.78318140030751,101.52050186357428 65.92100559014943,101.75397158093347 65.97304125365918,101.78192194604162 66.03632787144306,101.76548056088177 66.3513545910755,101.3100472843571 66.62278386289108,100.98942741297742 66.87311759545992,100.5372599512566 66.88296218045434,100.48135469739918 66.85764753333206,100.42216068016205 66.58199915366276,100.2149798455539 66.5594972451072,100.15907343318122 66.87452396474691,99.940378771621 67.00109720031469,99.78252206716115 67.03485006312985,99.79238815813278 67.19658253079251,100.00615192555233 67.017973631715,100.36625501256367 66.85202205619862,100.63756005006144 66.83233288622432,100.73292675723496 66.76904626844043,100.8365140697224 66.71560423565097,100.87433148808759 66.65653672571352,101.03053289403215 66.35979280677566,101.4777535076164 66.24025141762831,101.63559300723955 66.12492913634196,101.71122386657498 66.0630488878378,101.81480466422363 65.83240432525054,101.99237014132541 65.58628970053542,102.10745779394802 65.40627443217818,102.13869572417661 65.34017507582757,101.8575520939421 65.07015217329172,101.91838477217698 64.99280186265969,101.71944458999133 64.14335481508897,101.78849849523885 63.720037660590606,101.90194353125025 63.55127334650024,101.99565837178761 63.31781604534626,102.08115211984114 63.49079946728307,102.54149499502728 63.48517399014963,102.57766421520319 63.34453706174099,102.5727320537635 62.807303995221446,102.475732561099 62.59916134118248,102.52176629403675 62.57806580192846,102.55135933613747 62.54993841624673,102.92455564738248 62.478213582755416,103.07416046571234 61.99442254904716,103.46871572462078 61.58516908738238,103.66763354092473 61.583762718095386,103.69722440376427 61.707523215096444,103.86819273177753 61.7131486922226,103.94216882996443 61.59642004164925,104.17724609659308 61.36015000192856,104.83642984230391 61.332022616239556,105.08793149441954 61.41077929615858,105.61722234954505 61.59079456451582,106.21881681021932 61.56407354811381,106.41276853851377 61.49094234535005,106.64616487265812 61.47969139106863,106.8401112773281 61.52891431601893,107.0044707460047 61.78487352571392,107.47617278639518 61.80034358784178,107.58957637277399 61.78487352571392,107.76707598043595 61.72299327721703,107.90348634104339 61.516256992457784,108.1565819171974 60.99027488021966,108.94049471266953 60.558519510013866,109.42857142857156" stroke="red" stroke-dasharray="none" stroke-linecap="round" stroke-linejoin="round" stroke-width="0.5"><title>2025-11-30 42.8km</title><desc>1764458479000</desc></polyline><polyline fill="none" opacity="1" points="102.99537168070674,107.04349164006999 101.8482080581598,100.40994600171689 98.98029900202528,99.21739184466423 97.00462831906043,101.45342923240969 98.15179194137454,108.0869650413515 100.82850706065074,109.42857142857974 102.99537168070674,107.04349164006999 101.91193937067874,100.5590151293436 99.17149293911643,99.14285714284051 97.00462831906043,101.52796368970303 98.02432931680232,107.86336372827645" stroke="#4dd2ff" stroke-dasharray="none" stroke-linecap="round" stroke-linejoin="round" stroke-width="0.5"><title>2025-11-26 8.7km</title><desc>1764155703000</desc></polyline><polyline fill="none" opacity="1" points="161.18717898465547,105.80337452768254 160.3596998864814,105.37076891264041 160.10810151202895,105.17597988642228 159.72418102953816,104.76374528832275 159.1930289057127,103.99134732351376 158.91533884798264,103.66063350071454 157.36661107638793,102.62994691288986 156.88577862745296,102.42606814109968 156.79818511930353,102.44645611786109 156.07880013755494,102.35357737785307 155.3035044059361,102.36716941727354 155.06122448979295,102.40114947278926 155.20100136449037,102.69790601175555 155.25318473103835,102.73868135305383 155.79551900484512,102.50761991536092 155.79924638816738,102.40114947278926 155.82533807145228,102.37623077141689 156.07134537090315,102.35810805874644 156.9994638188582,102.46684407248904 157.41506705961365,102.6571305819416 157.8362613753634,102.92669983736596 158.2201818578469,103.22571330969186 158.73456075671857,103.5133960217463 158.91720253964013,103.66516386638432 159.15389138079627,103.9301883566859 159.79872869604878,104.88832263147378 160.17146702855825,105.2529897427994 160.63925363586895,105.56782087291504 161.22445281790715,105.81922899454366 161.832016299908,105.9302098879889 162.09479682431993,105.94606424782796 162.11902481594734,105.97550802347905 162.1152974326178,106.13405063779646 162.14325280755293,106.16122923737203 163.49629295457999,106.21785119357628 164.40950186923874,106.12046132326395 164.47473107742553,106.05024970831437 164.43559355251637,105.90982569138578 164.50827752735495,105.88264672819605 164.79528604338702,105.83734836885924 165.34693877551035,105.82828868388606" stroke="red" stroke-dasharray="none" stroke-linecap="round" stroke-linejoin="round" stroke-width="0.5"><title>2025-11-16 42.7km</title><desc>1763252375000</desc></polyline><polyline fill="none" opacity="1" points="98.82166414790845,110.95950642159369 99.06351828460174,112.03162851690831 98.98758733471914,112.44928570402772 99.06070602720138,112.80116574994827 99.3363072527427,113.37337339396254 99.2800621046772,113.4950483740522 99.35318079717399,113.72853146153648 99.80314198174165,114.78740458091306 99.78908069472527,114.91893909610008 99.92406905008829,115.29709772747628 100.00562451480073,115.92844797528596 100.07874320729752,116.05668942787815 100.36840571985522,116.26713579367606 100.39652829388797,116.4611397753797 100.3290341161919,116.7044650921398 100.61588437136379,116.87873745959587 100.6074475991627,116.97080548583654 100.47527150118549,117.08260200837685 100.4865205308015,117.29961764005202 100.57088825289975,117.58239331193545 100.58494953993068,117.80926960814031 100.64681920281146,117.93421526737438 100.71712563789333,118.54578414695789 100.85492625067127,118.674014806189 100.88867333950475,119.02911233402301 100.98429009121901,119.42037250796784 101.05459652631544,119.52229661912133 100.9646042894019,119.77874935681575 101.04615975409979,119.94971667388927 101.02366169488232,120.14040988043962 101.13896424841369,120.36397973723797 101.19239713909337,120.85714285714312 101.13896424841369,120.36069195686287 101.07147007073218,120.28178512373051 101.02366169488232,120.10753182478948 101.04615975409979,119.92012624395647 100.97022880420263,119.76559798581002 101.0489720115147,119.51572088010471 100.89992236912076,119.06527944732443 100.85492625067127,118.68716663878149 100.71712563789333,118.54578414695789 100.64681920281146,117.95394348347509 100.49214504560223,117.34565106419723 100.46683472896984,117.09904263955832 100.61025985654851,116.90175449170601 100.32340960139118,116.71104142562035 100.39090377907269,116.4710043522773 100.37403023465595,116.28028864423686 100.12936384054774,116.1060129226571 100.01406128700182,115.95804220360151 99.9156322778872,115.29709772747628 99.78345617990999,114.90907402676748 99.79189295211108,114.79069295057161 99.35880531198927,113.78443560255073 99.28287436207756,113.49175986733462 99.24631501584372,113.51806791130548 99.22100469921133,113.43585519997578 99.19006986777822,113.47202881975318 99.24350275844336,113.4029700545725 99.23506598622771,113.16619598067155 99.04383248279919,112.75841418125492 98.9707137903024,112.36707016593027 99.05508151240065,112.0776697418878 98.80760286089208,110.8378215155135 98.87228478117322,110.57142857142935" stroke="#ff8100" stroke-dasharray="none" stroke-linecap="round" stroke-linejoin="round" stroke-width="0.5"><title>2025-10-27 22.6km</title><desc>1761522564000</desc></polyline><polyline fill="none" opacity="1" points="173.41768966600648,112.78725220399065 173.46043378286413,114.01060099644383 173.39097459297045,114.84695756605652 172.91010327805998,116.86290284414281 172.94216136573232,117.15623900839273 172.77118489821441,117.59936109753107 172.43457497781492,117.6243256236412 172.01247682364192,118.54800569305371 172.23154042265378,118.75395942043906 172.02850586749264,119.14090085063071 171.02936213547946,120.8571428571413 172.22085439341026,118.7664414415085 171.9857617506059,118.54176465982164 172.413202919357,117.64304901131618 172.47197608009446,117.5868788305379 172.6750106352556,117.64929013922665 172.78721394203603,117.55567315154258 173.24137018388137,115.63337162651442 173.40700363679207,114.50991977218291 173.40166062218486,112.78101056372907 172.86201614656602,110.5714285714239" stroke="#4dd2ff" stroke-dasharray="none" stroke-linecap="round" stroke-linejoin="round" stroke-width="0.5"><title>2025-10-19 14.0km</title><desc>1760852519000</desc></polyline><polyline fill="none" opacity="1" points="125.00598805531627,127.57167721212318 124.57716338417958,129.32488062964694 124.4628101385315,129.41393067889658 124.3055744257581,129.34157752530882 124.2436330843775,129.4027994309472 123.8767497545632,130.19867774740487 124.06733849731972,130.41016787088301 123.00004153797636,132.28571428571377 123.81957313176827,130.89436575475338 124.00063243735349,130.45469199950458 124.26269195863279,130.23763651797708 124.10069152730284,130.40460235217324 123.89580862884759,130.28772632365872 123.87198503600666,130.19867774740487 124.27698611433152,129.34157752530882 124.46757485708804,129.39723380610303 124.57716338417958,129.31931499658822 124.97263502536225,127.66073021714328 125.16322376811877,126.16907257728963 125.12987073810655,125.14492502950816 124.63910472556017,123.06317260327342 124.2531625214906,122.31728411728182 124.54857507275301,122.0" stroke="#4dd2ff" stroke-dasharray="none" stroke-linecap="round" stroke-linejoin="round" stroke-width="0.5"><title>2025-10-07 14.0km</title><desc>1759810688000</desc></polyline><polyline fill="none" opacity="1" points="105.14285714284051,158.81647533646537 104.86611146701034,158.78052736938116 104.73286354899756,158.85242328077584 104.20499679693603,159.48749987142583 103.62075592568726,160.47604833273 102.42152466365951,161.3747137943501 102.17552850735956,161.7401670078143 101.66303651506314,161.57241828428232 100.73030108903185,162.0516990347569 100.3305573350226,162.18350053085305 100.23318385647144,162.08165394714888 100.0025624599366,162.15953664526023 99.86418962202151,162.2254373062715 99.8334401024913,162.37521125095373 98.99807815501117,162.75263983683908 98.68033311978797,162.74065801556935 97.94746957076131,162.9862848452176 97.57847533631139,163.00425749829083 96.88661114667775,163.2259197511048 96.59961563098477,163.49550780967184 95.9999999999709,163.55541609306965 95.45163356821286,163.98076308504096 95.08776425363612,164.07661548776377 94.85714285713038,164.00472620090295" stroke="#4dd2ff" stroke-dasharray="none" stroke-linecap="round" stroke-linejoin="round" stroke-width="0.5"><title>2025-06-22 15.1km</title><desc>1750548259000</desc></polyline><polyline fill="none" opacity="1" points="122.76523441346944,179.14285714286234 123.40099492692389,182.06427006005106 123.18408839881886,183.06137538698385 123.38603585600504,184.005990392674 123.98439869217691,185.22172900607984 123.87220566044562,185.8427108962569 124.01431683401461,185.85145708674827 124.08163265310577,186.32374999960302 125.39803089268389,189.42857142857247 124.36585500024376,187.1371370252382 124.08163265310577,186.13133469412423 123.98439869217691,186.2013039479134 123.90960333769908,185.86020327632286 123.80488984135445,185.82521851249476 123.96196008584229,185.86020327632286 124.23122336211964,185.4928625176981 123.75253309318214,185.66778689203056 123.55058563596685,185.59781718670274 123.90960333769908,185.2479677718875 123.34863817875157,184.02348316137068" stroke="#4dd2ff" stroke-dasharray="none" stroke-linecap="round" stroke-linejoin="round" stroke-width="0.5"><title>2025-04-13 17.0km</title><desc>1744513358000</desc></polyline><polyline fill="none" opacity="1" points="140.44873394910246,179.1428571428405 131.7961640106514,189.42857142852154" stroke="#4dd2ff" stroke-dasharray="none" stroke-linecap="round" stroke-linejoin="round" stroke-width="0.5"><title>2025-04-12 10.0km</title><desc>1744429372000</desc></polyline><polyline fill="none" opacity="1" points="35.16118782843114,217.35588251249283 34.65306122449692,217.55398291959136 34.85323231088114,218.09425441197527 36.99352315775468,217.7430783322925 38.25614077967475,217.36488708647084 38.04827080530231,216.37437823472283 37.632530856644735,216.37437823472283 37.18599535620888,216.68954139335256 36.493095441750484,216.89664797599107 37.87119638273725,216.33835951367655 38.15605523643899,216.6805367479028 38.37932298667147,217.31986420707835 39.511059513664804,216.8516248487722 40.296346083370736,216.8606294761339 40.63509715264081,216.6535228057619 42.33655138700851,216.221298564873 42.53672247342183,216.0592139082437 42.35964805085678,215.55494855661527 42.42893804231426,215.40186741184152 43.92252230233862,215.30281475959055 44.30746669927612,215.4558960826398 44.85408774288953,215.42888175154803 44.93877551020705,215.7080294258194 44.692411096184514,216.76157852280448 44.77709886353114,217.94117783755792 43.5298790174711,218.4184156601841 43.62996456067776,219.06673445030174 43.460589026042726,219.21080462147802 43.03715018942603,219.43591377541452 42.498228033742635,219.41790506502002 41.45117927409592,219.70604397373972 41.15862153246417,219.192795863426 39.53415617745486,219.68803532057063 39.1646095564065,219.5709789818211 38.51020408162731,219.82310012661037 38.525601857487345,219.96716901671607 38.417817426350666,219.85911737200513 38.24074300378561,220.2913231272032 37.978980813903036,220.42638697531947 37.93278748620651,220.3003273904178 37.955884150083875,220.42638697531947 37.62483196868561,220.30933165265742 37.278382011456415,219.96716901671607 36.28522546743625,220.12024194503465 36.08505438102293,220.2823188630282 37.26298423559638,221.19174473053135 37.978980813903036,221.05668209764553 38.35622632285231,221.6059354675017 38.8566540388274,221.8400423832718 39.22620065990486,221.7590054468601 39.49566173774656,221.50689003996376" stroke="#4dd2ff" stroke-dasharray="none" stroke-linecap="round" stroke-linejoin="round" stroke-width="0.5"><title>2025-01-25 14.8km</title><desc>1737764447000</desc></polyline><polyline fill="none" opacity="1" points="189.42857142863795,217.6857570924476 189.12935064942576,218.18873256182997 189.24155844165944,218.9103908803081 188.60571428574622,219.4571000503929 186.36155844153836,219.30402162850078 185.12727272731718,218.93225927483581 184.6971428572433,218.5167593825463 182.86441558448132,218.56049625265587 182.2285714285681,219.06346959366056 180.69506493513472,219.17281146236928 179.55428571428638,219.17281146236928 179.1428571428405,218.82291727891425" stroke="#4dd2ff" stroke-dasharray="none" stroke-linecap="round" stroke-linejoin="round" stroke-width="0.5"><title>2024-10-28 17.0km</title><desc>1730088256000</desc></polyline><polyline fill="none" opacity="1" points="167.10204081633128,239.1150029242308 167.42100980546093,239.20131660854895 167.9388166059798,238.99032732331762 167.95538642362226,239.20131660854895 168.03823551170353,239.1629549905956 168.11279969097814,239.2444733914126 167.98852605884895,239.43148566041418 168.08794496455812,239.4506663639986 168.02580814849352,239.71919539420924 168.19564877907396,240.0500594164114 168.51461776818905,240.23706848827715 169.99761644490354,239.31640127502396 170.04732589775813,239.4075097699788 169.69935972779058,239.87743499901626 169.52951909723924,240.00210825278555 169.48809455317678,240.2178881048094 169.4093879194843,240.28981450257197 169.42595773709763,240.79329621301804 169.79049372469308,241.80503843224506 169.64136536612932,242.01601511540503 169.79049372469308,241.83380803555337 169.94376453764562,241.9249116635292 170.0970353506127,241.70913962766645 170.12189007701818,242.13109290813736 170.46985624698573,242.22219596144714 170.97109322990582,242.76881058304207 171.24035276616632,242.86470723140883 171.52203966566594,243.28665016619198 171.67945293302182,243.34898232496562 171.89071810765017,243.55995209683533 172.25525409521651,243.49282545367896 172.36295790973236,243.54077306568433 172.7233514428808,243.86681553382368 173.09617233926838,243.58392587479466 173.42756869160803,243.66543662864933 173.61812159420515,243.44967256114978 174.34719356935238,243.50241497997195 174.4963219279016,243.43528825486646 174.95199191235588,243.5359783066706 175.3579524439847,243.41131440130266 175.48636853050266,243.5503625822348 175.56507516419515,243.82366298371562 175.99589042222942,243.41131440130266 176.11602159994072,243.47364639519947 176.30243204814906,243.17636999104434 176.48055758752162,243.07088436466074 176.45156040669826,242.72565702762222 176.9403700263938,242.70168281309816 177.28005128754012,242.7736054200832 177.38775510205596,242.22219596144714 177.27590883315133,242.13109290813736" stroke="#4dd2ff" stroke-dasharray="none" stroke-linecap="round" stroke-linejoin="round" stroke-width="0.5"><title>2024-05-25 14.8km</title><desc>1716598951000</desc></polyline><polyline fill="none" opacity="1" points="80.99612503219396,250.76340190978954 78.0666494446341,249.08839686511783 71.68690260918811,251.6009029696579 70.84060966176912,255.02703351335367 73.70498579181731,256.62588884914294 80.08473262703046,254.03726414375706 80.99612503219396,250.76340190978954 78.00154998688959,249.08839686511783 71.68690260918811,251.6009029696579 70.84060966176912,255.02703351335367 73.70498579181731,256.62588884914294 80.08473262703046,254.11340029764688 81.06122448970564,250.9918113864842 78.0666494446341,249.08839686511783 71.68690260918811,251.67703938105842 70.77551020402461,254.95089745649602 73.77008524932899,256.62588884914294 80.08473262703046,254.11340029764688 81.06122448970564,250.9918113864842 78.13174890191294,249.08839686511783 71.68690260918811,251.6009029696579 70.77551020402461,254.87476139125647 73.70498579181731,256.62588884914294 80.08473262703046,254.11340029764688 80.99612503219396,250.76340190978954" stroke="#4dd2ff" stroke-dasharray="none" stroke-linecap="round" stroke-linejoin="round" stroke-width="0.5"><title>2024-05-07 10.0km</title><desc>1715083186000</desc></polyline><polyline fill="none" opacity="1" points="123.77399270725437,247.71428571426077 121.62051308644004,249.65635556011694 122.0512090108823,256.34566483524395 124.4508005878888,258.0 126.54275221959688,256.12988169147866 126.05052830604836,249.22478496207623 123.6509367285762,247.71428571426077 121.62051308644004,249.65635556011694 122.11273699975573,256.48952022677986 124.7584405336529,257.9280724677956 126.54275221959688,256.0579539615428 126.05052830604836,249.15285650250735 123.77399270725437,247.71428571426077 121.62051308644004,249.58442714618286 122.11273699975573,256.4175925348536 124.38927259854972,258.0 126.54275221959688,256.12988169147866 126.05052830604836,249.22478496207623 123.77399270725437,247.71428571426077 121.62051308644004,249.65635556011694 122.11273699975573,256.48952022677986 124.38927259854972,258.0 126.54275221959688,256.2018094137311 126.05052830604836,249.22478496207623 123.71246471791528,247.71428571426077 121.62051308644004,249.65635556011694 122.11273699975573,256.4175925348536 124.51232857676223,258.0 126.54275221959688,256.12988169147866 126.05052830604836,249.15285650250735 123.77399270725437,247.71428571426077" stroke="#4dd2ff" stroke-dasharray="none" stroke-linecap="round" stroke-linejoin="round" stroke-width="0.5"><title>2024-04-18 10.1km</title><desc>1713436846000</desc></polyline><polyline fill="none" opacity="1" points="143.02040816284716,251.26510877616238 153.30612244829535,254.44917693804018" stroke="#4dd2ff" stroke-dasharray="none" stroke-linecap="round" stroke-linejoin="round" stroke-width="0.5"><title>2024-04-07 10.0km</title><desc>1712456610000</desc></polyline><polyline fill="none" opacity="1" points="19.436090225353837,260.80348213529214 16.99999999953434,260.6451980317361 10.571428571362048,264.04829887417145 10.84210526314564,267.1348188010161 13.751879699295387,268.0053733998793 20.045112781925127,265.1562818523962 20.857142857275903,263.17773966799723 20.180451127700508,261.3574762339704 17.338345864554867,260.5660559675307 10.977443609153852,263.49430676933844 10.70676691713743,266.89739464374725 14.022556390846148,267.92623211460887 20.045112781925127,265.1562818523962 20.383458646479994,261.59490215062397 17.676691729109734,260.4869138947688 10.84210526314564,263.7317320074071 10.571428571362048,266.81825324124657 13.684210526291281,268.08451467665145 20.180451127700508,264.9979986703256 20.180451127700508,261.43661821464775 17.406015037558973,260.5660559675307 10.774436090374365,263.7317320074071 10.639097744133323,266.81825324124657 13.684210526291281,268.08451467665145 19.97744360868819,265.23542343091685 20.383458646479994,261.6740441060392 17.676691729109734,260.4869138947688 11.045112781925127,263.49430676933844 10.571428571362048,266.81825324124657 13.684210526291281,268.08451467665145 20.045112781925127,265.1562818523962 20.45112781925127,261.7531860532472 17.60902255610563,260.4869138947688 11.045112781925127,263.49430676933844 10.571428571362048,266.65997041075025 13.345864661503583,268.08451467665145 20.045112781925127,265.1562818523962 20.248120300704613,261.5157601869432 17.406015037558973,260.5660559675307 10.977443609153852,263.57344852376264 10.639097744133323,266.89739464374725 13.751879699295387,268.0053733998793 19.909774435916916,265.23542343091685 20.45112781925127,261.83232799184043 17.812030075117946,260.4869138947688 11.045112781925127,263.49430676933844 10.639097744133323,266.81825324124657 13.413533834507689,268.08451467665145 20.045112781925127,265.1562818523962 20.45112781925127,261.7531860532472 17.541353383334354,260.4869138947688 10.774436090374365,263.7317320074071" stroke="#4dd2ff" stroke-dasharray="none" stroke-linecap="round" stroke-linejoin="round" stroke-width="0.5"><title>2024-03-26 10.6km</title><desc>1711453549000</desc></polyline><polyline fill="none" opacity="1" points="94.85714285704307,267.63651049358305 96.73581213294528,267.6914412154001 101.00978473573923,265.4942078043823 102.70058708405122,263.7913455113303 102.23091976507567,261.9786149939173 105.1428571427241,260.87998735602014" stroke="#4dd2ff" stroke-dasharray="none" stroke-linecap="round" stroke-linejoin="round" stroke-width="0.5"><title>2024-01-30 11.7km</title><desc>1706613736000</desc></polyline><polyline fill="none" opacity="1" points="112.11089298562729,259.4816896039083 112.45901574371965,259.7093413684561 112.66246410887106,259.7146355831428 112.8568703244091,259.57169158873876 112.98798149309005,259.60345695630167 113.033192240895,259.3334506859719 113.04675546524231,259.58228004684497 113.41296252247412,259.3705104568435 113.96001257092576,259.2381540056267 113.9916600943834,259.1587399659802 114.10920803868794,259.14285714285506 114.21319275864516,259.3599219536918 114.00522331873071,260.07993503750185 113.84246462662122,260.2334658922082 113.61188981280429,260.26523083752545 113.42652574682143,260.4928790191261 113.32706210162723,260.5034672813272 113.34514640076668,260.720526159821 113.28185135382228,260.8158200026701 113.09196621301817,261.03817159333266 112.92016537138261,261.1069945034833 113.00154471740825,261.2711102898902 112.2646095281525,261.60463425353373 112.0882876116957,261.86404023616706 111.64974335799343,261.95403791436183 111.64522228320129,262.20285417805644 111.41012639462133,262.46225704396784 110.98062429041602,262.36696635231783 110.26629447509185,262.4251995744344 109.99955106299603,262.55225364087164 110.13066223164788,262.76400969779934 110.02667751169065,263.1769314185767 109.71924442661111,263.38868481888494 109.71924442661111,263.8121889180293 110.08545148384292,263.6322001160079 110.30246307334164,263.7327821737963 110.58276970972656,264.0980521487545 110.80430237398832,264.1351083733207 111.00775073911063,264.0609958966015 111.11173545906786,264.41038232110077 111.52315326413373,264.6485989323046 111.51411111457855,264.8444650700294 111.6587855075486,264.8762270738298 111.63165905888309,265.1144414565606 111.85319172314485,265.37912276757925 111.93909214396263,265.36324192857865 111.99786611608579,265.4479396779934 112.00238719087793,265.81319707223884 111.77633345185313,266.3319638393077 111.73564377884031,266.71309516346446 111.89388139615767,266.71838863353696 112.23748307948699,267.0254089352966 112.37311532290187,267.4806424507333 112.35503102376242,267.8988184086229 112.63081658538431,268.51284256633517 112.56300046370598,268.87807748349223 112.86591247399338,269.42857142857247 113.22307738167001,269.12156594035696 113.34966747552971,267.5282829269563 113.77012743015075,267.2477327999077 114.18606630995055,266.8083775387604 114.11825018827221,266.6495734786513 113.99618116917554,266.67074738259544 114.10920803868794,266.6442800012701 114.07303944043815,266.2949092494455 114.36238822643645,266.11492942077166 114.05495514132781,265.8343713317736 113.77916957970592,265.3685355421294 114.05495514132781,264.6009557012294 114.03234976739623,264.35744514162434 114.19962953432696,264.25686434559975 114.24936135689495,264.3150953575423" stroke="#4dd2ff" stroke-dasharray="none" stroke-linecap="round" stroke-linejoin="round" stroke-width="0.5"><title>2024-01-27 16.6km</title><desc>1706316843000</desc></polyline><polyline fill="none" opacity="1" points="126.25112766888924,260.76321992464364 124.02136890287511,259.1428571428987 121.49029138428159,261.3268234473071 121.97240138798952,267.5968804989243 124.68427015771158,269.35812187060947 126.67297392198816,267.24463166616624 126.13060016813688,260.4814179847599 123.72005015052855,259.1428571428987 121.49029138428159,261.18592261109734 122.03266513813287,268.09002855198923 124.4432151557412,269.35812187060947 126.67297392198816,267.38553122163285 126.25112766888924,260.76321992464364 123.65978639991954,259.1428571428987 121.55055513465777,261.0450217454927 121.97240138798952,267.87867943116 124.62400640710257,269.35812187060947 126.67297392198816,267.24463166616624 126.13060016813688,260.692769450834 123.9611051522661,259.1428571428987 121.55055513465777,260.9745713014854 121.91213763738051,267.5968804989243 124.26242390437983,269.2876723049558 126.67297392198816,267.1741818774026 126.13060016813688,260.6223189695156 123.84057765151374,259.2133077806211 121.49029138428159,261.25637303304393 121.8518738867715,267.6673302431591 124.26242390437983,269.42857142857974 126.61271017161198,267.4559809882194 126.01007266715169,260.6223189695156 123.65978639991954,259.2837584107183 121.49029138428159,261.3972738540033" stroke="#4dd2ff" stroke-dasharray="none" stroke-linecap="round" stroke-linejoin="round" stroke-width="0.5"><title>2024-01-25 10.3km</title><desc>1706155972000</desc></polyline></svg>