<?xml version="1.0" encoding="utf-8" ?>
<svg baseProfile="full" height="300mm" version="1.1" viewBox="0,0,200,300" width="200mm" xmlns="http://www.w3.org/2000/svg" xmlns:ev="http://www.w3.org/2001/xml-events" xmlns:xlink="http://www.w3.org/1999/xlink"><defs /><rect fill="#222222" height="300" width="200" x="0" y="0" /><text fill="#FFFFFF" style="font-size:12px; font-family:-apple-system, BlinkMacSystemFont, 'Segoe UI', Roboto, 'Helvetica Neue', Arial, sans-serif; font-weight:bold;" x="10" y="20">Over 3km Runs</text><text fill="#FFFFFF" style="font-size:4px; font-family:-apple-system, BlinkMacSystemFont, 'Segoe UI', Roboto, 'Helvetica Neue', Arial, sans-serif;" x="10" y="280">Runner</text><text fill="#FFFFFF" style="font-size:9px; font-family:-apple-system, BlinkMacSystemFont, 'Segoe UI', Roboto, 'Helvetica Neue', Arial, sans-serif;" x="10" y="290">Hannah YAN</text><text fill="#FFFFFF" style="font-size:4px; font-family:-apple-system, BlinkMacSystemFont, 'Segoe UI', Roboto, 'Helvetica Neue', Arial, sans-serif;" x="65" y="280">SPECIAL TRACKS</text><rect fill="yellow" height="2.6" width="2.6" x="65" y="283" /><text fill="#FFFFFF" style="font-size:3px; font-family:-apple-system, BlinkMacSystemFont, 'Segoe UI', Roboto, 'Helvetica Neue', Arial, sans-serif;" x="70" y="285.5">Over 20.0 km</text><rect fill="red" height="2.6" width="2.6" x="65" y="287" /><text fill="#FFFFFF" style="font-size:3px; font-family:-apple-system, BlinkMacSystemFont, 'Segoe UI', Roboto, 'Helvetica Neue', Arial, sans-serif;" x="70" y="289.5">Over 40.0 km</text><text fill="#FFFFFF" style="font-size:4px; font-family:-apple-system, BlinkMacSystemFont, 'Segoe UI', Roboto, 'Helvetica Neue', Arial, sans-serif;" x="120" y="280">STATISTICS</text><text fill="#FFFFFF" style="font-size:3px; font-family:-apple-system, BlinkMacSystemFont, 'Segoe UI', Roboto, 'Helvetica Neue', Arial, sans-serif;" x="120" y="285">Number: 309</text><text fill="#FFFFFF" style="font-size:3px; font-family:-apple-system, BlinkMacSystemFont, 'Segoe UI', Roboto, 'Helvetica Neue', Arial, sans-serif;" x="120" y="290">Weekly: 2.8</text><text fill="#FFFFFF" style="font-size:3px; font-family:-apple-system, BlinkMacSystemFont, 'Segoe UI', Roboto, 'Helvetica Neue', Arial, sans-serif;" x="141" y="285">Total: 2698.6 km</text><text fill="#FFFFFF" style="font-size:3px; font-family:-apple-system, BlinkMacSystemFont, 'Segoe UI', Roboto, 'Helvetica Neue', Arial, sans-serif;" x="141" y="290">Avg: 8.7 km</text><text fill="#FFFFFF" style="font-size:3px; font-family:-apple-system, BlinkMacSystemFont, 'Segoe UI', Roboto, 'Helvetica Neue', Arial, sans-serif;" x="167" y="285">Min: 3.0 km</text><text fill="#FFFFFF" style="font-size:3px; font-family:-apple-system, BlinkMacSystemFont, 'Segoe UI', Roboto, 'Helvetica Neue', Arial, sans-serif;" x="167" y="290">Max: 42.8 km</text><polyline fill="none" opacity="1" points="36.25642256910214,31.86736240144819 35.953901560627855,33.72453496363596 34.83457382960478,36.200732960074674 34.66818727494683,37.651060472635436 38.70684273715597,38.60614733102557 40.4160864346195,34.36127509364451 40.4160864346195,31.70817522201105 36.392557022860274,31.778925098260515 36.15054021612741,32.04423686755763 36.02953181281919,33.583036827723845 34.97070828336291,35.79393152080593 34.65306122449692,37.66874731586722 44.25810324132908,39.96802100914647 44.938775510236155,36.200732960074674 44.84801920771133,31.761237632046686 44.53037214890355,31.460550419433275 36.226170468260534,31.920424760959577 36.1051620648941,33.19391633645864" stroke="#4dd2ff" stroke-dasharray="none" stroke-linecap="round" stroke-linejoin="round" stroke-width="0.5"><title>2026-07-14 4.4km</title><desc>1784026688000</desc></polyline><polyline fill="none" opacity="1" points="50.4185094650602,33.96106436425907 50.408959126798436,32.676801520945446 50.217952361970674,32.576293334932416 47.67756238981383,32.75497448837996 47.534307316178456,33.815887608681805 46.86578363931039,35.22297698442708 46.73207890393678,36.39553713906935 52.978000113682356,37.88076130760601 53.36956398159964,38.1264354721352 54.06673867319478,38.182270429802884 56.27286680683028,39.00862435105955 56.97959183668718,38.96395673687948 56.59757830708986,36.39553713906935 56.368370189273264,35.92651463990478 53.254959922633134,37.132568285262096 52.99710079014767,37.065565666387556 53.216758569702506,35.35698451833741 53.149906201986596,32.598628495623416 53.025751804874744,32.419947077512916 47.68711272807559,32.743806925158424 47.648911375086755,33.469696078114794 46.98038769821869,34.966128735664824 46.69387755100615,36.35086841938755 49.205616508377716,37.0208972301989 49.387072935001925,36.88689180822985 50.29435506789014,34.44126297982439 50.42805980326375,32.66563394945115 49.778636802861,32.576293334932416 47.69666306633735,32.72147179514286 47.62981069862144,33.61487330978707 46.94218634522986,35.1224712223775 46.703427889209706,36.35086841938755 49.33932124375133,36.9762287751073 50.399408788536675,34.10624092024227 50.42805980326375,32.72147179514286 50.29435506789014,32.56512575276429 47.69666306633735,32.73263936075091 47.61071002215613,33.67071065342316 47.01858905120753,34.82095336211205 46.71297822747147,36.261530923322425 47.03768972767284,36.47370735301956" stroke="#4dd2ff" stroke-dasharray="none" stroke-linecap="round" stroke-linejoin="round" stroke-width="0.5"><title>2026-07-09 10.0km</title><desc>1783598044000</desc></polyline><polyline fill="none" opacity="1" points="61.95714021916501,39.034370587032754 63.79405489866622,40.72694501694059 66.79991528321989,39.1645687854616 65.90928998403251,32.65462510212092 63.57139857392758,30.571428571478464 61.79014797555283,31.157328308850992 61.010850838851184,32.65462510212092 61.90147613803856,39.034370587032754 63.961047142511234,40.79204394062981 66.79991528321989,38.96927147731185 65.90928998403251,32.78482465108391 63.738390817539766,30.571428571478464 60.89952267659828,32.32912610931089 61.79014797555283,39.099469689594116 64.23936754837632,40.85714285715949 65.68663365929388,40.4014502959908 66.85557936457917,38.578676675329916 66.02061814651825,32.65462510212092 65.07432876620442,31.22242824517889 63.29307816782966,30.63652856979752 60.843858595239,32.78482465108391 62.17979654413648,39.22966787428595 64.29503162926994,40.6618460866157 66.79991528321989,38.578676675329916 65.85362590313889,32.2640262900386 63.23741408670321,30.76672854583012 61.066514920210466,32.39422592159826 62.012804300524294,39.22966787428595 64.12803938589059,40.79204394062981 65.74229774042033,40.4014502959908 66.85557936457917,38.64377582632005 65.74229774042033,32.65462510212092 64.90733652259223,31.22242824517889 63.18175000557676,30.70162856130628 60.89952267659828,32.78482465108391 61.95714021916501,39.1645687854616 64.7960083601065,40.72694501694059 66.5215948773548,39.620262262935285 66.91124344570562,38.05788322020089 65.46397733455524,31.87342722999165 62.62510919361375,30.831828523485456 60.89952267659828,32.84992441511713 61.95714021916501,38.96927147731185 63.18175000557676,40.59674714936409 64.51768795424141,40.6618460866157 66.24327447125688,39.94575739733409 66.85557936457917,38.31828000303358 65.85362590313889,32.2640262900386 63.014757761964574,30.70162856130628 60.89952267659828,32.52442552574212 62.012804300524294,39.42496509948978 64.29503162926994,40.72694501694059 66.85557936457917,38.8390732377884 65.79796182177961,32.39422592159826 63.014757761964574,30.76672854583012 61.066514920210466,32.84992441511713 61.84581205667928,39.1645687854616 64.12803938589059,40.6618460866157 66.02061814651825,39.880658384179696 66.91124344570562,38.38337918149773 65.51964141591452,31.808327362465207" stroke="#4dd2ff" stroke-dasharray="none" stroke-linecap="round" stroke-linejoin="round" stroke-width="0.5"><title>2026-07-08 4.7km</title><desc>1783508969000</desc></polyline><polyline fill="none" opacity="1" points="96.13930021777924,39.49161311517673 96.13579367849161,39.40959778504839 96.21293754334329,39.34808617353701 96.33215987993754,39.368590054888045 96.63372226073989,39.59413203372969 97.58750095355208,40.61520565947649 97.783867154998,40.70952033988942 97.96270065988938,40.697218438072014 98.09945569305273,40.8571428571413 98.38699191660271,40.57009855726574 98.56582542150863,40.27485077354868 98.57634503944428,40.11902464748346 98.87440088094445,39.69665068106042 99.2846659804054,39.22916344773694 99.53713681084628,39.097937947441096 99.48103218185133,39.02002259635992 99.7440226302424,38.47050988202318 100.08415694348514,37.3632590991765 100.07013078623277,36.42002051014788 100.01402615725237,36.260077776601975 100.08065040415386,36.06732539982477 100.6311770760949,35.84586403833964 101.32897839913494,35.312711123664485 101.51482498264522,35.300407508239005 101.5569034544169,35.15276381843796 101.74275003792718,34.92309473800924 101.66911271236313,34.37352391092281 101.32897839913494,33.51224051210738 101.13962527629337,32.83550440617546 101.41664188193681,32.70835872745738 102.07587127255101,32.57711113743062 102.46159059682395,32.568908148292394 102.72107450588373,32.47047214306076 102.86484261768055,32.12594415458807 102.81575106730452,31.777311522699165 102.84730992111145,31.387659573185374 102.75964643830957,30.977495390987315 102.82627068524016,30.79292009173878 102.94549302183441,30.784716724687314 103.1664049984829,30.87905534086167 103.79056899595889,31.354846598449512 103.99745481535501,31.43277736800883 104.1552490843751,31.34254172576766 104.31304335340974,31.043121952054207 104.42875915068726,31.0595285749514 104.53395533004368,30.998003703265567 104.10265099471144,30.92007205882328 104.03953328708303,31.149764876616246 103.9168044111866,31.194882948602753 103.26108155988913,30.702682958602963 102.93847994320095,30.571428571427532 102.79471183143323,30.583733689109067 102.61938486584404,30.6903778786982 102.57029331548256,30.842140257551364 102.66496987690334,31.96598368958439 102.66496987690334,32.14645185873451 102.59133255135384,32.26129480126838 101.15715797284793,32.57300964307433 100.94325907484745,32.757576459047414 100.9327394569118,33.032374311045714 101.5007988254074,34.56628471565273 101.51482498264522,34.89438600721769 100.60663130090688,35.616199067004345 99.85973842753447,35.964797149121296 99.8983103599603,37.12950211090356 99.61428067571251,38.281869392227236 99.2846659804054,38.995417716101656 98.7376458477811,39.55722525429519 98.43959000628092,40.0206078239753 98.26776958000846,40.135427427099785 98.01880528886977,40.4470789207553 97.77334753704781,40.50448813305775 97.31399088722537,40.06571556576819 96.60216340693296,39.2414658156049 96.31112064406625,39.14304676329266 95.91137516252638,39.126643563602556 95.53968199549126,38.872393080477195 95.46604466995632,38.98311527012993 95.47656428789196,39.040526651315304 95.84124437630817,39.27017132544279 96.04111711705627,39.70895290050976 96.044623656373,39.856579229333875 96.2480029364524,40.20513916303025" stroke="#4dd2ff" stroke-dasharray="none" stroke-linecap="round" stroke-linejoin="round" stroke-width="0.5"><title>2026-06-28 15.3km</title><desc>1782609425000</desc></polyline><polyline fill="none" opacity="1" points="121.91660171204421,30.571428571427532 122.11710010950628,30.59197804977157 122.21910806609958,30.82624133700665 122.33166856995376,30.883779472824244 122.20855551888235,31.060503215940116 121.96584693246405,31.22900650367228 122.40201888485171,31.77560971449566 122.3562911801564,31.931780652281304 122.98592649849888,32.62632276860313 123.39044080917665,32.72084529499989 123.45727360833553,32.901670358885895 123.34823062023497,32.967424719583505 123.34823062023497,33.03317896932276 123.61556181685592,33.333181326095655 123.85475288750604,33.20989296582047 123.88641052921594,33.275646806501754 123.77736754111538,33.36605815629082 123.77736754111538,33.46468848051154 123.93213823391125,33.61674307467183 124.1115315368952,33.62907179956164 124.20650446201034,33.69893450021482 124.19243439903948,33.986603124685644 124.4316254696896,34.2865981429095 124.56880858373188,34.34824066890724 124.8783499692945,34.29892665590887 124.87483245355543,34.47563491371693 124.96277034717787,34.578371904641244 125.01905059911951,34.820830129585374 125.51502031914424,35.424914401501155 125.80697412596783,35.276976261724485 125.95822730301006,35.383820530110825 126.01802507067623,35.593398821307346 125.8034566102142,35.70435157812972 125.57130057104223,35.97145877150251 125.91601711406838,36.60018078711437 126.22907601537008,38.063050285978534 126.23962856260187,38.96293431053709 126.12003302728408,39.7929459111474 126.21500595238467,39.932649096826935 126.15872570047213,40.12987627157054 126.02506010215438,40.29423148850037 125.92305214554654,40.672245858528186 125.94415724002465,40.83659878946855 126.02857761789346,40.8571428571413 126.08134035408148,40.799619440407696 126.01802507067623,40.29423148850037 126.15169066897943,40.1380940488707 126.20445340513834,39.932649096826935 126.11651551153045,39.76007450059478 126.24666359409457,38.73693799258763 126.21148843666015,38.03428652711955 125.89491201959027,36.57141594892528 125.5537129923323,35.963240115906956 125.8034566102142,35.6838047951278 126.0074725234299,35.57696134900107 125.94415724002465,35.37149236024925 125.79642157873604,35.276976261724485 125.49391522466613,35.424914401501155 125.01905059911951,34.829049026036955 124.94518276845338,34.56604348002293 124.86427990632365,34.48385388296083 124.86427990632365,34.29892665590887 124.57232609948551,34.352350167177065 124.4316254696896,34.29892665590887 124.18891688328586,33.98249358785324 124.22409204074938,33.7770161939261 124.17836433603952,33.66605795079158 123.9462082968821,33.624962225032505 123.76681499389815,33.46057888865835 123.77385002539086,33.35783895134227 123.90399810794042,33.275646806501754 123.88289301347686,33.20578334708989 123.6648070372903,33.333181326095655 123.59797423813143,33.31674290057708 123.33416055726411,32.987972934541176 123.45023857684282,32.88934140391575 123.37285323046672,32.716735624708235 122.99999656149885,32.64276148531644 122.35277366440278,31.923561144842097 122.38443130611267,31.763280403283716 121.96936444823223,31.233116330859048 122.33166856995376,30.891999199579004 122.22262558185321,30.81802159639119" stroke="#4dd2ff" stroke-dasharray="none" stroke-linecap="round" stroke-linejoin="round" stroke-width="0.5"><title>2026-06-21 12.1km</title><desc>1782018676000</desc></polyline><polyline fill="none" opacity="1" points="139.09771264210576,36.638552656360844 138.71803862485103,36.86456696813548 137.93107793453964,36.67084045615047 137.33740583481267,36.82420731870661 136.70921791536966,36.662768507500004 136.50902616081294,36.767703773628455 136.32954389811493,37.07443680115102 136.08793315984076,37.130940119110164 135.6737433228409,36.896854672297195 134.67278455005726,36.91299851929216 133.79608272842597,37.58296515676193 133.1195726612932,37.48610287409247 132.7675112998404,37.3085217032276 131.0762361320376,37.356952972615545 130.97959183674539,37.00986152938276 132.10480756065226,37.130940119110164 132.6846733324346,36.99371770289872 133.3887960553402,37.25201851674501 133.80298589234008,37.10672441652423 133.8375017120852,37.21165907219256 134.27930420491612,36.727344072947744 134.65897822217084,36.58204897380347 135.70135597867193,36.61433679752372 136.15006163541693,36.86456696813548 136.72302424328518,36.38832174464187 137.31669634298305,36.501329354759946 137.9932064100867,36.372177786674 138.71113546090783,36.55783309706021 139.33242021640763,35.863641362593626 139.67757841391722,35.0725779668428 140.35408848102088,34.58017722245131 140.51976441586157,34.11198996121675 140.79589097385178,33.84560627180326 141.2653061224555,33.88596749663702" stroke="#4dd2ff" stroke-dasharray="none" stroke-linecap="round" stroke-linejoin="round" stroke-width="0.5"><title>2026-06-18 10.3km</title><desc>1781755773000</desc></polyline><polyline fill="none" opacity="1" points="153.30612244911026,37.68415875888604 143.02040816331282,33.74441266967915" stroke="#4dd2ff" stroke-dasharray="none" stroke-linecap="round" stroke-linejoin="round" stroke-width="0.5"><title>2026-06-15 11.4km</title><desc>1781479179000</desc></polyline><polyline fill="none" opacity="1" points="171.6626679665642,32.247959674932645 170.85401519900188,32.09669467811182 169.9375420624856,32.323592101391114 169.44156836508773,32.04627296990657 168.6760437451303,32.14711636504944 168.3310185643495,31.844585923681734 168.4496209702338,31.441210807963216 169.45235040201806,31.264733765761775 170.2286570588476,30.697484361146053 170.9833996418747,30.76051220601221 171.4362451916677,30.571428571427532 172.71930758282542,30.873962242847483 173.53874238725984,30.672273213858716 173.76516516215634,31.10086199270154 172.40662851271918,33.81102007343725 171.8351805569837,36.23120220663259 173.50639627652708,36.98749905099976 176.1587773540523,37.64295243669767 175.85688032081816,40.126079705150914 173.65734479314415,39.62189561015839 173.26919146475848,40.1638934263392 173.53874238725984,40.61765714566718 173.29075553856092,40.857142857144936 172.9996405422571,40.819329355719674 172.91338424698915,40.4916118412948 172.2448979591718,40.55463451014657 171.04809186328202,40.25212539586937" stroke="#4dd2ff" stroke-dasharray="none" stroke-linecap="round" stroke-linejoin="round" stroke-width="0.5"><title>2026-06-11 10.1km</title><desc>1781164397000</desc></polyline><polyline fill="none" opacity="1" points="24.841642029176,44.64273700268677 25.00932318091509,44.4109803146639 25.211302750074537,44.35304094336607 26.491776999784634,44.286187723577314 26.769975274291937,44.45109214040349 26.994820455045556,45.0884193563943 27.42164520494407,45.235493498032156 28.008529236074537,45.13744412734013 28.427732115451363,44.91906061761256 28.896477153291926,45.190925630555284 29.090834851915133,45.18201205141304 29.44144089645124,45.05276494167265 29.753937588378903,44.7006759753931 29.925429675378837,44.78981270085205 29.940673416451318,45.030480917142995 30.176951403016574,45.23103671341232 30.660940181915066,44.59371165581615 30.958193132741144,44.517945098388736 32.00238939591509,44.66502123239479 32.42159227527736,45.239950282193604 32.379671987349866,45.35136973272529 32.4292141458136,45.587577992948354 32.635004650233896,46.051077143747534 32.84079515465419,46.14021101100661 32.89795918366872,46.46109137120948 32.42540321055276,46.69283677761996 32.05574248965422,46.97360354245757 30.436095001161448,48.98793878297147 30.215060755668674,49.18847573581297 29.681529818291892,48.27045431114675 29.567201760277385,48.20806377950794 29.391898737987503,48.225889655139326 29.186108233581763,48.123390767337696 29.15562075145135,48.04317407246708 29.85302190532093,47.65545789362659 29.89113125797303,47.258825006178085 29.96353902804549,47.134040853463375 30.26841384943691,47.35686943824112 30.46658248329186,47.3925219024095 31.015357161755674,46.90675448249749 31.144928960842662,46.57696423380912 31.18684924877016,46.26945478347625 31.7927879562194,45.78367441006776 31.88806133788603,45.55638075149545 31.884250402625185,45.04385133327378 31.819464503103518,44.93688788534564 31.66702709242236,44.874492415263376 31.48791313485708,44.90123334232703 31.099197737625218,45.311258764479135 30.958193132741144,45.30680198787741 30.782890110465814,45.092876156108105 30.82481039839331,45.32908586620033 31.007735291219433,45.529640240431036 31.529833422784577,45.45833212789512 31.125874284480233,45.7703042288158 30.81718852787162,45.83269837167609 30.81718852787162,45.93965954437226 30.52374651230639,46.49228794249939 30.378930972146918,46.514571193565644 30.180762338277418,46.40315482037113 29.940673416451318,46.36304485387154 29.2356503920455,46.581420876002085 28.633522619857104,46.536854432830296 28.34770247482811,46.991429940531816 27.547406068755663,47.44600054206967 27.478809233944048,47.686653580287384 27.20061095946585,47.913935742733884 27.105337577784667,48.18132495195459 26.64040347520495,48.88098535110112 26.419369229726726,49.08152281309958 26.061141314625274,49.24640845555041 25.885838292335393,49.24195209532627 25.702913399523823,49.07261005728287 25.48950102456729,49.036959015156754 25.378983901813626,49.036959015156754 25.165571526857093,49.18847573581297 24.94453728137887,49.24640845555041 24.66633900688612,49.11271744361147 24.395762602929608,48.77848805739268 24.38814073240792,48.56012342606482 24.1213752636977,48.41751734151694 23.987992529349867,47.896109735098435 23.7212270606542,47.64208830656935 23.728848931204993,48.096651886029576 23.641197420074604,48.60023130036279 23.37062101610354,48.73392393884569 23.32870072814694,48.65370840667674 23.225805475958623,48.77848805739268 23.161019576422404,48.76511882677369 22.951418136726716,48.91663652522402 22.93236346039339,48.85424695069014 22.757060438103508,48.947831277837395 22.6846526680456,48.88544174950948 22.61224489795859,48.96565684039888 22.69989640908898,49.10380469439042 23.02763684206002,49.17510663532812 23.164830511668697,49.41129345260197 22.886632237190497,49.99952656213645" stroke="#ff8800" stroke-dasharray="none" stroke-linecap="round" stroke-linejoin="round" stroke-width="0.5"><title>2026-06-06 21.6km</title><desc>1780740439000</desc></polyline><polyline fill="none" opacity="1" points="85.86438955477206,52.285714285713766 86.41469482510001,51.70286595993457 86.77810396588757,51.51465325661411 86.69503901942517,51.3871539777283 87.0947890742973,50.54322303435765 87.59837031224743,48.90996889532107 87.51530536578503,47.78062843040607 87.5724125164852,47.53168479943997 87.4893475700228,47.24630906401944 87.5516462798696,47.02772243405707 88.45497757266276,46.65126572974623 89.44137381197652,45.91048887105353 89.73210112459492,45.86798499057113 89.75805892035714,45.63724908977747 90.05397779215127,45.291143498052406 90.02282843724242,44.76894514359083 89.2492861232895,42.69832114105884 89.16102961765137,42.20646104887055 89.35830886548501,42.09715823325314 90.01244531892007,42.0 90.0176368780958,42.20646104887055 89.55558811334777,42.340053096177144 89.54520499505452,42.510078888066346 89.89823101751972,42.69832114105884" stroke="#4dd2ff" stroke-dasharray="none" stroke-linecap="round" stroke-linejoin="round" stroke-width="0.5"><title>2026-05-23 13.0km</title><desc>1779516917000</desc></polyline><polyline fill="none" opacity="1" points="105.1428571427241,49.24837813246995 94.8571428572759,45.0373361534439" stroke="#4dd2ff" stroke-dasharray="none" stroke-linecap="round" stroke-linejoin="round" stroke-width="0.5"><title>2026-05-17 11.1km</title><desc>1779003218000</desc></polyline><polyline fill="none" opacity="1" points="150.2065885856282,49.659831123120966 148.74566179641988,48.20509252791817 143.0796349250013,44.07173467428947 143.57319127279334,43.44826048868708 145.7645814564312,43.00951832655119 148.82463081204332,46.588704929788946 153.26663794124033,49.775286151547334 153.26663794124033,50.1909237477812 151.39112382009625,51.27619595914439 148.74566179641988,48.20509252791817 144.18520114384592,44.99539685789205 143.09937717893627,44.09482627650141 143.09937717893627,43.74845198576804 145.78432371036615,43.05570175360481 148.96282658935525,46.773435547351255 152.95076187874656,49.38273880550696 153.30612244911026,50.21401470215642 151.78596889821347,51.23001427295094 151.25292804266792,51.137650871110964 148.72591954248492,48.251274854686926 143.0796349250013,44.07173467428947 143.31654197187163,43.586810461769346 145.8632927259896,43.1018851709523 148.90359982766677,46.70416158402804 148.19287868705578,47.697086288026185 144.46159269858617,45.226311792459455 143.02040816331282,44.07173467428947" stroke="#4dd2ff" stroke-dasharray="none" stroke-linecap="round" stroke-linejoin="round" stroke-width="0.5"><title>2026-05-10 15.1km</title><desc>1778395698000</desc></polyline><polyline fill="none" opacity="1" points="34.65306122449692,58.845923772634706 35.05851469223853,58.34684231088613 42.24997882975731,58.072347056891886 42.18595986114815,58.82096972464933 44.93877551017795,59.07051008594863" stroke="#4dd2ff" stroke-dasharray="none" stroke-linecap="round" stroke-linejoin="round" stroke-width="0.5"><title>2026-04-26 11.2km</title><desc>1777162036000</desc></polyline><polyline fill="none" opacity="1" points="131.40124899469083,59.44814149189733 131.47741932001372,59.59770082229261 131.58079333293426,59.581790290627396 131.7712191462051,59.64861446703435 132.6308556747099,59.584972397633464 132.74783153143653,59.613611345546815 133.3571941339178,59.59770082229261 133.50953478454903,59.68043545118053 133.70540133534814,59.69316383540354 133.76524944808625,59.6836175477456 133.7978938732267,59.59451871663623 133.96111599888536,59.5913366106397 134.73370072703983,59.63906816522649 134.79354883977794,59.77589820139474 135.51444656147214,59.807719050733795 136.34687940237927,59.78862654518343 137.0378530676826,59.69316383540354 138.04710987805447,59.44495937039028 138.67007432434184,59.184024260252045 138.7163205932884,59.15220275031788 138.71904096205253,59.06946666673139 138.9393908316997,58.99945903340631 139.31752208949183,58.79898172641333 139.33656467081164,58.66532944514802 139.42361647116195,58.58577423352108 140.231565993221,57.99069456851248 140.65866388870927,57.56744891629023 140.99054887755483,57.32877392629962 141.06671920286317,57.3956031146663 141.26530612244096,57.42424414987909 141.06127846534946,57.576995876444926 141.0776006779197,57.66610069154012 139.6902126097557,58.64305400713238 139.57323675302905,58.64305400713238 139.5514738029451,58.569863165914285 139.43721831496805,58.58895644603581 139.33112393329793,58.67487605638598 139.32024245825596,58.79898172641333 138.947551937963,59.002641202101586 138.84145755629288,58.89444727754744 138.31914675417647,59.26676002835666 137.9600580776896,59.35267770021892 137.6635378827341,59.47041633297158 137.60096940123185,59.54678709127438 137.23099924973212,59.65179656696455 136.4040071463387,59.785444459739665 135.46820029252558,59.814083216559084 134.79082847102836,59.772716114612194 134.7445822020818,59.74089522820759 134.72825998951157,59.632703962317464 133.83325866711675,59.57542607558935 133.73532539170992,59.6836175477456 133.50137367825664,59.67725335428804 133.38711819029413,59.59770082229261 132.77775558781286,59.626339758082395 132.61453346213966,59.584972397633464 131.72769324603723,59.65816076581541 131.4883007950557,59.74089522820759 130.97959183673083,59.7281668642172" stroke="#4dd2ff" stroke-dasharray="none" stroke-linecap="round" stroke-linejoin="round" stroke-width="0.5"><title>2026-04-12 19.4km</title><desc>1775975191000</desc></polyline><polyline fill="none" opacity="1" points="158.98434708302375,63.71428571428987 160.90743221226148,63.277049688549596 162.26071434025653,63.42279513839458 163.07980615459383,62.15272402022674 162.49219680950046,60.67443420240306 162.68806659115944,59.258596926621976 162.3497460592771,57.44714320945786 161.42381618218496,56.17703353482648 161.19233371294104,54.17815580914612 160.64033705554903,53.42857142856519 159.73221352219116,53.49103690267657 157.23932539171074,54.657055446645245 157.73790301778354,56.59346383936645 158.5213821445359,57.80110674051684 158.25428698770702,58.23835492947546 158.3967377380468,59.904053418300464 157.8269347366877,61.75712642450526 158.8240899888333,63.65182348433882 160.7827878057724,63.21458731990424 162.29632702784147,63.277049688549596 163.16883787349798,62.00697763009521 162.54561584093608,60.73689737706445" stroke="#4dd2ff" stroke-dasharray="none" stroke-linecap="round" stroke-linejoin="round" stroke-width="0.5"><title>2026-04-09 10.0km</title><desc>1775707979000</desc></polyline><polyline fill="none" opacity="1" points="15.307916573190596,66.71640992495668 15.394034536846448,66.53740558443315 15.184122000413481,66.35840073525469 15.141063018585555,66.05594311014283 15.350975555018522,66.3769185018682 15.598564700572751,66.48185240981547 15.89997757342644,66.43247176902878 15.835389100684552,66.71023736996722 16.389773491799133,66.30284740278876 16.44897959183436,66.63616666280723 16.750392464658944,67.09910715373917 17.105629064812092,67.37686981536899 17.261717873974703,67.3953872825914 17.697690065018833,67.17934982621227 19.495402556611225,67.06207203966551 19.58152052029618,67.27193739825088 19.74299170213635,67.23490238576778 20.21125812959508,68.01263307579939 20.561112357012462,68.0743573224936 20.518053375184536,68.87059468334701 20.647230320697417,69.36438023941446 20.857142857130384,69.57423792886402 20.814083875302458,69.8087839310574 20.45884727514931,69.98777897693071 20.437317784235347,70.35193974193317 20.265081856923643,70.20997901606461 20.103610675025266,70.35811194015696 19.807580174936447,70.8950908705774 19.71607983854483,71.27776271800394 19.624579502124107,71.20369738052977 19.651491365773836,70.4136616968899 19.56537340208888,70.14825686158292 19.73222695669392,69.78409491932689 19.656873738509603,69.43844773903402 19.533079165703384,69.32117415775065 19.091724601894384,69.3026572565359 19.258578156557633,69.21624497893936 19.03790087462403,69.11748794513187 18.83875308363349,69.16069416646496 18.860282574547455,69.51251515157128 18.095985646970803,69.80261167903882 18.004485310579184,69.98777897693071 17.33707109215902,70.06801797034495 17.202511773910373,70.22232343970973 16.70195111009525,70.3642841377623 16.68042161918129,70.117395761652 17.11101143754786,69.53720426975997 17.272482619417133,68.96317976989667 17.084099573869025,68.48790821552393 16.965687373827677,68.39532243055146 17.024893473862903,68.30890890847877 16.718098228273448,68.31508130683505 16.567391791875707,68.21632286043314 16.615833146410296,68.11139184149579 16.93339313744218,68.01263307579939 16.94954025564948,67.70401093514738 16.75577483739471,67.93856389993016 16.389773491799133,67.76573548422311 16.750392464658944,67.79042528693026 16.739627719216514,67.36452483418907 16.88495178287849,67.26576489767467 16.70195111009525,67.27193739825088 16.57815653734724,67.51883692503907 16.20139044628013,67.43242220073444 16.072213500767248,67.75339057924066 15.932271809782833,68.56814911912443 15.065709800401237,69.30882955753259 14.69970845480566,70.46921140466657 14.366001345566474,70.77782000047227 14.172235927311704,71.89497047807163 14.03767660909216,71.89497047807163 13.58017492707586,72.20974410788403 13.187261717830552,72.2838082628623 13.122673245088663,72.82077078300063 12.988113926869119,73.11702400793365 12.218434626585804,73.06147663435695 12.035433953773463,73.13553978825439 11.94393361735274,72.96272562708691 11.723256335477345,72.93186590557889 11.680197353620315,73.19108709656211 11.276519398961682,73.28366583492607 11.190401435276726,73.49968236219502 10.571428571420256,73.94405688985353" stroke="#4dd2ff" stroke-dasharray="none" stroke-linecap="round" stroke-linejoin="round" stroke-width="0.5"><title>2026-03-22 12.8km</title><desc>1774137608000</desc></polyline><polyline fill="none" opacity="1" points="170.81980093462334,70.45762437927442 170.91826702220715,70.52610913028002 171.08060300447687,70.54789969941339 171.1710853552504,70.53233500883107 171.2322940042941,70.43272079388771 172.1371175119566,70.5012056029318 172.15840747684706,70.61638424006742 172.24356733639434,70.64128766983595 173.37991921220964,70.65373937679942 174.3113551759743,70.57280318720223 175.2481136309798,70.34244511996803 175.98527866516088,70.07472942201821 176.03584233178117,70.00313062436908 175.98261741954775,69.8381414265532 176.1529371386423,69.7696550724122 176.25406447186833,69.85993250577485 176.62397761175816,69.6606991800636 176.61865512054646,69.56730809368128 176.68784750642953,69.49259501089364 177.38775510205596,68.98205052810408 176.72510494496964,69.45835145114324 176.63196134859754,69.55174288376838 176.62131636614504,69.66692524193786 176.39244924361992,69.79144620240731 176.23277450696332,69.866158525434 176.1476146474306,69.76031601174873 175.98527866516088,69.84125443886114 175.94802122662077,69.94398365996494 175.50625445523474,70.17123187330435 175.23746864854184,70.22726540928488 175.00327903477591,70.32376735971229 174.95803785941098,70.38913946868706 174.44441745652875,70.52922206972653 173.60878633473476,70.64128766983595 172.96210365131265,70.64440059706976 172.1983261610003,70.61327130985956 172.12913377513178,70.47630205446876 171.37600126727193,70.42960784423485 171.21366528501676,70.42960784423485 171.1604403727979,70.5229961905261 170.92625075904652,70.52922206972653 170.82512342583505,70.44828553723164 169.81118884812167,70.44828553723164 169.24168228740746,70.5105444281653 168.96491274388973,70.58214198969654 168.4459698497958,70.58214198969654 168.08670169232937,70.69109446605216 167.8924307627458,70.81872399613349 167.77267471025698,70.77203032990656 167.4613089737977,70.80938526882346 167.10204081633128,71.0179494718941" stroke="#ff9000" stroke-dasharray="none" stroke-linecap="round" stroke-linejoin="round" stroke-width="0.5"><title>2026-02-18 20.3km</title><desc>1771394553000</desc></polyline><polyline fill="none" opacity="1" points="46.693877551020705,83.51261313195391 47.6228739197104,83.55816250728276 47.66459531351575,83.69155671793669 47.7563823798846,83.71433128137505 49.20550545801234,83.72083829638723 49.93702056267648,83.63624699357206 50.94667829273385,83.39223231487631 51.63090915110661,83.14170856141209 51.71157051247428,83.05386208609343 51.658723413653206,82.88467557390322 51.83117184137518,82.80984278088545 51.93686603900278,82.91395792154617 52.2984514519776,82.72199535644359 52.326265714509645,82.59185056210845 52.39023851834645,82.52027069017277 52.63778545492096,82.4617052163303 53.30254632951983,82.03872903401134 53.57790752861183,81.79144795236061 53.761481661349535,81.79144795236061 54.11194136929407,81.56043356412738 54.2843897970306,81.30989486909311 54.25379410824098,81.22529692607532 54.409553978432086,81.24156577937356 54.72663657134399,80.9357098954406 54.81842363771284,81.00729346045227 54.899084999080515,80.95197890214695 54.95193209788704,80.90642566167298 54.95471352413006,80.83158804848063 55.28292182205769,80.57453572724626 55.38583459344227,80.56152036261665 56.78489199899195,79.32828953984972 56.859990507829934,79.37384512140488 56.979591836745385,79.22416224253357 56.92118188540917,79.13630456075589 56.80158055652282,79.29249582122793 56.70423063763883,79.2859878679028 56.37880376596877,79.59511412756001 56.28145384708478,79.5495588742815 56.37880376596877,79.59186018313994 56.47893511109578,79.52352727063226 56.520656504901126,79.58209834780246 56.03668833678239,80.03439345918378 55.50821734860074,80.46390495203013 54.9602763766452,80.82833423507873 54.95193209788704,80.9096794668094 54.83233076898614,81.01380104901 54.7210737188434,80.95197890214695 54.53193673360511,81.15371386920378 54.11194136929407,81.45956758203465 54.1230670743098,81.55717982794158 52.676725422468735,82.55931427736505 52.56824979856901,82.53979248997348 52.551561241052696,82.47146613638688 51.8756746614381,82.59835781491347 50.771448438754305,83.02132629074185" stroke="#ff7e00" stroke-dasharray="none" stroke-linecap="round" stroke-linejoin="round" stroke-width="0.5"><title>2026-02-08 23.1km</title><desc>1770528486000</desc></polyline><polyline fill="none" opacity="1" points="51.410818435571855,99.42045332544149 51.653082729284506,99.27880019815893 51.97154305086224,99.14285714285779 52.05750780024755,99.35876590168391 52.11514325721873,99.66148784292272 52.49123903576765,100.4576631513346 52.53617515476435,100.6986745185759 52.59478748388938,100.83916681525534 52.67489100035891,101.1429894352159 52.74131830670012,101.50048405543112 52.97674449535043,102.06696887511862 52.98651321687066,102.12521462208406 52.96795264598404,102.15605047865029 52.91813216622904,102.17546560244773 52.7725782155685,102.3182227942807 52.641677347190125,102.35134219322299 52.647538580102264,102.40387620401452 52.67489100035891,102.42900107540663 52.911294061159424,102.44042145217827 53.0363336966293,102.40045008066318 53.12132157385713,102.34334786484214 53.29715856123585,102.1686132097966 53.40363762580455,102.01671739012363 53.47397242075749,101.84426165276909 53.50034796886757,101.73005103991909 53.469088059999194,101.94590808272551 53.43294379037252,102.07724755916479 53.245384337169526,102.35020014667498 53.34111780807871,102.51236954828619 53.37726207770538,102.53178403182483 53.421221324544604,102.52036375161333 53.64004068661234,102.2040171917115 53.8285770119619,101.98131279443623 54.00246025503293,101.66723468818327 54.00929836009891,101.62840257895914 53.991714661358856,101.58728607587364 53.80024771955141,101.44337708264811 53.7846177651154,101.40454416871307 54.00343712718677,101.25263760540292 54.09135562087249,101.1429894352159 54.11480055252105,101.1498424784586 54.227140850009164,101.29832401448402 54.10307808669677,101.54845367926282 53.98780717275076,101.73690371073917 53.97413096262244,101.80314597123834 53.93017171577594,101.8750983112277 53.8930505740027,101.90136650641944 53.85202194361045,102.00986489678598 53.645901919524476,102.32050689401694 53.56286778659705,102.43014311362549 53.48276427012752,102.48267674128692 53.4397818954385,102.55462455603174 53.27957486249579,102.6779625524714 53.10862223587901,102.75790309452441 52.983582600412774,102.77960113960762 52.93766960926587,102.58431716531868 52.75011015607015,102.62657189171114 52.69638218770342,102.48838690281173 52.106351407848706,102.53635214052883 51.81231289007701,102.61515171168503 51.69508823182696,102.68024657616661 51.532927454580204,102.73963102276684 51.653082729284506,103.05938781799341 51.64917524068005,103.08451116528977 51.551488025466824,103.0810852577315 51.17832286337216,103.01370885508823 51.03374578486546,103.04568414939604 51.01909270259057,103.06623964577284 50.99955525954283,103.32546393902521 50.94973477978783,103.42938030188816 50.61369075947732,103.70344064240544 50.32942096322222,103.84161009583568 50.328444091072015,103.86216407848497 50.41440884045369,103.98091965741878 50.41831632905814,104.03230387851727 50.337235940438404,104.19558989305006 50.173121418887604,104.65346269472684 50.1535839758435,104.82815718140046 50.208288816364075,105.1958056380181 50.33332845183031,105.61367659277767 50.31476788094005,105.74839657305984 50.26397052903121,105.91051500227059 50.25615555181503,106.04523128473284 50.290346077137656,106.15939631215406 50.46813680881678,106.48704324852952 50.478882402490854,106.56581402853317 50.46813680881678,106.68910627168316 50.425154434124124,106.7838576887134 50.28155422776763,106.95965932414401 49.91620404289279,107.50416963749649 49.616304292205314,107.8431905171783 49.53327015927425,108.01440914641898 49.44632853774601,108.41505015176335 49.44632853774601,108.50407947190797 49.49517214534717,108.78143535102845 49.63681860739598,109.32927792962619 49.67784723778459,109.42857142857156" stroke="red" stroke-dasharray="none" stroke-linecap="round" stroke-linejoin="round" stroke-width="0.5"><title>2025-11-30 42.8km</title><desc>1764458479000</desc></polyline><polyline fill="none" opacity="1" points="90.95455535431392,107.34162705519702 89.87112304428592,100.5590151293436 87.06694530043751,99.14285714284051 84.96381199266762,101.52796368970303 86.04724430269562,108.01243127818452 88.91515335883014,109.42857142857974 90.95455535431392,107.04349164006999 89.80739173176698,100.40994600171689 86.93948267563246,99.21739184466423 84.96381199266762,101.45342923240969 86.11097561498173,108.0869650413515 88.78769073425792,109.42857142857974 90.95455535431392,107.04349164006999 89.87112304428592,100.5590151293436 87.13067661272362,99.14285714284051 84.96381199266762,101.52796368970303 85.98351299040951,107.86336372827645 88.78769073425792,109.42857142857974 90.95455535431392,107.04349164006999 89.87112304428592,100.5590151293436 87.06694530043751,99.14285714284051 84.96381199266762,101.37889476737473 85.98351299040951,107.86336372827645" stroke="#4dd2ff" stroke-dasharray="none" stroke-linecap="round" stroke-linejoin="round" stroke-width="0.5"><title>2025-11-26 8.7km</title><desc>1764155703000</desc></polyline><polyline fill="none" opacity="1" points="149.605212461036,105.5873219250334 148.95265243472386,105.64807854121591 148.03170078468975,105.60810711451632 148.00538788040285,105.58412420068362 147.99354707347084,105.45621459463837 147.81856625996443,105.45141796041662 147.34493398280028,105.3570838016285 146.76078750763554,105.05169234736695 146.583175403699,104.91418395190794 146.31215248954686,104.6231731119351 145.93719360345858,104.0779103378527 145.7411624665183,103.8444478681622 144.64786129340064,103.11685010937526 144.3084248281084,102.97292494417889 144.24658950302546,102.98731753099582 143.73875045029126,102.92175117564875 143.191442041134,102.93134627229301 143.0204081632619,102.955333983522 143.11908155434503,103.16482481730964 143.15591962033795,103.19360955875618 143.53877237771667,103.03049519771412 143.54140366813954,102.955333983522 143.55982270114328,102.93774299952747 143.73348786943825,102.92494954196445 144.38867918617325,103.00171010218946 144.68206806897797,103.13604001337808 144.979403887417,103.32633839156824 145.25042680156912,103.53742247365699 145.61354488073266,103.74050777524553 145.74247811172972,103.84764601195002 145.90956505396025,104.03473608127479 146.36477829812065,104.71111662138082 146.62790734098962,104.96854790654379 146.95813428978727,105.1907982272287 147.37124688708718,105.36827602503672 147.80014722696797,105.44662132446501 147.9856532021804,105.45781347232332 148.0027565899727,105.47859886472725 148.00012529954256,105.59051964861283 148.01985997775773,105.60970597389496 148.97501840336918,105.64967739577969 149.61968455839815,105.58092647556259 149.66573214089294,105.53136163763702 149.6381035914019,105.43223140619193 149.68941375475697,105.4130448242222 149.89202311776899,105.38106712593799 150.28145410121215,105.37467157703031 150.99058687173965,105.24995775700063 151.64709383369336,105.06448375355103 151.93258884520765,104.9477617149023 152.37596128243604,104.80865328625532 153.17192663711467,104.59439147310786 153.3061224489793,104.51923912172333" stroke="red" stroke-dasharray="none" stroke-linecap="round" stroke-linejoin="round" stroke-width="0.5"><title>2025-11-16 42.7km</title><desc>1763252375000</desc></polyline><polyline fill="none" opacity="1" points="177.3877551020123,106.17881983413827 168.10204081633128,103.56188271747669 167.10204081633128,102.39260873728199" stroke="#ff5200" stroke-dasharray="none" stroke-linecap="round" stroke-linejoin="round" stroke-width="0.5"><title>2025-11-09 30.0km</title><desc>1762665792000</desc></polyline><polyline fill="none" opacity="1" points="86.97855413251091,111.09360307517636 86.95751559648488,111.2658363292685 87.07673396736209,111.51734949439378 87.00426789879566,112.02856979325225 87.0323192801734,112.20899807146634 87.09777250341722,112.30194548055806 87.0580330464436,112.62999248663255 87.25906794637558,113.52116582393865 87.1959523382684,113.86833239285806 87.25673033126805,114.16082344049573 87.48581661257776,114.6364560181446 87.43906431026699,114.7375951501017 87.49984230328118,114.93167183519836 87.87386072175286,115.8118323091785 87.86217264618608,115.9211669207707 87.97437817172613,116.23550135248115 88.04216901007749,116.76029466642103 88.10294700307713,116.86689200620822 88.34372135996819,117.04182002135894 88.36709751113085,117.2030807365154 88.31099474834627,117.40533851623513 88.54943149012979,117.55019784521028 88.54241864479263,117.62672697427297 88.43255073436012,117.71965489780632 88.44190119483392,117.90004344270528 88.51202964827826,118.13509329413682 88.52371772385959,118.32367825748042 88.57514525641454,118.42753605558755 88.6335856342921,118.93588662665752 88.74812877495424,119.04247499474695 88.77618015633198,119.33764048973171 88.85565907026466,119.66286523464987 88.91409944815678,119.74758697547259 88.83929576445371,119.96075657911206 88.90708660280507,120.10286867174727 88.88838568188658,120.26137739200203 88.98422790161567,120.44721396441673 89.02864258881891,120.85714285714312 88.98422790161567,120.44448108331744 88.92812513884564,120.37889185040694 88.88838568188658,120.23404837163434 88.90708660280507,120.07827240392362 88.84397099468333,119.94982484732463 88.90942421792715,119.74212106509731 88.78553061679122,119.36770345289915 88.74812877495424,119.05340711021563 88.6335856342921,118.93588662665752 88.57514525641454,118.44393461714935 88.44657642504899,117.93830751766654 88.42553788900841,117.73332074073733 88.54475625990017,117.56933014871356 88.30631951811665,117.41080492074252 88.36242228088668,117.21128040701115 88.34839659021236,117.05275298298693 88.14502407514374,116.9078908659867 88.04918185541464,116.78489409155009 87.96736532637442,116.23550135248115 87.8574974159419,115.9129668409496 87.86451026129362,115.81456568010435 87.5045175335108,114.97814068434673 87.44140192538907,114.73486166525072 87.41101292888925,114.7567295359404 87.38997439284867,114.68839237859174 87.36426062657847,114.71846075009489 87.40867531378171,114.66105746505309 87.40166246843,114.46424523392125 87.24270464057918,114.1252873216963 87.18192664756498,113.79999288583349 87.25205510102387,113.55943638313693 87.04634497086226,112.52884510395597 87.10011011852475,112.30741296478664 87.00193028367357,112.11331656571929 87.07907158248418,111.53922008867266 86.9551779813628,111.27677173519442 86.97387890229584,111.0908692047451 86.91310090928164,110.9131670057559 86.88972475813353,110.57142857142935" stroke="#ff8100" stroke-dasharray="none" stroke-linecap="round" stroke-linejoin="round" stroke-width="0.5"><title>2025-10-27 22.6km</title><desc>1761522564000</desc></polyline><polyline fill="none" opacity="1" points="124.76320711080916,120.85714285715949 126.7459691693075,118.97385460173246 126.00243339734152,112.09256505756639 123.21417425270192,110.57142857142026 121.41729613696225,112.8169145786087 121.91298665152863,119.26359159324784 124.70124579616822,120.85714285715949 126.7459691693075,118.82898606004892" stroke="#4dd2ff" stroke-dasharray="none" stroke-linecap="round" stroke-linejoin="round" stroke-width="0.5"><title>2025-10-23 8.3km</title><desc>1761191597000</desc></polyline><polyline fill="none" opacity="1" points="160.72110185815836,110.57670383849108 160.87011205413728,110.69275957290301 160.9468748823565,110.92487023421927 160.63079264844419,111.14115419961308 160.37341140082572,111.44711528577682 160.73916370005463,112.1276082357981 161.19522520902683,114.0371591922376 161.23134889290668,115.07102930765905 161.17264790661284,115.77784658535893 160.76625646298635,117.48155168581434 160.79334922588896,117.7294544064971 160.64885449036956,118.10394342244035 160.36438047984848,118.12504131181777 160.0076591015677,118.90565696768317 160.19279298145557,119.07971150161393 160.02120548303355,119.4067214137176 159.17681437241845,120.8571428571413 160.18376206044923,119.09026024179548 159.9850817991537,118.90038257841297 160.346318637894,118.14086472301278 160.3959887032397,118.09339447442471 160.56757620166172,118.14613919229669 160.66240087183542,118.06702209465584 161.0462150130188,116.44245671165481 161.1861942880787,115.49301097265197 161.18167882756097,114.03188428995782 160.72561731861788,112.16453394514247 160.346318637894,111.43128975824948 160.65336995085818,111.0936773116664 160.9242975799425,110.91959500386656 160.8520502121828,110.68220906271017 160.68949363473803,110.57142857142753 160.26955580967478,110.7349615914136" stroke="#4dd2ff" stroke-dasharray="none" stroke-linecap="round" stroke-linejoin="round" stroke-width="0.5"><title>2025-10-19 14.0km</title><desc>1760852519000</desc></polyline><polyline fill="none" opacity="1" points="112.71812972360931,123.11654072369492 112.4480354241532,123.29615561656101 112.18625171852182,123.59713035296227 112.5269860655535,124.20392827619435 112.95913694467163,126.09708641140242 112.9923793199996,126.87859823045073 112.83863333413319,128.17461655229272 112.46465661183174,129.703580046531 112.36492948587693,129.78124033004497 112.22780468768906,129.71814135965906 112.17378582779202,129.77153280176208 111.85382796534395,130.46561591816499 112.02003984195471,130.65005582682352 111.08925333306252,132.28571428571377 111.80396440239565,131.0723233635108 111.96186568513804,130.68888518718086 112.190407015456,130.49959174629112 112.0491269203485,130.64520215448647 111.87044915302249,130.54327491708318 111.84967266845342,130.46561591816499 112.20287290620035,129.71814135965906 112.36908478278201,129.76667903686393 112.46465661183174,129.69872627446966 112.80954625575396,128.25227941352568 112.97575813233561,126.95140921532584 112.94667105392728,126.05825318014104 112.51867547171423,124.24276307104083 112.18209642161673,123.59227593734613 112.43972483032849,123.31557340084692 112.72644031746313,123.12624965474242 112.64333437915775,122.91265269901487 112.48958839332045,122.7912903509532 112.10314578023099,122.95634306601642 111.54633599369845,122.26700133171835 111.47154064921779,122.0" stroke="#4dd2ff" stroke-dasharray="none" stroke-linecap="round" stroke-linejoin="round" stroke-width="0.5"><title>2025-10-07 14.0km</title><desc>1759810688000</desc></polyline><polyline fill="none" opacity="1" points="124.8606010597432,155.14285714285506 124.24200850154739,153.72323912255524 124.8606010597432,151.74111763839028 123.60050510778092,148.04468750493834 123.30266424641013,144.85714285714494" stroke="#4dd2ff" stroke-dasharray="none" stroke-linecap="round" stroke-linejoin="round" stroke-width="0.5"><title>2025-07-20 13.2km</title><desc>1752965179000</desc></polyline><polyline fill="none" opacity="1" points="39.59678153085406,156.28571428571013 39.890891320159426,156.47183012307505 39.98280062933918,156.81542725178588 39.621290679933736,157.0086998726474 39.198507857799996,157.47398355545738 39.707072701858124,158.45464795354928 40.28303770592902,160.78814279082144 40.39332887693308,162.35569092617516 40.172746534924954,164.2381324281887 39.74383642553585,165.66245463457744 39.76834557461552,166.0417916933584 39.504872221674304,166.57142857142753" stroke="#4dd2ff" stroke-dasharray="none" stroke-linecap="round" stroke-linejoin="round" stroke-width="0.5"><title>2025-06-29 12.0km</title><desc>1751152499000</desc></polyline><polyline fill="none" opacity="1" points="93.10204081631673,157.81366364015776 92.74407815698942,158.3301201945833 92.52320757995767,158.89999593934408 91.93675811678986,159.91952002665857 91.51024941630021,160.44930664256754 91.48740073591762,160.9078560647904 91.365541107225,160.98799040287122 91.15990298378165,160.96127897379483 91.06089203544252,161.01470181502737 90.66865635555587,161.48660063673742 90.23453142827202,162.2211496044656 89.34343289333628,162.88891027883074 89.16064345027553,163.16046325899515 88.77983211056562,163.03581620674595 88.08675547226449,163.39194966331706 87.78972262729076,163.4898858360939 87.71736847273132,163.41420790440316 87.54600336986186,163.47207927615818 87.44318430815474,163.5210472978688 87.42033562777215,163.63233804462288 86.79961314403045,163.91278942258577 86.5635101134103,163.903886232918 86.01894989761058,164.0864012448037 85.744765733034,164.0997559707248 85.23067042439652,164.26446390904312 85.01741607417352,164.46478350680263 84.57186680669838,164.50929884362995 84.16439867320878,164.82535638264744 83.8940226220002,164.89658028944905 83.72265751914529,164.8431623706274 83.62364657080616,165.00786740279364 83.4675139215251,164.92774071081658 83.29995693205274,165.0034159239076 83.09431880860939,164.93664368411555 82.96103483971092,165.04347921698718 82.8163265306066,164.99896444454498" stroke="#4dd2ff" stroke-dasharray="none" stroke-linecap="round" stroke-linejoin="round" stroke-width="0.5"><title>2025-06-22 15.1km</title><desc>1750548259000</desc></polyline><polyline fill="none" opacity="1" points="189.4285714281723,175.92608577449573 188.17060637194663,171.60363574605435 185.43268242524937,169.78819993976504 179.1428571427241,172.90037314675283" stroke="#4dd2ff" stroke-dasharray="none" stroke-linecap="round" stroke-linejoin="round" stroke-width="0.5"><title>2025-05-11 9.2km</title><desc>1746938990000</desc></polyline><polyline fill="none" opacity="1" points="111.08774045979953,179.14285714285506 111.03704493498662,179.53416382350042 111.29559211159358,180.10333229763637 111.14857508958085,181.2535092717444 111.21447927187546,181.57365742405455 111.34628763640649,181.7574453515408 111.26010524420417,182.45701968927824 111.69101720521576,184.43712342717117 111.54400018323213,185.11295119986244 111.68087810024736,185.7532015707111 112.08644229886704,186.57721674451386 112.01039901163313,186.99811190611945 112.10672050880385,187.0040399844038 112.15234648116166,187.32415528088677 113.04458771806094,189.42857142857247 112.34498947544489,187.8754606716211 112.15234648116166,187.1937381586249 112.08644229886704,187.24116260182564 112.03574677405413,187.0099680620733 111.96477303930442,186.98625574765902 112.07123364141444,187.0099680620733 112.25373753078748,186.76098826022644 111.92928617191501,186.87955020859954 111.79240825487068,186.8321254593502 112.03574677405413,186.59500111109082 111.65553033785545,185.76505799007282 111.54400018323213,185.14259258224774 111.68087810024736,184.40748167159472 111.20940971939126,182.2910197894671 111.32093987398548,181.81673165115717 111.17392285203096,181.53808549747555 111.11815777470474,181.1823649894286" stroke="#4dd2ff" stroke-dasharray="none" stroke-linecap="round" stroke-linejoin="round" stroke-width="0.5"><title>2025-04-13 17.0km</title><desc>1744513358000</desc></polyline><polyline fill="none" opacity="1" points="121.53158771130256,179.14285714285506 123.92952470912132,182.1533653250517 124.25163564912509,182.25789603815065 125.52218435681425,181.4843674564181 126.25588149798568,181.92339756226283 126.54220233368687,183.03142160267453 125.32533878239337,183.76313219763688 124.30532080563717,184.97567523973703 125.80850519239902,187.73522832077288 126.2021963413572,189.4285714285652 126.02324581914581,188.13243355762097 124.30532080563717,184.97567523973703 125.59376456576865,183.4913542918075 126.63167759473436,183.01051554603328" stroke="#4dd2ff" stroke-dasharray="none" stroke-linecap="round" stroke-linejoin="round" stroke-width="0.5"><title>2025-04-12 10.0km</title><desc>1744429372000</desc></polyline><polyline fill="none" opacity="1" points="15.539807980298065,220.70386956442962 16.667202569311485,223.71428571428987 16.4793034712784,222.49130782752763 14.009772466379218,217.85021779689123 15.78139253507834,215.90595585861593 17.41879896237515,215.05925717164064 16.82825893932022,213.42857142857974" stroke="#4dd2ff" stroke-dasharray="none" stroke-linecap="round" stroke-linejoin="round" stroke-width="0.5"><title>2025-02-01 10.0km</title><desc>1738384413000</desc></polyline><polyline fill="none" opacity="1" points="22.61224489795859,216.42384382915043 22.727434056607308,216.96274501239532 23.032346535415854,217.42239295585023 23.750584818888456,217.29559380508 25.288698878721334,216.70914493886085 24.631443091027904,216.7329199822707 24.292651447933167,217.09746970201377 23.84544647898292,217.27181894041132 24.02161813341081,217.74731479932234 25.905299669248052,217.43824283459253 27.01653625877225,217.1053946762113 26.833588771463837,216.2336424852183 26.46769379687612,216.2336424852183 26.074695490824524,216.51101928359276 25.464870533178328,216.69329490573 26.677744615619304,216.2019422142548 26.9284504315292,216.5030942464873 27.12494958456955,217.06576979685633 28.120997015415924,216.65366980825638 28.812131967424648,216.66159482943476 29.110268613381777,216.47931913008506 30.60772767601884,216.09891624086595 30.783899330475833,215.95626465901296 30.628055174660403,215.51245799908065 30.68903767041047,215.37773045664653 32.00354924579733,215.29055368233094 32.34234088892117,215.42528138167108 32.82342502218671,215.40150592294958 32.89795918366872,215.64718529899255 32.681132532074116,216.57441955035029 32.755666693585226,217.61259127928497 31.657981769763865,218.03261086493876 31.746067597006913,218.6031997342361 31.596999274013797,218.7299966701321 31.22432846657466,218.9281164525164 30.75002016616054,218.91226688922325 29.828506896825274,219.1658594992623 29.571025248034857,218.71414706489304 28.14132451399928,219.15000998633332 27.816084536578273,219.04698807028035 27.240138743218267,219.2688812517299 27.253690408921102,219.3956770601435 27.15882874885574,219.30058022395679 27.00298459304031,219.6809668438218 26.77260627571377,219.79983726613864 26.73195127848885,219.68889154451608 26.752278777130414,219.79983726613864 26.4609179639956,219.6968162443518 26.156005485157948,219.3956770601435 25.281923045869917,219.53039737123618 25.105751391442027,219.67304214227624 26.142453819455113,220.47343276084575 26.77260627571377,220.35456340805104 27.10462208595709,220.8379642658474 27.545051222026814,221.0440030270256 27.870291199476924,220.97268198154052 28.10744534965488,220.7507938500421 28.41913366134395,220.8379642658474 28.486891989974538,220.6240003367784 29.022182786167832,220.49720660875028 29.117044446233194,220.88551172260486 29.896265225455863,220.6636233327299 30.180850205710158,221.85230346052413" stroke="#4dd2ff" stroke-dasharray="none" stroke-linecap="round" stroke-linejoin="round" stroke-width="0.5"><title>2025-01-25 14.8km</title><desc>1737764447000</desc></polyline><polyline fill="none" opacity="1" points="177.3877551020705,217.9205493649206 176.5354439408693,218.00869029794558 175.2656742516847,217.78494769278768 175.02215677703498,217.83918839606486 174.5641120033397,218.27311236965033 174.46554540644865,218.55109337127215 174.54671789798886,218.80873322297703 174.45394933622447,218.96467263006343 174.48873754692613,219.18841111662186 174.29160435314407,219.35790945007466 173.5958401398966,219.31044996189303 173.21316982264398,219.1951910585558 173.07981501508038,219.0663720389639 172.51160757426987,219.07993194795563 172.3144743805169,219.2358706951709 171.8390355014708,219.2697703726226 171.48535535973497,219.2697703726226 171.35779858729802,219.1612913416684 170.0880288981425,219.21553088010114 169.40965879024589,219.1138317078803 168.75448082276853,219.2358706951709 168.38340657571098,219.1138317078803 168.05871660952107,219.24943056829215 167.10204081633128,219.05281212709815" stroke="#4dd2ff" stroke-dasharray="none" stroke-linecap="round" stroke-linejoin="round" stroke-width="0.5"><title>2024-10-28 17.0km</title><desc>1730088256000</desc></polyline><polyline fill="none" opacity="1" points="189.42857142863795,216.3564033783332 187.5873015873367,216.8761343039805 182.1481481482042,219.82125440402888 179.1428571428405,220.7864537645073" stroke="#4dd2ff" stroke-dasharray="none" stroke-linecap="round" stroke-linejoin="round" stroke-width="0.5"><title>2024-10-25 14.0km</title><desc>1729815581000</desc></polyline><polyline fill="none" opacity="1" points="155.11381762348174,239.04998723150857 155.06122448979295,239.12391437428232 155.17392406194995,239.08042783520432 155.19646397639008,239.28916281919373 155.28286698170996,239.25002508737452 155.39180990145542,239.29351145385226 155.55710260728665,239.49789678355228 155.84636484249495,239.57617175731502 156.31594639315153,239.38483267943957 156.33097300278314,239.57617175731502 156.4061060508975,239.54138289779075 156.4737257941888,239.61530919042343 156.3610262220318,239.78490431968748 156.45118587976322,239.80229865387446 156.39483609367744,240.0458185888674 156.54885884230316,240.3458680290205 156.8381210774969,240.51546025891003 158.18300263860147,239.68053816595784 158.22808246746717,239.7631613920239 157.9125236654072,240.18932075787598 157.7585009168106,240.30238273344366 157.72093439273885,240.49806621502648 157.64955799703603,240.56329384309356 157.66458460665308,241.01988445194365 157.9951700183301,241.9373994009402 157.85993053174752,242.12872705042173 157.9951700183301,241.9634895853851 158.13416615732422,242.04610839775341 158.27316229634744,241.85043200438304 158.2957022107439,242.23308722549336 158.61126101280388,242.31570551671757 159.06581595385796,242.8114119102247 159.309998360186,242.8983773513828 159.56545072374865,243.28102319034224 159.7082035151543,243.3375501261471 159.8997927878372,243.5288715080169 160.23037819949968,243.4679966157746 160.32805116203963,243.51147869050328 160.65487992129056,243.80715562563637 160.99297863776155,243.55061251994994 161.29351083018992,243.6245318778092 161.46631684084423,243.42886271067982 162.12748766418372,243.47669303424846 162.26272715075174,243.41581806769318 162.67595891532255,243.50713048501348 163.04411085105676,243.39407698719515 163.1605670756253,243.52017510014412 163.23194347132812,243.76802203107218 163.62263532147335,243.39407698719515 163.7315782412188,243.4506037734791 163.9006275994616,243.18101381310044 164.06216365289583,243.08535245067833 164.03586708605872,242.7722774039794 164.47915206987818,242.75053599613602 164.78719756711507,242.81576018647684 164.88487052965502,242.31570551671757 164.78344091473264,242.23308722549336 164.84354735320085,242.1809071698117 164.83227739598078,242.06350181158996 164.99381344941503,242.08524356893395 165.09148641195497,241.9373994009402 165.32815551347448,241.83738687962978 165.34693877550308,241.7156321899747" stroke="#4dd2ff" stroke-dasharray="none" stroke-linecap="round" stroke-linejoin="round" stroke-width="0.5"><title>2024-05-25 14.8km</title><desc>1716598951000</desc></polyline><polyline fill="none" opacity="1" points="68.89020924805664,250.61112888524076 66.02583311824128,249.08839686511783 59.58098682528362,251.67703938105842 58.79979333537631,255.02703351335367 61.72926892293617,256.62588884914294 68.04391630063765,254.03726414375706 68.95530870580114,250.76340190978954 66.02583311824128,249.08839686511783 59.646086282795295,251.6009029696579 58.79979333537631,255.02703351335367 61.66416946542449,256.62588884914294 68.04391630063765,254.03726414375706 68.95530870580114,250.76340190978954 65.96073366049677,249.08839686511783 59.646086282795295,251.6009029696579 58.79979333537631,255.02703351335367 61.66416946542449,256.62588884914294 68.04391630063765,254.11340029764688 69.02040816331282,250.9918113864842 66.02583311824128,249.08839686511783 59.646086282795295,251.67703938105842 58.7346938776318,254.95089745649602 61.72926892293617,256.62588884914294 68.04391630063765,254.11340029764688 69.02040816331282,250.9918113864842 66.09093257552013,249.08839686511783 59.646086282795295,251.6009029696579 58.7346938776318,254.87476139125647 61.66416946542449,256.62588884914294 68.04391630063765,254.11340029764688 68.95530870580114,250.76340190978954 66.02583311824128,249.08839686511783 59.71118574030697,251.6009029696579 58.79979333537631,255.02703351335367 61.599070007679984,256.62588884914294 68.04391630063765,254.03726414375706 68.89020924805664,250.68726540153148" stroke="#4dd2ff" stroke-dasharray="none" stroke-linecap="round" stroke-linejoin="round" stroke-width="0.5"><title>2024-05-07 10.0km</title><desc>1715083186000</desc></polyline><polyline fill="none" opacity="1" points="86.39395221532322,251.91433286646497 88.5216887287097,255.80003281499376 88.96191007632297,258.0 88.76625614415389,256.171457099088 86.39395221532322,251.88576133706374 87.88581344881095,250.17146405755193 89.52441513165832,249.25716774145258 89.03528030100279,247.71428571428987" stroke="#4dd2ff" stroke-dasharray="none" stroke-linecap="round" stroke-linejoin="round" stroke-width="0.5"><title>2024-04-27 10.0km</title><desc>1714177464000</desc></polyline><polyline fill="none" opacity="1" points="104.60536124743521,247.71428571431898 95.39463875256479,258.0" stroke="#4dd2ff" stroke-dasharray="none" stroke-linecap="round" stroke-linejoin="round" stroke-width="0.5"><title>2024-04-20 9.0km</title><desc>1713573009000</desc></polyline><polyline fill="none" opacity="1" points="111.67164839152247,247.71428571426077 109.64122474938631,249.65635556011694 110.07192067336291,256.34566483524395 112.47151225036941,258.0 114.50193589320406,256.12988169147866 114.00971197965555,249.15285650250735 111.73317638086155,247.71428571426077 109.57969676004723,249.65635556011694 110.01039268448949,256.34566483524395 112.40998426149599,258.0 114.50193589320406,256.12988169147866 114.00971197965555,249.22478496207623 111.61012040218338,247.71428571426077 109.57969676004723,249.65635556011694 110.07192067336291,256.48952022677986 112.71762420726009,257.9280724677956 114.50193589320406,256.0579539615428 114.00971197965555,249.15285650250735 111.73317638086155,247.71428571426077 109.57969676004723,249.58442714618286 110.07192067336291,256.4175925348536 112.34845627215691,258.0 114.50193589320406,256.12988169147866 114.00971197965555,249.22478496207623 111.73317638086155,247.71428571426077 109.57969676004723,249.65635556011694 110.07192067336291,256.48952022677986 112.34845627215691,258.0 114.50193589320406,256.2018094137311 114.00971197965555,249.22478496207623 111.67164839152247,247.71428571426077 109.57969676004723,249.65635556011694 110.07192067336291,256.4175925348536 112.47151225036941,258.0 114.50193589320406,256.12988169147866 114.00971197965555,249.15285650250735 111.73317638086155,247.71428571426077 109.57969676004723,249.65635556011694 110.07192067336291,256.5614479109645 112.71762420726009,257.9280724677956 114.50193589320406,256.0579539615428 114.00971197965555,249.15285650250735 111.67164839152247,247.71428571426077" stroke="#4dd2ff" stroke-dasharray="none" stroke-linecap="round" stroke-linejoin="round" stroke-width="0.5"><title>2024-04-18 10.1km</title><desc>1713436846000</desc></polyline><polyline fill="none" opacity="1" points="125.07568269129843,247.71428571428987 122.39783360878937,250.74788489795174 125.76543169748038,258.0" stroke="#4dd2ff" stroke-dasharray="none" stroke-linecap="round" stroke-linejoin="round" stroke-width="0.5"><title>2024-04-14 10.0km</title><desc>1713054435000</desc></polyline><polyline fill="none" opacity="1" points="130.97959183674539,253.8396115189098 131.3375463821867,253.4466289825723 131.45442949907738,253.6431204898763 132.7401437847875,254.04464512629784 133.9674165120814,253.73709451993636 134.85865027830005,253.8396115189098 136.45848794063204,253.43808586271916 136.9552411873592,253.59186188189778 137.67115027830005,253.60040498548187 138.31400742114056,253.1817918464949 138.69387755103526,253.25868013677973 139.307513914624,253.10490348294115 139.4974489795859,252.75463334459346 141.2653061224555,251.66964058799203" stroke="#4dd2ff" stroke-dasharray="none" stroke-linecap="round" stroke-linejoin="round" stroke-width="0.5"><title>2024-04-07 10.0km</title><desc>1712456610000</desc></polyline><polyline fill="none" opacity="1" points="185.97744360915385,249.05834246618906 179.61654135352,251.907451806881 179.2105263157282,255.38968181266682 182.52631578943692,256.4976606860291 188.8195488722995,253.41114402614767 189.36090225563385,251.19517548958538 188.00751879694872,249.3749107067124 185.57142857112922,249.21662660315633 179.14285714295693,252.6197274455917 179.41353383474052,255.70624737243634 182.32330827089027,256.5768019712996 188.61654135352,253.72771042381646 189.42857142887078,251.7491682394175 188.7518796992954,249.92890480539063 185.90977443614975,249.13748453895096 179.54887218074873,252.0657353407587 179.2781954887323,255.4688232151675 182.59398496244103,256.4976606860291 188.61654135352,253.72771042381646 188.95488721807487,250.16633072204422 186.2481203007046,249.05834246618906 179.41353383474052,252.30316057882737 179.14285714295693,255.38968181266682 182.25563909788616,256.6559432480717 188.7518796992954,253.56942724174587 188.7518796992954,250.008046786068 185.97744360915385,249.13748453895096 179.34586466196924,252.30316057882737 179.2105263157282,255.38968181266682 182.25563909788616,256.6559432480717 188.54887218028307,253.8068520023371 188.95488721807487,250.24547267745947 186.2481203007046,249.05834246618906 179.61654135352,252.0657353407587 179.14285714295693,255.38968181266682 182.25563909788616,256.6559432480717 188.61654135352,253.72771042381646 189.02255639084615,250.32461462466745 186.1804511277005,249.05834246618906 179.61654135352,252.0657353407587 179.14285714295693,255.2313989821705 181.91729323309846,256.6559432480717 188.61654135352,253.72771042381646 188.8195488722995,250.08718875836348 185.97744360915385,249.13748453895096 179.54887218074873,252.1448770951829 179.2105263157282,255.4688232151675 182.32330827089027,256.5768019712996 188.4812030075118,253.8068520023371 189.02255639084615,250.40375656326069 186.38345864671282,249.05834246618906 179.61654135352,252.0657353407587 179.2105263157282,255.38968181266682 181.98496240610257,256.6559432480717 188.61654135352,253.72771042381646 189.02255639084615,250.32461462466745 186.11278195492923,249.05834246618906 179.34586466196924,252.30316057882737 179.2781954887323,255.54796460916987 182.18796992488205,256.6559432480717 188.68421052629128,253.6485688369139 188.88721804483794,250.08718875836348 186.11278195492923,249.05834246618906 179.54887218074873,252.0657353407587" stroke="#4dd2ff" stroke-dasharray="none" stroke-linecap="round" stroke-linejoin="round" stroke-width="0.5"><title>2024-03-26 10.6km</title><desc>1711453549000</desc></polyline><polyline fill="none" opacity="1" points="83.69008988630958,267.6014302827025 83.69958731409861,267.4570317660691 83.55712589737959,267.64586055558175 83.44315676402766,267.43481659203826 82.81632653059205,265.6798029807833 82.89230595284607,265.4798628588251 84.32641754759243,264.72453007086733 84.70631465880433,264.7356379453631 85.57058058679104,264.2913220478513 85.91248798684683,263.9469759331769 85.81751370901475,263.5804126983421 86.40635423141066,263.3582525388774 86.74826163146645,263.0250114176015 88.99915201531257,262.5695801736583 90.94612471025903,261.7920100663614 91.37350896035787,261.7475773147744 91.81039063818753,261.4143310778891 93.10204081633128,260.9255680158458" stroke="#4dd2ff" stroke-dasharray="none" stroke-linecap="round" stroke-linejoin="round" stroke-width="0.5"><title>2024-01-30 11.7km</title><desc>1706613736000</desc></polyline><polyline fill="none" opacity="1" points="98.4628345745441,259.2116826731544 98.65271971534821,259.3546277012756 98.6391564910009,259.4605126426686 98.64819864055607,259.3493334483028 98.78835195876309,259.32286217493674 99.00536354823271,259.5240434993975 99.71517228882294,259.4816896039083 100.0632950469153,259.7093413684561 100.26674341206672,259.7146355831428 100.46114962760475,259.57169158873876 100.5922607962857,259.60345695630167 100.63747154409066,259.3334506859719 100.65103476843797,259.58228004684497 101.01724182566977,259.3705104568435 101.56429187412141,259.2381540056267 101.59593939757906,259.1587399659802 101.71348734188359,259.14285714285506 101.81747206184082,259.3599219536918 101.60950262192637,260.07993503750185 101.44674392981688,260.2334658922082 101.21616911599995,260.26523083752545 101.03080505001708,260.4928790191261 100.93134140482289,260.5034672813272 100.94942570396233,260.720526159821 100.88613065701793,260.8158200026701 100.69624551621382,261.03817159333266 100.52444467457826,261.1069945034833 100.6058240206039,261.2711102898902 99.86888883134816,261.60463425353373 99.69256691489136,261.86404023616706 99.25402266118908,261.95403791436183 99.24950158639695,262.20285417805644 99.01440569781698,262.46225704396784 98.58490359361167,262.36696635231783 97.87057377828751,262.4251995744344 97.60383036619169,262.55225364087164 97.73494153484353,262.76400969779934 97.6309568148863,263.1769314185767 97.32352372980677,263.38868481888494 97.32352372980677,263.8121889180293 97.68973078703857,263.6322001160079 97.9067423765373,263.7327821737963 98.18704901292222,264.0980521487545 98.40858167718397,264.1351083733207 98.61203004230629,264.0609958966015 98.71601476226351,264.41038232110077 99.12743256732938,264.6485989323046 99.11839041777421,264.8444650700294 99.26306481074425,264.8762270738298 99.23593836207874,265.1144414565606 99.4574710263405,265.37912276757925 99.54337144715828,265.36324192857865 99.60214541928144,265.4479396779934 99.60666649407358,265.81319707223884 99.38061275504879,266.3319638393077 99.33992308203597,266.71309516346446 99.49816069935332,266.71838863353696 99.84176238268265,267.0254089352966 99.97739462609752,267.4806424507333 99.95931032695808,267.8988184086229 100.23509588857996,268.51284256633517 100.16727976690163,268.87807748349223 100.47019177718903,269.42857142857247 100.82735668486566,269.12156594035696 100.95394677872537,267.5282829269563 101.3744067333464,267.2477327999077 101.7903456131462,266.8083775387604 101.72252949146787,266.6495734786513 101.6004604723712,266.67074738259544 101.71348734188359,266.6442800012701 101.6773187436338,266.2949092494455 101.9666675296321,266.11492942077166 101.65923444452346,265.8343713317736 101.38344888290158,265.3685355421294 101.65923444452346,264.6009557012294 101.63662907059188,264.35744514162434 101.80390883752261,264.25686434559975 101.8536406600906,264.3150953575423 101.79938776273048,264.3098016319891 101.81747206184082,264.172164570311 102.13846837126766,263.62690631787336 102.2560163155722,263.54220547102886 102.48207005462609,263.5527930847529 102.67647627019323,263.40456628761603" stroke="#4dd2ff" stroke-dasharray="none" stroke-linecap="round" stroke-linejoin="round" stroke-width="0.5"><title>2024-01-27 16.6km</title><desc>1706316843000</desc></polyline><polyline fill="none" opacity="1" points="114.2705750928726,260.692769450834 111.8600250754971,259.1428571428987 109.44947505788878,261.3972738540033 110.11237631272525,267.87867943116 112.3421350789722,269.35812187060947 114.69242134597152,267.4559809882194 114.2705750928726,260.76321992464364 112.04081632685848,259.1428571428987 109.50973880826496,261.3268234473071 109.99184881197289,267.5968804989243 112.70371758169495,269.35812187060947 114.69242134597152,267.24463166616624 114.15004759212025,260.4814179847599 111.73949757451192,259.1428571428987 109.50973880826496,261.18592261109734 110.05211256211624,268.09002855198923 112.46266257972457,269.35812187060947 114.69242134597152,267.38553122163285 114.2705750928726,260.76321992464364 111.6792338239029,259.1428571428987 109.57000255864114,261.0450217454927 109.99184881197289,267.87867943116 112.64345383108594,269.35812187060947 114.69242134597152,267.24463166616624 114.15004759212025,260.692769450834 111.98055257624947,259.1428571428987 109.57000255864114,260.9745713014854 109.93158506136388,267.5968804989243 112.2818713283632,269.2876723049558 114.69242134597152,267.1741818774026 114.15004759212025,260.6223189695156 111.8600250754971,259.2133077806211 109.50973880826496,261.25637303304393 109.87132131075487,267.6673302431591 112.2818713283632,269.42857142857974 114.63215759559534,267.4559809882194 114.02952009113505,260.6223189695156 111.6792338239029,259.2837584107183 109.50973880826496,261.3972738540033 109.99184881197289,267.87867943116 112.40239882958122,269.2876723049558 114.63215759559534,267.4559809882194 114.15004759212025,260.76321992464364 111.317651321413,259.2837584107183 109.38921130727977,261.3972738540033" stroke="#4dd2ff" stroke-dasharray="none" stroke-linecap="round" stroke-linejoin="round" stroke-width="0.5"><title>2024-01-25 10.3km</title><desc>1706155972000</desc></polyline></svg>