<?xml version="1.0" encoding="utf-8" ?>
<svg baseProfile="full" height="200mm" version="1.1" viewBox="0,0,200,200" width="200mm" xmlns="http://www.w3.org/2000/svg" xmlns:ev="http://www.w3.org/2001/xml-events" xmlns:xlink="http://www.w3.org/1999/xlink"><defs /><rect fill="#1a1a1a" height="200" width="200" x="0" y="0" /><text alignment-baseline="middle" fill="#e1ed5e" style="dominant-baseline: central; font-size:9.0px; font-family:Arial;" text-anchor="middle" x="100.0" y="100.0">2025</text><line stroke="#e1ed5e" stroke-width="0.3" x1="100.0" x2="100.0" y1="15.0" y2="10.0" /><path d="M 100.0 14.0 a86.0,86.0 0 0,1 42.46469731375804,11.215312516191453" fill="none" id="id13" stroke="none" /><text fill="#e1ed5e" style="font-size:6.75px; font-family:Arial;" text-anchor="middle"><textPath startOffset="22.20632615414155" xlink:href="#id13">January</textPath></text><path d="M 108.43124777332544 80.76684994638697 l 16.074516186643518 -36.66878143886011 a61.037352595364695,61.037352595364695 0 0,0 0.9586290632094933,0.43010891729561956 l -16.70332736831979 36.38665219104796" fill="#31ff2f" stroke="none" /><path d="M 110.05341064243156 81.56283822128135 l 8.201518023084486 -15.040936852263357 a38.13168641076393,38.13168641076393 0 0,0 0.5735657704866456,0.31918873028933464 l -8.459207882643167 14.897532724413843" fill="#ffbf11" stroke="none" /><line stroke="#e1ed5e" stroke-width="0.3" x1="143.23703022742887" x2="145.7803849466894" y1="26.81831364943548" y2="22.513508569990506" /><path d="M 143.74570117128098 25.957352633546492 a86.0,86.0 0 0,1 28.547481713284135,27.462654790039103" fill="none" id="id14" stroke="none" /><text fill="#e1ed5e" style="font-size:6.75px; font-family:Arial;" text-anchor="middle"><textPath startOffset="19.985693538727396" xlink:href="#id14">February</textPath></text><path d="M 110.68208982089419 81.91981866633111 l 13.764467952115629 -23.297321096190917 a48.05967014329333,48.05967014329333 0 0,0 0.7086236648300592,0.4269378292158077 l -14.163453683163326 23.05693665751649" fill="#c1ff1e" stroke="none" /><path d="M 110.99172775467656 82.1063720568725 l 7.1215452235837855 -11.593289376799595 a34.60590919217688,34.60590919217688 0 0,0 0.5048851329156019,0.3161590239134988 l -7.320049508871651 11.468986011563151" fill="#ff8f0d" stroke="none" /><path d="M 115.19652480421416 85.50635884689758 l 10.061516723404084 -9.5961421919647 a34.903958563795605,34.903958563795605 0 0,0 0.41092376902662775,0.43834482596638225 l -10.225207814401175 9.421527949120263" fill="#ff930d" stroke="none" /><path d="M 115.68641384162765 86.03803664274999 l 10.117236853576516 -9.005021265688962 a34.544330531513076,34.544330531513076 0 0,0 0.39151579684553656,0.4475702361432507 l -10.270744513999901 8.829535473342764" fill="#ff8e0d" stroke="none" /><path d="M 115.9244219780498 86.31012108654704 l 10.265802219353263 -8.825286690224587 a34.53781298332687,34.53781298332687 0 0,0 0.3836812001131907,0.4541575216537792 l -10.416194032953571 8.647270218941701" fill="#ff8e0d" stroke="none" /><path d="M 116.38621287248628 86.86637796730983 l 10.572172283119446 -8.473642806393375 a34.548927972142344,34.548927972142344 0 0,0 0.3679393695629851,0.46724563451700263 l -10.716465733276396 8.290404777923333" fill="#ff8e0d" stroke="none" /><path d="M 116.60985879189232 87.15038557335679 l 17.186965070303096 -13.296071753805629 a42.729640871633535,42.729640871633535 0 0,0 0.4450476440099684,0.585630531618674 l -17.413288654537176 12.998256446305922" fill="#fffb17" stroke="none" /><path d="M 117.04232023915458 87.72973835380427 l 10.987517469076266 -7.9108778790557555 a34.53911108421043,34.53911108421043 0 0,0 0.34323221935554976,0.4854776330550165 l -11.122062308235698 7.720573745668945" fill="#ff8e0d" stroke="none" /><path d="M 117.2510076193507 88.02491185347247 l 11.130126651498161 -7.726171750350337 a34.548927972142344,34.548927972142344 0 0,0 0.3349198320238725,0.49145352655841473 l -11.261470949190768 7.5334402005215155" fill="#ff8e0d" stroke="none" /><line stroke="#e1ed5e" stroke-width="0.3" x1="172.23445277983987" x2="176.4835382374775" y1="55.19839476539836" y2="52.563006222186495" /><path d="M 173.08426987136738 54.67131705675599 a86.0,86.0 0 0,1 12.851231095245387,41.99856678651699" fill="none" id="id15" stroke="none" /><text fill="#e1ed5e" style="font-size:6.75px; font-family:Arial;" text-anchor="middle"><textPath startOffset="22.20632615414155" xlink:href="#id15">March</textPath></text><path d="M 118.73160827565052 90.50648371742162 l 14.483026454022264 -7.340258531938522 a37.23691628923439,37.23691628923439 0 0,0 0.28484465477893517,0.5742294425778962 l -14.607231121754607 7.089869500861676" fill="#ffb310" stroke="none" /><path d="M 119.34039704204932 91.81776055985345 l 24.94020784919645 -10.551321767876416 a48.08033158235665,48.08033158235665 0 0,0 0.31590681169932655,0.7649934020334539 l -25.118136347781977 10.12045379538966" fill="#c0ff1e" stroke="none" /><path d="M 119.47837535516314 92.15188598940014 l 12.556685172755486 -5.059266752700301 a34.53759663317962,34.53759663317962 0 0,0 0.21743300221382916,0.5533432740829185 l -12.641911724851017 4.842374473721598" fill="#ff8e0d" stroke="none" /><path d="M 119.61058180528143 92.48833698450437 l 12.652493351026822 -4.846427673712187 a34.548927972142344,34.548927972142344 0 0,0 0.2079440937079353,0.5571867878383184 l -12.734042033236383 4.627917748844535" fill="#ff8e0d" stroke="none" /><path d="M 120.28053869075195 94.5502522615342 l 21.057683498904765 -5.658580611461549 a42.80471437273267,42.80471437273267 0 0,0 0.1850869084899096,0.7132153601133171 l -21.151966739264978 5.295268825799382" fill="#fffc17" stroke="none" /><path d="M 120.37134235888165 94.90015583598534 l 26.266189747526443 -6.575584079584332 a48.07676180492686,48.07676180492686 0 0,0 0.194063450987202,0.8045182910592517 l -26.375485998774465 6.122480556865674" fill="#c0ff1e" stroke="none" /><path d="M 120.45610955862082 95.25157060432595 l 14.515184260526889 -3.369376147932509 a35.90111639251583,35.90111639251583 0 0,0 0.13455330347543598,0.6031760762289159 l -14.571031951004361 3.119021902153629" fill="#ffa10e" stroke="none" /><path d="M 120.53481517161879 95.60439243477599 l 18.54585608795466 -3.9698582452516433 a39.96598409053739,39.96598409053739 0 0,0 0.13820751924308844,0.673948947230718 l -18.611442903112746 3.650033641857514" fill="#ffd814" stroke="none" /><path d="M 120.6074358757038 95.95851677861258 l 15.955444276791699 -3.1291452620974596 a37.259389660781,37.259389660781 0 0,0 0.11801339670701531,0.6304322841352483 l -16.006943397408573 2.8540349004996486" fill="#ffb310" stroke="none" /><path d="M 120.67395015179393 96.31383870115 l 26.65231620933429 -4.752102806392586 a48.07265115212893,48.07265115212893 0 0,0 0.1382389483268939,0.8158940982835123 l -26.73016701918141 4.292622919793236" fill="#c1ff1e" stroke="none" /><path d="M 120.73433829027371 96.67025291283417 l 16.062484157975934 -2.5794895930079673 a37.268287060587056,37.268287060587056 0 0,0 0.09626594926901169,0.6342723273847855 l -16.104506000684246 2.3026181532311" fill="#ffb410" stroke="none" /><path d="M 120.78858239683441 97.02765380044208 l 13.414639022127458 -1.918021659905655 a34.551064429846534,34.551064429846534 0 0,0 0.07911206736178586,0.589476792731239 l -13.445667088547081 1.6868265251097516" fill="#ff8e0d" stroke="none" /><path d="M 120.83666639777658 97.38593545837742 l 16.126890011788152 -2.0231994188360733 a37.25330481288932,37.25330481288932 0 0,0 0.07434632638847112,0.6369539219600386 l -16.159326691180212 1.7453017585511819" fill="#ffb310" stroke="none" /><path d="M 120.87857604477298 97.74499172005257 l 13.480750245874464 -1.4559998420946332 a34.55915051660037,34.55915051660037 0 0,0 0.05878819954445033,0.5919891466137914 l -13.503815571101143 1.2237351647764068" fill="#ff8e0d" stroke="none" /><path d="M 120.91429891909075 98.10471618934814 l 26.960336087088468 -2.4431843837208316 a48.070812175877215,48.070812175877215 0 0,0 0.06758645441470912,0.8247259340708522 l -26.99839702532267 1.9787445324422104" fill="#c1ff1e" stroke="none" /><path d="M 120.94382443527127 98.46500227214037 l 13.540168108147311 -0.9923749764556502 a34.57648557214955,34.57648557214955 0 0,0 0.0383953908898515,0.5939597028637454 l -13.555244090041578 0.7591562093388694" fill="#ff8f0d" stroke="none" /><path d="M 120.96714384426684 98.82574320788733 l 27.02548759565219 -1.5135519937794806 a48.06783736135239,48.06783736135239 0 0,0 0.03915558367961281,0.8265124857064934 l -27.0475367875653 1.0481284014499874" fill="#c1ff1e" stroke="none" /><path d="M 120.98425023603335 99.18683210126433 l 13.565789914334024 -0.5256925911217953 a34.57597174054981,34.57597174054981 0 0,0 0.017927321181147055,0.5949205129357267 l -13.572828929970816 0.29210193076106955" fill="#ff8f0d" stroke="none" /><line stroke="#e1ed5e" stroke-width="0.3" x1="184.98032266829074" x2="189.97916517819016" y1="98.17113171792111" y2="98.06355123074" /><path d="M 185.9800911702706 98.14961562048488 a86.0,86.0 0 0,1 -9.607161424134198,41.387399972396054" fill="none" id="id16" stroke="none" /><text fill="#e1ed5e" style="font-size:6.75px; font-family:Arial;" text-anchor="middle"><textPath startOffset="21.466115282336823" xlink:href="#id16">April</textPath></text><path d="M 120.99513854157772 99.54816195383933 l 13.539599832849435 -0.29138680471942546 a34.54273494917703,34.54273494917703 0 0,0 0.0076766999115451175,0.5945688681692934 l -13.542609539878695 0.0582816784896693" fill="#ff8e0d" stroke="none" /><path d="M 120.99980553446 99.90962569577887 l 13.548802505494981 -0.05830833040117005 a34.548927972142344,34.548927972142344 0 0,0 -0.002559421947191762,0.5947195238168118 l -13.547798786258287 -0.17492067161932653" fill="#ff8e0d" stroke="none" /><path d="M 120.99824983174949 100.27111621757518 l 27.06855605797314 0.3494922001815286 a48.070812175877215,48.070812175877215 0 0,0 -0.017804369704035875,0.8272990992191702 l -27.058529625584097 -0.8153811151908137" fill="#c1ff1e" stroke="none" /><path d="M 120.9904718944345 100.63252640178507 l 10.837603386750555 0.3265800935143626 a31.84252284876481,31.84252284876481 0 0,0 -0.021225114500930314,0.5477258935928683 l -10.830376139398421 -0.5130832341212371" fill="#ff6809" stroke="none" /><path d="M 120.9764740272857 100.99374915477107 l 16.236717297117455 0.7692057334935731 a37.25492743899377,37.25492743899377 0 0,0 -0.035859906236303654,0.6403027151716364 l -16.22107103999362 -1.0485801650006328" fill="#ffb310" stroke="none" /><path d="M 120.89721153311464 102.0752229133903 l 62.69163459934395 6.2256687401709 a84.0,84.0 0 0,0 -0.15527079399579247,1.4376147124608343 l -62.575181503847105 -7.303879774516526" fill="#4dd2ff" stroke="none" /><path d="M 120.8583938346157 102.4346265915055 l 17.866973110342407 2.085462964648973 a38.98827073130214,38.98827073130214 0 0,0 -0.08354349238018481,0.6659238334454516 l -17.828428108715375 -2.392704552381819" fill="#ffcb12" stroke="none" /><path d="M 120.76222939487914 103.15116336523771 l 13.402499962919796 2.0341489385609584 a34.55598639569669,34.55598639569669 0 0,0 -0.09431850078650088,0.5873213944315807 l -13.365499707772006 -2.264549562685744" fill="#ff8e0d" stroke="none" /><path d="M 120.70491114924044 103.5080841355445 l 26.68215141926136 4.52082268894647 a48.062428607670896,48.062428607670896 0 0,0 -0.14522533737978435,0.8145008159854011 l -26.600379639542385 -4.979442255665091" fill="#c1ff1e" stroke="none" /><path d="M 120.64145759157962 103.86396538481128 l 45.205918938151626 8.462295125750146 a66.9911463853428,66.9911463853428 0 0,0 -0.22193231162216168,1.1316280756277246 l -45.0535566935538 -9.239186928445815" fill="#37ff76" stroke="none" /><path d="M 120.32669344350535 105.2749913415812 l 7.355648551580841 1.9088683818223624 a28.599298922499,28.599298922499 0 0,0 -0.12775977367600805,0.4754416456508178 l -7.3217007015630555 -2.0352009606487287" fill="#ff3905" stroke="none" /><path d="M 120.23288151984713 105.62410040840565 l 13.027937191393335 3.6213540225066336 a34.52188420373487,34.52188420373487 0 0,0 -0.1640732491475331,0.5711605046706731 l -12.963671305359702 -3.8450720026818885" fill="#ff8e0d" stroke="none" /><path d="M 120.13307415673323 105.97154293290107 l 7.7904145615854725 2.3106652594356603 a29.125868137160843,29.125868137160843 0 0,0 -0.14670176554420453,0.47942985790580783 l -7.749486023535136 -2.4444220898935254" fill="#ff4106" stroke="none" /><path d="M 120.02730092923936 106.31721596034902 l 55.503487534958474 17.50747734553512 a79.19921727607439,79.19921727607439 0 0,0 -0.4212936325326397,1.2966084771624753 l -55.19390165140959 -18.46028472267539" fill="#47fffd" stroke="none" /><path d="M 119.79798401119884 107.00284435728193 l 15.319746260891334 5.418824391280911 a37.24987025430157,37.24987025430157 0 0,0 -0.2190216789099671,0.6026535942921307 l -15.224200320976141 -5.681725782579172" fill="#ffb310" stroke="none" /><path d="M 119.54520255179757 107.68017299344265 l 7.679981749071208 3.0178038965333935 a29.251621660255577,29.251621660255577 0 0,0 -0.18818179119201722,0.46705177306221635 l -7.626897343621799 -3.1495550374384234" fill="#ff4206" stroke="none" /><path d="M 119.41010516605496 108.01547362559984 l 25.033323758730802 10.33760222485135 a48.0838202284812,48.0838202284812 0 0,0 -0.3225028047479517,0.7623013646357156 l -24.85166997279054 -10.76697811515323" fill="#c0ff1e" stroke="none" /><line stroke="#e1ed5e" stroke-width="0.3" x1="174.80103733775053" x2="179.2010983576182" y1="140.37084112569926" y2="142.7455964860345" /><path d="M 175.68104954172406 140.8457921977663 a86.0,86.0 0 0,1 -30.038265399797805,32.042727171017184" fill="none" id="id17" stroke="none" /><text fill="#e1ed5e" style="font-size:6.75px; font-family:Arial;" text-anchor="middle"><textPath startOffset="22.206326154141568" xlink:href="#id17">May</textPath></text><path d="M 118.48025628344425 109.97397251340804 l 3.3633719448690367 1.815244270207674 a24.821960570185663,24.821960570185663 0 0,0 -0.20616835652880183,0.3742554527470481 l -3.3316271788887253 -1.8728702413525273" fill="#ff0000" stroke="none" /><path d="M 118.30583269289576 110.29060199501025 l 14.163983016138813 7.962266143715775 a37.24857215341801,37.24857215341801 0 0,0 -0.31900387371268046,0.5562101427345948 l -14.024827146273752 -8.204896132308685" fill="#ffb310" stroke="none" /><path d="M 117.14729908036423 112.12312394758627 l 11.460696032819595 8.102701065649745 a35.0357158034768,35.0357158034768 0 0,0 -0.3523929126799878,0.48944293455737203 l -11.319523327764005 -8.298777605658248" fill="#ff950d" stroke="none" /><path d="M 116.498646956653 112.99209946851258 l 19.623773304194096 15.45302565631434 a45.977759719981094,45.977759719981094 0 0,0 -0.4949879960254076,0.6175736329254156 l -19.354867396113832 -15.788527122818005" fill="#daff1c" stroke="none" /><path d="M 116.27256486870786 113.27417163493432 l 15.00608107319837 12.241050955428873 a40.365582812526156,40.365582812526156 0 0,0 -0.443836882763844,0.5346301171117152 l -14.793148190540983 -12.49754232965436" fill="#ffdd14" stroke="none" /><path d="M 115.56566222782051 114.09645910891815 l 6.6350394483696995 6.008775013942879 a29.951487342872486,29.951487342872486 0 0,0 -0.34936782907177544,0.37916977747315966 l -6.530625211302202 -6.122096046217373" fill="#ff4d07" stroke="none" /><path d="M 115.32070863581623 114.36230785411682 l 9.878981326060165 9.260992716632796 a34.54105823553577,34.54105823553577 0 0,0 -0.4103698922954209,0.43027119143454007 l -9.71810488238578 -9.429671024649842" fill="#ff8e0d" stroke="none" /><path d="M 115.07121518719521 114.62390073753431 l 10.702435915411101 10.384787061481894 a35.912609994089,35.912609994089 0 0,0 -0.43430209460586516,0.4399457289021134 l -10.5220931957497 -10.567473284364672" fill="#ffa10e" stroke="none" /><path d="M 114.0293411484842 115.62618273729858 l 18.06696442519011 20.123374620966867 a48.04376840746974,48.04376840746974 0 0,0 -0.6201252772395031,0.5471884564342085 l -17.71789679504402 -20.431386219173366" fill="#c1ff1e" stroke="none" /><path d="M 113.75828350139079 115.86535959552629 l 8.85894839752201 10.215693109586683 a34.52188420373487,34.52188420373487 0 0,0 -0.4522934360979502,0.3854542785392168 l -8.681789484847013 -10.366671778348847" fill="#ff8e0d" stroke="none" /><path d="M 112.63410532772338 116.77436683061366 l 8.953302091368746 11.887345382214168 a35.88188827317812,35.88188827317812 0 0,0 -0.49656266771178237,0.3673451904364021 l -8.747354453238401 -12.039700521390339" fill="#ffa10e" stroke="none" /><path d="M 111.45004920935366 117.60387380957326 l 5.912887814658524 9.090767125645193 a31.84455113139537,31.84455113139537 0 0,0 -0.46207686835157996,0.29491931979232633 l -5.755529144260014 -9.191200874261328" fill="#ff6809" stroke="none" /><path d="M 111.1453310114006 117.79835938074945 l 7.193177077441209 11.487029912589286 a34.55336315016117,34.55336315016117 0 0,0 -0.5068168839305773,0.3113283246608484 l -6.994380993578323 -11.609146704078512" fill="#ff8e0d" stroke="none" /><line stroke="#e1ed5e" stroke-width="0.3" x1="143.8653032363475" x2="146.44561519142675" y1="172.8068346515853" y2="177.08958963109032" /><path d="M 144.38136562736335 173.6633856474863 a86.0,86.0 0 0,1 -40.68145358897372,12.25698825130547" fill="none" id="id18" stroke="none" /><text fill="#e1ed5e" style="font-size:6.75px; font-family:Arial;" text-anchor="middle"><textPath startOffset="21.466115282336833" xlink:href="#id18">June</textPath></text><path d="M 110.5260780823613 118.17145234162733 l 6.791289227002826 11.723985663139333 a34.548927972142344,34.548927972142344 0 0,0 -0.5171665766473154,0.29366067943889596 l -6.588473883434312 -11.839149508372858" fill="#ff8e0d" stroke="none" /><path d="M 110.21172684928248 118.3499491758327 l 6.58672484745328 11.836006580459456 a34.54533115094415,34.54533115094415 0 0,0 -0.5220904792263349,0.28468535684406154 l -6.382011556358297 -11.947632589063288" fill="#ff8e0d" stroke="none" /><path d="M 109.89434966115114 118.52300852407294 l 6.388102198233164 11.959034754463628 a34.55825807224292,34.55825807224292 0 0,0 -0.5271106882560275,0.27575939930591326 l -6.181300607450641 -12.067223572714258" fill="#ff8e0d" stroke="none" /><path d="M 108.92500713936063 119.00905698771935 l 6.907660071106744 14.712380829856485 a37.25330481288932,37.25330481288932 0 0,0 -0.5828048997364651,0.26753714469378886 l -6.65338717560286 -14.829105044884349" fill="#ffb310" stroke="none" /><path d="M 108.59647513512805 119.15986991738527 l 6.097868093287132 13.590961132817297 a35.89624851420248,35.89624851420248 0 0,0 -0.5659288447809413,0.2480865744362881 l -5.863018573848437 -13.69391226054804" fill="#ffa10e" stroke="none" /><path d="M 108.2653958097858 119.30500536409082 l 5.520489367017817 12.893886668622482 a35.02598004685011,35.02598004685011 0 0,0 -0.5562935240331888,0.2325307381626136 l -5.297724383487166 -12.98700244980507" fill="#ff950d" stroke="none" /><path d="M 107.93186726928326 119.44442032107085 l 5.121552371220464 12.555129028449628 a34.55955617312648,34.55955617312648 0 0,0 -0.5527536447571619,0.21995208278400358 l -4.904677650421436 -12.6414279556397" fill="#ff8e0d" stroke="none" /><path d="M 107.59598834532513 119.57807347666477 l 4.900833284192518 12.63151939850674 a34.548927972142344,34.548927972142344 0 0,0 -0.5562867327709361,0.21034004277039844 l -4.682676330661307 -12.714007691383769" fill="#ff8e0d" stroke="none" /><path d="M 107.2578585660854 119.70592522655815 l 4.687405740288681 12.726848585379456 a34.56261211895652,34.56261211895652 0 0,0 -0.5600467065534561,0.20081282346266474 l -4.46763947310549 -12.80564894988208" fill="#ff8e0d" stroke="none" /><path d="M 106.2309692047433 120.05430185196036 l 6.425885842909815 20.681638782912422 a42.656920178385846,42.656920178385846 0 0,0 -0.7030775041449616,0.2118314845661664 l -6.068933364324607 -20.789185636584314" fill="#fffa17" stroke="none" /><path d="M 105.53697534728816 120.25689768951611 l 3.5711440612283 13.064948883735742 a34.54422235643944,34.54422235643944 0 0,0 -0.5749302790104914,0.1518443121466616 l -3.345723339406311 -13.124484545185988" fill="#ff8e0d" stroke="none" /><path d="M 105.18746579009965 120.34920634021253 l 3.3455830507828637 13.123934225962453 a34.54365443730289,34.54365443730289 0 0,0 -0.577449353484799,0.14192300181359377 l -3.1191804125548535 -13.179578486090078" fill="#ff8e0d" stroke="none" /><line stroke="#e1ed5e" stroke-width="0.3" x1="102.19456741930631" x2="102.32365962044197" y1="184.97166512339345" y2="189.96999836594603" /><path d="M 102.22038585953345 185.97133177190398 a86.0,86.0 0 0,1 -42.740103519485714,-10.115201625700543" fill="none" id="id19" stroke="none" /><text fill="#e1ed5e" style="font-size:6.75px; font-family:Arial;" text-anchor="middle"><textPath startOffset="22.20632615414155" xlink:href="#id19">July</textPath></text><line stroke="#e1ed5e" stroke-width="0.3" x1="58.666819895761336" x2="56.23545636021788" y1="174.27360380694188" y2="178.64263932499728" /><path d="M 58.180547188652646 175.14741091055294 a86.0,86.0 0 0,1 -31.652253787137756,-30.449443065178592" fill="none" id="id20" stroke="none" /><text fill="#e1ed5e" style="font-size:6.75px; font-family:Arial;" text-anchor="middle"><textPath startOffset="22.20632615414155" xlink:href="#id20">August</textPath></text><line stroke="#e1ed5e" stroke-width="0.3" x1="26.63291911575756" x2="22.317208475507996" y1="142.92168965132927" y2="145.44649492493687" /><path d="M 25.769776987707644 143.4266507060508 a86.0,86.0 0 0,1 -11.730757126820373,-40.83630448921669" fill="none" id="id21" stroke="none" /><text fill="#e1ed5e" style="font-size:6.75px; font-family:Arial;" text-anchor="middle"><textPath startOffset="21.46611528233685" xlink:href="#id21">September</textPath></text><line stroke="#e1ed5e" stroke-width="0.3" x1="15.007084014347285" x2="10.007500721073583" y1="101.09737516637583" y2="101.16192664675087" /><path d="M 14.007167355692545 101.11028546245083 a86.0,86.0 0 0,1 10.666146001902534,-42.60595125391555" fill="none" id="id22" stroke="none" /><text fill="#e1ed5e" style="font-size:6.75px; font-family:Arial;" text-anchor="middle"><textPath startOffset="22.20632615414155" xlink:href="#id22">October</textPath></text><line stroke="#e1ed5e" stroke-width="0.3" x1="26.266209847984243" x2="21.928928074336255" y1="57.711370442889674" y2="55.22380399835377" /><path d="M 25.398753493254645 57.213857153982495 a86.0,86.0 0 0,1 29.58750427330803,-30.492523968695096" fill="none" id="id23" stroke="none" /><text fill="#e1ed5e" style="font-size:6.75px; font-family:Arial;" text-anchor="middle"><textPath startOffset="21.46611528233685" xlink:href="#id23">November</textPath></text><line stroke="#e1ed5e" stroke-width="0.3" x1="56.762969772571076" x2="54.21961505331055" y1="26.818313649435495" y2="22.513508569990535" /><path d="M 56.25429882871897 25.957352633546506 a86.0,86.0 0 0,1 42.265352541879196,-11.944610805530505" fill="none" id="id24" stroke="none" /><text fill="#e1ed5e" style="font-size:6.75px; font-family:Arial;" text-anchor="middle"><textPath startOffset="22.20632615414155" xlink:href="#id24">December</textPath></text></svg>