<?xml version="1.0" encoding="utf-8" ?>
<svg baseProfile="full" height="200mm" version="1.1" viewBox="0,0,200,200" width="200mm" xmlns="http://www.w3.org/2000/svg" xmlns:ev="http://www.w3.org/2001/xml-events" xmlns:xlink="http://www.w3.org/1999/xlink"><defs /><rect fill="#1a1a1a" height="200" width="200" x="0" y="0" /><text alignment-baseline="middle" fill="#e1ed5e" style="dominant-baseline: central; font-size:9.0px; font-family:Arial;" text-anchor="middle" x="100.0" y="100.0">2025</text><line stroke="#e1ed5e" stroke-width="0.3" x1="100.0" x2="100.0" y1="15.0" y2="10.0" /><path d="M 100.0 14.0 a86.0,86.0 0 0,1 42.46469731375804,11.215312516191453" fill="none" id="id13" stroke="none" /><text fill="#e1ed5e" style="font-size:6.75px; font-family:Arial;" text-anchor="middle"><textPath startOffset="22.20632615414155" xlink:href="#id13">January</textPath></text><path d="M 108.43124777332544 80.76684994638697 l 12.478652414306207 -28.46598757428879 a52.0810105153715,52.0810105153715 0 0,0 0.8179642169661511,0.36699670106808263 l -12.966798749739139 28.246970542704176" fill="#8aff24" stroke="none" /><path d="M 110.05341064243156 81.56283822128135 l 6.366841246816356 -11.676284423470081 a34.29933402091744,34.29933402091744 0 0,0 0.5159206370514207,0.28710927594369373 l -6.5668859729398115 11.564959749966206" fill="#ff990e" stroke="none" /><line stroke="#e1ed5e" stroke-width="0.3" x1="143.23703022742887" x2="145.7803849466894" y1="26.81831364943548" y2="22.513508569990506" /><path d="M 143.74570117128098 25.957352633546492 a86.0,86.0 0 0,1 28.547481713284135,27.462654790039103" fill="none" id="id14" stroke="none" /><text fill="#e1ed5e" style="font-size:6.75px; font-family:Arial;" text-anchor="middle"><textPath startOffset="19.985693538727396" xlink:href="#id14">February</textPath></text><path d="M 110.68208982089419 81.91981866633111 l 10.68536117964328 -18.085718336295024 a42.00643118854856,42.00643118854856 0 0,0 0.619370693275865,0.37316391251272063 l -10.995093939136783 17.89910781432369" fill="#fffd17" stroke="none" /><path d="M 110.99172775467656 82.1063720568725 l 5.528457993137324 -8.999874508929697 a31.56227196006458,31.56227196006458 0 0,0 0.46047979219913027,0.28835240363059805 l -5.682556937708718 8.903377763976154" fill="#ff730a" stroke="none" /><path d="M 115.19652480421416 85.50635884689758 l 7.810758874124805 -7.4494884661775975 a31.79364778920604,31.79364778920604 0 0,0 0.3743061279644419,0.3992836795724311 l -7.93783232405971 7.313935369727112" fill="#ff770a" stroke="none" /><path d="M 115.68641384162765 86.03803664274999 l 7.854014430237863 -6.990601088904818 a31.514468424727035,31.514468424727035 0 0,0 0.35717618571923937,0.40831412442388665 l -7.973182479534951 6.8543714082779825" fill="#ff730a" stroke="none" /><path d="M 115.9244219780498 86.31012108654704 l 7.969345774510157 -6.8510730764899614 a31.50940884984063,31.50940884984063 0 0,0 0.35003860285537713,0.4143352979219484 l -8.08609499085265 6.712878828938907" fill="#ff730a" stroke="none" /><path d="M 116.38621287248628 86.86637796730983 l 8.207180959811948 -6.578091809184856 a31.518037419460185,31.518037419460185 0 0,0 0.3356609741213818,0.42625535022854494 l -8.319196014527295 6.435844065003272" fill="#ff730a" stroke="none" /><path d="M 116.60985879189232 87.15038557335679 l 13.34224686322688 -10.321745050670788 a37.86872764171425,37.86872764171425 0 0,0 0.39441913563538444,0.519009349204766 l -13.517941939086377 10.090550925584989" fill="#ffc812" stroke="none" /><path d="M 117.04232023915458 87.72973835380427 l 8.529613569747486 -6.141217203587484 a31.510416566000576,31.510416566000576 0 0,0 0.3131345848593804,0.4429066635137824 l -8.634060774410749 5.993484039741909" fill="#ff730a" stroke="none" /><path d="M 117.2510076193507 88.02491185347247 l 8.640321126843972 -5.997829772690984 a31.518037419460185,31.518037419460185 0 0,0 0.3055381575590221,0.4483395447894497 l -8.742283750071728 5.848212204631128" fill="#ff730a" stroke="none" /><line stroke="#e1ed5e" stroke-width="0.3" x1="172.23445277983987" x2="176.4835382374775" y1="55.19839476539836" y2="52.563006222186495" /><path d="M 173.08426987136738 54.67131705675599 a86.0,86.0 0 0,1 12.851231095245387,41.99856678651699" fill="none" id="id15" stroke="none" /><text fill="#e1ed5e" style="font-size:6.75px; font-family:Arial;" text-anchor="middle"><textPath startOffset="22.20632615414155" xlink:href="#id15">March</textPath></text><path d="M 118.73160827565052 90.50648371742162 l 11.243178390470932 -5.698245209228437 a33.604723669499755,33.604723669499755 0 0,0 0.25706011309394,0.5182175019766609 l -11.339598516518281 5.503868118752826" fill="#ff900d" stroke="none" /><path d="M 119.34039704204932 91.81776055985345 l 19.361091884636004 -8.19099469769644 a42.02247067076107,42.02247067076107 0 0,0 0.2761042674298027,0.6686083839753101 l -19.499217838952003 7.856511743267826" fill="#fffd18" stroke="none" /><path d="M 119.47837535516314 92.15188598940014 l 9.747758994879357 -3.927510510746224 a31.509240897147304,31.509240897147304 0 0,0 0.19836785166353285,0.5048245454677932 l -9.81392039642459 3.759136960382646" fill="#ff730a" stroke="none" /><path d="M 119.61058180528143 92.48833698450437 l 9.822134916444531 -3.76228346092182 a31.518037419460185,31.518037419460185 0 0,0 0.18970168139304017,0.508306192391184 l -9.885441186339197 3.5926541315013027" fill="#ff730a" stroke="none" /><path d="M 120.28053869075195 94.5502522615342 l 16.347086903408236 -4.392758064310063 a37.927007226297924,37.927007226297924 0 0,0 0.163995779872828,0.6319426379388678 l -16.420279015151365 4.110719000822344" fill="#ffc912" stroke="none" /><path d="M 120.37134235888165 94.90015583598534 l 20.390452085888633 -5.104628170293448 a42.019699451321216,42.019699451321216 0 0,0 0.16961391697002293,0.7031591880203536 l -20.475298803119475 4.752883750613688" fill="#fffd17" stroke="none" /><path d="M 120.45610955862082 95.25157060432595 l 11.2681425066607 -2.6156478562035725 a32.56774175273964,32.56774175273964 0 0,0 0.1220601942194623,0.5471719170869366 l -11.311497087882199 2.421297769566672" fill="#ff810b" stroke="none" /><path d="M 120.53481517161879 95.60439243477599 l 14.397154425066065 -3.0818023137595176 a35.72329993718436,35.72329993718436 0 0,0 0.12353577112752738,0.6024042928539545 l -14.448069492108589 2.8335223647421515" fill="#ffac0f" stroke="none" /><path d="M 120.6074358757038 95.95851677861258 l 12.386216849957275 -2.429156537353969 a33.62216975551886,33.62216975551886 0 0,0 0.10649306104134097,0.5688901903529066 l -12.426195634908476 2.2155882695385" fill="#ff900d" stroke="none" /><path d="M 120.67395015179393 96.31383870115 l 20.690202190272462 -3.6890590341558775 a42.016508350148044,42.016508350148044 0 0,0 0.12082374879454504,0.7131086048256681 l -20.750637800587228 3.3323646410143715" fill="#fffd17" stroke="none" /><path d="M 120.73433829027371 96.67025291283417 l 12.469311946335761 -2.0024586534189073 a33.62907681003184,33.62907681003184 0 0,0 0.08686567742958744,0.5723362810162013 l -12.501933517204648 1.7875232600106241" fill="#ff900d" stroke="none" /><path d="M 120.78858239683441 97.02765380044208 l 10.413788861627369 -1.488960870683037 a31.51969595230677,31.51969595230677 0 0,0 0.07217109951749692,0.5377585201623885 l -10.437875960202701 1.3094840084559842" fill="#ff730a" stroke="none" /><path d="M 120.83666639777658 97.38593545837742 l 12.519310232681514 -1.5706104009189092 a33.6174460860191,33.6174460860191 0 0,0 0.06709025230409248,0.574788310414849 l -12.544490837989196 1.3548783521792076" fill="#ff900d" stroke="none" /><path d="M 120.87857604477298 97.74499172005257 l 10.465111027236851 -1.1302931754723906 a31.525973184219776,31.525973184219776 0 0,0 0.05362849418120534,0.5400316177485559 l -10.483016647100285 0.9499860270193998" fill="#ff730a" stroke="none" /><path d="M 120.91429891909075 98.10471618934814 l 20.92931812673749 -1.8966448728233378 a42.01508075225478,42.01508075225478 0 0,0 0.05907223555123492,0.7208308982109117 l -20.958864846108217 1.5361000574046573" fill="#fffd17" stroke="none" /><path d="M 120.94382443527127 98.46500227214037 l 10.511237134044356 -0.770381033684544 a31.53943039377242,31.53943039377242 0 0,0 0.03502289889714988,0.5417887444369393 l -10.522940623945921 0.5893332249945695" fill="#ff730a" stroke="none" /><path d="M 120.96714384426684 98.82574320788733 l 20.979895265121907 -1.1749709305122213 a42.01277140272157,42.01277140272157 0 0,0 0.034223186991024335,0.7223973873099816 l -20.997012060346428 0.81366243657924" fill="#fffd17" stroke="none" /><path d="M 120.98425023603335 99.18683210126433 l 10.531127350951557 -0.408095338311681 a31.539031506125774,31.539031506125774 0 0,0 0.016352695791034967,0.5426663621174636 l -10.536591741198238 0.22675882876921832" fill="#ff730a" stroke="none" /><line stroke="#e1ed5e" stroke-width="0.3" x1="184.98032266829074" x2="189.97916517819016" y1="98.17113171792111" y2="98.06355123074" /><path d="M 185.9800911702706 98.14961562048488 a86.0,86.0 0 0,1 -9.607161424134198,41.387399972396054" fill="none" id="id16" stroke="none" /><text fill="#e1ed5e" style="font-size:6.75px; font-family:Arial;" text-anchor="middle"><textPath startOffset="21.466115282336823" xlink:href="#id16">April</textPath></text><path d="M 120.99513854157772 99.54816195383933 l 10.510795981736221 -0.22620367617846662 a31.513229773613766,31.513229773613766 0 0,0 0.007003429478630943,0.5424233311700414 l -10.51313241833257 0.04524408694796252" fill="#ff730a" stroke="none" /><path d="M 120.99980553446 99.90962569577887 l 10.51794001965892 -0.04526477683597736 a31.518037419460185,31.518037419460185 0 0,0 -0.0023348902972856983,0.5425462758455454 l -10.51716083207213 -0.13579097721325273" fill="#ff730a" stroke="none" /><path d="M 120.99824983174949 100.27111621757518 l 21.013329327154096 0.2713109145518283 a42.01508075225478,42.01508075225478 0 0,0 -0.015561460208351786,0.723079908298362 l -21.005545804260738 -0.6329806386403051" fill="#fffd17" stroke="none" /><path d="M 120.9904718944345 100.63252640178507 l 8.413235216356878 0.2535242383085557 a29.417054196401345,29.417054196401345 0 0,0 -0.019608381740484838,0.5060052048362988 l -8.40762470176519 -0.3983066901588608" fill="#ff5507" stroke="none" /><path d="M 120.9764740272857 100.99374915477107 l 12.604569191851306 0.5971346740335096 a33.61870573121904,33.61870573121904 0 0,0 -0.032359843869822345,0.5778067504092074 l -12.592422997093955 -0.8140131407781404" fill="#ff900d" stroke="none" /><path d="M 120.89721153311464 102.0752229133903 l 48.66753738441801 4.832988772611148 a69.90692155042996,69.90692155042996 0 0,0 -0.12922027636829564,1.196419272901708 l -48.57713480654866 -5.670004367397647" fill="#3bff9c" stroke="none" /><path d="M 120.8583938346157 102.4346265915055 l 13.870137337319958 1.618945612831974 a34.96430072196331,34.96430072196331 0 0,0 -0.07492098870131846,0.5971939953678409 l -13.840214839371791 -1.8574573624872097" fill="#ffa20f" stroke="none" /><path d="M 120.76222939487914 103.15116336523771 l 10.404365305812046 1.5791105168268438 a31.523516876079903,31.523516876079903 0 0,0 -0.08604155636662941,0.5357808536280806 l -10.375641995084129 -1.7579706001481294" fill="#ff730a" stroke="none" /><path d="M 120.70491114924044 103.5080841355445 l 20.713363273944587 3.5095161998683957 a42.00857258538845,42.00857258538845 0 0,0 -0.12693301822834868,0.7119077757905865 l -20.64988381337705 -3.8655427263922006" fill="#fffd17" stroke="none" /><path d="M 120.64145759157962 103.86396538481128 l 35.09337033529011 6.569282600819811 a56.702942671147625,56.702942671147625 0 0,0 -0.1878489296242293,0.9578376451163283 l -34.97509147269022 -7.172383973004084" fill="#58ff2a" stroke="none" /><path d="M 120.32669344350535 105.2749913415812 l 5.7101924867412395 1.4818551777759126 a26.899338353030565,26.899338353030565 0 0,0 -0.1201656512395813,0.447181090981985 l -5.6838387591598805 -1.5799272019334458" fill="#ff3104" stroke="none" /><path d="M 120.23288151984713 105.62410040840565 l 10.113592098149251 2.8112583664296182 a31.497043332794597,31.497043332794597 0 0,0 -0.14969699242526152,0.5211148690327491 l -10.06370246883789 -2.984930710966949" fill="#ff720a" stroke="none" /><path d="M 120.13307415673323 105.97154293290107 l 6.047701489028379 1.7937702313099002 a27.30811421449625,27.30811421449625 0 0,0 -0.13754606558278207,0.4495085006866248 l -6.015928650939464 -1.8976057045485821" fill="#ff3705" stroke="none" /><path d="M 120.02730092923936 106.31721596034902 l 43.08737635948382 13.591060652127235 a66.18007227964124,66.18007227964124 0 0,0 -0.352039376282895,1.083465792823318 l -42.84704473218468 -14.330725344928346" fill="#36ff71" stroke="none" /><path d="M 119.79798401119884 107.00284435728193 l 11.892724262760403 4.206635228570348 a33.61477983701258,33.61477983701258 0 0,0 -0.1976480848343682,0.5438426429894718 l -11.818551916920807 -4.41072566856595" fill="#ff900d" stroke="none" /><path d="M 119.54520255179757 107.68017299344265 l 5.961972458897771 2.342722197180009 a27.40573671749124,27.40573671749124 0 0,0 -0.1763068278515837,0.4375790879099157 l -5.920763016788794 -2.445000652932738" fill="#ff3805" stroke="none" /><path d="M 119.41010516605496 108.01547362559984 l 19.433377797059713 8.025084143338972 a42.025178907940926,42.025178907940926 0 0,0 -0.28186691497148353,0.6662501248519321 l -19.29235990089592 -8.358408793857068" fill="#fffd18" stroke="none" /><line stroke="#e1ed5e" stroke-width="0.3" x1="174.80103733775053" x2="179.2010983576182" y1="140.37084112569926" y2="142.7455964860345" /><path d="M 175.68104954172406 140.8457921977663 a86.0,86.0 0 0,1 -30.038265399797805,32.042727171017184" fill="none" id="id17" stroke="none" /><text fill="#e1ed5e" style="font-size:6.75px; font-family:Arial;" text-anchor="middle"><textPath startOffset="22.206326154141568" xlink:href="#id17">May</textPath></text><path d="M 118.48025628344425 109.97397251340804 l 2.61098679131154 1.4091747479034002 a23.966989298014393,23.966989298014393 0 0,0 -0.19906706323794832,0.36136454271407864 l -2.5863433186220823 -1.4539098090152838" fill="#ff0600" stroke="none" /><path d="M 118.30583269289576 110.29060199501025 l 10.995504860506722 6.18110993102146 a33.61377212085263,33.61377212085263 0 0,0 -0.2878747532249591,0.501933897282878 l -10.887478111129383 -6.369463674162653" fill="#ff900d" stroke="none" /><path d="M 117.14729908036423 112.12312394758627 l 8.896942250641775 6.290129608957419 a31.89593097944079,31.89593097944079 0 0,0 -0.32081262685004414,0.44558067962943404 l -8.78734983141613 -6.442343894037984" fill="#ff780b" stroke="none" /><path d="M 116.498646956653 112.99209946851258 l 15.233941928756227 11.996189103018203 a40.390243414771504,40.390243414771504 0 0,0 -0.43483383637258227,0.5425220696336385 l -15.02519018032879 -12.256639006230092" fill="#ffe915" stroke="none" /><path d="M 116.27256486870786 113.27417163493432 l 11.649225870258803 9.502732043999615 a36.033508561755106,36.033508561755106 0 0,0 -0.3962038697514051,0.4772530844355597 l -11.483926000613856 -9.701846385548945" fill="#ffb010" stroke="none" /><path d="M 115.56566222782051 114.09645910891815 l 5.150783393419444 4.664614098747429 a27.949042686310023,27.949042686310023 0 0,0 -0.32601039995678743,0.35381990131711666 l -5.069726585466935 -4.752585254865881" fill="#ff4006" stroke="none" /><path d="M 115.32070863581623 114.36230785411682 l 7.669056582726778 7.189311813832751 a31.5119281402405,31.5119281402405 0 0,0 -0.37438188687651697,0.39253791163096885 l -7.544168144471296 -7.320256842046227" fill="#ff730a" stroke="none" /><path d="M 115.07121518719521 114.62390073753431 l 8.308304662119285 8.061713748155798 a32.57666423957252,32.57666423957252 0 0,0 -0.3939594899075011,0.39907888333477015 l -8.168304547156248 -8.203533125471232" fill="#ff810b" stroke="none" /><path d="M 114.0293411484842 115.62618273729858 l 14.025390663447332 15.621782601865716 a41.994086665589194,41.994086665589194 0 0,0 -0.5420389677814974,0.47828636727704016 l -13.754409342759248 -15.860892110915046" fill="#fffd17" stroke="none" /><path d="M 113.75828350139079 115.86535959552629 l 6.877204671379624 7.930446055457523 a31.497043332794597,31.497043332794597 0 0,0 -0.4126630479333587,0.35168040198244194 l -6.739676146869218 -8.047650847662911" fill="#ff720a" stroke="none" /><path d="M 112.63410532772338 116.77436683061366 l 6.950451476188442 9.228150286520858 a32.55281495712041,32.55281495712041 0 0,0 -0.4504922515105977,0.33326339791886334 l -6.79057425425928 -9.34642363317949" fill="#ff810b" stroke="none" /><path d="M 111.45004920935366 117.60387380957326 l 4.59017683314282 7.057165629319954 a29.418628752901267,29.418628752901267 0 0,0 -0.4268757876111634,0.27245232458230106 l -4.468019243484727 -7.135132382726064" fill="#ff5507" stroke="none" /><path d="M 111.1453310114006 117.79835938074945 l 5.584065825789972 8.917385250515023 a31.52148044967334,31.52148044967334 0 0,0 -0.46234626797268913,0.284010840177238 l -5.429740357884975 -9.012184557520639" fill="#ff730a" stroke="none" /><line stroke="#e1ed5e" stroke-width="0.3" x1="143.8653032363475" x2="146.44561519142675" y1="172.8068346515853" y2="177.08958963109032" /><path d="M 144.38136562736335 173.6633856474863 a86.0,86.0 0 0,1 -40.68145358897372,12.25698825130547" fill="none" id="id18" stroke="none" /><text fill="#e1ed5e" style="font-size:6.75px; font-family:Arial;" text-anchor="middle"><textPath startOffset="21.466115282336833" xlink:href="#id18">June</textPath></text><path d="M 110.5260780823613 118.17145234162733 l 5.272080150020751 9.101334080722554 a31.518037419460185,31.518037419460185 0 0,0 -0.4717968536681475,0.26789856665428957 l -5.114634529431404 -9.190735813171472" fill="#ff730a" stroke="none" /><path d="M 110.21172684928248 118.3499491758327 l 5.113276752201037 9.188295957157198 a31.515245205933663,31.515245205933663 0 0,0 -0.4762961860347274,0.25971465690332846 l -4.954357754297661 -9.274951265820297" fill="#ff730a" stroke="none" /><path d="M 109.89434966115114 118.52300852407294 l 4.959085921668548 9.283802770720921 a31.525280379359813,31.525280379359813 0 0,0 -0.48084924313866273,0.25155759767143065 l -4.798545776003389 -9.367789787337069" fill="#ff730a" stroke="none" /><path d="M 108.92500713936063 119.00905698771935 l 5.362418876105632 11.421226270886358 a33.6174460860191,33.6174460860191 0 0,0 -0.525924139991456,0.24142597771994503 l -5.165026740346757 -11.511839318940378" fill="#ff900d" stroke="none" /><path d="M 108.59647513512805 119.15986991738527 l 4.733777086718472 10.55066777647045 a32.56396281713984,32.56396281713984 0 0,0 -0.5133930876175548,0.22505644237944586 l -4.551463324443163 -10.63058877214435" fill="#ff810b" stroke="none" /><path d="M 108.2653958097858 119.30500536409082 l 4.285557784011477 10.00952863146753 a31.888373108241176,31.888373108241176 0 0,0 -0.5064610734186709,0.2117007697642137 l -4.112625251095345 -10.081814444251716" fill="#ff780b" stroke="none" /><path d="M 107.93186726928326 119.44442032107085 l 3.975862857709487 9.746550959522407 a31.52628809551976,31.52628809551976 0 0,0 -0.5042388439008237,0.2006470422918857 l -3.8075029377667975 -9.813544846220362" fill="#ff730a" stroke="none" /><path d="M 107.59598834532513 119.57807347666477 l 3.804518554948246 9.805852829928623 a31.518037419460185,31.518037419460185 0 0,0 -0.5074850968910224,0.19188743987060344 l -3.6351632372969487 -9.869888519905858" fill="#ff730a" stroke="none" /><path d="M 107.2578585660854 119.70592522655815 l 3.6388346796084705 9.8798569103072 a31.528660427312975,31.528660427312975 0 0,0 -0.510885067760093,0.18318520887869322 l -3.468230051218643 -9.941029660225855" fill="#ff730a" stroke="none" /><path d="M 106.2309692047433 120.05430185196036 l 4.988417377955695 16.055163261749644 a37.81227454267048,37.81227454267048 0 0,0 -0.6232273567882982,0.18777329018835048 l -4.711315046727151 -16.13865192104372" fill="#ffc812" stroke="none" /><path d="M 105.53697534728816 120.25689768951611 l 2.7722803563139102 10.142324287575262 a31.514384448380373,31.514384448380373 0 0,0 -0.5245037406486502,0.13852620504562424 l -2.5972861728537624 -10.18854184192447" fill="#ff730a" stroke="none" /><path d="M 105.18746579009965 120.34920634021253 l 2.5971772667473907 10.188114628922989 a31.513943572560397,31.513943572560397 0 0,0 -0.5268031607588153,0.12947539985729403 l -2.421420821245364 -10.231311287094313" fill="#ff730a" stroke="none" /><path d="M 104.48393922423573 120.51570834832081 l 4.48715928026269 20.530441315698546 a42.01508075225478,42.01508075225478 0 0,0 -0.7078711580419969,0.14834128367005273 l -4.133096660791315 -20.60463858009514" fill="#fffd17" stroke="none" /><path d="M 103.7750983002368 120.6578951692458 l 5.706277185213118 31.22559110352095 a52.74270213889754,52.74270213889754 0 0,0 -0.8944936959100795,0.1555191947182716 l -5.167934517830989 -31.31918887676023" fill="#83ff25" stroke="none" /><path d="M 103.41894727170886 120.7198165907248 l 1.7102911038234359 10.364862389427186 a31.50502108572752,31.50502108572752 0 0,0 -0.5358316022894918,0.08368587634414308 l -1.531623637925427 -10.392766573118434" fill="#ff730a" stroke="none" /><path d="M 102.70371172650421 120.8252237178851 l 1.625443546873141 12.519909268652986 a33.62498296313205,33.62498296313205 0 0,0 -0.5746230612301253,0.0695788502991422 l -1.4096930625916353 -12.54603364767748" fill="#ff900d" stroke="none" /><path d="M 102.34483914955558 120.86867818915974 l 1.4088515023764052 12.53854390181932 a33.6174460860191,33.6174460860191 0 0,0 -0.5756065618048112,0.05966397364430594 l -1.1928123439659915 -12.560937243919383" fill="#ff900d" stroke="none" /><path d="M 101.62511606390274 120.93702456842531 l 0.30133515100089125 3.8822220763017623 a24.89389921838682,24.89389921838682 0 0,0 -0.4275079565507889,0.029483451666954052 l -0.23446443367117203 -3.8868338724850013" fill="#ff1402" stroke="none" /><path d="M 101.26447882468166 120.96189622390904 l 1.5195412960345258 25.190194041753873 a46.23598386454482,46.23598386454482 0 0,0 -0.7948448497020246,0.041084399688196264 l -1.0857083779190217 -25.212618248204272" fill="#cdff1d" stroke="none" /><line stroke="#e1ed5e" stroke-width="0.3" x1="102.19456741930631" x2="102.32365962044197" y1="184.97166512339345" y2="189.96999836594603" /><path d="M 102.22038585953345 185.97133177190398 a86.0,86.0 0 0,1 -42.740103519485714,-10.115201625700543" fill="none" id="id19" stroke="none" /><text fill="#e1ed5e" style="font-size:6.75px; font-family:Arial;" text-anchor="middle"><textPath startOffset="22.20632615414155" xlink:href="#id19">July</textPath></text><path d="M 100.54218724476979 120.99299961872073 l 0.10119080808672759 3.9180165451598987 a24.91932305733885,24.91932305733885 0 0,0 -0.4288975168337783,0.007383859710107217 l -0.03373360136028136 -3.9191778821491656" fill="#ff1402" stroke="none" /><path d="M 100.18074693466247 120.99922214144158 l 0.12751339983138615 14.814537320205162 a35.81508608408632,35.81508608408632 0 0,0 -0.616520668987673,0.0 l 0.12751339983137594 -14.814537320205162" fill="#ffad10" stroke="none" /><path d="M 98.73552117531835 120.96189622390904 l -1.6591623911333189 27.504762580983183 a48.55475974267248,48.55475974267248 0 0,0 -0.8338406906971311,-0.0575065360197284 l 2.1323658426093797 -27.47212770044717" fill="#b2ff20" stroke="none" /><path d="M 98.01472825383883 120.90594882070398 l -0.3305241326162645 3.480591820159925 a24.496250222853895,24.496250222853895 0 0,0 -0.41943109931101097,-0.04347574839387983 l 0.39038782853286885 -3.474386703310284" fill="#ff0e01" stroke="none" /><path d="M 97.2962882734958 120.8252237178851 l -1.8956331713553223 14.601033273455144 a35.72357286031101,35.72357286031101 0 0,0 -0.6091233362824501,-0.0844189440642629 l 2.1466850988246033 -14.566239763898277" fill="#ffac0f" stroke="none" /><path d="M 95.86986931433489 120.58985236759428 l -3.2140999344353616 16.023183812175546 a37.3423639008346,37.3423639008346 0 0,0 -0.6291451046917292,-0.13184347375142824 l 3.4894365005564776 -15.965484357697576" fill="#ffc112" stroke="none" /><path d="M 95.51606077576429 120.51570834832081 l -2.804232485627574 12.830418286016837 a34.133291789479294,34.133291789479294 0 0,0 -0.5729189328897852,-0.13039448386180738 l 3.024671567910222 -12.780247068577344" fill="#ff970d" stroke="none" /><path d="M 94.81253420990036 120.34920634021253 l -2.5981885377351244 10.192081606793899 a31.518037419460185,31.518037419460185 0 0,0 -0.5245645381869734,-0.13854226222807586 l 2.773243518733587 -10.14584799526224" fill="#ff730a" stroke="none" /><path d="M 94.46302465271185 120.25689768951611 l -2.773243518733587 10.14584799526224 a31.518037419460185,31.518037419460185 0 0,0 -0.5221020409877468,-0.1475512519194651 l 2.947476727825948 -10.096607950004254" fill="#ff730a" stroke="none" /><path d="M 93.76903079525671 120.05430185196036 l -8.201209580462121 26.395497566024726 a48.640226669488094,48.640226669488094 0 0,0 -0.7974186577258633,-0.2553082725525854 l 8.654349583278925 -26.250416446812434" fill="#b1ff20" stroke="none" /><path d="M 93.08242187328487 119.8279376855182 l -1.4514939652368557 4.1604346732963595 a25.406364873893853,25.406364873893853 0 0,0 -0.41168042867095617,-0.14761395483332532 l 1.5228939545375386 -4.134833177423076" fill="#ff1b02" stroke="none" /><path d="M 92.06813273071674 119.44442032107085 l -5.558673262798542 13.626700457775057 a35.71685475257802,35.71685475257802 0 0,0 -0.5672662112842132,-0.23711732232345387 l 5.792410933580217 -13.52899809243163" fill="#ffac0f" stroke="none" /><path d="M 91.40352486487194 119.15986991738527 l -9.49417855420499 21.160676115686446 a44.192965314769665,44.192965314769665 0 0,0 -0.6913715937067711,-0.3173747890354785 l 9.85701814367918 -20.994114256316895" fill="#e6ff1a" stroke="none" /><path d="M 90.7491055286396 118.85261126421891 l -1.136448314821032 2.31599423899243 a23.57979535764093,23.57979535764093 0 0,0 -0.3628437489267548,-0.18193738822454167 l 1.1761459714305473 -2.296089009858586" fill="#ff0000" stroke="none" /><line stroke="#e1ed5e" stroke-width="0.3" x1="58.666819895761336" x2="56.23545636021788" y1="174.27360380694188" y2="178.64263932499728" /><path d="M 58.180547188652646 175.14741091055294 a86.0,86.0 0 0,1 -31.652253787137756,-30.449443065178592" fill="none" id="id20" stroke="none" /><text fill="#e1ed5e" style="font-size:6.75px; font-family:Arial;" text-anchor="middle"><textPath startOffset="22.20632615414155" xlink:href="#id20">August</textPath></text><path d="M 89.7882731507175 118.34994917583269 l -5.114614111728695 9.190699123607347 a31.517995431286856,31.517995431286856 0 0,0 -0.4717962251427038,-0.2678982097611391 l 5.272059103792606 -9.101297748051575" fill="#ff730a" stroke="none" /><path d="M 89.1626897886671 117.98757091392108 l -5.427963539480832 9.009235426562645 a31.518037419460185,31.518037419460185 0 0,0 -0.46229576678597895,-0.2839798182236481 l 5.582238506199119 -8.914467141510618" fill="#ff730a" stroke="none" /><path d="M 88.8546689885994 117.79835938074946 l -2.162443318498217 3.4532795198063004 a25.074469357797554,25.074469357797554 0 0,0 -0.36384033892084316,-0.23222011880910842 l 2.221565459465983 -3.4155449721733877" fill="#ff1602" stroke="none" /><path d="M 88.54995079064634 117.60387380957326 l -5.735546144674669 8.818113242461486 a31.519297064660122,31.519297064660122 0 0,0 -0.45226484207206424,-0.2997364760772964 l 5.8864856854866945 -8.718078745292871" fill="#ff730a" stroke="none" /><path d="M 88.24862548938628 117.40417183066458 l -5.88338419620204 8.713485337739368 a31.513754625780404,31.513754625780404 0 0,0 -0.446959754998678,-0.307422995084727 l 6.032500835823608 -8.61092155328954" fill="#ff730a" stroke="none" /><path d="M 87.65650970185807 116.9893568818739 l -3.7143443727424 5.112356441046483 a27.319220086342348,27.319220086342348 0 0,0 -0.3780655215968635,-0.2796838346072541 l 3.801794864757828 -5.047662657699462" fill="#ff3705" stroke="none" /><path d="M 85.70375840098266 115.38237550388516 l -2.174775041277847 2.3400000685293834 a24.19456519746938,24.19456519746938 0 0,0 -0.3026212038033464,-0.2861472368592259 l 2.2147320794720105 -2.302218194924227" fill="#ff0901" stroke="none" /><path d="M 85.44109423537348 115.13401014063109 l -2.593913889575548 2.6963784053153548 a24.74150314328131,24.74150314328131 0 0,0 -0.30437945311243636,-0.2978993582533142 l 2.639943295063779 -2.651328944139471" fill="#ff1101" stroke="none" /><path d="M 85.18274418774928 114.88116024355367 l -19.77676997099103 19.86206398588954 a49.02895317818814,49.02895317818814 0 0,0 -0.5929220144435327,-0.6006268702507525 l 20.115732610490095 -19.518696621658123" fill="#adff20" stroke="none" /><path d="M 84.43433777217949 114.09645910891817 l -12.610440455817201 11.420173175360286 a38.013040993453515,38.013040993453515 0 0,0 -0.43505228574911864,-0.4887858549967548 l 12.805151591214658 -11.201413150622669" fill="#ffca12" stroke="none" /><path d="M 84.19399662182784 113.82643327865904 l -6.075791786907489 5.314849538290785 a29.07235228743904,29.07235228743904 0 0,0 -0.32624369433010064,-0.37949512110622424 l 6.1663779908083685 -5.209477318023031" fill="#ff5007" stroke="none" /><path d="M 83.95833913139862 113.55231037782056 l -2.5537226948353022 2.1574351223839194 a24.34305637245509,24.34305637245509 0 0,0 -0.267662337677001,-0.3224165284496907 l 2.59048103240584 -2.1131573368204672" fill="#ff0b01" stroke="none" /><path d="M 83.50135304334701 112.99209946851258 l -16.526989148622768 13.014417939729919 a42.03607483892037,42.03607483892037 0 0,0 -0.44276634215620325,-0.5723351827404544 l 16.74856230799704 -12.728004762876212" fill="#fffe18" stroke="none" /><path d="M 83.06392112726016 112.41649034213515 l -3.1008339553472286 2.2733405499844017 a24.844899020109334,24.844899020109334 0 0,0 -0.2498926061635505,-0.3470789737361917 l 3.1395063538863868 -2.2196279707970716" fill="#ff1302" stroke="none" /><path d="M 82.6465618267979 111.8261652097733 l -17.37150379833538 11.83847672206911 a42.021861842247766,42.021861842247766 0 0,0 -0.40220303500719645,-0.6012389657113539 l 17.572709938753306 -11.537700842151935" fill="#fffd18" stroke="none" /><line stroke="#e1ed5e" stroke-width="0.3" x1="26.63291911575756" x2="22.317208475507996" y1="142.92168965132927" y2="145.44649492493687" /><path d="M 25.769776987707644 143.4266507060508 a86.0,86.0 0 0,1 -11.730757126820373,-40.83630448921669" fill="none" id="id21" stroke="none" /><text fill="#e1ed5e" style="font-size:6.75px; font-family:Arial;" text-anchor="middle"><textPath startOffset="21.46611528233685" xlink:href="#id21">September</textPath></text><path d="M 81.87401531095188 110.60418214915194 l -18.13900152164192 10.611797341716509 a42.01508075225478,42.01508075225478 0 0,0 -0.3598251621328429,-0.6273854999317969 l 18.318978679927138 -10.297991995926406" fill="#fffd17" stroke="none" /><path d="M 81.18737489456691 109.33194174019688 l -9.419236321406643 4.672381663690716 a31.514426436553702,31.514426436553702 0 0,0 -0.23687855155547663,-0.48803997731366 l 9.49826812957684 -4.509552730411771" fill="#ff730a" stroke="none" /><path d="M 81.02952815118164 109.00673069616217 l -9.509021358289031 4.51465810870161 a31.52633008369309,31.52633008369309 0 0,0 -0.22852893698210855,-0.492230999370799 l 9.585324912110966 -4.350307042051984" fill="#ff730a" stroke="none" /><path d="M 80.87730276802145 108.67885076344099 l -17.989391083469958 8.164498901207466 a40.755435552319426,40.755435552319426 0 0,0 -0.2844320202786746,-0.6413191178680323 l 18.127264188479913 -7.853631446846737" fill="#ffed16" stroke="none" /><path d="M 80.32549172779594 107.34259656027581 l -19.714324820122087 7.357456237770167 a42.04249902944004,42.04249902944004 0 0,0 -0.2472013636593926,-0.6801919840295445 l 19.838050444786706 -7.017016456734505" fill="#fffe18" stroke="none" /><path d="M 80.0844068197444 106.66101706037122 l -2.768722362034064 0.9260335216740713 a23.919479679890163,23.919479679890163 0 0,0 -0.1272376777096712,-0.3915973059954675 l 2.7842522907599845 -0.8782373157008004" fill="#ff0500" stroke="none" /><path d="M 79.97269907076064 106.31721596034903 l -20.29039223516537 6.4002029091494235 a42.27586929681473,42.27586929681473 0 0,0 -0.21293595907776589,-0.69588703465828 l 20.397554966749265 -6.049988901939096" fill="#fdff18" stroke="none" /><path d="M 79.76711848015287 105.62410040840567 l -10.135761092028389 2.817420644768838 a31.52005285178008,31.52005285178008 0 0,0 -0.1408074662778292,-0.5239969636829827 l 10.182756634647992 -2.6425327479103164" fill="#ff730a" stroke="none" /><path d="M 79.67330655649465 105.27499134158121 l -19.037741108855876 4.940494615692954 a40.668352080830566,40.668352080830566 0 0,0 -0.1700105323315208,-0.6791075663015442 l 19.119962955482453 -4.612059209994018" fill="#ffec16" stroke="none" /><path d="M 79.58551787078972 104.9243191809786 l -14.590224108863898 3.5194094064846237 a36.00869355131638,36.00869355131638 0 0,0 -0.14015858249831756,-0.6037995051118463 l 14.64864325729277 -3.267741244024203" fill="#ffb010" stroke="none" /><path d="M 79.4281124754447 104.21870165774334 l -25.109309598292903 5.149196246609312 a46.631848362711175,46.631848362711175 0 0,0 -0.154484800764875,-0.7877146708628787 l 25.194224332033446 -4.716217848678479" fill="#c9ff1d" stroke="none" /><path d="M 79.35854240842038 103.8639653848113 l -20.383910982159968 3.8157541003437188 a41.73797980235567,41.73797980235567 0 0,0 -0.12611539562069296,-0.7073221139968681 l 20.44657282011985 -3.464313235613637" fill="#fffa17" stroke="none" /><path d="M 79.23777060512086 103.15116336523772 l -17.80839544699901 2.7028486324349372 a39.01233852464889,39.01233852464889 0 0,0 -0.09505253917501685,-0.664797237603765 l 17.852282037190626 -2.3959059228507713" fill="#ffd714" stroke="none" /><path d="M 79.1416061653843 102.43462659150553 l -20.873372895084866 2.4363749724797894 a42.01508075225478,42.01508075225478 0 0,0 -0.0776632731928564,-0.7190654551746793 l 20.912218469778775 -2.076713195420328" fill="#fffd17" stroke="none" /><path d="M 79.07016306316243 101.71520430193888 l -16.753173729617227 1.3729259209656648 a37.8093353705373,37.8093353705373 0 0,0 -0.047573940719231565,-0.6491086234419953 l 16.774324229000793 -1.084344161026909" fill="#ffc812" stroke="none" /><path d="M 79.04373962182676 101.35467743843564 l -3.2599387675387015 0.21073251712724367 a24.266742867425677,24.266742867425677 0 0,0 -0.023358067877363674,-0.41707399301281955 l 3.263083186303597 -0.1545868077789865" fill="#ff0a01" stroke="none" /><line stroke="#e1ed5e" stroke-width="0.3" x1="15.007084014347285" x2="10.007500721073583" y1="101.09737516637583" y2="101.16192664675087" /><path d="M 14.007167355692545 101.11028546245083 a86.0,86.0 0 0,1 10.666146001902534,-42.60595125391555" fill="none" id="id22" stroke="none" /><text fill="#e1ed5e" style="font-size:6.75px; font-family:Arial;" text-anchor="middle"><textPath startOffset="22.20632615414155" xlink:href="#id22">October</textPath></text><path d="M 79.00175016825051 100.2711162175752 l -28.43414144551404 0.36712378129010187 a49.43651138262723,49.43651138262723 0 0,0 -0.003662310226450872,-0.8509919188331362 l 28.436248053029995 0.12237761574670962" fill="#a8ff21" stroke="none" /><path d="M 79.00019446554 99.90962569577889 l -21.46596091604984 -0.09238044033514196 a42.46615969835163,42.46615969835163 0 0,0 0.009437584050007703,-0.7309512852556076 l 21.461190324882118 0.4618679836512215" fill="#fbff18" stroke="none" /><path d="M 79.00486145842228 99.54816195383935 l -7.649208787258127 -0.16461923060260275 a28.650979973973996,28.650979973973996 0 0,0 0.01485526781437254,-0.49297401762502197 l 7.6452418249881084 0.2962633956526191" fill="#ff4a06" stroke="none" /><path d="M 79.01574976396665 99.18683210126434 l -23.095076955756817 -0.8949652710013146 a44.112411004233806,44.112411004233806 0 0,0 0.03593353259063533,-0.7585000797004657 l 23.07624981493268 1.2923764573247896" fill="#e7ff1a" stroke="none" /><path d="M 79.05617556472873 98.46500227214037 l -4.775208302824845 -0.34998067891308 a25.7880163753876,25.7880163753876 0 0,0 0.03625735689307528,-0.44243159061286014 l 4.768476462112273 0.43212618673371855" fill="#ff2103" stroke="none" /><path d="M 79.08570108090925 98.10471618934814 l -29.292117486483313 -2.6544937636502657 a50.412148578150486,50.412148578150486 0 0,0 0.08575556417838497,-0.863546828253552 l 29.242084796622702 3.158316122608248" fill="#9dff22" stroke="none" /><path d="M 79.12142395522702 97.74499172005258 l -16.718278801263196 -1.8056718543674952 a37.81550763201698,37.81550763201698 0 0,0 0.07546831313561529,-0.6465664192237941 l 16.684720135123992 2.093182011916151" fill="#ffc812" stroke="none" /><path d="M 79.16333360222342 97.38593545837743 l -20.851629855098505 -2.6159417825620968 a42.01508075225478,42.01508075225478 0 0,0 0.09620253249888597,-0.7168206090573839 l 20.803511323541784 2.97448073368414" fill="#fffd17" stroke="none" /><path d="M 79.21141760316559 97.0276538004421 l -20.803511323541784 -2.97448073368414 a42.01508075225478,42.01508075225478 0 0,0 0.10852716749912526,-0.7150584358939899 l 20.749228262603356 3.332138281970222" fill="#fffd17" stroke="none" /><path d="M 79.26566170972629 96.67025291283419 l -23.917517265854237 -3.8409368234130805 a45.22396391683009,45.22396391683009 0 0,0 0.13004719026733202,-0.7675458785071636 l 23.84785821406668 4.252068490236073" fill="#d9ff1c" stroke="none" /><path d="M 79.32604984820605 96.31383870115002 l -23.77136547001114 -4.238429848819695 a45.14626480208075,45.14626480208075 0 0,0 0.14299386292781407,-0.7638789335647199 l 23.694885883173466 4.646986859846988" fill="#daff1b" stroke="none" /><path d="M 79.46518482838121 95.60439243477599 l -20.552230634467346 -4.3993354556193776 a42.0178099835213,42.0178099835213 0 0,0 0.1574779757897595,-0.7059428871375231 l 20.473458271675547 4.75245651230686" fill="#fffd17" stroke="none" /><path d="M 79.54389044137918 95.25157060432595 l -20.47079972625656 -4.7518393903081195 a42.01508075225478,42.01508075225478 0 0,0 0.16959527343735134,-0.7030818985412072 l 20.385971652558393 5.1035065205087236" fill="#fffd17" stroke="none" /><path d="M 79.62865764111835 94.90015583598534 l -14.273703406636919 -3.5733365889595503 a35.71418850357149,35.71418850357149 0 0,0 0.15442758668569478,-0.5950724864772067 l 14.210079488080916 3.818505500985621" fill="#ffac0f" stroke="none" /><path d="M 79.71946130924805 94.55025226153421 l -20.295102775494275 -5.453661371584591 a42.01508075225478,42.01508075225478 0 0,0 0.19369598345432962,-0.6968275100928901 l 20.198220021473585 5.8022001850964235" fill="#fffd17" stroke="none" /><path d="M 79.81627453868168 94.20196356495316 l -20.201892425113858 -5.803255130584624 a42.01890167602792,42.01890167602792 0 0,0 0.20568072867327064,-0.6934531677189462 l 20.09900579932888 6.150137685050109" fill="#fffd17" stroke="none" /><path d="M 79.91906864156998 93.8553929516997 l -28.122250783505756 -8.605187543049707 a50.40935636462396,50.40935636462396 0 0,0 0.26103528911558316,-0.8275532008216988 l 27.969960010621968 9.08799091029782" fill="#9dff22" stroke="none" /><path d="M 80.02781315780177 93.51064311812611 l -14.005984829510162 -4.550820336247133 a35.72676396148418,35.72676396148418 0 0,0 0.19507273526670904,-0.5832426491210584 l 13.92557480047168 4.791236088290513" fill="#ffac0f" stroke="none" /><path d="M 80.14247586403 93.16781622104843 l -20.47847935020837 -7.045829755817838 a42.65668103484185,42.65668103484185 0 0,0 0.24486340388708622,-0.6922618164493842 l 20.354162865511476 7.397289198693834" fill="#f9ff18" stroke="none" /><path d="M 80.38941819471856 92.48833698450439 l -16.26784723891719 -6.2312575761213145 a38.42043124519927,38.42043124519927 0 0,0 0.24187756318773113,-0.6155520154657713 l 16.158176125847767 6.510358596482849" fill="#ffd013" stroke="none" /><path d="M 80.52162464483688 92.15188598940014 l -19.492363381499167 -7.853749985031337 a42.01508075225478,42.01508075225478 0 0,0 0.27605571273981966,-0.6684908049421877 l 19.35428598187315 8.188115360426835" fill="#fffd17" stroke="none" /><path d="M 80.65960295795068 91.81776055985345 l -14.012889749896779 -5.92835911965753 a36.215338346365776,36.215338346365776 0 0,0 0.24783240793158903,-0.5720313670750125 l 13.908766632122509 6.1686896313191415" fill="#ffb310" stroke="none" /><path d="M 80.95270993114464 91.15688171328213 l -43.10747521753313 -20.013582037778725 a68.52681228120746,68.52681228120746 0 0,0 0.5059295593497927,-1.0656166801145628 l 42.756587464341585 20.752641133533817" fill="#39ff8c" stroke="none" /><path d="M 81.10775173730289 90.83032412892265 l -3.69687071294473 -1.7943394403680275 a25.10931954166243,25.10931954166243 0 0,0 0.19207432218672724,-0.3872101129944299 l 3.66543637780459 1.8577091418614189" fill="#ff1702" stroke="none" /><path d="M 81.26839172434947 90.50648371742162 l -18.73946085157856 -9.497496109421647 a42.00880352034177,42.00880352034177 0 0,0 0.3324508033005236,-0.6421891350112263 l 18.573200615117923 9.818657966693207" fill="#fffd17" stroke="none" /><path d="M 81.43458229118936 90.18545643968196 l -13.01069313530981 -6.878057716192886 a35.71685475257802,35.71685475257802 0 0,0 0.2920140324956133,-0.5410576529689056 l 12.890371003595725 7.100996352494265" fill="#ffac0f" stroke="none" /><path d="M 81.6062741919709 89.86733742301443 l -19.326362232209853 -10.646429624067721 a43.06478508553424,43.06478508553424 0 0,0 0.363266552727909,-0.6462106629317327 l 19.140238038189516 10.97752379693424" fill="#f4ff19" stroke="none" /><line stroke="#e1ed5e" stroke-width="0.3" x1="26.266209847984243" x2="21.928928074336255" y1="57.711370442889674" y2="55.22380399835377" /><path d="M 25.398753493254645 57.213857153982495 a86.0,86.0 0 0,1 29.58750427330803,-30.492523968695096" fill="none" id="id23" stroke="none" /><text fill="#e1ed5e" style="font-size:6.75px; font-family:Arial;" text-anchor="middle"><textPath startOffset="21.46611528233685" xlink:href="#id23">November</textPath></text><path d="M 81.78341655067845 89.55222093294921 l -3.500459975068013 -2.0076230295493085 a25.03531538616623,25.03531538616623 0 0,0 0.21761688668232693,-0.37197780089034477 l 3.465383413915361 2.0675802427935452" fill="#ff1602" stroke="none" /><path d="M 81.96595687620814 89.24020034530311 l -36.77908852926633 -21.943810455636658 a63.827936797801954,63.827936797801954 0 0,0 0.5710600453472771,-0.9386725644220615 l 36.39591268563284 22.573650793265795" fill="#33ff55" stroke="none" /><path d="M 82.15384107792192 88.93136811851018 l -3.5735077094517234 -2.2163784114156697 a25.205031582770854,25.205031582770854 0 0,0 0.23185316845429876,-0.36673603283586304 l 3.5348269447514618 2.2775620919657484" fill="#ff1802" stroke="none" /><path d="M 82.34701348167596 88.62581576622439 l -8.841691141981723 -5.696884427043094 a31.518079407633515,31.518079407633515 0 0,0 0.2977758572157494,-0.45353305976687247 l 8.742318649408054 5.848235550787633" fill="#ff730a" stroke="none" /><path d="M 82.7489923806493 88.02491185347247 l -17.26658664147562 -11.985902596749737 a42.01896465828791,42.01896465828791 0 0,0 0.4175632215757873,-0.5906135643153255 l 17.057710800095954 12.281342661396849" fill="#fffd17" stroke="none" /><path d="M 83.17141714833178 87.43820079747576 l -16.83784157389083 -12.568710432688864 a42.01155374569497,42.01155374569497 0 0,0 0.4375684567976881,-0.5757887979477855 l 16.618997176869033 12.856684006517677" fill="#fffd17" stroke="none" /><path d="M 83.39014120810768 87.1503855733568 l -49.82957637567698 -38.54884327992962 a84.0,84.0 0 0,0 0.8945836776241158,-1.1360304241878092 l 49.15863861745889 39.40086609807048" fill="#4dd2ff" stroke="none" /><path d="M 83.6137871275137 86.86637796730984 l -3.3362600141603647 -2.6740271452430684 a25.27563469622723,25.27563469622723 0 0,0 0.27502479246734163,-0.3371478762674504 l 3.28973672961663 2.731059191118601" fill="#ff1902" stroke="none" /><line stroke="#e1ed5e" stroke-width="0.3" x1="56.762969772571076" x2="54.21961505331055" y1="26.818313649435495" y2="22.513508569990535" /><path d="M 56.25429882871897 25.957352633546506 a86.0,86.0 0 0,1 42.265352541879196,-11.944610805530505" fill="none" id="id24" stroke="none" /><text fill="#e1ed5e" style="font-size:6.75px; font-family:Arial;" text-anchor="middle"><textPath startOffset="22.20632615414155" xlink:href="#id24">December</textPath></text></svg>