<?xml version="1.0" encoding="utf-8" ?>
<svg baseProfile="full" height="200mm" version="1.1" viewBox="0,0,200,200" width="200mm" xmlns="http://www.w3.org/2000/svg" xmlns:ev="http://www.w3.org/2001/xml-events" xmlns:xlink="http://www.w3.org/1999/xlink"><defs /><rect fill="#1a1a1a" height="200" width="200" x="0" y="0" /><text alignment-baseline="middle" fill="#e1ed5e" style="dominant-baseline: central; font-size:9.0px; font-family:Arial;" text-anchor="middle" x="100.0" y="100.0">2024</text><line stroke="#e1ed5e" stroke-width="0.3" x1="100.0" x2="100.0" y1="15.0" y2="10.0" /><path d="M 100.0 14.0 a86.0,86.0 0 0,1 42.35913384403234,11.155469271406648" fill="none" id="id1" stroke="none" /><text fill="#e1ed5e" style="font-size:6.75px; font-family:Arial;" text-anchor="middle"><textPath startOffset="22.145653131862478" xlink:href="#id1">January</textPath></text><path d="M 108.4095320186766 80.7573450057729 l 17.46279610944681 -39.95829494701148 a64.607506040044,64.607506040044 0 0,0 1.0124506815572527,0.4528563120077866 l -18.146160193859696 39.65263488409384" fill="red" stroke="none" /><path d="M 110.02825361518725 81.54914285379988 l 23.650538592394827 -43.51432719432889 a70.52620161980391,70.52620161980391 0 0,0 1.05875214037704,0.5872719648966307 l -24.394034920927968 43.10192231399911" fill="red" stroke="none" /><line stroke="#e1ed5e" stroke-width="0.3" x1="143.13028292997686" x2="145.6673583964461" y1="26.7553504044142" y2="22.446841604673864" /><path d="M 143.63769802327073 25.89364864446614 a86.0,86.0 0 0,1 29.32050498858742,28.57503671076993" fill="none" id="id2" stroke="none" /><text fill="#e1ed5e" style="font-size:6.75px; font-family:Arial;" text-anchor="middle"><textPath startOffset="20.669276256404974" xlink:href="#id2">February</textPath></text><path d="M 112.7482090630111 83.31218511350987 l 19.392846380358616 -25.385858430621408 a52.945646009929746,52.945646009929746 0 0,0 0.7175144918709349,0.557943608726444 l -19.825770816864775 25.049213770274175" fill="red" stroke="none" /><path d="M 113.31354834802062 83.75963576809568 l 22.218887392104236 -27.103429877812225 a56.046752603978774,56.046752603978774 0 0,0 0.7388180765552428,0.6163483164378362 l -22.680879802821373 26.718019377462518" fill="red" stroke="none" /><path d="M 113.86319453409587 84.22622945171908 l 19.742880472880298 -22.46377382755669 a50.906562222061886,50.906562222061886 0 0,0 0.6514463634885697,0.5825273552490939 l -20.125591863192245 22.12155094242421" fill="red" stroke="none" /><path d="M 114.91283532996326 85.21462403516908 l 28.77949285501725 -28.533515761663264 a61.52679028387364,61.52679028387364 0 0,0 0.7371882151546951,0.7564200514858621 l -29.265067871322756 28.035273018109656" fill="red" stroke="none" /><path d="M 115.41159269507618 85.73525988315684 l 18.85301025298254 -17.450064831060345 a46.68931213962869,46.68931213962869 0 0,0 0.539377831961198,0.5928707224141911 l -19.149785785785618 17.12385653308848" fill="red" stroke="none" /><path d="M 116.35404254752997 86.82634096563983 l 12.836049656359684 -10.339812986883672 a37.48259395193183,37.48259395193183 0 0,0 0.39933878731803857,0.5045515124074016 l -13.011654874319282 10.117941530561593" fill="red" stroke="none" /><line stroke="#e1ed5e" stroke-width="0.3" x1="172.87174338648825" x2="177.1583165268699" y1="56.24261187166439" y2="53.66864786411523" /><path d="M 173.72905801456457 55.72781907015455 a86.0,86.0 0 0,1 12.242430191666344,42.057860355516425" fill="none" id="id3" stroke="none" /><text fill="#e1ed5e" style="font-size:6.75px; font-family:Arial;" text-anchor="middle"><textPath startOffset="22.145653131862474" xlink:href="#id3">March</textPath></text><path d="M 120.86939407059847 97.66154086499901 l 44.91857884042639 -5.0332204502593285 a66.19969063107081,66.19969063107081 0 0,0 0.11685067381655527,1.1304242707890946 l -44.99836190672461 4.2613916571873025" fill="red" stroke="none" /><path d="M 120.93736805541906 98.37931529534042 l 21.399551357204302 -1.6564606152692458 a42.46356587474604,42.46356587474604 0 0,0 0.05001811497845203,0.7272524143194299 l -21.42483343334782 1.2888647767954817" fill="red" stroke="none" /><line stroke="#e1ed5e" stroke-width="0.3" x1="184.99686870605535" x2="189.99668451229388" y1="99.2704041080226" y2="99.22748670261217" /><path d="M 185.99683186730306 99.26182062694052 a86.0,86.0 0 0,1 -10.086455211305974,41.156179273409016" fill="none" id="id4" stroke="none" /><text fill="#e1ed5e" style="font-size:6.75px; font-family:Arial;" text-anchor="middle"><textPath startOffset="21.40746469413373" xlink:href="#id4">April</textPath></text><path d="M 120.96210409425399 101.26102812881392 l 23.32233892857684 1.403013995466651 a44.364501735985854,44.364501735985854 0 0,0 -0.05225723989684949,0.7598087992125409 l -23.294817727514925 -1.8031662188335351" fill="red" stroke="none" /><path d="M 120.93736805541906 101.62068470465957 l 21.73254018806562 1.6822360567464554 a42.7975508068339,42.7975508068339 0 0,0 -0.0629865358499341,0.7319990225564614 l -21.700460029517945 -2.055056126678574" fill="red" stroke="none" /><path d="M 120.9064616781168 101.97986365728391 l 42.48674281187822 4.023538717584817 a63.676834214531304,63.676834214531304 0 0,0 -0.11239751898448877,1.0873440373652585 l -42.41141290041207 -4.752287277233007" fill="red" stroke="none" /><path d="M 120.51834098615036 104.47187691870673 l 41.582064387045975 9.062617396314922 a63.55818502662475,63.55818502662475 0 0,0 -0.24148822972537926,1.064041697738692 l -41.42036529576293 -9.775093427992632" fill="red" stroke="none" /><path d="M 120.16314734710363 105.8691983318838 l 41.11434686786979 11.967787166325314 a63.82075954522497,63.82075954522497 0 0,0 -0.3152249542949625,1.0492813514878374 l -40.9028455935712 -12.671806121403874" fill="red" stroke="none" /><path d="M 119.94978838288452 106.5578916946017 l 36.354936246065606 11.950589644869998 a59.26875987428347,59.26875987428347 0 0,0 -0.3260193243241231,0.9638182025267081 l -36.14443150016911 -12.572909521870868" fill="red" stroke="none" /><path d="M 119.0197475246899 108.90220220490707 l 38.51080168927102 18.02499971495058 a63.520377014724694,63.520377014724694 0 0,0 -0.4707184859856004,0.983620593776173 l -38.195703945325505 -18.68343281079186" fill="red" stroke="none" /><line stroke="#e1ed5e" stroke-width="0.3" x1="174.33088141563837" x2="178.70328620479359" y1="141.23008692659167" y2="143.65538615756765" /><path d="M 175.20536237346943 141.71514677278685 a86.0,86.0 0 0,1 -30.301960400862466,31.631185727798858" fill="none" id="id5" stroke="none" /><text fill="#e1ed5e" style="font-size:6.75px; font-family:Arial;" text-anchor="middle"><textPath startOffset="22.145653131862474" xlink:href="#id5">May</textPath></text><path d="M 117.62189284568427 111.42229804090321 l 17.823668657331034 11.55308668422645 a42.2404561236235,42.2404561236235 0 0,0 -0.39962601526692026,0.6050847214343799 l -17.622718203143386 -11.857351283999892" fill="red" stroke="none" /><path d="M 117.21940702142032 112.02048342749411 l 34.90281480303993 24.364875421722378 a63.56587407174149,63.56587407174149 0 0,0 -0.6322833972539357,0.8893857812568342 l -34.47941630725604 -24.960438429688715" fill="red" stroke="none" /><path d="M 116.57777611688842 112.89097897827486 l 22.837466416008844 17.758552016269192 a49.9295012403752,49.9295012403752 0 0,0 -0.5319478823236057,0.6720987719495796 l -22.529252103043678 -18.147970732133455" fill="red" stroke="none" /><path d="M 116.1254893667686 113.45245675266167 l 32.637387481926034 27.227269426332686 a63.50321472617681,63.50321472617681 0 0,0 -0.7055069157329578,0.8310853727615175 l -32.165186002685964 -27.783521581543763" fill="red" stroke="none" /><path d="M 115.89218393027572 113.72728997021213 l 20.73565875088823 17.910968161810775 a48.40018839947432,48.40018839947432 0 0,0 -0.5485099686378525,0.6241036557237106 l -20.425137718291793 -18.26428409534578" fill="red" stroke="none" /><path d="M 115.16444852881244 114.52719865689866 l 15.522142917074758 14.869861789479547 a42.495341597106986,42.495341597106986 0 0,0 -0.5091613731160599,0.5224444234858563 l -15.26459474280789 -15.13412890503314" fill="red" stroke="none" /><path d="M 114.13192950727249 115.5334660781643 l 29.50228807217955 32.42818263150821 a64.8403014391589,64.8403014391589 0 0,0 -0.8297550794293552,0.7419721085494544 l -28.941267965926816 -32.92985026994105" fill="red" stroke="none" /><path d="M 113.59037401385872 116.0094264158162 l 27.518780194701968 32.41705387437035 a63.52233113668807,63.52233113668807 0 0,0 -0.837362457738203,0.6985575440730357 l -26.95824340280187 -32.88467360235526" fill="red" stroke="none" /><path d="M 112.7482090630111 116.68781488649013 l 38.24462718903332 50.063444659470385 a84.0,84.0 0 0,0 -1.1533880443569346,0.8655238909439404 l -37.379586155765615 -50.71258757767834" fill="red" stroke="none" /><line stroke="#e1ed5e" stroke-width="0.3" x1="143.1302829299769" x2="145.66735839644613" y1="173.24464959558577" y2="177.55315839532614" /><path d="M 143.63769802327073 174.10635135553383 a86.0,86.0 0 0,1 -40.68552437913181,11.842963189579606" fill="none" id="id6" stroke="none" /><text fill="#e1ed5e" style="font-size:6.75px; font-family:Arial;" text-anchor="middle"><textPath startOffset="21.407464694133747" xlink:href="#id6">June</textPath></text><path d="M 110.65571695917076 118.09573695890943 l 21.56854021296756 36.6280966148987 a63.50669816098108,63.50669816098108 0 0,0 -0.9441556908178319,0.5451085422505944 l -20.936592054289328 -36.992952054425466" fill="red" stroke="none" /><path d="M 110.02825361518725 118.45085714620011 l 18.2723326886992 33.61903409148436 a59.26378960755054,59.26378960755054 0 0,0 -0.8980190796188185,0.4781445787712093 l -17.69252479329383 -33.92774913797813" fill="red" stroke="none" /><path d="M 109.71004243097381 118.62028667847754 l 14.538929366075072 27.880314089142814 a52.44347914625504,52.44347914625504 0 0,0 -0.8018177882139959,0.4094138758399975 l -14.058184356147494 -28.125785916655648" fill="red" stroke="none" /><path d="M 103.2317021107853 120.74984581791261 l 2.5756423001682687 16.53747120819822 a37.73684221173161,37.73684221173161 0 0,0 -0.6409421052651814,0.09419641742039997 l -2.291375089295402 -16.5792486989175" fill="red" stroke="none" /><line stroke="#e1ed5e" stroke-width="0.3" x1="101.45913802915013" x2="101.54496967792366" y1="184.9874750549273" y2="189.98673829345242" /><path d="M 101.47630435890484 185.9873277026323 a86.0,86.0 0 0,1 -42.54439059252881,-10.42667462771756" fill="none" id="id7" stroke="none" /><text fill="#e1ed5e" style="font-size:6.75px; font-family:Arial;" text-anchor="middle"><textPath startOffset="22.145653131862474" xlink:href="#id7">July</textPath></text><path d="M 93.27111125876986 119.89276391827306 l -6.0911361947760225 18.00736183588259 a40.00965597878382,40.00965597878382 0 0,0 -0.648716996344775,-0.22565744602469628 l 6.399358963165819 -17.900145957289304" fill="red" stroke="none" /><line stroke="#e1ed5e" stroke-width="0.3" x1="58.13341422392154" x2="55.67067388415222" y1="173.97424548756322" y2="178.32567169271397" /><path d="M 57.64086615596768 174.84453072859336 a86.0,86.0 0 0,1 -31.369924170532247,-30.572349798747897" fill="none" id="id8" stroke="none" /><text fill="#e1ed5e" style="font-size:6.75px; font-family:Arial;" text-anchor="middle"><textPath startOffset="22.145653131862474" xlink:href="#id8">August</textPath></text><path d="M 85.60350026404147 115.28858382429668 l -14.595737750158486 15.500167690996884 a42.2906260809875,42.2906260809875 0 0,0 -0.5242577885172846,-0.5022271022086021 l 14.859668024541085 -15.247328458482698" fill="red" stroke="none" /><path d="M 84.83555147118756 114.52719865689866 l -15.368762058210374 14.722926396302869 a42.282937035870745,42.282937035870745 0 0,0 -0.4976181533767993,-0.528453234461604 l 15.619236045323426 -14.456931701896774" fill="red" stroke="none" /><path d="M 84.58840730492382 114.26474011684316 l -15.613967281068616 14.452055012360605 a42.27575776170096,42.27575776170096 0 0,0 -0.4883902872209712,-0.5368264790415074 l 15.859755269131467 -14.181890957761423" fill="red" stroke="none" /><line stroke="#e1ed5e" stroke-width="0.3" x1="26.387840678322732" x2="22.057713659400548" y1="142.50000000000003" y2="145.00000000000006" /><path d="M 25.521815274538298 143.00000000000003 a86.0,86.0 0 0,1 -11.493303480769221,-40.785679425670985" fill="none" id="id9" stroke="none" /><text fill="#e1ed5e" style="font-size:6.75px; font-family:Arial;" text-anchor="middle"><textPath startOffset="21.40746469413373" xlink:href="#id9">September</textPath></text><path d="M 81.81346652052679 110.50000000000001 l -26.468461896323397 15.281573600877685 a51.56314720175534,51.56314720175534 0 0,0 -0.4359949779772871,-0.7703613498539601 l 26.726890239322064 -14.824955480924602" fill="red" stroke="none" /><path d="M 80.5471966667186 107.91128576633889 l -16.999512269426546 6.913553648163656 a39.35158416716172,39.35158416716172 0 0,0 -0.24911674958878846,-0.6279369440690791 l 17.115687693981457 -6.620715686881011" fill="red" stroke="none" /><path d="M 80.41425534168474 107.57618678355246 l -19.81000714587804 7.662936331448684 a42.2404561236235,42.2404561236235 0 0,0 -0.2557947581241677,-0.6785259861697942 l 19.93863258781664 -7.321742065084745" fill="red" stroke="none" /><path d="M 79.94057633289273 106.21446072829308 l -21.9214093885244 6.791308664426131 a43.94929329968126,43.94929329968126 0 0,0 -0.21707535401346484,-0.7225732535781958 l 22.034761062541495 -6.413997807257212" fill="red" stroke="none" /><path d="M 79.407916724674 104.11899336999214 l -20.866108600314128 4.173806109516581 a42.27945360106648,42.27945360106648 0 0,0 -0.13624797073660389,-0.7129069558062207 l 20.93468286333289 -3.814996588677045" fill="red" stroke="none" /><path d="M 79.2786578344484 103.40968896794605 l -25.24049302064721 4.153313521413442 a46.579923790592034,46.579923790592034 0 0,0 -0.12305641277215522,-0.7901104447114902 l 25.308070925557633 -3.7194148947705017" fill="red" stroke="none" /><path d="M 79.0935383218832 101.97986365728391 l -34.02320222930355 3.2220326249050304 a55.17542661287549,55.17542661287549 0 0,0 -0.08120345489098302,-0.9437072353054116 l 34.07349930689227 -2.637504342223957" fill="red" stroke="none" /><path d="M 79.03789590574601 101.26102812881392 l -25.477026215809154 1.532634632106015 a46.52308433000521,46.52308433000521 0 0,0 -0.041114023749653686,-0.7976010770435664 l 25.49958182901538 -1.0950617616857177" fill="red" stroke="none" /><line stroke="#e1ed5e" stroke-width="0.3" x1="15.003131293944662" x2="10.003315487706104" y1="100.72959589197737" y2="100.7725132973878" /><path d="M 14.003168132696942 100.73817937305945 a86.0,86.0 0 0,1 10.791469493833604,-42.45332614584628" fill="none" id="id10" stroke="none" /><text fill="#e1ed5e" style="font-size:6.75px; font-family:Arial;" text-anchor="middle"><textPath startOffset="22.145653131862435" xlink:href="#id10">October</textPath></text><path d="M 79.00077361379809 100.18025310272382 l -21.296808373844957 0.1828074861854249 a42.29759295059604,42.29759295059604 0 0,0 0.0,-0.7261211778184771 l 21.296808373844957 0.18280748618541706" fill="red" stroke="none" /><path d="M 79.00696218219943 99.45929381324524 l -42.484112443992466 -1.0942400350354995 a63.49820197853163,63.49820197853163 0 0,0 0.03741952974388276,-1.0894287802050462 l 42.45906822725173 1.8233750798046844" fill="red" stroke="none" /><path d="M 79.22317932658666 96.9465228501225 l -25.217665594401698 -3.7061284243691284 a46.4885473483482,46.4885473483482 0 0,0 0.12281501140694562,-0.7885604747771896 l 25.150329090856484 4.138477081077768" fill="red" stroke="none" /><path d="M 79.2786578344484 96.59031103205396 l -20.958607575713742 -3.4487309008981404 a42.2404561236235,42.2404561236235 0 0,0 0.12387553331355342,-0.714481157510623 l 20.896317224907953 3.808005091329356" fill="red" stroke="none" /><path d="M 79.407916724674 95.88100663000787 l -50.178334488886385 -10.037072223995192 a72.17233696938474,72.17233696938474 0 0,0 0.2534358734894101,-1.2127823994657978 l 49.99864090457261 10.896971074746398" fill="red" stroke="none" /><path d="M 79.73907114497095 94.47779374421319 l -24.67073251622711 -6.724117853172191 a46.57066295172213,46.57066295172213 0 0,0 0.21684522135741835,-0.7695071915633852 l 24.551668802795106 7.146632968638589" fill="red" stroke="none" /><path d="M 79.94057633289273 93.78553927170692 l -7.116689351083041 -2.20476855276196 a28.450387351746674,28.450387351746674 0 0,0 0.1485317287407559,-0.4652735247649794 l 7.077792906565028 2.3266111112183308" fill="red" stroke="none" /><path d="M 80.05021161711548 93.44210830539832 l -25.570969448409667 -8.405685561682773 a47.91709546539862,47.91709546539862 0 0,0 0.2635772896267744,-0.7792194221664462 l 25.42290673721053 8.843406658323381" fill="red" stroke="none" /><path d="M 80.28708602549916 92.7611449362534 l -39.92073139467472 -14.659445527871357 a63.527216441596494,63.527216441596494 0 0,0 0.3847006035261975,-1.0204640560344065 l 39.663200107334085 15.342577864099908" fill="red" stroke="none" /><path d="M 80.41425534168474 92.42381321644754 l -39.649412342360556 -15.337244460413222 a63.51243308413446,63.51243308413446 0 0,0 0.4020679528728451,-1.0134738914658974 l 39.380285714521584 16.0156193690927" fill="red" stroke="none" /><path d="M 80.68587082218212 91.75594674310238 l -54.72984954671801 -23.360918333472238 a80.50704947138237,80.50704947138237 0 0,0 0.553451914402411,-1.266406290039445 l 54.320763750298624 24.29698669328755" fill="red" stroke="none" /><path d="M 81.46374523516351 90.13048839642627 l -15.036297230243369 -8.005981352295008 a38.03484581114604,38.03484581114604 0 0,0 0.3118035991929473,-0.5736835033437437 l 14.896648281435072 8.262919689113371" fill="red" stroke="none" /><line stroke="#e1ed5e" stroke-width="0.3" x1="26.387840678322718" x2="22.05771365940052" y1="57.49999999999999" y2="54.99999999999999" /><path d="M 25.521815274538284 56.99999999999999 a86.0,86.0 0 0,1 29.574782752854787,-30.34633250058573" fill="none" id="id11" stroke="none" /><text fill="#e1ed5e" style="font-size:6.75px; font-family:Arial;" text-anchor="middle"><textPath startOffset="21.40746469413373" xlink:href="#id11">November</textPath></text><path d="M 84.83555147118756 85.47280134310135 l -15.578617749308625 -14.923963401247185 a42.57354895655416,42.57354895655416 0 0,0 0.5100984209200718,-0.523405917082183 l 15.32013252723775 15.189192010397099" fill="red" stroke="none" /><path d="M 86.13680546590413 84.22622945171909 l -10.590877531399343 -12.050474490159216 a37.04308643382181,37.04308643382181 0 0,0 0.481243529145954,-0.4156866985593803 l 10.38245452249054 12.230505321183307" fill="red" stroke="none" /><path d="M 87.83215693770416 82.88440491214696 l -17.293713068293627 -24.325773181576363 a50.84653669305653,50.84653669305653 0 0,0 0.7157374211086079,-0.49964030690319355 l 16.87358055601125 24.619058304284685" fill="red" stroke="none" /><line stroke="#e1ed5e" stroke-width="0.3" x1="56.869717070023135" x2="54.33264160355391" y1="26.7553504044142" y2="22.446841604673864" /><path d="M 56.362301976729285 25.89364864446614 a86.0,86.0 0 0,1 42.16139366436587,-11.88097634709845" fill="none" id="id12" stroke="none" /><text fill="#e1ed5e" style="font-size:6.75px; font-family:Arial;" text-anchor="middle"><textPath startOffset="22.145653131862474" xlink:href="#id12">December</textPath></text><path d="M 90.93487009805054 81.0573650232925 l -14.689338285337591 -30.69506738438305 a55.02886746562249,55.02886746562249 0 0,0 0.8555974423997109,-0.4004628046905513 l 14.160252129066357 30.942706420644146" fill="red" stroke="none" /><path d="M 93.61358852112211 79.99465700312896 l -11.638859718004593 -36.45856229609214 a59.27126624810605,59.27126624810605 0 0,0 0.9719340825759875,-0.30110766325566496 l 11.011285002556988 36.65298654715445" fill="red" stroke="none" /><path d="M 96.76829788921471 79.25015418208739 l -3.594393374966595 -23.07858391111421 a44.35681269086909,44.35681269086909 0 0,0 0.7533791181950207,-0.1107207863398936 l 3.1976891511638894 23.13688577075299" fill="red" stroke="none" /><path d="M 97.12497278360702 79.19773525538626 l -3.1996723710972628 -23.151235362250976 a44.37129868194541,44.37129868194541 0 0,0 0.7554153976334887,-0.09780364716679923 l 2.80177915157298 23.20275060561817" fill="red" stroke="none" /><path d="M 98.5590905019552 79.04949213459386 l -2.931638070904067 -42.62537414483036 a63.72606959182586,63.72606959182586 0 0,0 1.0920088599531868,-0.06569254131756833 l 2.1994848588183964 42.66941866397262" fill="red" stroke="none" /></svg>