<?xml version="1.0" encoding="utf-8" ?>
<svg baseProfile="full" height="200mm" version="1.1" viewBox="0,0,200,200" width="200mm" xmlns="http://www.w3.org/2000/svg" xmlns:ev="http://www.w3.org/2001/xml-events" xmlns:xlink="http://www.w3.org/1999/xlink"><defs /><rect fill="#1a1a1a" height="200" width="200" x="0" y="0" /><rect fill="#1a1a1a" height="200" width="180" x="10" y="0" /><text alignment-baseline="middle" fill="#e1ed5e" style="dominant-baseline: central; font-size:9.0px; font-family:Arial;" text-anchor="middle" x="100.0" y="100.0">2026</text><line stroke="#e1ed5e" stroke-width="0.3" x1="100.0" x2="100.0" y1="15.0" y2="10.0" /><path d="M 100.0 14.0 a86.0,86.0 0 0,1 42.46469731375804,11.215312516191453" fill="none" id="id25" stroke="none" /><text fill="#e1ed5e" style="font-size:6.75px; font-family:Arial;" text-anchor="middle"><textPath startOffset="22.20632615414155" xlink:href="#id25">January</textPath></text><path d="M 100.36148047927253 79.00311137660856 l 0.2566510249656263 -14.907784224275407 a35.909993300674905,35.909993300674905 0 0,0 0.6179483385330784,0.01595978245912722 l -0.5132259986935724 14.90115764967392" fill="#ffb911" stroke="none" /><path d="M 100.72285384407766 79.0124445844662 l 0.356595310539872 -10.353495249685619 a31.35963436134508,31.35963436134508 0 0,0 0.5393247353580145,0.023224457604233213 l -0.5347608782872181 10.34582306555719" fill="#ff7c0b" stroke="none" /><path d="M 101.08401301168833 79.027996857942 l 0.7634501239756141 -14.770190234049132 a35.78990789835416,35.78990789835416 0 0,0 0.6149693827743383,0.03709663257748582 l -1.0175815555895644 14.754860332091342" fill="#ffb711" stroke="none" /><path d="M 101.44485096284872 79.0497635885617 l 0.17876010916589008 -2.5920088952122895 a23.598165754814083,23.598165754814083 0 0,0 0.4050004976708871,0.03143583332495615 l -0.22335079619911835 2.5885477996988686" fill="#ff0e01" stroke="none" /><path d="M 102.52436894288641 79.15227682838746 l 0.8899890411516524 -7.350052854985331 a28.403739424402243,28.403739424402243 0 0,0 0.4848724875690111,0.06295036482002853 l -1.0163762572285098 7.333644167001166" fill="#ff5307" stroke="none" /><path d="M 103.2404852339499 79.25152402106235 l 1.3704986861280992 -8.77515464979714 a29.881531724682134,29.881531724682134 0 0,0 0.5075176020013696,0.08374475290884315 l -1.521345494268344 8.750263633948672" fill="#ff6809" stroke="none" /><path d="M 103.95276090670814 79.375362276772 l 2.7852715369028074 -14.532934767683546 a35.797429861162584,35.797429861162584 0 0,0 0.6041815046447905,0.12119312598725092 l -3.035019451014723 14.482837685619087" fill="#ffb711" stroke="none" /><path d="M 104.307194497241 79.44645832069477 l 1.5174369810632036 -7.241071712916548 a28.398360260429225,28.398360260429225 0 0,0 0.47757559752761397,0.10437952801503689 l -1.6418553027443454 7.21387868680564" fill="#ff5307" stroke="none" /><path d="M 104.66035177308747 79.52364482259891 l 2.4635405276328735 -10.824146608210548 a32.100954090857485,32.100954090857485 0 0,0 0.5377312035746259,0.1272636024877234 l -2.649495418170023 10.780137093581954" fill="#ff860c" stroke="none" /><path d="M 105.36241919743992 79.69619591428918 l 3.7811385164054685 -14.31657854997301 a35.807478848804486,35.807478848804486 0 0,0 0.5945782598169264,0.16252069873185146 l -4.027014665446106 14.249371310414864" fill="#ffb711" stroke="none" /><path d="M 105.71112130821622 79.79150937346287 l 0.7115558078867936 -2.5178013384607185 a23.61641648972254,23.61641648972254 0 0,0 0.3902441687738802,0.11392297406479904 l -0.7547901943841009 2.505180035477216" fill="#ff0f01" stroke="none" /><path d="M 106.0581310904928 79.89281104454417 l 2.1528758672616335 -7.145484509010399 a28.462762448875424,28.462762448875424 0 0,0 0.4678934252577092,0.14537676481605888 l -2.275554665230061 7.10736760931182" fill="#ff5407" stroke="none" /><path d="M 109.41281617654863 81.2277094730956 l 5.264158022530285 -10.498484398821786 a32.74434052463034,32.74434052463034 0 0,0 0.5016737216486817,0.256976765341518 l -5.444092231767723 10.406315108167767" fill="#ff8f0d" stroke="none" /><path d="M 109.73455568895987 81.39251694778311 l 6.857160521540226 -13.107377703493722 a35.79270092580169,35.79270092580169 0 0,0 0.5434609518248844,0.290298019220209 l -7.081766519893421 12.987400957771758" fill="#ffb711" stroke="none" /><path d="M 110.36928655335952 81.73862282372117 l 5.112955341707509 -9.004438781773258 a31.35481675844617,31.35481675844617 0 0,0 0.467042339761564,0.2705410686870119 l -5.267194413934401 8.915093555696197" fill="#ff7c0b" stroke="none" /><line stroke="#e1ed5e" stroke-width="0.3" x1="143.23703022742887" x2="145.7803849466894" y1="26.81831364943548" y2="22.513508569990506" /><path d="M 143.74570117128098 25.957352633546492 a86.0,86.0 0 0,1 28.547481713284135,27.462654790039103" fill="none" id="id26" stroke="none" /><text fill="#e1ed5e" style="font-size:6.75px; font-family:Arial;" text-anchor="middle"><textPath startOffset="19.985693538727396" xlink:href="#id26">February</textPath></text><path d="M 110.99172775467656 82.1063720568725 l 5.4672804904709364 -8.900282570734513 a31.44539064853032,31.44539064853032 0 0,0 0.45877454480390606,0.2872845778681483 l -5.619674187647106 8.804853651543421" fill="#ff7d0b" stroke="none" /><path d="M 111.60114157652 82.49532879139004 l 7.236825421749969 -10.91946415499594 a34.099860289985074,34.099860289985074 0 0,0 0.4864837173463003,0.3284759775687427 l -7.423713833502811 10.793276265128528" fill="#ffa10e" stroke="none" /><path d="M 112.77801427241765 83.33499621200491 l 20.757863377998156 -27.07227151653296 a55.11446580388617,55.11446580388617 0 0,0 0.7478965949469712,0.5837451552953283 l -21.220792528104557 26.710947972014406" fill="#64ff29" stroke="none" /><path d="M 113.06298171725822 83.55741782278167 l 1.9545126919429765 -2.4601761105759135 a24.142067210932098,24.142067210932098 0 0,0 0.32315490688669746,0.2613021274516402 l -1.9965709973941652 2.4261678858601434" fill="#ff1602" stroke="none" /><path d="M 113.6212207817346 84.01681056812373 l 5.757977160778871 -6.756431099667265 a29.877142681550303,29.877142681550303 0 0,0 0.38855394976413493,0.3369501563612565 l -5.87342490918977 6.656315949886338" fill="#ff6809" stroke="none" /><path d="M 113.89432698308785 84.25364557470407 l 4.920305880072521 -5.576152077232264 a28.436590747237467,28.436590747237467 0 0,0 0.3642443076779245,0.3270221358418892 l -5.015561175346435 5.490630932621077" fill="#ff5407" stroke="none" /><path d="M 114.16331599549186 84.49514656593476 l 10.974237979782071 -12.01370861747579 a37.271542458614775,37.271542458614775 0 0,0 0.46996240961175356,0.4367788413804483 l -11.179408273188672 11.823025190020703" fill="#ffca12" stroke="none" /><path d="M 114.68862486808459 84.99185889309783 l 11.65687940389802 -11.910447201900437 a37.665580997561406,37.665580997561406 0 0,0 0.45945587702253426,0.4574828274720026 l -11.860171081087879 11.708028523778315" fill="#ffcf13" stroke="none" /><path d="M 115.4437574822437 85.77008943001954 l 22.015602088934145 -20.285221988884416 a50.93621496576682,50.93621496576682 0 0,0 0.5885712611615227,0.6499150870055382 l -22.361516990711703 19.90325411460933" fill="#91ff24" stroke="none" /><path d="M 115.68641384162765 86.03803664274999 l 9.472305035214166 -8.430988570465527 a33.680935728701726,33.680935728701726 0 0,0 0.3817303212258365,0.436383745919432 l -9.61602722001785 8.266689268343146" fill="#ff9b0e" stroke="none" /><path d="M 116.15771136456269 86.58626213691792 l 3.4192470934681367 -2.8385755362283756 a25.443957893709673,25.443957893709673 0 0,0 0.27685632125033427,0.3393931139930001 l -3.46760190679488 2.7792982526272745" fill="#ff2904" stroke="none" /><path d="M 116.38621287248628 86.86637796730983 l 2.6457767032896746 -2.1206017201356677 a24.390735321300195,24.390735321300195 0 0,0 0.2597565917105456,0.3298644927775018 l -2.6818873755941843 2.074744833405128" fill="#ff1a02" stroke="none" /><path d="M 117.2510076193507 88.02491185347247 l 6.081998343907155 -4.221925343863708 a28.403739424402243,28.403739424402243 0 0,0 0.27534792525375,0.4040391041604631 l -6.153770734829638 4.116608216432838" fill="#ff5307" stroke="none" /><path d="M 117.45458315368197 88.32363383020206 l 9.83305007060424 -6.577888006801985 a32.830362814429634,32.830362814429634 0 0,0 0.3101740211810907,0.4724163140752251 l -9.944820727143256 6.407653628749086" fill="#ff900d" stroke="none" /><line stroke="#e1ed5e" stroke-width="0.3" x1="172.23445277983987" x2="176.4835382374775" y1="55.19839476539836" y2="52.563006222186495" /><path d="M 173.08426987136738 54.67131705675599 a86.0,86.0 0 0,1 12.851231095245387,41.99856678651699" fill="none" id="id27" stroke="none" /><text fill="#e1ed5e" style="font-size:6.75px; font-family:Arial;" text-anchor="middle"><textPath startOffset="22.20632615414155" xlink:href="#id27">March</textPath></text><path d="M 118.21658344932153 89.55222093294921 l 13.226956434456081 -7.586072269871766 a36.24797917767192,36.24797917767192 0 0,0 0.3057644061864562,0.543920760496412 l -13.35557848193497 7.35726799944056" fill="#ffbd11" stroke="none" /><path d="M 118.56541770881063 90.18545643968196 l 7.197751158413558 -3.805066139021181 a29.141630675777996,29.141630675777996 0 0,0 0.23062210098314698,0.44548849355902087 l -7.262182692556821 3.680604923201815" fill="#ff5e08" stroke="none" /><path d="M 118.89224826269711 90.83032412892265 l 10.678908390200968 -5.1831908639703395 a32.8703223182292,32.8703223182292 0 0,0 0.24267972101056604,0.5111453834932267 l -10.766546305053291 4.998603064836573" fill="#ff900d" stroke="none" /><path d="M 119.04729006885535 91.15688171328212 l 57.14187020656606 -26.529354860153646 a84.0,84.0 0 0,0 0.5975907321466121,1.3167119646317489 l -57.59006325567602 25.541820886679833" fill="#4dd2ff" stroke="none" /><path d="M 119.47837535516314 92.15188598940014 l 4.283344047922877 -1.7258201375512754 a25.617953159144626,25.617953159144626 0 0,0 0.16127898316511374,0.4104374206155902 l -4.312416580969691 1.6518337120399007" fill="#ff2c04" stroke="none" /><path d="M 119.7369772167798 92.82701384747503 l 9.736273441043574 -3.5384422752653233 a31.35932402496202,31.35932402496202 0 0,0 0.18001285233790926,0.5089205743506642 l -9.795739374191292 3.3703240744880447" fill="#ff7c0b" stroke="none" /><path d="M 119.85752413597 93.16781622104841 l 2.318138665883872 -0.7975792592251383 a23.45150964693431,23.45150964693431 0 0,0 0.1280482648216633,0.3828480135259956 l -2.331524224477305 0.7575581427768286" fill="#ff0c01" stroke="none" /><path d="M 120.28053869075195 94.5502522615342 l 14.284803154286806 -3.8385851022785222 a35.791563025730476,35.791563025730476 0 0,0 0.15476215289674167,0.5963617065665093 l -14.348761639053851 3.5921269701631626" fill="#ffb711" stroke="none" /><path d="M 120.53481517161879 95.60439243477599 l 11.578965176314608 -2.478551012079145 a32.841268921605696,32.841268921605696 0 0,0 0.11356933676818742,0.553804419410693 l -11.619913808997792 2.27887093650504" fill="#ff900d" stroke="none" /><path d="M 120.6074358757038 95.95851677861258 l 18.541750118499905 -3.6363656522365133 a39.89496368384064,39.89496368384064 0 0,0 0.1263611728130054,0.6750264378906426 l -18.601597015222772 3.3166611368833077" fill="#ffeb16" stroke="none" /><path d="M 120.91429891909075 98.10471618934814 l 2.7867508215108363 -0.25253936250806397 a23.798170164733964,23.798170164733964 0 0,0 0.033459678965012854,0.40829283363214036 l -2.7906849842953436 0.20453261166815478" fill="#ff1101" stroke="none" /><path d="M 120.98425023603335 99.18683210126433 l 1.7772334616210221 -0.06887018517666459 a22.778567367155855,22.778567367155855 0 0,0 0.011810476255060263,0.39193220898305486 l -1.7781556323317276 0.03826782876861065" fill="#ff0200" stroke="none" /><line stroke="#e1ed5e" stroke-width="0.3" x1="184.98032266829074" x2="189.97916517819016" y1="98.17113171792111" y2="98.06355123074" /><path d="M 185.9800911702706 98.14961562048488 a86.0,86.0 0 0,1 -9.607161424134198,41.387399972396054" fill="none" id="id28" stroke="none" /><text fill="#e1ed5e" style="font-size:6.75px; font-family:Arial;" text-anchor="middle"><textPath startOffset="21.466115282336823" xlink:href="#id28">April</textPath></text><path d="M 120.99513854157772 99.54816195383933 l 10.710612663971236 -0.2305039468869728 a31.713092723726025,31.713092723726025 0 0,0 0.007047846572231242,0.5458634840187391 l -10.712993517661182 0.04610420480777098" fill="#ff810b" stroke="none" /><path d="M 120.9904718944345 100.63252640178507 l 3.2731837332351716 0.09863404403564716 a24.274669514036212,24.274669514036212 0 0,0 -0.016180647568496513,0.41755061665168275 l -3.2710009528154718 -0.15496190770133605" fill="#ff1802" stroke="none" /><path d="M 120.95626037817324 101.35467743843564 l 18.23790968374063 1.178954848190524 a39.275975600945415,39.275975600945415 0 0,0 -0.04941935415202314,0.6742878235446775 l -18.214913770924266 -1.492715808231972" fill="#ffe415" stroke="none" /><path d="M 120.8583938346157 102.4346265915055 l 14.692936835443705 1.7149841454962205 a35.79268614787868,35.79268614787868 0 0,0 -0.07669604079313268,0.6113429070289323 l -14.661239285403724 -1.9676448068125478" fill="#ffb711" stroke="none" /><path d="M 120.81339534386255 102.79330883721812 l 11.283541230435834 1.5143331932810045 a32.38470499043423,32.38470499043423 0 0,0 -0.07890448397061779,0.5518577771145488 l -11.255802695448615 -1.7083364423759626" fill="#ff8a0c" stroke="none" /><path d="M 120.70491114924044 103.5080841355445 l 28.279647532388058 4.791490393369794 a49.68269242497742,49.68269242497742 0 0,0 -0.15012112326345986,0.8419589831970588 l -28.19297996678541 -5.2775681273000705" fill="#9fff22" stroke="none" /><path d="M 120.5718875245553 104.21870165774334 l 7.25225439660305 1.4872285106948187 a28.40317786332814,28.40317786332814 0 0,0 -0.10234065506234964,0.4781014694929086 l -7.2255797028162565 -1.6118437996038961" fill="#ff5307" stroke="none" /><path d="M 120.49622156327973 104.57218783832717 l 25.54691468930695 5.698869534982725 a47.17483455763343,47.17483455763343 0 0,0 -0.18362115614575028,0.7910351348637514 l -25.445032967230645 -6.137773327195042" fill="#bbff1f" stroke="none" /><path d="M 120.41448212921028 104.9243191809786 l 11.707006236721913 2.8239283758679377 a33.042780679671864,33.042780679671864 0 0,0 -0.13813248990023563,0.5517706330123102 l -11.656662432526618 -3.0250268482776437" fill="#ff930d" stroke="none" /><path d="M 120.13307415673323 105.97154293290107 l 14.182266792517929 4.20651185100089 a35.79295215049274,35.79295215049274 0 0,0 -0.1802826700233893,0.5891741967219134 l -14.107757349988407 -4.45001302027486" fill="#ffb711" stroke="none" /><path d="M 120.02730092923936 106.31721596034902 l 11.334199627229435 3.5751490945232978 a32.88468645938792,32.88468645938792 0 0,0 -0.17492734763879655,0.5383710180296605 l -11.27098002857439 -3.7697190125307536" fill="#ff910d" stroke="none" /><path d="M 119.9155931802556 106.66101706037122 l 7.7298288424174535 2.585337093757173 a29.150719098424723,29.150719098424723 0 0,0 -0.16325675478919163,0.47450054821036336 l -7.684181256685031 -2.718010345056837" fill="#ff5e08" stroke="none" /><path d="M 119.41010516605496 108.01547362559984 l 2.5586493916063353 1.0566035856129257 a23.768230092730292,23.768230092730292 0 0,0 -0.15941580415983322,0.3768118703665714 l -2.540082606254193 -1.1004899816456606" fill="#ff1101" stroke="none" /><path d="M 119.26925614724726 108.34839909993367 l 15.124544247052723 6.552703986813718 a37.48301453678483,37.48301453678483 0 0,0 -0.2615938072149102,0.589824976521396 l -15.00950935510654 -6.812077299827802" fill="#ffcd13" stroke="none" /><path d="M 118.64920377521936 109.65438752849418 l 1.4320518953403585 0.7413498251813592 a22.612566958065415,22.612566958065415 0 0,0 -0.1819207842934196,0.3441255652455768 l -1.419078602822046 -0.7658904055130703" fill="#ff0000" stroke="none" /><line stroke="#e1ed5e" stroke-width="0.3" x1="174.80103733775053" x2="179.2010983576182" y1="140.37084112569926" y2="142.7455964860345" /><path d="M 175.68104954172406 140.8457921977663 a86.0,86.0 0 0,1 -30.038265399797805,32.042727171017184" fill="none" id="id29" stroke="none" /><text fill="#e1ed5e" style="font-size:6.75px; font-family:Arial;" text-anchor="middle"><textPath startOffset="22.206326154141568" xlink:href="#id29">May</textPath></text><path d="M 118.30583269289576 110.29060199501025 l 16.212046795002102 9.11358275204783 a39.598060432791414,39.598060432791414 0 0,0 -0.3391253392892846,0.591293614010785 l -16.052769459560437 -9.391296211916929" fill="#ffe815" stroke="none" /><path d="M 118.12598468904814 110.60418214915192 l 14.049730452650945 8.219465227531382 a37.27742407196989,37.27742407196989 0 0,0 -0.3287853258493375,0.5510631178200986 l -13.90616425110338 -8.460090439237584" fill="#ffca12" stroke="none" /><path d="M 117.94076556474637 110.91462005526583 l 2.089101745903496 1.2709464226061027 a23.445332475119137,23.445332475119137 0 0,0 -0.21272213672624934,0.34297581660559484 l -2.066914969509284 -1.306718570576971" fill="#ff0c01" stroke="none" /><path d="M 117.55443506779139 111.5257021239791 l 12.362111998948695 8.11658250310626 a35.7885335515149,35.7885335515149 0 0,0 -0.34254210027422444,0.5120539631874849 l -12.22056679326375 -8.328173380499551" fill="#ffb711" stroke="none" /><path d="M 117.35343817320211 111.8261652097733 l 13.86228437802389 9.446984718712931 a37.775233186242176,37.775233186242176 0 0,0 -0.3708072524167014,0.5341755032179756 l -13.697616218445052 -9.684201484117928" fill="#ffd113" stroke="none" /><path d="M 116.93607887273984 112.41649034213515 l 12.305591688189507 9.021702219195289 a36.258397613388894,36.258397613388894 0 0,0 -0.3733557129326148,0.500170990391855 l -12.1484747085618 -9.232186089096459" fill="#ffbd11" stroke="none" /><path d="M 116.71984013943494 112.70617746262583 l 17.776106810656785 13.508883209838519 a43.3266634077046,43.3266634077046 0 0,0 -0.45636012278436333,0.5899069766624206 l -17.540939870654352 -13.812868180614194" fill="#e9ff1a" stroke="none" /><path d="M 116.498646956653 112.99209946851258 l 11.670936742280656 9.190448855885379 a35.855137650488516,35.855137650488516 0 0,0 -0.3860097325515744,0.4816064930677781 l -11.511009097674227 -9.389983182531408" fill="#ffb811" stroke="none" /><path d="M 116.27256486870786 113.27417163493432 l 9.262868283337344 7.5560862357510405 a32.95387669488703,32.95387669488703 0 0,0 -0.36234199751735013,0.43646427795922355 l -9.13143028592645 -7.714411770824035" fill="#ff920d" stroke="none" /><path d="M 116.0416608686014 113.55231037782055 l 2.100858535842791 1.7748465804661693 a23.75021580458988,23.75021580458988 0 0,0 -0.2665198216029561,0.31002276437590015 l -2.069996204669056 -1.8107464440035974" fill="#ff1101" stroke="none" /><path d="M 115.80600337817218 113.82643327865902 l 11.20510591770463 9.801759853183476 a35.88720574340459,35.88720574340459 0 0,0 -0.41072249101317243,0.4614510726925319 l -11.03472457704312 -9.993185095616875" fill="#ffb811" stroke="none" /><path d="M 115.56566222782051 114.09645910891815 l 1.8098615462809318 1.6390333354628364 a23.441726661906454,23.441726661906454 0 0,0 -0.2734350070769733,0.29675969611228215 l -1.7813801312082365 -1.6699442863764533" fill="#ff0c01" stroke="none" /><path d="M 115.07121518719521 114.62390073753431 l 11.741281382828138 11.392799541461052 a37.36012132909355,37.36012132909355 0 0,0 -0.451807288599331,0.4576783979973829 l -11.543433469173271 -11.5932184334391" fill="#ffcb12" stroke="none" /><path d="M 114.55890576462653 115.13401014063108 l 1.548642250408141 1.609816554952319 a23.23378650733407,23.23378650733407 0 0,0 -0.2906039593757626,0.27478418217436834 l -1.5207024566415706 -1.6362353738726088" fill="#ff0901" stroke="none" /><path d="M 113.48314897796784 116.09983520530334 l 12.34406105035645 14.739683511595812 a40.225870935719314,40.225870935719314 0 0,0 -0.5346781992126275,0.44000375724551843 l -12.08851272259913 -14.94998238769851" fill="#ffef16" stroke="none" /><path d="M 111.45004920935366 117.60387380957326 l 8.097381776235274 12.449316537464062 a35.85102938789373,35.85102938789373 0 0,0 -0.520212431897215,0.33202418703613934 l -7.881887542291128 -12.58685515332401" fill="#ffb811" stroke="none" /><line stroke="#e1ed5e" stroke-width="0.3" x1="143.8653032363475" x2="146.44561519142675" y1="172.8068346515853" y2="177.08958963109032" /><path d="M 144.38136562736335 173.6633856474863 a86.0,86.0 0 0,1 -40.68145358897372,12.25698825130547" fill="none" id="id30" stroke="none" /><text fill="#e1ed5e" style="font-size:6.75px; font-family:Arial;" text-anchor="middle"><textPath startOffset="21.466115282336833" xlink:href="#id30">June</textPath></text><path d="M 110.8373102113329 117.98757091392108 l 7.634154893938893 12.671031819222431 a35.79308515179976,35.79308515179976 0 0,0 -0.5304741949646211,0.3134135047487779 l -7.41491282794589 -12.80056389626496" fill="#ffb711" stroke="none" /><path d="M 110.21172684928248 118.3499491758327 l 7.2004728252628265 12.93888020465619 a35.807478848804486,35.807478848804486 0 0,0 -0.5411655691003049,0.29508661674761466 l -6.9766844442938725 -13.060907473163574" fill="#ffb711" stroke="none" /><path d="M 109.89434966115114 118.52300852407294 l 4.184618114791037 7.833937516338633 a29.881531724682134,29.881531724682134 0 0,0 -0.4557774503742297,0.23844122066318402 l -4.049149761890311 -7.904808155946533" fill="#ff6809" stroke="none" /><path d="M 109.2508944713604 118.85261126421891 l 14.04773574110533 28.62820475246295 a52.88907315681769,52.88907315681769 0 0,0 -0.8207561401436108,0.39401282453743053 l -13.552866932961487 -28.86577185349994" fill="#7cff26" stroke="none" /><path d="M 108.59647513512805 119.15986991738527 l 4.840863448014478 10.789342433246157 a32.82555998945372,32.82555998945372 0 0,0 -0.517517345489989,0.22686439582995457 l -4.654425427866735 -10.871071382370566" fill="#ff900d" stroke="none" /><path d="M 107.93186726928326 119.44442032107085 l 3.07404798988405 7.535814603696666 a29.13868986910044,29.13868986910044 0 0,0 -0.4660510380372966,0.18545132623229452 l -2.943875875804887 -7.58761277433503" fill="#ff5e08" stroke="none" /><path d="M 107.59598834532513 119.57807347666477 l 5.374419098616093 13.852150269800422 a35.8582114584731,35.8582114584731 0 0,0 -0.5773680535421378,0.21831119442915453 l -5.1351808243136805 -13.942609714336209" fill="#ffb811" stroke="none" /><path d="M 106.91757812671514 119.82793768551818 l 4.871259068684036 13.962548668712678 a35.78789810082578,35.78789810082578 0 0,0 -0.5833943197367141,0.19791902812496387 l -4.630195016010094 -14.044330683735765" fill="#ffb711" stroke="none" /><path d="M 106.2309692047433 120.05430185196036 l 4.978207226917235 16.02230200948675 a37.777863656536674,37.777863656536674 0 0,0 -0.6226601916053174,0.1876024079712453 l -4.7016720608716716 -16.10561978656372" fill="#ffd113" stroke="none" /><path d="M 105.18746579009965 120.34920634021253 l 3.7445876529990363 14.689135291324147 a36.15891263573405,36.15891263573405 0 0,0 -0.6044508337157922,0.14855930871162173 l -3.491183534540033 -14.751415858349798" fill="#ffbc11" stroke="none" /><path d="M 104.13013068566511 120.58985236759428 l 3.5278116450908144 17.587124108495964 a38.937457718720296,38.937457718720296 0 0,0 -0.6582884998281271,0.12616255773189494 l -3.2245555306909828 -17.645243864576326" fill="#ffdf14" stroke="none" /><path d="M 103.06178313531738 120.77559828337769 l 2.1567639152577796 14.634629140981199 a35.79270092580169,35.79270092580169 0 0,0 -0.6103020402728689,0.08458230169696357 l -1.90453328379808 -14.669586008170764" fill="#ffb711" stroke="none" /><path d="M 101.62511606390274 120.93702456842531 l 1.7525685083207045 22.57904572577981 a43.64696011086726,43.64696011086726 0 0,0 -0.749558056894063,0.051693912132806406 l -1.3636476906477113 -22.6058679824289" fill="#e5ff1a" stroke="none" /><path d="M 101.26447882468166 120.96189622390904 l 0.4454270186098662 7.384065875342623 a28.397488362972062,28.397488362972062 0 0,0 -0.488182482196299,0.025233458110532462 l -0.3182564680000876 -7.390639140215357" fill="#ff5307" stroke="none" /><line stroke="#e1ed5e" stroke-width="0.3" x1="102.19456741930631" x2="102.32365962044197" y1="184.97166512339345" y2="189.96999836594603" /><path d="M 102.22038585953345 185.97133177190398 a86.0,86.0 0 0,1 -42.740103519485714,-10.115201625700543" fill="none" id="id31" stroke="none" /><text fill="#e1ed5e" style="font-size:6.75px; font-family:Arial;" text-anchor="middle"><textPath startOffset="22.20632615414155" xlink:href="#id31">July</textPath></text><path d="M 99.81925306533755 120.99922214144158 l -0.06371264196566659 7.4021499969212465 a28.402424189254994,28.402424189254994 0 0,0 -0.4888467146078245,-0.008415939516408785 l 0.19111904646615901 -7.399956580125678" fill="#ff5307" stroke="none" /><path d="M 98.01472825383883 120.90594882070398 l -0.6617075755893794 6.9681265228768225 a27.999474562737678,27.999474562737678 0 0,0 -0.47941420785387273,-0.04969324285048075 l 0.7815543800488455 -6.9557039115705805" fill="#ff4e07" stroke="none" /><path d="M 97.65516085044442 120.86867818915974 l -1.6511706676790108 14.69514414483572 a35.787617320288724,35.787617320288724 0 0,0 -0.6115806881229879,-0.07405390423012874 l 1.903878778853388 -14.664544711880243" fill="#ffb711" stroke="none" /><path d="M 95.86986931433489 120.58985236759428 l -1.2869904329973878 6.416005940416182 a27.54381208486938,27.54381208486938 0 0,0 -0.4640588524005348,-0.09724804448024206 l 1.3972407468273094 -6.392901915209399" fill="#ff4706" stroke="none" /><path d="M 95.51606077576429 120.51570834832081 l -3.158551043504293 14.451558946556323 a35.79270092580169,35.79270092580169 0 0,0 -0.6007717083405965,-0.13673368487356036 l 3.406842901237752 -14.395048528105075" fill="#ffb711" stroke="none" /><line stroke="#e1ed5e" stroke-width="0.3" x1="58.666819895761336" x2="56.23545636021788" y1="174.27360380694188" y2="178.64263932499728" /><path d="M 58.180547188652646 175.14741091055294 a86.0,86.0 0 0,1 -31.652253787137756,-30.449443065178592" fill="none" id="id32" stroke="none" /><text fill="#e1ed5e" style="font-size:6.75px; font-family:Arial;" text-anchor="middle"><textPath startOffset="22.20632615414155" xlink:href="#id32">August</textPath></text><line stroke="#e1ed5e" stroke-width="0.3" x1="26.63291911575756" x2="22.317208475507996" y1="142.92168965132927" y2="145.44649492493687" /><path d="M 25.769776987707644 143.4266507060508 a86.0,86.0 0 0,1 -11.730757126820373,-40.83630448921669" fill="none" id="id33" stroke="none" /><text fill="#e1ed5e" style="font-size:6.75px; font-family:Arial;" text-anchor="middle"><textPath startOffset="21.46611528233685" xlink:href="#id33">September</textPath></text><line stroke="#e1ed5e" stroke-width="0.3" x1="15.007084014347285" x2="10.007500721073583" y1="101.09737516637583" y2="101.16192664675087" /><path d="M 14.007167355692545 101.11028546245083 a86.0,86.0 0 0,1 10.666146001902534,-42.60595125391555" fill="none" id="id34" stroke="none" /><text fill="#e1ed5e" style="font-size:6.75px; font-family:Arial;" text-anchor="middle"><textPath startOffset="22.20632615414155" xlink:href="#id34">October</textPath></text><line stroke="#e1ed5e" stroke-width="0.3" x1="26.266209847984243" x2="21.928928074336255" y1="57.711370442889674" y2="55.22380399835377" /><path d="M 25.398753493254645 57.213857153982495 a86.0,86.0 0 0,1 29.58750427330803,-30.492523968695096" fill="none" id="id35" stroke="none" /><text fill="#e1ed5e" style="font-size:6.75px; font-family:Arial;" text-anchor="middle"><textPath startOffset="21.46611528233685" xlink:href="#id35">November</textPath></text><line stroke="#e1ed5e" stroke-width="0.3" x1="56.762969772571076" x2="54.21961505331055" y1="26.818313649435495" y2="22.513508569990535" /><path d="M 56.25429882871897 25.957352633546506 a86.0,86.0 0 0,1 42.265352541879196,-11.944610805530505" fill="none" id="id36" stroke="none" /><text fill="#e1ed5e" style="font-size:6.75px; font-family:Arial;" text-anchor="middle"><textPath startOffset="22.20632615414155" xlink:href="#id36">December</textPath></text></svg>