<?xml version="1.0" encoding="utf-8" ?>
<svg baseProfile="full" height="200mm" version="1.1" viewBox="0,0,200,200" width="200mm" xmlns="http://www.w3.org/2000/svg" xmlns:ev="http://www.w3.org/2001/xml-events" xmlns:xlink="http://www.w3.org/1999/xlink"><defs /><rect fill="#1a1a1a" height="200" width="200" x="0" y="0" /><text alignment-baseline="middle" fill="#e1ed5e" style="dominant-baseline: central; font-size:9.0px; font-family:Arial;" text-anchor="middle" x="100.0" y="100.0">2024</text><line stroke="#e1ed5e" stroke-width="0.3" x1="100.0" x2="100.0" y1="15.0" y2="10.0" /><path d="M 100.0 14.0 a86.0,86.0 0 0,1 42.35913384403234,11.155469271406648" fill="none" id="id1" stroke="none" /><text fill="#e1ed5e" style="font-size:6.75px; font-family:Arial;" text-anchor="middle"><textPath startOffset="22.145653131862478" xlink:href="#id1">January</textPath></text><path d="M 108.4095320186766 80.7573450057729 l 12.141669252327025 -27.782515359672985 a51.31976734645846,51.31976734645846 0 0,0 0.8042213143946042,0.35971796464655775 l -12.616803969577262 27.569993644116575" fill="#a3ff21" stroke="none" /><path d="M 110.02825361518725 81.54914285379988 l 16.44393116821145 -30.254981230942043 a55.43496423040877,55.43496423040877 0 0,0 0.8321997453807171,0.4616071703828292 l -16.960875101748268 29.96824114512607" fill="#73ff27" stroke="none" /><line stroke="#e1ed5e" stroke-width="0.3" x1="143.13028292997686" x2="145.6673583964461" y1="26.7553504044142" y2="22.446841604673864" /><path d="M 143.63769802327073 25.89364864446614 a86.0,86.0 0 0,1 29.32050498858742,28.57503671076993" fill="none" id="id2" stroke="none" /><text fill="#e1ed5e" style="font-size:6.75px; font-family:Arial;" text-anchor="middle"><textPath startOffset="20.669276256404974" xlink:href="#id2">February</textPath></text><path d="M 112.7482090630111 83.31218511350987 l 13.483609677153854 -17.650477897079842 a43.211418232997666,43.211418232997666 0 0,0 0.5855971384437719,0.45536387680650325 l -13.784616760232852 17.416412968652548" fill="#fff517" stroke="none" /><path d="M 113.31354834802062 83.75963576809568 l 15.448521541386459 -18.84468438602523 a45.36757984338175,45.36757984338175 0 0,0 0.5980433570289356,0.49890903858259233 l -15.769739232577287 18.576713163530766" fill="#edff1a" stroke="none" /><path d="M 113.86319453409587 84.22622945171908 l 13.726984114546363 -15.618788094635427 a41.79366813301909,41.79366813301909 0 0,0 0.5348295373656966,0.4782478702349871 l -13.993078678735436 15.380844694517053" fill="#ffe315" stroke="none" /><path d="M 114.91283532996326 85.21462403516908 l 20.010030541804092 -19.839005667411996 a49.177783237074166,49.177783237074166 0 0,0 0.5892275882186769,0.6045994136297111 l -20.34764493117358 19.492583561714543" fill="#bdff1f" stroke="none" /><path d="M 115.41159269507618 85.73525988315684 l 13.108268198734393 -12.132817349667285 a38.86146556165924,38.86146556165924 0 0,0 0.4489467092339395,0.4934710773359094 l -13.31461260881021 11.906008696773704" fill="#ffbb11" stroke="none" /><path d="M 116.35404254752997 86.82634096563983 l 8.924748846472243 -7.18914592089538 a32.46014664149348,32.46014664149348 0 0,0 0.3458297366666542,0.43694457491214983 l -9.046845013780457 7.034881402068552" fill="#ff5f08" stroke="none" /><line stroke="#e1ed5e" stroke-width="0.3" x1="172.87174338648825" x2="177.1583165268699" y1="56.24261187166439" y2="53.66864786411523" /><path d="M 173.72905801456457 55.72781907015455 a86.0,86.0 0 0,1 12.242430191666344,42.057860355516425" fill="none" id="id3" stroke="none" /><text fill="#e1ed5e" style="font-size:6.75px; font-family:Arial;" text-anchor="middle"><textPath startOffset="22.145653131862474" xlink:href="#id3">March</textPath></text><path d="M 120.86939407059847 97.66154086499901 l 31.231340281754534 -3.4995368209125357 a52.4267938828584,52.4267938828584 0 0,0 0.09253980090925645,0.8952386284570427 l -31.286812475145457 2.9628936701725617" fill="#96ff23" stroke="none" /><path d="M 120.93736805541906 98.37931529534042 l 14.878847184546984 -1.1517168724901545 a35.92335569821614,35.92335569821614 0 0,0 0.042314358172962814,0.6152414811098241 l -14.896425503885013 0.8961319672259962" fill="#ff920d" stroke="none" /><line stroke="#e1ed5e" stroke-width="0.3" x1="184.99686870605535" x2="189.99668451229388" y1="99.2704041080226" y2="99.22748670261217" /><path d="M 185.99683186730306 99.26182062694052 a86.0,86.0 0 0,1 -10.086455211305974,41.156179273409016" fill="none" id="id4" stroke="none" /><text fill="#e1ed5e" style="font-size:6.75px; font-family:Arial;" text-anchor="middle"><textPath startOffset="21.40746469413373" xlink:href="#id4">April</textPath></text><path d="M 120.96210409425399 101.26102812881392 l 16.215737942921066 0.9754985274166131 a37.245053228921165,37.245053228921165 0 0,0 -0.043871194432370225,0.637877538643 l -16.19660278732363 -1.2537194902139566" fill="#ffa40f" stroke="none" /><path d="M 120.93736805541906 101.62068470465957 l 15.110370259299598 1.1696382227302622 a36.155571350008465,36.155571350008465 0 0,0 -0.053211320462957845,0.6183962023347968 l -15.0880653161389 -1.4288554724407163" fill="#ff950d" stroke="none" /><path d="M 120.9064616781168 101.97986365728391 l 29.5405143367301 2.7975174208452946 a50.672682571659905,50.672682571659905 0 0,0 -0.08944357664130521,0.8652854673328457 l -29.488138367607128 -3.3042074104610717" fill="#abff21" stroke="none" /><path d="M 120.51834098615036 104.47187691870673 l 28.9115024565486 6.301127396598037 a50.59018723771741,50.59018723771741 0 0,0 -0.19221654539685384,0.8469415653513317 l -28.799075049594084 -6.796503295888386" fill="#acff21" stroke="none" /><path d="M 120.16314734710363 105.8691983318838 l 28.586304167238907 8.321056521822335 a50.77275209955006,50.77275209955006 0 0,0 -0.25077793768137,0.8347581934373705 l -28.439249909553908 -8.810552318850428" fill="#aaff21" stroke="none" /><path d="M 119.94978838288452 106.5578916946017 l 25.27714398213558 8.309099294803158 a47.607802220110386,47.607802220110386 0 0,0 -0.2618759620629656,0.7741897495301449 l -25.13078259850025 -8.741790718807463" fill="#d0ff1d" stroke="none" /><path d="M 119.0197475246899 108.90220220490707 l 26.77609094342784 12.532562565614917 a50.563899787946966,50.563899787946966 0 0,0 -0.37470436216385505,0.7829880027558722 l -26.55700732330407 -12.990363070435892" fill="#acff20" stroke="none" /><line stroke="#e1ed5e" stroke-width="0.3" x1="174.33088141563837" x2="178.70328620479359" y1="141.23008692659167" y2="143.65538615756765" /><path d="M 175.20536237346943 141.71514677278685 a86.0,86.0 0 0,1 -30.301960400862466,31.631185727798858" fill="none" id="id5" stroke="none" /><text fill="#e1ed5e" style="font-size:6.75px; font-family:Arial;" text-anchor="middle"><textPath startOffset="22.145653131862474" xlink:href="#id5">May</textPath></text><path d="M 117.62189284568427 111.42229804090321 l 12.392579535605462 8.032720332081158 a35.768230208110154,35.768230208110154 0 0,0 -0.3383939621623285,0.51237158870477 l -12.252861134522407 -8.24427179912499" fill="#ff8f0d" stroke="none" /><path d="M 117.21940702142032 112.02048342749411 l 24.26750164508215 16.94060085742343 a50.59553333705274,50.59553333705274 0 0,0 -0.503268714092112,0.7079104724383134 l -23.973117832460076 -17.354688556571247" fill="#acff21" stroke="none" /><path d="M 116.57777611688842 112.89097897827486 l 15.878611995836305 12.347304728888355 a41.11432954344602,41.11432954344602 0 0,0 -0.4380312238349653,0.5534381419643586 l -15.664314341359779 -12.618062814767397" fill="#ffd914" stroke="none" /><path d="M 116.1254893667686 113.45245675266167 l 22.692377645708966 18.93078851442878 a50.55196705793881,50.55196705793881 0 0,0 -0.5616213685726849,0.6615885600017781 l -22.364061713629166 -19.317543856880114" fill="#acff20" stroke="none" /><path d="M 115.89218393027572 113.72728997021213 l 14.417250748647776 12.45327781683384 a40.05101696846209,40.05101696846209 0 0,0 -0.4538904245571872,0.5164439836300523 l -14.201349260132002 -12.698934078275185" fill="#ffcb12" stroke="none" /><path d="M 115.16444852881244 114.52719865689866 l 10.792356745465234 10.338833629169349 a35.94544897060747,35.94544897060747 0 0,0 -0.4306833047411892,0.44191901179276 l -10.613286639573237 -10.522575333029845" fill="#ff920d" stroke="none" /><path d="M 114.13192950727249 115.5334660781643 l 20.51258124496445 22.5469200635534 a51.48162714953935,51.48162714953935 0 0,0 -0.6588054138628723,0.5891078634719569 l -20.1225108042782 -22.895723456908748" fill="#a1ff22" stroke="none" /><path d="M 113.59037401385872 116.0094264158162 l 19.133472397974604 22.539182374382065 a50.565258465126114,50.565258465126114 0 0,0 -0.6665600639468767,0.5560681123746687 l -18.743737999865832 -22.864312670668603" fill="#acff20" stroke="none" /><path d="M 112.7482090630111 116.68781488649013 l 26.591023058248712 34.80850276655512 a64.80313199000261,64.80313199000261 0 0,0 -0.8897994961208741,0.6677221303016762 l -25.989570573217073 -35.259843924120815" fill="#33ff57" stroke="none" /><line stroke="#e1ed5e" stroke-width="0.3" x1="143.1302829299769" x2="145.66735839644613" y1="173.24464959558577" y2="177.55315839532614" /><path d="M 143.63769802327073 174.10635135553383 a86.0,86.0 0 0,1 -40.68552437913181,11.842963189579606" fill="none" id="id6" stroke="none" /><text fill="#e1ed5e" style="font-size:6.75px; font-family:Arial;" text-anchor="middle"><textPath startOffset="21.407464694133747" xlink:href="#id6">June</textPath></text><path d="M 110.65571695917076 118.09573695890943 l 14.996343075877734 25.46706905658692 a50.55438904769295,50.55438904769295 0 0,0 -0.7515933830193101,0.4339326420073419 l -14.556957224998024 -25.720748595870432" fill="#acff20" stroke="none" /><path d="M 110.02825361518725 118.45085714620011 l 12.704530167116356 23.374904566439472 a47.60434645424169,47.60434645424169 0 0,0 -0.7213445456624487,0.38407534067214166 l -12.301396805667354 -23.589550374834182" fill="#d1ff1d" stroke="none" /><path d="M 109.71004243097381 118.62028667847754 l 10.108740349452564 19.384842507451626 a42.86226773441753,42.86226773441753 0 0,0 -0.6553289231021768,0.33461561753941477 l -9.774484204636805 -19.555516076663878" fill="#fff116" stroke="none" /><path d="M 103.2317021107853 120.74984581791261 l 1.7908126925921368 11.498302128786898 a32.63692235708456,32.63692235708456 0 0,0 -0.554322420714443,0.0814663067040991 l -1.5931651662700084 -11.527349508789879" fill="#ff6209" stroke="none" /><line stroke="#e1ed5e" stroke-width="0.3" x1="101.45913802915013" x2="101.54496967792366" y1="184.9874750549273" y2="189.98673829345242" /><path d="M 101.47630435890484 185.9873277026323 a86.0,86.0 0 0,1 -42.54439059252881,-10.42667462771756" fill="none" id="id7" stroke="none" /><text fill="#e1ed5e" style="font-size:6.75px; font-family:Arial;" text-anchor="middle"><textPath startOffset="22.145653131862474" xlink:href="#id7">July</textPath></text><path d="M 93.27111125876986 119.89276391827306 l -4.235092741410419 12.520299163315888 a34.217182062273174,34.217182062273174 0 0,0 -0.554797761385173,-0.19298746078769263 l 4.4493962748406135 -12.445753269959607" fill="#ff790b" stroke="none" /><path d="M 91.26138138417905 119.09545874513695 l -10.418990935804992 22.76737552322269 a46.038146104211194,46.038146104211194 0 0,0 -0.7158082997837264,-0.3350344275786779 l 10.808287949460208 -22.585164864073484" fill="#e4ff1a" stroke="none" /><line stroke="#e1ed5e" stroke-width="0.3" x1="58.13341422392154" x2="55.67067388415222" y1="173.97424548756322" y2="178.32567169271397" /><path d="M 57.64086615596768 174.84453072859336 a86.0,86.0 0 0,1 -31.369924170532247,-30.572349798747897" fill="none" id="id8" stroke="none" /><text fill="#e1ed5e" style="font-size:6.75px; font-family:Arial;" text-anchor="middle"><textPath startOffset="22.145653131862474" xlink:href="#id8">August</textPath></text><path d="M 85.60350026404147 115.28858382429668 l -10.14823852637549 10.777077638665245 a35.803112767861705,35.803112767861705 0 0,0 -0.4438350164352981,-0.4251839057907634 l 10.331746028676102 -10.6012816025689" fill="#ff900d" stroke="none" /><path d="M 84.83555147118756 114.52719865689866 l -10.685712904106879 10.236671241529336 a35.79776666852637,35.79776666852637 0 0,0 -0.42129567606652873,-0.44740140843186776 l 10.85986441390966 -10.05172837315298" fill="#ff900d" stroke="none" /><path d="M 84.58840730492382 114.26474011684316 l -10.85620110635287 10.04833767036842 a35.79277500671603,35.79277500671603 0 0,0 -0.4134956909466004,-0.4545041981337897 l 11.02709449814135 -9.860495896676957" fill="#ff900d" stroke="none" /><line stroke="#e1ed5e" stroke-width="0.3" x1="26.387840678322732" x2="22.057713659400548" y1="142.50000000000003" y2="145.00000000000006" /><path d="M 25.521815274538298 143.00000000000003 a86.0,86.0 0 0,1 -11.493303480769221,-40.785679425670985" fill="none" id="id9" stroke="none" /><text fill="#e1ed5e" style="font-size:6.75px; font-family:Arial;" text-anchor="middle"><textPath startOffset="21.40746469413373" xlink:href="#id9">September</textPath></text><path d="M 81.81346652052679 110.50000000000001 l -18.403198889158865 10.625091832606104 a42.25018366521219,42.25018366521219 0 0,0 -0.3572487114600218,-0.6312242422394765 l 18.582880965640264 -10.307610820267508" fill="#ffe915" stroke="none" /><path d="M 80.5471966667186 107.91128576633889 l -11.819553646085076 4.806909570959947 a33.759632753965505,33.759632753965505 0 0,0 -0.2137166814747238,-0.5387056473855926 l 11.900329002525924 -4.603302906360789" fill="#ff730a" stroke="none" /><path d="M 80.41425534168474 107.57618678355246 l -13.773656471964934 5.327946215197352 a35.768230208110154,35.768230208110154 0 0,0 -0.21660101793967634,-0.5745599338339779 l 13.863088173719046 -5.090718001169229" fill="#ff8f0d" stroke="none" /><path d="M 79.94057633289273 106.21446072829308 l -15.241688711943123 4.721914124011209 a36.95636386481303,36.95636386481303 0 0,0 -0.18253571711158526,-0.6076020357399304 l 15.320500749058338 -4.459574484680555" fill="#ffa00e" stroke="none" /><path d="M 79.407916724674 104.11899336999214 l -14.507950938687111 2.9019965066005398 a35.79534467877224,35.79534467877224 0 0,0 -0.11535255683098487,-0.6035733206905545 l 14.555629787800253 -2.6525206208766705" fill="#ff900d" stroke="none" /><path d="M 79.2786578344484 103.40968896794605 l -17.54940709962142 2.8877482599100874 a38.78540917608747,38.78540917608747 0 0,0 -0.10246460132838474,-0.6578962436736543 l 17.59639319308807 -2.586063834304983" fill="#ffba11" stroke="none" /><path d="M 79.0935383218832 101.97986365728391 l -23.65591774559896 2.2402400054731686 a44.76175750378465,44.76175750378465 0 0,0 -0.0658773221963905,-0.7655943418016178 l 23.69088869049309 -1.8338246162958889" fill="#f5ff19" stroke="none" /><path d="M 79.03789590574601 101.26102812881392 l -17.713865746727706 1.0656221759141093 a38.74588939205057,38.74588939205057 0 0,0 -0.03424105343847145,-0.6642672891354056 l 17.72954838962275 -0.7613830934019729" fill="#ffb911" stroke="none" /><line stroke="#e1ed5e" stroke-width="0.3" x1="15.003131293944662" x2="10.003315487706104" y1="100.72959589197737" y2="100.7725132973878" /><path d="M 14.003168132696942 100.73817937305945 a86.0,86.0 0 0,1 10.791469493833604,-42.45332614584628" fill="none" id="id10" stroke="none" /><text fill="#e1ed5e" style="font-size:6.75px; font-family:Arial;" text-anchor="middle"><textPath startOffset="22.145653131862435" xlink:href="#id10">October</textPath></text><path d="M 79.00077361379809 100.18025310272382 l -14.807411240719425 0.12710381660540868 a35.807956747369964,35.807956747369964 0 0,0 0.0,-0.614713838658447 l 14.807411240719425 0.12710381660540324" fill="#ff900d" stroke="none" /><path d="M 79.00696218219943 99.45929381324524 l -29.538685474004986 -0.7608117568794455 a50.5484817556097,50.5484817556097 0 0,0 0.029788251598079227,-0.8672524434447672 l 29.521272535410056 1.2677704648883512" fill="#acff20" stroke="none" /><path d="M 79.22317932658666 96.9465228501225 l -17.533535468433733 -2.576825913405418 a38.721876249732176,38.721876249732176 0 0,0 0.1022967579019904,-0.6568185684734527 l 17.486717218393473 2.8774326638103203" fill="#ffb911" stroke="none" /><path d="M 79.2786578344484 96.59031103205396 l -14.572264348661236 -2.397860553175268 a35.768230208110154,35.768230208110154 0 0,0 0.10489490406410673,-0.6050059319057546 l 14.528954627104895 2.6476595180016154" fill="#ff8f0d" stroke="none" /><path d="M 79.407916724674 95.88100663000787 l -34.888384264368106 -6.978653959061118 a56.579502071537306,56.579502071537306 0 0,0 0.19868104777012577,-0.9507607369289824 l 34.76344550577361 7.57653114727551" fill="#67ff28" stroke="none" /><path d="M 79.73907114497095 94.47779374421319 l -17.153259566640404 -4.675197172044992 a38.778970227716734,38.778970227716734 0 0,0 0.18056505641243004,-0.6407616851532701 l 17.07047601815339 4.968966781101275" fill="#ffba11" stroke="none" /><path d="M 79.94057633289273 93.78553927170692 l -4.94814734884661 -1.5329486972069706 a26.180163500717548,26.180163500717548 0 0,0 0.1366795079237641,-0.42814661186518027 l 4.921103125145589 1.6176643427635424" fill="#ff0000" stroke="none" /><path d="M 80.05021161711548 93.44210830539832 l -17.779183331127193 -5.844370700394442 a39.715128340608835,39.715128340608835 0 0,0 0.2184607765459452,-0.645840467921985 l 17.676237133008883 6.148712842790588" fill="#ffc612" stroke="none" /><path d="M 80.28708602549916 92.7611449362534 l -27.756397879656795 -10.192533767580995 a50.56865515807398,50.56865515807398 0 0,0 0.30622768080361257,-0.812305305368682 l 27.577339515038744 10.66750735314382" fill="#acff20" stroke="none" /><path d="M 80.41425534168474 92.42381321644754 l -27.567753050134257 -10.663799102578045 a50.55837646984914,50.55837646984914 0 0,0 0.3200617885458527,-0.806764786970437 l 27.380632586622273 11.135464906762063" fill="#acff20" stroke="none" /><path d="M 80.68587082218212 91.75594674310238 l -38.05299719822022 -16.2425617328374 a62.37452606873932,62.37452606873932 0 0,0 0.42879848521784497,-0.9811748495361231 l 37.7685648309854 16.893398652149394" fill="#30ff38" stroke="none" /><path d="M 81.46374523516351 90.13048839642627 l -10.45455416217875 -5.566461236255206 a32.84412062690434,32.84412062690434 0 0,0 0.2692508620817128,-0.4953912598737379 l 10.357457950481688 5.745107329603564" fill="#ff6509" stroke="none" /><line stroke="#e1ed5e" stroke-width="0.3" x1="26.387840678322718" x2="22.05771365940052" y1="57.49999999999999" y2="54.99999999999999" /><path d="M 25.521815274538284 56.99999999999999 a86.0,86.0 0 0,1 29.574782752854787,-30.34633250058573" fill="none" id="id11" stroke="none" /><text fill="#e1ed5e" style="font-size:6.75px; font-family:Arial;" text-anchor="middle"><textPath startOffset="21.40746469413373" xlink:href="#id11">November</textPath></text><path d="M 82.18462484594161 88.88188828441811 l -53.44612546217515 -33.35433514674566 a84.0,84.0 0 0,0 0.7739292334964403,-1.2167453012853122 l 52.865678537052815 34.266894122709644" fill="#4dd2ff" stroke="none" /><path d="M 84.83555147118756 85.47280134310135 l -10.831623007853384 -10.376449820298394 a35.999825594233734,35.999825594233734 0 0,0 0.4313348226561125,-0.44258752656907074 l 10.65190138404647 10.560860038935195" fill="#ff930d" stroke="none" /><path d="M 86.13680546590413 84.22622945171909 l -7.363708038060931 -8.378548010073077 a32.15456242202726,32.15456242202726 0 0,0 0.41773449752263986,-0.36082910965621184 l 7.218794060775443 8.503721252193998" fill="#ff5b08" stroke="none" /><path d="M 87.83215693770416 82.88440491214696 l -12.024107875042837 -16.913413546531036 a41.75193311445097,41.75193311445097 0 0,0 0.5877179229341106,-0.41027275468212193 l 11.731994860934961 17.117331117018285" fill="#ffe215" stroke="none" /><line stroke="#e1ed5e" stroke-width="0.3" x1="56.869717070023135" x2="54.33264160355391" y1="26.7553504044142" y2="22.446841604673864" /><path d="M 56.362301976729285 25.89364864446614 a86.0,86.0 0 0,1 42.16139366436587,-11.88097634709845" fill="none" id="id12" stroke="none" /><text fill="#e1ed5e" style="font-size:6.75px; font-family:Arial;" text-anchor="middle"><textPath startOffset="22.145653131862474" xlink:href="#id12">December</textPath></text><path d="M 90.93487009805054 81.0573650232925 l -10.213317837435575 -21.341906160002463 a44.659856715348695,44.659856715348695 0 0,0 0.6943784406877154,-0.32500417146472305 l 9.845450682876336 21.51408656303773" fill="#f6ff19" stroke="none" /><path d="M 93.61358852112211 79.99465700312896 l -8.092357276839362 -25.3491939114517 a47.60954487127495,47.60954487127495 0 0,0 0.7807044162448873,-0.24186422380192368 l 7.656012227722859 25.484374723060263" fill="#d0ff1d" stroke="none" /><path d="M 96.76829788921471 79.25015418208739 l -2.499137895677027 -16.046258050807722 a37.239707129585824,37.239707129585824 0 0,0 0.6324985051259889,-0.09295549897127421 l 2.223314284943353 16.086794623077882" fill="#ffa40f" stroke="none" /><path d="M 97.12497278360702 79.19773525538626 l -2.224693193586318 -16.096771719115804 a37.24977906258776,37.24977906258776 0 0,0 0.6341724830734797,-0.08210632450929264 l 1.9480428886220444 16.13258963982549" fill="#ffa40f" stroke="none" /><path d="M 98.5590905019552 79.04949213459386 l -2.038332212170278 -29.636903012527764 a50.70691532928231,50.70691532928231 0 0,0 0.8689128508181988,-0.05227163940426969 l 1.529275009219595 29.66752662975673" fill="#abff21" stroke="none" /></svg>