<?xml version="1.0" encoding="utf-8" ?>
<svg baseProfile="full" height="200mm" version="1.1" viewBox="0,0,200,200" width="200mm" xmlns="http://www.w3.org/2000/svg" xmlns:ev="http://www.w3.org/2001/xml-events" xmlns:xlink="http://www.w3.org/1999/xlink"><defs /><rect fill="#1a1a1a" height="200" width="200" x="0" y="0" /><text alignment-baseline="middle" fill="#e1ed5e" style="dominant-baseline: central; font-size:9.0px; font-family:Arial;" text-anchor="middle" x="100.0" y="100.0">2026</text><line stroke="#e1ed5e" stroke-width="0.3" x1="100.0" x2="100.0" y1="15.0" y2="10.0" /><path d="M 100.0 14.0 a86.0,86.0 0 0,1 42.46469731375804,11.215312516191453" fill="none" id="id25" stroke="none" /><text fill="#e1ed5e" style="font-size:6.75px; font-family:Arial;" text-anchor="middle"><textPath startOffset="22.20632615414155" xlink:href="#id25">January</textPath></text><path d="M 100.36148047927253 79.00311137660856 l 0.2566510249656263 -14.907784224275407 a35.909993300674905,35.909993300674905 0 0,0 0.6179483385330784,0.01595978245912722 l -0.5132259986935724 14.90115764967392" fill="#ffae10" stroke="none" /><path d="M 100.72285384407766 79.0124445844662 l 0.356595310539872 -10.353495249685619 a31.35963436134508,31.35963436134508 0 0,0 0.5393247353580145,0.023224457604233213 l -0.5347608782872181 10.34582306555719" fill="#ff700a" stroke="none" /><path d="M 101.08401301168833 79.027996857942 l 0.7634501239756141 -14.770190234049132 a35.78990789835416,35.78990789835416 0 0,0 0.6149693827743383,0.03709663257748582 l -1.0175815555895644 14.754860332091342" fill="#ffad10" stroke="none" /><path d="M 101.44485096284872 79.0497635885617 l 0.17876010916589008 -2.5920088952122895 a23.598165754814083,23.598165754814083 0 0,0 0.4050004976708871,0.03143583332495615 l -0.22335079619911835 2.5885477996988686" fill="#ff0000" stroke="none" /><path d="M 102.52436894288641 79.15227682838746 l 0.8899890411516524 -7.350052854985331 a28.403739424402243,28.403739424402243 0 0,0 0.4848724875690111,0.06295036482002853 l -1.0163762572285098 7.333644167001166" fill="#ff4706" stroke="none" /><path d="M 103.2404852339499 79.25152402106235 l 1.3704986861280992 -8.77515464979714 a29.881531724682134,29.881531724682134 0 0,0 0.5075176020013696,0.08374475290884315 l -1.521345494268344 8.750263633948672" fill="#ff5c08" stroke="none" /><path d="M 103.95276090670814 79.375362276772 l 2.7852715369028074 -14.532934767683546 a35.797429861162584,35.797429861162584 0 0,0 0.6041815046447905,0.12119312598725092 l -3.035019451014723 14.482837685619087" fill="#ffad10" stroke="none" /><path d="M 104.307194497241 79.44645832069477 l 1.5174369810632036 -7.241071712916548 a28.398360260429225,28.398360260429225 0 0,0 0.47757559752761397,0.10437952801503689 l -1.6418553027443454 7.21387868680564" fill="#ff4606" stroke="none" /><path d="M 104.66035177308747 79.52364482259891 l 2.4635405276328735 -10.824146608210548 a32.100954090857485,32.100954090857485 0 0,0 0.5377312035746259,0.1272636024877234 l -2.649495418170023 10.780137093581954" fill="#ff7b0b" stroke="none" /><path d="M 105.36241919743992 79.69619591428918 l 3.7811385164054685 -14.31657854997301 a35.807478848804486,35.807478848804486 0 0,0 0.5945782598169264,0.16252069873185146 l -4.027014665446106 14.249371310414864" fill="#ffad10" stroke="none" /><path d="M 105.71112130821622 79.79150937346287 l 0.7115558078867936 -2.5178013384607185 a23.61641648972254,23.61641648972254 0 0,0 0.3902441687738802,0.11392297406479904 l -0.7547901943841009 2.505180035477216" fill="#ff0000" stroke="none" /><path d="M 106.0581310904928 79.89281104454417 l 2.1528758672616335 -7.145484509010399 a28.462762448875424,28.462762448875424 0 0,0 0.4678934252577092,0.14537676481605888 l -2.275554665230061 7.10736760931182" fill="#ff4706" stroke="none" /><path d="M 109.41281617654863 81.2277094730956 l 5.264158022530285 -10.498484398821786 a32.74434052463034,32.74434052463034 0 0,0 0.5016737216486817,0.256976765341518 l -5.444092231767723 10.406315108167767" fill="#ff840c" stroke="none" /><path d="M 109.73455568895987 81.39251694778311 l 6.857160521540226 -13.107377703493722 a35.79270092580169,35.79270092580169 0 0,0 0.5434609518248844,0.290298019220209 l -7.081766519893421 12.987400957771758" fill="#ffad10" stroke="none" /><path d="M 110.36928655335952 81.73862282372117 l 5.112955341707509 -9.004438781773258 a31.35481675844617,31.35481675844617 0 0,0 0.467042339761564,0.2705410686870119 l -5.267194413934401 8.915093555696197" fill="#ff700a" stroke="none" /><line stroke="#e1ed5e" stroke-width="0.3" x1="143.23703022742887" x2="145.7803849466894" y1="26.81831364943548" y2="22.513508569990506" /><path d="M 143.74570117128098 25.957352633546492 a86.0,86.0 0 0,1 28.547481713284135,27.462654790039103" fill="none" id="id26" stroke="none" /><text fill="#e1ed5e" style="font-size:6.75px; font-family:Arial;" text-anchor="middle"><textPath startOffset="19.985693538727396" xlink:href="#id26">February</textPath></text><path d="M 110.99172775467656 82.1063720568725 l 5.4672804904709364 -8.900282570734513 a31.44539064853032,31.44539064853032 0 0,0 0.45877454480390606,0.2872845778681483 l -5.619674187647106 8.804853651543421" fill="#ff720a" stroke="none" /><path d="M 111.60114157652 82.49532879139004 l 7.236825421749969 -10.91946415499594 a34.099860289985074,34.099860289985074 0 0,0 0.4864837173463003,0.3284759775687427 l -7.423713833502811 10.793276265128528" fill="#ff960d" stroke="none" /><path d="M 112.77801427241765 83.33499621200491 l 20.757863377998156 -27.07227151653296 a55.11446580388617,55.11446580388617 0 0,0 0.7478965949469712,0.5837451552953283 l -21.220792528104557 26.710947972014406" fill="#69ff28" stroke="none" /><path d="M 113.06298171725822 83.55741782278167 l 1.9545126919429765 -2.4601761105759135 a24.142067210932098,24.142067210932098 0 0,0 0.32315490688669746,0.2613021274516402 l -1.9965709973941652 2.4261678858601434" fill="#ff0801" stroke="none" /><path d="M 113.6212207817346 84.01681056812373 l 5.757977160778871 -6.756431099667265 a29.877142681550303,29.877142681550303 0 0,0 0.38855394976413493,0.3369501563612565 l -5.87342490918977 6.656315949886338" fill="#ff5c08" stroke="none" /><path d="M 113.89432698308785 84.25364557470407 l 4.920305880072521 -5.576152077232264 a28.436590747237467,28.436590747237467 0 0,0 0.3642443076779245,0.3270221358418892 l -5.015561175346435 5.490630932621077" fill="#ff4706" stroke="none" /><path d="M 114.16331599549186 84.49514656593476 l 10.974237979782071 -12.01370861747579 a37.271542458614775,37.271542458614775 0 0,0 0.46996240961175356,0.4367788413804483 l -11.179408273188672 11.823025190020703" fill="#ffc011" stroke="none" /><path d="M 114.68862486808459 84.99185889309783 l 11.65687940389802 -11.910447201900437 a37.665580997561406,37.665580997561406 0 0,0 0.45945587702253426,0.4574828274720026 l -11.860171081087879 11.708028523778315" fill="#ffc612" stroke="none" /><path d="M 115.4437574822437 85.77008943001954 l 22.015602088934145 -20.285221988884416 a50.93621496576682,50.93621496576682 0 0,0 0.5885712611615227,0.6499150870055382 l -22.361516990711703 19.90325411460933" fill="#97ff23" stroke="none" /><path d="M 115.68641384162765 86.03803664274999 l 9.472305035214166 -8.430988570465527 a33.680935728701726,33.680935728701726 0 0,0 0.3817303212258365,0.436383745919432 l -9.61602722001785 8.266689268343146" fill="#ff900d" stroke="none" /><path d="M 116.15771136456269 86.58626213691792 l 3.4192470934681367 -2.8385755362283756 a25.443957893709673,25.443957893709673 0 0,0 0.27685632125033427,0.3393931139930001 l -3.46760190679488 2.7792982526272745" fill="#ff1b02" stroke="none" /><path d="M 116.38621287248628 86.86637796730983 l 2.6457767032896746 -2.1206017201356677 a24.390735321300195,24.390735321300195 0 0,0 0.2597565917105456,0.3298644927775018 l -2.6818873755941843 2.074744833405128" fill="#ff0c01" stroke="none" /><path d="M 117.2510076193507 88.02491185347247 l 6.081998343907155 -4.221925343863708 a28.403739424402243,28.403739424402243 0 0,0 0.27534792525375,0.4040391041604631 l -6.153770734829638 4.116608216432838" fill="#ff4706" stroke="none" /><path d="M 117.45458315368197 88.32363383020206 l 9.83305007060424 -6.577888006801985 a32.830362814429634,32.830362814429634 0 0,0 0.3101740211810907,0.4724163140752251 l -9.944820727143256 6.407653628749086" fill="#ff850c" stroke="none" /><line stroke="#e1ed5e" stroke-width="0.3" x1="172.23445277983987" x2="176.4835382374775" y1="55.19839476539836" y2="52.563006222186495" /><path d="M 173.08426987136738 54.67131705675599 a86.0,86.0 0 0,1 12.851231095245387,41.99856678651699" fill="none" id="id27" stroke="none" /><text fill="#e1ed5e" style="font-size:6.75px; font-family:Arial;" text-anchor="middle"><textPath startOffset="22.20632615414155" xlink:href="#id27">March</textPath></text><path d="M 118.21658344932153 89.55222093294921 l 13.226956434456081 -7.586072269871766 a36.24797917767192,36.24797917767192 0 0,0 0.3057644061864562,0.543920760496412 l -13.35557848193497 7.35726799944056" fill="#ffb310" stroke="none" /><path d="M 118.56541770881063 90.18545643968196 l 7.197751158413558 -3.805066139021181 a29.141630675777996,29.141630675777996 0 0,0 0.23062210098314698,0.44548849355902087 l -7.262182692556821 3.680604923201815" fill="#ff5107" stroke="none" /><path d="M 118.89224826269711 90.83032412892265 l 10.678908390200968 -5.1831908639703395 a32.8703223182292,32.8703223182292 0 0,0 0.24267972101056604,0.5111453834932267 l -10.766546305053291 4.998603064836573" fill="#ff850c" stroke="none" /><path d="M 119.04729006885535 91.15688171328212 l 57.14187020656606 -26.529354860153646 a84.0,84.0 0 0,0 0.5975907321466121,1.3167119646317489 l -57.59006325567602 25.541820886679833" fill="#4dd2ff" stroke="none" /><line stroke="#e1ed5e" stroke-width="0.3" x1="184.98032266829074" x2="189.97916517819016" y1="98.17113171792111" y2="98.06355123074" /><path d="M 185.9800911702706 98.14961562048488 a86.0,86.0 0 0,1 -9.607161424134198,41.387399972396054" fill="none" id="id28" stroke="none" /><text fill="#e1ed5e" style="font-size:6.75px; font-family:Arial;" text-anchor="middle"><textPath startOffset="21.466115282336823" xlink:href="#id28">April</textPath></text><line stroke="#e1ed5e" stroke-width="0.3" x1="174.80103733775053" x2="179.2010983576182" y1="140.37084112569926" y2="142.7455964860345" /><path d="M 175.68104954172406 140.8457921977663 a86.0,86.0 0 0,1 -30.038265399797805,32.042727171017184" fill="none" id="id29" stroke="none" /><text fill="#e1ed5e" style="font-size:6.75px; font-family:Arial;" text-anchor="middle"><textPath startOffset="22.206326154141568" xlink:href="#id29">May</textPath></text><line stroke="#e1ed5e" stroke-width="0.3" x1="143.8653032363475" x2="146.44561519142675" y1="172.8068346515853" y2="177.08958963109032" /><path d="M 144.38136562736335 173.6633856474863 a86.0,86.0 0 0,1 -40.68145358897372,12.25698825130547" fill="none" id="id30" stroke="none" /><text fill="#e1ed5e" style="font-size:6.75px; font-family:Arial;" text-anchor="middle"><textPath startOffset="21.466115282336833" xlink:href="#id30">June</textPath></text><line stroke="#e1ed5e" stroke-width="0.3" x1="102.19456741930631" x2="102.32365962044197" y1="184.97166512339345" y2="189.96999836594603" /><path d="M 102.22038585953345 185.97133177190398 a86.0,86.0 0 0,1 -42.740103519485714,-10.115201625700543" fill="none" id="id31" stroke="none" /><text fill="#e1ed5e" style="font-size:6.75px; font-family:Arial;" text-anchor="middle"><textPath startOffset="22.20632615414155" xlink:href="#id31">July</textPath></text><line stroke="#e1ed5e" stroke-width="0.3" x1="58.666819895761336" x2="56.23545636021788" y1="174.27360380694188" y2="178.64263932499728" /><path d="M 58.180547188652646 175.14741091055294 a86.0,86.0 0 0,1 -31.652253787137756,-30.449443065178592" fill="none" id="id32" stroke="none" /><text fill="#e1ed5e" style="font-size:6.75px; font-family:Arial;" text-anchor="middle"><textPath startOffset="22.20632615414155" xlink:href="#id32">August</textPath></text><line stroke="#e1ed5e" stroke-width="0.3" x1="26.63291911575756" x2="22.317208475507996" y1="142.92168965132927" y2="145.44649492493687" /><path d="M 25.769776987707644 143.4266507060508 a86.0,86.0 0 0,1 -11.730757126820373,-40.83630448921669" fill="none" id="id33" stroke="none" /><text fill="#e1ed5e" style="font-size:6.75px; font-family:Arial;" text-anchor="middle"><textPath startOffset="21.46611528233685" xlink:href="#id33">September</textPath></text><line stroke="#e1ed5e" stroke-width="0.3" x1="15.007084014347285" x2="10.007500721073583" y1="101.09737516637583" y2="101.16192664675087" /><path d="M 14.007167355692545 101.11028546245083 a86.0,86.0 0 0,1 10.666146001902534,-42.60595125391555" fill="none" id="id34" stroke="none" /><text fill="#e1ed5e" style="font-size:6.75px; font-family:Arial;" text-anchor="middle"><textPath startOffset="22.20632615414155" xlink:href="#id34">October</textPath></text><line stroke="#e1ed5e" stroke-width="0.3" x1="26.266209847984243" x2="21.928928074336255" y1="57.711370442889674" y2="55.22380399835377" /><path d="M 25.398753493254645 57.213857153982495 a86.0,86.0 0 0,1 29.58750427330803,-30.492523968695096" fill="none" id="id35" stroke="none" /><text fill="#e1ed5e" style="font-size:6.75px; font-family:Arial;" text-anchor="middle"><textPath startOffset="21.46611528233685" xlink:href="#id35">November</textPath></text><line stroke="#e1ed5e" stroke-width="0.3" x1="56.762969772571076" x2="54.21961505331055" y1="26.818313649435495" y2="22.513508569990535" /><path d="M 56.25429882871897 25.957352633546506 a86.0,86.0 0 0,1 42.265352541879196,-11.944610805530505" fill="none" id="id36" stroke="none" /><text fill="#e1ed5e" style="font-size:6.75px; font-family:Arial;" text-anchor="middle"><textPath startOffset="22.20632615414155" xlink:href="#id36">December</textPath></text></svg>