<?xml version="1.0" encoding="utf-8" ?>
<svg baseProfile="full" height="200mm" version="1.1" viewBox="0,0,200,200" width="200mm" xmlns="http://www.w3.org/2000/svg" xmlns:ev="http://www.w3.org/2001/xml-events" xmlns:xlink="http://www.w3.org/1999/xlink"><defs /><rect fill="#1a1a1a" height="200" width="200" x="0" y="0" /><text alignment-baseline="middle" fill="#e1ed5e" style="dominant-baseline: central; font-size:9.0px; font-family:Arial;" text-anchor="middle" x="100.0" y="100.0">2026</text><line stroke="#e1ed5e" stroke-width="0.3" x1="100.0" x2="100.0" y1="15.0" y2="10.0" /><path d="M 100.0 14.0 a86.0,86.0 0 0,1 42.46469731375804,11.215312516191453" fill="none" id="id25" stroke="none" /><text fill="#e1ed5e" style="font-size:6.75px; font-family:Arial;" text-anchor="middle"><textPath startOffset="22.20632615414155" xlink:href="#id25">January</textPath></text><path d="M 100.36148047927253 79.00311137660856 l 0.4739635867606802 -27.53056171327655 a48.534641267503446,48.534641267503446 0 0,0 0.8351965059260832,0.021570661678362815 l -0.9477867278816311 27.51832425945583" fill="#c2ff1e" stroke="none" /><path d="M 100.72285384407766 79.0124445844662 l 0.6585330895450445 -19.12004732772014 a40.13138457206597,40.13138457206597 0 0,0 0.6901817831957604,0.029720679420356236 l -0.9875557051301365 19.105878921775588" fill="#ffd013" stroke="none" /><path d="M 101.08401301168833 79.027996857942 l 1.4098816052685974 -27.276463600350286 a48.31287668265847,48.31287668265847 0 0,0 0.830148544611189,0.05007682724828643 l -1.8791921987193982 27.248153503721696" fill="#c5ff1e" stroke="none" /><path d="M 101.44485096284872 79.0497635885617 l 0.3301205694438334 -4.7867248262692215 a25.798094846164677,25.798094846164677 0 0,0 0.4427564989675511,0.03436642568374198 l -0.41246725777372567 4.780333138397015" fill="#ff0000" stroke="none" /><path d="M 102.52436894288641 79.15227682838746 l 1.6435640503615028 -13.573518416674931 a34.672662688571464,34.672662688571464 0 0,0 0.5918875665365912,0.07684399342335183 l -1.8769663454059402 13.543216100087443" fill="#ff840c" stroke="none" /><path d="M 103.2404852339499 79.25152402106235 l 2.5309327052758537 -16.205287988834435 a37.401737077507875,37.401737077507875 0 0,0 0.6352432026295143,0.10482057140766378 l -2.809505114044243 16.159321154487145" fill="#ffab0f" stroke="none" /><path d="M 103.95276090670814 79.375362276772 l 5.143627569419184 -26.838318255587794 a48.32676767129816,48.32676767129816 0 0,0 0.8156490373612503,0.1636115236669125 l -5.60484301624756 26.74580277584367" fill="#c5ff1e" stroke="none" /><path d="M 104.307194497241 79.44645832069477 l 2.8022871692187437 -13.37226033484527 a34.66272885779573,34.66272885779573 0 0,0 0.5829235665154301,0.12740451366593206 l -3.0320534598877016 13.322042323083469" fill="#ff840c" stroke="none" /><path d="M 104.66035177308747 79.52364482259891 l 4.549479218964964 -19.989210449239483 a41.50039744853204,41.50039744853204 0 0,0 0.6951836573349761,0.1645275112080456 l -4.892886563262464 19.907937025890572" fill="#ffe215" stroke="none" /><path d="M 105.36241919743992 79.69619591428918 l 6.982718941077733 -26.438768053215544 a48.34532537714292,48.34532537714292 0 0,0 0.8027674764369636,0.21942667602732677 l -7.436784306738407 26.31465483636192" fill="#c4ff1e" stroke="none" /><path d="M 105.71112130821622 79.79150937346287 l 1.314047130462802 -4.649683956210619 a25.83179891486804,25.83179891486804 0 0,0 0.426851757964789,0.12460973319581686 l -1.3938891061510181 4.626375894096098" fill="#ff0100" stroke="none" /><path d="M 106.0581310904928 79.89281104454417 l 3.9757673597231706 -13.19573715899647 a34.78166191966558,34.78166191966558 0 0,0 0.5717684979094837,0.17765125552690955 l -4.202321230343372 13.12534576858704" fill="#ff860c" stroke="none" /><path d="M 109.41281617654863 81.2277094730956 l 9.721446536079979 -19.387802257493608 a42.688554565243294,42.688554565243294 0 0,0 0.6540283205410562,0.3350187083789178 l -10.053735344209791 19.21759102380219" fill="#fff216" stroke="none" /><path d="M 109.73455568895987 81.39251694778311 l 12.663282354778147 -24.205707926578082 a48.31803463325355,48.31803463325355 0 0,0 0.7336402230871196,0.39188519960324264 l -13.078067624393578 23.984144000473087" fill="#c5ff1e" stroke="none" /><path d="M 110.36928655335952 81.73862282372117 l 9.442216928716466 -16.628712479709797 a40.122487789558036,40.122487789558036 0 0,0 0.5976402515330344,0.34619180869697225 l -9.727053912714828 16.463716513622778" fill="#ffd013" stroke="none" /><line stroke="#e1ed5e" stroke-width="0.3" x1="143.23703022742887" x2="145.7803849466894" y1="26.81831364943548" y2="22.513508569990506" /><path d="M 143.74570117128098 25.957352633546492 a86.0,86.0 0 0,1 28.547481713284135,27.462654790039103" fill="none" id="id26" stroke="none" /><text fill="#e1ed5e" style="font-size:6.75px; font-family:Arial;" text-anchor="middle"><textPath startOffset="19.985693538727396" xlink:href="#id26">February</textPath></text><path d="M 110.99172775467656 82.1063720568725 l 10.096557656207889 -16.436364713423124 a40.289752758855954,40.289752758855954 0 0,0 0.5878099333795349,0.3680865263564778 l -10.377986741959687 16.260133845743702" fill="#ffd213" stroke="none" /><path d="M 111.60114157652 82.49532879139004 l 13.364418607378914 -20.165235642833327 a45.19182533923911,45.19182533923911 0 0,0 0.6447266058493107,0.43532228226700875 l -13.709549907634766 19.932201448267648" fill="#ecff1a" stroke="none" /><path d="M 112.77801427241765 83.33499621200491 l 38.33404281725294 -49.995011363985284 a84.0,84.0 0 0,0 1.1398697793622787,0.8896864431071037 l -39.188945151774654 49.32774653165496" fill="#4dd2ff" stroke="none" /><path d="M 113.06298171725822 83.55741782278167 l 3.609445339120058 -4.543266069510802 a26.802530675012726,26.802530675012726 0 0,0 0.35876668012462154,0.2900977047772154 l -3.6871154178091707 4.4804622674694565" fill="#ff1001" stroke="none" /><path d="M 113.6212207817346 84.01681056812373 l 10.633394150576017 -12.477262922010897 a37.393631726572735,37.393631726572735 0 0,0 0.4863063197926724,0.42172004838215443 l -10.846594269015453 12.292377880209072" fill="#ffab0f" stroke="none" /><path d="M 113.89432698308785 84.25364557470407 l 9.086446559841992 -10.29761341963075 a34.733330012237516,34.733330012237516 0 0,0 0.44489924464258707,0.3994349346046891 l -9.26235679208057 10.139679476256763" fill="#ff850c" stroke="none" /><path d="M 114.16331599549186 84.49514656593476 l 20.266387775226775 -22.186003065443174 a51.04904666500612,51.04904666500612 0 0,0 0.6436850046039327,0.5982350604533178 l -20.645280663625556 21.833863418915215" fill="#a4ff21" stroke="none" /><path d="M 114.68862486808459 84.99185889309783 l 21.527038021563207 -21.99530773934177 a51.776727060072126,51.776727060072126 0 0,0 0.6315878027284911,0.6288755639856323 l -21.902461624459022 21.62149632470602" fill="#9bff22" stroke="none" /><path d="M 115.4437574822437 85.77008943001954 l 40.65673897918261 -37.461204658644775 a76.28392423569673,76.28392423569673 0 0,0 0.8814656825979207,0.9733364226236112 l -41.295548302396575 36.75581544875161" fill="#43ffdd" stroke="none" /><path d="M 115.68641384162765 86.03803664274999 l 17.49273228105225 -15.56970825786232 a44.418187331463415,44.418187331463415 0 0,0 0.5034233328576971,0.5754998949787854 l -17.758147477487793 15.266292806680587" fill="#f6ff19" stroke="none" /><path d="M 116.15771136456269 86.58626213691792 l 6.31440539408809 -5.242065339977154 a29.20676333943404,29.20676333943404 0 0,0 0.31779949831562565,0.3895846078992973 l -6.403703384480124 5.1325965624697565" fill="#ff3405" stroke="none" /><path d="M 116.38621287248628 86.86637796730983 l 4.886019123543232 -3.9161659202451338 a27.261752022439055,27.261752022439055 0 0,0 0.2903323616989401,0.36869261564470623 l -4.952705565836136 3.831480910647389" fill="#ff1702" stroke="none" /><path d="M 117.2510076193507 88.02491185347247 l 11.231771819874206 -7.7967305187324465 a34.672662688571464,34.672662688571464 0 0,0 0.3361193254054146,0.49321363508611865 l -11.364315610948355 7.6022388603759214" fill="#ff840c" stroke="none" /><line stroke="#e1ed5e" stroke-width="0.3" x1="172.23445277983987" x2="176.4835382374775" y1="55.19839476539836" y2="52.563006222186495" /><path d="M 173.08426987136738 54.67131705675599 a86.0,86.0 0 0,1 12.851231095245387,41.99856678651699" fill="none" id="id27" stroke="none" /><text fill="#e1ed5e" style="font-size:6.75px; font-family:Arial;" text-anchor="middle"><textPath startOffset="22.20632615414155" xlink:href="#id27">March</textPath></text><line stroke="#e1ed5e" stroke-width="0.3" x1="184.98032266829074" x2="189.97916517819016" y1="98.17113171792111" y2="98.06355123074" /><path d="M 185.9800911702706 98.14961562048488 a86.0,86.0 0 0,1 -9.607161424134198,41.387399972396054" fill="none" id="id28" stroke="none" /><text fill="#e1ed5e" style="font-size:6.75px; font-family:Arial;" text-anchor="middle"><textPath startOffset="21.466115282336823" xlink:href="#id28">April</textPath></text><line stroke="#e1ed5e" stroke-width="0.3" x1="174.80103733775053" x2="179.2010983576182" y1="140.37084112569926" y2="142.7455964860345" /><path d="M 175.68104954172406 140.8457921977663 a86.0,86.0 0 0,1 -30.038265399797805,32.042727171017184" fill="none" id="id29" stroke="none" /><text fill="#e1ed5e" style="font-size:6.75px; font-family:Arial;" text-anchor="middle"><textPath startOffset="22.206326154141568" xlink:href="#id29">May</textPath></text><line stroke="#e1ed5e" stroke-width="0.3" x1="143.8653032363475" x2="146.44561519142675" y1="172.8068346515853" y2="177.08958963109032" /><path d="M 144.38136562736335 173.6633856474863 a86.0,86.0 0 0,1 -40.68145358897372,12.25698825130547" fill="none" id="id30" stroke="none" /><text fill="#e1ed5e" style="font-size:6.75px; font-family:Arial;" text-anchor="middle"><textPath startOffset="21.466115282336833" xlink:href="#id30">June</textPath></text><line stroke="#e1ed5e" stroke-width="0.3" x1="102.19456741930631" x2="102.32365962044197" y1="184.97166512339345" y2="189.96999836594603" /><path d="M 102.22038585953345 185.97133177190398 a86.0,86.0 0 0,1 -42.740103519485714,-10.115201625700543" fill="none" id="id31" stroke="none" /><text fill="#e1ed5e" style="font-size:6.75px; font-family:Arial;" text-anchor="middle"><textPath startOffset="22.20632615414155" xlink:href="#id31">July</textPath></text><line stroke="#e1ed5e" stroke-width="0.3" x1="58.666819895761336" x2="56.23545636021788" y1="174.27360380694188" y2="178.64263932499728" /><path d="M 58.180547188652646 175.14741091055294 a86.0,86.0 0 0,1 -31.652253787137756,-30.449443065178592" fill="none" id="id32" stroke="none" /><text fill="#e1ed5e" style="font-size:6.75px; font-family:Arial;" text-anchor="middle"><textPath startOffset="22.20632615414155" xlink:href="#id32">August</textPath></text><line stroke="#e1ed5e" stroke-width="0.3" x1="26.63291911575756" x2="22.317208475507996" y1="142.92168965132927" y2="145.44649492493687" /><path d="M 25.769776987707644 143.4266507060508 a86.0,86.0 0 0,1 -11.730757126820373,-40.83630448921669" fill="none" id="id33" stroke="none" /><text fill="#e1ed5e" style="font-size:6.75px; font-family:Arial;" text-anchor="middle"><textPath startOffset="21.46611528233685" xlink:href="#id33">September</textPath></text><line stroke="#e1ed5e" stroke-width="0.3" x1="15.007084014347285" x2="10.007500721073583" y1="101.09737516637583" y2="101.16192664675087" /><path d="M 14.007167355692545 101.11028546245083 a86.0,86.0 0 0,1 10.666146001902534,-42.60595125391555" fill="none" id="id34" stroke="none" /><text fill="#e1ed5e" style="font-size:6.75px; font-family:Arial;" text-anchor="middle"><textPath startOffset="22.20632615414155" xlink:href="#id34">October</textPath></text><line stroke="#e1ed5e" stroke-width="0.3" x1="26.266209847984243" x2="21.928928074336255" y1="57.711370442889674" y2="55.22380399835377" /><path d="M 25.398753493254645 57.213857153982495 a86.0,86.0 0 0,1 29.58750427330803,-30.492523968695096" fill="none" id="id35" stroke="none" /><text fill="#e1ed5e" style="font-size:6.75px; font-family:Arial;" text-anchor="middle"><textPath startOffset="21.46611528233685" xlink:href="#id35">November</textPath></text><line stroke="#e1ed5e" stroke-width="0.3" x1="56.762969772571076" x2="54.21961505331055" y1="26.818313649435495" y2="22.513508569990535" /><path d="M 56.25429882871897 25.957352633546506 a86.0,86.0 0 0,1 42.265352541879196,-11.944610805530505" fill="none" id="id36" stroke="none" /><text fill="#e1ed5e" style="font-size:6.75px; font-family:Arial;" text-anchor="middle"><textPath startOffset="22.20632615414155" xlink:href="#id36">December</textPath></text></svg>