<?xml version="1.0" encoding="utf-8" ?>
<svg baseProfile="full" height="200mm" version="1.1" viewBox="0,0,200,200" width="200mm" xmlns="http://www.w3.org/2000/svg" xmlns:ev="http://www.w3.org/2001/xml-events" xmlns:xlink="http://www.w3.org/1999/xlink"><defs /><rect fill="#1a1a1a" height="200" width="200" x="0" y="0" /><text alignment-baseline="middle" fill="#e1ed5e" style="dominant-baseline: central; font-size:9.0px; font-family:Arial;" text-anchor="middle" x="100.0" y="100.0">2025</text><line stroke="#e1ed5e" stroke-width="0.3" x1="100.0" x2="100.0" y1="15.0" y2="10.0" /><path d="M 100.0 14.0 a86.0,86.0 0 0,1 42.46469731375804,11.215312516191453" fill="none" id="id13" stroke="none" /><text fill="#e1ed5e" style="font-size:6.75px; font-family:Arial;" text-anchor="middle"><textPath startOffset="22.20632615414155" xlink:href="#id13">January</textPath></text><path d="M 108.43124777332544 80.76684994638697 l 8.776597203791166 -20.02095247570428 a42.86017375301496,42.86017375301496 0 0,0 0.6731453194935764,0.302020683141676 l -9.119924641751522 19.866911462046073" fill="#f0ff19" stroke="none" /><path d="M 110.05341064243156 81.56283822128135 l 4.477983617824609 -8.212268586326795 a30.353806316974683,30.353806316974683 0 0,0 0.4565731533573997,0.25408246552212826 l -4.618680860254044 8.133970723244488" fill="#ff6c09" stroke="none" /><line stroke="#e1ed5e" stroke-width="0.3" x1="143.23703022742887" x2="145.7803849466894" y1="26.81831364943548" y2="22.513508569990506" /><path d="M 143.74570117128098 25.957352633546492 a86.0,86.0 0 0,1 28.547481713284135,27.462654790039103" fill="none" id="id14" stroke="none" /><text fill="#e1ed5e" style="font-size:6.75px; font-family:Arial;" text-anchor="middle"><textPath startOffset="19.985693538727396" xlink:href="#id14">February</textPath></text><path d="M 110.68208982089419 81.91981866633111 l 7.515323605234818 -12.720208858201994 a35.77443069250657,35.77443069250657 0 0,0 0.5274819429460984,0.3178019685892811 l -7.733167614398554 12.5889602801541" fill="#ffb510" stroke="none" /><path d="M 110.99172775467656 82.1063720568725 l 3.888324424215773 -6.329872074887453 a28.428751396593704,28.428751396593704 0 0,0 0.4147630928517421,0.25972461069332164 l -3.9967066694397784 6.262003122871187" fill="#ff5107" stroke="none" /><path d="M 115.19652480421416 85.50635884689758 l 5.493532652254917 -5.239440724142001 a28.591484710067498,28.591484710067498 0 0,0 0.3366071111290738,0.35906899690039434 l -5.582907085354454 5.144102310363552" fill="#ff5307" stroke="none" /><path d="M 115.68641384162765 86.03803664274999 l 5.523955536090923 -4.916691957808065 a28.39512978741307,28.39512978741307 0 0,0 0.321822472579396,0.3678987187977807 l -5.607769872248166 4.820877682807337" fill="#ff5107" stroke="none" /><path d="M 115.9244219780498 86.31012108654704 l 5.605071406622682 -4.818557870652401 a28.391571242040854,28.391571242040854 0 0,0 0.31540248748535793,0.3733370621170101 l -5.687184507595156 4.721361858906285" fill="#ff5107" stroke="none" /><path d="M 116.38621287248628 86.86637796730983 l 5.772347772129084 -4.626562249028174 a28.39763996464658,28.39763996464658 0 0,0 0.3024293475645226,0.3840545592258476 l -5.851131200287571 4.526515295849288" fill="#ff5107" stroke="none" /><path d="M 116.60985879189232 87.15038557335679 l 9.38398816027917 -7.2595818636718725 a32.86426409970771,32.86426409970771 0 0,0 0.34229548883023764,0.4504207398743942 l -9.507559589333521 7.096976347916445" fill="#ff8e0d" stroke="none" /><path d="M 117.04232023915458 87.72973835380427 l 5.999123953467947 -4.319295701760825 a28.39227999796561,28.39227999796561 0 0,0 0.2821481205033362,0.39907850716948273 l -6.072584693775166 4.215390694259549" fill="#ff5107" stroke="none" /><path d="M 117.2510076193507 88.02491185347247 l 6.076987780730065 -4.218447173948457 a28.39763996464658,28.39763996464658 0 0,0 0.27528879664523137,0.4039523402235491 l -6.14870104304403 4.113216810454501" fill="#ff5107" stroke="none" /><line stroke="#e1ed5e" stroke-width="0.3" x1="172.23445277983987" x2="176.4835382374775" y1="55.19839476539836" y2="52.563006222186495" /><path d="M 173.08426987136738 54.67131705675599 a86.0,86.0 0 0,1 12.851231095245387,41.99856678651699" fill="none" id="id15" stroke="none" /><text fill="#e1ed5e" style="font-size:6.75px; font-family:Arial;" text-anchor="middle"><textPath startOffset="22.20632615414155" xlink:href="#id15">March</textPath></text><path d="M 118.73160827565052 90.50648371742162 l 7.907652585178507 -4.007740684602703 a29.86526676433936,29.86526676433936 0 0,0 0.22845505076983266,0.4605514418358235 l -7.975467648901748 3.8710296542679297" fill="#ff6509" stroke="none" /><path d="M 119.34039704204932 91.81776055985345 l 13.617215966543752 -5.760963505775137 a35.785711724308946,35.785711724308946 0 0,0 0.23512629225223697,0.5693769667389997 l -13.714363945682187 5.525711968582834" fill="#ffb510" stroke="none" /><path d="M 119.47837535516314 92.15188598940014 l 6.855880867360861 -2.762331750418597 a28.39145311605339,28.39145311605339 0 0,0 0.17873967762731208,0.45487298349289745 l -6.902414094869874 2.6439097620299155" fill="#ff5107" stroke="none" /><path d="M 119.61058180528143 92.48833698450437 l 6.908191604415284 -2.646122786875626 a28.39763996464658,28.39763996464658 0 0,0 0.17092054232924744,0.4579820770950923 l -6.952716735246157 2.5268175727512" fill="#ff5107" stroke="none" /><path d="M 120.28053869075195 94.5502522615342 l 11.497379079338728 -3.0895538127141835 a32.905253817356126,32.905253817356126 0 0,0 0.14228179749307912,0.5482698061388211 l -11.54885720870211 2.8911875810265117" fill="#ff8f0d" stroke="none" /><path d="M 120.37134235888165 94.90015583598534 l 14.341194771630931 -3.5902326499958015 a35.783762645515864,35.783762645515864 0 0,0 0.1444423502662796,0.5988067933537502 l -14.40086992215803 3.342840624982645" fill="#ffb510" stroke="none" /><path d="M 120.45610955862082 95.25157060432595 l 7.925210570213414 -1.8396607981916437 a29.135927386267994,29.135927386267994 0 0,0 0.1091981440571592,0.4895138682039243 l -7.955703101272611 1.7029687604377555" fill="#ff5b08" stroke="none" /><path d="M 120.53481517161879 95.60439243477599 l 10.125935163056608 -2.167520712298223 a31.355322735900995,31.355322735900995 0 0,0 0.10843074351874456,0.5287468137921617 l -10.16174520249035 1.9928982423426496" fill="#ff7a0b" stroke="none" /><path d="M 120.6074358757038 95.95851677861258 l 8.711584597568912 -1.7084960591473628 a29.877537101286705,29.877537101286705 0 0,0 0.09463251198325745,0.5055306630244191 l -8.739702833462028 1.558287318660381" fill="#ff6509" stroke="none" /><path d="M 120.67395015179393 96.31383870115 l 14.552017690695108 -2.5946219294219475 a35.781518251754136,35.781518251754136 0 0,0 0.10289425139064744,0.60728769621721 l -14.594523803605979 2.3437484448888997" fill="#ffb510" stroke="none" /><path d="M 120.73433829027371 96.67025291283417 l 8.7700277824827 -1.4083870945996646 a29.882395032520975,29.882395032520975 0 0,0 0.07718780097300017,0.5085711670701634 l -8.792971476895 1.257216815137419" fill="#ff6509" stroke="none" /><path d="M 120.78858239683441 97.02765380044208 l 7.3243189384013245 -1.047229250428462 a28.398806458772743,28.398806458772743 0 0,0 0.06502515411999792,0.4845129267349436 l -7.341260091579159 0.9209979816288538" fill="#ff5107" stroke="none" /><path d="M 120.83666639777658 97.38593545837742 l 8.805193023533361 -1.1046557268593196 a29.87421480788941,29.87421480788941 0 0,0 0.05961989509017152,0.5107868518762428 l -8.822903271627121 0.9529251366582241" fill="#ff6509" stroke="none" /><path d="M 120.87857604477298 97.74499172005257 l 7.360415302033049 -0.7949678854699285 a28.403221417554036,28.403221417554036 0 0,0 0.04831641471043398,0.48653970241495487 l -7.373008842425712 0.6681526523505387" fill="#ff5107" stroke="none" /><path d="M 120.91429891909075 98.10471618934814 l 14.720194845541966 -1.3339652019093169 a35.780514180860735,35.780514180860735 0 0,0 0.05030657859018101,0.6138676806911522 l -14.740975907951643 1.080383604010396" fill="#ffb510" stroke="none" /><path d="M 120.94382443527127 98.46500227214037 l 7.392857127206768 -0.5418312652364584 a28.412686262299225,28.412686262299225 0 0,0 0.03155081198160859,0.48807709663555965 l -7.4010885301927924 0.4144951043478636" fill="#ff5107" stroke="none" /><path d="M 120.96714384426684 98.82574320788733 l 14.755767209975444 -0.8263910429500338 a35.77888994853316,35.77888994853316 0 0,0 0.029145128972867782,0.615207608465396 l -14.767805947181808 0.5722723278616381" fill="#ffb510" stroke="none" /><path d="M 120.98425023603335 99.18683210126433 l 7.406846492107292 -0.2870252561086057 a28.412405713079007,28.412405713079007 0 0,0 0.014731569269246668,0.48886906512418815 l -7.410689755832184 0.15948604355941842" fill="#ff5107" stroke="none" /><line stroke="#e1ed5e" stroke-width="0.3" x1="184.98032266829074" x2="189.97916517819016" y1="98.17113171792111" y2="98.06355123074" /><path d="M 185.9800911702706 98.14961562048488 a86.0,86.0 0 0,1 -9.607161424134198,41.387399972396054" fill="none" id="id16" stroke="none" /><text fill="#e1ed5e" style="font-size:6.75px; font-family:Arial;" text-anchor="middle"><textPath startOffset="21.466115282336823" xlink:href="#id16">April</textPath></text><path d="M 120.99513854157772 99.54816195383933 l 7.392546852027569 -0.15909558868385168 a28.394258608255555,28.394258608255555 0 0,0 0.0063102763248796484,0.4887378555304272 l -7.394190135470164 0.03182147509296178" fill="#ff5107" stroke="none" /><path d="M 120.99980553446 99.90962569577887 l 7.397571460548936 -0.0318360268896838 a28.39763996464658,28.39763996464658 0 0,0 -0.002103727879272297,0.4888322708859042 l -7.397023435380161 -0.09550572219990512" fill="#ff5107" stroke="none" /><path d="M 120.99824983174949 100.27111621757518 l 14.779282352925236 0.19082081421577854 a35.780514180860735,35.780514180860735 0 0,0 -0.013252314114139838,0.6157829629156804 l -14.773807976126088 -0.4451935929215737" fill="#ffb510" stroke="none" /><path d="M 120.9904718944345 100.63252640178507 l 5.917271691137214 0.17831093031177012 a26.919957690271318,26.919957690271318 0 0,0 -0.017943904352364228,0.4630524393879181 l -5.913325653933646 -0.28014061671369445" fill="#ff3c05" stroke="none" /><path d="M 120.9764740272857 100.99374915477107 l 8.865158115740742 0.41998208912373425 a29.875100752795355,29.875100752795355 0 0,0 -0.02875641922936736,0.51346518281013 l -8.856615345623846 -0.5725189882692876" fill="#ff6509" stroke="none" /><path d="M 120.89721153311464 102.0752229133903 l 34.229286812556296 3.3991808040925737 a55.39765262100238,55.39765262100238 0 0,0 -0.10240044652340635,0.948100957663661 l -34.16570406453184 -3.987878083641026" fill="#62ff29" stroke="none" /><path d="M 120.8583938346157 102.4346265915055 l 9.755268800608707 1.1386512795549386 a30.82149663282342,30.82149663282342 0 0,0 -0.06604384910620982,0.5264344584992666 l -9.734223442255649 -1.3064034923416001" fill="#ff720a" stroke="none" /><path d="M 120.76222939487914 103.15116336523771 l 7.317691079008134 1.1106341042539774 a28.401493824987444,28.401493824987444 0 0,0 -0.07752018093176097,0.48271824066086677 l -7.297489143715085 -1.236431574608049" fill="#ff5107" stroke="none" /><path d="M 120.70491114924044 103.5080841355445 l 14.568307550805367 2.468344260563915 a35.77593679884668,35.77593679884668 0 0,0 -0.1081004985016742,0.6062850038887134 l -14.523660609964503 -2.7187480151858465" fill="#ffb510" stroke="none" /><path d="M 120.64145759157962 103.86396538481128 l 24.682182476948128 4.620366477967542 a46.11091233340779,46.11091233340779 0 0,0 -0.15275901245659312,0.7789149134595147 l -24.59899353151587 -5.044545118495002" fill="#c9ff1d" stroke="none" /><path d="M 120.32669344350535 105.2749913415812 l 4.016143550467571 1.0422316110657226 a25.14917530951235,25.14917530951235 0 0,0 -0.11234726258110637,0.41808595827182854 l -3.997608211544687 -1.1112085025130993" fill="#ff2203" stroke="none" /><path d="M 120.23288151984713 105.62410040840565 l 7.113181871075959 1.9772393283151244 a28.38287421621415,28.38287421621415 0 0,0 -0.13489618252923108,0.4695913081008264 l -7.078093051660629 -2.0993881119205327" fill="#ff5007" stroke="none" /><path d="M 120.13307415673323 105.97154293290107 l 4.253523394651044 1.2616104907537495 a25.436679197240167,25.436679197240167 0 0,0 -0.12811998359134316,0.41870351934914846 l -4.231176638553568 -1.334640982654955" fill="#ff2603" stroke="none" /><path d="M 120.02730092923936 106.31721596034902 l 30.30459815050218 9.558986095266443 a52.77645172502615,52.77645172502615 0 0,0 -0.2807399343596371,0.8640286742063227 l -30.135565965126297 -10.079213669450562" fill="#7eff26" stroke="none" /><path d="M 119.79798401119884 107.00284435728193 l 8.364496986095878 2.958648238499928 a29.872339557838494,29.872339557838494 0 0,0 -0.17564329535270984,0.4832949130169773 l -8.312329429737941 -3.102190948523037" fill="#ff6509" stroke="none" /><path d="M 119.54520255179757 107.68017299344265 l 4.193227687939517 1.6477042874803658 a25.505339927450954,25.505339927450954 0 0,0 -0.1640811784131034,0.4072360286218206 l -4.1642438952690215 -1.7196396839449999" fill="#ff2703" stroke="none" /><path d="M 119.41010516605496 108.01547362559984 l 13.66805673971282 5.644273813722827 a35.787616505856725,35.787616505856725 0 0,0 -0.24003098430075473,0.567362342880466 l -13.568874774219758 -5.878710682269457" fill="#ffb510" stroke="none" /><line stroke="#e1ed5e" stroke-width="0.3" x1="174.80103733775053" x2="179.2010983576182" y1="140.37084112569926" y2="142.7455964860345" /><path d="M 175.68104954172406 140.8457921977663 a86.0,86.0 0 0,1 -30.038265399797805,32.042727171017184" fill="none" id="id17" stroke="none" /><text fill="#e1ed5e" style="font-size:6.75px; font-family:Arial;" text-anchor="middle"><textPath startOffset="22.206326154141568" xlink:href="#id17">May</textPath></text><path d="M 118.48025628344425 109.97397251340804 l 1.8363825364258768 0.9911133623629925 a23.08676939721293,23.08676939721293 0 0,0 -0.19175605773461368,0.3480929441004261 l -1.8190500692397535 -1.0225768248612237" fill="#ff0400" stroke="none" /><path d="M 118.30583269289576 110.29060199501025 l 7.733456627284451 4.347353410912753 a29.871630801913735,29.871630801913735 0 0,0 -0.2558263414951085,0.4460547900632196 l -7.6574782896369635 -4.479828046834288" fill="#ff6509" stroke="none" /><path d="M 117.14729908036423 112.12312394758627 l 6.2574768401877545 4.424030103937234 a28.66342343643029,28.66342343643029 0 0,0 -0.2882997261651818,0.4004231042368144 l -6.18039732164697 -4.53108681362518" fill="#ff5407" stroke="none" /><path d="M 116.498646956653 112.99209946851258 l 10.714472019539182 8.4372668011006 a34.63771908093294,34.63771908093294 0 0,0 -0.37290323102260686,0.4652541171936539 l -10.56765087646172 -8.620448751872505" fill="#ffa60f" stroke="none" /><path d="M 116.27256486870786 113.27417163493432 l 8.193237523150415 6.683546325092567 a31.573501434738557,31.573501434738557 0 0,0 -0.3471641799356229,0.4181816189321308 l -8.07697734332125 -6.823589201138469" fill="#ff7d0b" stroke="none" /><path d="M 115.56566222782051 114.09645910891815 l 3.6226949535185407 3.2807580255137427 a25.887462731133766,25.887462731133766 0 0,0 -0.30196318970800445,0.3277214039737677 l -3.5656853558148143 -3.342630684288845" fill="#ff2d04" stroke="none" /><path d="M 115.32070863581623 114.36230785411682 l 5.393869331796617 5.056450958609014 a28.393343131852742,28.393343131852742 0 0,0 -0.3373310998022064,0.3536903095106489 l -5.306031680615447 -5.1485483847021705" fill="#ff5107" stroke="none" /><path d="M 115.07121518719521 114.62390073753431 l 5.8434709970928695 5.670036474348165 a29.142202829351778,29.142202829351778 0 0,0 -0.3524255054784276,0.35700517639020546 l -5.745004866558906 -5.769782144719034" fill="#ff5b08" stroke="none" /><path d="M 114.0293411484842 115.62618273729858 l 9.864462955772977 10.987251583719269 a35.7657484324283,35.7657484324283 0 0,0 -0.4616466484109007,0.4073494924871851 l -9.673873954455487 -11.155424217978743" fill="#ffb510" stroke="none" /><path d="M 113.75828350139079 115.86535959552629 l 4.836936977227744 5.577712108989371 a28.38287421621415,28.38287421621415 0 0,0 -0.3718623128976997,0.31690913043201013 l -4.740209187752997 -5.660145629644329" fill="#ff5007" stroke="none" /><path d="M 112.63410532772338 116.77436683061366 l 4.888453573806291 6.490425032433012 a29.12542893913254,29.12542893913254 0 0,0 -0.40306130441514315,0.2981751171714438 l -4.7760072989725835 -6.573610098344225" fill="#ff5b08" stroke="none" /><path d="M 111.45004920935366 117.60387380957326 l 3.2284041434219333 4.963508724545581 a26.92106512140375,26.92106512140375 0 0,0 -0.3906351643224468,0.24932184413369743 l -3.1424871770525558 -5.018344997503087" fill="#ff3c05" stroke="none" /><path d="M 111.1453310114006 117.79835938074945 l 3.9274350214472995 6.2718549933382475 a28.400061547389498,28.400061547389498 0 0,0 -0.4165623657046946,0.255886627978571 l -3.8188934558102963 -6.3385300881451965" fill="#ff5107" stroke="none" /><line stroke="#e1ed5e" stroke-width="0.3" x1="143.8653032363475" x2="146.44561519142675" y1="172.8068346515853" y2="177.08958963109032" /><path d="M 144.38136562736335 173.6633856474863 a86.0,86.0 0 0,1 -40.68145358897372,12.25698825130547" fill="none" id="id18" stroke="none" /><text fill="#e1ed5e" style="font-size:6.75px; font-family:Arial;" text-anchor="middle"><textPath startOffset="21.466115282336833" xlink:href="#id18">June</textPath></text><path d="M 110.5260780823613 118.17145234162733 l 3.708006471098396 6.401231526575856 a28.39763996464658,28.39763996464658 0 0,0 -0.4250872923530709,0.24137565869492159 l -3.5972704118241263 -6.464110351065406" fill="#ff5107" stroke="none" /><path d="M 110.21172684928248 118.3499491758327 l 3.5963154478225836 6.462394329754643 a28.395676120105065,28.395676120105065 0 0,0 -0.4291495162898812,0.23400653343743008 l -3.4845431196640537 -6.523341514951843" fill="#ff5107" stroke="none" /><path d="M 109.89434966115114 118.52300852407294 l 3.4878685765442228 6.529567034389434 a28.402734147855767,28.402734147855767 0 0,0 -0.4332216257466459,0.2266410792721393 l -3.3749560482710814 -6.58863753260629" fill="#ff5107" stroke="none" /><path d="M 108.92500713936063 119.00905698771935 l 3.771544310315847 8.032878809734889 a29.87421480788941,29.87421480788941 0 0,0 -0.46736360312907355,0.21454370745937998 l -3.632712711419354 -8.096609587528343" fill="#ff6509" stroke="none" /><path d="M 108.59647513512805 119.15986991738527 l 3.329402355580713 7.4205898386062605 a29.133269551550157,29.133269551550157 0 0,0 -0.4593058680067157,0.20134619477891896 l -3.2011758129162433 -7.476800586679634" fill="#ff5b08" stroke="none" /><path d="M 108.2653958097858 119.30500536409082 l 3.014156754676447 7.0399910247912665 a28.658107766994615,28.658107766994615 0 0,0 -0.4551569931947708,0.19025566006973937 l -2.892528301984215 -7.090831727880979" fill="#ff5407" stroke="none" /><path d="M 107.93186726928326 119.44442032107085 l 2.7963393546906756 6.855031221150372 a28.403442903780526,28.403442903780526 0 0,0 -0.4542913256775282,0.1807718939915389 l -2.6779269529712812 -6.902149959547979" fill="#ff5107" stroke="none" /><path d="M 107.59598834532513 119.57807347666477 l 2.6758279502079434 6.8967399419886934 a28.39763996464658,28.39763996464658 0 0,0 -0.45724227296072123,0.1728899029677113 l -2.5567154564869474 -6.941778095063035" fill="#ff5107" stroke="none" /><path d="M 107.2578585660854 119.70592522655815 l 2.5592976880657554 6.948789152380606 a28.40511143335339,28.40511143335339 0 0,0 -0.4602716094715636,0.16503702347701857 l -2.439306517964457 -6.9918137168975845" fill="#ff5107" stroke="none" /><path d="M 106.2309692047433 120.05430185196036 l 3.5084982382004593 11.292060737899558 a32.82455900217291,32.82455900217291 0 0,0 -0.5410191106483218,0.16300461999090166 l -3.3136041531118914 -11.350780726996186" fill="#ff8e0d" stroke="none" /><path d="M 105.53697534728816 120.25689768951611 l 1.9498249663124878 7.133390051014206 a28.395070724419337,28.395070724419337 0 0,0 -0.4725880283441912,0.12481479357145016 l -1.8267464951567993 -7.16589619388924" fill="#ff5107" stroke="none" /><path d="M 105.18746579009965 120.34920634021253 l 1.8266698983419407 7.16559572262762 a28.394760643702256,28.394760643702256 0 0,0 -0.4746613073559248,0.11666020089585408 l -1.7030553062428047 -7.195977181837503" fill="#ff5107" stroke="none" /><path d="M 104.48393922423573 120.51570834832081 l 3.1559489185682787 14.439653246321845 a35.780514180860735,35.780514180860735 0 0,0 -0.6028310205540834,0.12632910157333357 l -2.9069264365848175 -14.49183832862172" fill="#ffb510" stroke="none" /><path d="M 103.7750983002368 120.6578951692458 l 4.013389805647797 21.96186146283692 a43.32556061210825,43.32556061210825 0 0,0 -0.7347829987405902,0.12775144283219278 l -3.6347578354351566 -22.02769148419012" fill="#eaff1a" stroke="none" /><path d="M 103.41894727170886 120.7198165907248 l 1.2028972056531346 7.2899075352428255 a28.388485200618476,28.388485200618476 0 0,0 -0.4828261333400614,0.07540751220676839 l -1.077235208704556 -7.3095333547967" fill="#ff5107" stroke="none" /><path d="M 102.70371172650421 120.8252237178851 l 1.1432214645270546 8.80561434285997 a29.87951571157665,29.87951571157665 0 0,0 -0.5106161333995373,0.061828502723292066 l -0.9914779080761371 -8.823988374308614" fill="#ff6509" stroke="none" /><path d="M 102.34483914955558 120.86867818915974 l 0.9908860144335718 8.818720619396196 a29.87421480788941,29.87421480788941 0 0,0 -0.5115139927104405,0.05302051679897011 l -0.8389394251175287 -8.834470504650923" fill="#ff6509" stroke="none" /><path d="M 101.62511606390274 120.93702456842531 l 0.21193772819943166 2.7304790844485396 a23.73869195625307,23.73869195625307 0 0,0 -0.40766934903916763,0.02811526514142662 l -0.16490561838133366 -2.7337226941062513" fill="#ff0e01" stroke="none" /><path d="M 101.26447882468166 120.96189622390904 l 1.0687373481556588 17.716992127799873 a38.74919743469731,38.74919743469731 0 0,0 -0.666139172063215,0.03443178628290678 l -0.7636101076789642 -17.732763720844982" fill="#ffdb14" stroke="none" /><line stroke="#e1ed5e" stroke-width="0.3" x1="102.19456741930631" x2="102.32365962044197" y1="184.97166512339345" y2="189.96999836594603" /><path d="M 102.22038585953345 185.97133177190398 a86.0,86.0 0 0,1 -42.740103519485714,-10.115201625700543" fill="none" id="id19" stroke="none" /><text fill="#e1ed5e" style="font-size:6.75px; font-family:Arial;" text-anchor="middle"><textPath startOffset="22.20632615414155" xlink:href="#id19">July</textPath></text><path d="M 100.54218724476979 120.99299961872073 l 0.0711704223995504 2.7556543697967695 a23.756573277604744,23.756573277604744 0 0,0 -0.40888491488309603,0.0070393246185335235 l -0.02372581762378644 -2.7564711716944625" fill="#ff0e01" stroke="none" /><path d="M 100.18074693466247 120.99922214144158 l 0.08968386258783945 10.419492626536266 a31.419878588047574,31.419878588047574 0 0,0 -0.5408615945005826,0.0 l 0.08968386258783227 -10.419492626536266" fill="#ff7b0b" stroke="none" /><path d="M 98.73552117531835 120.96189622390904 l -1.1669369030554704 19.34489513326334 a40.38005958331058,40.38005958331058 0 0,0 -0.6934549146527351,-0.04782471096990374 l 1.4997545784871356 -19.321942077777152" fill="#fff016" stroke="none" /><path d="M 98.01472825383883 120.90594882070398 l -0.23246718329774815 2.448000907640668 a23.459013915194447,23.459013915194447 0 0,0 -0.401671272365701,-0.04163486971544733 l 0.2745710522690425 -2.44363666946946" fill="#ff0a01" stroke="none" /><path d="M 97.2962882734958 120.8252237178851 l -1.3332536430021167 10.269329054582295 a31.355514690630617,31.355514690630617 0 0,0 -0.5346434913969581,-0.07409671622502641 l 1.5098257255859058 -10.244857772864664" fill="#ff7a0b" stroke="none" /><path d="M 95.86986931433489 120.58985236759428 l -2.26056945579561 11.269568665968047 a32.494057255009864,32.494057255009864 0 0,0 -0.5474607099821368,-0.11472571463753932 l 2.4542216272071338 -11.228986970603966" fill="#ff890c" stroke="none" /><path d="M 95.51606077576429 120.51570834832081 l -1.9722978231145554 9.024004316638162 a30.237024012622605,30.237024012622605 0 0,0 -0.5075210336558876,-0.1155101349134527 l 2.127339006163306 -8.988717448147023" fill="#ff6a09" stroke="none" /><path d="M 94.81253420990036 120.34920634021253 l -1.827381154479907 7.168385812914085 a28.39763996464658,28.39763996464658 0 0,0 -0.472630789011542,-0.1248260870523434 l 1.9505023863029383 -7.13586837655816" fill="#ff5107" stroke="none" /><path d="M 94.46302465271185 120.25689768951611 l -1.9505023863029383 7.13586837655816 a28.39763996464658,28.39763996464658 0 0,0 -0.47041208776606375,-0.13294315482203023 l 2.0730456421736156 -7.101236428397608" fill="#ff5107" stroke="none" /><path d="M 93.76903079525671 120.05430185196036 l -5.768147928302647 18.564716961349003 a40.44017094517899,40.44017094517899 0 0,0 -0.6629851265380313,-0.21226690113723445 l 6.086854399931618 -18.462677213552062" fill="#fff016" stroke="none" /><path d="M 93.08242187328487 119.8279376855182 l -1.020877692050518 2.926154051566216 a24.099123875488647,24.099123875488647 0 0,0 -0.39049811718047245,-0.14001873156338246 l 1.071095369860717 -2.9081477789628756" fill="#ff1302" stroke="none" /><path d="M 92.06813273071674 119.44442032107085 l -3.909575697383413 9.584052601505025 a31.35078965113224,31.35078965113224 0 0,0 -0.4979230055211523,-0.20813185669059386 l 4.073970162402028 -9.51533570179446" fill="#ff7a0b" stroke="none" /><path d="M 91.40352486487194 119.15986991738527 l -6.677530408299494 14.882915611492324 a37.312283391743975,37.312283391743975 0 0,0 -0.5837275831039846,-0.26796070337305566 l 6.9327259871708975 -14.765767837785194" fill="#ffc912" stroke="none" /><path d="M 90.7491055286396 118.85261126421891 l -0.7992969730190217 1.6289057413470351 a22.814444698873654,22.814444698873654 0 0,0 -0.35106660251565625,-0.17603208252446786 l 0.8272174832174384 -1.6149058179132652" fill="#ff0000" stroke="none" /><line stroke="#e1ed5e" stroke-width="0.3" x1="58.666819895761336" x2="56.23545636021788" y1="174.27360380694188" y2="178.64263932499728" /><path d="M 58.180547188652646 175.14741091055294 a86.0,86.0 0 0,1 -31.652253787137756,-30.449443065178592" fill="none" id="id20" stroke="none" /><text fill="#e1ed5e" style="font-size:6.75px; font-family:Arial;" text-anchor="middle"><textPath startOffset="22.20632615414155" xlink:href="#id20">August</textPath></text><path d="M 89.7882731507175 118.34994917583269 l -3.5972560514632024 6.464084546233665 a28.397610433149715,28.397610433149715 0 0,0 -0.425086850292943,-0.2413754076816439 l 3.7079916686773524 -6.4012059727573885" fill="#ff5107" stroke="none" /><path d="M 89.1626897886671 117.98757091392108 l -3.817643768029941 6.3364558790350936 a28.39763996464658,28.39763996464658 0 0,0 -0.41652684675927065,-0.25586480934126193 l 3.9261498147215206 -6.269802602865453" fill="#ff5107" stroke="none" /><path d="M 88.8546689885994 117.79835938074946 l -1.5209089373088003 2.4287913767591203 a23.86569215852039,23.86569215852039 0 0,0 -0.3463005098784382,-0.2210253700459569 l 1.5624912492341618 -2.4022515778893587" fill="#ff1001" stroke="none" /><path d="M 88.54995079064634 117.60387380957326 l -4.033975511478788 6.202034118505756 a28.398525909552525,28.398525909552525 0 0,0 -0.4074854464303293,-0.27005913439176693 l 4.140135656649079 -6.131676963022671" fill="#ff5107" stroke="none" /><path d="M 88.24862548938628 117.40417183066458 l -4.137954289520681 6.128446286620169 a28.394627751966365,28.394627751966365 0 0,0 -0.4027211614104286,-0.2769952870256963 l 4.242832335554 -6.056310210229371" fill="#ff5107" stroke="none" /><path d="M 87.65650970185807 116.9893568818739 l -2.61240583946026 3.5956681663664223 a25.44449027816092,25.44449027816092 0 0,0 -0.3521214902320138,-0.26049106043772974 l 2.673912300110838 -3.550167157188926" fill="#ff2703" stroke="none" /><path d="M 85.70375840098266 115.38237550388516 l -1.5295821946503982 1.6457897356593671 a23.246830110220454,23.246830110220454 0 0,0 -0.29076710637902325,-0.2749384478490732 l 1.5576851354202386 -1.619216651064363" fill="#ff0601" stroke="none" /><path d="M 85.44109423537348 115.13401014063109 l -1.8243746707796706 1.8964409286152368 a23.631507388382076,23.631507388382076 0 0,0 -0.2907238599628705,-0.2845344862350925 l 1.8567484831183352 -1.8647563394575748" fill="#ff0c01" stroke="none" /><path d="M 85.18274418774928 114.88116024355367 l -13.909574388691828 13.969564136607248 a40.71357354315384,40.71357354315384 0 0,0 -0.4923616042273775,-0.49875970561874466 l 14.14797661797474 -13.728063937007839" fill="#fff417" stroke="none" /><path d="M 84.43433777217949 114.09645910891817 l -8.869287545521695 8.032138137189282 a32.965763854432225,32.965763854432225 0 0,0 -0.37728712414264143,-0.42388608356760343 l 9.006233519312675 -7.8782778838808145" fill="#ff8f0d" stroke="none" /><path d="M 84.19399662182784 113.82643327865904 l -4.273280113696828 3.7380874190273814 a26.67751886675928,26.67751886675928 0 0,0 -0.2993693879532711,-0.3482342313775742 l 4.336992011220877 -3.663976088488277" fill="#ff3805" stroke="none" /><path d="M 83.95833913139862 113.55231037782056 l -1.7961070409376951 1.5173865281132042 a23.351268248883017,23.351268248883017 0 0,0 -0.256757202201245,-0.30928059026398413 l 1.8219602430324764 -1.486244680735459" fill="#ff0801" stroke="none" /><path d="M 83.50135304334701 112.99209946851258 l -11.623909532298175 9.15341659551736 a35.79527992929316,35.79527992929316 0 0,0 -0.3770319950538356,-0.4873646780314822 l 11.779748344570079 -8.951973923372625" fill="#ffb510" stroke="none" /><path d="M 83.06392112726016 112.41649034213515 l -2.180906216341175 1.598906168055768 a23.704228699411786,23.704228699411786 0 0,0 -0.23841962416504006,-0.3311440051956234 l 2.2081056328818227 -1.5611285574090061" fill="#ff0d01" stroke="none" /><path d="M 82.6465618267979 111.8261652097733 l -12.217881114095812 8.326343121548941 a35.785283517604405,35.785283517604405 0 0,0 -0.3425109932873838,-0.5120074624628094 l 12.359395212793926 -8.11479874488031" fill="#ffb510" stroke="none" /><line stroke="#e1ed5e" stroke-width="0.3" x1="26.63291911575756" x2="22.317208475507996" y1="142.92168965132927" y2="145.44649492493687" /><path d="M 25.769776987707644 143.4266507060508 a86.0,86.0 0 0,1 -11.730757126820373,-40.83630448921669" fill="none" id="id21" stroke="none" /><text fill="#e1ed5e" style="font-size:6.75px; font-family:Arial;" text-anchor="middle"><textPath startOffset="21.46611528233685" xlink:href="#id21">September</textPath></text><path d="M 81.87401531095188 110.60418214915194 l -12.757684463740024 7.463584030093834 a35.780514180860735,35.780514180860735 0 0,0 -0.30643114533663635,-0.5342885310525401 l 12.884267605229036 -7.242875653182987" fill="#ffb510" stroke="none" /><path d="M 81.18737489456691 109.33194174019688 l -6.624821368173513 3.2862211786250017 a28.3951002559162,28.3951002559162 0 0,0 -0.21343210016642536,-0.4397333428427104 l 6.680406724954657 -3.1716988798170065" fill="#ff5107" stroke="none" /><path d="M 81.02952815118164 109.00673069616217 l -6.687969781758687 3.1752896400477764 a28.403472435277386,28.403472435277386 0 0,0 -0.2058918797399772,-0.44347279195840184 l 6.741636278338491 -3.059696780810547" fill="#ff5107" stroke="none" /><path d="M 80.87730276802145 108.67885076344099 l -12.652459114902468 5.742328245680006 a34.894569274915035,34.894569274915035 0 0,0 -0.24352905817622653,-0.5490937363936447 l 12.749429257809973 -5.523686172793665" fill="#ffa90f" stroke="none" /><path d="M 80.32549172779594 107.34259656027581 l -13.865654907780698 5.174711795754406 a35.79979824831348,35.79979824831348 0 0,0 -0.21049554974163714,-0.5791933486476692 l 13.95267471852756 -4.93527065010062" fill="#ffb510" stroke="none" /><path d="M 80.0844068197444 106.66101706037122 l -1.9473225260159874 0.6513061624846468 a23.053354508510346,23.053354508510346 0 0,0 -0.12263039707952814,-0.37741755424892964 l 1.9582451741117648 -0.6176897082579138" fill="#ff0400" stroke="none" /><path d="M 79.97269907076064 106.31721596034903 l -14.270819784259478 4.501447839971747 a35.96393430788835,35.96393430788835 0 0,0 -0.18114387643442179,-0.59198866910224 l 14.34619043320003 -4.255132198317459" fill="#ffb711" stroke="none" /><path d="M 79.76711848015287 105.62410040840567 l -7.128773965737356 1.9815734369227962 a28.399057476496093,28.399057476496093 0 0,0 -0.12686524818812372,-0.4721127835387517 l 7.161827290267254 -1.8585697202085056" fill="#ff5107" stroke="none" /><path d="M 79.67330655649465 105.27499134158121 l -13.389794012607277 3.474792773274539 a34.83332095041732,34.83332095041732 0 0,0 -0.14561768880835899,-0.5816702818403303 l 13.447623015710695 -3.243794652036817" fill="#ffa80f" stroke="none" /><path d="M 79.58551787078972 104.9243191809786 l -10.26172665645651 2.4753024389506275 a31.556048320091428,31.556048320091428 0 0,0 -0.12282731100725375,-0.5291368411298601 l 10.30281453339432 -2.298296940472193" fill="#ff7c0b" stroke="none" /><path d="M 79.4281124754447 104.21870165774334 l -17.66010375902891 3.621578667256748 a39.02762038713918,39.02762038713918 0 0,0 -0.12929305553016757,-0.6592625046447835 l 17.719826747534746 -3.3170524355440096" fill="#ffdf14" stroke="none" /><path d="M 79.35854240842038 103.8639653848113 l -14.336594224168868 2.683730234286947 a35.58562106730111,35.58562106730111 0 0,0 -0.10752544087094153,-0.6030597753031234 l 14.380666107379 -2.43655170825061" fill="#ffb210" stroke="none" /><path d="M 79.23777060512086 103.15116336523772 l -12.525159648244653 1.9009916265079443 a33.66859871406737,33.66859871406737 0 0,0 -0.08203265734031291,-0.5737362143763748 l 12.556026356601565 -1.6851099401511689" fill="#ff990e" stroke="none" /><path d="M 79.1416061653843 102.43462659150553 l -14.680846945834068 1.7135729933737216 a35.780514180860735,35.780514180860735 0 0,0 -0.06613891483857093,-0.6123642095930981 l 14.708168162173692 -1.4606124618958414" fill="#ffb510" stroke="none" /><path d="M 79.07016306316243 101.71520430193888 l -11.78299169078676 0.9656185138345007 a32.82249179739237,32.82249179739237 0 0,0 -0.041299199357082456,-0.5634947628606987 l 11.797867448808178 -0.7626506144770414" fill="#ff8e0d" stroke="none" /><path d="M 79.04373962182676 101.35467743843564 l -2.292809233063432 0.14821427500027606 a23.29759475333114,23.29759475333114 0 0,0 -0.022425209786110463,-0.4004171851348725 l 2.2950207937370743 -0.10872537352996597" fill="#ff0701" stroke="none" /><line stroke="#e1ed5e" stroke-width="0.3" x1="15.007084014347285" x2="10.007500721073583" y1="101.09737516637583" y2="101.16192664675087" /><path d="M 14.007167355692545 101.11028546245083 a86.0,86.0 0 0,1 10.666146001902534,-42.60595125391555" fill="none" id="id22" stroke="none" /><text fill="#e1ed5e" style="font-size:6.75px; font-family:Arial;" text-anchor="middle"><textPath startOffset="22.20632615414155" xlink:href="#id22">October</textPath></text><path d="M 79.00175016825051 100.2711162175752 l -19.998554172147433 0.25820877490120325 a41.00022101747257,41.00022101747257 0 0,0 -0.003037340712755124,-0.7057710137795616 l 20.00003581014969 0.08607171708203376" fill="#fff717" stroke="none" /><path d="M 79.00019446554 99.90962569577889 l -15.097631242337005 -0.06497383590882573 a36.097771051679885,36.097771051679885 0 0,0 0.008022287645929696,-0.6213350190484087 l 15.09427594757336 0.3248451130177064" fill="#ffb911" stroke="none" /><path d="M 79.00486145842228 99.54816195383935 l -5.379909803120921 -0.11578146670233906 a26.38115552997201,26.38115552997201 0 0,0 0.01367838485826115,-0.4539190018287181 l 5.377119723807015 0.20837061595605155" fill="#ff3404" stroke="none" /><path d="M 79.01574976396665 99.18683210126434 l -16.243435677305598 -0.6294549630980368 a37.25562721500875,37.25562721500875 0 0,0 0.030348064506983977,-0.640599676339677 l 16.230194004565117 0.9089657460607229" fill="#ffc812" stroke="none" /><path d="M 79.05617556472873 98.46500227214037 l -3.3585421283186734 -0.24615153511351745 a24.367550416241762,24.367550416241762 0 0,0 0.03426021448066509,-0.41806139460522446 l 3.3538074300185112 0.30392684692652033" fill="#ff1702" stroke="none" /><path d="M 79.08570108090925 98.10471618934814 l -20.601993539803658 -1.866982248565925 a41.686414878624376,41.686414878624376 0 0,0 0.07091231235559863,-0.7140773080499092 l 20.566804101765833 2.2213350873202646" fill="#feff18" stroke="none" /><path d="M 79.12142395522702 97.74499172005258 l -11.75844907829542 -1.2699812465196607 a32.826832927431504,32.826832927431504 0 0,0 0.06551242761899134,-0.5612704720741852 l 11.73484629767284 1.4721954569187077" fill="#ff8e0d" stroke="none" /><path d="M 79.16333360222342 97.38593545837743 l -14.665554436866719 -1.8398675251017858 a35.780514180860735,35.780514180860735 0 0,0 0.08192715607541412,-0.6104524734522738 l 14.631711281733471 2.092038340618719" fill="#ffb510" stroke="none" /><path d="M 79.21141760316559 97.0276538004421 l -14.631711281733471 -2.092038340618719 a35.780514180860735,35.780514180860735 0 0,0 0.09242295352491275,-0.6089517870146173 l 14.593532434769257 2.343589240025428" fill="#ffb510" stroke="none" /><path d="M 79.26566170972629 96.67025291283419 l -16.82188173752367 -2.7014419718637557 a38.0374145315121,38.0374145315121 0 0,0 0.10938136457817303,-0.6455750054644264 l 16.772888511425275 2.99060276564401" fill="#ffd213" stroke="none" /><path d="M 79.32604984820605 96.31383870115002 l -16.71908895188161 -2.981010314620913 a37.982766496563684,37.982766496563684 0 0,0 0.12030458178189024,-0.6426718864213901 l 16.665298646189857 3.2683602785048755" fill="#ffd113" stroke="none" /><path d="M 79.46518482838121 95.60439243477599 l -14.454978304495555 -3.0941798822813906 a35.782433728156946,35.782433728156946 0 0,0 0.13410849433969324,-0.6011820840916957 l 14.399575423153824 3.3425401359230458" fill="#ffb510" stroke="none" /><path d="M 79.54389044137918 95.25157060432595 l -14.397705591258859 -3.3421060961702973 a35.780514180860735,35.780514180860735 0 0,0 0.14442923773046532,-0.5987524334273735 l 14.338043553267578 3.5894437612570678" fill="#ffb510" stroke="none" /><path d="M 79.62865764111835 94.90015583598534 l -10.039108490818489 -2.5132309862972275 a31.348914401081323,31.348914401081323 0 0,0 0.1355522104524729,-0.5223379621000502 l 9.994359948495708 2.6856653739461414" fill="#ff7a0b" stroke="none" /><path d="M 79.71946130924805 94.55025226153421 l -14.274132843531145 -3.835717796690824 a35.780514180860735,35.780514180860735 0 0,0 0.16495367279263107,-0.5934261260500965 l 14.205992400172153 4.080855226159863" fill="#ffb510" stroke="none" /><path d="M 79.81627453868168 94.20196356495316 l -14.208575307881276 -4.081597199837346 a35.783201547075436,35.783201547075436 0 0,0 0.1751572429286952,-0.5905431478258153 l 14.136212167840874 4.325569734409701" fill="#ffb510" stroke="none" /><path d="M 79.91906864156998 93.8553929516997 l -19.77919244772499 -6.052277314964196 a41.68445103408286,41.68445103408286 0 0,0 0.21585502200425408,-0.6843194074574448 l 19.672081941952534 6.391846888848055" fill="#feff18" stroke="none" /><path d="M 80.02781315780177 93.51064311812611 l -9.850814271426668 -3.200723580718729 a31.35775908439235,31.35775908439235 0 0,0 0.17121740561281978,-0.5119182498195997 l 9.794259572042076 3.369814933460651" fill="#ff7a0b" stroke="none" /><path d="M 80.14247586403 93.16781622104843 l -14.403106892927005 -4.955535876807059 a36.23177021870417,36.23177021870417 0 0,0 0.20798229888912764,-0.5879939661571432 l 14.315671513228066 5.202727469390813" fill="#ffbb11" stroke="none" /><path d="M 80.38941819471856 92.48833698450439 l -11.441647531194631 -4.382623700295567 a33.2522932027635,33.2522932027635 0 0,0 0.2093413163157397,-0.5327508160746486 l 11.3645126649972 4.5789235212659785" fill="#ff930d" stroke="none" /><path d="M 80.52162464483688 92.15188598940014 l -13.709543007481754 -5.5237695441277594 a35.780514180860735,35.780514180860735 0 0,0 0.2350921423342654,-0.56929427000388 l 13.612429178261289 5.758938384584951" fill="#ffb510" stroke="none" /><path d="M 80.65960295795068 91.81776055985345 l -9.855670701668128 -4.169586454143491 a31.701387581911817,31.701387581911817 0 0,0 0.21694209078088586,-0.5007322561291385 l 9.782437901044561 4.338617854859229" fill="#ff7e0b" stroke="none" /><path d="M 80.95270993114464 91.15688171328213 l -30.31873425875315 -14.076131165352265 a54.42698185055141,54.42698185055141 0 0,0 0.4018313128500809,-0.8463592246234601 l 30.071944752061317 14.595932805616258" fill="#6dff28" stroke="none" /><path d="M 81.10775173730289 90.83032412892265 l -2.6001161090768425 -1.2620108319494228 a23.89020330091822,23.89020330091822 0 0,0 0.18274866422856373,-0.36841015561013446 l 2.578007431894866 1.306580576058519" fill="#ff1001" stroke="none" /><path d="M 81.26839172434947 90.50648371742162 l -13.180004879530308 -6.67986374084785 a35.77609922207944,35.77609922207944 0 0,0 0.2831262004303517,-0.5469097019718233 l 13.063069245939841 6.905746165080009" fill="#ffb510" stroke="none" /><path d="M 81.43458229118936 90.18545643968196 l -9.150796832824016 -4.837536948320312 a31.35078965113224,31.35078965113224 0 0,0 0.2563179364859408,-0.47491820836041326 l 9.066170797119604 4.994336140013198" fill="#ff7a0b" stroke="none" /><path d="M 81.6062741919709 89.86733742301443 l -13.592789597393299 -7.487941916054024 a36.51880160248214,36.51880160248214 0 0,0 0.3080488882398785,-0.5479845991601018 l 13.46188306786099 7.72081002514891" fill="#ffbe11" stroke="none" /><line stroke="#e1ed5e" stroke-width="0.3" x1="26.266209847984243" x2="21.928928074336255" y1="57.711370442889674" y2="55.22380399835377" /><path d="M 25.398753493254645 57.213857153982495 a86.0,86.0 0 0,1 29.58750427330803,-30.492523968695096" fill="none" id="id23" stroke="none" /><text fill="#e1ed5e" style="font-size:6.75px; font-family:Arial;" text-anchor="middle"><textPath startOffset="21.46611528233685" xlink:href="#id23">November</textPath></text><path d="M 81.78341655067845 89.55222093294921 l -2.461974755699045 -1.4120193497182894 a23.838154037693908,23.838154037693908 0 0,0 0.20721068562224682,-0.35419023005903333 l 2.437304395606473 1.4541889921312146" fill="#ff0f01" stroke="none" /><path d="M 81.96595687620814 89.24020034530311 l -25.867796844303204 -15.433716645930945 a51.12212680215374,51.12212680215374 0 0,0 0.4573828563873071,-0.7518171551761639 l 25.598298189629677 15.876701574314183" fill="#90ff24" stroke="none" /><path d="M 82.15384107792192 88.93136811851018 l -2.513351340289249 -1.5588430482984483 a23.95752034802166,23.95752034802166 0 0,0 0.2203777044577907,-0.3485846046320269 l 2.4861460395854955 1.6018753006446906" fill="#ff1101" stroke="none" /><path d="M 82.34701348167596 88.62581576622439 l -6.218617137258915 -4.006783607129403 a28.397669496143443,28.397669496143443 0 0,0 0.26829491314421966,-0.40863155937461787 l 6.1487255887567756 4.113233230481688" fill="#ff5107" stroke="none" /><path d="M 82.7489923806493 88.02491185347247 l -12.144089842814838 -8.430032003691782 a35.78324584432073,35.78324584432073 0 0,0 0.35559580143643116,-0.5029650431122009 l 11.997181421574528 8.637823547135769" fill="#ffb510" stroke="none" /><path d="M 83.17141714833178 87.43820079747576 l -11.842541034788901 -8.839937613161814 a35.77803353512408,35.77803353512408 0 0,0 0.37264365455239606,-0.4903553685927564 l 11.688621440012398 9.042477757635595" fill="#ffb510" stroke="none" /><path d="M 83.39014120810768 87.1503855733568 l -35.04658244855681 -27.112516552840034 a65.30972235471032,65.30972235471032 0 0,0 0.6955358524843653,-0.8832598998834477 l 34.574692515478475 27.71176884667653" fill="#35ff6a" stroke="none" /><path d="M 83.6137871275137 86.86637796730984 l -2.346488173501075 -1.8807206408679213 a24.007177559999917,24.007177559999917 0 0,0 0.2612226796880844,-0.32022811798026624 l 2.313767001736598 1.9208329284562697" fill="#ff1202" stroke="none" /><path d="M 83.84228863543731 86.58626213691792 l -2.36625475601224 -1.9644069817977272 a24.075395317757735,24.075395317757735 0 0,0 0.2674540097016507,-0.31658118814951836 l 2.332090132823465 2.0048471195763615" fill="#ff1302" stroke="none" /><path d="M 84.31358615837235 86.03803664274999 l -7.73209287267407 -6.882082702462204 a31.351247389333647,31.351247389333647 0 0,0 0.3622656930305441,-0.40002282636164566 l 7.6124835390274805 7.014158316093407" fill="#ff7a0b" stroke="none" /><path d="M 85.05521093208273 85.24692304244772 l -44.83436720375183 -44.259230872656865 a84.0,84.0 0 0,0 1.0246567993307472,-1.0202565973995625 l 44.06587460425377 45.02442332070654" fill="#4dd2ff" stroke="none" /><path d="M 85.57189188830299 84.74124197986013 l -6.2952030180961795 -6.657628207187425 a30.1626194062716,30.1626194062716 0 0,0 0.38032494394652366,-0.3534705860885371 l 6.179670190354799 6.765003379350611" fill="#ff6909" stroke="none" /><path d="M 86.10567301691215 84.25364557470407 l -9.779299857478373 -11.082819756187897 a35.780514180860735,35.780514180860735 0 0,0 0.4653276338285775,-0.40352753864149354 l 9.587078425003021 11.24951228824907" fill="#ffb510" stroke="none" /><path d="M 86.65592168130627 83.78471172551755 l -1.639821622198925 -1.99265769337061 a23.58063938503236,23.58063938503236 0 0,0 0.31563988527660397,-0.2552255026110033 l 1.6052783383578204 2.0205892932457474" fill="#ff0b01" stroke="none" /><line stroke="#e1ed5e" stroke-width="0.3" x1="56.762969772571076" x2="54.21961505331055" y1="26.818313649435495" y2="22.513508569990535" /><path d="M 56.25429882871897 25.957352633546506 a86.0,86.0 0 0,1 42.265352541879196,-11.944610805530505" fill="none" id="id24" stroke="none" /><text fill="#e1ed5e" style="font-size:6.75px; font-family:Arial;" text-anchor="middle"><textPath startOffset="22.20632615414155" xlink:href="#id24">December</textPath></text></svg>