<?xml version="1.0" encoding="utf-8" ?>
<svg baseProfile="full" height="200mm" version="1.1" viewBox="0,0,200,200" width="200mm" xmlns="http://www.w3.org/2000/svg" xmlns:ev="http://www.w3.org/2001/xml-events" xmlns:xlink="http://www.w3.org/1999/xlink"><defs /><rect fill="#1a1a1a" height="200" width="200" x="0" y="0" /><text alignment-baseline="middle" fill="#e1ed5e" style="dominant-baseline: central; font-size:9.0px; font-family:Arial;" text-anchor="middle" x="100.0" y="100.0">2025</text><line stroke="#e1ed5e" stroke-width="0.3" x1="100.0" x2="100.0" y1="15.0" y2="10.0" /><path d="M 100.0 14.0 a86.0,86.0 0 0,1 42.46469731375804,11.215312516191453" fill="none" id="id13" stroke="none" /><text fill="#e1ed5e" style="font-size:6.75px; font-family:Arial;" text-anchor="middle"><textPath startOffset="22.20632615414155" xlink:href="#id13">January</textPath></text><path d="M 108.43124777332544 80.76684994638697 l 16.074516186643518 -36.66878143886011 a61.037352595364695,61.037352595364695 0 0,0 0.9586290632094933,0.43010891729561956 l -16.70332736831979 36.38665219104796" fill="#2fff30" stroke="none" /><path d="M 110.05341064243156 81.56283822128135 l 8.201518023084486 -15.040936852263357 a38.13168641076393,38.13168641076393 0 0,0 0.5735657704866456,0.31918873028933464 l -8.459207882643167 14.897532724413843" fill="#ffc412" stroke="none" /><line stroke="#e1ed5e" stroke-width="0.3" x1="143.23703022742887" x2="145.7803849466894" y1="26.81831364943548" y2="22.513508569990506" /><path d="M 143.74570117128098 25.957352633546492 a86.0,86.0 0 0,1 28.547481713284135,27.462654790039103" fill="none" id="id14" stroke="none" /><text fill="#e1ed5e" style="font-size:6.75px; font-family:Arial;" text-anchor="middle"><textPath startOffset="19.985693538727396" xlink:href="#id14">February</textPath></text><path d="M 110.68208982089419 81.91981866633111 l 13.764467952115629 -23.297321096190917 a48.05967014329333,48.05967014329333 0 0,0 0.7086236648300592,0.4269378292158077 l -14.163453683163326 23.05693665751649" fill="#bdff1f" stroke="none" /><path d="M 110.99172775467656 82.1063720568725 l 7.1215452235837855 -11.593289376799595 a34.60590919217688,34.60590919217688 0 0,0 0.5048851329156019,0.3161590239134988 l -7.320049508871651 11.468986011563151" fill="#ff950d" stroke="none" /><path d="M 115.19652480421416 85.50635884689758 l 10.061516723404084 -9.5961421919647 a34.903958563795605,34.903958563795605 0 0,0 0.41092376902662775,0.43834482596638225 l -10.225207814401175 9.421527949120263" fill="#ff990e" stroke="none" /><path d="M 115.68641384162765 86.03803664274999 l 10.117236853576516 -9.005021265688962 a34.544330531513076,34.544330531513076 0 0,0 0.39151579684553656,0.4475702361432507 l -10.270744513999901 8.829535473342764" fill="#ff940d" stroke="none" /><path d="M 115.9244219780498 86.31012108654704 l 10.265802219353263 -8.825286690224587 a34.53781298332687,34.53781298332687 0 0,0 0.3836812001131907,0.4541575216537792 l -10.416194032953571 8.647270218941701" fill="#ff940d" stroke="none" /><path d="M 116.38621287248628 86.86637796730983 l 10.572172283119446 -8.473642806393375 a34.548927972142344,34.548927972142344 0 0,0 0.3679393695629851,0.46724563451700263 l -10.716465733276396 8.290404777923333" fill="#ff940d" stroke="none" /><path d="M 116.60985879189232 87.15038557335679 l 17.186965070303096 -13.296071753805629 a42.729640871633535,42.729640871633535 0 0,0 0.4450476440099684,0.585630531618674 l -17.413288654537176 12.998256446305922" fill="#feff18" stroke="none" /><path d="M 117.04232023915458 87.72973835380427 l 10.987517469076266 -7.9108778790557555 a34.53911108421043,34.53911108421043 0 0,0 0.34323221935554976,0.4854776330550165 l -11.122062308235698 7.720573745668945" fill="#ff940d" stroke="none" /><path d="M 117.2510076193507 88.02491185347247 l 11.130126651498161 -7.726171750350337 a34.548927972142344,34.548927972142344 0 0,0 0.3349198320238725,0.49145352655841473 l -11.261470949190768 7.5334402005215155" fill="#ff940d" stroke="none" /><line stroke="#e1ed5e" stroke-width="0.3" x1="172.23445277983987" x2="176.4835382374775" y1="55.19839476539836" y2="52.563006222186495" /><path d="M 173.08426987136738 54.67131705675599 a86.0,86.0 0 0,1 12.851231095245387,41.99856678651699" fill="none" id="id15" stroke="none" /><text fill="#e1ed5e" style="font-size:6.75px; font-family:Arial;" text-anchor="middle"><textPath startOffset="22.20632615414155" xlink:href="#id15">March</textPath></text><path d="M 118.73160827565052 90.50648371742162 l 14.483026454022264 -7.340258531938522 a37.23691628923439,37.23691628923439 0 0,0 0.28484465477893517,0.5742294425778962 l -14.607231121754607 7.089869500861676" fill="#ffb811" stroke="none" /><path d="M 119.34039704204932 91.81776055985345 l 24.94020784919645 -10.551321767876416 a48.08033158235665,48.08033158235665 0 0,0 0.31590681169932655,0.7649934020334539 l -25.118136347781977 10.12045379538966" fill="#bdff1f" stroke="none" /><path d="M 119.47837535516314 92.15188598940014 l 12.556685172755486 -5.059266752700301 a34.53759663317962,34.53759663317962 0 0,0 0.21743300221382916,0.5533432740829185 l -12.641911724851017 4.842374473721598" fill="#ff940d" stroke="none" /><path d="M 119.61058180528143 92.48833698450437 l 12.652493351026822 -4.846427673712187 a34.548927972142344,34.548927972142344 0 0,0 0.2079440937079353,0.5571867878383184 l -12.734042033236383 4.627917748844535" fill="#ff940d" stroke="none" /><path d="M 120.28053869075195 94.5502522615342 l 21.057683498904765 -5.658580611461549 a42.80471437273267,42.80471437273267 0 0,0 0.1850869084899096,0.7132153601133171 l -21.151966739264978 5.295268825799382" fill="#fdff18" stroke="none" /><path d="M 120.37134235888165 94.90015583598534 l 26.266189747526443 -6.575584079584332 a48.07676180492686,48.07676180492686 0 0,0 0.194063450987202,0.8045182910592517 l -26.375485998774465 6.122480556865674" fill="#bdff1f" stroke="none" /><path d="M 120.45610955862082 95.25157060432595 l 14.515184260526889 -3.369376147932509 a35.90111639251583,35.90111639251583 0 0,0 0.13455330347543598,0.6031760762289159 l -14.571031951004361 3.119021902153629" fill="#ffa60f" stroke="none" /><path d="M 120.53481517161879 95.60439243477599 l 18.54585608795466 -3.9698582452516433 a39.96598409053739,39.96598409053739 0 0,0 0.13820751924308844,0.673948947230718 l -18.611442903112746 3.650033641857514" fill="#ffdc14" stroke="none" /><path d="M 120.6074358757038 95.95851677861258 l 15.955444276791699 -3.1291452620974596 a37.259389660781,37.259389660781 0 0,0 0.11801339670701531,0.6304322841352483 l -16.006943397408573 2.8540349004996486" fill="#ffb911" stroke="none" /><path d="M 120.67395015179393 96.31383870115 l 26.65231620933429 -4.752102806392586 a48.07265115212893,48.07265115212893 0 0,0 0.1382389483268939,0.8158940982835123 l -26.73016701918141 4.292622919793236" fill="#bdff1f" stroke="none" /><path d="M 120.73433829027371 96.67025291283417 l 16.062484157975934 -2.5794895930079673 a37.268287060587056,37.268287060587056 0 0,0 0.09626594926901169,0.6342723273847855 l -16.104506000684246 2.3026181532311" fill="#ffb911" stroke="none" /><path d="M 120.78858239683441 97.02765380044208 l 13.414639022127458 -1.918021659905655 a34.551064429846534,34.551064429846534 0 0,0 0.07911206736178586,0.589476792731239 l -13.445667088547081 1.6868265251097516" fill="#ff940d" stroke="none" /><path d="M 120.83666639777658 97.38593545837742 l 16.126890011788152 -2.0231994188360733 a37.25330481288932,37.25330481288932 0 0,0 0.07434632638847112,0.6369539219600386 l -16.159326691180212 1.7453017585511819" fill="#ffb911" stroke="none" /><path d="M 120.87857604477298 97.74499172005257 l 13.480750245874464 -1.4559998420946332 a34.55915051660037,34.55915051660037 0 0,0 0.05878819954445033,0.5919891466137914 l -13.503815571101143 1.2237351647764068" fill="#ff940d" stroke="none" /><path d="M 120.91429891909075 98.10471618934814 l 26.960336087088468 -2.4431843837208316 a48.070812175877215,48.070812175877215 0 0,0 0.06758645441470912,0.8247259340708522 l -26.99839702532267 1.9787445324422104" fill="#bdff1f" stroke="none" /><path d="M 120.94382443527127 98.46500227214037 l 13.540168108147311 -0.9923749764556502 a34.57648557214955,34.57648557214955 0 0,0 0.0383953908898515,0.5939597028637454 l -13.555244090041578 0.7591562093388694" fill="#ff940d" stroke="none" /><path d="M 120.96714384426684 98.82574320788733 l 27.02548759565219 -1.5135519937794806 a48.06783736135239,48.06783736135239 0 0,0 0.03915558367961281,0.8265124857064934 l -27.0475367875653 1.0481284014499874" fill="#bdff1f" stroke="none" /><path d="M 120.98425023603335 99.18683210126433 l 13.565789914334024 -0.5256925911217953 a34.57597174054981,34.57597174054981 0 0,0 0.017927321181147055,0.5949205129357267 l -13.572828929970816 0.29210193076106955" fill="#ff940d" stroke="none" /><line stroke="#e1ed5e" stroke-width="0.3" x1="184.98032266829074" x2="189.97916517819016" y1="98.17113171792111" y2="98.06355123074" /><path d="M 185.9800911702706 98.14961562048488 a86.0,86.0 0 0,1 -9.607161424134198,41.387399972396054" fill="none" id="id16" stroke="none" /><text fill="#e1ed5e" style="font-size:6.75px; font-family:Arial;" text-anchor="middle"><textPath startOffset="21.466115282336823" xlink:href="#id16">April</textPath></text><path d="M 120.99513854157772 99.54816195383933 l 13.539599832849435 -0.29138680471942546 a34.54273494917703,34.54273494917703 0 0,0 0.0076766999115451175,0.5945688681692934 l -13.542609539878695 0.0582816784896693" fill="#ff940d" stroke="none" /><path d="M 120.99980553446 99.90962569577887 l 13.548802505494981 -0.05830833040117005 a34.548927972142344,34.548927972142344 0 0,0 -0.002559421947191762,0.5947195238168118 l -13.547798786258287 -0.17492067161932653" fill="#ff940d" stroke="none" /><path d="M 120.99824983174949 100.27111621757518 l 27.06855605797314 0.3494922001815286 a48.070812175877215,48.070812175877215 0 0,0 -0.017804369704035875,0.8272990992191702 l -27.058529625584097 -0.8153811151908137" fill="#bdff1f" stroke="none" /><path d="M 120.9904718944345 100.63252640178507 l 10.837603386750555 0.3265800935143626 a31.84252284876481,31.84252284876481 0 0,0 -0.021225114500930314,0.5477258935928683 l -10.830376139398421 -0.5130832341212371" fill="#ff6e0a" stroke="none" /><path d="M 120.9764740272857 100.99374915477107 l 16.236717297117455 0.7692057334935731 a37.25492743899377,37.25492743899377 0 0,0 -0.035859906236303654,0.6403027151716364 l -16.22107103999362 -1.0485801650006328" fill="#ffb911" stroke="none" /><path d="M 120.89721153311464 102.0752229133903 l 62.69163459934395 6.2256687401709 a84.0,84.0 0 0,0 -0.15527079399579247,1.4376147124608343 l -62.575181503847105 -7.303879774516526" fill="#4dd2ff" stroke="none" /><path d="M 120.8583938346157 102.4346265915055 l 17.866973110342407 2.085462964648973 a38.98827073130214,38.98827073130214 0 0,0 -0.08354349238018481,0.6659238334454516 l -17.828428108715375 -2.392704552381819" fill="#ffd013" stroke="none" /><path d="M 120.76222939487914 103.15116336523771 l 13.402499962919796 2.0341489385609584 a34.55598639569669,34.55598639569669 0 0,0 -0.09431850078650088,0.5873213944315807 l -13.365499707772006 -2.264549562685744" fill="#ff940d" stroke="none" /><path d="M 120.70491114924044 103.5080841355445 l 26.68215141926136 4.52082268894647 a48.062428607670896,48.062428607670896 0 0,0 -0.14522533737978435,0.8145008159854011 l -26.600379639542385 -4.979442255665091" fill="#bdff1f" stroke="none" /><path d="M 120.64145759157962 103.86396538481128 l 45.205918938151626 8.462295125750146 a66.9911463853428,66.9911463853428 0 0,0 -0.22193231162216168,1.1316280756277246 l -45.0535566935538 -9.239186928445815" fill="#37ff78" stroke="none" /><path d="M 120.32669344350535 105.2749913415812 l 7.355648551580841 1.9088683818223624 a28.599298922499,28.599298922499 0 0,0 -0.12775977367600805,0.4754416456508178 l -7.3217007015630555 -2.0352009606487287" fill="#ff4006" stroke="none" /><path d="M 120.23288151984713 105.62410040840565 l 13.027937191393335 3.6213540225066336 a34.52188420373487,34.52188420373487 0 0,0 -0.1640732491475331,0.5711605046706731 l -12.963671305359702 -3.8450720026818885" fill="#ff940d" stroke="none" /><path d="M 120.13307415673323 105.97154293290107 l 7.7904145615854725 2.3106652594356603 a29.125868137160843,29.125868137160843 0 0,0 -0.14670176554420453,0.47942985790580783 l -7.749486023535136 -2.4444220898935254" fill="#ff4706" stroke="none" /><path d="M 120.02730092923936 106.31721596034902 l 55.503487534958474 17.50747734553512 a79.19921727607439,79.19921727607439 0 0,0 -0.4212936325326397,1.2966084771624753 l -55.19390165140959 -18.46028472267539" fill="#47fffd" stroke="none" /><path d="M 119.79798401119884 107.00284435728193 l 15.319746260891334 5.418824391280911 a37.24987025430157,37.24987025430157 0 0,0 -0.2190216789099671,0.6026535942921307 l -15.224200320976141 -5.681725782579172" fill="#ffb911" stroke="none" /><path d="M 119.54520255179757 107.68017299344265 l 7.679981749071208 3.0178038965333935 a29.251621660255577,29.251621660255577 0 0,0 -0.18818179119201722,0.46705177306221635 l -7.626897343621799 -3.1495550374384234" fill="#ff4906" stroke="none" /><path d="M 119.41010516605496 108.01547362559984 l 25.033323758730802 10.33760222485135 a48.0838202284812,48.0838202284812 0 0,0 -0.3225028047479517,0.7623013646357156 l -24.85166997279054 -10.76697811515323" fill="#bdff1f" stroke="none" /><line stroke="#e1ed5e" stroke-width="0.3" x1="174.80103733775053" x2="179.2010983576182" y1="140.37084112569926" y2="142.7455964860345" /><path d="M 175.68104954172406 140.8457921977663 a86.0,86.0 0 0,1 -30.038265399797805,32.042727171017184" fill="none" id="id17" stroke="none" /><text fill="#e1ed5e" style="font-size:6.75px; font-family:Arial;" text-anchor="middle"><textPath startOffset="22.206326154141568" xlink:href="#id17">May</textPath></text><path d="M 118.48025628344425 109.97397251340804 l 3.3633719448690367 1.815244270207674 a24.821960570185663,24.821960570185663 0 0,0 -0.20616835652880183,0.3742554527470481 l -3.3316271788887253 -1.8728702413525273" fill="#ff0801" stroke="none" /><path d="M 118.30583269289576 110.29060199501025 l 14.163983016138813 7.962266143715775 a37.24857215341801,37.24857215341801 0 0,0 -0.31900387371268046,0.5562101427345948 l -14.024827146273752 -8.204896132308685" fill="#ffb911" stroke="none" /><path d="M 117.14729908036423 112.12312394758627 l 11.460696032819595 8.102701065649745 a35.0357158034768,35.0357158034768 0 0,0 -0.3523929126799878,0.48944293455737203 l -11.319523327764005 -8.298777605658248" fill="#ff9b0e" stroke="none" /><path d="M 116.498646956653 112.99209946851258 l 19.623773304194096 15.45302565631434 a45.977759719981094,45.977759719981094 0 0,0 -0.4949879960254076,0.6175736329254156 l -19.354867396113832 -15.788527122818005" fill="#d6ff1c" stroke="none" /><path d="M 116.27256486870786 113.27417163493432 l 15.00608107319837 12.241050955428873 a40.365582812526156,40.365582812526156 0 0,0 -0.443836882763844,0.5346301171117152 l -14.793148190540983 -12.49754232965436" fill="#ffe215" stroke="none" /><path d="M 115.56566222782051 114.09645910891815 l 6.6350394483696995 6.008775013942879 a29.951487342872486,29.951487342872486 0 0,0 -0.34936782907177544,0.37916977747315966 l -6.530625211302202 -6.122096046217373" fill="#ff5307" stroke="none" /><path d="M 115.32070863581623 114.36230785411682 l 9.878981326060165 9.260992716632796 a34.54105823553577,34.54105823553577 0 0,0 -0.4103698922954209,0.43027119143454007 l -9.71810488238578 -9.429671024649842" fill="#ff940d" stroke="none" /><path d="M 115.07121518719521 114.62390073753431 l 10.702435915411101 10.384787061481894 a35.912609994089,35.912609994089 0 0,0 -0.43430209460586516,0.4399457289021134 l -10.5220931957497 -10.567473284364672" fill="#ffa70f" stroke="none" /><path d="M 114.0293411484842 115.62618273729858 l 18.06696442519011 20.123374620966867 a48.04376840746974,48.04376840746974 0 0,0 -0.6201252772395031,0.5471884564342085 l -17.71789679504402 -20.431386219173366" fill="#bdff1f" stroke="none" /><path d="M 113.75828350139079 115.86535959552629 l 8.85894839752201 10.215693109586683 a34.52188420373487,34.52188420373487 0 0,0 -0.4522934360979502,0.3854542785392168 l -8.681789484847013 -10.366671778348847" fill="#ff940d" stroke="none" /><path d="M 112.63410532772338 116.77436683061366 l 8.953302091368746 11.887345382214168 a35.88188827317812,35.88188827317812 0 0,0 -0.49656266771178237,0.3673451904364021 l -8.747354453238401 -12.039700521390339" fill="#ffa60f" stroke="none" /><path d="M 111.45004920935366 117.60387380957326 l 5.912887814658524 9.090767125645193 a31.84455113139537,31.84455113139537 0 0,0 -0.46207686835157996,0.29491931979232633 l -5.755529144260014 -9.191200874261328" fill="#ff6e0a" stroke="none" /><path d="M 111.1453310114006 117.79835938074945 l 7.193177077441209 11.487029912589286 a34.55336315016117,34.55336315016117 0 0,0 -0.5068168839305773,0.3113283246608484 l -6.994380993578323 -11.609146704078512" fill="#ff940d" stroke="none" /><line stroke="#e1ed5e" stroke-width="0.3" x1="143.8653032363475" x2="146.44561519142675" y1="172.8068346515853" y2="177.08958963109032" /><path d="M 144.38136562736335 173.6633856474863 a86.0,86.0 0 0,1 -40.68145358897372,12.25698825130547" fill="none" id="id18" stroke="none" /><text fill="#e1ed5e" style="font-size:6.75px; font-family:Arial;" text-anchor="middle"><textPath startOffset="21.466115282336833" xlink:href="#id18">June</textPath></text><path d="M 110.5260780823613 118.17145234162733 l 6.791289227002826 11.723985663139333 a34.548927972142344,34.548927972142344 0 0,0 -0.5171665766473154,0.29366067943889596 l -6.588473883434312 -11.839149508372858" fill="#ff940d" stroke="none" /><path d="M 110.21172684928248 118.3499491758327 l 6.58672484745328 11.836006580459456 a34.54533115094415,34.54533115094415 0 0,0 -0.5220904792263349,0.28468535684406154 l -6.382011556358297 -11.947632589063288" fill="#ff940d" stroke="none" /><path d="M 109.89434966115114 118.52300852407294 l 6.388102198233164 11.959034754463628 a34.55825807224292,34.55825807224292 0 0,0 -0.5271106882560275,0.27575939930591326 l -6.181300607450641 -12.067223572714258" fill="#ff940d" stroke="none" /><path d="M 108.92500713936063 119.00905698771935 l 6.907660071106744 14.712380829856485 a37.25330481288932,37.25330481288932 0 0,0 -0.5828048997364651,0.26753714469378886 l -6.65338717560286 -14.829105044884349" fill="#ffb911" stroke="none" /><path d="M 108.59647513512805 119.15986991738527 l 6.097868093287132 13.590961132817297 a35.89624851420248,35.89624851420248 0 0,0 -0.5659288447809413,0.2480865744362881 l -5.863018573848437 -13.69391226054804" fill="#ffa60f" stroke="none" /><path d="M 108.2653958097858 119.30500536409082 l 5.520489367017817 12.893886668622482 a35.02598004685011,35.02598004685011 0 0,0 -0.5562935240331888,0.2325307381626136 l -5.297724383487166 -12.98700244980507" fill="#ff9b0e" stroke="none" /><path d="M 107.93186726928326 119.44442032107085 l 5.121552371220464 12.555129028449628 a34.55955617312648,34.55955617312648 0 0,0 -0.5527536447571619,0.21995208278400358 l -4.904677650421436 -12.6414279556397" fill="#ff940d" stroke="none" /><path d="M 107.59598834532513 119.57807347666477 l 4.900833284192518 12.63151939850674 a34.548927972142344,34.548927972142344 0 0,0 -0.5562867327709361,0.21034004277039844 l -4.682676330661307 -12.714007691383769" fill="#ff940d" stroke="none" /><path d="M 107.2578585660854 119.70592522655815 l 4.687405740288681 12.726848585379456 a34.56261211895652,34.56261211895652 0 0,0 -0.5600467065534561,0.20081282346266474 l -4.46763947310549 -12.80564894988208" fill="#ff940d" stroke="none" /><path d="M 106.2309692047433 120.05430185196036 l 6.425885842909815 20.681638782912422 a42.656920178385846,42.656920178385846 0 0,0 -0.7030775041449616,0.2118314845661664 l -6.068933364324607 -20.789185636584314" fill="#ffff18" stroke="none" /><path d="M 105.53697534728816 120.25689768951611 l 3.5711440612283 13.064948883735742 a34.54422235643944,34.54422235643944 0 0,0 -0.5749302790104914,0.1518443121466616 l -3.345723339406311 -13.124484545185988" fill="#ff940d" stroke="none" /><path d="M 105.18746579009965 120.34920634021253 l 3.3455830507828637 13.123934225962453 a34.54365443730289,34.54365443730289 0 0,0 -0.577449353484799,0.14192300181359377 l -3.1191804125548535 -13.179578486090078" fill="#ff940d" stroke="none" /><path d="M 104.48393922423573 120.51570834832081 l 5.780184597492094 26.44651844535566 a48.070812175877215,48.070812175877215 0 0,0 -0.8098982763738085,0.16972205830757423 l -5.324094859688907 -26.542096484389777" fill="#bdff1f" stroke="none" /><path d="M 103.7750983002368 120.6578951692458 l 7.350605011966163 40.223595702979296 a61.88971808803133,61.88971808803133 0 0,0 -1.0496231786836778,0.18249044375929027 l -6.657132861810435 -40.34416472525959" fill="#30ff3a" stroke="none" /><path d="M 103.41894727170886 120.7198165907248 l 2.2031306842687424 13.351613837738515 a34.53216083572971,34.53216083572971 0 0,0 -0.5873166382202472,0.09172678011328506 l -1.9729781824399781 -13.387558925198906" fill="#ff940d" stroke="none" /><path d="M 102.70371172650421 120.8252237178851 l 2.0938333513266816 16.12766166669928 a37.263013525747596,37.263013525747596 0 0,0 -0.6367939851836338,0.07710688337435519 l -1.8159119430916675 -16.161314078798984" fill="#ffb911" stroke="none" /><path d="M 102.34483914955558 120.86867818915974 l 1.8148278778534828 16.151666078595635 a37.25330481288932,37.25330481288932 0 0,0 -0.637860670449077,0.06611686654697714 l -1.536534610798803 -16.18051231359837" fill="#ffb911" stroke="none" /><path d="M 101.62511606390274 120.93702456842531 l 0.3881682574005571 5.000927947485192 a26.01596998914386,26.01596998914386 0 0,0 -0.4467775044068116,0.03081239250688812 l -0.3020279922148152 -5.006868684508365" fill="#ff1a02" stroke="none" /><path d="M 101.26447882468166 120.96189622390904 l 1.9574141781028438 32.449031227493855 a53.508015901735824,53.508015901735824 0 0,0 -0.9198586750498999,0.04754618649988402 l -1.3985674346394643 -32.47791722075594" fill="#7fff26" stroke="none" /><line stroke="#e1ed5e" stroke-width="0.3" x1="102.19456741930631" x2="102.32365962044197" y1="184.97166512339345" y2="189.96999836594603" /><path d="M 102.22038585953345 185.97133177190398 a86.0,86.0 0 0,1 -42.740103519485714,-10.115201625700543" fill="none" id="id19" stroke="none" /><text fill="#e1ed5e" style="font-size:6.75px; font-family:Arial;" text-anchor="middle"><textPath startOffset="22.20632615414155" xlink:href="#id19">July</textPath></text><path d="M 100.54218724476979 120.99299961872073 l 0.13035007535467735 5.047036994355733 a26.048719992685307,26.048719992685307 0 0,0 -0.44833606819310656,0.007718512000156778 l -0.04345431726890286 -5.04853298363505" fill="#ff1a02" stroke="none" /><path d="M 100.18074693466247 120.99922214144158 l 0.16425781739490208 19.08351254966118 a40.08421944601484,40.08421944601484 0 0,0 -0.690009504114702,0.0 l 0.16425781739488896 -19.08351254966118" fill="#ffde14" stroke="none" /><path d="M 98.73552117531835 120.96189622390904 l -2.1372686590714305 35.430568673499074 a56.49497307857245,56.49497307857245 0 0,0 -0.9701995771869066,-0.06691064318914279 l 2.746830997037267 -35.38852968579365" fill="#5eff2a" stroke="none" /><path d="M 98.01472825383883 120.90594882070398 l -0.4257683717294121 4.483563424534282 a25.503733971737972,25.503733971737972 0 0,0 -0.43668149528950195,-0.04526382246966399 l 0.5028824636245074 -4.475570233608857" fill="#ff1202" stroke="none" /><path d="M 97.2962882734958 120.8252237178851 l -2.441881149117949 18.808484915149748 a39.96633565952668,39.96633565952668 0 0,0 -0.6814667673669862,-0.09444508441773382 l 2.7652765076717665 -18.76366526523941" fill="#ffdc14" stroke="none" /><path d="M 95.86986931433489 120.58985236759428 l -4.1402789104326185 20.640444095958124 a42.05159951012145,42.05159951012145 0 0,0 -0.708486427011085,-0.14847021926467696 l 4.4949567988730905 -20.566117895966904" fill="#fff717" stroke="none" /><path d="M 95.51606077576429 120.51570834832081 l -3.6123035552824323 16.52764734303655 a37.91779724642925,37.91779724642925 0 0,0 -0.6364409289891956,-0.14485188336416904 l 3.8962646336644906 -16.463018726094692" fill="#ffc112" stroke="none" /><path d="M 94.81253420990036 120.34920634021253 l -3.3468857308577387 13.129044333038188 a34.548927972142344,34.548927972142344 0 0,0 -0.575008596041963,-0.15186499638648596 l 3.572384769711191 -13.069487987348118" fill="#ff940d" stroke="none" /><path d="M 94.46302465271185 120.25689768951611 l -3.572384769711191 13.069487987348118 a34.548927972142344,34.548927972142344 0 0,0 -0.5723092960431899,-0.16174032370484887 l 3.7968252338589945 -13.006058870304749" fill="#ff940d" stroke="none" /><path d="M 93.76903079525671 120.05430185196036 l -10.564480183778226 34.00165649242215 a56.60506825975926,56.60506825975926 0 0,0 -0.9279960362621629,-0.2971150256622029 l 11.14819756513133 -33.81476862010024" fill="#5dff2a" stroke="none" /><path d="M 93.08242187328487 119.8279376855182 l -1.8697582450702825 5.359310627380232 a26.676108375970195,26.676108375970195 0 0,0 -0.43225513708876984,-0.15499131325889054 l 1.961732942788779 -5.3263317730813835" fill="#ff2303" stroke="none" /><path d="M 92.06813273071674 119.44442032107085 l -7.160467362379496 17.55338716125512 a39.95768165363629,39.95768165363629 0 0,0 -0.6346203449429686,-0.2652713556553957 l 7.461559166819927 -17.427530762579753" fill="#ffdc14" stroke="none" /><path d="M 91.40352486487194 119.15986991738527 l -12.230032681532704 27.258362477662967 a50.87627862293131,50.87627862293131 0 0,0 -0.7959278944708008,-0.36537145855353215 l 12.697428571770923 -27.043803948775363" fill="#9cff22" stroke="none" /><path d="M 90.7491055286396 118.85261126421891 l -1.4639286539411234 2.9833739771592804 a24.323192349446696,24.323192349446696 0 0,0 -0.3742830743049655,-0.18767330344567587 l 1.5150656359288492 -2.9577328328043024" fill="#ff0000" stroke="none" /><line stroke="#e1ed5e" stroke-width="0.3" x1="58.666819895761336" x2="56.23545636021788" y1="174.27360380694188" y2="178.64263932499728" /><path d="M 58.180547188652646 175.14741091055294 a86.0,86.0 0 0,1 -31.652253787137756,-30.449443065178592" fill="none" id="id20" stroke="none" /><text fill="#e1ed5e" style="font-size:6.75px; font-family:Arial;" text-anchor="middle"><textPath startOffset="22.20632615414155" xlink:href="#id20">August</textPath></text><path d="M 89.7882731507175 118.34994917583269 l -6.588447582141365 11.839102246298967 a34.54887388460553,34.54887388460553 0 0,0 -0.5171657670052118,-0.2936602197029792 l 6.791262116067784 -11.723938860801356" fill="#ff940d" stroke="none" /><path d="M 89.1626897886671 117.98757091392108 l -6.992092165005346 11.60534774792949 a34.548927972142344,34.548927972142344 0 0,0 -0.5067518302600155,-0.31128836338309457 l 7.1908231951976695 -11.483270917718018" fill="#ff940d" stroke="none" /><path d="M 88.8546689885994 117.79835938074946 l -2.78557563523828 4.448380778239442 a26.248573441216507,26.248573441216507 0 0,0 -0.380877047516499,-0.24309375229882457 l 2.8617344848017026 -4.3997725971168125" fill="#ff1d02" stroke="none" /><path d="M 88.54995079064634 117.60387380957326 l -7.388308150655363 11.359151561036857 a34.550550598246794,34.550550598246794 0 0,0 -0.4957597651293766,-0.32856253937401986 l 7.582742614524702 -11.230291000571519" fill="#ff940d" stroke="none" /><path d="M 88.24862548938628 117.40417183066458 l -7.578747396286894 11.22437395106816 a34.543411043387216,34.543411043387216 0 0,0 -0.4899293886149764,-0.33697790090405494 l 7.770833669524761 -11.092255260799003" fill="#ff940d" stroke="none" /><path d="M 87.65650970185807 116.9893568818739 l -4.78467439913347 6.585539338308586 a29.140174290648396,29.140174290648396 0 0,0 -0.4032653625469036,-0.2983260744989824 l 4.897324732098938 -6.502203315069837" fill="#ff4806" stroke="none" /><path d="M 85.70375840098266 115.38237550388516 l -2.8014608823666554 3.0142973559548256 a25.115115019722634,25.115115019722634 0 0,0 -0.3141352728968622,-0.29703450785910196 l 2.8529319896543344 -2.965628211349793" fill="#ff0c01" stroke="none" /><path d="M 85.44109423537348 115.13401014063109 l -3.3413792948459027 3.4733701110119033 a25.819659274274038,25.819659274274038 0 0,0 -0.31764334300711733,-0.3108808661940243 l 3.4006725902288144 -3.4153391418953096" fill="#ff1702" stroke="none" /><path d="M 85.18274418774928 114.88116024355367 l -25.475668242330446 25.585540685090216 a57.10581067559197,57.10581067559197 0 0,0 -0.6905979040414473,-0.6995720307255465 l 25.912306771427428 -25.143228160384005" fill="#58ff2a" stroke="none" /><path d="M 84.43433777217949 114.09645910891817 l -16.24428043170301 14.711024273033043 a42.915539735666485,42.915539735666485 0 0,0 -0.49116048514440624,-0.5518240118162989 l 16.495099766495755 -14.429226091475881" fill="#fcff18" stroke="none" /><path d="M 84.19399662182784 113.82643327865904 l -7.8265993941261796 6.846383094610782 a31.39849121528256,31.39849121528256 0 0,0 -0.352347125859878,-0.4098593092325935 l 7.943289029556836 -6.710646686216658" fill="#ff6809" stroke="none" /><path d="M 83.95833913139862 113.55231037782056 l -3.289606556174863 2.7791242711941258 a25.306395593668668,25.306395593668668 0 0,0 -0.27825466527879433,-0.3351756694002313 l 3.3369572213471934 -2.7220873446801335" fill="#ff0f01" stroke="none" /><path d="M 83.50135304334701 112.99209946851258 l -21.289426595571133 16.764668562455796 a48.09785594428469,48.09785594428469 0 0,0 -0.5066151353001512,-0.6548683547829377 l 21.57484854808935 -16.395722213559605" fill="#bdff1f" stroke="none" /><path d="M 83.06392112726016 112.41649034213515 l -3.9943740680026094 2.9284291488544567 a25.952849833680823,25.952849833680823 0 0,0 -0.26103649191974976,-0.36255685637976054 l 4.044190352297967 -2.859238687023558" fill="#ff1902" stroke="none" /><path d="M 82.6465618267979 111.8261652097733 l -22.377297621700492 15.249866682393897 a48.07954731307283,48.07954731307283 0 0,0 -0.4601828430088334,-0.6879109118701474 l 22.636483570120056 -14.862418856317928" fill="#bdff1f" stroke="none" /><line stroke="#e1ed5e" stroke-width="0.3" x1="26.63291911575756" x2="22.317208475507996" y1="142.92168965132927" y2="145.44649492493687" /><path d="M 25.769776987707644 143.4266507060508 a86.0,86.0 0 0,1 -11.730757126820373,-40.83630448921669" fill="none" id="id21" stroke="none" /><text fill="#e1ed5e" style="font-size:6.75px; font-family:Arial;" text-anchor="middle"><textPath startOffset="21.46611528233685" xlink:href="#id21">September</textPath></text><path d="M 81.87401531095188 110.60418214915194 l -23.365958429526103 13.66970586849915 a48.070812175877215,48.070812175877215 0 0,0 -0.4116876006269294,-0.7178120329441882 l 23.59779802630541 -13.265473989696655" fill="#bdff1f" stroke="none" /><path d="M 81.18737489456691 109.33194174019688 l -12.133495003089225 6.018780889919402 a34.54427644397626,34.54427644397626 0 0,0 -0.259652454251549,-0.5349609622747304 l 12.235300713955493 -5.809030971679387" fill="#ff940d" stroke="none" /><path d="M 81.02952815118164 109.00673069616217 l -12.249152606231506 5.815607522033883 a34.55961026066329,34.55961026066329 0 0,0 -0.25051666256170124,-0.5395906041493446 l 12.347443885633036 -5.603896850605711" fill="#ff940d" stroke="none" /><path d="M 80.87730276802145 108.67885076344099 l -23.173236064142422 10.517190910200492 a46.448186071429035,46.448186071429035 0 0,0 -0.32416170318230064,-0.730899064485739 l 23.350838852056004 -10.116743509222056" fill="#d0ff1d" stroke="none" /><path d="M 80.32549172779594 107.34259656027581 l -25.39522882026036 9.477589843833577 a48.10613133741737,48.10613133741737 0 0,0 -0.28285429128892103,-0.7782935285428865 l 25.554607372554507 -9.039048518284574" fill="#bdff1f" stroke="none" /><path d="M 80.0844068197444 106.66101706037122 l -3.566560790956441 1.192880476136892 a24.760760522279558,24.760760522279558 0 0,0 -0.13171280100331278,-0.40537031928313766 l 3.5865658429760034 -1.131311256875951" fill="#ff0701" stroke="none" /><path d="M 79.97269907076064 106.31721596034903 l -26.13729652759508 8.24449322292028 a48.406749867034804,48.406749867034804 0 0,0 -0.2438161031392722,-0.7968051321644609 l 26.275339403240483 -7.793361118203771" fill="#b9ff1f" stroke="none" /><path d="M 79.76711848015287 105.62410040840567 l -13.056494429716864 3.6292920305239766 a34.551524173909456,34.551524173909456 0 0,0 -0.1543497594322911,-0.5743928743674447 l 13.11703226549093 -3.404008222980993" fill="#ff940d" stroke="none" /><path d="M 79.67330655649465 105.27499134158121 l -24.52367991760005 6.364153598743934 a46.33600852007485,46.33600852007485 0 0,0 -0.19370368041858768,-0.7737499153064527 l 24.629594912313692 -5.94107584404009" fill="#d2ff1c" stroke="none" /><path d="M 79.58551787078972 104.9243191809786 l -18.794560968443225 4.533566734105392 a40.33361707826853,40.33361707826853 0 0,0 -0.15699271590244596,-0.6763205112266274 l 18.869814250276228 -4.20937756553019" fill="#ffe115" stroke="none" /><path d="M 79.4281124754447 104.21870165774334 l -32.34483902368101 6.632994947389707 a54.01795319882708,54.01795319882708 0 0,0 -0.17895393450284347,-0.9124822566271221 l 32.454222891159525 -6.07524896369463" fill="#79ff26" stroke="none" /><path d="M 79.35854240842038 103.8639653848113 l -26.257763751331186 4.915306478118349 a47.71386147666702,47.71386147666702 0 0,0 -0.1441721076395073,-0.8085937442694595 l 26.338482301309885 -4.462593983115676" fill="#c1ff1e" stroke="none" /><path d="M 79.23777060512086 103.15116336523772 l -22.940084503255232 3.48170480670755 a44.20279606809363,44.20279606809363 0 0,0 -0.10769895278779794,-0.7532462249568691 l 22.99661750705963 -3.08631310977028" fill="#ecff1a" stroke="none" /><line stroke="#e1ed5e" stroke-width="0.3" x1="15.007084014347285" x2="10.007500721073583" y1="101.09737516637583" y2="101.16192664675087" /><path d="M 14.007167355692545 101.11028546245083 a86.0,86.0 0 0,1 10.666146001902534,-42.60595125391555" fill="none" id="id22" stroke="none" /><text fill="#e1ed5e" style="font-size:6.75px; font-family:Arial;" text-anchor="middle"><textPath startOffset="22.20632615414155" xlink:href="#id22">October</textPath></text><line stroke="#e1ed5e" stroke-width="0.3" x1="26.266209847984243" x2="21.928928074336255" y1="57.711370442889674" y2="55.22380399835377" /><path d="M 25.398753493254645 57.213857153982495 a86.0,86.0 0 0,1 29.58750427330803,-30.492523968695096" fill="none" id="id23" stroke="none" /><text fill="#e1ed5e" style="font-size:6.75px; font-family:Arial;" text-anchor="middle"><textPath startOffset="21.46611528233685" xlink:href="#id23">November</textPath></text><line stroke="#e1ed5e" stroke-width="0.3" x1="56.762969772571076" x2="54.21961505331055" y1="26.818313649435495" y2="22.513508569990535" /><path d="M 56.25429882871897 25.957352633546506 a86.0,86.0 0 0,1 42.265352541879196,-11.944610805530505" fill="none" id="id24" stroke="none" /><text fill="#e1ed5e" style="font-size:6.75px; font-family:Arial;" text-anchor="middle"><textPath startOffset="22.20632615414155" xlink:href="#id24">December</textPath></text></svg>