<?xml version="1.0" encoding="utf-8" ?>
<svg baseProfile="full" height="200mm" version="1.1" viewBox="0,0,200,200" width="200mm" xmlns="http://www.w3.org/2000/svg" xmlns:ev="http://www.w3.org/2001/xml-events" xmlns:xlink="http://www.w3.org/1999/xlink"><defs /><rect fill="#1a1a1a" height="200" width="200" x="0" y="0" /><text alignment-baseline="middle" fill="#e1ed5e" style="dominant-baseline: central; font-size:9.0px; font-family:Arial;" text-anchor="middle" x="100.0" y="100.0">2024</text><line stroke="#e1ed5e" stroke-width="0.3" x1="100.0" x2="100.0" y1="15.0" y2="10.0" /><path d="M 100.0 14.0 a86.0,86.0 0 0,1 42.35913384403234,11.155469271406648" fill="none" id="id1" stroke="none" /><text fill="#e1ed5e" style="font-size:6.75px; font-family:Arial;" text-anchor="middle"><textPath startOffset="22.145653131862478" xlink:href="#id1">January</textPath></text><path d="M 108.4095320186766 80.7573450057729 l 8.696985877180637 -19.90040567686534 a42.717820089771756,42.717820089771756 0 0,0 0.6694220024175392,0.29942394697724506 l -9.037321282453808 19.74817797897824" fill="#fffc17" stroke="none" /><path d="M 109.06512990194946 81.05736502329252 l 15.126031014672831 -31.607587233326477 a56.04049635734613,56.04049635734613 0 0,0 0.864197160552048,0.42272213669797803 l -15.666388424486946 31.343271346531278" fill="#65ff29" stroke="none" /><path d="M 110.02825361518725 81.54914285379988 l 11.778663556319183 -21.671414285102383 a45.665504501013174,45.665504501013174 0 0,0 0.6855388426061031,0.38025683987460573 l -12.148946587081385 21.46602452979463" fill="#ddff1b" stroke="none" /><line stroke="#e1ed5e" stroke-width="0.3" x1="143.13028292997686" x2="145.6673583964461" y1="26.7553504044142" y2="22.446841604673864" /><path d="M 143.63769802327073 25.89364864446614 a86.0,86.0 0 0,1 29.32050498858742,28.57503671076993" fill="none" id="id2" stroke="none" /><text fill="#e1ed5e" style="font-size:6.75px; font-family:Arial;" text-anchor="middle"><textPath startOffset="20.669276256404974" xlink:href="#id2">February</textPath></text><path d="M 112.7482090630111 83.31218511350987 l 9.658207656508875 -12.642903855000995 a36.90987093043327,36.90987093043327 0 0,0 0.5001991529332699,0.3889578867484393 l -9.87381675407737 12.475244916631764" fill="#ffb010" stroke="none" /><path d="M 113.31354834802062 83.75963576809568 l 11.06565916733474 -13.498304933135698 a38.45431318830778,38.45431318830778 0 0,0 0.5069114691762101,0.42288357651794123 l -11.295744970672843 13.306359172705886" fill="#ffc512" stroke="none" /><path d="M 113.86319453409587 84.22622945171908 l 9.832534925756779 -11.187619811970047 a35.894347254022634,35.894347254022634 0 0,0 0.45933649745248645,0.41074152843141015 l -10.023136450032641 11.01718275365525" fill="#ffa20f" stroke="none" /><path d="M 114.91283532996326 85.21462403516908 l 14.333033572848317 -14.210529748512172 a41.183533068661355,41.183533068661355 0 0,0 0.49344383311034323,0.5063168428002911 l -14.574864207109473 13.96239021364414" fill="#ffe915" stroke="none" /><path d="M 115.41159269507618 85.73525988315684 l 9.38935339363159 -8.69064532623842 a33.79403272377286,33.79403272377286 0 0,0 0.39040523983867254,0.42912374751450705 l -9.53715633431214 8.52818400316624" fill="#ff850c" stroke="none" /><path d="M 116.35404254752997 86.82634096563983 l 6.392730114953278 -5.1495308629853165 a29.20881638431929,29.20881638431929 0 0,0 0.31119013078090757,0.39317856446215443 l -6.480186676375745 5.039032354608484" fill="#ff4306" stroke="none" /><line stroke="#e1ed5e" stroke-width="0.3" x1="172.87174338648825" x2="177.1583165268699" y1="56.24261187166439" y2="53.66864786411523" /><path d="M 173.72905801456457 55.72781907015455 a86.0,86.0 0 0,1 12.242430191666344,42.057860355516425" fill="none" id="id3" stroke="none" /><text fill="#e1ed5e" style="font-size:6.75px; font-family:Arial;" text-anchor="middle"><textPath startOffset="22.145653131862474" xlink:href="#id3">March</textPath></text><path d="M 120.86939407059847 97.66154086499901 l 22.370772890538476 -2.506691763351799 a43.510774827102395,43.510774827102395 0 0,0 0.07680192019569694,0.7429889088078374 l -22.410507203215836 2.1222983322610305" fill="#f8ff18" stroke="none" /><path d="M 120.93736805541906 98.37931529534042 l 10.657605733077718 -0.8249660871496566 a31.689486844871368,31.689486844871368 0 0,0 0.03732725605970789,0.5427301109015575 l -10.670196950302492 0.6418925520937648" fill="#ff6709" stroke="none" /><line stroke="#e1ed5e" stroke-width="0.3" x1="184.99686870605535" x2="189.99668451229388" y1="99.2704041080226" y2="99.22748670261217" /><path d="M 185.99683186730306 99.26182062694052 a86.0,86.0 0 0,1 -10.086455211305974,41.156179273409016" fill="none" id="id4" stroke="none" /><text fill="#e1ed5e" style="font-size:6.75px; font-family:Arial;" text-anchor="middle"><textPath startOffset="21.40746469413373" xlink:href="#id4">April</textPath></text><path d="M 120.96210409425399 101.26102812881392 l 11.615210474508503 0.698742219034405 a32.63620879220518,32.63620879220518 0 0,0 -0.038442406100428525,0.5589441477518298 l -11.601504107243008 -0.8980297909405782" fill="#ff750a" stroke="none" /><path d="M 120.93736805541906 101.62068470465957 l 10.823443960879798 0.8378030148157889 a31.855821160370127,31.855821160370127 0 0,0 -0.04688323943122341,0.544854308541434 l -10.807467098750834 -1.0234783707328803" fill="#ff6a09" stroke="none" /><path d="M 120.9064616781168 101.97986365728391 l 21.159647051162654 2.0038405753471946 a42.254318158463334,42.254318158463334 0 0,0 -0.0745841181644157,0.7215336859830079 l -21.122130540516576 -2.366778783613134" fill="#fff617" stroke="none" /><path d="M 120.51834098615036 104.47187691870673 l 20.70909059761168 4.513449908712198 a42.19522737454219,42.19522737454219 0 0,0 -0.16032003993300903,0.7063996769774071 l -20.62855969612101 -4.868283919628623" fill="#fff617" stroke="none" /><path d="M 120.16314734710363 105.8691983318838 l 20.476153521940013 5.960309867577796 a42.32599720462332,42.32599720462332 0 0,0 -0.2090575328371245,0.6958845345371708 l -20.37081966909926 -6.3109320057056895" fill="#fff717" stroke="none" /><path d="M 119.94978838288452 106.5578916946017 l 18.105827103300644 5.951744996277576 a40.05896753749613,40.05896753749613 0 0,0 -0.22035213082572294,0.6514319207785186 l -18.000989550902556 -6.261678591530255" fill="#ffda14" stroke="none" /><path d="M 119.0197475246899 108.90220220490707 l 19.179511477506693 8.976979801780221 a42.17639787304208,42.17639787304208 0 0,0 -0.31254868255146656,0.6531065379162496 l -19.022583536995313 -9.304898841761574" fill="#fff517" stroke="none" /><line stroke="#e1ed5e" stroke-width="0.3" x1="174.33088141563837" x2="178.70328620479359" y1="141.23008692659167" y2="143.65538615756765" /><path d="M 175.20536237346943 141.71514677278685 a86.0,86.0 0 0,1 -30.301960400862466,31.631185727798858" fill="none" id="id5" stroke="none" /><text fill="#e1ed5e" style="font-size:6.75px; font-family:Arial;" text-anchor="middle"><textPath startOffset="22.145653131862474" xlink:href="#id5">May</textPath></text><path d="M 117.62189284568427 111.42229804090321 l 8.876711015854935 5.7537768350972325 a31.57837162927744,31.57837162927744 0 0,0 -0.2987547953055477,0.4523528378749325 l -8.77663178162866 -5.905309551311227" fill="#ff6609" stroke="none" /><path d="M 117.21940702142032 112.02048342749411 l 17.382627931599064 12.134424299173574 a42.199056745071985,42.199056745071985 0 0,0 -0.41974980049156957,0.5904306610990505 l -17.171763032577534 -12.43103218698213" fill="#fff617" stroke="none" /><path d="M 116.57777611688842 112.89097897827486 l 11.373729707762585 8.844281014145306 a35.40774215907587,35.40774215907587 0 0,0 -0.37723335886539544,0.47662202568485784 l -11.22022991825563 -9.038222983744847" fill="#ff9b0e" stroke="none" /><path d="M 116.1254893667686 113.45245675266167 l 16.254378521022236 13.55998066924168 a42.16785054876562,42.16785054876562 0 0,0 -0.46847565610697733,0.5518631449287372 l -16.019208301408142 -13.837010596619974" fill="#fff517" stroke="none" /><path d="M 115.89218393027572 113.72728997021213 l 10.32696769636766 8.920188735733623 a34.6460994017679,34.6460994017679 0 0,0 -0.3926375397434204,0.44674944474896416 l -10.172319092665655 -9.09615045829388" fill="#ff910d" stroke="none" /><path d="M 115.16444852881244 114.52719865689866 l 7.7304835312341655 7.405628352310203 a31.70531208882877,31.70531208882877 0 0,0 -0.37987976167534243,0.38979010105933504 l -7.602216968408016 -7.537241145437275" fill="#ff6709" stroke="none" /><path d="M 114.13192950727249 115.5334660781643 l 14.693006841525122 16.150188354790075 a42.83375904282863,42.83375904282863 0 0,0 -0.5481394803537355,0.490149703328077 l -14.41360233434801 -16.400033588001538" fill="#fffe18" stroke="none" /><path d="M 113.59037401385872 116.0094264158162 l 13.705161602447575 16.14464590654457 a42.177371083231975,42.177371083231975 0 0,0 -0.5559894682579298,0.4638261888714395 l -13.42599780002775 -16.377534279327882" fill="#fff517" stroke="none" /><path d="M 112.7482090630111 116.68781488649013 l 19.0469487507289 24.933067329973035 a52.375852230558806,52.375852230558806 0 0,0 -0.719162878282524,0.5396732311202157 l -18.616132883535613 -25.256359588357267" fill="#8eff24" stroke="none" /><line stroke="#e1ed5e" stroke-width="0.3" x1="143.1302829299769" x2="145.66735839644613" y1="173.24464959558577" y2="177.55315839532614" /><path d="M 143.63769802327073 174.10635135553383 a86.0,86.0 0 0,1 -40.68552437913181,11.842963189579606" fill="none" id="id6" stroke="none" /><text fill="#e1ed5e" style="font-size:6.75px; font-family:Arial;" text-anchor="middle"><textPath startOffset="21.407464694133747" xlink:href="#id6">June</textPath></text><path d="M 110.65571695917076 118.09573695890943 l 10.741767151602149 18.241868998026867 a42.16958540171282,42.16958540171282 0 0,0 -0.6269362947437583,0.3619618385350568 l -10.42703838899799 -18.423577733838094" fill="#fff517" stroke="none" /><path d="M 110.02825361518725 118.45085714620011 l 9.100158894416436 16.743267393468763 a40.05649219853488,40.05649219853488 0 0,0 -0.6069725627586885,0.3231787018034452 l -8.811397515871194 -16.89701656299478" fill="#ffda14" stroke="none" /><path d="M 109.71004243097381 118.62028667847754 l 7.240814275881006 13.885216111150976 a36.65977706837389,36.65977706837389 0 0,0 -0.5604979273668338,0.28619423541935246 l -7.00138912680059 -14.007468298243165" fill="#ffad10" stroke="none" /><path d="M 103.2317021107853 120.74984581791261 l 1.2827455906167644 8.236146871357903 a29.335439492721743,29.335439492721743 0 0,0 -0.49824832300088856,0.07322534535781196 l -1.1411721620081903 -8.256953290014597" fill="#ff4506" stroke="none" /><line stroke="#e1ed5e" stroke-width="0.3" x1="101.45913802915013" x2="101.54496967792366" y1="184.9874750549273" y2="189.98673829345242" /><path d="M 101.47630435890484 185.9873277026323 a86.0,86.0 0 0,1 -42.54439059252881,-10.42667462771756" fill="none" id="id7" stroke="none" /><text fill="#e1ed5e" style="font-size:6.75px; font-family:Arial;" text-anchor="middle"><textPath startOffset="22.145653131862474" xlink:href="#id7">July</textPath></text><path d="M 93.27111125876986 119.89276391827306 l -3.0335649073571536 8.968195619442161 a30.467367570540947,30.467367570540947 0 0,0 -0.49399822851199426,-0.17183822716970315 l 3.1870689079141696 -8.914798959703868" fill="#ff5607" stroke="none" /><path d="M 91.26138138417905 119.09545874513695 l -7.46304442495025 16.308098933594856 a38.934634730506744,38.934634730506744 0 0,0 -0.6053617933715006,-0.28333988580671887 l 7.741894932193241 -16.177582816217612" fill="#ffcb12" stroke="none" /><line stroke="#e1ed5e" stroke-width="0.3" x1="58.13341422392154" x2="55.67067388415222" y1="173.97424548756322" y2="178.32567169271397" /><path d="M 57.64086615596768 174.84453072859336 a86.0,86.0 0 0,1 -31.369924170532247,-30.572349798747897" fill="none" id="id8" stroke="none" /><text fill="#e1ed5e" style="font-size:6.75px; font-family:Arial;" text-anchor="middle"><textPath startOffset="22.145653131862474" xlink:href="#id8">August</textPath></text><path d="M 85.60350026404147 115.28858382429668 l -7.2691065213485935 7.7195392225650785 a31.603357743065793,31.603357743065793 0 0,0 -0.3917725504553088,-0.37530924108255964 l 7.400551557669217 -7.593617851176936" fill="#ff6609" stroke="none" /><path d="M 84.83555147118756 114.52719865689866 l -7.654095354048053 7.332450206536387 a31.599528372535993,31.599528372535993 0 0,0 -0.37188757590276317,-0.39493171824278367 l 7.7788387636870695 -7.199977028349113" fill="#ff6609" stroke="none" /><path d="M 84.58840730492382 114.26474011684316 l -7.776214764183951 7.197548293583065 a31.5959528829253,31.5959528829253 0 0,0 -0.36501194349949106,-0.4012120665869694 l 7.898624408525323 -7.062998651438422" fill="#ff6609" stroke="none" /><line stroke="#e1ed5e" stroke-width="0.3" x1="26.387840678322732" x2="22.057713659400548" y1="142.50000000000003" y2="145.00000000000006" /><path d="M 25.521815274538298 143.00000000000003 a86.0,86.0 0 0,1 -11.493303480769221,-40.785679425670985" fill="none" id="id9" stroke="none" /><text fill="#e1ed5e" style="font-size:6.75px; font-family:Arial;" text-anchor="middle"><textPath startOffset="21.40746469413373" xlink:href="#id9">September</textPath></text><path d="M 81.81346652052679 110.50000000000001 l -13.182072209987606 7.610672938913439 a36.22134587782686,36.22134587782686 0 0,0 -0.30627154771059456,-0.5411524784317271 l 13.310777122719578 -7.38326369038259" fill="#ffa70f" stroke="none" /><path d="M 80.5471966667186 107.91128576633889 l -8.466256904080927 3.4431529786162463 a30.139628460722673,30.139628460722673 0 0,0 -0.19080010207605616,-0.48094089708329735 l 8.524115681123108 -3.2973110643193837" fill="#ff5107" stroke="none" /><path d="M 80.41425534168474 107.57618678355246 l -9.8659659824664 3.8163675871065754 a31.57837162927744,31.57837162927744 0 0,0 -0.19122856792137277,-0.5072564957320277 l 9.930025234202208 -3.646442811180403" fill="#ff6609" stroke="none" /><path d="M 79.94057633289273 106.21446072829308 l -10.917506375554378 3.3822713826531414 a32.42942278359607,32.42942278359607 0 0,0 -0.1601761462510819,-0.5331742964016176 l 10.97395884180909 -3.1943594826608" fill="#ff720a" stroke="none" /><path d="M 79.407916724674 104.11899336999214 l -10.391935556670603 2.0786781544634243 a31.597793519588794,31.597793519588794 0 0,0 -0.10182570681778136,-0.5327951255187309 l 10.426087555770541 -1.8999804639113786" fill="#ff6609" stroke="none" /><path d="M 79.2786578344484 103.40968896794605 l -12.570507607020277 2.0684722430960307 a33.73955410988208,33.73955410988208 0 0,0 -0.08913429133030672,-0.5723060909668245 l 12.604163390488852 -1.852377970197756" fill="#ff840c" stroke="none" /><path d="M 79.0935383218832 101.97986365728391 l -16.944555008842013 1.6046669765247574 a38.020367227331555,38.020367227331555 0 0,0 -0.055955800699921884,-0.6502912228145549 l 16.969604432239674 -1.3135547063345405" fill="#ffbf11" stroke="none" /><path d="M 79.03789590574601 101.26102812881392 l -12.688308092401599 0.7632971069903997 a33.711246387402134,33.711246387402134 0 0,0 -0.02979176906609715,-0.5779523609472168 l 12.699541450924269 -0.545372952666452" fill="#ff840c" stroke="none" /><line stroke="#e1ed5e" stroke-width="0.3" x1="15.003131293944662" x2="10.003315487706104" y1="100.72959589197737" y2="100.7725132973878" /><path d="M 14.003168132696942 100.73817937305945 a86.0,86.0 0 0,1 10.791469493833604,-42.45332614584628" fill="none" id="id10" stroke="none" /><text fill="#e1ed5e" style="font-size:6.75px; font-family:Arial;" text-anchor="middle"><textPath startOffset="22.145653131862435" xlink:href="#id10">October</textPath></text><path d="M 79.00077361379809 100.18025310272382 l -10.60643670667122 0.09104350274910814 a31.606827448960196,31.606827448960196 0 0,0 0.0,-0.5425932109458474 l 10.60643670667122 0.09104350274910424" fill="#ff6609" stroke="none" /><path d="M 79.00696218219943 99.45929381324524 l -21.15833705062145 -0.5449637086354812 a42.16535405306111,42.16535405306111 0 0,0 0.024848069252154815,-0.7234244246549061 l 21.145864294372448 0.9080943978545257" fill="#fff517" stroke="none" /><path d="M 79.22317932658666 96.9465228501225 l -12.559138877612611 -1.8457609173091982 a33.69404595513293,33.69404595513293 0 0,0 0.08901406635311511,-0.571534160369675 l 12.52560331912123 2.061083259610323" fill="#ff840c" stroke="none" /><path d="M 79.2786578344484 96.59031103205396 l -10.438002765934359 -1.717569383008603 a31.57837162927744,31.57837162927744 0 0,0 0.09260760857557625,-0.534136076749621 l 10.406980339866548 1.8964984926788166" fill="#ff6609" stroke="none" /><path d="M 79.407916724674 95.88100663000787 l -24.990285842838908 -4.998757062341576 a46.48532830228217,46.48532830228217 0 0,0 0.16323497724243513,-0.7811384578320067 l 24.900793154772106 5.427011971458992" fill="#d3ff1c" stroke="none" /><path d="M 79.73907114497095 94.47779374421319 l -12.286750124583872 -3.3488083832062374 a33.734941939851716,33.734941939851716 0 0,0 0.15707873774548214,-0.5574170257485933 l 12.227452894763807 3.559233332857844" fill="#ff840c" stroke="none" /><path d="M 79.94057633289273 93.78553927170692 l -3.5443205309582977 -1.0980395605403523 a24.71051194617187,24.71051194617187 0 0,0 0.1290068571670493,-0.4041121426502007 l 3.5249489580139914 1.1587207368819448" fill="#ff0000" stroke="none" /><path d="M 80.05021161711548 93.44210830539832 l -12.735094584213265 -4.1862785409508 a34.405504917431614,34.405504917431614 0 0,0 0.18925416172033507,-0.5594963008654236 l 12.661355000920565 4.404276516290386" fill="#ff8e0d" stroke="none" /><path d="M 80.28708602549916 92.7611449362534 l -19.88169792341498 -7.300834867689171 a42.179804108706705,42.179804108706705 0 0,0 0.2554274688259655,-0.6775517076697193 l 19.753439770774577 7.641054855553035" fill="#fff517" stroke="none" /><path d="M 80.41425534168474 92.42381321644754 l -19.746573058450778 -7.638398663712408 a42.172441562052725,42.172441562052725 0 0,0 0.26697429815108,-0.6729496318601662 l 19.612540085333567 7.976249312786157" fill="#fff517" stroke="none" /><path d="M 80.68587082218212 91.75594674310238 l -27.257074158389514 -11.63442415239963 a50.63626017286738,50.63626017286738 0 0,0 0.34810287192072403,-0.7965274942759866 l 27.053337404451813 12.100613716451484" fill="#a2ff22" stroke="none" /><path d="M 81.1358732173502 90.77261029715801 l -32.32035063478062 -15.809503088895424 a56.97979228779618,56.97979228779618 0 0,0 0.4373337079106566,-0.8749603740580739 l 32.04419701365821 16.361995319117266" fill="#5bff2a" stroke="none" /><path d="M 81.46374523516351 90.13048839642627 l -7.488518095093279 -3.9872140931780558 a29.483854046680506,29.483854046680506 0 0,0 0.24170393263801487,-0.4447080123726584 l 7.418968812839914 4.115176939025334" fill="#ff4706" stroke="none" /><line stroke="#e1ed5e" stroke-width="0.3" x1="26.387840678322718" x2="22.05771365940052" y1="57.49999999999999" y2="54.99999999999999" /><path d="M 25.521815274538284 56.99999999999999 a86.0,86.0 0 0,1 29.574782752854787,-30.34633250058573" fill="none" id="id11" stroke="none" /><text fill="#e1ed5e" style="font-size:6.75px; font-family:Arial;" text-anchor="middle"><textPath startOffset="21.40746469413373" xlink:href="#id11">November</textPath></text><path d="M 82.18462484594161 88.88188828441811 l -38.28305553995189 -23.891458059475692 a66.12642363053743,66.12642363053743 0 0,0 0.609252051836223,-0.9578454195626007 l 37.867285796489774 24.545117153716962" fill="#36ff6d" stroke="none" /><path d="M 83.64595745247003 86.82634096563983 l -49.06212764258992 -39.520977103080504 a84.0,84.0 0 0,0 0.9142127230454804,-1.1151908732060285 l 48.376468100305814 40.357370257985025" fill="#4dd2ff" stroke="none" /><path d="M 84.83555147118756 85.47280134310135 l -7.758609658074095 -7.432572545584118 a31.74426165316777,31.74426165316777 0 0,0 0.38034643903140275,-0.39026895313868737 l 7.629876417891889 7.564664190790535" fill="#ff6809" stroke="none" /><path d="M 86.13680546590413 84.22622945171909 l -5.274568387573511 -6.001490585894508 a28.989928718566283,28.989928718566283 0 0,0 0.37662130641129477,-0.3253165143790446 l 5.170767601399368 6.091151232738263" fill="#ff4006" stroke="none" /><path d="M 87.83215693770416 82.88440491214696 l -8.612777551562928 -12.114950233956035 a35.8644527757983,35.8644527757983 0 0,0 0.5048432520425072,-0.3524197980284854 l 8.403539208346656 12.261014847789648" fill="#ffa20e" stroke="none" /><line stroke="#e1ed5e" stroke-width="0.3" x1="56.869717070023135" x2="54.33264160355391" y1="26.7553504044142" y2="22.446841604673864" /><path d="M 56.362301976729285 25.89364864446614 a86.0,86.0 0 0,1 42.16139366436587,-11.88097634709845" fill="none" id="id12" stroke="none" /><text fill="#e1ed5e" style="font-size:6.75px; font-family:Arial;" text-anchor="middle"><textPath startOffset="22.145653131862474" xlink:href="#id12">December</textPath></text><path d="M 90.93487009805054 81.0573650232925 l -7.315722339768923 -15.287046007292817 a37.94737646308954,37.94737646308954 0 0,0 0.5900117473411848,-0.27615528919526794 l 7.052221878556216 15.410377528058628" fill="#ffbe11" stroke="none" /><path d="M 93.61358852112211 79.99465700312896 l -5.796494327687544 -18.15743592286999 a40.060215785348376,40.060215785348376 0 0,0 0.6569100264223361,-0.20351240538967555 l 5.483943668393592 18.254264916066305" fill="#ffda14" stroke="none" /><path d="M 96.76829788921471 79.25015418208739 l -1.7901135776420858 -11.493813309296367 a32.63237942167538,32.63237942167538 0 0,0 0.5542452611426677,-0.08145496690418016 l 1.592543210891733 11.522849349499433" fill="#ff750a" stroke="none" /><path d="M 97.12497278360702 79.19773525538626 l -1.5935309127261807 -11.529995867950378 a32.63959387112655,32.63959387112655 0 0,0 0.5556846996859549,-0.07194450956961086 l 1.395368391149432 11.555651973720384" fill="#ff750a" stroke="none" /><path d="M 98.5590905019552 79.04949213459386 l -1.4600419508915314 -21.228689530801258 a42.2788388239,42.2788388239 0 0,0 0.724489473145754,-0.04358348763837964 l 1.0954081256132937 21.25062499626433" fill="#fff717" stroke="none" /></svg>