<?xml version="1.0" encoding="utf-8" ?>
<svg baseProfile="full" height="200mm" version="1.1" viewBox="0,0,200,200" width="200mm" xmlns="http://www.w3.org/2000/svg" xmlns:ev="http://www.w3.org/2001/xml-events" xmlns:xlink="http://www.w3.org/1999/xlink"><defs /><rect fill="#1a1a1a" height="200" width="200" x="0" y="0" /><text alignment-baseline="middle" fill="#e1ed5e" style="dominant-baseline: central; font-size:9.0px; font-family:Arial;" text-anchor="middle" x="100.0" y="100.0">2025</text><line stroke="#e1ed5e" stroke-width="0.3" x1="100.0" x2="100.0" y1="15.0" y2="10.0" /><path d="M 100.0 14.0 a86.0,86.0 0 0,1 42.46469731375804,11.215312516191453" fill="none" id="id13" stroke="none" /><text fill="#e1ed5e" style="font-size:6.75px; font-family:Arial;" text-anchor="middle"><textPath startOffset="22.20632615414155" xlink:href="#id13">January</textPath></text><path d="M 108.43124777332544 80.76684994638697 l 8.75811469038136 -19.978790631652757 a42.8141387185763,42.8141387185763 0 0,0 0.6724223110395351,0.30169629032353823 l -9.100719119887676 19.82507401081269" fill="#f0ff19" stroke="none" /><path d="M 110.05341064243156 81.56283822128135 l 4.468553494697893 -8.194974484666739 a30.334108266959177,30.334108266959177 0 0,0 0.45627686100063053,0.2539175791463752 l -4.608954444770559 8.116841507960185" fill="#ff6c09" stroke="none" /><line stroke="#e1ed5e" stroke-width="0.3" x1="143.23703022742887" x2="145.7803849466894" y1="26.81831364943548" y2="22.513508569990506" /><path d="M 143.74570117128098 25.957352633546492 a86.0,86.0 0 0,1 28.547481713284135,27.462654790039103" fill="none" id="id14" stroke="none" /><text fill="#e1ed5e" style="font-size:6.75px; font-family:Arial;" text-anchor="middle"><textPath startOffset="19.985693538727396" xlink:href="#id14">February</textPath></text><path d="M 110.68208982089419 81.91981866633111 l 7.499497190271534 -12.693421548116063 a35.743317425364886,35.743317425364886 0 0,0 0.5270231882912902,0.31752557404280013 l -7.716882444780462 12.562449364614649" fill="#ffb410" stroke="none" /><path d="M 110.99172775467656 82.1063720568725 l 3.8801360561451514 -6.31654208573677 a28.413107292834866,28.413107292834866 0 0,0 0.41453485219602737,0.25958168641565194 l -3.988290060713442 6.248816057998174" fill="#ff5107" stroke="none" /><path d="M 115.19652480421416 85.50635884689758 l 5.481963898607587 -5.228407059135476 a28.575497908497802,28.575497908497802 0 0,0 0.33641889875930225,0.35886822506705 l -5.571150119337352 5.133269417190371" fill="#ff5307" stroke="none" /><path d="M 115.68641384162765 86.03803664274999 l 5.512322715317642 -4.906337964918563 a28.379556486931182,28.379556486931182 0 0,0 0.32164596914008,0.3676969448549379 l -5.5959605480355705 4.810725463860678" fill="#ff5007" stroke="none" /><path d="M 115.9244219780498 86.31012108654704 l 5.593267765071138 -4.808410536965742 a28.37600543544994,28.37600543544994 0 0,0 0.3152295666534449,0.3731323783940632 l -5.6752079452117 4.711419208942573" fill="#ff5007" stroke="none" /><path d="M 116.38621287248628 86.86637796730983 l 5.7601918656168944 -4.616819236238204 a28.382061378017536,28.382061378017536 0 0,0 0.30226343864406074,0.38384387174517565 l -5.83880938485492 4.516982970539989" fill="#ff5007" stroke="none" /><path d="M 116.60985879189232 87.15038557335679 l 9.364226550741598 -7.244294011668483 a32.839279311727964,32.839279311727964 0 0,0 0.3420352614845438,0.4500783111909677 l -9.487537752450256 7.082030924596482" fill="#ff8e0d" stroke="none" /><path d="M 117.04232023915458 87.72973835380427 l 5.986490482164378 -4.310199757299086 a28.376712698815496,28.376712698815496 0 0,0 0.28199342055684257,0.39885969506612456 l -6.059796522525104 4.206513561901169" fill="#ff5007" stroke="none" /><path d="M 117.2510076193507 88.02491185347247 l 6.064190337080715 -4.209563604992213 a28.382061378017536,28.382061378017536 0 0,0 0.27513777668822503,0.4037307370715262 l -6.135752579437674 4.104554844650281" fill="#ff5007" stroke="none" /><line stroke="#e1ed5e" stroke-width="0.3" x1="172.23445277983987" x2="176.4835382374775" y1="55.19839476539836" y2="52.563006222186495" /><path d="M 173.08426987136738 54.67131705675599 a86.0,86.0 0 0,1 12.851231095245387,41.99856678651699" fill="none" id="id15" stroke="none" /><text fill="#e1ed5e" style="font-size:6.75px; font-family:Arial;" text-anchor="middle"><textPath startOffset="22.20632615414155" xlink:href="#id15">March</textPath></text><path d="M 118.73160827565052 90.50648371742162 l 7.890999970098655 -3.99930083949802 a29.84659752294104,29.84659752294104 0 0,0 0.22831223997476618,0.4602635439874024 l -7.958672223026829 3.8628777070116675" fill="#ff6509" stroke="none" /><path d="M 119.34039704204932 91.81776055985345 l 13.588539661722889 -5.748831573230381 a35.75457470060003,35.75457470060003 0 0,0 0.23492170968048742,0.5688815538141642 l -13.685483058289574 5.514075448962914" fill="#ffb510" stroke="none" /><path d="M 119.47837535516314 92.15188598940014 l 6.841443163644404 -2.756514594585424 a28.375887558222345,28.375887558222345 0 0,0 0.17864168395374286,0.4546236002823447 l -6.887878397479847 2.6383419894072953" fill="#ff5007" stroke="none" /><path d="M 119.61058180528143 92.48833698450437 l 6.89364374024864 -2.6405503538749078 a28.382061378017536,28.382061378017536 0 0,0 0.17082677747841216,0.45773083391180464 l -6.938075106228677 2.52149638293377" fill="#ff5007" stroke="none" /><path d="M 120.28053869075195 94.5502522615342 l 11.473166909396634 -3.0830475645125293 a32.880182709702765,32.880182709702765 0 0,0 0.1421733904197934,0.547852069463423 l -11.524536631686729 2.885099069500256" fill="#ff8e0d" stroke="none" /><path d="M 120.37134235888165 94.90015583598534 l 14.310993849961108 -3.5826720292270595 a35.75262972634474,35.75262972634474 0 0,0 0.14431668120066807,0.5982858139452604 l -14.370543331422596 3.335800983622393" fill="#ffb510" stroke="none" /><path d="M 120.45610955862082 95.25157060432595 l 7.908520980018228 -1.8357866822236255 a29.118794050474374,29.118794050474374 0 0,0 0.10913393026209554,0.4892260103517138 l -7.9389492972823605 1.699382502321948" fill="#ff5b08" stroke="none" /><path d="M 120.53481517161879 95.60439243477599 l 10.10461109769365 -2.162956160718509 a31.33351560645378,31.33351560645378 0 0,0 0.1083553316571003,0.5283790787728067 l -10.140345725265748 1.9887014257822906" fill="#ff790b" stroke="none" /><path d="M 120.6074358757038 95.95851677861258 l 8.693238993298085 -1.7048981611704401 a29.858842019957272,29.858842019957272 0 0,0 0.09457329818320633,0.5052143405368016 l -8.72129801539115 1.5550057431710758" fill="#ff6509" stroke="none" /><path d="M 120.67395015179393 96.31383870115 l 14.521372799986006 -2.5891579513572824 a35.750390059020475,35.750390059020475 0 0,0 0.10280473836143669,0.6067593852517661 l -14.563789399867666 2.3388127777896783" fill="#ffb410" stroke="none" /><path d="M 120.73433829027371 96.67025291283417 l 8.751559103525427 -1.4054211918975452 a29.863689720942034,29.863689720942034 0 0,0 0.07713948416754592,0.5082528196910541 l -8.774454481132272 1.254569259814409" fill="#ff6509" stroke="none" /><path d="M 120.78858239683441 97.02765380044208 l 7.30889475749688 -1.0450239049836663 a28.383225415640016,28.383225415640016 0 0,0 0.06498947798225153,0.48424709806989813 l -7.325800234536968 0.9190584648491037" fill="#ff5007" stroke="none" /><path d="M 120.83666639777658 97.38593545837742 l 8.786650290586353 -1.10232944780027 a29.855526722931216,29.855526722931216 0 0,0 0.05958259932618882,0.5104673245465783 l -8.80432324291613 0.9509183849288391" fill="#ff6509" stroke="none" /><path d="M 120.87857604477298 97.74499172005257 l 7.344915106300835 -0.7932937737085711 a28.387631077021307,28.387631077021307 0 0,0 0.0482898941496996,0.48627264398760855 l -7.357482126132764 0.6667455990165276" fill="#ff5107" stroke="none" /><path d="M 120.91429891909075 98.10471618934814 l 14.689195792912528 -1.3311560232310637 a35.74938810258593,35.74938810258593 0 0,0 0.05026281604124109,0.6133336667476134 l -14.709933092773264 1.0781084392756817" fill="#ffb410" stroke="none" /><path d="M 120.94382443527127 98.46500227214037 l 7.377288612688251 -0.540690230346392 a28.397075989882204,28.397075989882204 0 0,0 0.03153347758508359,0.4878089411937034 l -7.3855026812777504 0.4136222248996533" fill="#ff5107" stroke="none" /><path d="M 120.96714384426684 98.82574320788733 l 14.724693246000827 -0.8246507576004375 a35.74776729070653,35.74776729070653 0 0,0 0.02911977676441077,0.6146724634142736 l -14.736706630998734 0.5710671875631641" fill="#ffb410" stroke="none" /><path d="M 120.98425023603335 99.18683210126433 l 7.391248517580717 -0.2864208136325754 a28.39679603146667,28.39679603146667 0 0,0 0.014723475793873087,0.4886004820786773 l -7.395083687830236 0.15915018412889897" fill="#ff5107" stroke="none" /><line stroke="#e1ed5e" stroke-width="0.3" x1="184.98032266829074" x2="189.97916517819016" y1="98.17113171792111" y2="98.06355123074" /><path d="M 185.9800911702706 98.14961562048488 a86.0,86.0 0 0,1 -9.607161424134198,41.387399972396054" fill="none" id="id16" stroke="none" /><text fill="#e1ed5e" style="font-size:6.75px; font-family:Arial;" text-anchor="middle"><textPath startOffset="21.466115282336823" xlink:href="#id16">April</textPath></text><path d="M 120.99513854157772 99.54816195383933 l 7.3769789909132175 -0.15876055150679855 a28.378687142377682,28.378687142377682 0 0,0 0.006306815757240659,0.4884698307531081 l -7.378618813788173 0.03175446269322769" fill="#ff5007" stroke="none" /><path d="M 120.99980553446 99.90962569577887 l 7.381993018181714 -0.03176898384552435 a28.382061378017536,28.382061378017536 0 0,0 -0.00210257380072732,0.4885641036759336 l -7.381446147091484 -0.095304598034094" fill="#ff5007" stroke="none" /><path d="M 120.99824983174949 100.27111621757518 l 14.74815886873967 0.19041896732959696 a35.74938810258593,35.74938810258593 0 0,0 -0.013240785700535888,0.6152472828355361 l -14.742696020354126 -0.4442560659552479" fill="#ffb410" stroke="none" /><path d="M 120.9904718944345 100.63252640178507 l 5.904810591369108 0.17793542781529245 a26.90749093409517,26.90749093409517 0 0,0 -0.01793559444775803,0.4628379976742632 l -5.900872864070147 -0.2795506725035618" fill="#ff3c05" stroke="none" /><path d="M 120.9764740272857 100.99374915477107 l 8.84648910314399 0.4190976547109583 a29.856410802138164,29.856410802138164 0 0,0 -0.028738429129152414,0.5131439574857264 l -8.837964323127308 -0.571313328532108" fill="#ff6509" stroke="none" /><path d="M 120.89721153311464 102.0752229133903 l 34.15720383576799 3.392022516736415 a55.32521508501076,55.32521508501076 0 0,0 -0.10226654850282876,0.9468612282889471 l -34.09375498576411 -3.979480066910153" fill="#63ff29" stroke="none" /><path d="M 120.8583938346157 102.4346265915055 l 9.734725316358837 1.1362534097365107 a30.800813680307137,30.800813680307137 0 0,0 -0.06599952998013593,0.5260811914584806 l -9.713724277131854 -1.3036523554823862" fill="#ff720a" stroke="none" /><path d="M 120.76222939487914 103.15116336523771 l 7.302280855620171 1.1082952354135118 a28.385907122567758,28.385907122567758 0 0,0 -0.07747763795852339,0.4824533255259059 l -7.282121463300359 -1.2338277906326227" fill="#ff5107" stroke="none" /><path d="M 120.70491114924044 103.5080841355445 l 14.537628355507481 2.463146208877529 a35.744820360016696,35.744820360016696 0 0,0 -0.10800647713284099,0.6057576821209254 l -14.493075436035452 -2.7130226417316727" fill="#ffb410" stroke="none" /><path d="M 120.64145759157962 103.86396538481128 l 24.630204613771674 4.610636512765268 a46.058031614017565,46.058031614017565 0 0,0 -0.15258382601886586,0.7780216415877789 l -24.547190854777146 -5.033921881420992" fill="#caff1d" stroke="none" /><path d="M 120.32669344350535 105.2749913415812 l 4.0076860098850835 1.040036790079826 a25.14043761920744,25.14043761920744 0 0,0 -0.1123082292698762,0.4179407007999929 l -3.98918970427343 -1.1088684240553672" fill="#ff2203" stroke="none" /><path d="M 120.23288151984713 105.62410040840565 l 7.098202320771227 1.973075487643002 a28.367326724568397,28.367326724568397 0 0,0 -0.13482228947474545,0.4693340766843039 l -7.063187394410382 -2.0949670398318876" fill="#ff5007" stroke="none" /><path d="M 120.13307415673323 105.97154293290107 l 4.244565959171764 1.2589536828506545 a25.427336056515582,25.427336056515582 0 0,0 -0.12807292386994465,0.4185497254567609 l -4.222266262795687 -1.3318303808594725" fill="#ff2603" stroke="none" /><path d="M 120.02730092923936 106.31721596034902 l 30.24078012072482 9.538855960022957 a52.70953413937346,52.70953413937346 0 0,0 -0.28038397184246144,0.8629331342273596 l -30.07210389786611 -10.057987994228112" fill="#7fff26" stroke="none" /><path d="M 119.79798401119884 107.00284435728193 l 8.346882308775944 2.952417662517774 a29.853655421943174,29.853655421943174 0 0,0 -0.17553343642475014,0.48299262842976437 l -8.294824611345968 -3.09565808795367" fill="#ff6509" stroke="none" /><path d="M 119.54520255179757 107.68017299344265 l 4.184397228346453 1.6442344100459103 a25.49585219505407,25.49585219505407 0 0,0 -0.16402014184912986,0.40708454087561047 l -4.155474472239931 -1.7160183187643343" fill="#ff2703" stroke="none" /><path d="M 119.41010516605496 108.01547362559984 l 13.639273370018179 5.632387616369978 a35.75647547089497,35.75647547089497 0 0,0 -0.23982211838556333,0.5668686455549475 l -13.540300270440307 -5.866330787591089" fill="#ffb510" stroke="none" /><line stroke="#e1ed5e" stroke-width="0.3" x1="174.80103733775053" x2="179.2010983576182" y1="140.37084112569926" y2="142.7455964860345" /><path d="M 175.68104954172406 140.8457921977663 a86.0,86.0 0 0,1 -30.038265399797805,32.042727171017184" fill="none" id="id17" stroke="none" /><text fill="#e1ed5e" style="font-size:6.75px; font-family:Arial;" text-anchor="middle"><textPath startOffset="22.206326154141568" xlink:href="#id17">May</textPath></text><path d="M 118.48025628344425 109.97397251340804 l 1.8325153241035013 0.9890261905827267 a23.082374898699257,23.082374898699257 0 0,0 -0.19171955753416536,0.3480266856344125 l -1.8152193571178263 -1.0204233946149441" fill="#ff0400" stroke="none" /><path d="M 118.30583269289576 110.29060199501025 l 7.717170849038163 4.3381983801133845 a29.852948158577615,29.852948158577615 0 0,0 -0.25566633977555625,0.4457758135785951 l -7.641352513110227 -4.470394039550294" fill="#ff6509" stroke="none" /><path d="M 117.14729908036423 112.12312394758627 l 6.244299307150193 4.414713600761483 a28.647285140101996,28.647285140101996 0 0,0 -0.2881374054841739,0.4001976550078623 l -6.167382109290417 -4.521544861220477" fill="#ff5407" stroke="none" /><path d="M 116.498646956653 112.99209946851258 l 10.6919085626342 8.419498878844115 a34.60899959888999,34.60899959888999 0 0,0 -0.3725940424290367,0.4648683568832555 l -10.545396608150309 -8.60229506930562" fill="#ffa50f" stroke="none" /><path d="M 116.27256486870786 113.27417163493432 l 8.175983498740369 6.669471538280517 a31.55123484581822,31.55123484581822 0 0,0 -0.34691934924750706,0.4178867045963848 l -8.059968149599317 -6.8092194999906726" fill="#ff7c0b" stroke="none" /><path d="M 115.56566222782051 114.09645910891815 l 3.6150659708384296 3.273849123032188 a25.877170291664278,25.877170291664278 0 0,0 -0.30184313399283597,0.32759110720624407 l -3.5581764288498716 -3.3355914850397665" fill="#ff2d04" stroke="none" /><path d="M 115.32070863581623 114.36230785411682 l 5.382510457743175 5.045802649192679 a28.377773593863836,28.377773593863836 0 0,0 -0.33714612372000213,0.3534963628279824 l -5.294857782644208 -5.137706128603169" fill="#ff5007" stroke="none" /><path d="M 115.07121518719521 114.62390073753431 l 5.831165313175082 5.658096023768302 a29.125056278190257,29.125056278190257 0 0,0 -0.35221814703007365,0.3567951233767889 l -5.732906541089473 -5.757631641125755" fill="#ff5b08" stroke="none" /><path d="M 114.0293411484842 115.62618273729858 l 9.843689521077595 10.964113684141822 a35.73465344913679,35.73465344913679 0 0,0 -0.46124528969626233,0.40699534008669436 l -9.653501878474746 -11.131932166000805" fill="#ffb410" stroke="none" /><path d="M 113.75828350139079 115.86535959552629 l 4.826750939237373 5.5659660830004025 a28.367326724568397,28.367326724568397 0 0,0 -0.37165861519749127,0.3167355348327653 l -4.730226847462834 -5.648226008056115" fill="#ff5007" stroke="none" /><path d="M 112.63410532772338 116.77436683061366 l 4.878159047735064 6.476756937052554 a29.10831771187204,29.10831771187204 0 0,0 -0.40282450537626296,0.29799993890354565 l -4.7659495719402365 -6.559766824695868" fill="#ff5b08" stroke="none" /><path d="M 111.45004920935366 117.60387380957326 l 3.2216054922490964 4.953056140881211 a26.908596033103855,26.908596033103855 0 0,0 -0.3904542329835487,0.24920636519274258 l -3.135869457218617 -5.0077769348977625" fill="#ff3c05" stroke="none" /><path d="M 111.1453310114006 117.79835938074945 l 3.9191642909164868 6.258647181548882 a28.384477861183193,28.384477861183193 0 0,0 -0.41633378953834843,0.25574621782811574 l -3.810851301445829 -6.3251818662053765" fill="#ff5007" stroke="none" /><line stroke="#e1ed5e" stroke-width="0.3" x1="143.8653032363475" x2="146.44561519142675" y1="172.8068346515853" y2="177.08958963109032" /><path d="M 144.38136562736335 173.6633856474863 a86.0,86.0 0 0,1 -40.68145358897372,12.25698825130547" fill="none" id="id18" stroke="none" /><text fill="#e1ed5e" style="font-size:6.75px; font-family:Arial;" text-anchor="middle"><textPath startOffset="21.466115282336833" xlink:href="#id18">June</textPath></text><path d="M 110.5260780823613 118.17145234162733 l 3.700197832085532 6.387751262553019 a28.382061378017536,28.382061378017536 0 0,0 -0.4248540948332392,0.24124324305707978 l -3.589694970331094 -6.450497671404727" fill="#ff5007" stroke="none" /><path d="M 110.21172684928248 118.3499491758327 l 3.588742017374898 6.448785263839264 a28.3801016691088,28.3801016691088 0 0,0 -0.42891413650588667,0.23387818561178184 l -3.4772050690003624 -6.509604101210816" fill="#ff5007" stroke="none" /><path d="M 109.89434966115114 118.52300852407294 l 3.480523522847356 6.515816510414015 a28.387144833457487,28.387144833457487 0 0,0 -0.43298384483116287,0.22651668353537868 l -3.3678487754896977 -6.57476261289411" fill="#ff5107" stroke="none" /><path d="M 108.92500713936063 119.00905698771935 l 3.7636018678552348 8.015962482498622 a29.855526722931216,29.855526722931216 0 0,0 -0.4670712396049505,0.2144094977049804 l -3.625062632482865 -8.079559050537677" fill="#ff6509" stroke="none" /><path d="M 108.59647513512805 119.15986991738527 l 3.3223910136842107 7.4049629221583375 a29.116141812853527,29.116141812853527 0 0,0 -0.4590358375223196,0.20122782135002412 l -3.194434501504137 -7.461055296802816" fill="#ff5b08" stroke="none" /><path d="M 108.2653958097858 119.30500536409082 l 3.007809284085737 7.025165606066977 a28.641980664860306,28.641980664860306 0 0,0 -0.4549008575358474,0.19014859534353615 l -2.8864369670524286 -7.075899244430487" fill="#ff5407" stroke="none" /><path d="M 107.93186726928326 119.44442032107085 l 2.790450582718878 6.840595306691995 a28.387852096823046,28.387852096823046 0 0,0 -0.45404196265540836,0.18067266729877113 l -2.6722875440216036 -6.887614818396835" fill="#ff5107" stroke="none" /><path d="M 107.59598834532513 119.57807347666477 l 2.6701929615188553 6.882216193717931 a28.382061378017536,28.382061378017536 0 0,0 -0.4569914356246381,0.17279505775050233 l -2.5513313051339424 -6.927159501575064" fill="#ff5007" stroke="none" /><path d="M 107.2578585660854 119.70592522655815 l 2.5539080988273506 6.934155794404997 a28.389517112662798,28.389517112662798 0 0,0 -0.4600189217431695,0.1649464186478152 l -2.4341696164544464 -6.9770897540927725" fill="#ff5107" stroke="none" /><path d="M 106.2309692047433 120.05430185196036 l 3.5011097407873826 11.268280944983639 a32.79965782860324,32.79965782860324 0 0,0 -0.5406086859179279,0.16288096238639937 l -3.3066260804292087 -11.326877276475765" fill="#ff8d0d" stroke="none" /><path d="M 105.53697534728816 120.25689768951611 l 1.9457188571622266 7.118367944585726 a28.379497548317385,28.379497548317385 0 0,0 -0.4723288391116478,0.12474633933940117 l -1.8228995752390813 -7.150805633228711" fill="#ff5007" stroke="none" /><path d="M 105.18746579009965 120.34920634021253 l 1.8228231397283852 7.150505794725324 a28.379188120594954,28.379188120594954 0 0,0 -0.4744009891137782,0.11659622100544581 l -1.699468865871396 -7.1808232740447995" fill="#ff5007" stroke="none" /><path d="M 104.48393922423573 120.51570834832081 l 3.1493028498409923 14.409244982325996 a35.74938810258593,35.74938810258593 0 0,0 -0.6023066075890433,0.12621920573773765 l -2.900804780822571 -14.461320168790273" fill="#ffb410" stroke="none" /><path d="M 103.7750983002368 120.6578951692458 l 4.004938064138043 21.915612285671102 a43.2785455259862,43.2785455259862 0 0,0 -0.7339856429654141,0.12761281231011495 l -3.6271034497005794 -21.981303676502222" fill="#ebff1a" stroke="none" /><path d="M 103.41894727170886 120.7198165907248 l 1.200364041236691 7.274555820831439 a28.37292589287907,28.37292589287907 0 0,0 -0.4825615034966522,0.07536618246761548 l -1.0749666741315216 -7.29414031064616" fill="#ff5007" stroke="none" /><path d="M 102.70371172650421 120.8252237178851 l 1.140813970419957 8.78707072266248 a29.860816463519456,29.860816463519456 0 0,0 -0.5102965787644284,0.061789809107217826 l -0.9893899686041483 -8.805406060495047" fill="#ff6509" stroke="none" /><path d="M 102.34483914955558 120.86867818915974 l 0.9887993214221342 8.80014939887409 a29.855526722931216,29.855526722931216 0 0,0 -0.511194010511258,0.05298734933569658 l -0.8371727143052735 -8.815866116665545" fill="#ff6509" stroke="none" /><path d="M 101.62511606390274 120.93702456842531 l 0.21149141149917372 2.7247290066995338 a23.732924583132096,23.732924583132096 0 0,0 -0.40757030477631495,0.02810843446917372 l -0.16455834594392837 -2.727965785684993" fill="#ff0e01" stroke="none" /><path d="M 101.26447882468166 120.96189622390904 l 1.0664867091084074 17.679682161650113 a38.71181964784178,38.71181964784178 0 0,0 -0.6654966088712558,0.03439857310550081 l -0.762002031823672 -17.695420541517816" fill="#ffdb14" stroke="none" /><line stroke="#e1ed5e" stroke-width="0.3" x1="102.19456741930631" x2="102.32365962044197" y1="184.97166512339345" y2="189.96999836594603" /><path d="M 102.22038585953345 185.97133177190398 a86.0,86.0 0 0,1 -42.740103519485714,-10.115201625700543" fill="none" id="id19" stroke="none" /><text fill="#e1ed5e" style="font-size:6.75px; font-family:Arial;" text-anchor="middle"><textPath startOffset="22.20632615414155" xlink:href="#id19">July</textPath></text><path d="M 100.54218724476979 120.99299961872073 l 0.07102054560153424 2.7498512757661375 a23.750768248459,23.750768248459 0 0,0 -0.40878500195287604,0.007037604526830926 l -0.02367585375599027 -2.750666357572128" fill="#ff0e01" stroke="none" /><path d="M 100.18074693466247 120.99922214144158 l 0.08949499859483233 10.397550362613051 a31.397935511333404,31.397935511333404 0 0,0 -0.5404838665145684,0.0 l 0.08949499859482517 -10.397550362613051" fill="#ff7a0b" stroke="none" /><path d="M 98.73552117531835 120.96189622390904 l -1.1644794669377683 19.30415698892223 a40.339247386645496,40.339247386645496 0 0,0 -0.6927540385607425,-0.047776374451094804 l 1.4965962662774408 -19.28125226995485" fill="#ffef16" stroke="none" /><path d="M 98.01472825383883 120.90594882070398 l -0.23197763390487142 2.4428456967369327 a23.453835512151997,23.453835512151997 0 0,0 -0.40158260641638177,-0.0416256791272672 l 0.27399283692684656 -2.4384906491539047" fill="#ff0a01" stroke="none" /><path d="M 97.2962882734958 120.8252237178851 l -1.3304459627858232 10.247703018026915 a31.333707156948616,31.333707156948616 0 0,0 -0.5342716507156127,-0.07404518249481193 l 1.506646204688267 -10.223283270039499" fill="#ff790b" stroke="none" /><path d="M 95.86986931433489 120.58985236759428 l -2.255808954167201 11.245836238792112 a32.469852080451204,32.469852080451204 0 0,0 -0.5470529005804012,-0.1146402542123491 l 2.4490533161769887 -11.205340003853221" fill="#ff890c" stroke="none" /><path d="M 95.51606077576429 120.51570834832081 l -1.9681443886891836 9.005000792046607 a30.21757189282995,30.21757189282995 0 0,0 -0.5071945345950064,-0.1154358247901858 l 2.1228590726770524 -8.969788233678734" fill="#ff6a09" stroke="none" /><path d="M 94.81253420990036 120.34920634021253 l -1.8235328980419894 7.153290009399643 a28.382061378017536,28.382061378017536 0 0,0 -0.47237150972990677,-0.1247576090375108 l 1.9463948505833855 -7.120841051058551" fill="#ff5007" stroke="none" /><path d="M 94.46302465271185 120.25689768951611 l -1.9463948505833855 7.120841051058551 a28.382061378017536,28.382061378017536 0 0,0 -0.4701540256359101,-0.13287022388633585 l 2.0686800443239095 -7.086282033833693" fill="#ff5007" stroke="none" /><path d="M 93.76903079525671 120.05430185196036 l -5.756000866182885 18.525621783318147 a40.39923216083693,40.39923216083693 0 0,0 -0.662313967032941,-0.21205201705822316 l 6.074036178306766 -18.423796919600218" fill="#fff016" stroke="none" /><path d="M 93.08242187328487 119.8279376855182 l -1.018727839984282 2.919991904638264 a24.092597473825528,24.092597473825528 0 0,0 -0.39039236447449943,-0.1399808124055216 l 1.0688397650885082 -2.902023551192784" fill="#ff1302" stroke="none" /><path d="M 92.06813273071674 119.44442032107085 l -3.901342576553586 9.563869679056326 a31.328992067844894,31.328992067844894 0 0,0 -0.49757680951447086,-0.20798714673172367 l 4.065390845565519 -9.49529748930463" fill="#ff790b" stroke="none" /><path d="M 91.40352486487194 119.15986991738527 l -6.663468290322556 14.85157388747569 a37.277931582092485,37.277931582092485 0 0,0 -0.5831901703004694,-0.2677140035133953 l 6.918126456390445 -14.734672813628219" fill="#ffc812" stroke="none" /><path d="M 90.7491055286396 118.85261126421891 l -0.7976137446926889 1.6254754515081966 a22.81062368513683,22.81062368513683 0 0,0 -0.35100780510338264,-0.17600260028133963 l 0.825475457478832 -1.611505010317555" fill="#ff0000" stroke="none" /><line stroke="#e1ed5e" stroke-width="0.3" x1="58.666819895761336" x2="56.23545636021788" y1="174.27360380694188" y2="178.64263932499728" /><path d="M 58.180547188652646 175.14741091055294 a86.0,86.0 0 0,1 -31.652253787137756,-30.449443065178592" fill="none" id="id20" stroke="none" /><text fill="#e1ed5e" style="font-size:6.75px; font-family:Arial;" text-anchor="middle"><textPath startOffset="22.20632615414155" xlink:href="#id20">August</textPath></text><path d="M 89.7882731507175 118.34994917583269 l -3.5896806402114527 6.450471920915019 a28.382031908710637,28.382031908710637 0 0,0 -0.42485365370403955,-0.2412429925724074 l 3.7001830608366997 -6.387725762547979" fill="#ff5007" stroke="none" /><path d="M 89.1626897886671 117.98757091392108 l -3.809604245365509 6.3231120251432555 a28.382061378017536,28.382061378017536 0 0,0 -0.41629834539177535,-0.2557244451383701 l 3.9178817906895933 -6.256599113176508" fill="#ff5007" stroke="none" /><path d="M 88.8546689885994 117.79835938074946 l -1.517706076430468 2.423676618938039 a23.859657337448123,23.859657337448123 0 0,0 -0.3462129422688139,-0.22096948025437663 l 1.5592008207462054 -2.397192709859858" fill="#ff0f01" stroke="none" /><path d="M 88.54995079064634 117.60387380957326 l -4.025480418818785 6.188973341521046 a28.382945457224483,28.382945457224483 0 0,0 -0.4072618852640667,-0.2699109702411859 l 4.131417002822814 -6.118764350188542" fill="#ff5007" stroke="none" /><path d="M 88.24862548938628 117.40417183066458 l -4.129240229404969 6.11554047722233 a28.37905550871391,28.37905550871391 0 0,0 -0.40250030019882277,-0.2768433766704338 l 4.233897414226682 -6.043556311186795" fill="#ff5007" stroke="none" /><path d="M 87.65650970185807 116.9893568818739 l -2.606904410507951 3.5880960990197073 a25.435130688190174,25.435130688190174 0 0,0 -0.35199196463600335,-0.26039524049832086 l 2.6682813455625185 -3.5426909097816197" fill="#ff2603" stroke="none" /><path d="M 85.70375840098266 115.38237550388516 l -1.526361068880628 1.642323890052837 a23.242098542087902,23.242098542087902 0 0,0 -0.2907079247887585,-0.27488248796154924 l 1.5544048280602034 -1.615806765345357" fill="#ff0601" stroke="none" /><path d="M 85.44109423537348 115.13401014063109 l -1.8205327456537652 1.892447240163989 a23.625965733744813,23.625965733744813 0 0,0 -0.29065568440384887,-0.28446776210153674 l 1.8528383824334083 -1.8608293751398826" fill="#ff0c01" stroke="none" /><path d="M 85.18274418774928 114.88116024355367 l -13.88028241035509 13.940145826698656 a40.67205900410114,40.67205900410114 0 0,0 -0.4918595563040951,-0.49825113372306284 l 14.118182591714719 -13.699154198994927" fill="#fff316" stroke="none" /><path d="M 84.43433777217949 114.09645910891817 l -8.850609836816465 8.015223369724973 a32.940565319537335,32.940565319537335 0 0,0 -0.37699873153007885,-0.4235620714101603 l 8.987267417994882 -7.86168712857395" fill="#ff8f0d" stroke="none" /><path d="M 84.19399662182784 113.82643327865904 l -4.264281072818985 3.7302154329666144 a26.665562659113792,26.665562659113792 0 0,0 -0.29923521795856706,-0.3480781613622024 l 4.327858800348331 -3.656260172442882" fill="#ff3805" stroke="none" /><path d="M 83.95833913139862 113.55231037782056 l -1.7923246442184717 1.514191085027177 a23.346316745933645,23.346316745933645 0 0,0 -0.25670275830421885,-0.3092150090827586 l 1.818123402416227 -1.4831148188306573" fill="#ff0801" stroke="none" /><path d="M 83.50135304334701 112.99209946851258 l -11.599430903643295 9.134140543416086 a35.76412275603507,35.76412275603507 0 0,0 -0.3767038162767192,-0.4869404627231149 l 11.754941537138084 -8.933122086579719" fill="#ffb510" stroke="none" /><path d="M 83.06392112726016 112.41649034213515 l -2.1763134764155407 1.5955390538991157 a23.69853390198181,23.69853390198181 0 0,0 -0.23836234529382397,-0.3310644498532559 l 2.203455614084972 -1.5578409985947215" fill="#ff0d01" stroke="none" /><path d="M 82.6465618267979 111.8261652097733 l -12.192151648986812 8.308808791919207 a35.75414739565,35.75414739565 0 0,0 -0.342212980724413,-0.5115619741160434 l 12.333367735121954 -8.097709903597341" fill="#ffb510" stroke="none" /><line stroke="#e1ed5e" stroke-width="0.3" x1="26.63291911575756" x2="22.317208475507996" y1="142.92168965132927" y2="145.44649492493687" /><path d="M 25.769776987707644 143.4266507060508 a86.0,86.0 0 0,1 -11.730757126820373,-40.83630448921669" fill="none" id="id21" stroke="none" /><text fill="#e1ed5e" style="font-size:6.75px; font-family:Arial;" text-anchor="middle"><textPath startOffset="21.46611528233685" xlink:href="#id21">September</textPath></text><path d="M 81.87401531095188 110.60418214915194 l -12.730818234300061 7.447866572778845 a35.74938810258593,35.74938810258593 0 0,0 -0.3061645756678112,-0.5338237443657192 l 12.85713480612025 -7.227622982554819" fill="#ffb410" stroke="none" /><path d="M 81.18737489456691 109.33194174019688 l -6.610870249427636 3.2793007713656506 a28.379527017624284,28.379527017624284 0 0,0 -0.21331504374031382,-0.43949217193395246 l 6.666338549782669 -3.165019643466413" fill="#ff5007" stroke="none" /><path d="M 81.02952815118164 109.00673069616217 l -6.6738856796510575 3.1686028419653884 a28.38788156612994,28.38788156612994 0 0,0 -0.20577886421475006,-0.44322936657139567 l 6.727439160705634 -3.053253408115166" fill="#ff5107" stroke="none" /><path d="M 80.87730276802145 108.67885076344099 l -12.625814478054236 5.730235556869079 a34.865308895637725,34.865308895637725 0 0,0 -0.24332485010731061,-0.548633301107595 l 12.722580412892826 -5.512053919268788" fill="#ffa90f" stroke="none" /><path d="M 80.32549172779594 107.34259656027581 l -13.836455418865098 5.163814442493669 a35.7686315599905,35.7686315599905 0 0,0 -0.21031229593817527,-0.578689112884919 l 13.923291975808498 -4.924877532602633" fill="#ffb510" stroke="none" /><path d="M 80.0844068197444 106.66101706037122 l -1.9432216867197774 0.6499345859382362 a23.04903037794386,23.04903037794386 0 0,0 -0.1226073952275332,-0.37734676182772026 l 1.9541213329635598 -0.6163889241327125" fill="#ff0400" stroke="none" /><path d="M 79.97269907076064 106.31721596034903 l -14.240767064292163 4.491968303867496 a35.93242196773111,35.93242196773111 0 0,0 -0.1809851544380258,-0.5914699564344246 l 14.315978991236317 -4.2461713748810235" fill="#ffb711" stroke="none" /><path d="M 79.76711848015287 105.62410040840567 l -7.113761580258355 1.97740046911192 a28.38347590474865,28.38347590474865 0 0,0 -0.12679564165387391,-0.4718537517305418 l 7.146745298254004 -1.8546557842058393" fill="#ff5007" stroke="none" /><path d="M 79.67330655649465 105.27499134158121 l -13.36159663250128 3.4674752557290605 a34.804189553130705,34.804189553130705 0 0,0 -0.14549590751880948,-0.5811838261247175 l 13.419303854315148 -3.236963590206951" fill="#ffa80f" stroke="none" /><path d="M 79.58551787078972 104.9243191809786 l -10.24011662968511 2.4700897341336088 a31.533818485441344,31.533818485441344 0 0,0 -0.12274078462136065,-0.5287640877240386 l 10.281117980237026 -2.293456989060996" fill="#ff7c0b" stroke="none" /><path d="M 79.4281124754447 104.21870165774334 l -17.62291359330001 3.6139520353482757 a38.98965627327871,38.98965627327871 0 0,0 -0.12916728572322508,-0.658621207108782 l 17.6825108119989 -3.310067101171539" fill="#ffde14" stroke="none" /><path d="M 79.35854240842038 103.8639653848113 l -14.306402990727657 2.67807860428824 a35.55490541171078,35.55490541171078 0 0,0 -0.1074326305079372,-0.6025392454991454 l 14.350382063574783 -2.431420608055881" fill="#ffb210" stroke="none" /><path d="M 79.23777060512086 103.15116336523772 l -12.498783089564414 1.8969883548055946 a33.64192008906279,33.64192008906279 0 0,0 -0.08196765557050666,-0.5732815921497451 l 12.52958479615152 -1.6815612906754491" fill="#ff990e" stroke="none" /><path d="M 79.1416061653843 102.43462659150553 l -14.649930755396788 1.7099644039519541 a35.74938810258593,35.74938810258593 0 0,0 -0.06608137947086017,-0.6118315035446569 l 14.6771944363687 -1.4575365785225152" fill="#ffb410" stroke="none" /><path d="M 79.07016306316243 101.71520430193888 l -11.758178053237286 0.9635850312994934 a32.797594977120355,32.797594977120355 0 0,0 -0.04126787270613474,-0.5630673355976571 l 11.773022484607756 -0.7610445592050756" fill="#ff8d0d" stroke="none" /><path d="M 79.04373962182676 101.35467743843564 l -2.287980838138584 0.14790215262965686 a23.29275628064603,23.29275628064603 0 0,0 -0.022420552491391556,-0.40033402600907275 l 2.2901877415175074 -0.10849641028514648" fill="#ff0701" stroke="none" /><line stroke="#e1ed5e" stroke-width="0.3" x1="15.007084014347285" x2="10.007500721073583" y1="101.09737516637583" y2="101.16192664675087" /><path d="M 14.007167355692545 101.11028546245083 a86.0,86.0 0 0,1 10.666146001902534,-42.60595125391555" fill="none" id="id22" stroke="none" /><text fill="#e1ed5e" style="font-size:6.75px; font-family:Arial;" text-anchor="middle"><textPath startOffset="22.20632615414155" xlink:href="#id22">October</textPath></text><path d="M 79.00175016825051 100.2711162175752 l -19.95643949637038 0.2576650166502743 a40.95810283150924,40.95810283150924 0 0,0 -0.0030342205519901535,-0.7050459983023711 l 19.957918014211874 0.08589045985577225" fill="#fff717" stroke="none" /><path d="M 79.00019446554 99.90962569577889 l -15.065837351673746 -0.06483700841571113 a36.065976866594085,36.065976866594085 0 0,0 0.008015221777572865,-0.6207877597573119 l 15.062489122778459 0.3241610262334951" fill="#ffb911" stroke="none" /><path d="M 79.00486145842228 99.54816195383935 l -5.368580326243849 -0.11553764412950769 a26.36982342973617,26.36982342973617 0 0,0 0.013672509269221764,-0.453724019633119 l 5.365796122518982 0.20793181118762105" fill="#ff3404" stroke="none" /><path d="M 79.01574976396665 99.18683210126434 l -16.209228853093887 -0.6281294026870723 a37.22139471680815,37.22139471680815 0 0,0 0.03032017905339514,-0.6400110584876395 l 16.196015065806993 0.907051567797721" fill="#ffc812" stroke="none" /><path d="M 79.05617556472873 98.46500227214037 l -3.3514694213819527 -0.24563316803537294 a24.360458738877384,24.360458738877384 0 0,0 0.03425024374567609,-0.41793972638341315 l 3.3467446938167797 0.30328681162656446" fill="#ff1702" stroke="none" /><path d="M 79.08570108090925 98.10471618934814 l -20.558608089494548 -1.8630505967373456 a41.64285164659752,41.64285164659752 0 0,0 0.0708382074097619,-0.7133310813584016 l 20.523492756402558 2.2166572088001777" fill="#ffff18" stroke="none" /><path d="M 79.12142395522702 97.74499172005258 l -11.733687124690636 -1.2673068107589691 a32.8019269652344,32.8019269652344 0 0,0 0.06546272285309675,-0.5608446319941893 l 11.71013404883395 1.4690951810780202" fill="#ff8d0d" stroke="none" /><path d="M 79.16333360222342 97.38593545837743 l -14.634670450710379 -1.835992973790456 a35.74938810258593,35.74938810258593 0 0,0 0.08185588624793357,-0.6099214304556394 l 14.600898565404611 2.0876327463107547" fill="#ffb410" stroke="none" /><path d="M 79.21141760316559 97.0276538004421 l -14.600898565404611 -2.0876327463107547 a35.74938810258593,35.74938810258593 0 0,0 0.09234255322459109,-0.6084220494906569 l 14.562800118740718 2.338653908193504" fill="#ffb410" stroke="none" /><path d="M 79.26566170972629 96.67025291283419 l -16.786456771836782 -2.695753042964385 a38.00153567832614,38.00153567832614 0 0,0 0.10927819042794974,-0.6449660657894547 l 16.737566719888612 2.9843048970696677" fill="#ffd213" stroke="none" /><path d="M 79.32604984820605 96.31383870115002 l -16.683880456085607 -2.974732646655138 a37.94700272591089,37.94700272591089 0 0,0 0.12019130552878432,-0.642066760147793 l 16.63020342664696 3.2614774842655034" fill="#ffd113" stroke="none" /><path d="M 79.46518482838121 95.60439243477599 l -14.424537767673847 -3.0876638921044783 a35.75130360753432,35.75130360753432 0 0,0 0.1339918221860597,-0.6006590657040669 l 14.369251558485749 3.3355011273585045" fill="#ffb510" stroke="none" /><path d="M 79.54389044137918 95.25157060432595 l -14.367385664243642 -3.335068001644006 a35.74938810258593,35.74938810258593 0 0,0 0.1443035962783597,-0.598231568494693 l 14.307849267704468 3.5818848017980955" fill="#ffb410" stroke="none" /><path d="M 79.62865764111835 94.90015583598534 l -10.0179672725313 -2.5079384082823535 a31.32712076685685,31.32712076685685 0 0,0 0.13545797512249869,-0.5219748349326491 l 9.973312965538494 2.6800096687638666" fill="#ff790b" stroke="none" /><path d="M 79.71946130924805 94.55025226153421 l -14.244073146638598 -3.827640212181995 a35.74938810258593,35.74938810258593 0 0,0 0.1648101767851364,-0.5929098945628579 l 14.1760761992871 4.072261410163795" fill="#ffb410" stroke="none" /><path d="M 79.81627453868168 94.20196356495316 l -14.178653667686975 -4.07300182132928 a35.75206980951368,35.75206980951368 0 0,0 0.17500485440326594,-0.5900293694744617 l 14.106442916172002 4.316460577550281" fill="#ffb510" stroke="none" /><path d="M 79.91906864156998 93.8553929516997 l -19.73753972273811 -6.039531908739406 a41.64089193768879,41.64089193768879 0 0,0 0.21562945948687945,-0.683604312636851 l 19.630654779483027 6.378386387802671" fill="#ffff18" stroke="none" /><path d="M 80.02781315780177 93.51064311812611 l -9.83006957930493 -3.193983221656089 a31.335946824272888,31.335946824272888 0 0,0 0.17109830786166494,-0.5115621627026946 l 9.773633977671492 3.3627184872811053" fill="#ff790b" stroke="none" /><path d="M 80.14247586403 93.16781622104843 l -14.372775591386088 -4.945100083051333 a36.199693846645005,36.199693846645005 0 0,0 0.20779816994481665,-0.5874734088365057 l 14.285524340631461 5.19177111831445" fill="#ffba11" stroke="none" /><path d="M 80.38941819471856 92.48833698450439 l -11.417552725540993 -4.373394394286643 a33.22649126971783,33.22649126971783 0 0,0 0.20917887907887509,-0.5323374310247045 l 11.340580296580427 4.56928083020711" fill="#ff930d" stroke="none" /><path d="M 80.52162464483688 92.15188598940014 l -13.680672272435526 -5.512137115032354 a35.74938810258593,35.74938810258593 0 0,0 0.23488763167835083,-0.5687990312289433 l 13.583762953870977 5.746810716714609" fill="#ffb410" stroke="none" /><path d="M 80.65960295795068 91.81776055985345 l -9.834915782457811 -4.16080578029432 a31.6788516793412,31.6788516793412 0 0,0 0.21678787084938692,-0.5003762952643677 l 9.761837201765744 4.329481220145286" fill="#ff7e0b" stroke="none" /><path d="M 80.95270993114464 91.15688171328213 l -30.254886459942956 -14.046488437426978 a54.35658843657141,54.35658843657141 0 0,0 0.4013116022765045,-0.8452645816127876 l 30.0086166638247 14.565195434680298" fill="#6dff28" stroke="none" /><path d="M 81.10775173730289 90.83032412892265 l -2.594640560896014 -1.2593531809733978 a23.884116862173688,23.884116862173688 0 0,0 0.1827021058742265,-0.36831629680881994 l 2.572578442068375 1.3038290662811793" fill="#ff1001" stroke="none" /><path d="M 81.26839172434947 90.50648371742162 l -13.15224929142812 -6.665796709138502 a35.74498244120464,35.74498244120464 0 0,0 0.2828799473135986,-0.5464340193310492 l 13.035559910954406 6.891203450729887" fill="#ffb410" stroke="none" /><path d="M 81.43458229118936 90.18545643968196 l -9.13152629764439 -4.8273496468592025 a31.328992067844894,31.328992067844894 0 0,0 0.2561397236998909,-0.47458800713369426 l 9.047078474726028 4.98381863732537" fill="#ff790b" stroke="none" /><path d="M 81.6062741919709 89.86733742301443 l -13.564164731721903 -7.472173163807365 a36.48612077504277,36.48612077504277 0 0,0 0.30777321400858687,-0.5474942054631912 l 13.433533876420885 7.704550879205341" fill="#ffbe11" stroke="none" /><line stroke="#e1ed5e" stroke-width="0.3" x1="26.266209847984243" x2="21.928928074336255" y1="57.711370442889674" y2="55.22380399835377" /><path d="M 25.398753493254645 57.213857153982495 a86.0,86.0 0 0,1 29.58750427330803,-30.492523968695096" fill="none" id="id23" stroke="none" /><text fill="#e1ed5e" style="font-size:6.75px; font-family:Arial;" text-anchor="middle"><textPath startOffset="21.46611528233685" xlink:href="#id23">November</textPath></text><path d="M 81.78341655067845 89.55222093294921 l -2.456790117463951 -1.409045797900873 a23.832177208765483,23.832177208765483 0 0,0 0.20715873265566445,-0.3541014255983425 l 2.4321717103379616 1.4511266358531074" fill="#ff0f01" stroke="none" /><path d="M 81.96595687620814 89.24020034530311 l -25.813322212397974 -15.40121499771262 a51.05869303623906,51.05869303623906 0 0,0 0.45681532293632715,-0.7508842794056262 l 25.54439109117543 15.84326705032532" fill="#91ff24" stroke="none" /><path d="M 82.15384107792192 88.93136811851018 l -2.5080585088225846 -1.5555603025058624 a23.951292147248303,23.951292147248303 0 0,0 0.22032041319519774,-0.3484939836131313 l 2.4809104993814244 1.5985019338332094" fill="#ff1101" stroke="none" /><path d="M 82.34701348167596 88.62581576622439 l -6.205521438326741 -3.9983457775207984 a28.382090847324434,28.382090847324434 0 0,0 0.2681477295088735,-0.4084073886002969 l 6.1357770734599475 4.104571230098762" fill="#ff5007" stroke="none" /><path d="M 82.7489923806493 88.02491185347247 l -12.118515773712893 -8.412279317094065 a35.75211401347403,35.75211401347403 0 0,0 0.35528642904499746,-0.5025274578044818 l 11.971916724864018 8.619633275230333" fill="#ffb510" stroke="none" /><path d="M 83.17141714833178 87.43820079747576 l -11.817601993108019 -8.821321712069013 a35.746912680806474,35.746912680806474 0 0,0 0.3723195174285846,-0.48992884213274707 l 11.664006535455325 9.023435330082787" fill="#ffb410" stroke="none" /><path d="M 83.39014120810768 87.1503855733568 l -34.97277834030931 -27.055420683093953 a65.21641112957491,65.21641112957491 0 0,0 0.6945421060683504,-0.8819979428516375 l 34.50188215364699 27.653411019898638" fill="#35ff69" stroke="none" /><path d="M 83.6137871275137 86.86637796730984 l -2.3415467368456513 -1.876760057550968 a24.00084478679775,24.00084478679775 0 0,0 0.26115377262970185,-0.32014364607435153 l 2.308894472139557 1.9167878732334018" fill="#ff1201" stroke="none" /><path d="M 83.84228863543731 86.58626213691792 l -2.361271693186921 -1.9602701645848206 a24.068918885732764,24.068918885732764 0 0,0 0.2673820628990841,-0.31649602582846925 l 2.3271790168007125 2.0006251400424055" fill="#ff1302" stroke="none" /><path d="M 84.31358615837235 86.03803664274999 l -7.71580996633956 -6.8675898206673445 a31.32944884210182,31.32944884210182 0 0,0 0.3620138094062044,-0.39974469017248654 l 7.59645251631731 6.9993872981093865" fill="#ff790b" stroke="none" /><path d="M 85.05521093208273 85.24692304244772 l -44.73995113636007 -44.16602597682797 a83.86732918034397,83.86732918034397 0 0,0 1.0230384415041598,-1.018645189315795 l 43.973076894688596 44.929607016793874" fill="#4dd3ff" stroke="none" /><path d="M 85.57189188830299 84.74124197986013 l -6.281946038027734 -6.643608000977699 a30.14332397409975,30.14332397409975 0 0,0 0.3800816449790057,-0.35324446621390854 l 6.1666565092538725 6.7507570532662555" fill="#ff6909" stroke="none" /><path d="M 86.10567301691215 84.25364557470407 l -9.758705766561645 -11.05948060093149 a35.74938810258593,35.74938810258593 0 0,0 0.4649228373999749,-0.4031765031675396 l 9.566889130514896 11.22582209751871" fill="#ffb410" stroke="none" /><path d="M 86.65592168130627 83.78471172551755 l -1.6363683447591346 -1.9884613833789695 a23.575204852612536,23.575204852612536 0 0,0 0.315567141057861,-0.2551666818451344 l 1.6018978051367732 2.016334162488238" fill="#ff0b01" stroke="none" /><path d="M 86.93701828274178 83.55741782278169 l -9.177806076054456 -11.552250005274642 a35.7542063342638,35.7542063342638 0 0,0 0.48518022958942064,-0.37869086499582105 l 8.97759329130561 11.708519259493684" fill="#ffb510" stroke="none" /><path d="M 87.51073957382395 83.11751280151077 l -4.438532199525528 -5.999831894090392 a28.463146175948133,28.463146175948133 0 0,0 0.39638954335537996,-0.28799386090430923 l 4.334597339816367 6.07534498981137" fill="#ff5207" stroke="none" /><path d="M 87.80319425747018 82.90503203632743 l -7.471038626937432 -10.471361820374861 a33.863352461096426,33.863352461096426 0 0,0 0.4774230558587463,-0.33446536072658795 l 7.289684431495025 10.598412023865391" fill="#ff9c0e" stroke="none" /><path d="M 88.39885842347998 82.49532879139004 l -4.151370875221024 -6.263899268570222 a28.514673259059766,28.514673259059766 0 0,0 0.4114707736420064,-0.2676320369809532 l 4.04293307579473 6.33443022971071" fill="#ff5207" stroke="none" /><path d="M 88.70189139769569 82.29822771554957 l -3.6938059864004638 -5.7874211282466135 a27.865744386506332,27.865744386506332 0 0,0 0.40654906594839246,-0.25458098780000155 l 3.5936377680798293 5.850146457369545" fill="#ff4906" stroke="none" /><path d="M 89.00827224532344 82.1063720568725 l -32.97518326402967 -53.68088382938249 a84.0,84.0 0 0,0 1.2385517351294033,-0.746213562165523 l 32.046269462682616 54.240544001006626" fill="#4dd2ff" stroke="none" /><line stroke="#e1ed5e" stroke-width="0.3" x1="56.762969772571076" x2="54.21961505331055" y1="26.818313649435495" y2="22.513508569990535" /><path d="M 56.25429882871897 25.957352633546506 a86.0,86.0 0 0,1 42.265352541879196,-11.944610805530505" fill="none" id="id24" stroke="none" /><text fill="#e1ed5e" style="font-size:6.75px; font-family:Arial;" text-anchor="middle"><textPath startOffset="22.20632615414155" xlink:href="#id24">December</textPath></text><path d="M 90.58718382345135 81.22770947309562 l -6.611108520295948 -13.184752312181438 a35.74938810258593,35.74938810258593 0 0,0 0.5524620774326078,-0.2710907420797201 l 6.383175175852914 13.296598214395988" fill="#ffb410" stroke="none" /><path d="M 91.23893434514133 80.91482961587045 l -6.153350358845084 -13.404504047595514 a35.74938810258593,35.74938810258593 0 0,0 0.561466069052571,-0.2519134588408095 l 5.921702171325738 13.508437836952853" fill="#ffb410" stroke="none" /><path d="M 91.90106846888425 80.62456947434976 l -1.7104676083429775 -4.092026977200383 a25.435130688190174,25.435130688190174 0 0,0 0.405407072403088,-0.1653757239985901 l 1.639776666351509 4.1208635873825505" fill="#ff2603" stroke="none" /><path d="M 92.23578459929587 80.48803036053334 l -4.370495114497776 -10.983333612277706 a32.82094940283724,32.82094940283724 0 0,0 0.5267244042595224,-0.20436088569809607 l 4.180787545238577 11.056937201866354" fill="#ff8e0d" stroke="none" /><path d="M 93.25333710446033 80.11325718540243 l -1.4353866991792563 -4.231005249268301 a25.467856353500707,25.467856353500707 0 0,0 0.416359646039028,-0.13726722913112158 l 1.362344230897819 4.2550862026586564" fill="#ff2703" stroke="none" /><path d="M 93.59665428221793 80.00007090966166 l -4.833951785768731 -15.098152934802894 a36.85311678850042,36.85311678850042 0 0,0 0.60582071317096,-0.18823144456633809 l 4.573345699887041 15.179124514251757" fill="#ffc312" stroke="none" /><path d="M 94.28887869178378 79.79150937346287 l -1.2221787711528749 -4.324612787556013 a25.493995628719475,25.493995628719475 0 0,0 0.42332428989788917,-0.11571051959678776 l 1.1475565920312634 4.345009847979098" fill="#ff2703" stroke="none" /><path d="M 95.692805502759 79.44645832069477 l -3.5926035762221646 -17.14357858425068 a38.51596663419586,38.51596663419586 0 0,0 0.6500643974762863,-0.1303968026454037 l 3.296972769278742 17.202879342973294" fill="#ffd814" stroke="none" /><path d="M 96.40284397218896 79.31037775812273 l -2.5260223245589875 -14.528824233814861 a35.74678006892543,35.74678006892543 0 0,0 0.6071348773886807,-0.10018245690150093 l 2.2755582410314212 14.57015295365599" fill="#ffb410" stroke="none" /><path d="M 97.47563105711357 79.15227682838746 l -0.28188142492214147 -2.32794256582679 a23.344946423162874,23.344946423162874 0 0,0 0.3993467647610389,-0.04487126207861579 l 0.24176795665138454 2.3324497813760043" fill="#ff0801" stroke="none" /><path d="M 97.83486435360386 79.11191278185805 l -1.2312854872345802 -11.878793225079345 a32.94243662052537,32.94243662052537 0 0,0 0.5645311996261673,-0.053609039707125265 l 1.0266291605181765 11.89822780930165" fill="#ff8f0d" stroke="none" /><path d="M 98.19473922651362 79.07773832637324 l -2.010174096155582 -23.297126413537804 a44.383688738631804,44.383688738631804 0 0,0 0.7617293739853043,-0.05912485978914895 l 1.6088545328079433 23.328276535515418" fill="#deff1b" stroke="none" /><path d="M 98.91598698831166 79.02799685794201 l -0.7419351168333179 -14.35394726230933 a35.373109257455326,35.373109257455326 0 0,0 0.6083486997725742,-0.026196774707693597 l 0.49474558467141955 14.364591763541215" fill="#ffb010" stroke="none" /></svg>